<svg width="20" height="20" viewBox="0 0 20 20" fill="none" xmlns="http://www.w3.org/2000/svg">
<path d="M5.42291 16.909C6.25789 16.909 6.93687 17.6029 6.93687 18.455C6.93687 19.3071 6.25789 20 5.42291 20C4.58793 20 3.90795 19.3071 3.90795 18.455C3.90795 17.6029 4.58793 16.909 5.42291 16.909ZM16.6746 16.909C17.5096 16.909 18.1896 17.6029 18.1896 18.455C18.1896 19.3071 17.5096 20 16.6746 20C15.8396 20 15.1607 19.3071 15.1607 18.455C15.1607 17.6029 15.8396 16.909 16.6746 16.909ZM0.775446 0.000319881L0.877924 0.0101507L2.95887 0.378538C3.29486 0.437725 3.54986 0.722434 3.57786 1.06939L4.54083 12.7761C4.58683 13.3374 5.03782 13.7609 5.59081 13.7609H16.5015C17.0215 13.7609 17.4695 13.365 17.5445 12.8404L18.4935 6.14721C18.5275 5.91047 18.4215 5.74413 18.3555 5.66556C18.2895 5.588 18.1435 5.45738 17.9085 5.45738H7.16377C6.74978 5.45738 6.41378 5.11451 6.41378 4.69203C6.41378 4.26956 6.74978 3.92669 7.16377 3.92669H17.9085C18.5155 3.92669 19.0925 4.19609 19.4895 4.66448C19.8864 5.13287 20.0654 5.7523 19.9784 6.36661L19.0285 13.0598C18.8485 14.3323 17.7625 15.2916 16.5015 15.2916H5.59081C4.25184 15.2916 3.15787 14.265 3.04587 12.9037L2.13189 1.78576L0.621931 1.51942C0.213941 1.44696 -0.0590523 1.05102 0.0109459 0.634674C0.0809442 0.217305 0.464935 -0.0571999 0.877924 0.0101507L0.775446 0.000319881ZM14.8988 7.69893C15.3128 7.69893 15.6488 8.04181 15.6488 8.46428C15.6488 8.88675 15.3128 9.22963 14.8988 9.22963H12.1258C11.7109 9.22963 11.3759 8.88675 11.3759 8.46428C11.3759 8.04181 11.7109 7.69893 12.1258 7.69893H14.8988Z" fill="#3453F3"/>
</svg>
