<svg width="19" height="15" viewBox="0 0 19 15" fill="none" xmlns="http://www.w3.org/2000/svg">
<path d="M0 2.75C0 2.12011 0.250223 1.51602 0.695621 1.07062C1.14102 0.625222 1.74511 0.375 2.375 0.375H16.625C17.2549 0.375 17.859 0.625222 18.3044 1.07062C18.7498 1.51602 19 2.12011 19 2.75V8.6875H0V2.75ZM13.6562 3.9375C13.4988 3.9375 13.3478 4.00006 13.2364 4.11141C13.1251 4.22276 13.0625 4.37378 13.0625 4.53125V5.71875C13.0625 5.87622 13.1251 6.02724 13.2364 6.13859C13.3478 6.24994 13.4988 6.3125 13.6562 6.3125H16.0312C16.1887 6.3125 16.3397 6.24994 16.4511 6.13859C16.5624 6.02724 16.625 5.87622 16.625 5.71875V4.53125C16.625 4.37378 16.5624 4.22276 16.4511 4.11141C16.3397 4.00006 16.1887 3.9375 16.0312 3.9375H13.6562ZM0 11.0625V12.25C0 12.8799 0.250223 13.484 0.695621 13.9294C1.14102 14.3748 1.74511 14.625 2.375 14.625H16.625C17.2549 14.625 17.859 14.3748 18.3044 13.9294C18.7498 13.484 19 12.8799 19 12.25V11.0625H0Z" fill="#002638"/>
</svg>
