<svg width="20" height="20" viewBox="0 0 20 20" fill="none" xmlns="http://www.w3.org/2000/svg">
<path d="M13.3333 1.66602H6.66663C3.90913 1.66602 1.66663 3.90852 1.66663 6.66602V17.4993C1.66663 17.7204 1.75442 17.9323 1.9107 18.0886C2.06698 18.2449 2.27895 18.3327 2.49996 18.3327H13.3333C16.0908 18.3327 18.3333 16.0902 18.3333 13.3327V6.66602C18.3333 3.90852 16.0908 1.66602 13.3333 1.66602ZM16.6666 13.3327C16.6666 15.171 15.1716 16.666 13.3333 16.666H3.33329V6.66602C3.33329 4.82768 4.82829 3.33268 6.66663 3.33268H13.3333C15.1716 3.33268 16.6666 4.82768 16.6666 6.66602V13.3327Z" fill="#79778A"/>
<path d="M5.83337 7.5H14.1667V9.16667H5.83337V7.5ZM5.83337 10.8333H11.6667V12.5H5.83337V10.8333Z" fill="#79778A"/>
</svg>
