<svg width="16" height="18" viewBox="0 0 16 18" fill="none" xmlns="http://www.w3.org/2000/svg">
<path d="M9.66 1.3C9.61389 1.07413 9.49116 0.871121 9.31258 0.725339C9.134 0.579557 8.91053 0.499953 8.68 0.5H1.5C1.23478 0.5 0.98043 0.605357 0.792893 0.792893C0.605357 0.98043 0.5 1.23478 0.5 1.5V16.5C0.5 16.7652 0.605357 17.0196 0.792893 17.2071C0.98043 17.3946 1.23478 17.5 1.5 17.5C1.76522 17.5 2.01957 17.3946 2.20711 17.2071C2.39464 17.0196 2.5 16.7652 2.5 16.5V10.5H8.1L8.34 11.7C8.43 12.168 8.843 12.505 9.32 12.5H14.5C14.7652 12.5 15.0196 12.3946 15.2071 12.2071C15.3946 12.0196 15.5 11.7652 15.5 11.5V3.5C15.5 3.23478 15.3946 2.98043 15.2071 2.79289C15.0196 2.60536 14.7652 2.5 14.5 2.5H9.9L9.66 1.3Z" fill="#3453F3"/>
</svg>
