<svg width="19" height="19" viewBox="0 0 19 19" fill="none" xmlns="http://www.w3.org/2000/svg">
<path fill-rule="evenodd" clip-rule="evenodd" d="M4.90078 0.300781C4.59578 0.300781 4.30328 0.421942 4.08761 0.637608C3.87194 0.853275 3.75078 1.14578 3.75078 1.45078V2.60078H2.60078C1.99078 2.60078 1.40577 2.8431 0.974435 3.27444C0.543102 3.70577 0.300781 4.29078 0.300781 4.90078V16.4008C0.300781 17.0108 0.543102 17.5958 0.974435 18.0271C1.40577 18.4585 1.99078 18.7008 2.60078 18.7008H16.4008C17.0108 18.7008 17.5958 18.4585 18.0271 18.0271C18.4585 17.5958 18.7008 17.0108 18.7008 16.4008V4.90078C18.7008 4.29078 18.4585 3.70577 18.0271 3.27444C17.5958 2.8431 17.0108 2.60078 16.4008 2.60078H15.2508V1.45078C15.2508 1.14578 15.1296 0.853275 14.914 0.637608C14.6983 0.421942 14.4058 0.300781 14.1008 0.300781C13.7958 0.300781 13.5033 0.421942 13.2876 0.637608C13.0719 0.853275 12.9508 1.14578 12.9508 1.45078V2.60078H6.05078V1.45078C6.05078 1.14578 5.92962 0.853275 5.71395 0.637608C5.49829 0.421942 5.20578 0.300781 4.90078 0.300781V0.300781ZM4.90078 6.05078C4.59578 6.05078 4.30328 6.17194 4.08761 6.38761C3.87194 6.60327 3.75078 6.89578 3.75078 7.20078C3.75078 7.50578 3.87194 7.79829 4.08761 8.01395C4.30328 8.22962 4.59578 8.35078 4.90078 8.35078H14.1008C14.4058 8.35078 14.6983 8.22962 14.914 8.01395C15.1296 7.79829 15.2508 7.50578 15.2508 7.20078C15.2508 6.89578 15.1296 6.60327 14.914 6.38761C14.6983 6.17194 14.4058 6.05078 14.1008 6.05078H4.90078Z" fill="#3453F3"/>
</svg>
