<svg width="224" height="42" viewBox="0 0 224 42" fill="none" xmlns="http://www.w3.org/2000/svg">
<g clip-path="url(#clip0_2239_6100)">
<path d="M219.587 21.7378H218.411C220.676 16.753 218.792 11.4173 216.114 7.91869C213.823 4.93091 210.154 2.30435 207.12 3.16611C206.585 3.32779 206.092 3.60406 205.675 3.97568C205.258 4.3473 204.927 4.80534 204.705 5.31793C203.503 7.79485 203.885 11.9695 204.953 14.5702C206.021 17.171 208.952 20.3239 212.322 21.7378H199.178L198.662 20.5716C197.871 18.7082 197.192 16.7989 196.629 14.8541C197.176 15.0209 197.745 15.1078 198.317 15.1121C198.935 15.1217 199.549 15.0064 200.122 14.7732C200.695 14.54 201.214 14.1937 201.65 13.7549C203.322 12.0624 203.43 9.42032 201.924 7.01565C199.411 3.01131 192.671 2.71201 189.622 3.4396L190.458 6.92793C190.628 6.88665 190.819 6.85569 191.025 6.82472C191.92 11.9256 193.336 16.9212 195.251 21.7327H185.163C187.154 20.6897 189.391 20.2081 191.634 20.3394L191.902 16.7633C189.665 16.623 187.423 16.948 185.318 17.718C184.977 16.6498 184.632 15.463 184.317 14.2193C185.564 13.9554 186.828 13.7829 188.099 13.7033L187.841 10.1273C186.408 10.2253 184.984 10.4253 183.579 10.7259C183.4 9.66038 183.284 8.58513 183.233 7.50588C184.838 7.12918 186.551 6.81956 187.939 6.61831L187.423 3.06807C184.472 3.49637 180.483 4.31685 178.135 5.34373L179.575 8.63081L179.699 8.5792C180.084 12.2787 180.887 15.9227 182.093 19.4415C181.709 19.7174 181.341 20.0137 180.989 20.3291L182.263 21.7481H179.446L178.992 20.9019C177.585 18.1606 176.759 15.1583 176.566 12.083L177.206 11.5051L176.463 10.6794C176.365 8.93526 176.365 7.2427 176.37 5.67915V4.36845H172.758C172.758 4.77611 172.758 5.20441 172.758 5.64303C172.758 7.10854 172.758 8.73917 172.841 10.4524C172.572 10.649 172.292 10.8315 172.005 10.9994C171.308 11.4417 170.511 11.7024 169.688 11.7579C169.48 9.35575 169.42 6.94312 169.507 4.53358L165.921 4.38393C165.828 7.01587 165.9 9.65107 166.137 12.2739C166.168 13.1433 166.539 13.9659 167.169 14.5651C167.679 14.9723 168.299 15.2169 168.95 15.2669C169.185 15.2919 169.421 15.304 169.657 15.303C170.901 15.2835 172.124 14.9799 173.233 14.4154C173.576 16.9467 174.303 19.4107 175.39 21.7223H164.595C164.109 16.8304 163.857 9.80734 164.595 5.05992L161.06 4.53358C160.749 6.64088 160.577 8.7663 160.544 10.8962C159.26 10.9568 157.98 11.086 156.71 11.2832C156.803 8.39344 156.901 6.26742 156.999 5.0496L153.423 4.76063C153.309 6.18485 153.196 8.70305 153.092 12.1862C152.566 12.3704 152.049 12.5823 151.544 12.8209L152.979 15.7777C152.938 17.5632 152.896 19.5292 152.855 21.6604V21.7533H150.363C150.662 16.495 149.599 8.8527 148.34 4.33233L144.299 5.12184C142.385 7.2427 140.594 11.0252 139.304 14.7044C138.726 14.8541 138.143 15.0089 137.55 15.143L138.236 18.105C137.901 19.3047 137.635 20.5229 137.441 21.7533H136.657L136.538 21.4179C135.976 20.0143 134.763 12.5113 137.57 6.84537L138.308 5.35405L135.331 3.60473L134.381 4.28588C132.235 5.83396 130.305 8.23863 128.746 10.5556C128.844 8.77013 128.989 7.00017 129.262 5.31277L125.702 4.76063C125.676 4.9206 125.655 5.08056 125.635 5.23537C122.415 8.73401 119.355 14.1161 117.378 19.7718L120.769 20.9431C121.881 17.7948 123.328 14.7743 125.083 11.9334L125.005 13.822C124.959 15.0759 124.912 16.2628 124.845 17.4342L128.163 18.4662C128.344 18.1721 128.581 17.7489 128.875 17.2226C129.968 15.2272 131.174 13.2959 132.488 11.438C131.987 14.8525 132.133 18.3305 132.916 21.6914H112.59C114.236 20.6593 116.078 18.7758 117.75 15.463C119.241 12.4649 119.092 7.06725 118.199 5.14249L114.943 6.64411C115.371 7.57296 115.557 11.8044 114.535 13.8684C112.543 17.8625 110.438 18.9771 109.375 19.2867C108.841 19.4835 108.251 19.4668 107.729 19.2403C107.213 18.9306 106.8 16.4486 107.496 14.4051C108.58 11.2522 112.708 7.89805 114.499 7.73808L114.174 4.16204C110.66 4.53358 105.484 9.17779 104.08 13.306C103.26 15.7003 103.121 19.7511 105.112 21.7636H102.073L102.501 21.3456C99.4826 18.2495 98.5435 15.2669 98.239 12.9964C100.515 12.2739 104.669 10.4627 106.903 6.59767L103.807 4.80191C102.207 7.57296 99.0337 8.9301 97.2637 9.51837C97.9087 8.48632 98.5899 7.45427 99.3278 6.48415L96.4484 4.34781C93.3058 8.58952 91.1127 13.1202 88.7854 17.8831C88.3623 18.7139 87.3819 21.1444 87 22.3467H87.7328C87.7661 22.3835 87.8067 22.4131 87.852 22.4335C87.8972 22.4539 87.9463 22.4648 87.9959 22.4654H98.7292C99.1059 22.9247 99.4981 23.3736 99.9264 23.8174L101.32 22.4654H106.093C106.839 22.8518 107.668 23.0502 108.508 23.0434C109.132 23.0413 109.752 22.951 110.35 22.775C110.649 22.6908 110.942 22.5874 111.227 22.4654H182.955L183.424 22.9814C183.631 22.7905 183.847 22.6202 184.059 22.4654H217.084L217.833 22.9144C217.92 22.7647 218.003 22.6151 218.086 22.4654H219.634C219.681 22.4661 219.729 22.4573 219.773 22.4394C219.818 22.4216 219.858 22.3951 219.892 22.3615C219.926 22.3278 219.954 22.2878 219.972 22.2436C219.99 22.1995 220 22.1521 220 22.1042C220 22.0519 219.99 22.0001 219.968 21.9524C219.947 21.9046 219.916 21.8619 219.877 21.8272C219.838 21.7925 219.792 21.7666 219.742 21.7512C219.692 21.7357 219.639 21.7312 219.587 21.7378ZM198.884 8.9301C199.473 9.86926 199.555 10.7723 199.101 11.2367C198.647 11.7011 197.77 11.6083 196.841 11.0406L195.953 12.4855C195.396 10.4214 194.921 8.41924 194.668 6.89181C196.449 7.1653 198.172 7.80001 198.884 8.9301ZM91.0353 21.7378C91.3085 20.96 91.6219 20.197 91.9745 19.4518C92.893 17.558 93.796 15.7055 94.7404 13.9046C95.207 16.7563 96.3737 19.4477 98.1358 21.7378H91.0353ZM156.462 21.7378C156.503 19.2506 156.555 16.9852 156.601 14.9573C157.904 14.7171 159.221 14.5637 160.544 14.498C160.595 16.8356 160.75 19.2919 160.993 21.7636H156.462V21.7378ZM145.827 9.17779C146.08 10.5246 146.301 11.9695 146.477 13.4298C145.509 13.4407 144.545 13.5322 143.592 13.7033C144.214 12.1372 144.962 10.6238 145.827 9.17779ZM142.168 17.687C143.679 17.2542 145.241 17.0285 146.812 17.0162C146.913 18.5971 146.913 20.1827 146.812 21.7636H141.136C141.388 20.377 141.724 19.007 142.142 17.6612L142.168 17.687ZM213.493 21.7636L214.411 18.7088C211.831 17.9296 209.102 15.1946 208.297 13.2337C207.197 10.5453 207.523 7.09822 208.142 6.63896C209.014 6.41707 211.269 7.49039 213.302 10.1273C214.36 11.5051 217.585 16.366 214.757 21.0979L215.872 21.7636H213.493Z" fill="#002638"/>
<path d="M89.1084 36.3701C88.6364 35.8818 88.4004 35.291 88.4004 34.5977C88.4004 33.9043 88.6364 33.3151 89.1084 32.8301C89.5837 32.3418 90.1468 32.0977 90.7979 32.0977C91.1722 32.0977 91.5205 32.179 91.8428 32.3418C92.1683 32.5013 92.401 32.6608 92.541 32.8203L92.751 33.0498L92.248 33.5479C92.235 33.5283 92.2155 33.5007 92.1895 33.4648C92.1634 33.429 92.1048 33.3639 92.0137 33.2695C91.9258 33.1751 91.8298 33.0938 91.7256 33.0254C91.6214 32.9538 91.4863 32.8903 91.3203 32.835C91.1543 32.7796 90.9801 32.752 90.7979 32.752C90.3389 32.752 89.9401 32.931 89.6016 33.2891C89.2663 33.6439 89.0986 34.0817 89.0986 34.6025C89.0986 35.1201 89.2663 35.5579 89.6016 35.916C89.9401 36.2708 90.3389 36.4482 90.7979 36.4482C91.0778 36.4482 91.3431 36.3815 91.5938 36.248C91.8444 36.1146 92.0267 35.9811 92.1406 35.8477L92.3018 35.6523L92.7998 36.1016C92.7803 36.1276 92.7493 36.165 92.707 36.2139C92.668 36.2594 92.5833 36.3392 92.4531 36.4531C92.3229 36.5638 92.1862 36.6631 92.043 36.751C91.8997 36.8356 91.7142 36.9154 91.4863 36.9902C91.2617 37.0618 91.0322 37.0977 90.7979 37.0977C90.1436 37.0977 89.5804 36.8551 89.1084 36.3701ZM98.4457 37V32.8594H95.6967V37H94.9984V32.2002H99.1488V37H98.4457ZM105.18 35.916C105.526 35.5579 105.698 35.1201 105.698 34.6025C105.698 34.0817 105.526 33.6439 105.18 33.2891C104.839 32.931 104.427 32.752 103.945 32.752C103.467 32.752 103.055 32.931 102.71 33.2891C102.368 33.6439 102.197 34.0801 102.197 34.5977C102.197 35.112 102.368 35.5498 102.71 35.9111C103.055 36.2692 103.467 36.4482 103.945 36.4482C104.427 36.4482 104.839 36.2708 105.18 35.916ZM102.212 36.375C101.736 35.8932 101.499 35.3024 101.499 34.6025C101.499 33.8994 101.736 33.307 102.212 32.8252C102.69 32.3402 103.27 32.0977 103.95 32.0977C104.63 32.0977 105.208 32.3402 105.683 32.8252C106.159 33.307 106.396 33.8994 106.396 34.6025C106.396 35.3024 106.159 35.8932 105.683 36.375C105.208 36.8568 104.63 37.0977 103.95 37.0977C103.27 37.0977 102.69 36.8568 102.212 36.375ZM109.972 33.3086C109.624 33.6764 109.449 34.1077 109.449 34.6025C109.449 35.0941 109.624 35.5254 109.972 35.8965C110.323 36.2643 110.716 36.4482 111.149 36.4482C111.562 36.4482 111.932 36.2692 112.257 35.9111C112.586 35.5498 112.75 35.1136 112.75 34.6025C112.75 34.0882 112.586 33.652 112.257 33.2939C111.932 32.9326 111.562 32.752 111.149 32.752C110.716 32.752 110.323 32.9375 109.972 33.3086ZM109.449 36.248V39.0996H108.751V32.2002H109.449V32.9521C109.462 32.9326 109.485 32.9033 109.518 32.8643C109.554 32.8219 109.624 32.752 109.728 32.6543C109.835 32.5566 109.951 32.4704 110.074 32.3955C110.198 32.3174 110.356 32.249 110.548 32.1904C110.743 32.1286 110.944 32.0977 111.149 32.0977C111.761 32.0977 112.296 32.3434 112.755 32.835C113.217 33.3265 113.448 33.9157 113.448 34.6025C113.448 35.2861 113.219 35.8737 112.76 36.3652C112.301 36.8535 111.764 37.0977 111.149 37.0977C110.944 37.0977 110.745 37.0684 110.553 37.0098C110.364 36.9512 110.205 36.8812 110.074 36.7998C109.944 36.7184 109.83 36.637 109.733 36.5557C109.638 36.471 109.567 36.3994 109.518 36.3408L109.449 36.248ZM115.198 32.8496V32.2002H119.295V32.8496H117.595V37H116.897V32.8496H115.198ZM124.999 32.2002H125.6V37H124.896V33.4014L121.996 37H121.4V32.2002H122.099V35.7988L124.999 32.2002ZM128.301 32.2002H130.498C130.938 32.2002 131.289 32.319 131.553 32.5566C131.817 32.791 131.949 33.0889 131.949 33.4502C131.949 33.6553 131.898 33.8424 131.797 34.0117C131.7 34.1777 131.6 34.2933 131.499 34.3584L131.348 34.4512C131.368 34.4577 131.395 34.4674 131.431 34.4805C131.47 34.4935 131.535 34.5293 131.626 34.5879C131.721 34.6432 131.802 34.71 131.871 34.7881C131.942 34.863 132.006 34.972 132.061 35.1152C132.12 35.2585 132.149 35.4196 132.149 35.5986C132.149 36.0316 132.014 36.3734 131.744 36.624C131.473 36.8747 131.093 37 130.601 37H128.301V32.2002ZM130.601 34.749H128.999V36.3506H130.601C130.874 36.3506 131.084 36.2806 131.231 36.1406C131.377 36.0007 131.451 35.8037 131.451 35.5498C131.451 35.2959 131.377 35.099 131.231 34.959C131.084 34.819 130.874 34.749 130.601 34.749ZM130.498 34.1484C131 34.1484 131.25 33.932 131.25 33.499C131.25 33.0661 131 32.8496 130.498 32.8496H128.999V34.1484H130.498ZM138.044 37V34.9004H135.295V37H134.596V32.2002H135.295V34.251H138.044V32.2002H138.747V37H138.044ZM145.696 34.8613L141.795 34.8516C141.821 35.2845 141.999 35.6589 142.327 35.9746C142.659 36.2904 143.048 36.4482 143.494 36.4482C143.794 36.4482 144.072 36.3815 144.329 36.248C144.586 36.1146 144.769 35.9811 144.876 35.8477L145.047 35.6523L145.496 36.1016C145.477 36.1276 145.447 36.165 145.408 36.2139C145.373 36.2594 145.291 36.3392 145.164 36.4531C145.041 36.5638 144.905 36.6631 144.759 36.751C144.616 36.8356 144.429 36.9154 144.197 36.9902C143.97 37.0618 143.735 37.0977 143.494 37.0977C142.84 37.0977 142.277 36.8551 141.805 36.3701C141.333 35.8818 141.097 35.291 141.097 34.5977C141.097 33.9043 141.33 33.3151 141.795 32.8301C142.264 32.3418 142.814 32.0977 143.446 32.0977C144.1 32.0977 144.647 32.3255 145.086 32.7812C145.526 33.2337 145.745 33.8066 145.745 34.5L145.696 34.8613ZM144.52 33.1768C144.224 32.8936 143.865 32.752 143.446 32.752C143.026 32.752 142.659 32.9001 142.347 33.1963C142.034 33.4925 141.85 33.8441 141.795 34.251H145.047C144.995 33.818 144.819 33.46 144.52 33.1768ZM151.456 36.3701C150.984 35.8818 150.748 35.291 150.748 34.5977C150.748 33.9043 150.984 33.3151 151.456 32.8301C151.931 32.3418 152.494 32.0977 153.146 32.0977C153.52 32.0977 153.868 32.179 154.19 32.3418C154.516 32.5013 154.749 32.6608 154.889 32.8203L155.099 33.0498L154.596 33.5479C154.583 33.5283 154.563 33.5007 154.537 33.4648C154.511 33.429 154.452 33.3639 154.361 33.2695C154.273 33.1751 154.177 33.0938 154.073 33.0254C153.969 32.9538 153.834 32.8903 153.668 32.835C153.502 32.7796 153.328 32.752 153.146 32.752C152.687 32.752 152.288 32.931 151.949 33.2891C151.614 33.6439 151.446 34.0817 151.446 34.6025C151.446 35.1201 151.614 35.5579 151.949 35.916C152.288 36.2708 152.687 36.4482 153.146 36.4482C153.425 36.4482 153.691 36.3815 153.941 36.248C154.192 36.1146 154.374 35.9811 154.488 35.8477L154.649 35.6523L155.147 36.1016C155.128 36.1276 155.097 36.165 155.055 36.2139C155.016 36.2594 154.931 36.3392 154.801 36.4531C154.671 36.5638 154.534 36.6631 154.391 36.751C154.247 36.8356 154.062 36.9154 153.834 36.9902C153.609 37.0618 153.38 37.0977 153.146 37.0977C152.491 37.0977 151.928 36.8551 151.456 36.3701ZM160.793 37V32.8594H158.044V37H157.346V32.2002H161.496V37H160.793ZM167.528 35.916C167.873 35.5579 168.046 35.1201 168.046 34.6025C168.046 34.0817 167.873 33.6439 167.528 33.2891C167.186 32.931 166.775 32.752 166.293 32.752C165.814 32.752 165.402 32.931 165.057 33.2891C164.716 33.6439 164.545 34.0801 164.545 34.5977C164.545 35.112 164.716 35.5498 165.057 35.9111C165.402 36.2692 165.814 36.4482 166.293 36.4482C166.775 36.4482 167.186 36.2708 167.528 35.916ZM164.559 36.375C164.084 35.8932 163.846 35.3024 163.846 34.6025C163.846 33.8994 164.084 33.307 164.559 32.8252C165.038 32.3402 165.617 32.0977 166.298 32.0977C166.978 32.0977 167.556 32.3402 168.031 32.8252C168.506 33.307 168.744 33.8994 168.744 34.6025C168.744 35.3024 168.506 35.8932 168.031 36.375C167.556 36.8568 166.978 37.0977 166.298 37.0977C165.617 37.0977 165.038 36.8568 164.559 36.375ZM172.32 33.3086C171.971 33.6764 171.797 34.1077 171.797 34.6025C171.797 35.0941 171.971 35.5254 172.32 35.8965C172.671 36.2643 173.063 36.4482 173.496 36.4482C173.91 36.4482 174.279 36.2692 174.605 35.9111C174.933 35.5498 175.098 35.1136 175.098 34.6025C175.098 34.0882 174.933 33.652 174.605 33.2939C174.279 32.9326 173.91 32.752 173.496 32.752C173.063 32.752 172.671 32.9375 172.32 33.3086ZM171.797 36.248V39.0996H171.099V32.2002H171.797V32.9521C171.81 32.9326 171.833 32.9033 171.865 32.8643C171.901 32.8219 171.971 32.752 172.075 32.6543C172.183 32.5566 172.298 32.4704 172.422 32.3955C172.546 32.3174 172.704 32.249 172.896 32.1904C173.091 32.1286 173.291 32.0977 173.496 32.0977C174.108 32.0977 174.644 32.3434 175.103 32.835C175.565 33.3265 175.796 33.9157 175.796 34.6025C175.796 35.2861 175.567 35.8737 175.108 36.3652C174.649 36.8535 174.112 37.0977 173.496 37.0977C173.291 37.0977 173.093 37.0684 172.901 37.0098C172.712 36.9512 172.552 36.8812 172.422 36.7998C172.292 36.7184 172.178 36.637 172.08 36.5557C171.986 36.471 171.914 36.3994 171.865 36.3408L171.797 36.248ZM177.843 33.8018C177.843 33.3428 178.004 32.9619 178.327 32.6592C178.652 32.3532 179.075 32.2002 179.596 32.2002H181.642V37H180.944V35.3984H179.543L178.546 37H177.746L178.844 35.252C178.818 35.2454 178.781 35.234 178.732 35.2178C178.686 35.1982 178.607 35.1543 178.493 35.0859C178.379 35.0143 178.278 34.9297 178.19 34.832C178.105 34.7311 178.026 34.5911 177.951 34.4121C177.879 34.2331 177.843 34.0296 177.843 33.8018ZM180.944 32.8496H179.596C179.277 32.8496 179.022 32.9391 178.83 33.1182C178.641 33.2939 178.546 33.5218 178.546 33.8018C178.546 34.0817 178.641 34.3096 178.83 34.4854C179.018 34.6611 179.274 34.749 179.596 34.749H180.944V32.8496ZM188.792 36.3506V38.2012H188.094V37H184.241V38.2012H183.543V36.3506H183.89C183.909 36.3311 183.938 36.2985 183.978 36.2529C184.02 36.2041 184.09 36.0967 184.188 35.9307C184.285 35.7646 184.371 35.5856 184.446 35.3936C184.524 35.1982 184.593 34.9395 184.651 34.6172C184.713 34.2917 184.744 33.9531 184.744 33.6016V32.2002H188.04V36.3506H188.792ZM185.442 32.8496V33.6016C185.442 34.1484 185.376 34.6497 185.242 35.1055C185.109 35.5612 184.975 35.8835 184.842 36.0723L184.642 36.3506H187.342V32.8496H185.442ZM193.491 35.3984L192.787 34.6514L191.088 37H190.287L192.338 34.1484L190.488 32.2002H191.337L193.491 34.5V32.2002H194.189V34.5L196.337 32.2002H197.187L195.336 34.1484L197.387 37H196.586L194.887 34.6514L194.189 35.3984V37H193.491V35.3984ZM203.643 34.8613L199.742 34.8516C199.768 35.2845 199.945 35.6589 200.274 35.9746C200.606 36.2904 200.995 36.4482 201.441 36.4482C201.741 36.4482 202.019 36.3815 202.276 36.248C202.533 36.1146 202.716 35.9811 202.823 35.8477L202.994 35.6523L203.443 36.1016C203.424 36.1276 203.394 36.165 203.355 36.2139C203.319 36.2594 203.238 36.3392 203.111 36.4531C202.987 36.5638 202.852 36.6631 202.706 36.751C202.563 36.8356 202.375 36.9154 202.144 36.9902C201.916 37.0618 201.682 37.0977 201.441 37.0977C200.787 37.0977 200.224 36.8551 199.752 36.3701C199.28 35.8818 199.044 35.291 199.044 34.5977C199.044 33.9043 199.276 33.3151 199.742 32.8301C200.211 32.3418 200.761 32.0977 201.392 32.0977C202.047 32.0977 202.594 32.3255 203.033 32.7812C203.472 33.2337 203.692 33.8066 203.692 34.5L203.643 34.8613ZM202.467 33.1768C202.17 32.8936 201.812 32.752 201.392 32.752C200.972 32.752 200.606 32.9001 200.294 33.1963C199.981 33.4925 199.797 33.8441 199.742 34.251H202.994C202.942 33.818 202.766 33.46 202.467 33.1768ZM209.489 37V34.9004H206.74V37H206.042V32.2002H206.74V34.251H209.489V32.2002H210.193V37H209.489ZM216.341 37V34.9004H213.592V37H212.894V32.2002H213.592V34.251H216.341V32.2002H217.045V37H216.341ZM219.443 33.8018C219.443 33.3428 219.604 32.9619 219.927 32.6592C220.252 32.3532 220.675 32.2002 221.196 32.2002H223.242V37H222.544V35.3984H221.143L220.146 37H219.346L220.444 35.252C220.418 35.2454 220.381 35.234 220.332 35.2178C220.286 35.1982 220.207 35.1543 220.093 35.0859C219.979 35.0143 219.878 34.9297 219.79 34.832C219.705 34.7311 219.626 34.5911 219.551 34.4121C219.479 34.2331 219.443 34.0296 219.443 33.8018ZM222.544 32.8496H221.196C220.877 32.8496 220.622 32.9391 220.43 33.1182C220.241 33.2939 220.146 33.5218 220.146 33.8018C220.146 34.0817 220.241 34.3096 220.43 34.4854C220.618 34.6611 220.874 34.749 221.196 34.749H222.544V32.8496Z" fill="#3453F3"/>
</g>
<path d="M23.6187 36.7037C24.1302 37.1991 24.9705 37.1357 25.3237 38.4317C25.5266 39.2036 26.7891 40.3844 26.9921 39.8775C27.1058 39.5895 25.961 39.1402 25.7296 38.0746C25.5875 37.4065 25.6078 37.2106 25.1694 36.9226C24.7797 36.6652 24.4027 36.3708 24.0409 36.0413C23.4169 35.6411 22.8626 35.0512 22.4171 34.3134C22.2669 34.0714 21.6661 33.5185 22.2507 34.9182C22.6399 35.6088 23.1012 36.211 23.6187 36.7037V36.7037Z" fill="#002638"/>
<path d="M36.3089 22.7916C35.8833 23.013 35.2061 23.0288 34.9429 23.8272C34.8627 24.1614 34.7916 24.5045 34.7301 24.8549C34.5848 25.3983 34.426 25.926 34.2541 26.436C34.1264 26.8312 33.7124 28.4281 34.3315 27.8906C34.6682 27.5902 34.8655 25.9538 35.0203 25.3608C35.2658 24.6791 35.6228 24.1996 36.0264 24.009C36.2334 23.898 36.4364 23.758 36.634 23.59C36.7888 23.424 36.8661 23.0604 36.9861 22.9181C37.3073 22.5386 37.9884 23.2027 38 22.2936C38.0077 21.503 36.781 22.5307 36.3089 22.7916Z" fill="#002638"/>
<path d="M54.6489 19.1191C54.7631 19.3642 54.8326 19.64 54.9318 19.8912C55.0857 20.2712 55.6961 21.2394 55.9542 20.9452C56.2123 20.6511 55.304 20.0444 55.1254 19.0701C55.0013 18.4144 54.5646 18.0652 54.1328 17.6423C53.165 16.6987 51.2791 14.6765 51.026 15.0442C50.8423 15.3138 51.686 16.043 51.8796 16.2391C52.3759 16.7477 52.9218 17.2134 53.4429 17.6914C53.9264 18.0498 54.3386 18.5377 54.6489 19.1191V19.1191Z" fill="#002638"/>
<path d="M21.9746 18.0912C21.8354 18.2184 21.7119 18.3927 21.6113 18.6041C21.5106 18.8155 21.4348 19.0598 21.3882 19.3229C21.34 19.5718 21.2705 19.8064 21.1822 20.0188C21.0673 20.3319 20.9802 20.5825 21.0039 20.7773C21.0156 20.8499 21.0425 20.912 21.0792 20.9513C21.1076 20.9833 21.1406 21.0002 21.1743 21C21.3565 21 21.4793 20.5198 21.6101 20.0118C21.6497 19.8587 21.6893 19.7126 21.7289 19.5873C21.8432 19.13 22.0412 18.7528 22.2915 18.5157C22.5886 18.1817 22.866 17.8198 23.1393 17.444C23.503 16.923 23.8914 16.4574 24.3001 16.0522L24.3913 15.9687C24.8865 15.5303 25.0212 15.3494 24.9974 15.1615C24.9736 14.9736 24.8429 15.0015 24.7755 15.0015C24.3253 15.1617 23.9079 15.5319 23.5672 16.0731C23.4127 16.2749 23.2701 16.5046 23.1314 16.7203C22.9759 16.9725 22.8104 17.2051 22.6362 17.4162C22.4235 17.664 22.2025 17.8894 21.9746 18.0912V18.0912Z" fill="#002638"/>
<path d="M11.5097 32.0742C10.9655 32.5861 10.3848 33.0502 9.77313 33.4623C9.13309 33.8616 7.7635 36.6378 7.61133 36.8716C7.45915 37.1054 6.76988 37.9431 7.07871 37.9966C7.81274 38.1087 9.07043 35.3812 9.17785 35.2108C9.49739 34.7044 9.89576 34.2627 10.355 33.9055C10.7265 33.6376 11.7335 33.0532 11.9797 32.4444C12.0037 32.3771 12.0065 32.3031 11.9877 32.2339C11.969 32.1647 11.9297 32.1043 11.876 32.062C11.8223 32.0197 11.7572 31.9979 11.6909 32.0002C11.6247 32.0024 11.561 32.0284 11.5097 32.0742V32.0742Z" fill="#002638"/>
<path d="M26.4272 25.9272C26.7223 26.0713 27.5544 27.1982 27.9075 26.9695C28.609 26.5204 25.092 24.5757 25.005 25.0841C24.9372 25.3976 25.5806 25.4146 25.8467 25.6222C26.0246 25.7451 26.2197 25.8476 26.4272 25.9272V25.9272Z" fill="#002638"/>
<path d="M55.4866 25.0281C55.8374 25.3039 57.4846 27.029 57.4884 27.029C57.9421 27.3694 58.8801 27.5278 59.5588 28.2026C59.8706 28.4721 60.1138 28.8961 60.249 29.4055C60.3808 29.8252 60.5446 30.2191 60.737 30.5791C60.8781 30.8842 61.1908 31.5766 61.3318 31.8994C61.5568 32.404 61.7779 32.9204 61.9915 33.4426C62.205 33.9648 62.96 34.7511 63.1887 35.1502C63.3666 35.4453 63.5619 35.7144 63.7721 35.954C63.7983 35.9855 63.8309 36.0017 63.8642 35.9998C63.8974 35.998 63.9291 35.9781 63.9537 35.9437C63.9783 35.9093 63.9943 35.8626 63.9987 35.8119C64.0032 35.7612 63.9958 35.7097 63.978 35.6665C63.7302 35.0797 62.7198 33.5717 62.6206 33.3194C62.4176 32.7547 62.1882 32.2135 61.9343 31.6999C61.7131 31.2363 61.4767 30.7845 61.2441 30.3326C61.0805 29.7486 60.8894 29.1838 60.6722 28.6427C60.5616 28.5019 60.4739 28.32 60.3633 28.1791C60.0789 27.8508 59.7736 27.5677 59.452 27.3342C59.048 27.0486 58.6247 26.8322 58.19 26.6887C57.9356 26.6163 57.694 26.4623 57.4808 26.2369C56.7449 25.4565 55.6124 24.3768 55.5094 24.2946C55.0595 23.9426 54.2588 22.593 54.0071 23.1211C53.9004 23.391 55.0176 24.6584 55.4866 25.0281Z" fill="#002638"/>
<path d="M23.9197 32.9721C24.2019 32.6956 23.6566 31.5894 23.5688 31.3182C23.4125 30.8448 23.3667 30.1535 23.1036 29.7972C22.7618 29.4527 22.3721 29.2118 21.9595 29.0898C21.8011 29.0224 21.6392 28.9726 21.4752 28.9409C21.1949 28.8847 20.9367 28.6972 20.743 28.4091C20.2358 27.6433 19.4082 26.8136 19.1489 27.037C18.737 27.3933 19.29 27.6699 19.4807 27.7656C19.862 27.9517 20.5599 28.8292 21.0061 29.2441C21.0545 29.2936 21.107 29.3346 21.1625 29.3664C21.4104 29.5259 21.7726 29.6642 21.8642 29.7121C22.2423 29.8192 22.5797 30.114 22.8138 30.5417C23.0426 31.0948 23.6146 33.27 23.9197 32.9721Z" fill="#002638"/>
<path d="M0.921774 37.7212C1.23531 37.4799 1.49466 37.1178 1.80432 36.8524C1.97753 36.7603 2.15475 36.6877 2.33463 36.6352C2.43895 36.5623 2.53764 36.4712 2.62881 36.3637C3.38489 35.728 4.08708 34.9477 4.71906 34.0408C5.05865 33.5606 5.42095 33.1209 5.80289 32.7255C6.12448 32.4761 6.42271 32.1595 6.68931 31.7843C7.20413 30.9275 7.87765 30.4328 8.4157 29.5881C8.95374 28.7434 9.44534 27.6272 9.98338 26.68C10.2388 26.1741 10.596 25.8171 10.9975 25.6663C11.2066 25.5517 11.4311 25.3586 11.6595 25.2078C11.8878 25.057 12.1549 25.2561 12.0852 25.6482C12.0117 26.0119 11.8634 26.3278 11.6633 26.5472C11.3527 26.8124 11.0769 27.1665 10.8504 27.591C10.6453 27.953 10.7266 28.3935 10.6608 28.8399C10.5717 29.4433 10.3318 29.9682 10.4595 30.6138C10.8698 30.7706 10.9201 29.8717 10.9937 29.4614C11.0982 28.858 11.1098 28.4779 11.4466 28.134C11.7833 27.7901 12.1859 26.692 12.5497 25.9439C12.852 25.5061 13.1741 25.1028 13.5136 24.7372C13.6464 24.6248 13.7688 24.4848 13.8774 24.3209C14.0013 24.0614 13.92 23.8985 13.9936 23.6632C14.1631 23.2741 14.3494 22.9032 14.551 22.5531C14.6439 22.3419 14.6981 22.0282 14.7793 21.8532C14.9056 21.6238 15.0647 21.444 15.2438 21.3283C15.6696 20.9723 16.1341 20.7913 16.4515 20.188C16.707 19.7113 16.8077 19.0356 17.2257 18.9451C17.7451 18.9693 18.2457 19.2527 18.654 19.7535C19.1286 20.3032 19.6496 20.7478 20.2024 21.0749C21.8049 21.8713 22.8152 23.0056 23.9764 23.5245C24.3635 23.6994 24.9751 23.9649 25.3738 24.0856C25.7028 24.1821 26.0318 24.0856 26.3647 24.1942C27.1699 24.3993 27.7737 25.6905 28.5053 26.2395C28.7569 26.4326 28.8575 26.324 28.8227 26.7705C28.7641 27.0429 28.6721 27.2949 28.5517 27.5126C28.3427 27.9772 28.0911 28.3814 27.8744 28.8339C27.4176 27.953 26.6008 27.4341 25.9854 26.8549C25.3699 26.2757 24.9441 25.606 24.41 25.0449C23.8758 24.4838 22.9816 24.3088 22.4745 23.6512C21.2204 22.0825 20.0166 21.286 21.1817 22.7763C21.5146 23.2047 21.7352 23.5908 22.0178 23.9408C22.5926 24.5127 23.2067 24.9822 23.8487 25.3405C24.3829 25.7508 24.5454 26.8248 25.0409 27.1506C25.2228 27.2354 25.4001 27.3423 25.5712 27.4703C25.8344 27.7117 26.1247 27.8323 26.3918 28.0737C26.7156 28.3047 26.9956 28.6622 27.2047 29.1114C27.344 29.4855 27.3905 29.9139 27.5492 30.288C27.7079 30.662 27.9363 31.012 28.1143 31.4283C28.233 31.8298 28.3728 32.2152 28.5324 32.5807C28.933 33.1384 29.3764 33.6166 29.8523 34.0046C30.1581 34.3244 32.1168 36.2732 32.1748 35.6457C32.2019 35.4285 31.2962 34.9156 31.1994 34.7527C31.1026 34.5898 30.851 34.3183 30.7697 34.1796C30.5794 33.837 30.3446 33.5614 30.0807 33.3711C29.6936 33.0875 29.353 33.1659 29.0859 32.5686C28.9639 32.2856 28.8553 31.9892 28.7608 31.6817C28.7414 31.6232 28.7341 31.5567 28.7399 31.4915C28.7456 31.4262 28.7642 31.3654 28.793 31.3172C28.8218 31.269 28.8594 31.2358 28.9008 31.2222C28.9421 31.2086 28.9852 31.2153 29.024 31.2413C29.3143 31.4343 29.6046 31.6274 29.9104 31.7782C30.3598 31.9121 30.7908 32.1673 31.1839 32.5324C31.5323 32.9729 31.6291 33.7391 31.9774 34.1856C32.4187 34.7889 32.7864 34.6743 32.5348 33.9442C32.4148 33.6064 32.2368 33.4133 32.1477 33.0996C32.1415 33.077 32.1397 33.052 32.1428 33.0278C32.1459 33.0037 32.1537 32.9816 32.165 32.9646C32.1764 32.9475 32.1909 32.9362 32.2065 32.9323C32.222 32.9284 32.238 32.932 32.2523 32.9427C32.6764 33.2159 33.1139 33.4359 33.5606 33.6003C34.0599 33.8417 34.4819 34.2942 34.9618 34.6019C35.4218 34.8047 35.8528 35.1426 36.2315 35.5974C36.6307 36.0926 37.0496 36.5481 37.4856 36.961C37.6595 37.1113 37.8229 37.2892 37.9733 37.4919C38.0381 37.567 38.1001 37.6475 38.1591 37.7333C38.3354 37.9981 38.5229 38.244 38.7204 38.4693L39.6688 39.7665C39.7536 39.8677 39.8517 39.9385 39.956 39.974C40.0604 40.0094 40.1685 40.0086 40.2726 39.9717C40.7941 39.6109 41.2415 39.0325 41.5655 38.3004C41.6235 38.1616 42.1654 37.2626 42.2816 37.0937C42.6459 36.7044 43.035 36.3748 43.4428 36.1103C43.6518 35.9232 44.2596 35.3681 43.8028 35.0846C43.4931 34.8915 43.0015 35.531 42.7306 35.7482C42.3713 35.9663 42.0446 36.2969 41.7706 36.7196C41.4493 37.323 41.3526 38.1013 40.8378 38.3487C40.5654 38.5183 40.2861 38.6594 40.0017 38.771C39.9267 38.7823 39.851 38.7676 39.78 38.728C39.7091 38.6884 39.6447 38.6248 39.5913 38.5417C39.4133 38.234 38.7204 37.3049 38.8172 36.9911C38.9759 36.43 39.6533 35.8991 39.8778 35.4345C40.0404 35.0966 40.0481 34.9699 40.2649 34.7769C40.5512 34.6045 40.8503 34.4889 41.1552 34.433C41.3255 34.3726 42.4325 33.9141 43.0054 33.5641C43.3925 33.3168 43.2338 34.0227 42.2816 34.5054C41.9138 34.6924 41.7048 35.3199 41.4222 35.712C41.015 36.2649 40.5757 36.7577 40.11 37.1842C39.8546 37.4316 39.5372 38.1375 40.0713 38.1254C40.3345 38.1254 40.7449 37.5221 40.9732 37.3109C41.3439 36.9855 41.6828 36.5792 41.9797 36.1042C42.2589 35.6412 42.575 35.2356 42.9203 34.8975C43.2377 34.614 43.5396 34.5657 43.6635 34.0046C43.7873 33.4435 43.7409 33.2745 44.1125 32.9125C44.4006 32.6323 44.6613 32.2889 44.8866 31.8929C45.0608 31.6153 45.6415 31.4826 45.7305 31.2473C45.8698 30.8491 45.5137 30.6439 45.3047 30.6439C44.9176 30.5896 44.7202 30.9879 44.4686 31.3438C44.1964 31.6808 43.9093 31.9873 43.6093 32.2609C43.3957 32.4871 43.1673 32.6772 42.928 32.8281C42.0842 33.2987 40.4004 33.7331 39.5604 34.7648C39.2468 35.157 39.0185 36.0379 38.6391 36.3214C38.3449 36.5386 37.9695 36.0801 37.6753 35.7181C37.6445 35.6785 37.6197 35.6287 37.6026 35.5724C37.5856 35.516 37.5767 35.4545 37.5767 35.3923C37.5767 35.33 37.5856 35.2685 37.6026 35.2122C37.6197 35.1559 37.6445 35.1061 37.6753 35.0665C38.0482 34.6053 38.4488 34.2012 38.8714 33.8598C39.2856 33.5038 39.8662 33.7331 40.2339 33.2866C40.4236 33.0573 40.5203 32.6833 40.7294 32.46C40.9384 32.2368 41.2365 31.9713 41.5035 31.7119C41.9417 31.311 42.417 31.018 42.9125 30.843C43.0259 30.7875 43.1475 30.7875 43.2609 30.843C43.3554 30.8687 43.4514 30.8788 43.5473 30.8732C43.8183 30.8129 43.9654 30.4267 44.1318 30.1552C44.358 29.7552 44.6389 29.4391 44.9537 29.2303C45.2685 29.0215 45.6093 28.9252 45.9511 28.9485C46.2763 29.0858 46.5886 29.2886 46.8801 29.5519C47.3253 29.8455 47.7595 30.1779 48.1807 30.5474C48.351 30.6922 49.5703 31.7541 49.7291 31.9532C51.6258 34.0709 51.7999 34.6864 54.6566 36.3818C55.5392 36.9067 56.592 38.0953 56.8088 37.9203C56.9714 37.7996 56.7159 37.154 56.4024 36.9851C56.3211 36.9368 53.4605 34.6803 53.058 34.4511C52.756 34.2821 51.0684 32.3574 50.9367 32.2428C50.6095 31.9507 50.2929 31.6304 49.9884 31.2835C49.3812 30.606 48.7419 30.0009 48.0762 29.4735C47.573 29.1295 47.0543 28.6589 46.7253 28.4297C46.5324 28.2332 46.3138 28.1064 46.0854 28.0584C45.8571 28.0103 45.6247 28.0424 45.4053 28.1521C45.0432 28.3188 44.7008 28.5755 44.3912 28.9123C44.097 29.2623 43.8493 29.7088 43.5512 30.0587C43.1912 30.4871 42.9899 30.3966 42.5603 30.4147C42.2971 30.4147 41.7126 30.9215 41.7126 30.7646C41.7126 30.4569 42.4519 29.7329 42.6029 29.6183C42.8786 29.4515 43.132 29.2059 43.3499 28.8942C43.538 28.3905 43.6838 27.8511 43.7835 27.2893C43.9383 26.7524 44.7589 25.0811 44.3409 24.6648C44.0157 24.339 43.9538 24.9785 43.8183 25.3586C43.6364 25.8835 43.4312 26.4024 43.2609 26.9273C43.1443 27.4326 42.9699 27.9007 42.7461 28.309C42.4633 28.5446 42.1522 28.6863 41.8326 28.7253C41.341 28.8942 40.5823 29.0149 40.1797 29.2321C39.4869 29.5888 38.8453 30.1524 38.2908 30.8913C38.1011 31.2352 37.8766 31.5309 37.6908 31.8868C37.6092 32.0149 37.5424 32.1639 37.4934 32.3273C37.4803 32.4103 37.4856 32.4977 37.5084 32.5754C37.5312 32.6531 37.57 32.7166 37.6188 32.7557C37.6676 32.7947 37.7233 32.807 37.7771 32.7906C37.8309 32.7742 37.8796 32.73 37.9153 32.6652C38.1691 32.162 38.4473 31.69 38.7475 31.2533C39.1556 30.6855 39.6265 30.2378 40.1371 29.932C40.4275 29.8053 40.8339 29.8898 40.9848 29.7932C41.0313 29.7932 42.2545 29.0028 41.7939 29.5881C41.2457 30.2775 40.7668 31.091 40.3733 32.0015C40.11 32.3152 40.0249 32.5686 39.6959 32.7315C39.3668 32.8944 39.0843 32.7315 38.7978 32.9306C38.2623 33.3139 37.7676 33.8226 37.3308 34.439C36.7153 35.344 36.0302 34.3183 35.4186 33.8356C34.9502 33.4435 35.198 33.3107 35.2173 32.5384C35.2947 29.8415 36.4676 30.6681 37.7179 29.1959C37.9037 28.9787 38.1514 28.5926 37.803 28.3874C37.6327 28.2909 37.2572 28.9546 37.056 29.0994C36.6865 29.3922 36.2969 29.6189 35.8947 29.7751C35.6354 29.8777 35.2792 29.9984 35.1205 30.3785C34.8689 31.0422 34.9309 32.9668 34.3464 33.2082C33.9825 33.353 33.4909 32.7195 33.1851 32.5626C32.798 32.3695 32.411 32.5626 32.0239 32.2488C31.5633 31.8808 31.4858 31.4766 30.7001 31.4162C30.4009 31.3754 30.1113 31.2311 29.8523 30.9939C29.7362 30.8973 29.3956 30.837 29.2601 30.6258C29.0588 30.3 29.0937 30.3785 29.384 30.0828C29.7362 29.7208 30.2743 29.5097 30.5684 29.039C30.8626 28.5684 30.851 27.9168 31.0213 27.4221C31.2381 26.8187 31.6329 26.5352 31.8768 25.9801C32.2639 25.1052 31.1646 25.8956 30.9981 26.0766C30.5181 26.5955 30.3246 27.8867 29.9181 28.5624C29.6936 28.9425 28.5905 30.1009 28.393 29.9742C28.0331 29.751 28.2847 29.3709 28.4356 29.1597C28.6527 28.828 28.8251 28.4321 28.9427 27.9953C29.2503 27.2017 29.6941 26.5581 30.2239 26.1369C30.4988 25.8775 30.6497 25.431 30.9013 25.1173C31.1529 24.8036 31.4394 24.6588 31.6755 24.3631C31.8032 24.2062 31.8652 23.9227 31.9852 23.7598C32.1886 23.5789 32.4117 23.4583 32.6432 23.4038C33.2858 23.1082 34.7451 22.7461 35.2909 22.1066C35.7437 21.5757 36.0108 20.8034 36.5063 20.3509C36.7879 20.0259 37.0965 19.762 37.4237 19.5665C37.714 19.4458 38.8288 19.0537 39.0339 18.9149C39.1539 18.8304 40.5242 17.5634 40.5823 17.9375C40.6249 18.1909 40.4468 18.5408 40.3771 18.7641C40.2801 19.0226 40.1701 19.2687 40.0481 19.5001C39.5372 20.2483 38.9914 21.3102 39.1307 21.4671C39.2701 21.6239 39.812 21.0326 40.2687 20.1216C40.7262 19.4808 41.0757 18.6749 41.2868 17.7746C41.4919 17.1712 41.6506 17.0506 42.1964 16.5679C42.536 16.2866 42.8959 16.0698 43.2686 15.9223C44.3718 15.4517 45.6415 13.5693 45.4169 13.3581C45.1924 13.1469 44.0234 14.6673 43.5551 14.8966C43.3711 14.9988 43.1821 15.0775 42.9899 15.1319C42.5303 15.2612 42.0872 15.5057 41.6777 15.8559C41.4687 16.0068 40.9539 16.4593 40.6326 16.7006C39.9232 17.2912 39.1855 17.7955 38.4262 18.209C37.9243 18.3815 37.4333 18.6238 36.9592 18.933C36.4535 19.2917 35.9913 19.7836 35.5928 20.3871C35.1709 21.1111 35.0393 21.636 33.5451 22.1971C33.158 22.3359 32.7709 22.5229 32.4226 22.7099C32.2097 22.8185 31.3271 23.5305 32.349 22.3781C32.6239 22.0704 33.3864 21.2438 33.4638 20.7249C33.5538 20.295 33.6842 19.8883 33.8509 19.5182C34.4393 18.8063 34.9618 17.8168 35.6121 17.2557C35.9141 16.9963 37.2882 14.3717 37.4779 14.2028C37.8092 13.9578 38.1221 13.6563 38.4107 13.3038C38.6168 12.9082 38.8519 12.5518 39.1114 12.2419C39.7152 11.6868 40.1875 10.8844 40.9036 10.7094C41.1124 10.6796 41.3137 10.5726 41.4907 10.3974C41.6677 10.2222 41.8155 9.98373 41.9216 9.7018C42.0958 9.20706 42.359 8.88729 42.5293 8.37444C42.7577 7.67456 42.9783 7.59613 43.4312 7.29445C43.7974 7.02783 44.1355 6.67587 44.4338 6.25066C45.0802 5.43011 45.3628 5.94296 46.1563 5.85849C47.0582 5.75592 47.6698 7.06518 48.502 7.45132C48.8115 7.54715 49.1102 7.71387 49.3884 7.94607C49.6985 8.24075 49.9982 8.56098 50.2864 8.90539C50.6043 9.25169 50.9352 9.56801 51.2774 9.85264C51.5596 10.1818 51.8202 10.5537 52.0554 10.9628C52.7483 11.8376 53.4063 13.1348 54.1418 13.9373C54.5057 14.3415 54.916 14.6191 55.276 15.0293C55.4448 15.2145 55.5959 15.4359 55.725 15.687C56.2475 16.7308 57.8462 19.8018 58.0204 20.1276C58.1946 20.4534 59.3248 23.0116 59.6655 23.8141C60.0061 24.6165 60.7261 25.0208 61.179 25.6241C61.4577 26.0283 62.6537 27.8927 62.766 27.0782C62.8125 26.7282 61.837 26.0887 61.1093 24.9665C60.5605 24.1804 60.0434 23.3422 59.561 22.4565C59.05 21.2498 58.7442 19.7173 57.3623 17.6298C57.1804 17.3522 57.014 16.6041 57.2462 16.7549C57.3485 16.8191 57.4448 16.9044 57.5326 17.0083C59.2126 19.0657 60.3506 19.1623 61.2486 19.7053C61.8376 19.996 62.4088 20.3675 62.9557 20.8154C63.246 21.1231 64.6317 22.7703 64.953 22.9633C65.5143 23.3073 65.5878 24.3933 65.971 24.17C66.3543 23.9468 62.8125 19.8501 62.4873 19.5846C62.0477 19.1565 61.5774 18.8102 61.0861 18.5529C60.4959 18.3853 59.9129 18.1616 59.3403 17.8832C59.1623 17.7685 58.1791 16.7127 58.0088 16.5679C57.7066 16.2778 57.3794 16.0564 57.0372 15.9102C56.8785 15.9102 55.6785 14.251 55.3301 13.8227C55.1676 13.6175 52.8838 11.3188 52.5044 10.6551C52.3397 10.2739 52.1372 9.93581 51.9045 9.65354L51.0297 8.71835C50.4743 8.08223 49.8952 7.49797 49.2955 6.96865C48.7652 6.54027 48.0607 6.4558 47.5807 5.85246C47.3823 5.51728 47.1316 5.26786 46.853 5.12844C46.553 4.99925 46.2459 4.9144 45.9356 4.87504C45.3321 4.76253 44.7206 4.92384 44.1744 5.33961C43.6983 5.79816 43.2841 6.25066 42.8274 6.75747C42.5061 7.11345 41.7977 7.88573 41.3874 7.58406C41.1165 7.38495 40.8958 6.55837 40.7332 6.19033C40.5754 5.81669 40.3762 5.48981 40.1449 5.22498C39.6576 4.80341 39.1371 4.48293 38.5965 4.27169C38.2681 4.04729 37.917 3.91455 37.5592 3.87951C37.3346 3.86635 37.1209 3.72457 36.9592 3.48131C36.6534 2.98656 36.4095 2.27461 36.0108 1.93674C35.4088 1.49116 34.7895 1.10428 34.1567 0.778316C33.58 0.434409 33.0884 0 32.4303 0C32.1143 0.00580229 31.8033 0.124702 31.5214 0.347523C31.2396 0.570344 30.9943 0.89113 30.8046 1.28513C30.5662 1.79977 30.2666 2.23812 29.922 2.57629C28.7414 3.8802 27.6756 5.41979 26.7518 7.15568C26.0716 8.53363 25.3038 9.80104 24.4603 10.9387C24.2513 11.2102 23.9068 11.542 23.8177 11.6446C23.04 12.4894 22.1973 13.1786 21.3094 13.696C20.9612 13.8223 20.6415 14.0933 20.3843 14.4803C20.2566 14.7639 20.2527 15.144 20.125 15.4457C19.9794 15.7339 19.8117 15.9933 19.6256 16.2179C19.2772 16.6885 18.8515 17.0144 18.5224 17.5091C18.1934 18.0038 18.1586 18.2693 17.667 18.0159C17.0012 17.672 16.5948 18.2029 16.1961 18.9933C15.8941 19.5967 15.9909 19.7897 15.5032 20.1276C15.1819 20.3509 14.7755 20.5138 14.5858 21.0145C14.4697 21.3162 14.4774 21.6179 14.3071 21.8894C14.1368 22.1609 14.0207 22.1126 13.92 22.2755C13.6723 22.6255 13.7265 23.2711 13.4671 23.5969C13.2078 23.9227 12.5691 23.9046 12.2246 24.0614C11.7911 24.2666 11.3653 24.5381 10.9356 24.7734C10.4959 24.9984 10.0976 25.3854 9.77436 25.9016C9.51501 26.33 9.23244 26.7343 9.00019 27.1868C8.79899 27.6492 8.58191 28.0943 8.34989 28.5202C8.06345 28.9546 7.82733 29.4735 7.52154 29.8717C7.21574 30.2699 6.81318 30.5776 6.50738 31.0422C6.2431 31.4175 5.94595 31.7323 5.62483 31.9773C5.25244 32.3093 4.90006 32.6929 4.57197 33.1237C4.30086 33.5782 4.01399 34.0092 3.71264 34.4149C2.93215 35.2182 2.10997 35.9185 1.25466 36.5085C1.06112 36.6533 0.0237418 37.2807 0.000516784 37.6066C-0.0227082 37.9324 0.743716 37.8539 0.921774 37.7212ZM24.7274 11.723C26.086 10.0095 26.7905 8.10294 27.6769 6.75747C27.975 6.311 28.2963 5.88866 28.5905 5.43011C28.7964 5.03744 29.0161 4.6628 29.2485 4.30789C29.6277 3.952 29.9876 3.54842 30.3246 3.1012C30.5839 2.64266 30.5801 2.66076 30.5839 2.66076C30.7504 2.61249 30.4291 3.54164 30.3517 3.67438C30.1775 3.97002 30.162 4.27772 29.9646 4.5432C29.833 4.73627 29.8175 5.03191 29.6356 5.38185C29.3444 6.36599 29.086 7.37291 28.8614 8.39858C28.8179 8.57041 28.7648 8.73596 28.7027 8.89332C28.5347 9.17737 28.3208 9.38576 28.0834 9.49667C28.006 9.54493 27.9285 9.5932 27.8589 9.6475C27.0847 10.2086 26.6976 10.9447 26.2486 12.2057L26.2176 12.2902L26.2718 12.3384C26.2995 12.3662 26.3318 12.3809 26.3647 12.3807C26.5428 12.3807 26.6783 11.9704 26.7983 11.6084C26.8256 11.5169 26.8567 11.4283 26.8912 11.3429C27.0183 11.0321 27.1795 10.7585 27.3673 10.5344C27.608 10.2832 27.8681 10.0805 28.1414 9.93107C28.3767 9.79732 28.6035 9.62967 28.8188 9.4303C29.0052 9.24066 29.1423 8.95419 29.2059 8.62181L29.2601 8.34427C29.3298 8.00037 29.6085 6.73334 29.7749 5.89469C29.8387 5.56684 29.9608 5.27394 30.1272 5.05001C30.301 4.81839 30.4534 4.55037 30.5801 4.25359C30.6752 3.94132 30.8064 3.65906 30.9671 3.42097C31.1297 3.13137 31.5749 1.38166 31.7413 1.19463C31.9929 0.94122 32.4187 0.235305 32.9026 0.657647C33.158 0.874852 33.2896 1.26099 33.6109 1.26099C34.0445 1.26099 34.7218 1.30323 34.5128 1.804C34.3038 2.30478 33.7154 2.22635 33.8161 2.52199C33.9167 2.81763 34.5902 2.31685 34.7489 2.17205C35.136 1.79194 35.4457 2.05741 35.8366 2.37115C36.1838 2.70432 36.4724 3.16664 36.6766 3.71661C36.8508 4.09069 37.0908 5.09224 37.5011 5.05604C37.5863 5.05604 37.5011 4.89314 37.5282 4.76643C37.5708 4.38633 38.4417 5.36978 38.9991 5.26721C39.4161 5.38199 39.8046 5.67433 40.1217 6.11189C40.4507 6.71524 41.0042 7.39099 41.1126 8.20551C41.1784 8.71232 41.1939 8.80885 41.0661 9.17086C40.9384 9.53287 40.919 9.77421 40.3191 10.1664C40.2774 10.1923 40.2313 10.1944 40.1888 10.1723C40.1463 10.1502 40.1101 10.1053 40.0868 10.0457C39.932 9.62337 39.723 8.97176 39.5178 8.30204C39.3126 7.63233 39.3475 7.49356 38.7436 6.92641L38.6894 6.87211C38.2249 6.40055 37.7291 6.00813 37.2108 5.70162C37.1921 5.69933 37.1735 5.70626 37.1575 5.72143C37.1415 5.73659 37.129 5.75921 37.1218 5.78609C37.0482 6.11189 37.2843 6.311 37.474 6.46787L37.5863 6.57044C37.7029 6.67431 37.8262 6.75922 37.954 6.82384C38.0469 6.88418 38.1475 6.93848 38.2288 7.00485C38.4598 7.2098 38.6822 7.43752 38.8946 7.68663C38.9333 7.7349 38.9798 7.7711 39.0107 7.81936C39.3355 8.51041 39.5744 9.29007 39.7152 10.1181C39.7384 10.3474 39.7926 10.5224 39.6842 10.7215C39.394 11.1225 39.0862 11.4914 38.763 11.8256C38.5733 12.0911 38.3759 12.3384 38.163 12.5798C38.1226 12.6285 38.0743 12.659 38.0235 12.6679C37.9726 12.6768 37.9212 12.6637 37.8748 12.63C37.8285 12.5964 37.7889 12.5435 37.7606 12.4772C37.7322 12.4108 37.7161 12.3336 37.714 12.254C37.7113 12.0285 37.6824 11.8057 37.6288 11.5963C37.4817 11.1498 36.7231 10.0517 36.696 10.3051C36.6418 10.8361 36.9553 10.7878 37.2689 11.6144C37.3655 11.9986 37.4128 12.4085 37.4082 12.8211C37.4469 13.8166 36.4831 14.5949 36.3399 14.5346C36.1231 14.4441 36.1579 12.4591 36.3011 11.8195C36.3669 11.5239 36.4831 11.361 36.4676 10.9809C36.4601 10.7538 36.4601 10.5262 36.4676 10.2991C36.4933 9.89681 36.4842 9.49095 36.4405 9.09242C36.3356 8.64445 36.1328 8.26846 35.8676 8.03054C35.7686 7.92156 35.6742 7.80265 35.585 7.67456C35.4231 7.40359 35.2922 7.09137 35.198 6.75144C35.0934 6.42563 35.0122 6.1481 34.8535 6.1481C34.8267 6.14522 34.8001 6.15686 34.7782 6.18106C34.7564 6.20526 34.7405 6.24051 34.7335 6.28083C34.656 6.63077 35.1205 7.66249 36.0302 8.69422C36.2663 8.97175 36.2237 10.4017 36.1541 10.9266C36.1001 11.1918 36.0246 11.4453 35.9295 11.6808C35.7708 12.5263 35.7041 13.4073 35.7321 14.2872C35.7693 14.541 35.7677 14.8049 35.7273 15.0575C35.687 15.3101 35.6091 15.5443 35.4999 15.7413L34.4083 17.497C34.3721 17.551 34.3275 17.5893 34.2789 17.6085C34.2303 17.6276 34.1794 17.6268 34.1311 17.6061C34.0828 17.5855 34.0387 17.5457 34.0032 17.4906C33.9676 17.4355 33.9419 17.3671 33.9283 17.2919C33.8556 16.8053 33.7242 16.3446 33.5412 15.9344C33.3075 15.544 33.0915 15.1287 32.8948 14.6915C32.8058 14.426 32.8677 14.2752 32.7284 14.058C32.589 13.8408 32.4729 13.7804 32.4652 14.058C32.4652 14.6191 32.8909 15.6086 33.1 15.9947C33.3706 16.4884 33.5511 17.0865 33.6225 17.7263C33.6852 18.0483 33.692 18.3904 33.6424 18.7178C33.5927 19.0452 33.4884 19.3464 33.34 19.5906C33.1875 19.8268 33.0441 20.0766 32.9103 20.3388C32.8499 20.5922 32.7774 20.8383 32.6935 21.0749C32.4342 21.5877 32.02 21.9678 31.7336 22.4626C31.6291 22.6375 31.1258 23.3736 30.8859 23.8623C30.827 23.9814 30.7564 24.0852 30.6768 24.17C30.4872 24.3691 30.313 24.5924 30.1156 24.7734C29.9655 24.8944 29.8195 25.0273 29.6782 25.1716C29.5427 25.3405 29.4807 25.5879 29.3608 25.7749C29.2506 25.9335 29.1062 26.0216 28.9562 26.0216C28.8063 26.0216 28.6619 25.9335 28.5517 25.7749C28.2382 25.3647 27.9402 24.882 27.5995 24.4898C27.3019 24.1699 26.9793 23.9104 26.6396 23.7175C26.6118 23.6998 26.5872 23.6718 26.5679 23.636C26.5486 23.6003 26.5352 23.5577 26.5287 23.5121C26.5222 23.4664 26.523 23.419 26.5308 23.3739C26.5386 23.3288 26.5534 23.2873 26.5738 23.253C27.1234 22.3057 27.7969 21.4912 28.2421 20.4353C28.7375 19.2769 28.7027 18.0219 29.1633 16.8153C29.4218 16.2915 29.6983 15.79 29.9917 15.3129C30.0459 15.2194 30.0873 15.1097 30.1132 14.9903C30.1392 14.871 30.1492 14.7447 30.1427 14.6191C30.1001 14.2631 29.8794 14.6191 29.8136 14.7096C29.6433 14.8906 29.5117 15.3129 29.3685 15.5482C29.2156 15.7694 29.0804 16.0186 28.9659 16.2903C28.7275 16.8966 28.5328 17.5421 28.3853 18.215C28.3035 18.8849 28.1573 19.5317 27.9518 20.1337C27.6542 20.6927 27.3166 21.1968 26.9454 21.636C26.6202 22.0945 26.535 22.6617 26.1944 23.078C25.8538 23.4943 25.4706 23.4038 25.0332 23.2107C24.2164 22.8547 23.4848 22.2514 22.6526 21.8291C21.9326 21.449 21.232 21.0568 20.5043 20.6887C20.1697 20.4341 19.8606 20.1049 19.5869 19.7113C19.5664 19.6799 19.5508 19.6415 19.5415 19.5991C19.5321 19.5567 19.5292 19.5115 19.5329 19.467C19.5367 19.4226 19.547 19.3801 19.5631 19.3429C19.5792 19.3057 19.6006 19.2749 19.6256 19.2528C20.0186 18.7788 20.3791 18.243 20.7017 17.6539C21.1012 17.1726 21.4232 16.5529 21.6423 15.8439C21.9099 15.0611 22.2918 14.3874 22.7571 13.877C22.9932 13.527 24.4835 12.0669 24.7274 11.723ZM19.5637 16.9963C19.988 16.62 20.3335 16.0606 20.5585 15.3853C20.6305 15.0675 20.752 14.7826 20.9121 14.5562C21.0722 14.3298 21.266 14.1689 21.4759 14.0881C21.7159 13.9313 22.9003 12.9538 22.8229 13.2434C22.6874 13.7261 21.9094 14.0278 21.5881 14.7337C21.3288 15.3069 21.201 15.7775 20.9456 16.3688C20.5825 17.124 20.1613 17.8069 19.6914 18.4021C19.3547 18.9209 18.9753 19.47 18.6811 18.6313C18.4373 17.9857 19.2579 17.3341 19.5637 16.9963Z" fill="#002638"/>
<path d="M67.7764 28.642C67.9164 29.2016 68.2721 29.4814 68.6279 29.8004C68.9836 30.1194 69.6194 30.7294 70.1416 31.1715C70.5386 31.6677 70.9669 32.1062 71.4208 32.4809C71.7992 32.6712 72.4917 33.6281 72.9345 34.0366C72.9843 34.0846 73.0361 34.1276 73.0897 34.1654V34.1654C73.3357 34.3332 73.6952 34.4787 73.786 34.5291C74.1609 34.6395 74.4959 34.9478 74.7283 35.3965C74.9819 35.9953 75.5496 38.2841 75.8637 37.9707C76.1778 37.6573 75.8637 36.5157 75.7691 36.2303C75.5855 35.6434 75.3403 35.1032 75.0424 34.6298C74.7992 34.2764 74.4999 34.0186 74.172 33.88C73.9323 33.6659 73.6788 33.4878 73.4151 33.3483C72.9662 33.1359 72.5496 32.7956 72.189 32.3466C71.5002 31.3114 71.224 31.2834 69.8048 30.1865L69.169 29.6661C68.7788 29.4067 68.4314 29.0248 68.151 28.5469C68.0488 28.3342 67.9732 28.0992 67.8785 27.881C67.7385 27.5564 67.2011 26.7617 67.027 27.0695C66.853 27.3773 67.5682 27.7858 67.7764 28.642Z" fill="#002638"/>
<defs>
<clipPath id="clip0_2239_6100">
<rect width="137" height="39" fill="white" transform="translate(87 3)"/>
</clipPath>
</defs>
</svg>
