<svg width="152" height="78" viewBox="0 0 152 78" fill="none" xmlns="http://www.w3.org/2000/svg">
<path d="M1.98438 75.2842C1.53906 74.8359 1.31641 74.3101 1.31641 73.7065C1.31641 73.1001 1.53906 72.5728 1.98438 72.1245C2.43262 71.6763 2.95996 71.4521 3.56641 71.4521C3.90332 71.4521 4.2168 71.5254 4.50684 71.6719C4.79688 71.8154 5.00488 71.959 5.13086 72.1025L5.31982 72.3091L4.73535 72.8936C4.70605 72.8467 4.66064 72.7896 4.59912 72.7222C4.54053 72.6519 4.41016 72.5581 4.20801 72.4409C4.00879 72.3237 3.79492 72.2651 3.56641 72.2651C3.2002 72.2651 2.88232 72.4043 2.61279 72.6826C2.34619 72.9609 2.21289 73.3022 2.21289 73.7065C2.21289 74.1079 2.34619 74.4478 2.61279 74.7261C2.88232 75.0044 3.2002 75.1436 3.56641 75.1436C3.79492 75.1436 4.00879 75.0864 4.20801 74.9722C4.41016 74.8579 4.55518 74.7466 4.64307 74.6382L4.7793 74.4712L5.36377 75.0557C5.34619 75.0791 5.31982 75.1128 5.28467 75.1567C5.24951 75.1978 5.17334 75.2695 5.05615 75.3721C4.93896 75.4717 4.81592 75.561 4.68701 75.6401C4.55811 75.7163 4.39111 75.7881 4.18604 75.8555C3.98096 75.9199 3.77441 75.9521 3.56641 75.9521C2.95996 75.9521 2.43262 75.7295 1.98438 75.2842ZM9.46113 72.353V75.8643H8.56025V71.5444H12.4758V75.8643H11.5749V72.353H9.46113ZM18.9682 74.7261C19.2348 74.4478 19.3681 74.1079 19.3681 73.7065C19.3681 73.3022 19.2348 72.9609 18.9682 72.6826C18.7016 72.4043 18.3852 72.2651 18.0189 72.2651C17.6527 72.2651 17.3349 72.4043 17.0653 72.6826C16.7987 72.9609 16.6654 73.3022 16.6654 73.7065C16.6654 74.1079 16.7987 74.4478 17.0653 74.7261C17.3349 75.0044 17.6527 75.1436 18.0189 75.1436C18.3852 75.1436 18.7016 75.0044 18.9682 74.7261ZM16.4369 75.2842C15.9916 74.8359 15.7689 74.3101 15.7689 73.7065C15.7689 73.1001 15.9916 72.5728 16.4369 72.1245C16.8852 71.6763 17.4125 71.4521 18.0189 71.4521C18.6254 71.4521 19.1513 71.6763 19.5966 72.1245C20.0448 72.5728 20.2689 73.1001 20.2689 73.7065C20.2689 74.3101 20.0448 74.8359 19.5966 75.2842C19.1513 75.7295 18.6254 75.9521 18.0189 75.9521C17.4125 75.9521 16.8852 75.7295 16.4369 75.2842ZM25.8517 75.9521C25.6905 75.9521 25.5338 75.9331 25.3814 75.895C25.2291 75.8569 25.0987 75.8101 24.9903 75.7544C24.8819 75.6958 24.7853 75.6372 24.7003 75.5786C24.6183 75.5171 24.5582 75.4688 24.5201 75.4336L24.4586 75.3677V77.7539H23.5577V71.5444H24.4586V72.041C24.4996 72 24.5567 71.9458 24.63 71.8784C24.7062 71.811 24.8658 71.7231 25.109 71.6147C25.3521 71.5063 25.5997 71.4521 25.8517 71.4521C26.4229 71.4521 26.9181 71.6719 27.337 72.1113C27.7589 72.5479 27.9698 73.0781 27.9698 73.7021C27.9698 74.3262 27.7589 74.8579 27.337 75.2974C26.9181 75.7339 26.4229 75.9521 25.8517 75.9521ZM26.6734 72.687C26.4098 72.4058 26.1065 72.2651 25.7638 72.2651C25.421 72.2651 25.1178 72.4058 24.8541 72.687C24.5904 72.9683 24.4586 73.3081 24.4586 73.7065C24.4586 74.1021 24.5904 74.4404 24.8541 74.7217C25.1178 75.0029 25.421 75.1436 25.7638 75.1436C26.1065 75.1436 26.4098 75.0029 26.6734 74.7217C26.9371 74.4404 27.0689 74.1021 27.0689 73.7065C27.0689 73.3081 26.9371 72.9683 26.6734 72.687ZM30.806 72.353V71.5444H34.6731V72.353H33.1878V75.8643H32.2913V72.353H30.806ZM40.9326 71.5444H41.7412V75.8643H40.8403V73.0298L38.5903 75.8643H37.7817V71.5444H38.6826V74.3789L40.9326 71.5444ZM45.3024 71.5444H47.3723C47.7854 71.5444 48.1135 71.6514 48.3566 71.8652C48.5998 72.0762 48.7214 72.3442 48.7214 72.6694C48.7214 72.854 48.6804 73.0225 48.5983 73.1748C48.5192 73.3242 48.4372 73.4282 48.3522 73.4868L48.2292 73.5703C48.2468 73.5762 48.2717 73.5864 48.3039 73.6011C48.3361 73.6157 48.3947 73.6538 48.4797 73.7153C48.5646 73.7739 48.6379 73.8398 48.6994 73.9131C48.7639 73.9834 48.821 74.0801 48.8708 74.2031C48.9235 74.3262 48.9499 74.4595 48.9499 74.603C48.9499 74.9751 48.8166 75.2783 48.55 75.5127C48.2863 75.7471 47.9245 75.8643 47.4646 75.8643H45.3024V71.5444ZM47.4646 73.9307H46.2033V75.0996H47.4646C47.6433 75.0996 47.7854 75.0469 47.8908 74.9414C47.9963 74.8359 48.049 74.6938 48.049 74.5151C48.049 74.354 47.9948 74.2163 47.8864 74.1021C47.778 73.9878 47.6374 73.9307 47.4646 73.9307ZM47.7019 73.0913C47.7839 73.0093 47.8249 72.8994 47.8249 72.7617C47.8249 72.6211 47.7839 72.5112 47.7019 72.4321C47.6198 72.3501 47.51 72.3091 47.3723 72.3091H46.2033V73.21H47.3723C47.51 73.21 47.6198 73.1704 47.7019 73.0913ZM53.1352 74.0625V75.8643H52.2343V71.5444H53.1352V73.2539H55.2489V71.5444H56.1498V75.8643H55.2489V74.0625H53.1352ZM63.7145 74.0186H60.3395C60.3863 74.3232 60.5357 74.5869 60.7877 74.8096C61.0426 75.0322 61.3443 75.1436 61.693 75.1436C61.9449 75.1436 62.1793 75.0864 62.3961 74.9722C62.6158 74.8579 62.7711 74.7466 62.8619 74.6382L62.9981 74.4712L63.5826 75.0557C63.565 75.0791 63.5372 75.1128 63.4991 75.1567C63.464 75.1978 63.3863 75.2695 63.2662 75.3721C63.1461 75.4717 63.0187 75.561 62.8839 75.6401C62.7491 75.7163 62.5733 75.7881 62.3565 75.8555C62.1427 75.9199 61.9215 75.9521 61.693 75.9521C61.0807 75.9521 60.5519 75.728 60.1065 75.2798C59.6642 74.8286 59.443 74.2881 59.443 73.6582C59.443 73.0518 59.6583 72.5332 60.089 72.1025C60.5226 71.6689 61.0411 71.4521 61.6446 71.4521C62.2511 71.4521 62.755 71.6543 63.1563 72.0586C63.5606 72.46 63.7628 72.9639 63.7628 73.5703L63.7145 74.0186ZM61.6446 72.2212C61.3194 72.2212 61.0455 72.3179 60.8229 72.5112C60.6031 72.7017 60.4552 72.9492 60.379 73.2539H62.8795C62.8268 72.9492 62.6905 72.7017 62.4708 72.5112C62.2511 72.3179 61.9757 72.2212 61.6446 72.2212ZM71.5488 75.2842C71.1035 74.8359 70.8809 74.3101 70.8809 73.7065C70.8809 73.1001 71.1035 72.5728 71.5488 72.1245C71.9971 71.6763 72.5244 71.4521 73.1309 71.4521C73.4678 71.4521 73.7812 71.5254 74.0713 71.6719C74.3613 71.8154 74.5693 71.959 74.6953 72.1025L74.8843 72.3091L74.2998 72.8936C74.2705 72.8467 74.2251 72.7896 74.1636 72.7222C74.105 72.6519 73.9746 72.5581 73.7725 72.4409C73.5732 72.3237 73.3594 72.2651 73.1309 72.2651C72.7646 72.2651 72.4468 72.4043 72.1772 72.6826C71.9106 72.9609 71.7773 73.3022 71.7773 73.7065C71.7773 74.1079 71.9106 74.4478 72.1772 74.7261C72.4468 75.0044 72.7646 75.1436 73.1309 75.1436C73.3594 75.1436 73.5732 75.0864 73.7725 74.9722C73.9746 74.8579 74.1196 74.7466 74.2075 74.6382L74.3438 74.4712L74.9282 75.0557C74.9106 75.0791 74.8843 75.1128 74.8491 75.1567C74.814 75.1978 74.7378 75.2695 74.6206 75.3721C74.5034 75.4717 74.3804 75.561 74.2515 75.6401C74.1226 75.7163 73.9556 75.7881 73.7505 75.8555C73.5454 75.9199 73.3389 75.9521 73.1309 75.9521C72.5244 75.9521 71.9971 75.7295 71.5488 75.2842ZM79.0256 72.353V75.8643H78.1247V71.5444H82.0402V75.8643H81.1394V72.353H79.0256ZM88.5326 74.7261C88.7992 74.4478 88.9325 74.1079 88.9325 73.7065C88.9325 73.3022 88.7992 72.9609 88.5326 72.6826C88.266 72.4043 87.9496 72.2651 87.5834 72.2651C87.2172 72.2651 86.8993 72.4043 86.6298 72.6826C86.3632 72.9609 86.2299 73.3022 86.2299 73.7065C86.2299 74.1079 86.3632 74.4478 86.6298 74.7261C86.8993 75.0044 87.2172 75.1436 87.5834 75.1436C87.9496 75.1436 88.266 75.0044 88.5326 74.7261ZM86.0014 75.2842C85.5561 74.8359 85.3334 74.3101 85.3334 73.7065C85.3334 73.1001 85.5561 72.5728 86.0014 72.1245C86.4496 71.6763 86.977 71.4521 87.5834 71.4521C88.1898 71.4521 88.7157 71.6763 89.161 72.1245C89.6093 72.5728 89.8334 73.1001 89.8334 73.7065C89.8334 74.3101 89.6093 74.8359 89.161 75.2842C88.7157 75.7295 88.1898 75.9521 87.5834 75.9521C86.977 75.9521 86.4496 75.7295 86.0014 75.2842ZM95.4161 75.9521C95.255 75.9521 95.0982 75.9331 94.9459 75.895C94.7936 75.8569 94.6632 75.8101 94.5548 75.7544C94.4464 75.6958 94.3497 75.6372 94.2647 75.5786C94.1827 75.5171 94.1227 75.4688 94.0846 75.4336L94.023 75.3677V77.7539H93.1222V71.5444H94.023V72.041C94.0641 72 94.1212 71.9458 94.1944 71.8784C94.2706 71.811 94.4303 71.7231 94.6734 71.6147C94.9166 71.5063 95.1642 71.4521 95.4161 71.4521C95.9874 71.4521 96.4825 71.6719 96.9015 72.1113C97.3233 72.5479 97.5343 73.0781 97.5343 73.7021C97.5343 74.3262 97.3233 74.8579 96.9015 75.2974C96.4825 75.7339 95.9874 75.9521 95.4161 75.9521ZM96.2379 72.687C95.9742 72.4058 95.671 72.2651 95.3282 72.2651C94.9855 72.2651 94.6822 72.4058 94.4186 72.687C94.1549 72.9683 94.023 73.3081 94.023 73.7065C94.023 74.1021 94.1549 74.4404 94.4186 74.7217C94.6822 75.0029 94.9855 75.1436 95.3282 75.1436C95.671 75.1436 95.9742 75.0029 96.2379 74.7217C96.5016 74.4404 96.6334 74.1021 96.6334 73.7065C96.6334 73.3081 96.5016 72.9683 96.2379 72.687ZM102.26 71.5444H104.238V75.8643H103.341V74.5151H102.396L101.539 75.8643H100.551L101.495 74.3789C101.472 74.373 101.44 74.3599 101.399 74.3394C101.361 74.3188 101.293 74.2734 101.197 74.2031C101.1 74.1299 101.013 74.0464 100.937 73.9526C100.864 73.8589 100.795 73.73 100.731 73.5659C100.669 73.3989 100.638 73.2202 100.638 73.0298C100.638 72.5991 100.786 72.2446 101.082 71.9663C101.381 71.6851 101.774 71.5444 102.26 71.5444ZM103.341 72.3091H102.26C102.055 72.3091 101.884 72.3779 101.746 72.5156C101.608 72.6533 101.539 72.8247 101.539 73.0298C101.539 73.2349 101.608 73.4062 101.746 73.5439C101.884 73.6816 102.055 73.7505 102.26 73.7505H103.341V72.3091ZM107.166 75.0557H107.478C107.496 75.0381 107.521 75.0103 107.553 74.9722C107.588 74.9312 107.646 74.8418 107.729 74.7041C107.813 74.5664 107.887 74.4185 107.948 74.2603C108.013 74.0991 108.07 73.8882 108.12 73.6274C108.172 73.3667 108.199 73.0928 108.199 72.8057V71.5444H111.35V75.0557H111.978V76.9453H111.082V75.8643H108.067V76.9453H107.166V75.0557ZM109.1 72.353V72.8057C109.1 73.0928 109.075 73.3652 109.025 73.623C108.978 73.8809 108.918 74.0947 108.845 74.2646C108.774 74.4316 108.703 74.5767 108.629 74.6997C108.559 74.8228 108.5 74.9106 108.454 74.9634L108.379 75.0557H110.449V72.353H109.1ZM118.422 73.2979L120.088 71.5444H121.169L119.503 73.3462L121.305 75.8643H120.312L118.919 73.9307L118.422 74.4712V75.8643H117.526V74.4712L117.029 73.9307L115.636 75.8643H114.643L116.445 73.3462L114.779 71.5444H115.86L117.526 73.2979V71.5444H118.422V73.2979ZM128.325 74.0186H124.95C124.996 74.3232 125.146 74.5869 125.398 74.8096C125.653 75.0322 125.954 75.1436 126.303 75.1436C126.555 75.1436 126.789 75.0864 127.006 74.9722C127.226 74.8579 127.381 74.7466 127.472 74.6382L127.608 74.4712L128.193 75.0557C128.175 75.0791 128.147 75.1128 128.109 75.1567C128.074 75.1978 127.996 75.2695 127.876 75.3721C127.756 75.4717 127.629 75.561 127.494 75.6401C127.359 75.7163 127.183 75.7881 126.967 75.8555C126.753 75.9199 126.532 75.9521 126.303 75.9521C125.691 75.9521 125.162 75.728 124.717 75.2798C124.274 74.8286 124.053 74.2881 124.053 73.6582C124.053 73.0518 124.268 72.5332 124.699 72.1025C125.133 71.6689 125.651 71.4521 126.255 71.4521C126.861 71.4521 127.365 71.6543 127.767 72.0586C128.171 72.46 128.373 72.9639 128.373 73.5703L128.325 74.0186ZM126.255 72.2212C125.93 72.2212 125.656 72.3179 125.433 72.5112C125.213 72.7017 125.065 72.9492 124.989 73.2539H127.49C127.437 72.9492 127.301 72.7017 127.081 72.5112C126.861 72.3179 126.586 72.2212 126.255 72.2212ZM132.558 74.0625V75.8643H131.657V71.5444H132.558V73.2539H134.672V71.5444H135.573V75.8643H134.672V74.0625H132.558ZM140.035 74.0625V75.8643H139.134V71.5444H140.035V73.2539H142.149V71.5444H143.05V75.8643H142.149V74.0625H140.035ZM148.052 71.5444H150.03V75.8643H149.133V74.5151H148.188L147.332 75.8643H146.343L147.288 74.3789C147.264 74.373 147.232 74.3599 147.191 74.3394C147.153 74.3188 147.085 74.2734 146.989 74.2031C146.892 74.1299 146.806 74.0464 146.729 73.9526C146.656 73.8589 146.587 73.73 146.523 73.5659C146.461 73.3989 146.431 73.2202 146.431 73.0298C146.431 72.5991 146.579 72.2446 146.875 71.9663C147.173 71.6851 147.566 71.5444 148.052 71.5444ZM149.133 72.3091H148.052C147.847 72.3091 147.676 72.3779 147.538 72.5156C147.4 72.6533 147.332 72.8247 147.332 73.0298C147.332 73.2349 147.4 73.4062 147.538 73.5439C147.676 73.6816 147.847 73.7505 148.052 73.7505H149.133V72.3091Z" fill="#002638"/>
<g clip-path="url(#clip0_3030_2316)">
<path d="M54.2084 36.8382C54.9485 37.3434 56.1644 37.2788 56.6754 38.6004C56.9691 39.3875 58.7959 40.5916 59.0896 40.0747C59.254 39.781 57.5976 39.3229 57.2628 38.2362C57.0572 37.5548 57.0866 37.3551 56.4522 37.0614C55.8883 36.799 55.3428 36.4987 54.8193 36.1627C53.9165 35.7546 53.1144 35.153 52.4698 34.4006C52.2524 34.1539 51.3831 33.59 52.2289 35.0174C52.7921 35.7217 53.4596 36.3357 54.2084 36.8382Z" fill="#002638"/>
<path d="M73.3807 23.8224C72.7346 23.9869 71.7067 23.9986 71.3072 24.5919C71.1855 24.8402 71.0776 25.0952 70.9842 25.3555C70.7637 25.7592 70.5225 26.1513 70.2617 26.5303C70.0679 26.824 69.4394 28.0105 70.3792 27.611C70.8902 27.3878 71.1898 26.172 71.4247 25.7314C71.7974 25.2249 72.3392 24.8686 72.9519 24.727C73.2661 24.6445 73.5742 24.5405 73.8741 24.4157C74.109 24.2923 74.2265 24.0221 74.4086 23.9164C74.8961 23.6345 75.9299 24.1279 75.9476 23.4524C75.9593 22.865 74.0973 23.6286 73.3807 23.8224Z" fill="#002638"/>
<path d="M100.642 19.3581C100.777 19.593 100.859 19.8573 100.977 20.0982C101.159 20.4623 101.881 21.3904 102.187 21.1085C102.492 20.8265 101.417 20.245 101.206 19.3111C101.059 18.6826 100.542 18.3478 100.031 17.9425C98.8856 17.0379 96.6535 15.0996 96.354 15.452C96.1366 15.7104 97.1352 16.4094 97.3643 16.5974C97.9517 17.0849 98.5978 17.5313 99.2145 17.9895C99.7868 18.3331 100.275 18.8008 100.642 19.3581Z" fill="#002638"/>
<path d="M51.2838 18.6113C51.0774 18.7186 50.8944 18.8658 50.7452 19.0442C50.596 19.2226 50.4836 19.4288 50.4145 19.6509C50.3429 19.861 50.2399 20.0591 50.109 20.2383C49.9387 20.5026 49.8095 20.7141 49.8447 20.8786C49.8621 20.9398 49.9019 20.9923 49.9563 21.0254C49.9983 21.0525 50.0473 21.0667 50.0973 21.0665C50.3675 21.0665 50.5495 20.6612 50.7434 20.2324C50.8021 20.1032 50.8609 19.9799 50.9196 19.8741C51.089 19.4881 51.3826 19.1697 51.7537 18.9696C52.1942 18.6876 52.6054 18.3822 53.0107 18.065C53.5499 17.6252 54.1257 17.2322 54.7317 16.8902L54.8668 16.8198C55.601 16.4497 55.8007 16.297 55.7655 16.1384C55.7303 15.9798 55.5364 16.0033 55.4366 16.0033C54.769 16.1386 54.1502 16.451 53.645 16.9079C53.416 17.0782 53.2045 17.272 52.9989 17.4541C52.7684 17.667 52.523 17.8633 52.2647 18.0415C51.9493 18.2507 51.6218 18.441 51.2838 18.6113Z" fill="#002638"/>
<path d="M34.4789 31.6519C33.7646 32.2692 33.0026 32.829 32.1999 33.3259C31.3599 33.8076 29.5625 37.1556 29.3628 37.4376C29.1631 37.7195 28.2585 38.7298 28.6638 38.7944C29.6271 38.9295 31.2777 35.6402 31.4187 35.4346C31.838 34.8239 32.3608 34.2912 32.9635 33.8604C33.451 33.5374 34.7726 32.8325 35.0957 32.0983C35.1271 32.0172 35.1308 31.9279 35.1062 31.8445C35.0816 31.7611 35.03 31.6881 34.9595 31.6371C34.889 31.5861 34.8037 31.5599 34.7167 31.5626C34.6297 31.5652 34.5461 31.5966 34.4789 31.6519Z" fill="#002638"/>
<path d="M58.2505 26.0484C58.6088 26.2481 59.6191 27.8105 60.0479 27.4934C60.8996 26.8707 56.6293 24.1747 56.5236 24.8795C56.4414 25.3142 57.2226 25.3377 57.5456 25.6255C57.7616 25.7959 57.9985 25.938 58.2505 26.0484Z" fill="#002638"/>
<path d="M101.67 25.9542C102.21 26.2303 104.748 27.9572 104.754 27.9572C105.453 28.2979 106.898 28.4565 107.943 29.132C108.423 29.4017 108.798 29.8261 109.006 30.3361C109.209 30.7562 109.462 31.1505 109.758 31.5109C109.975 31.8163 110.457 32.5094 110.674 32.8325C111.021 33.3376 111.362 33.8545 111.691 34.3773C112.02 34.9001 113.183 35.6871 113.535 36.0866C113.809 36.382 114.11 36.6514 114.434 36.8913C114.474 36.9228 114.524 36.939 114.575 36.9371C114.627 36.9352 114.676 36.9153 114.713 36.8809C114.751 36.8465 114.776 36.7998 114.783 36.749C114.79 36.6982 114.778 36.6467 114.751 36.6035C114.369 36.0161 112.813 34.5065 112.66 34.2539C112.347 33.6887 111.994 33.1469 111.603 32.6328C111.262 32.1687 110.898 31.7165 110.539 31.2642C110.287 30.6795 109.993 30.1142 109.658 29.5725C109.488 29.4315 109.353 29.2495 109.183 29.1085C108.744 28.7798 108.274 28.4964 107.779 28.2627C107.156 27.9768 106.504 27.7601 105.834 27.6165C105.443 27.544 105.07 27.3899 104.742 27.1642C103.608 26.383 101.864 25.3023 101.705 25.22C101.012 24.8676 99.7786 23.5166 99.3909 24.0453C99.2264 24.3155 100.947 25.5842 101.67 25.9542Z" fill="#002638"/>
<path d="M53.6937 33.1673C54.1284 32.8619 53.2884 31.6401 53.1533 31.3406C52.9125 30.8178 52.842 30.0542 52.4367 29.6607C51.9102 29.2802 51.31 29.0141 50.6746 28.8794C50.4306 28.805 50.1812 28.75 49.9286 28.715C49.4969 28.6529 49.0992 28.4458 48.8008 28.1276C48.0196 27.2818 46.745 26.3654 46.3456 26.6121C45.7112 27.0057 46.5629 27.3111 46.8566 27.4169C47.444 27.6224 48.5189 28.5916 49.2061 29.0498C49.2806 29.1045 49.3615 29.1498 49.4469 29.1849C49.8287 29.3611 50.3868 29.5138 50.5277 29.5667C51.1101 29.685 51.6297 30.0106 51.9903 30.483C52.3427 31.0939 53.2238 33.4963 53.6937 33.1673Z" fill="#002638"/>
<path d="M19.3245 37.6371C19.8003 37.4022 20.1939 37.0498 20.6638 36.7913C20.9266 36.7017 21.1955 36.631 21.4685 36.5798C21.6268 36.5089 21.7765 36.4202 21.9149 36.3155C23.0622 35.6967 24.1277 34.937 25.0867 34.0541C25.6021 33.5866 26.1518 33.1586 26.7314 32.7736C27.2194 32.5308 27.672 32.2226 28.0765 31.8573C28.8577 31.0232 29.8798 30.5416 30.6962 29.7192C31.5127 28.8969 32.2587 27.8102 33.0751 26.8881C33.4627 26.3956 34.0048 26.048 34.6141 25.9013C34.9313 25.7897 35.2719 25.6017 35.6185 25.4548C35.965 25.308 36.3703 25.5018 36.2646 25.8836C36.153 26.2377 35.928 26.5453 35.6244 26.7588C35.153 27.017 34.7345 27.3618 34.3909 27.775C34.0795 28.1274 34.2029 28.5562 34.103 28.9909C33.9679 29.5783 33.6038 30.0893 33.7976 30.7178C34.4202 30.8705 34.4966 29.9953 34.6082 29.5959C34.7668 29.0085 34.7844 28.6385 35.2954 28.3036C35.8064 27.9688 36.4173 26.8998 36.9695 26.1715C37.4281 25.7452 37.9169 25.3526 38.432 24.9967C38.6336 24.8873 38.8194 24.7509 38.9842 24.5914C39.1721 24.3388 39.0488 24.1802 39.1604 23.9512C39.4177 23.5723 39.7003 23.2112 40.0062 22.8704C40.1472 22.6648 40.2294 22.3593 40.3528 22.189C40.5443 21.9657 40.7858 21.7906 41.0576 21.678C41.7038 21.3314 42.4086 21.1552 42.8903 20.5678C43.2779 20.1038 43.4307 19.4459 44.065 19.3578C44.8531 19.3814 45.6129 19.6573 46.2325 20.1449C46.9526 20.68 47.7432 21.1129 48.582 21.4313C51.0137 22.2066 52.5468 23.3109 54.309 23.8161C54.8963 23.9864 55.8244 24.2448 56.4294 24.3623C56.9287 24.4563 57.4279 24.3623 57.9331 24.468C59.1548 24.6678 60.0712 25.9248 61.1813 26.4593C61.5631 26.6472 61.7158 26.5415 61.663 26.9762C61.5741 27.2414 61.4344 27.4868 61.2518 27.6986C60.9346 28.1509 60.5528 28.5445 60.2239 28.985C59.5308 28.1274 58.2914 27.6223 57.3575 27.0584C56.4235 26.4945 55.7774 25.8425 54.9668 25.2963C54.1562 24.75 52.7994 24.5796 52.0299 23.9394C50.1268 22.4122 48.3 21.6369 50.0681 23.0877C50.5732 23.5047 50.908 23.8807 51.3368 24.2213C52.209 24.7781 53.1409 25.2352 54.1151 25.5841C54.9257 25.9835 55.1724 27.029 55.9243 27.3462C56.2002 27.4288 56.4693 27.5329 56.729 27.6575C57.1284 27.8925 57.5689 28.01 57.9742 28.2449C58.4655 28.4698 58.8904 28.8178 59.2077 29.2552C59.4192 29.6194 59.4897 30.0364 59.7305 30.4006C59.9713 30.7648 60.3179 31.1055 60.5881 31.5107C60.7681 31.9016 60.9803 32.2769 61.2224 32.6326C61.8304 33.1756 62.5031 33.6412 63.2254 34.0189C63.6894 34.3302 66.6616 36.2274 66.7497 35.6165C66.7908 35.4051 65.4163 34.9058 65.2695 34.7472C65.1226 34.5886 64.7408 34.3243 64.6175 34.1892C64.3287 33.8557 63.9723 33.5874 63.572 33.4021C62.9846 33.126 62.4677 33.2024 62.0624 32.6209C61.8773 32.3454 61.7124 32.0568 61.569 31.7574C61.5396 31.7005 61.5285 31.6358 61.5373 31.5723C61.546 31.5087 61.5742 31.4495 61.6179 31.4026C61.6616 31.3556 61.7187 31.3234 61.7814 31.3101C61.8442 31.2969 61.9095 31.3034 61.9684 31.3287C62.4089 31.5166 62.8495 31.7046 63.3135 31.8514C63.9955 31.9818 64.6495 32.2302 65.246 32.5857C65.7746 33.0144 65.9215 33.7604 66.4501 34.1951C67.1197 34.7825 67.6777 34.6709 67.296 33.9601C67.1139 33.6312 66.8437 33.4432 66.7086 33.1378C66.699 33.1158 66.6964 33.0915 66.7011 33.068C66.7058 33.0445 66.7176 33.023 66.7348 33.0064C66.7521 32.9897 66.774 32.9788 66.7977 32.975C66.8213 32.9712 66.8456 32.9747 66.8672 32.9851C67.5108 33.2511 68.1747 33.4652 68.8525 33.6253C69.6102 33.8603 70.2505 34.3008 70.9788 34.6004C71.6769 34.7978 72.3308 35.1268 72.9054 35.5695C73.5112 36.0517 74.1469 36.495 74.8086 36.897C75.0724 37.0434 75.3204 37.2166 75.5487 37.4139C75.6469 37.487 75.741 37.5654 75.8306 37.6489C76.098 37.9067 76.3825 38.1461 76.6823 38.3655L78.1214 39.6284C78.2501 39.7268 78.3989 39.7958 78.5573 39.8303C78.7157 39.8648 78.8797 39.8641 79.0377 39.8281C79.8291 39.4768 80.508 38.9137 80.9995 38.201C81.0877 38.0659 81.91 37.1907 82.0862 37.0263C82.639 36.6472 83.2295 36.3264 83.8484 36.0688C84.1655 35.8867 85.0877 35.3463 84.3946 35.0703C83.9247 34.8823 83.1787 35.5049 82.7676 35.7164C82.2224 35.9287 81.7266 36.2505 81.3109 36.6621C80.8233 37.2495 80.6765 38.0072 79.8953 38.248C79.482 38.4132 79.0581 38.5505 78.6265 38.6592C78.5127 38.6702 78.3979 38.6559 78.2902 38.6173C78.1826 38.5787 78.0848 38.5168 78.0039 38.436C77.7337 38.1364 76.6823 37.2318 76.8292 36.9264C77.07 36.3801 78.0979 35.8632 78.4386 35.411C78.6853 35.082 78.697 34.9587 79.026 34.7707C79.4604 34.6029 79.9143 34.4904 80.3769 34.4359C80.6354 34.3772 82.3153 33.9308 83.1846 33.5901C83.772 33.3492 83.5312 34.0365 82.0862 34.5064C81.5282 34.6885 81.211 35.2994 80.7822 35.6812C80.1642 36.2194 79.4976 36.6992 78.791 37.1144C78.4033 37.3552 77.9217 38.0424 78.7323 38.0307C79.1317 38.0307 79.7543 37.4433 80.1009 37.2377C80.6633 36.9209 81.1776 36.5253 81.6281 36.063C82.0518 35.6121 82.5315 35.2174 83.0554 34.8882C83.537 34.6121 83.9952 34.5651 84.1832 34.0189C84.3711 33.4726 84.3006 33.3081 84.8645 32.9557C85.3017 32.6829 85.6974 32.3486 86.0393 31.963C86.3036 31.6928 87.1847 31.5636 87.3198 31.3345C87.5312 30.9469 86.9908 30.7472 86.6737 30.7472C86.0863 30.6943 85.7867 31.082 85.4049 31.4285C84.9919 31.7566 84.5561 32.0549 84.1009 32.3213C83.7769 32.5415 83.4303 32.7266 83.0671 32.8735C81.7866 33.3316 79.2315 33.7545 77.9569 34.759C77.4811 35.1408 77.1346 35.9983 76.559 36.2744C76.1125 36.4859 75.5428 36.0395 75.0964 35.687C75.0496 35.6484 75.0119 35.6 74.9861 35.5452C74.9602 35.4903 74.9468 35.4305 74.9468 35.3698C74.9468 35.3092 74.9602 35.2493 74.9861 35.1945C75.0119 35.1397 75.0496 35.0912 75.0964 35.0527C75.6623 34.6037 76.2701 34.2103 76.9114 33.8779C77.5399 33.5313 78.421 33.7545 78.979 33.3199C79.2668 33.0967 79.4136 32.7325 79.7308 32.5152C80.048 32.2978 80.5003 32.0394 80.9056 31.7868C81.5705 31.3966 82.2917 31.1113 83.0436 30.941C83.2157 30.8869 83.4002 30.8869 83.5723 30.941C83.7157 30.966 83.8614 30.9758 84.007 30.9704C84.4181 30.9116 84.6413 30.5357 84.8939 30.2714C85.2372 29.8819 85.6633 29.5742 86.141 29.3709C86.6187 29.1676 87.1359 29.0739 87.6546 29.0966C88.148 29.2302 88.622 29.4277 89.0643 29.684C89.7398 29.9698 90.3987 30.2934 91.0379 30.6532C91.2963 30.7941 93.1466 31.8279 93.3874 32.0218C96.2656 34.0835 96.5299 34.6826 100.865 36.3331C102.204 36.8442 103.802 38.0013 104.131 37.831C104.377 37.7135 103.99 37.085 103.514 36.9205C103.391 36.8735 99.0498 34.6767 98.4389 34.4535C97.9807 34.2891 95.4198 32.4153 95.2201 32.3037C94.7234 32.0193 94.243 31.7075 93.781 31.3698C92.8595 30.7102 91.8895 30.1211 90.8793 29.6076C90.1157 29.2728 89.3286 28.8147 88.8293 28.5915C88.5366 28.4002 88.2049 28.2767 87.8584 28.23C87.5119 28.1832 87.1593 28.2144 86.8264 28.3213C86.2769 28.4835 85.7572 28.7334 85.2874 29.0614C84.841 29.402 84.4651 29.8367 84.0128 30.1774C83.4666 30.5944 83.1611 30.5063 82.5091 30.5239C82.1097 30.5239 81.2228 31.0173 81.2228 30.8646C81.2228 30.5651 82.3447 29.8602 82.5737 29.7486C82.9922 29.5862 83.3766 29.3472 83.7074 29.0437C83.9928 28.5533 84.214 28.0282 84.3652 27.4813C84.6002 26.9585 85.8455 25.3315 85.2111 24.9262C84.7177 24.609 84.6237 25.2316 84.4181 25.6017C84.142 26.1127 83.8307 26.6179 83.5723 27.1289C83.3953 27.6208 83.1307 28.0765 82.7911 28.474C82.3619 28.7033 81.8899 28.8413 81.4048 28.8793C80.6589 29.0437 79.5076 29.1612 78.8967 29.3727C77.8455 29.72 76.8719 30.2686 76.0303 30.988C75.7425 31.3228 75.4018 31.6106 75.1199 31.9572C74.9961 32.0818 74.8948 32.2269 74.8203 32.3859C74.8005 32.4667 74.8086 32.5518 74.8431 32.6275C74.8777 32.7032 74.9367 32.765 75.0107 32.803C75.0846 32.841 75.1693 32.853 75.2509 32.837C75.3325 32.821 75.4064 32.778 75.4606 32.7149C75.8457 32.2251 76.2679 31.7655 76.7234 31.3404C77.3427 30.7876 78.0572 30.3517 78.8321 30.054C79.2727 29.9307 79.8894 30.0129 80.1185 29.9189C80.189 29.9189 82.0451 29.1495 81.3461 29.7192C80.5143 30.3904 79.7876 31.1823 79.1904 32.0688C78.791 32.3742 78.6618 32.6209 78.1625 32.7795C77.6632 32.9381 77.2344 32.7795 76.7998 32.9733C75.9872 33.3465 75.2365 33.8417 74.5736 34.4418C73.6397 35.3228 72.6 34.3243 71.6719 33.8544C70.9612 33.4726 71.3371 33.3434 71.3665 32.5915C71.484 29.9659 73.2637 30.7706 75.161 29.3374C75.4429 29.126 75.8188 28.7501 75.2902 28.5503C75.0318 28.4564 74.462 29.1025 74.1566 29.2435C73.5959 29.5285 73.0047 29.7492 72.3944 29.9013C72.0009 30.0012 71.4605 30.1187 71.2197 30.4887C70.8379 31.1348 70.9318 33.0086 70.0449 33.2435C69.4928 33.3845 68.7468 32.7677 68.2828 32.615C67.6954 32.4271 67.108 32.615 66.5206 32.3096C65.8216 31.9513 65.7042 31.5577 64.5118 31.499C64.0577 31.4592 63.6183 31.3188 63.2254 31.0878C63.0492 30.9938 62.5323 30.9351 62.3267 30.7295C62.0213 30.4123 62.0741 30.4887 62.5147 30.2009C63.0492 29.8485 63.8656 29.6429 64.3121 29.1847C64.7585 28.7266 64.7408 28.0922 64.9993 27.6105C65.3282 27.0232 65.9274 26.7471 66.2974 26.2067C66.8848 25.355 65.2166 26.1245 64.964 26.3007C64.2357 26.8058 63.942 28.0628 63.3253 28.7207C62.9846 29.0907 61.3105 30.2185 61.011 30.0952C60.4647 29.8778 60.8465 29.5078 61.0756 29.3022C61.405 28.9793 61.6666 28.5939 61.8451 28.1685C62.3118 27.396 62.9852 26.7694 63.7893 26.3594C64.2063 26.1068 64.4354 25.6722 64.8172 25.3667C65.199 25.0613 65.6337 24.9203 65.992 24.6325C66.1858 24.4798 66.2798 24.2037 66.4619 24.0451C66.7705 23.8691 67.1091 23.7516 67.4604 23.6986C68.4355 23.4108 70.6499 23.0583 71.4781 22.4357C72.1653 21.9188 72.5706 21.167 73.3225 20.7264C73.7498 20.4101 74.2181 20.1532 74.7146 19.9628C75.1551 19.8454 76.8468 19.4636 77.1581 19.3285C77.3402 19.2462 79.4195 18.0127 79.5076 18.3769C79.5722 18.6236 79.302 18.9643 79.1963 19.1816C79.0491 19.4333 78.8821 19.6729 78.697 19.8982C77.9217 20.6266 77.0935 21.6604 77.3049 21.8131C77.5164 21.9658 78.3387 21.3902 79.0318 20.5032C79.7259 19.8794 80.2564 19.0949 80.5766 18.2183C80.8879 17.6309 81.1288 17.5135 81.957 17.0435C82.4722 16.7697 83.0185 16.5587 83.584 16.415C85.2581 15.9569 87.1847 14.1243 86.844 13.9187C86.5033 13.7131 84.7294 15.1933 84.0187 15.4165C83.7395 15.516 83.4527 15.5926 83.1611 15.6456C82.4637 15.7714 81.7912 16.0095 81.1699 16.3504C80.8527 16.4973 80.0715 16.9378 79.584 17.1728C78.5074 17.7478 77.3881 18.2387 76.2359 18.6412C75.4743 18.8092 74.7292 19.0451 74.0097 19.3461C73.2424 19.6953 72.5409 20.1742 71.9363 20.7617C71.296 21.4665 71.0963 21.9776 68.829 22.5238C68.2416 22.6589 67.6543 22.841 67.1256 23.0231C66.8026 23.1288 65.4633 23.8219 67.014 22.7C67.431 22.4005 68.5882 21.5958 68.7057 21.0906C68.8421 20.6721 69.0401 20.2761 69.293 19.9158C70.1859 19.2227 70.9788 18.2594 71.9656 17.7132C72.4238 17.4606 74.509 14.9055 74.7968 14.741C75.2996 14.5026 75.7744 14.209 76.2124 13.8658C76.525 13.4807 76.8819 13.1338 77.2756 12.832C78.1919 12.2916 78.9085 11.5104 79.9951 11.3401C80.312 11.311 80.6175 11.2069 80.8861 11.0363C81.1548 10.8658 81.3789 10.6336 81.54 10.3592C81.8043 9.8775 82.2037 9.56619 82.4621 9.06691C82.8087 8.38555 83.1435 8.30919 83.8307 8.0155C84.3865 7.75593 84.8994 7.41328 85.3521 6.99933C86.333 6.20049 86.7618 6.69977 87.9659 6.61753C89.3345 6.51768 90.2626 7.7923 91.5254 8.16822C91.9951 8.26151 92.4484 8.42382 92.8705 8.64987C93.341 8.93676 93.7959 9.24851 94.2333 9.58381C94.7156 9.92095 95.2178 10.2289 95.737 10.506C96.1652 10.8265 96.5606 11.1885 96.9176 11.5868C97.969 12.4385 98.9676 13.7014 100.084 14.4826C100.636 14.8761 101.258 15.1463 101.805 15.5457C102.061 15.726 102.29 15.9415 102.486 16.186C103.279 17.2021 105.705 20.1919 105.969 20.5091C106.233 20.8263 107.949 23.3168 108.466 24.098C108.982 24.8792 110.075 25.2728 110.762 25.8601C111.185 26.2537 113 28.0687 113.17 27.2757C113.241 26.935 111.761 26.3124 110.656 25.2199C109.824 24.4546 109.039 23.6386 108.307 22.7764C107.532 21.6016 107.068 20.1097 104.971 18.0773C104.695 17.8071 104.442 17.0788 104.794 17.2256C104.95 17.2882 105.096 17.3711 105.229 17.4723C107.778 19.4753 109.505 19.5693 110.868 20.0979C111.762 20.3809 112.628 20.7426 113.458 21.1787C113.899 21.4783 116.002 23.0818 116.489 23.2698C117.341 23.6046 117.452 24.6619 118.034 24.4446C118.615 24.2272 113.241 20.2389 112.748 19.9805C112.08 19.5637 111.367 19.2266 110.621 18.976C109.726 18.8128 108.841 18.5951 107.972 18.324C107.702 18.2124 106.21 17.1845 105.952 17.0435C105.493 16.7612 104.997 16.5456 104.477 16.4033C104.236 16.4033 102.415 14.788 101.887 14.371C101.64 14.1713 98.1746 11.9333 97.599 11.2872C97.349 10.9161 97.0417 10.587 96.6885 10.3122L95.361 9.40172C94.5183 8.78243 93.6396 8.21363 92.7296 7.69831C91.9248 7.28127 90.8558 7.19904 90.1275 6.61166C89.8264 6.28536 89.4459 6.04253 89.0232 5.9068C88.5679 5.78103 88.1018 5.69843 87.6311 5.6601C86.7153 5.55057 85.7873 5.70761 84.9585 6.11239C84.236 6.5588 83.6075 6.99933 82.9144 7.49273C82.4269 7.83929 81.352 8.59113 80.7294 8.29744C80.3182 8.10361 79.9834 7.2989 79.7367 6.94059C79.4972 6.57684 79.1949 6.25861 78.8439 6.00078C78.1045 5.59037 77.3146 5.27837 76.4943 5.07272C75.996 4.85426 75.4632 4.72503 74.9202 4.69092C74.5793 4.67811 74.2552 4.54008 74.0097 4.30325C73.5457 3.8216 73.1756 3.12849 72.5706 2.79956C71.657 2.36577 70.7174 1.98912 69.7571 1.67178C68.8819 1.33698 68.1359 0.914062 67.1374 0.914062C66.6578 0.919711 66.1859 1.03546 65.7582 1.25239C65.3304 1.46931 64.9583 1.78161 64.6704 2.16518C64.3087 2.66621 63.854 3.09297 63.3311 3.42218C61.5396 4.69159 59.9223 6.19044 58.5205 7.8804C57.4882 9.22188 56.3232 10.4558 55.0432 11.5633C54.726 11.8276 54.2032 12.1507 54.0681 12.2505C52.888 13.073 51.6093 13.7439 50.2619 14.2476C49.7335 14.3706 49.2484 14.6345 48.8581 15.0112C48.6642 15.2873 48.6583 15.6573 48.4645 15.951C48.2436 16.2317 47.9891 16.4842 47.7068 16.7029C47.1781 17.161 46.532 17.4782 46.0328 17.9599C45.5335 18.4415 45.4806 18.7 44.7346 18.4533C43.7243 18.1185 43.1076 18.6354 42.5026 19.4048C42.0444 19.9922 42.1913 20.1802 41.4512 20.5091C40.9637 20.7264 40.3469 20.885 40.0591 21.3725C39.8829 21.6662 39.8946 21.9599 39.6362 22.2242C39.3777 22.4886 39.2015 22.4416 39.0488 22.6002C38.6729 22.9409 38.7551 23.5694 38.3616 23.8865C37.968 24.2037 36.9988 24.1861 36.4761 24.3388C35.8182 24.5385 35.1721 24.8029 34.5201 25.0319C33.8529 25.251 33.2484 25.6278 32.7579 26.1303C32.3644 26.5474 31.9356 26.9409 31.5832 27.3815C31.2779 27.8316 30.9484 28.265 30.5964 28.6796C30.1617 29.1025 29.8034 29.6076 29.3394 29.9953C28.8754 30.383 28.2645 30.6825 27.8004 31.1348C27.3994 31.5002 26.9485 31.8067 26.4612 32.0453C25.8961 32.3684 25.3614 32.7419 24.8635 33.1613C24.4522 33.6038 24.0168 34.0234 23.5596 34.4183C22.3752 35.2004 21.1276 35.8822 19.8297 36.4565C19.536 36.5975 17.9618 37.2083 17.9266 37.5255C17.8913 37.8427 19.0543 37.7664 19.3245 37.6371ZM55.4485 12.3269C57.5102 10.6587 58.5792 8.80259 59.9243 7.49273C60.3766 7.05807 60.8641 6.6469 61.3105 6.20049C61.623 5.81821 61.9564 5.45348 62.3091 5.10796C62.8845 4.76149 63.4306 4.36859 63.942 3.9332C64.3356 3.48679 64.3297 3.50441 64.3355 3.50441C64.5881 3.45742 64.1006 4.36199 63.9831 4.49121C63.7188 4.77903 63.6953 5.07859 63.3957 5.33704C63.196 5.525 63.1725 5.81282 62.8965 6.1535C62.4546 7.11161 62.0625 8.09188 61.7217 9.09041C61.6557 9.2577 61.5751 9.41887 61.4809 9.57206C61.226 9.84859 60.9013 10.0515 60.5411 10.1594C60.4236 10.2064 60.3061 10.2534 60.2004 10.3063C59.0256 10.8526 58.4382 11.5692 57.7569 12.7968L57.7099 12.879L57.7921 12.926C57.8341 12.9531 57.8831 12.9673 57.9331 12.9671C58.2033 12.9671 58.4089 12.5677 58.591 12.2153C58.6325 12.1263 58.6796 12.0399 58.7319 11.9568C58.9249 11.6543 59.1695 11.3879 59.4544 11.1697C59.8197 10.9252 60.2144 10.7278 60.6292 10.5824C60.9862 10.4521 61.3303 10.2889 61.6571 10.0948C61.9398 9.91021 62.1479 9.63132 62.2445 9.30774L62.3267 9.03754C62.4324 8.70274 62.8554 7.46924 63.1079 6.65278C63.2047 6.33361 63.39 6.04845 63.6424 5.83044C63.9062 5.60495 64.1375 5.34403 64.3297 5.0551C64.474 4.75109 64.6731 4.47631 64.9171 4.24451C65.1638 3.96257 65.8392 2.25917 66.0918 2.07708C66.4736 1.83038 67.1197 1.14314 67.854 1.55431C68.2416 1.76577 68.4413 2.14169 68.9289 2.14169C69.5867 2.14169 70.6147 2.18281 70.2975 2.67033C69.9803 3.15786 69.0875 3.0815 69.2402 3.36932C69.3929 3.65713 70.4149 3.16961 70.6558 3.02863C71.2432 2.65858 71.7131 2.91703 72.3063 3.22247C72.8331 3.54682 73.2711 3.99691 73.5809 4.53233C73.8452 4.89651 74.2094 5.87156 74.8321 5.83632C74.9613 5.83632 74.8321 5.67772 74.8732 5.55437C74.9378 5.18432 76.2594 6.14175 77.1052 6.0419C77.738 6.15364 78.3275 6.43825 78.8086 6.86423C79.3079 7.45161 80.1479 8.10948 80.3123 8.90245C80.4122 9.39585 80.4357 9.48983 80.2418 9.84226C80.048 10.1947 80.0186 10.4296 79.1082 10.8114C79.045 10.8366 78.975 10.8387 78.9105 10.8172C78.846 10.7957 78.7912 10.752 78.7558 10.694C78.5208 10.2828 78.2036 9.64842 77.8923 8.99643C77.581 8.34443 77.6339 8.20934 76.7175 7.6572L76.6353 7.60433C75.9303 7.14525 75.1781 6.76322 74.3915 6.46481C74.3632 6.46259 74.3349 6.46933 74.3107 6.4841C74.2864 6.49886 74.2674 6.52088 74.2564 6.54705C74.1448 6.86423 74.5031 7.05807 74.7909 7.21079L74.9613 7.31064C75.1383 7.41176 75.3253 7.49443 75.5193 7.55734C75.6603 7.61608 75.813 7.66895 75.9363 7.73356C76.2869 7.93309 76.6243 8.15478 76.9466 8.3973C77.0054 8.44429 77.0759 8.47953 77.1228 8.52652C77.6157 9.19928 77.9782 9.95831 78.1919 10.7644C78.2271 10.9876 78.3093 11.158 78.1449 11.3518C77.7045 11.7422 77.2374 12.1014 76.7469 12.4267C76.4591 12.6852 76.1595 12.926 75.8365 13.161C75.7751 13.2085 75.7018 13.2381 75.6247 13.2468C75.5476 13.2554 75.4696 13.2426 75.3992 13.2099C75.3288 13.1771 75.2688 13.1256 75.2258 13.0611C75.1827 12.9965 75.1583 12.9213 75.1551 12.8438C75.151 12.6243 75.1072 12.4074 75.0259 12.2035C74.8027 11.7689 73.6514 10.6998 73.6103 10.9465C73.5281 11.4634 74.0038 11.4164 74.4796 12.2211C74.6262 12.5951 74.6981 12.9943 74.6911 13.3959C74.7498 14.3651 73.2872 15.1228 73.0699 15.0641C72.741 14.976 72.7938 13.0435 73.0112 12.4209C73.111 12.133 73.2872 11.9744 73.2637 11.6044C73.2524 11.3833 73.2524 11.1618 73.2637 10.9407C73.3027 10.549 73.2889 10.1539 73.2226 9.7659C73.0635 9.32978 72.7556 8.96373 72.3533 8.73211C72.203 8.62601 72.0598 8.51025 71.9245 8.38555C71.6788 8.12175 71.4801 7.81779 71.3371 7.48686C71.1785 7.16967 71.0552 6.89948 70.8144 6.89948C70.7738 6.89667 70.7334 6.90801 70.7002 6.93157C70.667 6.95512 70.643 6.98944 70.6323 7.0287C70.5148 7.36938 71.2197 8.3738 72.6 9.37822C72.9583 9.64842 72.8937 11.0405 72.788 11.5515C72.706 11.8098 72.5916 12.0565 72.4473 12.2858C72.2064 13.1089 72.1051 13.9666 72.1477 14.8232C72.2041 15.0703 72.2016 15.3272 72.1404 15.5731C72.0792 15.819 71.961 16.0471 71.7953 16.2388L70.1389 17.9481C70.0839 18.0006 70.0162 18.038 69.9425 18.0566C69.8688 18.0752 69.7915 18.0744 69.7182 18.0543C69.6449 18.0342 69.578 17.9955 69.5241 17.9419C69.4702 17.8883 69.4311 17.8216 69.4105 17.7484C69.3002 17.2747 69.1008 16.8262 68.8231 16.4268C68.4684 16.0468 68.1406 15.6425 67.8422 15.2168C67.7071 14.9583 67.8011 14.8115 67.5896 14.6C67.3782 14.3886 67.202 14.3298 67.1902 14.6C67.1902 15.1463 67.8363 16.1096 68.1535 16.4855C68.5643 16.9662 68.8382 17.5484 68.9465 18.1713C69.0415 18.4848 69.0519 18.8178 68.9766 19.1366C68.9013 19.4554 68.743 19.7485 68.5177 19.9863C68.2864 20.2162 68.0687 20.4594 67.8657 20.7147C67.7741 20.9614 67.6641 21.2009 67.5368 21.4313C67.1432 21.9306 66.5147 22.3006 66.0801 22.7823C65.9215 22.9526 65.1579 23.6692 64.7937 24.145C64.7044 24.2609 64.5973 24.362 64.4765 24.4446C64.1887 24.6384 63.9244 24.8557 63.6248 25.0319C63.3971 25.1498 63.1756 25.2791 62.9611 25.4196C62.7555 25.5841 62.6615 25.8249 62.4794 26.007C62.3123 26.1614 62.0931 26.2471 61.8656 26.2471C61.6381 26.2471 61.4189 26.1614 61.2518 26.007C60.776 25.6076 60.3237 25.1377 59.8068 24.7559C59.3552 24.4444 58.8657 24.1918 58.3501 24.004C58.308 23.9867 58.2707 23.9595 58.2415 23.9247C58.2122 23.8898 58.1917 23.8484 58.1819 23.804C58.1721 23.7595 58.1732 23.7134 58.1851 23.6695C58.197 23.6255 58.2194 23.5851 58.2503 23.5517C59.0844 22.6295 60.1064 21.8366 60.7819 20.8087C61.5337 19.6809 61.4809 18.4591 62.1799 17.2844C62.5721 16.7745 62.9917 16.2862 63.4369 15.8218C63.5191 15.7308 63.5819 15.6239 63.6213 15.5078C63.6607 15.3916 63.6759 15.2686 63.6659 15.1463C63.6013 14.7998 63.2665 15.1463 63.1667 15.2344C62.9082 15.4106 62.7085 15.8218 62.4912 16.0509C62.2592 16.2662 62.054 16.5088 61.8803 16.7734C61.5185 17.3636 61.223 17.992 60.9992 18.6471C60.8751 19.2993 60.6533 19.929 60.3414 20.515C59.8899 21.0593 59.3775 21.55 58.8142 21.9776C58.3208 22.424 58.1915 22.9761 57.6746 23.3814C57.1578 23.7867 56.5762 23.6986 55.9125 23.5106C54.6731 23.1641 53.563 22.5767 52.3001 22.1655C51.2076 21.7955 50.1444 21.4137 49.0401 21.0554C48.5323 20.8075 48.0634 20.4869 47.6481 20.1038C47.6169 20.0732 47.5933 20.0358 47.5791 19.9945C47.5649 19.9532 47.5605 19.9092 47.5662 19.866C47.5719 19.8227 47.5875 19.7813 47.6119 19.7451C47.6363 19.7089 47.6688 19.6789 47.7068 19.6574C48.3031 19.1959 48.8502 18.6743 49.3397 18.1008C49.9459 17.6322 50.4345 17.0289 50.767 16.3387C51.1731 15.5767 51.7526 14.9207 52.4587 14.4238C52.817 14.0831 55.0784 12.6617 55.4485 12.3269ZM47.6128 17.4606C48.2567 17.0943 48.7809 16.5497 49.1224 15.8923C49.2316 15.5829 49.416 15.3055 49.659 15.0851C49.902 14.8646 50.196 14.7081 50.5145 14.6294C50.8787 14.4767 52.676 13.5251 52.5586 13.8071C52.353 14.277 51.1723 14.5707 50.6848 15.2579C50.2913 15.8159 50.0974 16.2741 49.7098 16.8497C49.1588 17.5849 48.5196 18.2497 47.8066 18.8292C47.2956 19.3343 46.72 19.8689 46.2736 19.0524C45.9035 18.4239 47.1488 17.7895 47.6128 17.4606Z" fill="#002638"/>
<path d="M120.296 28.2096C120.513 28.797 121.065 29.0907 121.617 29.4255C122.17 29.7603 123.156 30.4005 123.967 30.8646C124.583 31.3854 125.248 31.8457 125.952 32.239C126.54 32.4388 127.615 33.4432 128.302 33.872C128.379 33.9223 128.459 33.9674 128.543 34.0071C128.924 34.1833 129.482 34.336 129.623 34.3889C130.205 34.5047 130.725 34.8283 131.086 35.2993C131.48 35.9278 132.361 38.3302 132.848 38.0012C133.336 37.6723 132.848 36.4741 132.701 36.1745C132.416 35.5585 132.036 34.9915 131.574 34.4946C131.196 34.1236 130.731 33.853 130.223 33.7075C129.851 33.4828 129.457 33.2959 129.048 33.1495C128.351 32.9265 127.704 32.5693 127.145 32.0981C126.076 31.0114 125.647 30.982 123.444 29.8308L122.457 29.2845C121.852 29.0122 121.313 28.6114 120.877 28.1098C120.719 27.8865 120.601 27.6398 120.454 27.4108C120.237 27.0701 119.403 26.236 119.133 26.5591C118.863 26.8821 119.973 27.3109 120.296 28.2096Z" fill="#002638"/>
<path d="M150.922 61.0269H149.582C152.161 55.3528 150.017 49.2793 146.969 45.2969C144.361 41.8959 140.184 38.9062 136.731 39.8871C136.122 40.0711 135.561 40.3856 135.086 40.8086C134.611 41.2316 134.234 41.753 133.982 42.3365C132.613 45.1559 133.048 49.9078 134.264 52.8682C135.479 55.8286 138.816 59.4175 142.651 61.0269H127.691L127.103 59.6995C126.202 57.5784 125.429 55.4051 124.789 53.1913C125.412 53.3812 126.059 53.4801 126.71 53.485C127.414 53.4959 128.113 53.3647 128.765 53.0993C129.417 52.8338 130.008 52.4396 130.504 51.9401C132.407 50.0135 132.531 47.0061 130.816 44.2689C127.955 39.7109 120.284 39.3702 116.812 40.1984L117.764 44.1691C117.958 44.1221 118.175 44.0869 118.41 44.0516C119.428 49.8579 121.04 55.5442 123.221 61.0211H111.738C114.003 59.8339 116.55 59.2857 119.103 59.4351L119.409 55.3646C116.862 55.2048 114.31 55.5748 111.914 56.4512C111.526 55.2354 111.133 53.8844 110.774 52.4688C112.193 52.1683 113.632 51.972 115.08 51.8814L114.786 47.8109C113.155 47.9224 111.533 48.1501 109.934 48.4922C109.73 47.2794 109.599 46.0555 109.541 44.827C111.367 44.3982 113.318 44.0457 114.898 43.8167L114.31 39.7755C110.95 40.263 106.41 41.1969 103.737 42.3658L105.376 46.1075L105.517 46.0487C105.956 50.2598 106.87 54.4077 108.243 58.4131C107.806 58.7271 107.386 59.0644 106.986 59.4234L108.436 61.0387H105.229L104.712 60.0754C103.111 56.955 102.171 53.5375 101.952 50.037L102.68 49.3792L101.834 48.4394C101.723 46.454 101.723 44.5274 101.729 42.7476V41.2557H97.6169C97.6169 41.7197 97.6169 42.2072 97.6169 42.7065C97.6169 44.3747 97.6169 46.2308 97.7109 48.1809C97.4046 48.4047 97.087 48.6125 96.7593 48.8035C95.966 49.307 95.0594 49.6038 94.122 49.667C93.8855 46.9326 93.8169 44.1864 93.9164 41.4436L89.8341 41.2733C89.7281 44.2692 89.8105 47.2688 90.0808 50.2544C90.1159 51.2439 90.5377 52.1803 91.2555 52.8623C91.8356 53.3259 92.5417 53.6042 93.282 53.6612C93.5493 53.6897 93.8179 53.7034 94.0867 53.7023C95.5028 53.6801 96.8951 53.3346 98.1573 52.692C98.5474 55.5733 99.3754 58.3781 100.613 61.0093H88.3245C87.7724 55.4409 87.4845 47.4467 88.3245 42.0428L84.3009 41.4436C83.9471 43.8423 83.7509 46.2617 83.7136 48.6861C82.252 48.7551 80.7952 48.9022 79.3493 49.1266C79.455 45.8373 79.5666 43.4172 79.6782 42.031L75.6077 41.7021C75.4785 43.3233 75.3493 46.1897 75.2318 50.1545C74.6321 50.3642 74.0439 50.6053 73.4696 50.877L75.1026 54.2427C75.0556 56.275 75.0086 58.5129 74.9616 60.9388V61.0446H72.1245C72.4652 55.0591 71.2552 46.36 69.822 41.2146L65.2228 42.1133C63.0436 44.5274 61.0054 48.8329 59.537 53.0209C58.8791 53.1913 58.2153 53.3675 57.5399 53.5202L58.3211 56.8918C57.9395 58.2574 57.6375 59.644 57.4165 61.0446H56.5237L56.3886 60.6628C55.7483 59.0651 54.368 50.5246 57.5634 44.0751L58.4033 42.3776L55.0141 40.3864L53.9333 41.1617C51.4898 42.9238 49.293 45.661 47.5191 48.2984C47.6307 46.266 47.7952 44.2513 48.1065 42.3306L44.0536 41.7021C44.0242 41.8842 44.0007 42.0663 43.9772 42.2425C40.312 46.2249 36.8288 52.3513 34.5791 58.789L38.4382 60.1224C39.705 56.5386 41.3512 53.1005 43.3487 49.8667L43.2606 52.0165C43.2078 53.4438 43.1549 54.7948 43.0785 56.1282L46.8554 57.3029C47.061 56.9681 47.3312 56.4865 47.666 55.8873C48.9101 53.616 50.2829 51.4176 51.7776 49.3028C51.2085 53.1895 51.3738 57.1484 52.2652 60.9741H29.1282C31.002 59.7993 33.0989 57.6554 35.002 53.8844C36.6996 50.4717 36.5292 44.3277 35.5131 42.1368L31.8067 43.846C32.2942 44.9033 32.5057 49.7198 31.3427 52.0694C29.0754 56.6157 26.6789 57.8844 25.4688 58.2369C24.8607 58.4609 24.1896 58.4419 23.5951 58.184C23.0077 57.8316 22.5378 55.0063 23.3308 52.6802C24.5643 49.0913 29.2633 45.2734 31.3015 45.0913L30.9315 41.0207C26.9314 41.4436 21.04 46.7301 19.4423 51.4291C18.5084 54.1546 18.3498 58.7655 20.6171 61.0563H17.1574L17.6449 60.5805C14.2087 57.0562 13.1397 53.6612 12.7932 51.0767C15.3835 50.2544 20.1119 48.1927 22.6553 43.7932L19.131 41.7491C17.3101 44.9033 13.6977 46.4481 11.683 47.1177C12.4172 45.943 13.1926 44.7682 14.0325 43.6639L10.7549 41.2322C7.1778 46.0605 4.68143 51.2177 2.03234 56.6392C1.55069 57.5849 0.434662 60.3514 0 61.72H0.834081C0.872041 61.7619 0.918236 61.7956 0.96978 61.8188C1.02132 61.8421 1.07711 61.8544 1.13365 61.8551H13.3512C13.78 62.3779 14.2264 62.8889 14.7139 63.3941L16.2998 61.8551H21.7331C22.5822 62.2949 23.5258 62.5207 24.482 62.513C25.1919 62.5107 25.8979 62.4079 26.579 62.2076C26.9191 62.1117 27.2526 61.9939 27.5775 61.8551H109.224L109.758 62.4425C109.993 62.2252 110.24 62.0314 110.481 61.8551H148.073L148.925 62.3662C149.024 62.1958 149.118 62.0255 149.212 61.8551H150.975C151.029 61.8559 151.083 61.8459 151.134 61.8255C151.184 61.8052 151.23 61.7751 151.269 61.7368C151.308 61.6986 151.339 61.653 151.36 61.6027C151.381 61.5524 151.392 61.4985 151.392 61.444C151.392 61.3845 151.38 61.3255 151.356 61.2712C151.331 61.2168 151.296 61.1682 151.251 61.1287C151.207 61.0892 151.154 61.0597 151.098 61.0421C151.041 61.0246 150.981 61.0194 150.922 61.0269ZM127.356 46.4481C128.026 47.5172 128.12 48.5451 127.603 49.0737C127.086 49.6024 126.087 49.4966 125.03 48.8505L124.02 50.4952C123.385 48.1457 122.845 45.8666 122.557 44.128C124.584 44.4393 126.545 45.1618 127.356 46.4481ZM4.59332 61.0269C4.90424 60.1416 5.26107 59.273 5.66235 58.4248C6.70789 56.2691 7.73581 54.1604 8.81072 52.1105C9.34192 55.3565 10.6699 58.4201 12.6757 61.0269H4.59332ZM79.0674 61.0269C79.1144 58.1958 79.1731 55.6171 79.226 53.3087C80.7086 53.0354 82.2078 52.8607 83.7136 52.786C83.7723 55.4468 83.9485 58.2427 84.2246 61.0563H79.0674V61.0269ZM66.9614 46.7301C67.2493 48.2631 67.5018 49.9078 67.7016 51.5701C66.6003 51.5825 65.502 51.6866 64.4181 51.8814C65.126 50.0987 65.9766 48.376 66.9614 46.7301ZM62.7969 56.416C64.5164 55.9233 66.2948 55.6664 68.0834 55.6524C68.1974 57.4519 68.1974 59.2568 68.0834 61.0563H61.6222C61.9089 59.4779 62.2914 57.9185 62.7675 56.3866L62.7969 56.416ZM143.985 61.0563L145.03 57.579C142.093 56.6921 138.986 53.5789 138.07 51.3469C136.819 48.2866 137.189 44.3629 137.894 43.8402C138.886 43.5876 141.453 44.8093 143.767 47.8109C144.972 49.3792 148.643 54.9123 145.424 60.2986L146.693 61.0563H143.985Z" fill="#002638"/>
</g>
<defs>
<clipPath id="clip0_3030_2316">
<rect width="151.339" height="70.0863" fill="white" transform="translate(0 0.914062)"/>
</clipPath>
</defs>
</svg>
