<svg width="152" height="77" viewBox="0 0 152 77" fill="none" xmlns="http://www.w3.org/2000/svg">
<path d="M1.98438 74.3701C1.53906 73.9219 1.31641 73.396 1.31641 72.7925C1.31641 72.186 1.53906 71.6587 1.98438 71.2104C2.43262 70.7622 2.95996 70.5381 3.56641 70.5381C3.90332 70.5381 4.2168 70.6113 4.50684 70.7578C4.79688 70.9014 5.00488 71.0449 5.13086 71.1885L5.31982 71.395L4.73535 71.9795C4.70605 71.9326 4.66064 71.8755 4.59912 71.8081C4.54053 71.7378 4.41016 71.644 4.20801 71.5269C4.00879 71.4097 3.79492 71.3511 3.56641 71.3511C3.2002 71.3511 2.88232 71.4902 2.61279 71.7686C2.34619 72.0469 2.21289 72.3882 2.21289 72.7925C2.21289 73.1938 2.34619 73.5337 2.61279 73.812C2.88232 74.0903 3.2002 74.2295 3.56641 74.2295C3.79492 74.2295 4.00879 74.1724 4.20801 74.0581C4.41016 73.9438 4.55518 73.8325 4.64307 73.7241L4.7793 73.5571L5.36377 74.1416C5.34619 74.165 5.31982 74.1987 5.28467 74.2427C5.24951 74.2837 5.17334 74.3555 5.05615 74.458C4.93896 74.5576 4.81592 74.647 4.68701 74.7261C4.55811 74.8022 4.39111 74.874 4.18604 74.9414C3.98096 75.0059 3.77441 75.0381 3.56641 75.0381C2.95996 75.0381 2.43262 74.8154 1.98438 74.3701ZM9.46113 71.439V74.9502H8.56025V70.6304H12.4758V74.9502H11.5749V71.439H9.46113ZM18.9682 73.812C19.2348 73.5337 19.3681 73.1938 19.3681 72.7925C19.3681 72.3882 19.2348 72.0469 18.9682 71.7686C18.7016 71.4902 18.3852 71.3511 18.0189 71.3511C17.6527 71.3511 17.3349 71.4902 17.0653 71.7686C16.7987 72.0469 16.6654 72.3882 16.6654 72.7925C16.6654 73.1938 16.7987 73.5337 17.0653 73.812C17.3349 74.0903 17.6527 74.2295 18.0189 74.2295C18.3852 74.2295 18.7016 74.0903 18.9682 73.812ZM16.4369 74.3701C15.9916 73.9219 15.7689 73.396 15.7689 72.7925C15.7689 72.186 15.9916 71.6587 16.4369 71.2104C16.8852 70.7622 17.4125 70.5381 18.0189 70.5381C18.6254 70.5381 19.1513 70.7622 19.5966 71.2104C20.0448 71.6587 20.2689 72.186 20.2689 72.7925C20.2689 73.396 20.0448 73.9219 19.5966 74.3701C19.1513 74.8154 18.6254 75.0381 18.0189 75.0381C17.4125 75.0381 16.8852 74.8154 16.4369 74.3701ZM25.8517 75.0381C25.6905 75.0381 25.5338 75.019 25.3814 74.981C25.2291 74.9429 25.0987 74.896 24.9903 74.8403C24.8819 74.7817 24.7853 74.7231 24.7003 74.6646C24.6183 74.603 24.5582 74.5547 24.5201 74.5195L24.4586 74.4536V76.8398H23.5577V70.6304H24.4586V71.127C24.4996 71.0859 24.5567 71.0317 24.63 70.9644C24.7062 70.897 24.8658 70.8091 25.109 70.7007C25.3521 70.5923 25.5997 70.5381 25.8517 70.5381C26.4229 70.5381 26.9181 70.7578 27.337 71.1973C27.7589 71.6338 27.9698 72.1641 27.9698 72.7881C27.9698 73.4121 27.7589 73.9438 27.337 74.3833C26.9181 74.8198 26.4229 75.0381 25.8517 75.0381ZM26.6734 71.7729C26.4098 71.4917 26.1065 71.3511 25.7638 71.3511C25.421 71.3511 25.1178 71.4917 24.8541 71.7729C24.5904 72.0542 24.4586 72.394 24.4586 72.7925C24.4586 73.188 24.5904 73.5264 24.8541 73.8076C25.1178 74.0889 25.421 74.2295 25.7638 74.2295C26.1065 74.2295 26.4098 74.0889 26.6734 73.8076C26.9371 73.5264 27.0689 73.188 27.0689 72.7925C27.0689 72.394 26.9371 72.0542 26.6734 71.7729ZM30.806 71.439V70.6304H34.6731V71.439H33.1878V74.9502H32.2913V71.439H30.806ZM40.9326 70.6304H41.7412V74.9502H40.8403V72.1157L38.5903 74.9502H37.7817V70.6304H38.6826V73.4648L40.9326 70.6304ZM45.3024 70.6304H47.3723C47.7854 70.6304 48.1135 70.7373 48.3566 70.9512C48.5998 71.1621 48.7214 71.4302 48.7214 71.7554C48.7214 71.9399 48.6804 72.1084 48.5983 72.2607C48.5192 72.4102 48.4372 72.5142 48.3522 72.5728L48.2292 72.6562C48.2468 72.6621 48.2717 72.6724 48.3039 72.687C48.3361 72.7017 48.3947 72.7397 48.4797 72.8013C48.5646 72.8599 48.6379 72.9258 48.6994 72.999C48.7639 73.0693 48.821 73.166 48.8708 73.2891C48.9235 73.4121 48.9499 73.5454 48.9499 73.689C48.9499 74.061 48.8166 74.3643 48.55 74.5986C48.2863 74.833 47.9245 74.9502 47.4646 74.9502H45.3024V70.6304ZM47.4646 73.0166H46.2033V74.1855H47.4646C47.6433 74.1855 47.7854 74.1328 47.8908 74.0273C47.9963 73.9219 48.049 73.7798 48.049 73.6011C48.049 73.4399 47.9948 73.3022 47.8864 73.188C47.778 73.0737 47.6374 73.0166 47.4646 73.0166ZM47.7019 72.1772C47.7839 72.0952 47.8249 71.9854 47.8249 71.8477C47.8249 71.707 47.7839 71.5972 47.7019 71.5181C47.6198 71.436 47.51 71.395 47.3723 71.395H46.2033V72.2959H47.3723C47.51 72.2959 47.6198 72.2563 47.7019 72.1772ZM53.1352 73.1484V74.9502H52.2343V70.6304H53.1352V72.3398H55.2489V70.6304H56.1498V74.9502H55.2489V73.1484H53.1352ZM63.7145 73.1045H60.3395C60.3863 73.4092 60.5357 73.6729 60.7877 73.8955C61.0426 74.1182 61.3443 74.2295 61.693 74.2295C61.9449 74.2295 62.1793 74.1724 62.3961 74.0581C62.6158 73.9438 62.7711 73.8325 62.8619 73.7241L62.9981 73.5571L63.5826 74.1416C63.565 74.165 63.5372 74.1987 63.4991 74.2427C63.464 74.2837 63.3863 74.3555 63.2662 74.458C63.1461 74.5576 63.0187 74.647 62.8839 74.7261C62.7491 74.8022 62.5733 74.874 62.3565 74.9414C62.1427 75.0059 61.9215 75.0381 61.693 75.0381C61.0807 75.0381 60.5519 74.814 60.1065 74.3657C59.6642 73.9146 59.443 73.374 59.443 72.7441C59.443 72.1377 59.6583 71.6191 60.089 71.1885C60.5226 70.7549 61.0411 70.5381 61.6446 70.5381C62.2511 70.5381 62.755 70.7402 63.1563 71.1445C63.5606 71.5459 63.7628 72.0498 63.7628 72.6562L63.7145 73.1045ZM61.6446 71.3071C61.3194 71.3071 61.0455 71.4038 60.8229 71.5972C60.6031 71.7876 60.4552 72.0352 60.379 72.3398H62.8795C62.8268 72.0352 62.6905 71.7876 62.4708 71.5972C62.2511 71.4038 61.9757 71.3071 61.6446 71.3071ZM71.5488 74.3701C71.1035 73.9219 70.8809 73.396 70.8809 72.7925C70.8809 72.186 71.1035 71.6587 71.5488 71.2104C71.9971 70.7622 72.5244 70.5381 73.1309 70.5381C73.4678 70.5381 73.7812 70.6113 74.0713 70.7578C74.3613 70.9014 74.5693 71.0449 74.6953 71.1885L74.8843 71.395L74.2998 71.9795C74.2705 71.9326 74.2251 71.8755 74.1636 71.8081C74.105 71.7378 73.9746 71.644 73.7725 71.5269C73.5732 71.4097 73.3594 71.3511 73.1309 71.3511C72.7646 71.3511 72.4468 71.4902 72.1772 71.7686C71.9106 72.0469 71.7773 72.3882 71.7773 72.7925C71.7773 73.1938 71.9106 73.5337 72.1772 73.812C72.4468 74.0903 72.7646 74.2295 73.1309 74.2295C73.3594 74.2295 73.5732 74.1724 73.7725 74.0581C73.9746 73.9438 74.1196 73.8325 74.2075 73.7241L74.3438 73.5571L74.9282 74.1416C74.9106 74.165 74.8843 74.1987 74.8491 74.2427C74.814 74.2837 74.7378 74.3555 74.6206 74.458C74.5034 74.5576 74.3804 74.647 74.2515 74.7261C74.1226 74.8022 73.9556 74.874 73.7505 74.9414C73.5454 75.0059 73.3389 75.0381 73.1309 75.0381C72.5244 75.0381 71.9971 74.8154 71.5488 74.3701ZM79.0256 71.439V74.9502H78.1247V70.6304H82.0402V74.9502H81.1394V71.439H79.0256ZM88.5326 73.812C88.7992 73.5337 88.9325 73.1938 88.9325 72.7925C88.9325 72.3882 88.7992 72.0469 88.5326 71.7686C88.266 71.4902 87.9496 71.3511 87.5834 71.3511C87.2172 71.3511 86.8993 71.4902 86.6298 71.7686C86.3632 72.0469 86.2299 72.3882 86.2299 72.7925C86.2299 73.1938 86.3632 73.5337 86.6298 73.812C86.8993 74.0903 87.2172 74.2295 87.5834 74.2295C87.9496 74.2295 88.266 74.0903 88.5326 73.812ZM86.0014 74.3701C85.5561 73.9219 85.3334 73.396 85.3334 72.7925C85.3334 72.186 85.5561 71.6587 86.0014 71.2104C86.4496 70.7622 86.977 70.5381 87.5834 70.5381C88.1898 70.5381 88.7157 70.7622 89.161 71.2104C89.6093 71.6587 89.8334 72.186 89.8334 72.7925C89.8334 73.396 89.6093 73.9219 89.161 74.3701C88.7157 74.8154 88.1898 75.0381 87.5834 75.0381C86.977 75.0381 86.4496 74.8154 86.0014 74.3701ZM95.4161 75.0381C95.255 75.0381 95.0982 75.019 94.9459 74.981C94.7936 74.9429 94.6632 74.896 94.5548 74.8403C94.4464 74.7817 94.3497 74.7231 94.2647 74.6646C94.1827 74.603 94.1227 74.5547 94.0846 74.5195L94.023 74.4536V76.8398H93.1222V70.6304H94.023V71.127C94.0641 71.0859 94.1212 71.0317 94.1944 70.9644C94.2706 70.897 94.4303 70.8091 94.6734 70.7007C94.9166 70.5923 95.1642 70.5381 95.4161 70.5381C95.9874 70.5381 96.4825 70.7578 96.9015 71.1973C97.3233 71.6338 97.5343 72.1641 97.5343 72.7881C97.5343 73.4121 97.3233 73.9438 96.9015 74.3833C96.4825 74.8198 95.9874 75.0381 95.4161 75.0381ZM96.2379 71.7729C95.9742 71.4917 95.671 71.3511 95.3282 71.3511C94.9855 71.3511 94.6822 71.4917 94.4186 71.7729C94.1549 72.0542 94.023 72.394 94.023 72.7925C94.023 73.188 94.1549 73.5264 94.4186 73.8076C94.6822 74.0889 94.9855 74.2295 95.3282 74.2295C95.671 74.2295 95.9742 74.0889 96.2379 73.8076C96.5016 73.5264 96.6334 73.188 96.6334 72.7925C96.6334 72.394 96.5016 72.0542 96.2379 71.7729ZM102.26 70.6304H104.238V74.9502H103.341V73.6011H102.396L101.539 74.9502H100.551L101.495 73.4648C101.472 73.459 101.44 73.4458 101.399 73.4253C101.361 73.4048 101.293 73.3594 101.197 73.2891C101.1 73.2158 101.013 73.1323 100.937 73.0386C100.864 72.9448 100.795 72.8159 100.731 72.6519C100.669 72.4849 100.638 72.3062 100.638 72.1157C100.638 71.6851 100.786 71.3306 101.082 71.0522C101.381 70.771 101.774 70.6304 102.26 70.6304ZM103.341 71.395H102.26C102.055 71.395 101.884 71.4639 101.746 71.6016C101.608 71.7393 101.539 71.9106 101.539 72.1157C101.539 72.3208 101.608 72.4922 101.746 72.6299C101.884 72.7676 102.055 72.8364 102.26 72.8364H103.341V71.395ZM107.166 74.1416H107.478C107.496 74.124 107.521 74.0962 107.553 74.0581C107.588 74.0171 107.646 73.9277 107.729 73.79C107.813 73.6523 107.887 73.5044 107.948 73.3462C108.013 73.1851 108.07 72.9741 108.12 72.7134C108.172 72.4526 108.199 72.1787 108.199 71.8916V70.6304H111.35V74.1416H111.978V76.0312H111.082V74.9502H108.067V76.0312H107.166V74.1416ZM109.1 71.439V71.8916C109.1 72.1787 109.075 72.4512 109.025 72.709C108.978 72.9668 108.918 73.1807 108.845 73.3506C108.774 73.5176 108.703 73.6626 108.629 73.7856C108.559 73.9087 108.5 73.9966 108.454 74.0493L108.379 74.1416H110.449V71.439H109.1ZM118.422 72.3838L120.088 70.6304H121.169L119.503 72.4321L121.305 74.9502H120.312L118.919 73.0166L118.422 73.5571V74.9502H117.526V73.5571L117.029 73.0166L115.636 74.9502H114.643L116.445 72.4321L114.779 70.6304H115.86L117.526 72.3838V70.6304H118.422V72.3838ZM128.325 73.1045H124.95C124.996 73.4092 125.146 73.6729 125.398 73.8955C125.653 74.1182 125.954 74.2295 126.303 74.2295C126.555 74.2295 126.789 74.1724 127.006 74.0581C127.226 73.9438 127.381 73.8325 127.472 73.7241L127.608 73.5571L128.193 74.1416C128.175 74.165 128.147 74.1987 128.109 74.2427C128.074 74.2837 127.996 74.3555 127.876 74.458C127.756 74.5576 127.629 74.647 127.494 74.7261C127.359 74.8022 127.183 74.874 126.967 74.9414C126.753 75.0059 126.532 75.0381 126.303 75.0381C125.691 75.0381 125.162 74.814 124.717 74.3657C124.274 73.9146 124.053 73.374 124.053 72.7441C124.053 72.1377 124.268 71.6191 124.699 71.1885C125.133 70.7549 125.651 70.5381 126.255 70.5381C126.861 70.5381 127.365 70.7402 127.767 71.1445C128.171 71.5459 128.373 72.0498 128.373 72.6562L128.325 73.1045ZM126.255 71.3071C125.93 71.3071 125.656 71.4038 125.433 71.5972C125.213 71.7876 125.065 72.0352 124.989 72.3398H127.49C127.437 72.0352 127.301 71.7876 127.081 71.5972C126.861 71.4038 126.586 71.3071 126.255 71.3071ZM132.558 73.1484V74.9502H131.657V70.6304H132.558V72.3398H134.672V70.6304H135.573V74.9502H134.672V73.1484H132.558ZM140.035 73.1484V74.9502H139.134V70.6304H140.035V72.3398H142.149V70.6304H143.05V74.9502H142.149V73.1484H140.035ZM148.052 70.6304H150.03V74.9502H149.133V73.6011H148.188L147.332 74.9502H146.343L147.288 73.4648C147.264 73.459 147.232 73.4458 147.191 73.4253C147.153 73.4048 147.085 73.3594 146.989 73.2891C146.892 73.2158 146.806 73.1323 146.729 73.0386C146.656 72.9448 146.587 72.8159 146.523 72.6519C146.461 72.4849 146.431 72.3062 146.431 72.1157C146.431 71.6851 146.579 71.3306 146.875 71.0522C147.173 70.771 147.566 70.6304 148.052 70.6304ZM149.133 71.395H148.052C147.847 71.395 147.676 71.4639 147.538 71.6016C147.4 71.7393 147.332 71.9106 147.332 72.1157C147.332 72.3208 147.4 72.4922 147.538 72.6299C147.676 72.7676 147.847 72.8364 148.052 72.8364H149.133V71.395Z" fill="white"/>
<g clip-path="url(#clip0_3030_1481)">
<path d="M54.2094 35.9242C54.9495 36.4293 56.1654 36.3647 56.6764 37.6863C56.9701 38.4734 58.7968 39.6775 59.0905 39.1606C59.255 38.8669 57.5986 38.4088 57.2638 37.3221C57.0582 36.6408 57.0876 36.4411 56.4532 36.1474C55.8893 35.8849 55.3437 35.5846 54.8203 35.2487C53.9174 34.8406 53.1153 34.239 52.4708 33.4865C52.2534 33.2398 51.3841 32.676 52.2299 34.1033C52.7931 34.8076 53.4606 35.4217 54.2094 35.9242Z" fill="white"/>
<path d="M73.3817 22.9085C72.7356 23.073 71.7076 23.0847 71.3082 23.678C71.1864 23.9263 71.0786 24.1812 70.9852 24.4416C70.7647 24.8453 70.5235 25.2374 70.2627 25.6163C70.0688 25.91 69.4403 27.0965 70.3802 26.6971C70.8912 26.4739 71.1907 25.258 71.4257 24.8175C71.7984 24.3109 72.3402 23.9546 72.9529 23.8131C73.2671 23.7305 73.5752 23.6265 73.8751 23.5017C74.11 23.3784 74.2275 23.1082 74.4096 23.0025C74.8971 22.7205 75.9309 23.2139 75.9485 22.5384C75.9603 21.9511 74.0983 22.7147 73.3817 22.9085Z" fill="white"/>
<path d="M100.641 18.444C100.776 18.679 100.858 18.9433 100.976 19.1841C101.158 19.5483 101.88 20.4764 102.186 20.1944C102.491 19.9125 101.416 19.331 101.205 18.397C101.058 17.7685 100.541 17.4337 100.03 17.0284C98.8846 16.1239 96.6526 14.1855 96.353 14.5379C96.1357 14.7964 97.1342 15.4954 97.3633 15.6833C97.9507 16.1708 98.5968 16.6173 99.2136 17.0754C99.7858 17.419 100.274 17.8867 100.641 18.444Z" fill="white"/>
<path d="M51.2848 17.6973C51.0784 17.8047 50.8953 17.9518 50.7461 18.1303C50.5969 18.3087 50.4845 18.5149 50.4154 18.737C50.3439 18.9471 50.2409 19.1451 50.11 19.3244C49.9396 19.5887 49.8104 19.8002 49.8457 19.9646C49.863 20.0259 49.9029 20.0783 49.9573 20.1115C49.9993 20.1385 50.0483 20.1528 50.0982 20.1526C50.3684 20.1526 50.5505 19.7473 50.7444 19.3185C50.8031 19.1893 50.8618 19.0659 50.9206 18.9602C51.09 18.5741 51.3836 18.2558 51.7547 18.0556C52.1952 17.7737 52.6064 17.4683 53.0117 17.1511C53.5509 16.7113 54.1267 16.3183 54.7327 15.9763L54.8678 15.9058C55.602 15.5358 55.8017 15.3831 55.7665 15.2245C55.7312 15.0659 55.5374 15.0894 55.4375 15.0894C54.77 15.2246 54.1512 15.5371 53.646 15.9939C53.4169 16.1643 53.2055 16.3581 52.9999 16.5402C52.7694 16.7531 52.524 16.9494 52.2657 17.1276C51.9503 17.3368 51.6227 17.527 51.2848 17.6973Z" fill="white"/>
<path d="M34.4789 30.7377C33.7646 31.355 33.0026 31.9148 32.1999 32.4117C31.3599 32.8934 29.5625 36.2414 29.3628 36.5234C29.1631 36.8053 28.2585 37.8156 28.6638 37.8802C29.6271 38.0153 31.2777 34.726 31.4187 34.5204C31.838 33.9097 32.3608 33.377 32.9635 32.9462C33.451 32.6232 34.7726 31.9183 35.0957 31.1841C35.1271 31.103 35.1308 31.0137 35.1062 30.9303C35.0816 30.8469 35.03 30.7739 34.9595 30.7229C34.889 30.6719 34.8037 30.6457 34.7167 30.6484C34.6297 30.651 34.5461 30.6824 34.4789 30.7377Z" fill="white"/>
<path d="M58.2505 25.1343C58.6088 25.3341 59.6191 26.8965 60.0479 26.5793C60.8996 25.9567 56.6293 23.2606 56.5236 23.9655C56.4414 24.4001 57.2226 24.4236 57.5456 24.7114C57.7616 24.8818 57.9985 25.024 58.2505 25.1343Z" fill="white"/>
<path d="M101.671 25.0402C102.211 25.3163 104.749 27.0432 104.755 27.0432C105.454 27.3838 106.899 27.5424 107.944 28.2179C108.424 28.4876 108.799 28.9121 109.007 29.422C109.21 29.8421 109.463 30.2365 109.759 30.5968C109.976 30.9022 110.458 31.5954 110.675 31.9184C111.022 32.4236 111.363 32.9405 111.692 33.4632C112.021 33.986 113.184 34.7731 113.536 35.1725C113.81 35.468 114.111 35.7374 114.435 35.9772C114.475 36.0087 114.525 36.025 114.576 36.0231C114.628 36.0212 114.677 36.0012 114.714 35.9668C114.752 35.9324 114.777 35.8857 114.784 35.8349C114.791 35.7842 114.779 35.7326 114.752 35.6894C114.37 35.102 112.814 33.5924 112.661 33.3399C112.348 32.7747 111.995 32.2329 111.604 31.7187C111.263 31.2547 110.899 30.8024 110.54 30.3501C110.288 29.7655 109.994 29.2001 109.659 28.6584C109.489 28.5175 109.354 28.3354 109.184 28.1944C108.745 27.8657 108.275 27.5823 107.78 27.3486C107.157 27.0627 106.505 26.8461 105.835 26.7025C105.444 26.6299 105.071 26.4759 104.743 26.2502C103.609 25.469 101.865 24.3882 101.706 24.306C101.013 23.9535 99.7795 22.6025 99.3919 23.1312C99.2274 23.4014 100.948 24.6701 101.671 25.0402Z" fill="white"/>
<path d="M53.6927 32.2533C54.1274 31.9478 53.2874 30.7261 53.1523 30.4265C52.9115 29.9037 52.841 29.1401 52.4357 28.7466C51.9092 28.3662 51.309 28.1001 50.6736 27.9654C50.4297 27.8909 50.1802 27.8359 49.9276 27.8009C49.4959 27.7388 49.0982 27.5317 48.7998 27.2135C48.0186 26.3677 46.744 25.4514 46.3446 25.6981C45.7102 26.0916 46.5619 26.3971 46.8556 26.5028C47.443 26.7084 48.5179 27.6776 49.2051 28.1357C49.2796 28.1904 49.3605 28.2358 49.446 28.2708C49.8278 28.447 50.3858 28.5997 50.5267 28.6526C51.1091 28.771 51.6288 29.0966 51.9893 29.5689C52.3418 30.1798 53.2228 32.5822 53.6927 32.2533Z" fill="white"/>
<path d="M19.3245 36.7231C19.8003 36.4881 20.1939 36.1357 20.6638 35.8772C20.9266 35.7876 21.1955 35.7169 21.4685 35.6658C21.6268 35.5948 21.7765 35.5061 21.9149 35.4015C23.0622 34.7827 24.1277 34.023 25.0867 33.14C25.6021 32.6726 26.1518 32.2445 26.7314 31.8596C27.2194 31.6168 27.672 31.3085 28.0765 30.9432C28.8577 30.1092 29.8798 29.6275 30.6962 28.8052C31.5127 27.9828 32.2587 26.8962 33.0751 25.974C33.4627 25.4816 34.0048 25.134 34.6141 24.9872C34.9313 24.8756 35.2719 24.6876 35.6185 24.5408C35.965 24.3939 36.3703 24.5878 36.2646 24.9696C36.153 25.3237 35.928 25.6312 35.6244 25.8448C35.153 26.103 34.7345 26.4477 34.3909 26.8609C34.0795 27.2134 34.2029 27.6422 34.103 28.0768C33.9679 28.6642 33.6038 29.1752 33.7976 29.8037C34.4202 29.9564 34.4966 29.0812 34.6082 28.6818C34.7668 28.0944 34.7844 27.7244 35.2954 27.3896C35.8064 27.0548 36.4173 25.9857 36.9695 25.2574C37.4281 24.8312 37.9169 24.4386 38.432 24.0826C38.6336 23.9732 38.8194 23.8369 38.9842 23.6773C39.1721 23.4248 39.0488 23.2662 39.1604 23.0371C39.4177 22.6582 39.7003 22.2971 40.0062 21.9563C40.1472 21.7507 40.2294 21.4453 40.3528 21.2749C40.5443 21.0516 40.7858 20.8766 41.0576 20.7639C41.7038 20.4174 42.4086 20.2412 42.8903 19.6538C43.2779 19.1897 43.4307 18.5319 44.065 18.4438C44.8531 18.4674 45.6129 18.7432 46.2325 19.2309C46.9526 19.7659 47.7432 20.1988 48.582 20.5172C51.0137 21.2926 52.5468 22.3968 54.309 22.902C54.8963 23.0723 55.8244 23.3308 56.4294 23.4483C56.9287 23.5422 57.4279 23.4483 57.9331 23.554C59.1548 23.7537 60.0712 25.0107 61.1813 25.5452C61.5631 25.7332 61.7158 25.6274 61.663 26.0621C61.5741 26.3273 61.4344 26.5727 61.2518 26.7846C60.9346 27.2369 60.5528 27.6304 60.2239 28.0709C59.5308 27.2134 58.2914 26.7082 57.3575 26.1443C56.4235 25.5804 55.7774 24.9285 54.9668 24.3822C54.1562 23.8359 52.7994 23.6656 52.0299 23.0253C50.1268 21.4981 48.3 20.7228 50.0681 22.1736C50.5732 22.5907 50.908 22.9666 51.3368 23.3073C52.209 23.8641 53.1409 24.3212 54.1151 24.67C54.9257 25.0694 55.1724 26.115 55.9243 26.4321C56.2002 26.5147 56.4693 26.6188 56.729 26.7435C57.1284 26.9784 57.5689 27.0959 57.9742 27.3308C58.4655 27.5557 58.8904 27.9037 59.2077 28.3411C59.4192 28.7053 59.4897 29.1224 59.7305 29.4865C59.9713 29.8507 60.3179 30.1914 60.5881 30.5967C60.7681 30.9875 60.9803 31.3628 61.2224 31.7186C61.8304 32.2615 62.5031 32.7271 63.2254 33.1048C63.6894 33.4161 66.6616 35.3134 66.7497 34.7025C66.7908 34.491 65.4163 33.9917 65.2695 33.8332C65.1226 33.6746 64.7408 33.4102 64.6175 33.2751C64.3287 32.9417 63.9723 32.6734 63.572 32.4881C62.9846 32.212 62.4677 32.2883 62.0624 31.7068C61.8773 31.4313 61.7124 31.1427 61.569 30.8434C61.5396 30.7864 61.5285 30.7217 61.5373 30.6582C61.546 30.5947 61.5742 30.5354 61.6179 30.4885C61.6616 30.4416 61.7187 30.4093 61.7814 30.3961C61.8442 30.3828 61.9095 30.3893 61.9684 30.4146C62.4089 30.6026 62.8495 30.7905 63.3135 30.9374C63.9955 31.0677 64.6495 31.3162 65.246 31.6716C65.7746 32.1004 65.9215 32.8464 66.4501 33.281C67.1197 33.8684 67.6777 33.7568 67.296 33.0461C67.1139 32.7171 66.8437 32.5292 66.7086 32.2237C66.699 32.2018 66.6964 32.1774 66.7011 32.1539C66.7058 32.1304 66.7176 32.1089 66.7348 32.0923C66.7521 32.0757 66.774 32.0647 66.7977 32.0609C66.8213 32.0571 66.8456 32.0606 66.8672 32.071C67.5108 32.337 68.1747 32.5511 68.8525 32.7113C69.6102 32.9462 70.2505 33.3867 70.9788 33.6863C71.6769 33.8838 72.3308 34.2127 72.9054 34.6555C73.5112 35.1376 74.1469 35.581 74.8086 35.983C75.0724 36.1293 75.3204 36.3025 75.5487 36.4999C75.6469 36.5729 75.741 36.6514 75.8306 36.7348C76.098 36.9926 76.3825 37.2321 76.6823 37.4514L78.1214 38.7143C78.2501 38.8128 78.3989 38.8817 78.5573 38.9162C78.7157 38.9508 78.8797 38.95 79.0377 38.914C79.8291 38.5627 80.508 37.9997 80.9995 37.287C81.0877 37.1519 81.91 36.2767 82.0862 36.1122C82.639 35.7332 83.2295 35.4123 83.8484 35.1548C84.1655 34.9727 85.0877 34.4323 84.3946 34.1562C83.9247 33.9683 83.1787 34.5909 82.7676 34.8023C82.2224 35.0146 81.7266 35.3365 81.3109 35.748C80.8233 36.3354 80.6765 37.0931 79.8953 37.3339C79.482 37.4991 79.0581 37.6365 78.6265 37.7451C78.5127 37.7561 78.3979 37.7418 78.2902 37.7032C78.1826 37.6646 78.0848 37.6027 78.0039 37.5219C77.7337 37.2223 76.6823 36.3178 76.8292 36.0123C77.07 35.4661 78.0979 34.9492 78.4386 34.4969C78.6853 34.168 78.697 34.0446 79.026 33.8566C79.4604 33.6888 79.9143 33.5763 80.3769 33.5218C80.6354 33.4631 82.3153 33.0167 83.1846 32.676C83.772 32.4352 83.5312 33.1224 82.0862 33.5923C81.5282 33.7744 81.211 34.3853 80.7822 34.7671C80.1642 35.3053 79.4976 35.7851 78.791 36.2003C78.4033 36.4411 77.9217 37.1284 78.7323 37.1166C79.1317 37.1166 79.7543 36.5292 80.1009 36.3237C80.6633 36.0068 81.1776 35.6113 81.6281 35.1489C82.0518 34.6981 82.5315 34.3033 83.0554 33.9741C83.537 33.6981 83.9952 33.6511 84.1832 33.1048C84.3711 32.5585 84.3006 32.3941 84.8645 32.0416C85.3017 31.7688 85.6974 31.4345 86.0393 31.049C86.3036 30.7788 87.1847 30.6495 87.3198 30.4205C87.5312 30.0328 86.9908 29.8331 86.6737 29.8331C86.0863 29.7802 85.7867 30.1679 85.4049 30.5145C84.9919 30.8425 84.5561 31.1409 84.1009 31.4073C83.7769 31.6274 83.4303 31.8125 83.0671 31.9594C81.7866 32.4176 79.2315 32.8405 77.9569 33.8449C77.4811 34.2267 77.1346 35.0843 76.559 35.3603C76.1125 35.5718 75.5428 35.1254 75.0964 34.773C75.0496 34.7344 75.0119 34.6859 74.9861 34.6311C74.9602 34.5763 74.9468 34.5164 74.9468 34.4558C74.9468 34.3952 74.9602 34.3353 74.9861 34.2804C75.0119 34.2256 75.0496 34.1772 75.0964 34.1386C75.6623 33.6897 76.2701 33.2963 76.9114 32.9638C77.5399 32.6173 78.421 32.8405 78.979 32.4058C79.2668 32.1826 79.4136 31.8184 79.7308 31.6011C80.048 31.3838 80.5003 31.1253 80.9056 30.8728C81.5705 30.4825 82.2917 30.1972 83.0436 30.0269C83.2157 29.9728 83.4002 29.9728 83.5723 30.0269C83.7157 30.0519 83.8614 30.0617 84.007 30.0563C84.4181 29.9976 84.6413 29.6216 84.8939 29.3573C85.2372 28.9678 85.6633 28.6602 86.141 28.4569C86.6187 28.2536 87.1359 28.1599 87.6546 28.1825C88.148 28.3162 88.622 28.5136 89.0643 28.7699C89.7398 29.0558 90.3987 29.3793 91.0379 29.7391C91.2963 29.8801 93.1466 30.9139 93.3874 31.1077C96.2656 33.1694 96.5299 33.7685 100.865 35.4191C102.204 35.9301 103.802 37.0872 104.131 36.9169C104.377 36.7994 103.99 36.1709 103.514 36.0065C103.391 35.9595 99.0498 33.7627 98.4389 33.5395C97.9807 33.375 95.4198 31.5012 95.2201 31.3896C94.7234 31.1052 94.243 30.7934 93.781 30.4557C92.8595 29.7961 91.8895 29.207 90.8793 28.6936C90.1157 28.3588 89.3286 27.9006 88.8293 27.6774C88.5366 27.4862 88.2049 27.3627 87.8584 27.3159C87.5119 27.2692 87.1593 27.3004 86.8264 27.4072C86.2769 27.5695 85.7572 27.8194 85.2874 28.1473C84.841 28.488 84.4651 28.9226 84.0128 29.2633C83.4666 29.6804 83.1611 29.5923 82.5091 29.6099C82.1097 29.6099 81.2228 30.1033 81.2228 29.9506C81.2228 29.651 82.3447 28.9461 82.5737 28.8345C82.9922 28.6722 83.3766 28.4331 83.7074 28.1297C83.9928 27.6393 84.214 27.1141 84.3652 26.5672C84.6002 26.0445 85.8455 24.4174 85.2111 24.0121C84.7177 23.695 84.6237 24.3176 84.4181 24.6876C84.142 25.1987 83.8307 25.7038 83.5723 26.2148C83.3953 26.7067 83.1307 27.1625 82.7911 27.5599C82.3619 27.7893 81.8899 27.9273 81.4048 27.9652C80.6589 28.1297 79.5076 28.2472 78.8967 28.4586C77.8455 28.8059 76.8719 29.3545 76.0303 30.0739C75.7425 30.4087 75.4018 30.6965 75.1199 31.0431C74.9961 31.1677 74.8948 31.3128 74.8203 31.4719C74.8005 31.5527 74.8086 31.6378 74.8431 31.7134C74.8777 31.7891 74.9367 31.8509 75.0107 31.8889C75.0846 31.9269 75.1693 31.9389 75.2509 31.9229C75.3325 31.9069 75.4064 31.8639 75.4606 31.8008C75.8457 31.311 76.2679 30.8515 76.7234 30.4263C77.3427 29.8735 78.0572 29.4377 78.8321 29.14C79.2727 29.0166 79.8894 29.0989 80.1185 29.0049C80.189 29.0049 82.0451 28.2354 81.3461 28.8052C80.5143 29.4763 79.7876 30.2683 79.1904 31.1547C78.791 31.4601 78.6618 31.7068 78.1625 31.8654C77.6632 32.024 77.2344 31.8654 76.7998 32.0593C75.9872 32.4324 75.2365 32.9276 74.5736 33.5277C73.6397 34.4088 72.6 33.4102 71.6719 32.9403C70.9612 32.5585 71.3371 32.4293 71.3665 31.6775C71.484 29.0519 73.2637 29.8566 75.161 28.4234C75.4429 28.2119 75.8188 27.836 75.2902 27.6363C75.0318 27.5423 74.462 28.1884 74.1566 28.3294C73.5959 28.6145 73.0047 28.8352 72.3944 28.9873C72.0009 29.0871 71.4605 29.2046 71.2197 29.5746C70.8379 30.2208 70.9318 32.0945 70.0449 32.3295C69.4928 32.4704 68.7468 31.8537 68.2828 31.701C67.6954 31.513 67.108 31.701 66.5206 31.3955C65.8216 31.0372 65.7042 30.6437 64.5118 30.5849C64.0577 30.5452 63.6183 30.4047 63.2254 30.1738C63.0492 30.0798 62.5323 30.021 62.3267 29.8155C62.0213 29.4983 62.0741 29.5746 62.5147 29.2868C63.0492 28.9344 63.8656 28.7288 64.3121 28.2707C64.7585 27.8125 64.7408 27.1781 64.9993 26.6965C65.3282 26.1091 65.9274 25.833 66.2974 25.2926C66.8848 24.4409 65.2166 25.2104 64.964 25.3866C64.2357 25.8918 63.942 27.1488 63.3253 27.8066C62.9846 28.1767 61.3105 29.3044 61.011 29.1811C60.4647 28.9638 60.8465 28.5937 61.0756 28.3881C61.405 28.0652 61.6666 27.6798 61.8451 27.2545C62.3118 26.482 62.9852 25.8553 63.7893 25.4454C64.2063 25.1928 64.4354 24.7581 64.8172 24.4527C65.199 24.1472 65.6337 24.0063 65.992 23.7185C66.1858 23.5657 66.2798 23.2897 66.4619 23.1311C66.7705 22.955 67.1091 22.8375 67.4604 22.7845C68.4355 22.4967 70.6499 22.1443 71.4781 21.5216C72.1653 21.0047 72.5706 20.2529 73.3225 19.8124C73.7498 19.496 74.2181 19.2391 74.7146 19.0488C75.1551 18.9313 76.8468 18.5495 77.1581 18.4144C77.3402 18.3322 79.4195 17.0987 79.5076 17.4628C79.5722 17.7095 79.302 18.0502 79.1963 18.2676C79.0491 18.5193 78.8821 18.7589 78.697 18.9842C77.9217 19.7125 77.0935 20.7463 77.3049 20.899C77.5164 21.0517 78.3387 20.4761 79.0318 19.5892C79.7259 18.9654 80.2564 18.1808 80.5766 17.3042C80.8879 16.7169 81.1288 16.5994 81.957 16.1295C82.4722 15.8556 83.0185 15.6446 83.584 15.501C85.2581 15.0428 87.1847 13.2102 86.844 13.0046C86.5033 12.799 84.7294 14.2792 84.0187 14.5024C83.7395 14.6019 83.4527 14.6785 83.1611 14.7315C82.4637 14.8574 81.7912 15.0954 81.1699 15.4364C80.8527 15.5832 80.0715 16.0238 79.584 16.2587C78.5074 16.8337 77.3881 17.3247 76.2359 17.7272C75.4743 17.8951 74.7292 18.131 74.0097 18.432C73.2424 18.7812 72.5409 19.2601 71.9363 19.8476C71.296 20.5525 71.0963 21.0635 68.829 21.6098C68.2416 21.7449 67.6543 21.9269 67.1256 22.109C66.8026 22.2148 65.4633 22.9079 67.014 21.786C67.431 21.4864 68.5882 20.6817 68.7057 20.1765C68.8421 19.758 69.0401 19.3621 69.293 19.0018C70.1859 18.3087 70.9788 17.3454 71.9656 16.7991C72.4238 16.5465 74.509 13.9914 74.7968 13.827C75.2996 13.5885 75.7744 13.295 76.2124 12.9518C76.525 12.5667 76.8819 12.2197 77.2756 11.918C78.1919 11.3776 78.9085 10.5964 79.9951 10.426C80.312 10.397 80.6175 10.2929 80.8861 10.1223C81.1548 9.9517 81.3789 9.71955 81.54 9.44509C81.8043 8.96344 82.2037 8.65212 82.4621 8.15285C82.8087 7.47149 83.1435 7.39513 83.8307 7.10144C84.3865 6.84187 84.8994 6.49922 85.3521 6.08527C86.333 5.28643 86.7618 5.7857 87.9659 5.70347C89.3345 5.60362 90.2626 6.87823 91.5254 7.25416C91.9951 7.34745 92.4484 7.50976 92.8705 7.73581C93.341 8.0227 93.7959 8.33445 94.2333 8.66975C94.7156 9.00689 95.2178 9.31484 95.737 9.59193C96.1652 9.91239 96.5606 10.2744 96.9176 10.6727C97.969 11.5244 98.9676 12.7873 100.084 13.5685C100.636 13.962 101.258 14.2322 101.805 14.6317C102.061 14.8119 102.29 15.0275 102.486 15.2719C103.279 16.2881 105.705 19.2778 105.969 19.595C106.233 19.9122 107.949 22.4027 108.466 23.1839C108.982 23.9652 110.075 24.3587 110.762 24.9461C111.185 25.3396 113 27.1546 113.17 26.3617C113.241 26.021 111.761 25.3984 110.656 24.3058C109.824 23.5406 109.039 22.7245 108.307 21.8623C107.532 20.6876 107.068 19.1956 104.971 17.1633C104.695 16.8931 104.442 16.1647 104.794 16.3116C104.95 16.3741 105.096 16.4571 105.229 16.5583C107.778 18.5612 109.505 18.6552 110.868 19.1839C111.762 19.4669 112.628 19.8285 113.458 20.2646C113.899 20.5642 116.002 22.1678 116.489 22.3557C117.341 22.6905 117.452 23.7478 118.034 23.5305C118.615 23.3132 113.241 19.3248 112.748 19.0664C112.08 18.6496 111.367 18.3125 110.621 18.062C109.726 17.8988 108.841 17.681 107.972 17.41C107.702 17.2984 106.21 16.2705 105.952 16.1295C105.493 15.8471 104.997 15.6315 104.477 15.4892C104.236 15.4892 102.415 13.8739 101.887 13.4569C101.64 13.2572 98.1746 11.0193 97.599 10.3732C97.349 10.002 97.0417 9.6729 96.6885 9.3981L95.361 8.48766C94.5183 7.86837 93.6396 7.29957 92.7296 6.78425C91.9248 6.36721 90.8558 6.28498 90.1275 5.6976C89.8264 5.37129 89.4459 5.12847 89.0232 4.99274C88.5679 4.86696 88.1018 4.78436 87.6311 4.74604C86.7153 4.63651 85.7873 4.79355 84.9585 5.19832C84.236 5.64473 83.6075 6.08527 82.9144 6.57867C82.4269 6.92522 81.352 7.67707 80.7294 7.38338C80.3182 7.18954 79.9834 6.38483 79.7367 6.02653C79.4972 5.66278 79.1949 5.34455 78.8439 5.08672C78.1045 4.67631 77.3146 4.36431 76.4943 4.15866C75.996 3.9402 75.4632 3.81097 74.9202 3.77686C74.5793 3.76404 74.2552 3.62602 74.0097 3.38919C73.5457 2.90754 73.1756 2.21443 72.5706 1.88549C71.657 1.45171 70.7174 1.07506 69.7571 0.757722C68.8819 0.422914 68.1359 0 67.1374 0C66.6578 0.00564876 66.1859 0.121402 65.7582 0.338327C65.3304 0.555252 64.9583 0.86755 64.6704 1.25112C64.3087 1.75215 63.854 2.1789 63.3311 2.50812C61.5396 3.77753 59.9223 5.27638 58.5205 6.96634C57.4882 8.30782 56.3232 9.5417 55.0432 10.6492C54.726 10.9135 54.2032 11.2366 54.0681 11.3365C52.888 12.1589 51.6093 12.8299 50.2619 13.3336C49.7335 13.4565 49.2484 13.7204 48.8581 14.0971C48.6642 14.3732 48.6583 14.7433 48.4645 15.037C48.2436 15.3176 47.9891 15.5701 47.7068 15.7888C47.1781 16.247 46.532 16.5641 46.0328 17.0458C45.5335 17.5275 45.4806 17.7859 44.7346 17.5392C43.7243 17.2044 43.1076 17.7213 42.5026 18.4908C42.0444 19.0781 42.1913 19.2661 41.4512 19.595C40.9637 19.8124 40.3469 19.971 40.0591 20.4585C39.8829 20.7522 39.8946 21.0459 39.6362 21.3102C39.3777 21.5745 39.2015 21.5275 39.0488 21.6861C38.6729 22.0268 38.7551 22.6553 38.3616 22.9725C37.968 23.2897 36.9988 23.272 36.4761 23.4248C35.8182 23.6245 35.1721 23.8888 34.5201 24.1179C33.8529 24.3369 33.2484 24.7137 32.7579 25.2163C32.3644 25.6333 31.9356 26.0269 31.5832 26.4674C31.2779 26.9176 30.9484 27.3509 30.5964 27.7655C30.1617 28.1884 29.8034 28.6936 29.3394 29.0812C28.8754 29.4689 28.2645 29.7685 27.8004 30.2208C27.3994 30.5861 26.9485 30.8927 26.4612 31.1312C25.8961 31.4543 25.3614 31.8279 24.8635 32.2472C24.4522 32.6897 24.0168 33.1093 23.5596 33.5042C22.3752 34.2863 21.1276 34.9681 19.8297 35.5424C19.536 35.6834 17.9618 36.2943 17.9266 36.6115C17.8913 36.9287 19.0543 36.8523 19.3245 36.7231ZM55.4485 11.4128C57.5102 9.74465 58.5792 7.88853 59.9243 6.57867C60.3766 6.14401 60.8641 5.73284 61.3105 5.28643C61.623 4.90415 61.9564 4.53942 62.3091 4.1939C62.8845 3.84742 63.4306 3.45453 63.942 3.01914C64.3356 2.57273 64.3297 2.59035 64.3355 2.59035C64.5881 2.54336 64.1006 3.44793 63.9831 3.57715C63.7188 3.86497 63.6953 4.16453 63.3957 4.42298C63.196 4.61094 63.1725 4.89876 62.8965 5.23944C62.4546 6.19754 62.0625 7.17782 61.7217 8.17634C61.6557 8.34364 61.5751 8.50481 61.4809 8.658C61.226 8.93453 60.9013 9.13741 60.5411 9.24538C60.4236 9.29237 60.3061 9.33936 60.2004 9.39222C59.0256 9.93849 58.4382 10.6551 57.7569 11.8827L57.7099 11.965L57.7921 12.0119C57.8341 12.039 57.8831 12.0533 57.9331 12.0531C58.2033 12.0531 58.4089 11.6536 58.591 11.3012C58.6325 11.2122 58.6796 11.1259 58.7319 11.0428C58.9249 10.7402 59.1695 10.4738 59.4544 10.2557C59.8197 10.0111 60.2144 9.81375 60.6292 9.66829C60.9862 9.53808 61.3303 9.37487 61.6571 9.18077C61.9398 8.99614 62.1479 8.71726 62.2445 8.39368L62.3267 8.12348C62.4324 7.78867 62.8554 6.55517 63.1079 5.73871C63.2047 5.41954 63.39 5.13438 63.6424 4.91638C63.9062 4.69089 64.1375 4.42997 64.3297 4.14104C64.474 3.83703 64.6731 3.56224 64.9171 3.33045C65.1638 3.04851 65.8392 1.3451 66.0918 1.16301C66.4736 0.916315 67.1197 0.229079 67.854 0.640245C68.2416 0.851703 68.4413 1.22763 68.9289 1.22763C69.5867 1.22763 70.6147 1.26874 70.2975 1.75627C69.9803 2.2438 69.0875 2.16744 69.2402 2.45525C69.3929 2.74307 70.4149 2.25554 70.6558 2.11457C71.2432 1.74452 71.7131 2.00297 72.3063 2.30841C72.8331 2.63276 73.2711 3.08285 73.5809 3.61827C73.8452 3.98244 74.2094 4.9575 74.8321 4.92225C74.9613 4.92225 74.8321 4.76366 74.8732 4.64031C74.9378 4.27026 76.2594 5.22769 77.1052 5.12784C77.738 5.23958 78.3275 5.52419 78.8086 5.95017C79.3079 6.53755 80.1479 7.19542 80.3123 7.98838C80.4122 8.48178 80.4357 8.57576 80.2418 8.92819C80.048 9.28062 80.0186 9.51557 79.1082 9.89737C79.045 9.92258 78.975 9.92461 78.9105 9.90311C78.846 9.8816 78.7912 9.83795 78.7558 9.7799C78.5208 9.36873 78.2036 8.73436 77.8923 8.08236C77.581 7.43037 77.6339 7.29527 76.7175 6.74313L76.6353 6.69027C75.9303 6.23119 75.1781 5.84915 74.3915 5.55075C74.3632 5.54852 74.3349 5.55527 74.3107 5.57003C74.2864 5.58479 74.2674 5.60682 74.2564 5.63299C74.1448 5.95017 74.5031 6.14401 74.7909 6.29673L74.9613 6.39658C75.1383 6.4977 75.3253 6.58037 75.5193 6.64328C75.6603 6.70202 75.813 6.75488 75.9363 6.81949C76.2869 7.01902 76.6243 7.24072 76.9466 7.48324C77.0054 7.53023 77.0759 7.56547 77.1228 7.61246C77.6157 8.28522 77.9782 9.04425 78.1919 9.85038C78.2271 10.0736 78.3093 10.2439 78.1449 10.4378C77.7045 10.8282 77.2374 11.1873 76.7469 11.5127C76.4591 11.7711 76.1595 12.0119 75.8365 12.2469C75.7751 12.2944 75.7018 12.3241 75.6247 12.3327C75.5476 12.3413 75.4696 12.3286 75.3992 12.2958C75.3288 12.2631 75.2688 12.2116 75.2258 12.147C75.1827 12.0824 75.1583 12.0073 75.1551 11.9297C75.151 11.7103 75.1072 11.4933 75.0259 11.2895C74.8027 10.8548 73.6514 9.78577 73.6103 10.0325C73.5281 10.5494 74.0038 10.5024 74.4796 11.3071C74.6262 11.6811 74.6981 12.0802 74.6911 12.4818C74.7498 13.451 73.2872 14.2087 73.0699 14.15C72.741 14.0619 72.7938 12.1294 73.0112 11.5068C73.111 11.219 73.2872 11.0604 73.2637 10.6903C73.2524 10.4692 73.2524 10.2477 73.2637 10.0266C73.3027 9.63493 73.2889 9.23981 73.2226 8.85183C73.0635 8.41572 72.7556 8.04967 72.3533 7.81804C72.203 7.71195 72.0598 7.59618 71.9245 7.47149C71.6788 7.20769 71.4801 6.90372 71.3371 6.57279C71.1785 6.25561 71.0552 5.98541 70.8144 5.98541C70.7738 5.98261 70.7334 5.99395 70.7002 6.01751C70.667 6.04106 70.643 6.07538 70.6323 6.11464C70.5148 6.45532 71.2197 7.45974 72.6 8.46416C72.9583 8.73436 72.8937 10.1265 72.788 10.6375C72.706 10.8957 72.5916 11.1424 72.4473 11.3717C72.2064 12.1949 72.1051 13.0526 72.1477 13.9092C72.2041 14.1562 72.2016 14.4131 72.1404 14.659C72.0792 14.9049 71.961 15.133 71.7953 15.3248L70.1389 17.0341C70.0839 17.0865 70.0162 17.1239 69.9425 17.1425C69.8688 17.1611 69.7915 17.1603 69.7182 17.1402C69.6449 17.1201 69.578 17.0814 69.5241 17.0278C69.4702 16.9742 69.4311 16.9075 69.4105 16.8343C69.3002 16.3606 69.1008 15.9121 68.8231 15.5127C68.4684 15.1327 68.1406 14.7284 67.8422 14.3027C67.7071 14.0443 67.8011 13.8974 67.5896 13.686C67.3782 13.4745 67.202 13.4158 67.1902 13.686C67.1902 14.2322 67.8363 15.1955 68.1535 15.5715C68.5643 16.0521 68.8382 16.6344 68.9465 17.2573C69.0415 17.5707 69.0519 17.9037 68.9766 18.2225C68.9013 18.5413 68.743 18.8345 68.5177 19.0723C68.2864 19.3022 68.0687 19.5454 67.8657 19.8006C67.7741 20.0473 67.6641 20.2869 67.5368 20.5172C67.1432 21.0165 66.5147 21.3865 66.0801 21.8682C65.9215 22.0385 65.1579 22.7551 64.7937 23.2309C64.7044 23.3468 64.5973 23.4479 64.4765 23.5305C64.1887 23.7243 63.9244 23.9417 63.6248 24.1179C63.3971 24.2357 63.1756 24.3651 62.9611 24.5055C62.7555 24.67 62.6615 24.9108 62.4794 25.0929C62.3123 25.2473 62.0931 25.3331 61.8656 25.3331C61.6381 25.3331 61.4189 25.2473 61.2518 25.0929C60.776 24.6935 60.3237 24.2236 59.8068 23.8418C59.3552 23.5304 58.8657 23.2777 58.3501 23.09C58.308 23.0727 58.2707 23.0454 58.2415 23.0106C58.2122 22.9758 58.1917 22.9344 58.1819 22.8899C58.1721 22.8455 58.1732 22.7993 58.1851 22.7554C58.197 22.7115 58.2194 22.6711 58.2503 22.6377C59.0844 21.7155 60.1064 20.9225 60.7819 19.8946C61.5337 18.7668 61.4809 17.5451 62.1799 16.3703C62.5721 15.8604 62.9917 15.3722 63.4369 14.9077C63.5191 14.8167 63.5819 14.7099 63.6213 14.5937C63.6607 14.4775 63.6759 14.3545 63.6659 14.2322C63.6013 13.8857 63.2665 14.2322 63.1667 14.3204C62.9082 14.4966 62.7085 14.9077 62.4912 15.1368C62.2592 15.3521 62.054 15.5947 61.8803 15.8593C61.5185 16.4495 61.223 17.0779 60.9992 17.733C60.8751 18.3852 60.6533 19.0149 60.3414 19.6009C59.8899 20.1452 59.3775 20.6359 58.8142 21.0635C58.3208 21.5099 58.1915 22.062 57.6746 22.4673C57.1578 22.8726 56.5762 22.7845 55.9125 22.5966C54.6731 22.25 53.563 21.6626 52.3001 21.2514C51.2076 20.8814 50.1444 20.4996 49.0401 20.1413C48.5323 19.8934 48.0634 19.5729 47.6481 19.1897C47.6169 19.1591 47.5933 19.1217 47.5791 19.0805C47.5649 19.0392 47.5605 18.9952 47.5662 18.9519C47.5719 18.9086 47.5875 18.8673 47.6119 18.8311C47.6363 18.7949 47.6688 18.7648 47.7068 18.7433C48.3031 18.2819 48.8502 17.7603 49.3397 17.1868C49.9459 16.7182 50.4345 16.1149 50.767 15.4246C51.1731 14.6626 51.7526 14.0067 52.4587 13.5098C52.817 13.1691 55.0784 11.7476 55.4485 11.4128ZM47.6128 16.5465C48.2567 16.1802 48.7809 15.6356 49.1224 14.9782C49.2316 14.6688 49.416 14.3915 49.659 14.171C49.902 13.9506 50.196 13.794 50.5145 13.7153C50.8787 13.5626 52.676 12.6111 52.5586 12.893C52.353 13.3629 51.1723 13.6566 50.6848 14.3438C50.2913 14.9019 50.0974 15.36 49.7098 15.9356C49.1588 16.6709 48.5196 17.3357 47.8066 17.9151C47.2956 18.4203 46.72 18.9548 46.2736 18.1383C45.9035 17.5098 47.1488 16.8755 47.6128 16.5465Z" fill="white"/>
<path d="M120.295 27.2955C120.512 27.8829 121.064 28.1766 121.616 28.5114C122.169 28.8462 123.155 29.4865 123.966 29.9505C124.582 30.4713 125.247 30.9316 125.951 31.325C126.539 31.5247 127.614 32.5291 128.301 32.9579C128.378 33.0082 128.458 33.0533 128.542 33.093C128.923 33.2692 129.481 33.4219 129.622 33.4748C130.204 33.5906 130.724 33.9143 131.085 34.3852C131.479 35.0137 132.36 37.4161 132.847 37.0872C133.335 36.7583 132.847 35.56 132.7 35.2604C132.415 34.6444 132.035 34.0774 131.573 33.5805C131.195 33.2095 130.731 32.939 130.222 32.7934C129.85 32.5688 129.456 32.3818 129.047 32.2354C128.35 32.0124 127.703 31.6552 127.144 31.184C126.075 30.0974 125.646 30.068 123.443 28.9167L122.456 28.3705C121.851 28.0982 121.312 27.6973 120.876 27.1957C120.718 26.9725 120.6 26.7258 120.453 26.4967C120.236 26.156 119.402 25.3219 119.132 25.645C118.862 25.9681 119.972 26.3969 120.295 27.2955Z" fill="white"/>
<path d="M150.922 60.1129H149.582C152.161 54.4388 150.017 48.3652 146.969 44.3828C144.361 40.9819 140.184 37.9921 136.731 38.973C136.122 39.1571 135.561 39.4715 135.086 39.8945C134.611 40.3175 134.234 40.8389 133.982 41.4224C132.613 44.2418 133.048 48.9937 134.264 51.9541C135.479 54.9145 138.816 58.5034 142.651 60.1129H127.691L127.103 58.7854C126.202 56.6643 125.429 54.491 124.789 52.2772C125.412 52.4672 126.059 52.5661 126.71 52.5709C127.414 52.5818 128.113 52.4506 128.765 52.1852C129.417 51.9198 130.008 51.5255 130.504 51.0261C132.407 49.0995 132.531 46.0921 130.816 43.3549C127.955 38.7968 120.284 38.4561 116.812 39.2843L117.764 43.255C117.958 43.208 118.175 43.1728 118.41 43.1376C119.428 48.9438 121.04 54.6302 123.221 60.107H111.738C114.003 58.9199 116.55 58.3716 119.103 58.5211L119.409 54.4505C116.862 54.2907 114.31 54.6607 111.914 55.5372C111.526 54.3213 111.133 52.9703 110.774 51.5547C112.193 51.2543 113.632 51.058 115.08 50.9673L114.786 46.8968C113.155 47.0084 111.533 47.2361 109.934 47.5782C109.73 46.3653 109.599 45.1414 109.541 43.9129C111.367 43.4841 113.318 43.1317 114.898 42.9026L114.31 38.8614C110.95 39.3489 106.41 40.2829 103.737 41.4518L105.376 45.1934L105.517 45.1346C105.956 49.3458 106.87 53.4936 108.243 57.499C107.806 57.813 107.386 58.1503 106.986 58.5093L108.436 60.1246H105.229L104.712 59.1613C103.111 56.041 102.171 52.6235 101.952 49.123L102.68 48.4651L101.834 47.5253C101.723 45.5399 101.723 43.6133 101.729 41.8336V40.3416H97.6169C97.6169 40.8056 97.6169 41.2932 97.6169 41.7925C97.6169 43.4606 97.6169 45.3167 97.7109 47.2668C97.4046 47.4906 97.087 47.6984 96.7593 47.8895C95.966 48.3929 95.0594 48.6898 94.122 48.7529C93.8855 46.0186 93.8169 43.2723 93.9164 40.5296L89.8341 40.3592C89.7281 43.3551 89.8105 46.3547 90.0808 49.3403C90.1159 50.3299 90.5377 51.2662 91.2555 51.9483C91.8356 52.4118 92.5417 52.6902 93.282 52.7471C93.5493 52.7756 93.8179 52.7893 94.0867 52.7882C95.5028 52.7661 96.8951 52.4205 98.1573 51.7779C98.5474 54.6592 99.3754 57.464 100.613 60.0952H88.3245C87.7724 54.5269 87.4845 46.5326 88.3245 41.1287L84.3009 40.5296C83.9471 42.9283 83.7509 45.3476 83.7136 47.772C82.252 47.8411 80.7952 47.9881 79.3493 48.2125C79.455 44.9232 79.5666 42.5032 79.6782 41.117L75.6077 40.788C75.4785 42.4092 75.3493 45.2756 75.2318 49.2404C74.6321 49.4501 74.0439 49.6913 73.4696 49.9629L75.1026 53.3286C75.0556 55.361 75.0086 57.5989 74.9616 60.0248V60.1305H72.1245C72.4652 54.1451 71.2552 45.446 69.822 40.3005L65.2228 41.1992C63.0436 43.6133 61.0054 47.9188 59.537 52.1069C58.8791 52.2772 58.2153 52.4534 57.5399 52.6061L58.3211 55.9777C57.9395 57.3433 57.6375 58.7299 57.4165 60.1305H56.5237L56.3886 59.7487C55.7483 58.151 54.368 49.6105 57.5634 43.161L58.4033 41.4635L55.0141 39.4723L53.9333 40.2476C51.4898 42.0098 49.293 44.747 47.5191 47.3843C47.6307 45.352 47.7952 43.3373 48.1065 41.4165L44.0536 40.788C44.0242 40.9701 44.0007 41.1522 43.9772 41.3284C40.312 45.3109 36.8288 51.4372 34.5791 57.8749L38.4382 59.2083C39.705 55.6246 41.3512 52.1865 43.3487 48.9526L43.2606 51.1024C43.2078 52.5298 43.1549 53.8808 43.0785 55.2141L46.8554 56.3889C47.061 56.0541 47.3312 55.5724 47.666 54.9733C48.9101 52.702 50.2829 50.5035 51.7776 48.3887C51.2085 52.2754 51.3738 56.2344 52.2652 60.06H29.1282C31.002 58.8852 33.0989 56.7413 35.002 52.9703C36.6996 49.5576 36.5292 43.4136 35.5131 41.2227L31.8067 42.932C32.2942 43.9893 32.5057 48.8058 31.3427 51.1553C29.0754 55.7016 26.6789 56.9704 25.4688 57.3228C24.8607 57.5468 24.1896 57.5279 23.5951 57.2699C23.0077 56.9175 22.5378 54.0922 23.3308 51.7662C24.5643 48.1773 29.2633 44.3593 31.3015 44.1772L30.9315 40.1067C26.9314 40.5296 21.04 45.816 19.4423 50.5151C18.5084 53.2405 18.3498 57.8515 20.6171 60.1422H17.1574L17.6449 59.6665C14.2087 56.1422 13.1397 52.7471 12.7932 50.1626C15.3835 49.3403 20.1119 47.2786 22.6553 42.8791L19.131 40.835C17.3101 43.9893 13.6977 45.5341 11.683 46.2037C12.4172 45.0289 13.1926 43.8542 14.0325 42.7499L10.7549 40.3181C7.1778 45.1464 4.68143 50.3036 2.03234 55.7251C1.55069 56.6708 0.434662 59.4374 0 60.806H0.834081C0.872041 60.8479 0.918236 60.8815 0.96978 60.9048C1.02132 60.928 1.07711 60.9404 1.13365 60.9411H13.3512C13.78 61.4638 14.2264 61.9749 14.7139 62.48L16.2998 60.9411H21.7331C22.5822 61.3809 23.5258 61.6067 24.482 61.5989C25.1919 61.5966 25.8979 61.4938 26.579 61.2935C26.9191 61.1976 27.2526 61.0799 27.5775 60.9411H109.224L109.758 61.5285C109.993 61.3111 110.24 61.1173 110.481 60.9411H148.073L148.925 61.4521C149.024 61.2818 149.118 61.1114 149.212 60.9411H150.975C151.029 60.9419 151.083 60.9318 151.134 60.9115C151.184 60.8912 151.23 60.861 151.269 60.8227C151.308 60.7845 151.339 60.7389 151.36 60.6886C151.381 60.6384 151.392 60.5844 151.392 60.5299C151.392 60.4704 151.38 60.4115 151.356 60.3571C151.331 60.3027 151.296 60.2541 151.251 60.2146C151.207 60.1751 151.154 60.1456 151.098 60.128C151.041 60.1105 150.981 60.1053 150.922 60.1129ZM127.356 45.5341C128.026 46.6031 128.12 47.631 127.603 48.1597C127.086 48.6883 126.087 48.5826 125.03 47.9365L124.02 49.5811C123.385 47.2316 122.845 44.9526 122.557 43.2139C124.584 43.5252 126.545 44.2477 127.356 45.5341ZM4.59332 60.1129C4.90424 59.2275 5.26107 58.359 5.66235 57.5108C6.70789 55.3551 7.73581 53.2464 8.81072 51.1964C9.34192 54.4424 10.6699 57.506 12.6757 60.1129H4.59332ZM79.0674 60.1129C79.1144 57.2817 79.1731 54.7031 79.226 52.3947C80.7086 52.1213 82.2078 51.9467 83.7136 51.8719C83.7723 54.5327 83.9485 57.3287 84.2246 60.1422H79.0674V60.1129ZM66.9614 45.816C67.2493 47.3491 67.5018 48.9937 67.7016 50.656C66.6003 50.6684 65.502 50.7725 64.4181 50.9673C65.126 49.1847 65.9766 47.462 66.9614 45.816ZM62.7969 55.5019C64.5164 55.0092 66.2948 54.7524 68.0834 54.7383C68.1974 56.5378 68.1974 58.3427 68.0834 60.1422H61.6222C61.9089 58.5639 62.2914 57.0044 62.7675 55.4726L62.7969 55.5019ZM143.985 60.1422L145.03 56.6649C142.093 55.778 138.986 52.6649 138.07 50.4328C136.819 47.3726 137.189 43.4489 137.894 42.9261C138.886 42.6735 141.453 43.8953 143.767 46.8968C144.972 48.4651 148.643 53.9982 145.424 59.3845L146.693 60.1422H143.985Z" fill="white"/>
</g>
<defs>
<clipPath id="clip0_3030_1481">
<rect width="151.339" height="70.0863" fill="white"/>
</clipPath>
</defs>
</svg>
