<svg width="59" height="31" viewBox="0 0 59 31" fill="none" xmlns="http://www.w3.org/2000/svg">
<path d="M0.774387 28.8744C0.600781 28.6997 0.513977 28.4947 0.513977 28.2594C0.513977 28.023 0.600781 27.8174 0.774387 27.6426C0.949136 27.4679 1.15472 27.3805 1.39115 27.3805C1.5225 27.3805 1.64471 27.4091 1.75778 27.4662C1.87085 27.5221 1.95194 27.5781 2.00106 27.6341L2.07473 27.7146L1.84687 27.9424C1.83544 27.9242 1.81774 27.9019 1.79376 27.8756C1.77091 27.8482 1.72009 27.8117 1.64128 27.766C1.56361 27.7203 1.48024 27.6975 1.39115 27.6975C1.24838 27.6975 1.12446 27.7517 1.01938 27.8602C0.915443 27.9687 0.863475 28.1018 0.863475 28.2594C0.863475 28.4159 0.915443 28.5484 1.01938 28.6569C1.12446 28.7654 1.24838 28.8196 1.39115 28.8196C1.48024 28.8196 1.56361 28.7973 1.64128 28.7528C1.72009 28.7083 1.77662 28.6649 1.81089 28.6226L1.864 28.5575L2.09186 28.7854C2.085 28.7945 2.07473 28.8076 2.06102 28.8248C2.04731 28.8407 2.01762 28.8687 1.97193 28.9087C1.92625 28.9475 1.87828 28.9824 1.82802 29.0132C1.77777 29.0429 1.71266 29.0709 1.63271 29.0972C1.55276 29.1223 1.47224 29.1349 1.39115 29.1349C1.15472 29.1349 0.949136 29.048 0.774387 28.8744ZM3.68923 27.7317V29.1006H3.33802V27.4165H4.8645V29.1006H4.51329V27.7317H3.68923ZM7.39558 28.6569C7.49952 28.5484 7.55149 28.4159 7.55149 28.2594C7.55149 28.1018 7.49952 27.9687 7.39558 27.8602C7.29165 27.7517 7.1683 27.6975 7.02553 27.6975C6.88276 27.6975 6.75883 27.7517 6.65376 27.8602C6.54982 27.9687 6.49785 28.1018 6.49785 28.2594C6.49785 28.4159 6.54982 28.5484 6.65376 28.6569C6.75883 28.7654 6.88276 28.8196 7.02553 28.8196C7.1683 28.8196 7.29165 28.7654 7.39558 28.6569ZM6.40877 28.8744C6.23516 28.6997 6.14836 28.4947 6.14836 28.2594C6.14836 28.023 6.23516 27.8174 6.40877 27.6426C6.58351 27.4679 6.7891 27.3805 7.02553 27.3805C7.26195 27.3805 7.46697 27.4679 7.64057 27.6426C7.81532 27.8174 7.9027 28.023 7.9027 28.2594C7.9027 28.4947 7.81532 28.6997 7.64057 28.8744C7.46697 29.048 7.26195 29.1349 7.02553 29.1349C6.7891 29.1349 6.58351 29.048 6.40877 28.8744ZM10.0791 29.1349C10.0163 29.1349 9.95522 29.1274 9.89583 29.1126C9.83643 29.0977 9.78561 29.0795 9.74335 29.0578C9.70109 29.0349 9.6634 29.0121 9.63028 28.9892C9.5983 28.9652 9.57488 28.9464 9.56003 28.9327L9.53605 28.907V29.8373H9.18484V27.4165H9.53605V27.6101C9.55204 27.5941 9.57431 27.573 9.60286 27.5467C9.63256 27.5204 9.69481 27.4862 9.78961 27.4439C9.8844 27.4016 9.98092 27.3805 10.0791 27.3805C10.3019 27.3805 10.4949 27.4662 10.6582 27.6375C10.8227 27.8077 10.9049 28.0144 10.9049 28.2577C10.9049 28.501 10.8227 28.7083 10.6582 28.8796C10.4949 29.0498 10.3019 29.1349 10.0791 29.1349ZM10.3995 27.8619C10.2967 27.7523 10.1785 27.6975 10.0449 27.6975C9.91125 27.6975 9.79303 27.7523 9.69024 27.8619C9.58745 27.9716 9.53605 28.1041 9.53605 28.2594C9.53605 28.4136 9.58745 28.5455 9.69024 28.6551C9.79303 28.7648 9.91125 28.8196 10.0449 28.8196C10.1785 28.8196 10.2967 28.7648 10.3995 28.6551C10.5023 28.5455 10.5537 28.4136 10.5537 28.2594C10.5537 28.1041 10.5023 27.9716 10.3995 27.8619ZM12.0106 27.7317V27.4165H13.5182V27.7317H12.9392V29.1006H12.5897V27.7317H12.0106ZM15.9585 27.4165H16.2737V29.1006H15.9225V27.9956L15.0454 29.1006H14.7301V27.4165H15.0813V28.5215L15.9585 27.4165ZM17.6621 27.4165H18.469C18.6301 27.4165 18.758 27.4582 18.8528 27.5416C18.9476 27.6238 18.995 27.7283 18.995 27.8551C18.995 27.927 18.979 27.9927 18.947 28.0521C18.9162 28.1103 18.8842 28.1509 18.8511 28.1737L18.8031 28.2063C18.81 28.2086 18.8197 28.2126 18.8322 28.2183C18.8448 28.224 18.8676 28.2388 18.9008 28.2628C18.9339 28.2857 18.9624 28.3114 18.9864 28.3399C19.0116 28.3673 19.0338 28.405 19.0532 28.453C19.0738 28.501 19.0841 28.5529 19.0841 28.6089C19.0841 28.7539 19.0321 28.8722 18.9282 28.9635C18.8254 29.0549 18.6843 29.1006 18.505 29.1006H17.6621V27.4165ZM18.505 28.3468H18.0133V28.8025H18.505C18.5747 28.8025 18.6301 28.7819 18.6712 28.7408C18.7123 28.6997 18.7329 28.6443 18.7329 28.5746C18.7329 28.5118 18.7117 28.4581 18.6695 28.4136C18.6272 28.369 18.5724 28.3468 18.505 28.3468ZM18.5975 28.0195C18.6295 27.9876 18.6455 27.9447 18.6455 27.891C18.6455 27.8362 18.6295 27.7934 18.5975 27.7626C18.5655 27.7306 18.5227 27.7146 18.469 27.7146H18.0133V28.0658H18.469C18.5227 28.0658 18.5655 28.0504 18.5975 28.0195ZM20.7157 28.3982V29.1006H20.3645V27.4165H20.7157V28.0829H21.5398V27.4165H21.891V29.1006H21.5398V28.3982H20.7157ZM24.8401 28.381H23.5243C23.5426 28.4998 23.6009 28.6026 23.6991 28.6894C23.7985 28.7762 23.9161 28.8196 24.052 28.8196C24.1502 28.8196 24.2416 28.7973 24.3261 28.7528C24.4118 28.7083 24.4723 28.6649 24.5077 28.6226L24.5608 28.5575L24.7887 28.7854C24.7818 28.7945 24.771 28.8076 24.7561 28.8248C24.7424 28.8407 24.7122 28.8687 24.6653 28.9087C24.6185 28.9475 24.5688 28.9824 24.5163 29.0132C24.4638 29.0429 24.3952 29.0709 24.3107 29.0972C24.2273 29.1223 24.1411 29.1349 24.052 29.1349C23.8133 29.1349 23.6071 29.0475 23.4335 28.8727C23.2611 28.6968 23.1748 28.4861 23.1748 28.2405C23.1748 28.0041 23.2588 27.802 23.4267 27.6341C23.5957 27.465 23.7979 27.3805 24.0332 27.3805C24.2696 27.3805 24.466 27.4593 24.6225 27.6169C24.7801 27.7734 24.8589 27.9699 24.8589 28.2063L24.8401 28.381ZM24.0332 27.6803C23.9064 27.6803 23.7996 27.718 23.7128 27.7934C23.6271 27.8676 23.5695 27.9641 23.5398 28.0829H24.5146C24.494 27.9641 24.4409 27.8676 24.3553 27.7934C24.2696 27.718 24.1622 27.6803 24.0332 27.6803ZM27.8944 28.8744C27.7208 28.6997 27.6339 28.4947 27.6339 28.2594C27.6339 28.023 27.7208 27.8174 27.8944 27.6426C28.0691 27.4679 28.2747 27.3805 28.5111 27.3805C28.6425 27.3805 28.7647 27.4091 28.8778 27.4662C28.9908 27.5221 29.0719 27.5781 29.121 27.6341L29.1947 27.7146L28.9668 27.9424C28.9554 27.9242 28.9377 27.9019 28.9137 27.8756C28.8909 27.8482 28.8401 27.8117 28.7613 27.766C28.6836 27.7203 28.6002 27.6975 28.5111 27.6975C28.3684 27.6975 28.2444 27.7517 28.1394 27.8602C28.0354 27.9687 27.9834 28.1018 27.9834 28.2594C27.9834 28.4159 28.0354 28.5484 28.1394 28.6569C28.2444 28.7654 28.3684 28.8196 28.5111 28.8196C28.6002 28.8196 28.6836 28.7973 28.7613 28.7528C28.8401 28.7083 28.8966 28.6649 28.9309 28.6226L28.984 28.5575L29.2118 28.7854C29.205 28.7945 29.1947 28.8076 29.181 28.8248C29.1673 28.8407 29.1376 28.8687 29.0919 28.9087C29.0462 28.9475 28.9982 28.9824 28.948 29.0132C28.8977 29.0429 28.8326 29.0709 28.7527 29.0972C28.6727 29.1223 28.5922 29.1349 28.5111 29.1349C28.2747 29.1349 28.0691 29.048 27.8944 28.8744ZM30.8092 27.7317V29.1006H30.458V27.4165H31.9845V29.1006H31.6333V27.7317H30.8092ZM34.5156 28.6569C34.6195 28.5484 34.6715 28.4159 34.6715 28.2594C34.6715 28.1018 34.6195 27.9687 34.5156 27.8602C34.4116 27.7517 34.2883 27.6975 34.1455 27.6975C34.0027 27.6975 33.8788 27.7517 33.7737 27.8602C33.6698 27.9687 33.6178 28.1018 33.6178 28.2594C33.6178 28.4159 33.6698 28.5484 33.7737 28.6569C33.8788 28.7654 34.0027 28.8196 34.1455 28.8196C34.2883 28.8196 34.4116 28.7654 34.5156 28.6569ZM33.5287 28.8744C33.3551 28.6997 33.2683 28.4947 33.2683 28.2594C33.2683 28.023 33.3551 27.8174 33.5287 27.6426C33.7035 27.4679 33.9091 27.3805 34.1455 27.3805C34.3819 27.3805 34.5869 27.4679 34.7605 27.6426C34.9353 27.8174 35.0227 28.023 35.0227 28.2594C35.0227 28.4947 34.9353 28.6997 34.7605 28.8744C34.5869 29.048 34.3819 29.1349 34.1455 29.1349C33.9091 29.1349 33.7035 29.048 33.5287 28.8744ZM37.1991 29.1349C37.1363 29.1349 37.0752 29.1274 37.0158 29.1126C36.9564 29.0977 36.9056 29.0795 36.8633 29.0578C36.8211 29.0349 36.7834 29.0121 36.7502 28.9892C36.7183 28.9652 36.6949 28.9464 36.68 28.9327L36.656 28.907V29.8373H36.3048V27.4165H36.656V27.6101C36.672 27.5941 36.6943 27.573 36.7228 27.5467C36.7525 27.5204 36.8148 27.4862 36.9096 27.4439C37.0044 27.4016 37.1009 27.3805 37.1991 27.3805C37.4218 27.3805 37.6149 27.4662 37.7782 27.6375C37.9427 27.8077 38.0249 28.0144 38.0249 28.2577C38.0249 28.501 37.9427 28.7083 37.7782 28.8796C37.6149 29.0498 37.4218 29.1349 37.1991 29.1349ZM37.5195 27.8619C37.4167 27.7523 37.2985 27.6975 37.1648 27.6975C37.0312 27.6975 36.913 27.7523 36.8102 27.8619C36.7074 27.9716 36.656 28.1041 36.656 28.2594C36.656 28.4136 36.7074 28.5455 36.8102 28.6551C36.913 28.7648 37.0312 28.8196 37.1648 28.8196C37.2985 28.8196 37.4167 28.7648 37.5195 28.6551C37.6223 28.5455 37.6737 28.4136 37.6737 28.2594C37.6737 28.1041 37.6223 27.9716 37.5195 27.8619ZM39.8673 27.4165H40.6382V29.1006H40.2887V28.5746H39.9204L39.5863 29.1006H39.2008L39.5692 28.5215C39.56 28.5192 39.5475 28.5141 39.5315 28.5061C39.5166 28.4981 39.4903 28.4804 39.4527 28.453C39.415 28.4244 39.3813 28.3919 39.3516 28.3553C39.323 28.3188 39.2962 28.2685 39.2711 28.2046C39.2471 28.1395 39.2351 28.0698 39.2351 27.9956C39.2351 27.8277 39.2928 27.6895 39.4081 27.581C39.5246 27.4713 39.6777 27.4165 39.8673 27.4165ZM40.2887 27.7146H39.8673C39.7873 27.7146 39.7205 27.7414 39.6668 27.7951C39.6131 27.8488 39.5863 27.9156 39.5863 27.9956C39.5863 28.0755 39.6131 28.1423 39.6668 28.196C39.7205 28.2497 39.7873 28.2765 39.8673 28.2765H40.2887V27.7146ZM41.7799 28.7854H41.9015C41.9083 28.7785 41.9181 28.7676 41.9306 28.7528C41.9443 28.7368 41.9672 28.702 41.9991 28.6483C42.0323 28.5946 42.0608 28.5369 42.0848 28.4753C42.1099 28.4124 42.1322 28.3302 42.1516 28.2286C42.1722 28.1269 42.1825 28.0201 42.1825 27.9082V27.4165H43.4108V28.7854H43.6558V29.522H43.3063V29.1006H42.1311V29.522H41.7799V28.7854ZM42.5337 27.7317V27.9082C42.5337 28.0201 42.524 28.1263 42.5046 28.2268C42.4863 28.3274 42.4629 28.4107 42.4343 28.477C42.4069 28.5421 42.3789 28.5986 42.3504 28.6466C42.3229 28.6946 42.3001 28.7288 42.2818 28.7494L42.2527 28.7854H43.0596V27.7317H42.5337ZM46.1681 28.1001L46.8174 27.4165H47.2388L46.5895 28.1189L47.292 29.1006H46.9048L46.3617 28.3468L46.1681 28.5575V29.1006H45.8186V28.5575L45.625 28.3468L45.0819 29.1006H44.6947L45.3971 28.1189L44.7478 27.4165H45.1693L45.8186 28.1001V27.4165H46.1681V28.1001ZM50.0286 28.381H48.7129C48.7311 28.4998 48.7894 28.6026 48.8876 28.6894C48.987 28.7762 49.1046 28.8196 49.2405 28.8196C49.3388 28.8196 49.4301 28.7973 49.5147 28.7528C49.6003 28.7083 49.6608 28.6649 49.6963 28.6226L49.7494 28.5575L49.9772 28.7854C49.9704 28.7945 49.9595 28.8076 49.9447 28.8248C49.931 28.8407 49.9007 28.8687 49.8539 28.9087C49.807 28.9475 49.7574 28.9824 49.7048 29.0132C49.6523 29.0429 49.5838 29.0709 49.4992 29.0972C49.4159 29.1223 49.3296 29.1349 49.2405 29.1349C49.0018 29.1349 48.7957 29.0475 48.6221 28.8727C48.4496 28.6968 48.3634 28.4861 48.3634 28.2405C48.3634 28.0041 48.4473 27.802 48.6152 27.6341C48.7842 27.465 48.9864 27.3805 49.2217 27.3805C49.4581 27.3805 49.6546 27.4593 49.811 27.6169C49.9687 27.7734 50.0475 27.9699 50.0475 28.2063L50.0286 28.381ZM49.2217 27.6803C49.0949 27.6803 48.9881 27.718 48.9013 27.7934C48.8157 27.8676 48.758 27.9641 48.7283 28.0829H49.7031C49.6825 27.9641 49.6294 27.8676 49.5438 27.7934C49.4581 27.718 49.3508 27.6803 49.2217 27.6803ZM51.6791 28.3982V29.1006H51.3279V27.4165H51.6791V28.0829H52.5032V27.4165H52.8544V29.1006H52.5032V28.3982H51.6791ZM54.5939 28.3982V29.1006H54.2427V27.4165H54.5939V28.0829H55.418V27.4165H55.7692V29.1006H55.418V28.3982H54.5939ZM57.7195 27.4165H58.4905V29.1006H58.141V28.5746H57.7726L57.4385 29.1006H57.0531L57.4214 28.5215C57.4123 28.5192 57.3997 28.5141 57.3837 28.5061C57.3689 28.4981 57.3426 28.4804 57.3049 28.453C57.2672 28.4244 57.2335 28.3919 57.2038 28.3553C57.1753 28.3188 57.1484 28.2685 57.1233 28.2046C57.0993 28.1395 57.0873 28.0698 57.0873 27.9956C57.0873 27.8277 57.145 27.6895 57.2604 27.581C57.3769 27.4713 57.5299 27.4165 57.7195 27.4165ZM58.141 27.7146H57.7195C57.6396 27.7146 57.5727 27.7414 57.5191 27.7951C57.4654 27.8488 57.4385 27.9156 57.4385 27.9956C57.4385 28.0755 57.4654 28.1423 57.5191 28.196C57.5727 28.2497 57.6396 28.2765 57.7195 28.2765H58.141V27.7146Z" fill="#002638"/>
<g clip-path="url(#clip0_1404_3962)">
<path d="M21.1338 14.3947C21.4224 14.5917 21.8964 14.5665 22.0956 15.0817C22.2101 15.3886 22.9223 15.858 23.0368 15.6565C23.1009 15.542 22.4551 15.3634 22.3246 14.9397C22.2444 14.6741 22.2559 14.5962 22.0086 14.4817C21.7887 14.3794 21.5761 14.2624 21.372 14.1314C21.02 13.9723 20.7073 13.7377 20.456 13.4444C20.3713 13.3482 20.0324 13.1284 20.3621 13.6848C20.5817 13.9594 20.8419 14.1988 21.1338 14.3947Z" fill="#002638"/>
<path d="M28.6085 9.32074C28.3566 9.38485 27.9559 9.38943 27.8002 9.62072C27.7527 9.71753 27.7106 9.81691 27.6742 9.91841C27.5883 10.0758 27.4942 10.2287 27.3926 10.3764C27.317 10.4909 27.072 10.9535 27.4384 10.7977C27.6376 10.7107 27.7544 10.2367 27.846 10.065C27.9913 9.86749 28.2025 9.72857 28.4414 9.67338C28.5638 9.64121 28.684 9.60066 28.8009 9.55202C28.8925 9.50393 28.9383 9.39859 29.0093 9.35737C29.1993 9.24746 29.6023 9.43981 29.6092 9.17647C29.6138 8.94748 28.8879 9.24517 28.6085 9.32074Z" fill="#002638"/>
<path d="M39.2344 7.58032C39.2871 7.67191 39.3191 7.77496 39.3649 7.86885C39.4359 8.01082 39.7176 8.37263 39.8367 8.26272C39.9557 8.1528 39.5367 7.9261 39.4542 7.562C39.397 7.31698 39.1955 7.18645 38.9963 7.02844C38.5497 6.6758 37.6795 5.92012 37.5628 6.05751C37.478 6.15827 37.8673 6.43077 37.9566 6.50405C38.1856 6.69411 38.4375 6.86815 38.678 7.04676C38.901 7.18072 39.0912 7.36305 39.2344 7.58032Z" fill="#002638"/>
<path d="M19.993 7.28869C19.9125 7.33054 19.8412 7.3879 19.783 7.45747C19.7248 7.52703 19.681 7.60742 19.6541 7.69401C19.6262 7.77592 19.586 7.85312 19.535 7.923C19.4686 8.02605 19.4182 8.10849 19.432 8.1726C19.4387 8.19649 19.4543 8.21694 19.4755 8.22985C19.4919 8.2404 19.5109 8.24596 19.5304 8.24588C19.6358 8.24588 19.7067 8.08788 19.7823 7.92071C19.8052 7.87033 19.8281 7.82224 19.851 7.78103C19.9171 7.63052 20.0315 7.5064 20.1762 7.42838C20.3479 7.31846 20.5082 7.19938 20.6662 7.07573C20.8765 6.90427 21.1009 6.75106 21.3372 6.61774L21.3898 6.59026C21.6761 6.446 21.7539 6.38646 21.7402 6.32463C21.7265 6.2628 21.6509 6.27196 21.612 6.27196C21.3517 6.3247 21.1105 6.44651 20.9135 6.62461C20.8242 6.69102 20.7418 6.76659 20.6617 6.83758C20.5718 6.92058 20.4761 6.9971 20.3754 7.06657C20.2525 7.14812 20.1248 7.2223 19.993 7.28869Z" fill="#002638"/>
<path d="M13.4421 12.3727C13.1636 12.6133 12.8665 12.8315 12.5536 13.0253C12.2261 13.2131 11.5254 14.5183 11.4475 14.6282C11.3697 14.7382 11.017 15.132 11.175 15.1572C11.5506 15.2099 12.1941 13.9275 12.249 13.8474C12.4125 13.6093 12.6163 13.4016 12.8513 13.2337C13.0413 13.1077 13.5566 12.8329 13.6825 12.5467C13.6948 12.5151 13.6962 12.4803 13.6866 12.4478C13.677 12.4152 13.6569 12.3868 13.6294 12.3669C13.602 12.347 13.5687 12.3368 13.5348 12.3378C13.5009 12.3389 13.4683 12.3511 13.4421 12.3727Z" fill="#002638"/>
<path d="M22.7088 10.1885C22.8485 10.2664 23.2423 10.8755 23.4095 10.7518C23.7415 10.5091 22.0768 9.45803 22.0356 9.73283C22.0035 9.90228 22.3081 9.91144 22.434 10.0236C22.5182 10.0901 22.6105 10.1455 22.7088 10.1885Z" fill="#002638"/>
<path d="M39.6369 10.1513C39.8476 10.259 40.8368 10.9322 40.8391 10.9322C41.1116 11.065 41.675 11.1268 42.0826 11.3902C42.2698 11.4953 42.4159 11.6608 42.497 11.8596C42.5762 12.0234 42.6746 12.1771 42.7902 12.3176C42.8749 12.4367 43.0627 12.7069 43.1474 12.8328C43.2825 13.0298 43.4153 13.2313 43.5435 13.4351C43.6718 13.6389 44.1252 13.9457 44.2626 14.1015C44.3694 14.2166 44.4867 14.3217 44.6129 14.4152C44.6287 14.4275 44.6483 14.4338 44.6682 14.4331C44.6882 14.4323 44.7072 14.4245 44.722 14.4111C44.7368 14.3977 44.7464 14.3795 44.749 14.3597C44.7517 14.3399 44.7473 14.3198 44.7366 14.303C44.5877 14.074 43.9809 13.4855 43.9214 13.387C43.7994 13.1667 43.6617 12.9554 43.5092 12.755C43.3764 12.5741 43.2344 12.3978 43.0947 12.2214C42.9965 11.9935 42.8817 11.7731 42.7512 11.5619C42.6848 11.507 42.6322 11.436 42.5657 11.381C42.3949 11.2529 42.2116 11.1424 42.0185 11.0513C41.7758 10.9398 41.5216 10.8554 41.2605 10.7994C41.1077 10.7711 40.9626 10.711 40.8346 10.6231C40.3926 10.3185 39.7125 9.89715 39.6507 9.86509C39.3805 9.7277 38.8996 9.20101 38.7484 9.40711C38.6843 9.51244 39.3553 10.0071 39.6369 10.1513Z" fill="#002638"/>
<path d="M20.9326 12.9635C21.1021 12.8444 20.7746 12.3681 20.722 12.2513C20.6281 12.0475 20.6006 11.7498 20.4426 11.5964C20.2373 11.4481 20.0033 11.3443 19.7556 11.2918C19.6605 11.2628 19.5633 11.2414 19.4648 11.2277C19.2965 11.2035 19.1414 11.1227 19.0251 10.9987C18.7206 10.6689 18.2236 10.3117 18.0679 10.4079C17.8206 10.5613 18.1527 10.6804 18.2672 10.7216C18.4961 10.8018 18.9152 11.1796 19.1831 11.3582C19.2122 11.3795 19.2437 11.3972 19.277 11.4109C19.4259 11.4796 19.6434 11.5391 19.6984 11.5597C19.9254 11.6059 20.128 11.7328 20.2686 11.917C20.406 12.1551 20.7494 13.0917 20.9326 12.9635Z" fill="#002638"/>
<path d="M7.53359 14.7063C7.71907 14.6147 7.8725 14.4773 8.05569 14.3765C8.15816 14.3416 8.263 14.314 8.36941 14.2941C8.43113 14.2664 8.48952 14.2319 8.54345 14.191C8.99074 13.9498 9.40614 13.6536 9.78001 13.3094C9.98091 13.1272 10.1952 12.9603 10.4212 12.8102C10.6114 12.7156 10.7879 12.5954 10.9456 12.453C11.2501 12.1278 11.6486 11.94 11.9669 11.6195C12.2852 11.2989 12.576 10.8752 12.8943 10.5157C13.0454 10.3237 13.2568 10.1882 13.4943 10.131C13.6179 10.0875 13.7507 10.0142 13.8859 9.95697C14.021 9.89972 14.179 9.97529 14.1377 10.1241C14.0942 10.2622 14.0065 10.3821 13.8881 10.4653C13.7044 10.566 13.5412 10.7004 13.4073 10.8615C13.2859 10.9989 13.334 11.166 13.295 11.3355C13.2424 11.5645 13.1004 11.7637 13.176 12.0087C13.4187 12.0683 13.4485 11.7271 13.492 11.5714C13.5538 11.3424 13.5607 11.1981 13.7599 11.0676C13.9591 10.9371 14.1973 10.5203 14.4125 10.2363C14.5913 10.0702 14.7819 9.91712 14.9827 9.77835C15.0613 9.7357 15.1337 9.68255 15.198 9.62035C15.2713 9.52188 15.2232 9.46005 15.2667 9.37075C15.367 9.22304 15.4772 9.08227 15.5964 8.9494C15.6514 8.86925 15.6834 8.75018 15.7315 8.68377C15.8062 8.59671 15.9004 8.52846 16.0063 8.48454C16.2582 8.34944 16.533 8.28074 16.7208 8.05175C16.8719 7.87084 16.9315 7.61437 17.1788 7.58002C17.486 7.58922 17.7822 7.69678 18.0238 7.88687C18.3045 8.09548 18.6127 8.26424 18.9397 8.38837C19.8878 8.69064 20.4854 9.12115 21.1724 9.31808C21.4014 9.38449 21.7632 9.48524 21.9991 9.53104C22.1937 9.56768 22.3884 9.53104 22.5853 9.57226C23.0616 9.65012 23.4188 10.1402 23.8516 10.3485C24.0005 10.4218 24.06 10.3806 24.0394 10.5501C24.0047 10.6535 23.9503 10.7491 23.8791 10.8317C23.7554 11.008 23.6066 11.1615 23.4784 11.3332C23.2081 10.9989 22.725 10.802 22.3609 10.5821C21.9968 10.3623 21.7449 10.1081 21.4289 9.89514C21.1129 9.68218 20.5839 9.61577 20.2839 9.36617C19.542 8.77079 18.8298 8.46852 19.5191 9.03413C19.716 9.19671 19.8465 9.34327 20.0137 9.47608C20.3537 9.69314 20.717 9.87135 21.0968 10.0073C21.4128 10.1631 21.509 10.5707 21.8021 10.6943C21.9097 10.7265 22.0146 10.7671 22.1159 10.8157C22.2716 10.9073 22.4433 10.9531 22.6013 11.0447C22.7929 11.1324 22.9585 11.268 23.0822 11.4386C23.1646 11.5805 23.1921 11.7431 23.286 11.8851C23.3799 12.0271 23.515 12.1599 23.6203 12.3179C23.6905 12.4703 23.7733 12.6166 23.8676 12.7553C24.1046 12.9669 24.3669 13.1484 24.6485 13.2957C24.8294 13.4171 25.9881 14.1567 26.0225 13.9185C26.0385 13.8361 25.5027 13.6415 25.4454 13.5796C25.3882 13.5178 25.2393 13.4148 25.1912 13.3621C25.0786 13.2321 24.9397 13.1275 24.7836 13.0552C24.5546 12.9476 24.3531 12.9774 24.1951 12.7507C24.1229 12.6433 24.0586 12.5308 24.0028 12.4141C23.9913 12.3918 23.987 12.3666 23.9904 12.3419C23.9938 12.3171 24.0048 12.294 24.0218 12.2757C24.0389 12.2574 24.0611 12.2448 24.0856 12.2397C24.11 12.2345 24.1355 12.237 24.1585 12.2469C24.3302 12.3202 24.502 12.3935 24.6829 12.4507C24.9487 12.5015 25.2037 12.5984 25.4362 12.7369C25.6423 12.9041 25.6996 13.1949 25.9057 13.3644C26.1667 13.5934 26.3843 13.5499 26.2354 13.2728C26.1644 13.1445 26.0591 13.0713 26.0064 12.9522C26.0027 12.9436 26.0017 12.9341 26.0035 12.925C26.0054 12.9158 26.0099 12.9074 26.0167 12.901C26.0234 12.8945 26.032 12.8902 26.0412 12.8887C26.0504 12.8872 26.0598 12.8886 26.0683 12.8927C26.3192 12.9964 26.578 13.0798 26.8423 13.1423C27.1377 13.2339 27.3873 13.4056 27.6712 13.5224C27.9434 13.5994 28.1983 13.7276 28.4223 13.9002C28.6585 14.0882 28.9063 14.261 29.1643 14.4177C29.2671 14.4748 29.3638 14.5423 29.4528 14.6193C29.4911 14.6477 29.5278 14.6783 29.5627 14.7109C29.6669 14.8114 29.7779 14.9047 29.8947 14.9902L30.4558 15.4826C30.506 15.521 30.564 15.5478 30.6257 15.5613C30.6874 15.5748 30.7514 15.5745 30.813 15.5604C31.1215 15.4235 31.3862 15.204 31.5778 14.9261C31.6122 14.8734 31.9328 14.5322 32.0015 14.4681C32.217 14.3204 32.4472 14.1953 32.6884 14.0949C32.8121 14.0239 33.1716 13.8132 32.9014 13.7056C32.7182 13.6323 32.4274 13.875 32.2671 13.9575C32.0546 14.0402 31.8613 14.1657 31.6992 14.3262C31.5091 14.5551 31.4519 14.8505 31.1473 14.9444C30.9862 15.0088 30.821 15.0624 30.6527 15.1047C30.6083 15.109 30.5636 15.1034 30.5216 15.0884C30.4796 15.0734 30.4415 15.0492 30.41 15.0177C30.3046 14.9009 29.8947 14.5483 29.952 14.4292C30.0459 14.2162 30.4466 14.0147 30.5794 13.8384C30.6756 13.7102 30.6802 13.6621 30.8084 13.5888C30.9778 13.5234 31.1548 13.4795 31.3351 13.4583C31.4359 13.4354 32.0908 13.2613 32.4297 13.1285C32.6587 13.0346 32.5648 13.3026 32.0015 13.4857C31.7839 13.5567 31.6603 13.7949 31.4931 13.9437C31.2522 14.1536 30.9923 14.3406 30.7168 14.5025C30.5657 14.5964 30.3779 14.8643 30.6939 14.8597C30.8496 14.8597 31.0924 14.6307 31.2275 14.5506C31.4467 14.4271 31.6472 14.2728 31.8229 14.0926C31.9881 13.9168 32.1751 13.7629 32.3793 13.6346C32.5671 13.527 32.7457 13.5086 32.819 13.2957C32.8923 13.0827 32.8648 13.0186 33.0846 12.8812C33.2551 12.7749 33.4093 12.6445 33.5426 12.4942C33.6456 12.3889 33.9891 12.3385 34.0418 12.2492C34.1242 12.0981 33.9136 12.0202 33.7899 12.0202C33.5609 11.9996 33.4441 12.1507 33.2953 12.2858C33.1343 12.4137 32.9644 12.53 32.7869 12.6339C32.6606 12.7197 32.5255 12.7919 32.3839 12.8491C31.8847 13.0278 30.8886 13.1926 30.3917 13.5842C30.2062 13.7331 30.0711 14.0674 29.8466 14.175C29.6726 14.2575 29.4505 14.0834 29.2765 13.946C29.2582 13.931 29.2435 13.9121 29.2335 13.8907C29.2234 13.8693 29.2182 13.846 29.2182 13.8224C29.2182 13.7987 29.2234 13.7754 29.2335 13.754C29.2435 13.7326 29.2582 13.7137 29.2765 13.6987C29.4971 13.5237 29.734 13.3703 29.984 13.2407C30.2291 13.1056 30.5726 13.1926 30.7901 13.0232C30.9023 12.9362 30.9596 12.7942 31.0832 12.7095C31.2069 12.6247 31.3832 12.524 31.5412 12.4255C31.8004 12.2734 32.0816 12.1622 32.3747 12.0958C32.4418 12.0747 32.5137 12.0747 32.5808 12.0958C32.6368 12.1055 32.6936 12.1093 32.7503 12.1072C32.9106 12.0843 32.9976 11.9378 33.0961 11.8347C33.2299 11.6829 33.396 11.5629 33.5823 11.4837C33.7685 11.4044 33.9701 11.3679 34.1723 11.3767C34.3647 11.4288 34.5495 11.5058 34.7219 11.6057C34.9853 11.7172 35.2421 11.8433 35.4913 11.9836C35.5921 12.0385 36.3134 12.4415 36.4073 12.5171C37.5294 13.3209 37.6324 13.5544 39.3224 14.1979C39.8445 14.3971 40.4673 14.8483 40.5956 14.7818C40.6917 14.736 40.5406 14.491 40.3551 14.4269C40.307 14.4086 38.6148 13.5522 38.3766 13.4651C38.198 13.401 37.1996 12.6705 37.1218 12.627C36.9281 12.5161 36.7408 12.3946 36.5607 12.2629C36.2015 12.0058 35.8233 11.7761 35.4295 11.5759C35.1318 11.4454 34.825 11.2668 34.6303 11.1798C34.5162 11.1052 34.3869 11.0571 34.2518 11.0389C34.1167 11.0206 33.9792 11.0328 33.8494 11.0745C33.6352 11.1377 33.4326 11.2351 33.2495 11.363C33.0754 11.4958 32.9289 11.6653 32.7526 11.7981C32.5396 11.9607 32.4205 11.9263 32.1663 11.9332C32.0106 11.9332 31.6649 12.1255 31.6649 12.066C31.6649 11.9492 32.1022 11.6744 32.1915 11.6309C32.3547 11.5676 32.5046 11.4744 32.6335 11.3561C32.7448 11.1649 32.831 10.9602 32.89 10.747C32.9816 10.5432 33.467 9.90888 33.2197 9.75088C33.0274 9.62722 32.9907 9.86995 32.9106 10.0142C32.8029 10.2134 32.6816 10.4104 32.5808 10.6096C32.5118 10.8014 32.4087 10.979 32.2763 11.134C32.109 11.2234 31.925 11.2772 31.7358 11.292C31.445 11.3561 30.9962 11.4019 30.758 11.4844C30.3482 11.6197 29.9686 11.8336 29.6406 12.1141C29.5283 12.2446 29.3955 12.3568 29.2856 12.4919C29.2374 12.5405 29.1979 12.5971 29.1688 12.6591C29.1611 12.6906 29.1643 12.7238 29.1777 12.7533C29.1912 12.7828 29.2142 12.8069 29.243 12.8217C29.2719 12.8365 29.3049 12.8412 29.3367 12.8349C29.3685 12.8287 29.3973 12.8119 29.4184 12.7873C29.5686 12.5964 29.7332 12.4172 29.9108 12.2515C30.1522 12.036 30.4307 11.866 30.7329 11.75C30.9046 11.7019 31.145 11.734 31.2343 11.6973C31.2618 11.6973 31.9854 11.3973 31.7129 11.6195C31.3886 11.8811 31.1054 12.1899 30.8725 12.5354C30.7168 12.6545 30.6664 12.7507 30.4718 12.8125C30.2772 12.8743 30.11 12.8125 29.9405 12.8881C29.6237 13.0335 29.3311 13.2266 29.0727 13.4606C28.7086 13.804 28.3032 13.4148 27.9414 13.2316C27.6643 13.0827 27.8109 13.0323 27.8224 12.7392C27.8682 11.7156 28.562 12.0294 29.3016 11.4706C29.4116 11.3882 29.5581 11.2416 29.352 11.1638C29.2513 11.1271 29.0291 11.379 28.9101 11.434C28.6915 11.5451 28.461 11.6311 28.2231 11.6904C28.0697 11.7294 27.859 11.7752 27.7651 11.9194C27.6163 12.1713 27.6529 12.9018 27.3071 12.9934C27.0919 13.0484 26.801 12.8079 26.6201 12.7484C26.3911 12.6751 26.1622 12.7484 25.9332 12.6293C25.6607 12.4896 25.6149 12.3362 25.15 12.3133C24.973 12.2978 24.8017 12.243 24.6485 12.153C24.5798 12.1164 24.3783 12.0935 24.2982 12.0133C24.1791 11.8897 24.1997 11.9194 24.3714 11.8072C24.5798 11.6698 24.8981 11.5897 25.0721 11.4111C25.2462 11.2325 25.2393 10.9851 25.3401 10.7974C25.4683 10.5684 25.7019 10.4608 25.8461 10.2501C26.0751 9.91804 25.4248 10.218 25.3263 10.2867C25.0424 10.4837 24.9279 10.9737 24.6874 11.2302C24.5546 11.3744 23.902 11.8141 23.7852 11.766C23.5722 11.6813 23.7211 11.537 23.8104 11.4569C23.9388 11.331 24.0408 11.1807 24.1104 11.0149C24.2923 10.7137 24.5549 10.4694 24.8683 10.3096C25.0309 10.2112 25.1202 10.0417 25.2691 9.92262C25.4179 9.80354 25.5874 9.74859 25.7271 9.63638C25.8026 9.57684 25.8393 9.46921 25.9103 9.40739C26.0306 9.33875 26.1626 9.29295 26.2996 9.27228C26.6797 9.16007 27.543 9.02268 27.8659 8.77995C28.1338 8.57843 28.2918 8.28532 28.5849 8.11358C28.7515 7.99024 28.9341 7.8901 29.1276 7.81589C29.2994 7.77009 29.9589 7.62124 30.0802 7.56857C30.1512 7.53651 30.9618 7.05563 30.9962 7.1976C31.0214 7.29378 30.916 7.4266 30.8748 7.51133C30.8174 7.60945 30.7524 7.70287 30.6802 7.7907C30.3779 8.07465 30.055 8.47768 30.1375 8.53721C30.2199 8.59675 30.5405 8.37234 30.8107 8.02656C31.0813 7.78337 31.2881 7.4775 31.413 7.13578C31.5343 6.90678 31.6282 6.86099 31.9511 6.67779C32.152 6.57102 32.3649 6.48876 32.5854 6.43277C33.238 6.25415 33.9891 5.5397 33.8563 5.45955C33.7235 5.3794 33.0319 5.95646 32.7549 6.04348C32.646 6.08225 32.5342 6.11212 32.4205 6.13279C32.1486 6.18186 31.8865 6.27466 31.6442 6.40758C31.5206 6.46483 31.216 6.63657 31.026 6.72817C30.6063 6.95234 30.1699 7.14373 29.7207 7.30065C29.4238 7.36612 29.1333 7.45809 28.8528 7.57544C28.5537 7.71159 28.2802 7.89828 28.0445 8.12732C27.7949 8.40211 27.717 8.60133 26.8331 8.81429C26.6041 8.86696 26.3751 8.93795 26.169 9.00894C26.0431 9.05016 25.521 9.32037 26.1255 8.88299C26.2881 8.76621 26.7392 8.45249 26.785 8.25555C26.8382 8.09238 26.9154 7.93803 27.014 7.79757C27.3621 7.52735 27.6712 7.15181 28.0559 6.93884C28.2345 6.84038 29.0475 5.84426 29.1597 5.78014C29.3557 5.68718 29.5408 5.57275 29.7115 5.43894C29.8334 5.28881 29.9725 5.15354 30.126 5.03591C30.4832 4.82524 30.7626 4.52068 31.1863 4.45427C31.3098 4.44295 31.4289 4.40236 31.5336 4.33586C31.6383 4.26936 31.7257 4.17885 31.7885 4.07185C31.8916 3.88408 32.0473 3.76271 32.148 3.56807C32.2831 3.30244 32.4137 3.27267 32.6816 3.15817C32.8982 3.05698 33.0982 2.92339 33.2747 2.76201C33.6571 2.45058 33.8243 2.64523 34.2937 2.61317C34.8272 2.57424 35.1891 3.07115 35.6814 3.21771C35.8645 3.25408 36.0412 3.31736 36.2058 3.40548C36.3892 3.51733 36.5665 3.63887 36.737 3.76958C36.9251 3.90102 37.1209 4.02107 37.3233 4.1291C37.4902 4.25403 37.6444 4.39517 37.7835 4.55045C38.1934 4.88249 38.5827 5.37482 39.0178 5.67938C39.2331 5.83281 39.4758 5.93814 39.6888 6.09386C39.7886 6.16413 39.878 6.24816 39.9544 6.34346C40.2635 6.73962 41.2093 7.90519 41.3123 8.02885C41.4154 8.15251 42.084 9.12344 42.2855 9.428C42.4871 9.73256 42.913 9.88598 43.1809 10.115C43.3458 10.2684 44.0534 10.976 44.1198 10.6668C44.1473 10.534 43.5702 10.2913 43.1397 9.86537C42.815 9.56703 42.5091 9.24889 42.2237 8.91276C41.9214 8.45478 41.7405 7.87313 40.923 7.08082C40.8154 6.97548 40.7169 6.69153 40.8543 6.74878C40.9149 6.77315 40.9718 6.8055 41.0238 6.84496C42.0176 7.62582 42.6909 7.66246 43.2221 7.86855C43.5705 7.97888 43.9085 8.11988 44.232 8.2899C44.4037 8.40669 45.2235 9.03184 45.4136 9.10512C45.7456 9.23564 45.7891 9.64783 46.0158 9.5631C46.2425 9.47837 44.1473 7.92351 43.9549 7.82276C43.6948 7.66028 43.4166 7.52885 43.1259 7.43118C42.7768 7.36755 42.4319 7.28267 42.0932 7.177C41.9879 7.13349 41.4062 6.73275 41.3055 6.67779C41.1267 6.56771 40.9332 6.48366 40.7307 6.42819C40.6368 6.42819 39.9269 5.79846 39.7208 5.63587C39.6246 5.55802 38.2736 4.68555 38.0492 4.43366C37.9517 4.28897 37.8319 4.16067 37.6942 4.05353L37.1767 3.69859C36.8482 3.45716 36.5056 3.23541 36.1508 3.03452C35.8371 2.87193 35.4203 2.83987 35.1364 2.61088C35.019 2.48367 34.8707 2.389 34.7059 2.33609C34.5284 2.28705 34.3467 2.25485 34.1632 2.23991C33.8061 2.19721 33.4444 2.25843 33.1212 2.41623C32.8396 2.59027 32.5946 2.76201 32.3244 2.95437C32.1343 3.08947 31.7152 3.38258 31.4725 3.26809C31.3122 3.19252 31.1817 2.8788 31.0855 2.73911C30.9921 2.59731 30.8743 2.47324 30.7374 2.37273C30.4492 2.21273 30.1412 2.09109 29.8215 2.01092C29.6272 1.92575 29.4195 1.87537 29.2078 1.86207C29.0749 1.85708 28.9485 1.80327 28.8528 1.71094C28.6719 1.52316 28.5277 1.25295 28.2918 1.12472C27.9356 0.955602 27.5693 0.808764 27.1949 0.685049C26.8537 0.554523 26.5629 0.389648 26.1736 0.389648C25.9866 0.391851 25.8027 0.436977 25.6359 0.521547C25.4692 0.606116 25.3241 0.727866 25.2118 0.877403C25.0708 1.07273 24.8936 1.2391 24.6897 1.36745C23.9913 1.86233 23.3608 2.44667 22.8143 3.1055C22.4119 3.62848 21.9577 4.10952 21.4586 4.54129C21.335 4.64433 21.1312 4.77028 21.0785 4.80921C20.6184 5.12985 20.1199 5.39142 19.5946 5.58779C19.3887 5.63574 19.1995 5.73861 19.0473 5.88548C18.9718 5.9931 18.9695 6.13737 18.8939 6.25186C18.8078 6.36127 18.7086 6.45971 18.5985 6.54498C18.3924 6.72359 18.1405 6.84725 17.9459 7.03502C17.7513 7.22279 17.7306 7.32355 17.4398 7.22737C17.046 7.09685 16.8055 7.29836 16.5696 7.59834C16.391 7.82734 16.4483 7.90061 16.1597 8.02885C15.9697 8.11358 15.7292 8.1754 15.617 8.36547C15.5483 8.47997 15.5529 8.59446 15.4522 8.69751C15.3514 8.80055 15.2827 8.78224 15.2232 8.84406C15.0766 8.97688 15.1087 9.2219 14.9552 9.34556C14.8018 9.46921 14.424 9.46234 14.2202 9.52188C13.9637 9.59974 13.7118 9.70279 13.4576 9.79209C13.1975 9.87748 12.9619 10.0244 12.7707 10.2203C12.6172 10.3829 12.4501 10.5363 12.3127 10.7081C12.1936 10.8836 12.0652 11.0525 11.928 11.2141C11.7585 11.379 11.6188 11.5759 11.4379 11.7271C11.257 11.8782 11.0189 11.995 10.838 12.1713C10.6816 12.3138 10.5058 12.4333 10.3159 12.5263C10.0956 12.6522 9.88709 12.7979 9.69299 12.9614C9.53261 13.1339 9.3629 13.2975 9.18463 13.4514C8.7229 13.7563 8.23651 14.0221 7.73052 14.246C7.61603 14.301 7.00233 14.5391 6.98859 14.6628C6.97485 14.7864 7.42825 14.7567 7.53359 14.7063ZM21.6166 4.83898C22.4204 4.18864 22.8372 3.46502 23.3616 2.95437C23.5379 2.78491 23.728 2.62462 23.902 2.45058C24.0238 2.30155 24.1538 2.15936 24.2913 2.02466C24.5156 1.88958 24.7285 1.73641 24.9279 1.56667C25.0813 1.39264 25.079 1.39951 25.0813 1.39951C25.1798 1.38119 24.9897 1.73384 24.9439 1.78421C24.8409 1.89642 24.8317 2.01321 24.7149 2.11396C24.6371 2.18724 24.6279 2.29945 24.5203 2.43226C24.348 2.80578 24.1952 3.18795 24.0623 3.57723C24.0366 3.64245 24.0051 3.70528 23.9684 3.765C23.869 3.87281 23.7425 3.9519 23.602 3.994C23.5562 4.01231 23.5104 4.03063 23.4692 4.05124C23.0112 4.26421 22.7822 4.54358 22.5166 5.02217L22.4983 5.05423L22.5303 5.07255C22.5467 5.0831 22.5658 5.08866 22.5853 5.08858C22.6906 5.08858 22.7708 4.93287 22.8418 4.79547C22.858 4.76077 22.8763 4.72712 22.8967 4.69471C22.972 4.57676 23.0673 4.47291 23.1784 4.38786C23.3208 4.29252 23.4747 4.21558 23.6364 4.15887C23.7756 4.10811 23.9097 4.04448 24.0371 3.96881C24.1473 3.89683 24.2285 3.78811 24.2661 3.66196L24.2982 3.55662C24.3394 3.42609 24.5042 2.94521 24.6027 2.62691C24.6404 2.50248 24.7127 2.39131 24.8111 2.30632C24.9139 2.21841 25.0041 2.11669 25.079 2.00405C25.1353 1.88553 25.2129 1.7784 25.308 1.68804C25.4042 1.57812 25.6675 0.914042 25.766 0.843054C25.9148 0.746877 26.1667 0.478956 26.453 0.639251C26.6041 0.721688 26.682 0.868243 26.872 0.868243C27.1285 0.868243 27.5292 0.884273 27.4056 1.07434C27.2819 1.2644 26.9339 1.23463 26.9934 1.34684C27.0529 1.45904 27.4514 1.26898 27.5453 1.21402C27.7743 1.06976 27.9575 1.17051 28.1887 1.28959C28.3941 1.41604 28.5649 1.59151 28.6857 1.80024C28.7887 1.94222 28.9307 2.32235 29.1734 2.30861C29.2238 2.30861 29.1734 2.24678 29.1894 2.19869C29.2146 2.05443 29.7299 2.42768 30.0596 2.38876C30.3063 2.43232 30.5361 2.54327 30.7237 2.70935C30.9183 2.93834 31.2458 3.19481 31.3099 3.50395C31.3488 3.6963 31.358 3.73294 31.2824 3.87034C31.2069 4.00774 31.1954 4.09933 30.8405 4.24818C30.8159 4.258 30.7886 4.2588 30.7634 4.25041C30.7383 4.24203 30.7169 4.22501 30.7031 4.20238C30.6115 4.04208 30.4878 3.79477 30.3665 3.54059C30.2451 3.28641 30.2657 3.23374 29.9085 3.01849L29.8764 2.99788C29.6016 2.8189 29.3083 2.66996 29.0017 2.55363C28.9906 2.55276 28.9796 2.55539 28.9701 2.56115C28.9607 2.5669 28.9533 2.57549 28.949 2.58569C28.9055 2.70935 29.0452 2.78491 29.1574 2.84445L29.2238 2.88338C29.2928 2.9228 29.3657 2.95503 29.4413 2.97956C29.4963 3.00246 29.5558 3.02307 29.6039 3.04825C29.7406 3.12604 29.8721 3.21247 29.9978 3.30702C30.0207 3.32534 30.0482 3.33908 30.0665 3.3574C30.2586 3.61967 30.4 3.91559 30.4832 4.22986C30.497 4.31688 30.529 4.38328 30.4649 4.45885C30.2932 4.61105 30.1111 4.75108 29.9199 4.87791C29.8077 4.97866 29.6909 5.07255 29.565 5.16415C29.5411 5.18266 29.5125 5.19424 29.4824 5.1976C29.4524 5.20097 29.4219 5.19599 29.3945 5.18322C29.3671 5.17045 29.3437 5.15038 29.3269 5.12521C29.3101 5.10003 29.3006 5.07072 29.2994 5.04049C29.2977 4.95494 29.2807 4.87037 29.249 4.79089C29.162 4.62144 28.7131 4.20467 28.6971 4.30085C28.665 4.50236 28.8505 4.48404 29.036 4.79776C29.0932 4.94356 29.1212 5.09916 29.1185 5.25575C29.1414 5.63358 28.5712 5.92898 28.4864 5.90609C28.3582 5.87174 28.3788 5.11835 28.4635 4.87562C28.5025 4.76341 28.5712 4.70158 28.562 4.55732C28.5576 4.47112 28.5576 4.38475 28.562 4.29856C28.5772 4.14586 28.5718 3.99182 28.546 3.84057C28.4839 3.67055 28.3639 3.52784 28.2071 3.43754C28.1485 3.39618 28.0926 3.35105 28.0399 3.30244C27.9441 3.19959 27.8667 3.08109 27.8109 2.95208C27.7491 2.82842 27.701 2.72309 27.6071 2.72309C27.5913 2.72199 27.5755 2.72641 27.5626 2.7356C27.5497 2.74478 27.5403 2.75816 27.5361 2.77346C27.4903 2.90628 27.7651 3.29786 28.3032 3.68944C28.4429 3.79477 28.4177 4.33748 28.3765 4.53671C28.3446 4.63738 28.2999 4.73356 28.2437 4.82295C28.1498 5.14386 28.1103 5.47824 28.1269 5.8122C28.1489 5.90852 28.1479 6.00866 28.1241 6.10453C28.1002 6.2004 28.0541 6.28931 27.9895 6.36407L27.3438 7.03044C27.3223 7.05091 27.2959 7.06547 27.2672 7.07273C27.2385 7.07998 27.2083 7.07968 27.1798 7.07184C27.1512 7.064 27.1251 7.0489 27.1041 7.028C27.0831 7.0071 27.0678 6.98112 27.0598 6.95258C27.0168 6.76789 26.9391 6.59305 26.8308 6.43735C26.6925 6.28921 26.5647 6.13158 26.4484 5.96562C26.3957 5.86487 26.4324 5.80762 26.3499 5.72518C26.2675 5.64274 26.1988 5.61984 26.1942 5.72518C26.1942 5.93814 26.4461 6.31369 26.5698 6.46025C26.7299 6.64762 26.8367 6.87462 26.8789 7.11746C26.916 7.23966 26.92 7.36949 26.8906 7.49377C26.8613 7.61805 26.7996 7.73234 26.7117 7.82505C26.6216 7.91467 26.5367 8.00948 26.4576 8.109C26.4218 8.20518 26.379 8.29857 26.3293 8.38837C26.1759 8.58301 25.9309 8.72728 25.7614 8.91505C25.6996 8.98146 25.4019 9.26083 25.2599 9.44631C25.2251 9.4915 25.1834 9.53091 25.1363 9.5631C25.0241 9.63867 24.921 9.7234 24.8042 9.79209C24.7155 9.83803 24.6291 9.88847 24.5455 9.94323C24.4653 10.0073 24.4287 10.1012 24.3577 10.1722C24.2925 10.2324 24.2071 10.2658 24.1184 10.2658C24.0297 10.2658 23.9443 10.2324 23.8791 10.1722C23.6936 10.0165 23.5173 9.83331 23.3158 9.68447C23.1397 9.56305 22.9488 9.46455 22.7479 9.39136C22.7315 9.38462 22.7169 9.374 22.7055 9.36042C22.6941 9.34684 22.6861 9.3307 22.6823 9.31337C22.6785 9.29605 22.6789 9.27805 22.6835 9.26093C22.6882 9.2438 22.6969 9.22806 22.7089 9.21503C23.0341 8.85551 23.4326 8.54637 23.6959 8.14564C23.989 7.70597 23.9684 7.22966 24.2409 6.77168C24.3938 6.57289 24.5574 6.38254 24.7309 6.20149C24.763 6.16601 24.7875 6.12434 24.8028 6.07905C24.8182 6.03377 24.8241 5.98581 24.8203 5.93814C24.7951 5.80304 24.6645 5.93814 24.6256 5.97249C24.5249 6.04119 24.447 6.20149 24.3623 6.29079C24.2718 6.37473 24.1919 6.46931 24.1241 6.57245C23.9831 6.80256 23.8679 7.04754 23.7806 7.30294C23.7322 7.55719 23.6458 7.80268 23.5242 8.03114C23.3481 8.24333 23.1484 8.43465 22.9288 8.60133C22.7364 8.77537 22.686 8.99062 22.4845 9.14862C22.283 9.30663 22.0563 9.27228 21.7976 9.199C21.3144 9.0639 20.8816 8.8349 20.3892 8.67461C19.9633 8.53034 19.5488 8.3815 19.1183 8.24181C18.9204 8.14518 18.7375 8.02021 18.5756 7.87084C18.5635 7.85891 18.5543 7.84433 18.5487 7.82824C18.5432 7.81215 18.5415 7.79499 18.5437 7.77812C18.5459 7.76125 18.552 7.74512 18.5615 7.73101C18.5711 7.7169 18.5837 7.70519 18.5985 7.69681C18.831 7.51691 19.0443 7.31356 19.2351 7.08998C19.4714 6.90729 19.6619 6.67209 19.7916 6.403C19.9499 6.10592 20.1758 5.85021 20.4511 5.65648C20.5908 5.52367 21.4724 4.9695 21.6166 4.83898ZM18.5619 6.84038C18.8129 6.69758 19.0173 6.48525 19.1504 6.22897C19.193 6.10835 19.2649 6.00021 19.3596 5.91428C19.4543 5.82834 19.5689 5.76729 19.6931 5.73663C19.8351 5.67709 20.5358 5.30612 20.49 5.41604C20.4099 5.59924 19.9496 5.71373 19.7595 5.98165C19.6061 6.1992 19.5305 6.37781 19.3794 6.60222C19.1646 6.88885 18.9154 7.14803 18.6375 7.37393C18.4382 7.57086 18.2138 7.77925 18.0398 7.46095C17.8955 7.21592 18.381 6.96861 18.5619 6.84038Z" fill="#002638"/>
<path d="M46.8975 11.0309C46.9822 11.2599 47.1975 11.3744 47.4127 11.5049C47.628 11.6355 48.0127 11.8851 48.3287 12.066C48.5689 12.269 48.8281 12.4485 49.1027 12.6018C49.3317 12.6797 49.7508 13.0713 50.0187 13.2384C50.0488 13.258 50.0801 13.2756 50.1126 13.2911C50.2614 13.3598 50.4789 13.4193 50.5339 13.4399C50.7608 13.4851 50.9634 13.6113 51.1041 13.7949C51.2575 14.0399 51.601 14.9765 51.7911 14.8482C51.9811 14.72 51.7911 14.2529 51.7338 14.1361C51.6228 13.8959 51.4744 13.6749 51.2942 13.4812C51.147 13.3365 50.9659 13.231 50.7675 13.1743C50.6224 13.0867 50.469 13.0138 50.3095 12.9568C50.0378 12.8698 49.7858 12.7306 49.5676 12.5469C49.1508 12.1232 48.9836 12.1118 48.1249 11.663L47.7402 11.45C47.5041 11.3438 47.2939 11.1876 47.1242 10.992C47.0624 10.905 47.0166 10.8088 46.9593 10.7195C46.8746 10.5867 46.5494 10.2615 46.4441 10.3875C46.3388 10.5134 46.7716 10.6806 46.8975 11.0309Z" fill="#002638"/>
<path d="M58.8374 23.8252H58.3153C59.3206 21.6131 58.4848 19.2453 57.2963 17.6927C56.2796 16.3669 54.6514 15.2013 53.3049 15.5837C53.0677 15.6555 52.8489 15.7781 52.6638 15.943C52.4787 16.1079 52.3318 16.3112 52.2333 16.5386C51.6997 17.6378 51.8692 19.4903 52.3432 20.6445C52.8172 21.7986 54.1179 23.1977 55.6132 23.8252H49.7807L49.5518 23.3077C49.2004 22.4808 48.8992 21.6335 48.6495 20.7704C48.8923 20.8445 49.1445 20.883 49.3983 20.8849C49.6727 20.8892 49.9452 20.838 50.1994 20.7345C50.4535 20.6311 50.6842 20.4774 50.8776 20.2827C51.6196 19.5316 51.6676 18.3591 50.999 17.292C49.8838 15.515 46.8931 15.3822 45.5398 15.7051L45.9108 17.2531C45.9863 17.2348 46.0711 17.221 46.1627 17.2073C46.5596 19.4709 47.1881 21.6877 48.0381 23.8229H43.5613C44.4447 23.3601 45.4373 23.1463 46.4329 23.2046L46.5519 21.6177C45.5592 21.5554 44.5642 21.6996 43.63 22.0413C43.4789 21.5673 43.3254 21.0406 43.1858 20.4888C43.7389 20.3716 44.2999 20.2951 44.8643 20.2598L44.7498 18.6728C44.1138 18.7163 43.4817 18.8051 42.8583 18.9385C42.7787 18.4656 42.7275 17.9885 42.7049 17.5096C43.417 17.3424 44.1773 17.205 44.7933 17.1157L44.5643 15.5402C43.2545 15.7303 41.4843 16.0944 40.4424 16.5501L41.0813 18.0088L41.1363 17.9859C41.3074 19.6276 41.6638 21.2446 42.1988 22.8062C42.0285 22.9286 41.8649 23.0601 41.7087 23.2L42.2744 23.8298H41.0241L40.8225 23.4542C40.1982 22.2377 39.8317 20.9054 39.7463 19.5407L40.0302 19.2842L39.7005 18.9179C39.657 18.1439 39.657 17.3928 39.6593 16.6989V16.1173H38.0563C38.0563 16.2982 38.0563 16.4882 38.0563 16.6829C38.0563 17.3332 38.0563 18.0568 38.093 18.8171C37.9736 18.9043 37.8497 18.9854 37.722 19.0598C37.4127 19.2561 37.0593 19.3718 36.6938 19.3965C36.6016 18.3305 36.5749 17.2598 36.6137 16.1906L35.0222 16.1241C34.9809 17.2921 35.013 18.4615 35.1183 19.6254C35.132 20.0112 35.2965 20.3763 35.5763 20.6422C35.8025 20.8229 36.0777 20.9314 36.3663 20.9536C36.4705 20.9647 36.5753 20.9701 36.6801 20.9696C37.2321 20.961 37.7749 20.8263 38.267 20.5758C38.4191 21.699 38.7419 22.7925 39.2242 23.8183H34.4336C34.2184 21.6475 34.1062 18.5309 34.4336 16.4241L32.865 16.1906C32.7271 17.1257 32.6506 18.0689 32.6361 19.014C32.0663 19.041 31.4983 19.0983 30.9346 19.1858C30.9759 17.9034 31.0194 16.96 31.0629 16.4195L29.476 16.2913C29.4256 16.9233 29.3752 18.0408 29.3294 19.5865C29.0956 19.6683 28.8663 19.7623 28.6424 19.8682L29.279 21.1803C29.2607 21.9726 29.2424 22.8451 29.2241 23.7908V23.832H28.118C28.2508 21.4986 27.7791 18.1072 27.2204 16.1012L25.4274 16.4516C24.5778 17.3928 23.7832 19.0713 23.2107 20.704C22.9542 20.7704 22.6955 20.8391 22.4321 20.8986L22.7367 22.2131C22.5879 22.7455 22.4702 23.286 22.384 23.832H22.036L21.9833 23.6832C21.7337 23.0603 21.1956 19.7308 22.4413 17.2164L22.7688 16.5547L21.4475 15.7784L21.0261 16.0806C20.0735 16.7676 19.2171 17.8347 18.5255 18.8629C18.569 18.0706 18.6331 17.2851 18.7545 16.5363L17.1745 16.2913C17.163 16.3623 17.1539 16.4333 17.1447 16.502C15.7158 18.0546 14.3578 20.443 13.4808 22.9527L14.9853 23.4725C15.4792 22.0754 16.1209 20.735 16.8997 19.4743L16.8653 20.3124C16.8447 20.8689 16.8241 21.3956 16.7943 21.9154L18.2668 22.3734C18.3469 22.2428 18.4522 22.0551 18.5828 21.8215C19.0678 20.936 19.603 20.0789 20.1857 19.2545C19.9638 20.7697 20.0283 22.3131 20.3758 23.8046H11.3558C12.0862 23.3466 12.9037 22.5108 13.6457 21.0406C14.3075 19.7102 14.2411 17.3149 13.8449 16.4608L12.4 17.1271C12.59 17.5393 12.6725 19.4171 12.2191 20.333C11.3351 22.1054 10.4009 22.6001 9.92913 22.7375C9.69204 22.8248 9.43043 22.8174 9.19864 22.7169C8.96965 22.5795 8.78645 21.478 9.09559 20.5712C9.57648 19.172 11.4084 17.6836 12.203 17.6126L12.0588 16.0257C10.4993 16.1906 8.20252 18.2515 7.57966 20.0834C7.21556 21.146 7.15373 22.9436 8.03765 23.8366H6.68888L6.87894 23.6511C5.53934 22.2772 5.12257 20.9536 4.98746 19.946C5.99732 19.6254 7.84071 18.8217 8.83225 17.1065L7.4583 16.3096C6.74842 17.5393 5.34011 18.1416 4.55467 18.4026C4.84091 17.9446 5.14318 17.4867 5.47064 17.0561L4.19286 16.1081C2.79829 17.9904 1.82507 20.001 0.792315 22.1146C0.604541 22.4833 0.169455 23.5618 0 24.0954H0.32517C0.339969 24.1117 0.357978 24.1248 0.378072 24.1339C0.398167 24.143 0.419914 24.1478 0.441956 24.1481H5.20501C5.37217 24.3519 5.54621 24.5511 5.73627 24.748L6.35455 24.1481H8.47273C8.80376 24.3195 9.17164 24.4075 9.54442 24.4045C9.82118 24.4036 10.0964 24.3635 10.3619 24.2855C10.4945 24.2481 10.6245 24.2022 10.7512 24.1481H42.5812L42.7896 24.3771C42.8812 24.2923 42.9774 24.2168 43.0713 24.1481H57.7268L58.0588 24.3473C58.0978 24.2809 58.1344 24.2145 58.171 24.1481H58.858C58.8793 24.1484 58.9004 24.1444 58.9201 24.1365C58.9398 24.1286 58.9577 24.1168 58.9729 24.1019C58.988 24.087 59 24.0692 59.0082 24.0496C59.0164 24.03 59.0206 24.009 59.0206 23.9878C59.0208 23.9646 59.016 23.9416 59.0066 23.9204C58.9972 23.8992 58.9833 23.8803 58.9659 23.8648C58.9486 23.8494 58.9281 23.8379 58.906 23.8311C58.8838 23.8243 58.8604 23.8222 58.8374 23.8252ZM49.6502 18.1416C49.9113 18.5583 49.9479 18.9591 49.7464 19.1652C49.5449 19.3713 49.1556 19.33 48.7434 19.0782L48.3495 19.7193C48.1022 18.8034 47.8916 17.9149 47.7793 17.2371C48.5694 17.3584 49.3342 17.6401 49.6502 18.1416ZM1.79072 23.8252C1.91194 23.48 2.05105 23.1414 2.20749 22.8107C2.6151 21.9703 3.01584 21.1483 3.43489 20.3491C3.64198 21.6145 4.15969 22.8089 4.94166 23.8252H1.79072ZM30.8247 23.8252C30.843 22.7214 30.8659 21.7162 30.8866 20.8162C31.4646 20.7096 32.049 20.6416 32.6361 20.6124C32.659 21.6497 32.7276 22.7398 32.8353 23.8366H30.8247V23.8252ZM26.1052 18.2515C26.2174 18.8492 26.3159 19.4903 26.3937 20.1384C25.9644 20.1432 25.5362 20.1838 25.1136 20.2598C25.3896 19.5648 25.7212 18.8932 26.1052 18.2515ZM24.4816 22.0276C25.152 21.8355 25.8453 21.7354 26.5426 21.7299C26.587 22.4314 26.587 23.1351 26.5426 23.8366H24.0236C24.1354 23.2213 24.2845 22.6133 24.4702 22.0161L24.4816 22.0276ZM56.133 23.8366L56.5406 22.481C55.3956 22.1352 54.1843 20.9215 53.827 20.0514C53.3393 18.8583 53.4836 17.3287 53.7584 17.1248C54.1453 17.0264 55.146 17.5027 56.0483 18.6728C56.5177 19.2842 57.9489 21.4414 56.694 23.5412L57.1887 23.8366H56.133Z" fill="#002638"/>
</g>
<defs>
<clipPath id="clip0_1404_3962">
<rect width="59" height="27.3234" fill="white" transform="translate(0 0.389648)"/>
</clipPath>
</defs>
</svg>
