<svg width="60" height="60" viewBox="0 0 60 60" fill="none" xmlns="http://www.w3.org/2000/svg">
<path d="M36.0604 54.649C35.5657 54.7723 35.0613 54.8818 34.5606 54.974C33.2517 55.2174 32.3864 56.4762 32.6285 57.7862C32.7481 58.4307 33.1141 58.9675 33.611 59.3179C34.1232 59.6784 34.7751 59.8412 35.4393 59.7176C36.0355 59.607 36.6364 59.4768 37.2261 59.3297C38.5186 59.008 39.306 57.6986 38.9836 56.4068C38.6619 55.1138 37.3537 54.327 36.0604 54.649Z" fill="#797793"/>
<path d="M53.8973 22.3189C54.0662 22.8281 54.3888 23.2437 54.7962 23.531C55.4004 23.9565 56.1909 24.0996 56.9453 23.8502C58.21 23.4302 58.8953 22.0664 58.4769 20.8023C58.2862 20.2261 58.0747 19.648 57.8494 19.0852C57.3546 17.8483 55.9516 17.2461 54.7141 17.7408C53.4778 18.2353 52.8754 19.6387 53.3705 20.876C53.5599 21.3491 53.7372 21.8347 53.8973 22.3189Z" fill="#797793"/>
<path d="M43.898 51.2052C43.4725 51.4861 43.0333 51.758 42.5909 52.0127C41.4367 52.6785 41.0414 54.1539 41.7069 55.3076C41.8876 55.6214 42.1283 55.8779 42.4055 56.074C43.1495 56.5975 44.1601 56.6759 45.0014 56.1912C45.5273 55.8878 46.0503 55.5651 46.5571 55.2301C47.6681 54.4961 47.9739 52.9995 47.2395 51.888C46.5052 50.7761 45.0094 50.4707 43.898 51.2052Z" fill="#797793"/>
<path d="M59.9774 29.0557C59.9249 27.7244 58.8036 26.6882 57.4719 26.7402C56.1419 26.7926 55.1049 27.9144 55.1572 29.2451C55.1772 29.7539 55.1823 30.2704 55.1706 30.7787C55.1519 31.6135 55.5602 32.3577 56.1948 32.805C56.5728 33.0712 57.0316 33.2323 57.529 33.2437C58.8603 33.2732 59.9636 32.2173 59.9931 30.8853C60.0064 30.278 60.0014 29.6626 59.9774 29.0557Z" fill="#797793"/>
<path d="M53.5041 44.8598C52.4365 44.0589 50.9262 44.2763 50.1267 45.3419C49.8205 45.75 49.4981 46.153 49.1679 46.5411C48.305 47.5549 48.4269 49.0776 49.4407 49.9411C49.4984 49.9901 49.5569 50.0351 49.6175 50.0774C50.6253 50.7879 52.026 50.6247 52.8409 49.6684C53.2352 49.2054 53.6195 48.7239 53.9854 48.2365C54.7851 47.1709 54.5686 45.6596 53.5041 44.8598Z" fill="#797793"/>
<path d="M57.0496 36.1409C55.7785 35.7423 54.4249 36.4499 54.0266 37.721C53.8742 38.2066 53.7052 38.6945 53.5228 39.1724C53.1223 40.2243 53.5061 41.3817 54.3857 42.002C54.547 42.1153 54.7248 42.2114 54.9178 42.2844C56.1623 42.7593 57.5559 42.1349 58.0303 40.8899C58.2468 40.3218 58.4478 39.7413 58.6295 39.164C59.0274 37.8926 58.3204 36.5394 57.0496 36.1409Z" fill="#797793"/>
<path d="M25.5371 54.9957C23.3807 54.6085 21.312 53.9491 19.3504 53.0295C19.3272 53.0174 19.3064 53.0036 19.2821 52.9925C18.8198 52.7749 18.3583 52.5419 17.911 52.2984C17.9095 52.2966 17.9066 52.2954 17.9042 52.2944C17.0835 51.8424 16.2826 51.3424 15.5045 50.7946C4.15815 42.802 1.43004 27.0684 9.42322 15.7222C11.1613 13.2559 13.2647 11.1984 15.6096 9.56759C15.6385 9.54747 15.6674 9.52748 15.696 9.50723C23.9591 3.81369 35.1792 3.42999 43.9533 9.28062L42.0688 12.0034C41.5449 12.7613 41.8672 13.3136 42.7844 13.231L50.9701 12.4982C51.8885 12.4156 52.4376 11.6213 52.1906 10.7344L49.9925 2.81451C49.7464 1.92664 49.1164 1.82036 48.5919 2.5781L46.7031 5.30737C40.2641 0.984983 32.5411 -0.663207 24.8756 0.666024C24.1036 0.799644 23.3424 0.963186 22.5916 1.15355C22.5858 1.15459 22.5811 1.15523 22.5765 1.15626C22.5475 1.16336 22.5181 1.17277 22.4898 1.18064C15.8798 2.8781 10.1126 6.73333 5.99735 12.2339C5.96266 12.2751 5.92693 12.3153 5.89417 12.3601C5.75733 12.5444 5.62152 12.7329 5.48854 12.9215C5.27109 13.2305 5.05673 13.5473 4.85166 13.8641C4.82599 13.9022 4.80639 13.941 4.78394 13.9796C1.388 19.242 -0.250005 25.3258 0.0309054 31.5195C0.0315503 31.5399 0.0303895 31.5604 0.0309054 31.5813C0.0581194 32.1863 0.106099 32.7997 0.171232 33.4036C0.174714 33.4425 0.183356 33.4794 0.189933 33.5184C0.257259 34.1256 0.341739 34.7342 0.447628 35.3428C1.52381 41.5514 4.4526 47.1383 8.84128 51.4854C8.85147 51.4956 8.86205 51.5067 8.87237 51.5173C8.87598 51.5213 8.87998 51.5234 8.88346 51.5271C10.0626 52.6901 11.3451 53.7657 12.7261 54.7384C16.34 57.2849 20.3642 58.9681 24.6859 59.7437C25.9972 59.9793 27.2498 59.1064 27.4851 57.7957C27.7202 56.4842 26.8481 55.2305 25.5371 54.9957Z" fill="#797793"/>
<path d="M28.5197 10.7305C27.4411 10.7305 26.5674 11.6049 26.5674 12.682V32.1248L44.3494 41.3171C44.6356 41.4653 44.942 41.5351 45.2436 41.5351C45.9498 41.5351 46.632 41.1505 46.9788 40.4794C47.4734 39.5216 47.0991 38.345 46.1414 37.8503L30.4698 29.7483V12.682C30.4697 11.6049 29.597 10.7305 28.5197 10.7305Z" fill="#797793"/>
</svg>
