<svg width="58" height="58" viewBox="0 0 58 58" fill="none" xmlns="http://www.w3.org/2000/svg">
<path d="M57.5164 12.3588C57.2627 11.3359 55.9826 10.9892 55.2372 11.7346L46.8136 20.1582L39.1241 18.877L37.8429 11.1875L46.2665 2.76389C47.0164 2.01397 46.655 0.736159 45.6253 0.480144C40.2581 -0.849775 34.3482 0.583229 30.1534 4.77689C25.6629 9.26735 24.4271 15.7765 26.2962 21.4519L2.12317 45.6249C-0.707723 48.4558 -0.707723 53.0459 2.12317 55.8768C4.95406 58.7077 9.5442 58.7077 12.3751 55.8768L36.5277 31.7242C42.2054 33.6171 48.702 32.3676 53.2219 27.8477C57.4213 23.6484 58.852 17.7294 57.5164 12.3588ZM7.25026 53.4685C5.74929 53.4685 4.53152 52.2507 4.53152 50.7497C4.53152 49.2476 5.74929 48.031 7.25026 48.031C8.75124 48.031 9.96901 49.2476 9.96901 50.7497C9.96901 52.2507 8.75124 53.4685 7.25026 53.4685Z" fill="#797793"/>
</svg>
