<?xml version="1.0" standalone="no"?>
<!DOCTYPE svg PUBLIC "-//W3C//DTD SVG 1.1//EN" "http://www.w3.org/Graphics/SVG/1.1/DTD/svg11.dtd" >
<svg xmlns="http://www.w3.org/2000/svg" xmlns:xlink="http://www.w3.org/1999/xlink" version="1.1">
<metadata>
Created by FontForge 20170731 at Wed Oct 13 10:45:15 2021
 By Aleksey,,,
(c) Copyright 2006, 2007 Berthold LLC. All Rights Reserved. This font software computer program is the property of Berthold. You may not reproduce, modify, adapt, translate, alter nor create derivative works of the font software. You may not reverse engineer, decompile, decrypt, disassemble, nor seek to discover the source code of the font software.
</metadata>
<defs>
<font id="ImagoPro-Medium" horiz-adv-x="1193" >
  <font-face 
    font-family="Imago Pro Medium"
    font-weight="500"
    font-stretch="normal"
    units-per-em="2048"
    panose-1="2 11 6 0 6 0 0 2 0 4"
    ascent="1536"
    descent="-512"
    x-height="1024"
    cap-height="1446"
    bbox="-578 -571 2679 2044"
    underline-thickness="102"
    underline-position="-307"
    unicode-range="U+0020-FB02"
  />
<missing-glyph horiz-adv-x="1024" 
d="M0 0v1446h1024v-1446h-1024zM512 821l348 522h-696zM573 723l349 -528v1056zM164 102h696l-348 529zM102 1251v-1056l349 528z" />
    <glyph glyph-name="fi" unicode="fi" 
d="M1083 1180h-331v256h331v-256zM1083 0h-331v1024h331v-1024zM471 0h-332v879h-133v145h133v102q0 21 1.5 40t9 55t21 65t41 62.5t65 56t96.5 38t133 15.5q106 0 182 -31v-176q-52 21 -98 21q-64 0 -91.5 -39t-27.5 -127v-82h164v-145h-164v-879z" />
    <glyph glyph-name="fl" unicode="fl" 
d="M1083 0h-331v1446h331v-1446zM471 0h-332v879h-133v145h133v102q0 21 1.5 40t9 55t21 65t41 62.5t65 56t96.5 38t133 15.5q106 0 182 -31v-176q-52 21 -98 21q-64 0 -91.5 -39t-27.5 -127v-82h164v-145h-164v-879z" />
    <glyph glyph-name=".notdef" horiz-adv-x="1024" 
d="M0 0v1446h1024v-1446h-1024zM512 821l348 522h-696zM573 723l349 -528v1056zM164 102h696l-348 529zM102 1251v-1056l349 528z" />
    <glyph glyph-name=".null" horiz-adv-x="0" 
 />
    <glyph glyph-name="nonmarkingreturn" horiz-adv-x="682" 
 />
    <glyph glyph-name="space" unicode=" " horiz-adv-x="555" 
 />
    <glyph glyph-name="exclam" unicode="!" horiz-adv-x="555" 
d="M119 1327h362l-20 -897h-324zM467 0h-336v303h336v-303z" />
    <glyph glyph-name="quotedbl" unicode="&#x22;" horiz-adv-x="708" 
d="M666 1522l-82 -631h-95l-83 631h260zM303 1522l-82 -631h-94l-84 631h260z" />
    <glyph glyph-name="numbersign" unicode="#" horiz-adv-x="1366" 
d="M1276 836h-268l-29 -195h252v-203h-277l-63 -440h-207l64 440h-203l-62 -440h-209l62 440h-250v203h279l24 195h-258v204h285l55 408h213l-57 -408h200l56 408h207l-56 -408h242v-204zM801 836h-203l-29 -195h205z" />
    <glyph glyph-name="dollar" unicode="$" horiz-adv-x="1110" 
d="M485 1561h166v-218q210 -10 330 -59v-209q-76 39 -177 60.5t-194 21.5q-12 0 -24.5 -1t-43 -4t-55.5 -12.5t-50.5 -23.5t-40.5 -39.5t-15 -58.5q0 -60 41.5 -94.5t146.5 -75.5l84 -33q70 -27 113.5 -46.5t96 -48t84 -57.5t60 -68.5t41.5 -89t13 -110.5q0 -85 -28 -154
t-70 -112.5t-99 -74.5t-108.5 -45.5t-104.5 -20.5v-248h-168v242q-42 0 -98.5 2.5t-155 18t-155.5 42.5v234q73 -37 185.5 -68t227.5 -31q19 0 34.5 1t51 4.5t62.5 14t55 27t44 45t16 66.5q0 37 -15.5 66t-49 51.5t-64.5 37t-84 33.5l-68 25q-58 21 -98 38.5t-89.5 43.5
t-82 55.5t-61.5 68t-43.5 88.5t-14.5 109q0 167 110 265.5t295 119.5v222z" />
    <glyph glyph-name="percent" unicode="%" horiz-adv-x="1947" 
d="M72 842v65q0 233 90 331.5t270 98.5q88 0 149 -20.5t105 -69.5t65 -132t21 -206v-59q0 -106 -18 -184t-49.5 -126.5t-79.5 -78t-100.5 -40.5t-121.5 -11q-64 0 -111 9.5t-90.5 37.5t-70.5 75t-43 125t-16 185zM535 891q0 71 -2 117t-8 90t-18 68t-32 38.5t-49 14.5
q-69 0 -94 -76t-25 -273q0 -106 4.5 -167.5t17.5 -102.5t34.5 -55.5t58.5 -14.5q73 0 93 73t20 288zM1176 420v65q0 233 90 331.5t270 98.5q88 0 149 -20.5t105 -69.5t65 -132t21 -206v-59q0 -106 -18 -184t-49.5 -126.5t-79.5 -78t-100.5 -40.5t-121.5 -11q-64 0 -111 9.5
t-90.5 37.5t-70.5 75t-43 125t-16 185zM1638 469q0 72 -2 117t-8 89.5t-17.5 68.5t-31.5 38.5t-49 14.5q-69 0 -94 -75.5t-25 -272.5q0 -106 4.5 -167.5t17.5 -102.5t34.5 -55.5t58.5 -14.5q73 0 92.5 72t19.5 288zM1372 1327l-633 -1327h-168l639 1327h162z" />
    <glyph glyph-name="ampersand" unicode="&#x26;" horiz-adv-x="1431" 
d="M1090 758h251v-113q0 -160 -22 -226.5t-105 -152.5l218 -266h-410l-70 86q-161 -106 -381 -106q-236 0 -380 122.5t-144 323.5q0 144 79 245t247 175q-65 88 -91 151.5t-26 135.5q0 154 116.5 249t305.5 95q177 0 286 -83.5t109 -219.5q0 -114 -69.5 -184t-262.5 -156
l318 -390q21 45 26 79t5 130v105zM838 236l-361 460q-72 -44 -103.5 -95t-31.5 -122q0 -128 92 -213.5t228 -85.5q54 0 92.5 12.5t83.5 43.5zM641 954q100 51 137 92t37 101q0 59 -37.5 96t-97.5 37q-56 0 -91.5 -35t-35.5 -90q0 -80 88 -201z" />
    <glyph glyph-name="quotesingle" unicode="'" horiz-adv-x="346" 
d="M303 1522l-82 -631h-94l-84 631h260z" />
    <glyph glyph-name="parenleft" unicode="(" horiz-adv-x="854" 
d="M823 1446v-182h-28q-70 0 -124.5 -18t-91 -46t-62 -77.5t-39.5 -95t-21.5 -117.5t-9 -126.5t-1.5 -138.5v-199q0 -67 2.5 -118t11 -111.5t23.5 -104.5t42 -87t64.5 -70.5t92 -44t123.5 -16.5h18v-183h-61q-66 0 -122 6.5t-129.5 26.5t-139 67t-113.5 117
q-66 98 -95.5 233t-29.5 363q0 333 35.5 500t148.5 274q87 84 199 116t252 32h55z" />
    <glyph glyph-name="parenright" unicode=")" horiz-adv-x="854" 
d="M29 -289v183h28q55 0 100 11t79 28.5t60 47.5t44 60.5t30.5 76t19.5 85t10.5 96.5t4.5 101t1 108v203q0 67 -2.5 118t-11 111.5t-23.5 104.5t-42 87.5t-64.5 70.5t-92 44t-123.5 17h-18v182h61q66 0 122 -6.5t129.5 -26.5t139 -67t113.5 -117q66 -98 95.5 -233t29.5 -363
q0 -333 -35.5 -500t-148.5 -274q-87 -84 -199 -116t-252 -32h-55z" />
    <glyph glyph-name="asterisk" unicode="*" horiz-adv-x="811" 
d="M745 1200l-200 -98l198 -98l-84 -148l-184 121l12 -221h-170l15 221l-182 -121l-84 145l196 101l-196 92l81 149l185 -116l-15 219h170l-12 -219l184 121z" />
    <glyph glyph-name="plus" unicode="+" horiz-adv-x="1482" 
d="M1294 532h-395v-434h-315v434h-396v236h396v428h315v-428h395v-236z" />
    <glyph glyph-name="comma" unicode="," horiz-adv-x="512" 
d="M432 10l-162 -311h-198l168 301h-164v303h356v-293z" />
    <glyph glyph-name="hyphen" unicode="-" horiz-adv-x="894" 
d="M811 403h-727v256h727v-256z" />
    <glyph glyph-name="period" unicode="." horiz-adv-x="512" 
d="M430 0h-348v303h348v-303z" />
    <glyph glyph-name="slash" unicode="/" horiz-adv-x="894" 
d="M889 1446l-598 -1446h-285l600 1446h283z" />
    <glyph glyph-name="zero" unicode="0" 
d="M86 551v176q0 117 15 208t52 169.5t96.5 129.5t151 80t213.5 29q260 0 378 -133.5t118 -418.5v-160q0 -54 -1.5 -95t-7.5 -97t-16.5 -98.5t-30 -92.5t-46.5 -86t-68 -72t-92.5 -58.5t-121.5 -36t-153 -13.5q-92 0 -163.5 15.5t-134 54t-103 102.5t-63.5 163.5t-23 233.5z
M772 705q0 85 -2 141t-7.5 114.5t-16.5 93.5t-29.5 64.5t-45.5 42.5t-65 13q-110 0 -146 -110t-36 -407q0 -124 4.5 -204.5t15 -142.5t31 -94t49.5 -47t74 -15q40 0 68 12.5t47.5 44t31 70.5t17.5 107.5t8 138t2 178.5z" />
    <glyph glyph-name="one" unicode="1" 
d="M836 0h-351v1030h-282v205q418 50 633 121v-1356z" />
    <glyph glyph-name="two" unicode="2" 
d="M1079 0h-1026v188l176 150q87 74 138.5 119.5t121.5 114.5t125 133q62 72 95.5 138t33.5 144q0 52 -16.5 88.5t-43.5 54t-51.5 24.5t-49.5 7q-48 0 -84.5 -17.5t-55.5 -41.5t-31 -56t-15 -55t-3 -45v-47h-336v31q0 106 41.5 186.5t117.5 129.5t176.5 73t223.5 24
q78 0 145.5 -11t129.5 -37.5t106.5 -67.5t70.5 -105t26 -145q0 -131 -62 -238q-30 -52 -77.5 -107t-110.5 -111.5t-105 -91t-108 -87.5l-123 -96q518 6 571 6v-252z" />
    <glyph glyph-name="three" unicode="3" 
d="M43 399h328v-30q0 -52 12 -91t30 -60.5t43.5 -35.5t47.5 -18t47 -4q35 0 65 10t59 33t45.5 69t16.5 111q0 215 -209 215h-159v182h51q146 0 194 21q103 50 103 190q0 185 -162 185q-49 0 -84 -19t-53 -51.5t-25.5 -67.5t-7.5 -75v-41h-313v43q0 88 30.5 155.5t80 109
t119 67.5t140 36t150.5 10q240 0 350.5 -89.5t110.5 -245.5q0 -54 -15.5 -99t-36.5 -75t-56 -55t-61.5 -38t-65.5 -24t-54.5 -14t-42.5 -7q58 -5 104.5 -14t98 -31t86 -55.5t57.5 -90.5t23 -132q0 -391 -558 -391q-248 0 -368.5 89t-120.5 296v32z" />
    <glyph glyph-name="four" unicode="4" 
d="M1135 258h-144v-258h-311v258h-617v188q188 380 232 476q16 33 91 199t91 204h318q-210 -450 -273 -575l-129 -258h299v471h299v-471h144v-234z" />
    <glyph glyph-name="five" unicode="5" 
d="M1077 1090h-620l-13 -293q10 10 25.5 21t50.5 30t91 31t122 12q198 0 301 -114t103 -326q0 -228 -140 -348.5t-405 -120.5q-99 0 -180.5 16t-155.5 53.5t-116 110t-42 174.5q0 23 2 37h346v-29q0 -23 3.5 -46t14.5 -50.5t28 -48t47 -34t69 -13.5q180 0 180 290
q0 25 -1 46.5t-5 48.5t-11 48.5t-19.5 43.5t-30 36.5t-43 23.5t-57.5 9q-17 0 -37 -4.5t-48.5 -16t-53 -40t-36.5 -70.5h-307l33 760h905v-237z" />
    <glyph glyph-name="six" unicode="6" 
d="M1094 977h-314q0 61 -16 103.5t-42.5 61.5t-50 26.5t-48.5 7.5q-49 0 -84 -20.5t-56 -55t-33 -92t-16 -119t-4 -148.5q36 29 66 48t94.5 39t138.5 20q198 0 294.5 -109.5t96.5 -300.5q0 -108 -30.5 -191t-79.5 -132t-118.5 -80t-138 -42t-147.5 -11q-148 0 -246.5 32
t-160 104.5t-87.5 182.5t-26 274v68q0 68 2 119.5t8.5 113.5t18 109t32 98t48.5 87.5t69.5 71t93.5 55.5t122 33.5t153 12.5q213 0 337 -85t124 -248v-33zM436 412q0 -52 8.5 -96.5t27 -84t53 -62t81.5 -22.5q88 0 130 68.5t42 206.5q0 254 -162 254q-180 0 -180 -264z" />
    <glyph glyph-name="seven" unicode="7" 
d="M555 0h-383q255 470 305 565q15 27 71.5 139.5t117 233.5l69.5 139h-655v250h1020v-250q-47 -92 -148 -296.5t-157 -313.5z" />
    <glyph glyph-name="eight" unicode="8" 
d="M426 702q-56 7 -86.5 13t-73.5 20.5t-73 41.5t-50 67q-32 63 -32 147q0 180 128 266t361 86q485 0 485 -329q0 -140 -75 -215t-224 -97q95 -6 162 -34t102.5 -74.5t50.5 -99.5t15 -119q0 -104 -38 -181t-109.5 -123t-165 -67.5t-211.5 -21.5q-112 0 -199.5 17.5
t-160.5 58t-112.5 115.5t-39.5 181q0 50 9 94t33 89.5t61.5 79t99.5 57t143 28.5zM778 393q0 228 -172 228q-83 0 -133.5 -57.5t-50.5 -182.5q0 -234 176 -234q180 0 180 246zM754 991q0 31 -6.5 60t-21.5 59.5t-46.5 49t-75.5 18.5q-68 0 -116 -49.5t-48 -159.5
q0 -101 46.5 -143t109.5 -42q158 0 158 207z" />
    <glyph glyph-name="nine" unicode="9" 
d="M72 352h342q5 -202 155 -202q57 0 95 28.5t59.5 86.5t30 133.5t8.5 183.5q-117 -103 -297 -103q-66 0 -139 20.5t-125 63.5q-41 35 -65.5 70t-42 103t-17.5 165q0 442 528 442q178 0 286 -53.5t163 -180.5t55 -343q0 -310 -33.5 -452t-142.5 -226q-140 -106 -371 -106
q-369 0 -461 196q-28 57 -28 174zM760 915q0 265 -168 265q-92 0 -133 -69t-41 -218q0 -242 162 -242q34 0 62.5 11t57 37.5t44.5 81.5t16 134z" />
    <glyph glyph-name="colon" unicode=":" horiz-adv-x="555" 
d="M473 721h-348v303h348v-303zM473 0h-348v303h348v-303z" />
    <glyph glyph-name="semicolon" unicode=";" horiz-adv-x="555" 
d="M475 721h-350v303h350v-303zM475 10l-164 -311h-196l168 301h-164v303h356v-293z" />
    <glyph glyph-name="less" unicode="&#x3c;" horiz-adv-x="1482" 
d="M1184 61l-953 465v275l953 463v-279l-664 -303l664 -309v-312z" />
    <glyph glyph-name="equal" unicode="=" horiz-adv-x="1482" 
d="M1280 721h-1077v252h1077v-252zM1280 276h-1077v254h1077v-254z" />
    <glyph glyph-name="greater" unicode="&#x3e;" horiz-adv-x="1482" 
d="M1243 520l-952 -461v279l663 303l-663 309v312l952 -467v-275z" />
    <glyph glyph-name="question" unicode="?" horiz-adv-x="1110" 
d="M616 436h-321v266q21 0 56 2.5t99.5 15.5t108.5 34q137 64 137 229q0 23 -3.5 46t-14.5 51.5t-28.5 49.5t-49 35.5t-72.5 14.5q-82 0 -115.5 -53t-33.5 -166v-58h-336v41q0 34 1 57t8 64t19.5 72t38.5 66t62 61q45 31 106.5 51.5t123 27.5t90.5 9t53 2q66 0 129.5 -8.5
t133.5 -34.5t121.5 -66t85.5 -109t34 -159q0 -79 -26.5 -146t-69 -113t-100 -80t-116.5 -51.5t-121 -23.5v-127zM629 0h-340v303h340v-303z" />
    <glyph glyph-name="at" unicode="@" horiz-adv-x="1777" 
d="M1573 190l96 -118q-358 -326 -768 -326q-184 0 -336 56t-255 156t-159.5 239.5t-56.5 304.5q0 206 69 383t191 303.5t297 198t379 71.5q185 0 331 -75.5t229 -215.5t83 -321q0 -146 -41.5 -278.5t-109 -225.5t-156 -148t-180.5 -55q-79 0 -126 42.5t-52 117.5
q-124 -158 -279 -158q-128 0 -205.5 93t-77.5 247q0 152 62 287t166 216t221 81q80 0 134.5 -35t90.5 -117l27 107h176l-94 -430q-29 -141 -29 -199q0 -80 55 -80q64 0 125 85t96 207.5t35 236.5q0 215 -135.5 344t-361.5 129q-224 0 -395.5 -101.5t-265 -284.5t-93.5 -419
q0 -277 175.5 -443.5t465.5 -166.5q377 0 672 292zM1061 700q0 92 -41.5 144.5t-112.5 52.5q-101 0 -179.5 -122.5t-78.5 -280.5q0 -83 39.5 -133t104.5 -50q67 0 129.5 55.5t100.5 146t38 187.5z" />
    <glyph glyph-name="A" unicode="A" horiz-adv-x="1409" 
d="M1411 0h-377l-131 477h-403l-150 -477h-352l473 1446h524zM852 692l-139 516l-156 -516h295z" />
    <glyph glyph-name="B" unicode="B" horiz-adv-x="1366" 
d="M133 0v1446h545q258 0 354 -39q33 -14 62 -35t60.5 -56t50 -91t18.5 -125q0 -27 -3.5 -54t-18 -67.5t-38 -74.5t-68.5 -69t-106 -57q23 0 57 -8t80.5 -33t84.5 -62.5t65 -104.5t27 -152q0 -79 -18.5 -143t-47.5 -107t-73.5 -74.5t-89 -49t-101.5 -28t-103 -13.5t-102 -3
h-635zM496 666v-480h151q109 0 166 26.5t86 82.5q31 57 31 135q0 132 -88 193q-37 27 -88.5 35t-157.5 8h-100zM496 846h131q82 0 132 17.5t79 62.5q34 53 34 135q0 124 -86 170q-30 18 -74 23.5t-124 5.5h-92v-414z" />
    <glyph glyph-name="C" unicode="C" horiz-adv-x="1409" 
d="M1350 956h-363v17q0 162 -57.5 237.5t-171.5 75.5q-95 0 -154 -52t-92 -186t-33 -362q0 -130 13 -225t34.5 -152.5t56.5 -91t72.5 -45.5t87.5 -12q235 0 250 327h377q-7 -135 -50 -228q-121 -254 -496 -287q-54 -5 -113 -5q-109 0 -196.5 17.5t-151.5 48.5t-111.5 80.5
t-77.5 107.5t-48 136.5t-25 160t-7 184.5q0 89 5 160t21.5 154.5t45.5 147t79.5 125.5t119.5 101.5t170.5 64t228.5 24.5q103 0 187 -14t160 -49t127.5 -90.5t81.5 -143t30 -201.5v-25z" />
    <glyph glyph-name="D" unicode="D" horiz-adv-x="1492" 
d="M133 0v1446h625q101 0 164.5 -4.5t149 -30t149.5 -74.5q52 -39 89.5 -99t56.5 -118t29.5 -137t12.5 -132t2 -128q0 -413 -156 -567q-45 -43 -100 -73.5t-104.5 -46.5t-117.5 -24.5t-115.5 -10t-121.5 -1.5h-563zM506 190h174q55 0 100.5 9t80 23.5t61.5 39.5t45.5 52
t32 66t21.5 75t12 86.5t5.5 93.5t1.5 102q0 66 -2 112.5t-9 104.5t-19.5 97.5t-36 80.5t-56 65.5t-81.5 40t-111 15.5h-219v-1063z" />
    <glyph glyph-name="E" unicode="E" horiz-adv-x="1110" 
d="M1081 0h-948v1446h893v-225h-526v-357h479v-227h-479v-412h581v-225z" />
    <glyph glyph-name="F" unicode="F" horiz-adv-x="1067" 
d="M1016 1221h-510v-404h473v-225h-473v-592h-373v1446h883v-225z" />
    <glyph glyph-name="G" unicode="G" horiz-adv-x="1449" 
d="M1350 0h-338v106q-56 -70 -164 -104.5t-221 -34.5q-284 0 -424 193q-71 101 -95 239t-24 303q0 120 13 218t42.5 188t80.5 156t125 115.5t178 74.5t237 25q119 0 214.5 -22.5t155 -54.5t102.5 -82.5t63.5 -91t31.5 -96.5t12.5 -82t1.5 -62v-1h-354q0 299 -235 299
q-68 0 -119.5 -26t-81.5 -80t-48.5 -104t-25.5 -132.5t-8.5 -128.5t-1.5 -127q0 -77 4.5 -138.5t15.5 -124.5t32 -108.5t52 -82t77 -55.5t106 -19q35 0 69.5 7.5t69 25.5t60.5 45t42.5 69t16.5 94v166h-238v203h576v-770z" />
    <glyph glyph-name="H" unicode="H" horiz-adv-x="1449" 
d="M1352 0h-373v649h-440v-649h-373v1446h373v-569h440v569h373v-1446z" />
    <glyph glyph-name="I" unicode="I" horiz-adv-x="641" 
d="M508 0h-375v1446h375v-1446z" />
    <glyph glyph-name="J" unicode="J" horiz-adv-x="937" 
d="M0 43v229q1 -1 23 -10.5t32.5 -14t35 -13.5t42.5 -13t43.5 -8t48.5 -4q76 0 127 39q50 38 63 97t13 192v909h375v-893q0 -63 -1.5 -104.5t-8 -100.5t-22 -108.5t-40.5 -89.5q-48 -75 -148.5 -125t-256.5 -50q-78 0 -145.5 12t-100.5 23.5t-80 32.5z" />
    <glyph glyph-name="K" unicode="K" horiz-adv-x="1366" 
d="M1376 0h-405l-340 614l-142 -170v-444h-356v1446h356v-600l451 600h375l-434 -528z" />
    <glyph glyph-name="L" unicode="L" horiz-adv-x="1110" 
d="M1087 0h-954v1446h375v-1221h579v-225z" />
    <glyph glyph-name="M" unicode="M" horiz-adv-x="1961" 
d="M1831 0h-348q-4 851 -4 1202q-9 -36 -99.5 -336.5t-177.5 -583.5l-86 -282h-274q-297 952 -363 1198q0 -86 -3 -622t-3 -576h-340q19 1417 19 1446h550l281 -969l285 969h551z" />
    <glyph glyph-name="N" unicode="N" horiz-adv-x="1492" 
d="M1362 0h-420q-460 897 -493 1001l12 -1001h-328v1446h426q18 -35 48.5 -94.5t110.5 -216.5t143 -285t120 -251t68 -163l-9 1010h322v-1446z" />
    <glyph glyph-name="O" unicode="O" horiz-adv-x="1492" 
d="M1409 776q0 -214 -34 -361.5t-112 -250t-206.5 -150t-317.5 -47.5q-178 0 -298.5 35.5t-202 120.5t-118 224.5t-36.5 348.5q0 82 4.5 148.5t16.5 141t34.5 133t57 117t86.5 101t119 75.5t159 50t203 17q152 0 264.5 -32t185 -89t116.5 -146.5t61.5 -193.5t17.5 -242z
M1026 758q0 71 -1.5 120t-7.5 108.5t-17 99.5t-31 81t-48.5 65t-70 39t-94.5 15q-57 0 -102 -18t-75 -46.5t-51.5 -77t-33 -95t-18 -117t-8 -126.5t-1.5 -138q0 -200 27 -309.5t85 -154t164 -44.5q105 0 165 53.5t89 183.5t29 361z" />
    <glyph glyph-name="P" unicode="P" horiz-adv-x="1280" 
d="M506 524v-524h-373v1446h615q67 0 115.5 -3t105 -14t95.5 -30t77.5 -53.5t62 -82t37.5 -117.5t14 -159q0 -246 -126.5 -354.5t-374.5 -108.5h-248zM506 717h123q70 0 115.5 11.5t80 41.5t49.5 85t15 140q0 132 -53.5 195t-178.5 63h-151v-536z" />
    <glyph glyph-name="Q" unicode="Q" horiz-adv-x="1492" 
d="M1470 -223h-305q0 24 -10 58t-29.5 71.5t-58.5 65t-88 30.5q-5 -1 -36.5 -8.5t-46.5 -10t-45.5 -7.5t-63 -7t-70.5 -2q-219 0 -371 82q-100 53 -156 129t-82 198t-26 316q0 218 39.5 368.5t124.5 243.5t209.5 134t304.5 41q164 0 279 -34.5t198 -114.5t122.5 -216.5
t39.5 -335.5q0 -272 -45.5 -422.5t-139.5 -230.5q67 -11 117 -46t75.5 -75.5t41 -90.5t19 -80.5t3.5 -55.5zM1018 743q0 72 -1.5 121t-7.5 111t-16.5 103t-30.5 84t-48 67.5t-69.5 40.5t-94.5 16q-44 0 -80.5 -11.5t-64 -29.5t-49 -48.5t-36 -61.5t-24.5 -76t-15.5 -83.5
t-8.5 -93t-4 -95.5t-1 -99q0 -205 27 -319.5t84 -161.5t157 -47q101 0 160.5 50.5t91 179t31.5 353.5z" />
    <glyph glyph-name="R" unicode="R" horiz-adv-x="1366" 
d="M133 1446h723q416 0 416 -373q0 -62 -13 -114.5t-32 -87t-48 -62.5t-54 -43.5t-58.5 -28t-51.5 -16.5t-42 -8q118 -16 180 -92q66 -82 100 -254l21 -101q24 -119 42.5 -170.5t55.5 -95.5h-383q-23 16 -41 57t-26 76t-25 115l-14 71q-22 110 -45.5 161t-69.5 87
q-57 43 -180 43h-90v-610h-365v1446zM498 799h155q129 0 189.5 55.5t60.5 179.5q0 57 -14 98t-36 64t-58.5 36.5t-70.5 17t-83 3.5h-143v-454z" />
    <glyph glyph-name="S" unicode="S" horiz-adv-x="1280" 
d="M1180 1075v-20q-258 4 -326 4q0 36 -4 65t-16.5 60.5t-33.5 52.5t-58 35t-87 14q-58 0 -101 -18.5t-64 -47t-30 -55t-9 -51.5q0 -41 18 -73t55 -55t71 -37t87 -31l119 -37q105 -33 177.5 -70t126.5 -88.5t79.5 -121t25.5 -161.5q0 -102 -31 -183t-83 -134t-124 -88.5
t-150.5 -50.5t-166.5 -15q-306 0 -451 108.5t-145 325.5v33q144 -4 353 -4v-16q0 -254 233 -254q57 0 100 17.5t65 41t35 55t16 52.5t3 41q0 32 -6 56t-21 44t-32 34t-48 28.5t-59 25t-75 25.5l-95 30q-71 23 -122.5 43t-103 47.5t-85.5 58.5t-61.5 71.5t-40.5 92.5t-13 115
q0 218 148 327.5t412 109.5q269 0 393.5 -97t124.5 -305z" />
    <glyph glyph-name="T" unicode="T" horiz-adv-x="1110" 
d="M1112 1221h-373v-1221h-370v1221h-371v225h1114v-225z" />
    <glyph glyph-name="U" unicode="U" horiz-adv-x="1449" 
d="M1325 1446v-914q0 -297 -140.5 -430t-475.5 -133q-319 0 -451.5 123t-132.5 416v938h373v-909q0 -169 24 -234q19 -47 70 -84t135 -37q88 0 150 45q54 38 72 108t18 200v911h358z" />
    <glyph glyph-name="V" unicode="V" horiz-adv-x="1323" 
d="M1315 1446l-406 -1446h-495l-406 1446h381l283 -1149l278 1149h365z" />
    <glyph glyph-name="W" unicode="W" horiz-adv-x="1878" 
d="M1591 0h-461l-192 930l-215 -930h-463l-262 1446h358l181 -1147l260 1147h303q202 -975 233 -1139l209 1139h338z" />
    <glyph glyph-name="X" unicode="X" horiz-adv-x="1323" 
d="M1331 0h-393l-276 489l-283 -489h-387l469 772l-398 674h396l215 -402l223 402h379l-399 -662z" />
    <glyph glyph-name="Y" unicode="Y" horiz-adv-x="1323" 
d="M1337 1446l-485 -950v-496h-369v496l-497 950h407l289 -610l272 610h383z" />
    <glyph glyph-name="Z" unicode="Z" horiz-adv-x="1280" 
d="M1227 0h-1182v205l748 1016h-666v225h1100v-217l-729 -1004h729v-225z" />
    <glyph glyph-name="bracketleft" unicode="[" horiz-adv-x="811" 
d="M770 -289h-610v1735h610v-172h-303v-1391h303v-172z" />
    <glyph glyph-name="backslash" unicode="\" horiz-adv-x="894" 
d="M889 0h-285l-598 1446h285z" />
    <glyph glyph-name="bracketright" unicode="]" horiz-adv-x="811" 
d="M651 -289h-610v172h303v1391h-303v172h610v-1735z" />
    <glyph glyph-name="asciicircum" unicode="^" horiz-adv-x="1482" 
d="M1311 580h-326l-246 577l-258 -577h-307l430 866h283z" />
    <glyph glyph-name="underscore" unicode="_" horiz-adv-x="1024" 
d="M1044 -467h-1064v211h1064v-211z" />
    <glyph glyph-name="grave" unicode="`" horiz-adv-x="555" 
d="M524 1139h-243l-250 303h329z" />
    <glyph glyph-name="a" unicode="a" horiz-adv-x="1150" 
d="M1087 0h-292q-52 0 -72.5 21t-20.5 83v13q-55 -64 -131.5 -104t-201.5 -40q-147 0 -226.5 82.5t-79.5 225.5q0 111 51 178t158 104q128 45 443 68v117q0 149 -142 149q-84 0 -122.5 -50.5t-38.5 -125.5v-19h-320v21q0 74 24.5 131t80 103t155.5 70t242 24q112 0 192 -15
t130 -41.5t78.5 -70.5t39 -93.5t10.5 -119.5v-504q0 -87 8.5 -131t34.5 -64v-12zM715 350v150q-150 -11 -211 -35q-107 -43 -107 -158q0 -22 3.5 -42t15.5 -50.5t43 -49t78 -18.5q178 0 178 203z" />
    <glyph glyph-name="b" unicode="b" 
d="M442 0h-331v1446h331v-551q27 26 40 38t48 37t65 38t77 24.5t98 11.5q132 0 213 -67q76 -59 107.5 -160t31.5 -291q0 -247 -67 -372q-16 -30 -40 -57t-61.5 -54.5t-95 -44t-125.5 -16.5q-197 0 -291 137v-119zM442 659v-301q0 -105 48 -155.5t120 -50.5q42 0 82 24.5
t60 63.5q36 73 36 288q0 117 -12 197q-24 147 -149 147q-88 0 -136.5 -59.5t-48.5 -153.5z" />
    <glyph glyph-name="c" unicode="c" horiz-adv-x="1130" 
d="M1073 657h-323q-5 238 -158 238q-41 0 -72.5 -16.5t-51 -47.5t-32 -66t-18.5 -83.5t-8 -87t-2 -88.5q0 -41 0.5 -65t3.5 -68.5t9.5 -72.5t19 -63.5t30.5 -56t46.5 -35t64.5 -14.5q77 0 121.5 59.5t44.5 176.5h325q0 -182 -127 -288t-379 -106q-239 0 -367 129t-128 412
q0 110 24 198t58.5 143t88 95t97.5 58.5t103 29t87.5 12t67.5 1.5q475 0 475 -394z" />
    <glyph glyph-name="d" unicode="d" 
d="M1085 0h-325v125q-121 -143 -324 -143q-89 0 -155 27.5t-105.5 72t-63 113.5t-32 140t-8.5 163q0 56 3 103.5t13 105.5t27.5 103.5t48.5 91t72.5 75.5t103 48.5t137.5 18.5q57 0 101 -9.5t79 -31.5t52.5 -37t50.5 -48v528h325v-1446zM758 401v258q0 93 -42.5 153
t-123.5 60q-66 0 -105 -34.5t-59 -120t-20 -232.5q0 -98 12 -164.5t36 -102.5t53.5 -51t70.5 -15q85 0 131 59q47 61 47 190z" />
    <glyph glyph-name="e" unicode="e" horiz-adv-x="1161" 
d="M1085 489h-675v-36q0 -49 2.5 -87t13.5 -85t29.5 -77t54 -51.5t84.5 -21.5q45 0 78.5 17t50.5 39.5t27 53t12 50t2 37.5h323q0 -72 -29 -134.5t-87 -112.5t-156.5 -79t-226.5 -29q-122 0 -213 26t-148 71t-91.5 113t-48 143.5t-13.5 171.5q0 130 28.5 228.5t75.5 159.5
t116.5 98.5t143.5 52t164 14.5q91 0 164.5 -16.5t123 -43t86.5 -66t57 -79.5t32.5 -91.5t16 -92.5t3.5 -91v-82zM414 631h346q0 264 -162 264q-81 0 -130.5 -65t-53.5 -199z" />
    <glyph glyph-name="f" unicode="f" horiz-adv-x="641" 
d="M471 0h-332v879h-133v145h133v102q0 21 1.5 40t9 55t21 65t41 62.5t65 56t96.5 38t133 15.5q106 0 182 -31v-176q-52 21 -98 21q-64 0 -91.5 -39t-27.5 -127v-82h164v-145h-164v-879z" />
    <glyph glyph-name="g" unicode="g" 
d="M1083 1024v-911q0 -55 -2 -95t-8 -90t-17.5 -86.5t-32 -77t-48.5 -69t-70 -55.5t-94.5 -43.5t-123 -26.5t-155.5 -10q-42 0 -80 2.5t-85.5 11t-86.5 21.5t-78 37t-66 55t-43.5 77.5t-16.5 102.5v47h325q0 -28 1.5 -47t10 -52.5t25 -55t49.5 -38t80 -16.5q189 0 189 285
v139q-48 -59 -126.5 -94t-178.5 -35q-67 0 -120 11.5t-103 43.5t-83 85t-53 140t-20 205q0 99 7 169t38 152.5t88 137.5q103 100 274 100q47 0 88 -9.5t68.5 -23t53 -34t38.5 -35t29 -35.5v117h327zM756 369v295q0 94 -38 151t-122 57q-49 0 -84 -20.5t-55 -52.5t-31 -82.5
t-14.5 -97.5t-3.5 -111q0 -67 3 -112.5t13 -94t28.5 -77.5t51 -47.5t78.5 -18.5q75 0 124.5 55t49.5 156z" />
    <glyph glyph-name="h" unicode="h" 
d="M1083 0h-331v668q0 64 -11 106.5t-32.5 62.5t-44.5 27.5t-54 7.5q-85 0 -126.5 -49t-41.5 -125v-698h-331v1446h331v-537q154 135 338 135q79 0 136.5 -22t89 -54t49.5 -81t23 -91t5 -96v-700z" />
    <glyph glyph-name="i" unicode="i" horiz-adv-x="555" 
d="M444 1180h-333v256h333v-256zM444 0h-333v1024h333v-1024z" />
    <glyph glyph-name="j" unicode="j" horiz-adv-x="555" 
d="M442 1024v-1063q0 -43 -3 -77.5t-13 -75.5t-27 -72.5t-46.5 -62.5t-70 -51t-99.5 -32t-132 -12q-66 0 -127 6v195q24 -4 47 -4q39 0 65 11.5t41.5 30t23.5 53.5t10 68.5t2 88.5v997h329zM442 1180h-329v256h329v-256z" />
    <glyph glyph-name="k" unicode="k" horiz-adv-x="1150" 
d="M1161 0h-358l-234 440l-133 -153v-287h-325v1446h325v-828l318 406h336l-299 -340z" />
    <glyph glyph-name="l" unicode="l" horiz-adv-x="555" 
d="M442 0h-331v1446h331v-1446z" />
    <glyph glyph-name="m" unicode="m" horiz-adv-x="1792" 
d="M1681 0h-331v694q0 178 -129 178q-77 0 -123 -55q-37 -43 -37 -112v-705h-330v676q0 101 -29.5 148.5t-101.5 47.5q-39 0 -74.5 -17.5t-56.5 -47.5q-16 -24 -21.5 -58t-5.5 -100v-649h-331v1024h331v-119q30 27 50 42t64.5 42t99 41t116.5 14q198 0 270 -155
q59 59 148.5 107t202.5 48q288 0 288 -311v-733z" />
    <glyph glyph-name="n" unicode="n" 
d="M1083 0h-329v657q0 111 -31.5 163t-112.5 52q-40 0 -76 -13.5t-64 -52.5t-28 -97v-709h-331v1024h331v-115q36 30 61.5 47.5t69 41t96.5 35t115 11.5q23 0 43.5 -1.5t52 -9t57.5 -19.5t54.5 -35t47.5 -54.5t31.5 -79.5t12.5 -108v-737z" />
    <glyph glyph-name="o" unicode="o" 
d="M1122 528q0 -153 -33 -259.5t-101 -171.5t-164 -94.5t-230 -29.5q-121 0 -212 25t-149.5 68.5t-95 109.5t-51 141t-14.5 170q0 60 3 106.5t16 108t35 107.5t63.5 94t98 78.5t141.5 50t192 19.5q96 0 172.5 -16.5t128.5 -43t89.5 -68.5t58.5 -84t33 -99t15.5 -104
t3.5 -108zM786 492v65q0 175 -41.5 256.5t-140.5 81.5q-98 0 -147 -84.5t-49 -284.5v-98q0 -299 188 -299q102 0 146 92t44 271z" />
    <glyph glyph-name="p" unicode="p" 
d="M111 1024h329v-123q12 17 29.5 34t56 45.5t100 46t134.5 17.5q103 0 175 -37t112 -107.5t57.5 -159t17.5 -205.5q0 -130 -20.5 -227.5t-66 -172.5t-126 -114t-194.5 -39q-190 0 -275 127v-531h-329v1446zM440 659v-301q0 -24 3.5 -48.5t14 -54t27.5 -51.5t48 -37t71 -15
q54 0 91.5 27t57 78.5t27.5 112.5t8 144q0 48 -1.5 80.5t-6.5 79t-16.5 77.5t-30 61t-49.5 45t-72 15q-86 0 -129 -58.5t-43 -154.5z" />
    <glyph glyph-name="q" unicode="q" 
d="M754 1024h329v-1446h-329v535q-131 -131 -299 -131q-96 0 -164.5 25.5t-119 84t-75 159.5t-24.5 247q0 101 11.5 181.5t39 150t72 116t112.5 72.5t158 26q197 0 289 -139v119zM754 379v285q0 89 -42 148.5t-126 59.5q-92 0 -135 -78.5t-43 -275.5q0 -201 38 -283.5
t138 -82.5q45 0 77.5 15.5t50 37.5t27.5 55t12.5 59.5t2.5 59.5z" />
    <glyph glyph-name="r" unicode="r" horiz-adv-x="768" 
d="M440 0h-331v1024h331v-182q31 88 105 145q69 55 153 55q47 0 82 -20v-268q-81 45 -149 45q-50 0 -87.5 -17.5t-56.5 -41t-30.5 -55.5t-14 -53t-2.5 -42v-590z" />
    <glyph glyph-name="s" unicode="s" horiz-adv-x="1024" 
d="M944 760v-17q-219 5 -287 7v12q0 23 -5 43.5t-18 44.5t-43.5 38.5t-74.5 14.5q-57 0 -98 -28.5t-41 -83.5q0 -94 176 -134l96 -22q56 -13 97 -27.5t84.5 -39.5t70.5 -57.5t44.5 -82.5t17.5 -113q0 -118 -59 -195.5t-160 -112t-242 -34.5q-41 0 -74.5 1.5t-82 8.5
t-85.5 18.5t-77.5 34t-67 53t-43.5 77.5t-17 106l2 35l305 -6v-18q0 -156 168 -156q62 0 102 31.5t40 93.5q0 29 -11 51.5t-25 35.5t-41 24.5t-43 15.5l-48 12l-131 33q-31 8 -49.5 13.5t-53.5 18.5t-57 26.5t-50 37t-44 50t-27.5 65.5t-11.5 84q0 160 112 246t322 86
q72 0 131 -7t116.5 -26.5t96 -51t62.5 -84t24 -122.5z" />
    <glyph glyph-name="t" unicode="t" horiz-adv-x="681" 
d="M463 879v-521q0 -93 23.5 -134.5t93.5 -41.5q34 0 79 13v-179q-111 -30 -219 -30q-94 0 -157.5 25t-94.5 63q-33 40 -44 97t-11 171v537h-131v145h131v201l330 67v-268h172v-145h-172z" />
    <glyph glyph-name="u" unicode="u" 
d="M1077 0h-329v117q-31 -27 -55 -44t-68 -41.5t-100 -37t-122 -12.5q-143 0 -222 74.5t-79 248.5v719h330v-647q0 -116 32.5 -170.5t115.5 -54.5q68 0 118 40.5t50 126.5v705h329v-1024z" />
    <glyph glyph-name="v" unicode="v" horiz-adv-x="1024" 
d="M698 0h-385l-317 1024h344l178 -719l201 719h309z" />
    <glyph glyph-name="w" unicode="w" horiz-adv-x="1622" 
d="M1616 1024l-268 -1024h-365q-154 563 -166 647q-6 -38 -51 -200t-87 -305l-42 -142h-367l-264 1024h336q144 -647 156 -743q7 44 54.5 229.5t91.5 349.5l44 164h279q166 -639 182 -743q4 41 42.5 226.5t74.5 350.5l37 166h313z" />
    <glyph glyph-name="x" unicode="x" horiz-adv-x="1024" 
d="M1028 0h-356l-172 317l-185 -317h-319l334 522l-299 502h348l149 -281l152 281h307l-295 -481z" />
    <glyph glyph-name="y" unicode="y" horiz-adv-x="1024" 
d="M1028 1024l-350 -1090q-37 -116 -71 -180t-79 -102q-96 -82 -280 -82q-114 0 -215 22v226q84 -21 145 -21q50 0 83 16.5t48.5 49t21 67t5.5 84.5l-340 1010h346l190 -748l183 748h313z" />
    <glyph glyph-name="z" unicode="z" horiz-adv-x="980" 
d="M930 0h-881v193l486 614h-449v217h844v-203l-475 -602h475v-219z" />
    <glyph glyph-name="braceleft" unicode="{" horiz-adv-x="724" 
d="M737 1446v-68q-124 -35 -167.5 -87.5t-43.5 -168.5v-262q0 -113 -45 -178.5t-153 -101.5q112 -38 155 -101t43 -170v-209q0 -85 7.5 -134t32 -86t63 -57.5t108.5 -41.5v-70q-168 2 -237.5 8.5t-124.5 26.5q-82 29 -120 105t-38 210v240q0 110 -33 161.5t-121 82.5v78
q86 23 121 79t35 170v267q0 154 86 231q57 51 131.5 63.5t300.5 12.5z" />
    <glyph glyph-name="bar" unicode="|" horiz-adv-x="647" 
d="M477 -289h-309v1735h309v-1735z" />
    <glyph glyph-name="braceright" unicode="}" horiz-adv-x="724" 
d="M-14 1376v70q168 -2 237.5 -8.5t124.5 -26.5q82 -29 120 -104.5t38 -210.5v-238q0 -110 32.5 -162.5t120.5 -81.5v-77q-87 -28 -120 -78t-33 -158v-283q0 -61 -14 -109t-36 -80t-58.5 -54.5t-70.5 -35t-84.5 -19t-88.5 -8t-93 -1.5h-75v70q127 37 169 88.5t42 167.5v260
q0 115 45.5 181.5t152.5 101.5q-111 37 -154.5 99t-43.5 169v209q0 68 -5.5 112t-17.5 78.5t-37.5 56.5t-60 38.5t-90.5 33.5z" />
    <glyph glyph-name="asciitilde" unicode="~" horiz-adv-x="1482" 
d="M1245 881l92 -256q-90 -116 -168.5 -167.5t-167.5 -51.5q-47 0 -97 18.5t-150 67.5l-74 36q-136 68 -213 68q-56 0 -100.5 -30.5t-108.5 -119.5l-18 -26l-95 258q82 122 154.5 171.5t171.5 49.5q54 0 108 -18.5t146 -63.5l111 -53q70 -34 100.5 -44.5t60.5 -10.5
q64 0 117.5 36.5t130.5 135.5z" />
    <glyph glyph-name="uni00A0" unicode="&#xa0;" horiz-adv-x="555" 
 />
    <glyph glyph-name="exclamdown" unicode="&#xa1;" horiz-adv-x="555" 
d="M424 1022h-338v305h338v-305zM436 0h-364q20 862 22 897h322z" />
    <glyph glyph-name="cent" unicode="&#xa2;" horiz-adv-x="1110" 
d="M518 1268h164v-217q397 -26 397 -392h-305q0 244 -172 244q-62 0 -104.5 -27t-66 -81t-33 -121.5t-9.5 -161.5q0 -91 8.5 -155.5t30 -118t62.5 -80.5t102 -27q41 0 73.5 14t51.5 39t31.5 49t18 56t7 46.5t2.5 33.5h309q0 -47 -10 -93t-37.5 -97t-70.5 -91t-116.5 -70
t-168.5 -38v-246h-164v243q-46 0 -106 13q-340 73 -340 495q0 45 2 83.5t9.5 87.5t20.5 89t35.5 84t53 78t76 64t102.5 49q23 8 48 14t41 8.5t35 5t23 3.5v217z" />
    <glyph glyph-name="sterling" unicode="&#xa3;" 
d="M997 506h-399q-29 -110 -88 -176t-121 -88h748v-242h-1119v221q95 19 149 83.5t81 201.5h-174v176h202q13 76 21.5 120.5t31.5 123.5t50 128t76 110t109.5 95.5t150 59t198.5 24.5q139 0 224 -24v-238q-71 47 -166 47q-135 0 -212.5 -107.5t-123.5 -338.5h362v-176z" />
    <glyph glyph-name="currency" unicode="&#xa4;" horiz-adv-x="1404" 
d="M1337 1159l-161 -160q53 -93 72.5 -157.5t19.5 -145.5q0 -169 -94 -309l161 -164l-168 -166l-159 164q-93 -54 -157 -73t-149 -19q-90 0 -160 21.5t-145 72.5l-164 -162l-165 164l161 164q-50 75 -71 145.5t-21 159.5q0 90 21 159t73 146l-161 160l166 166l159 -160
q138 95 310 95q167 0 305 -95l159 162zM1012 690q0 135 -88.5 227.5t-218.5 92.5q-132 0 -222 -91t-90 -225q0 -133 90 -223t224 -90q127 0 216 90t89 219z" />
    <glyph glyph-name="yen" unicode="&#xa5;" horiz-adv-x="1271" 
d="M1253 1327l-262 -510h191v-155h-273l-71 -134h344v-155h-373v-373h-338v373h-383v155h354l-75 134h-279v155h199l-271 510h373l264 -553l250 553h350z" />
    <glyph glyph-name="brokenbar" unicode="&#xa6;" horiz-adv-x="647" 
d="M477 700h-309v746h309v-746zM477 -289h-309v746h309v-746z" />
    <glyph glyph-name="section" unicode="&#xa7;" horiz-adv-x="854" 
d="M68 31v211q51 -33 131 -59.5t157 -26.5q62 0 93.5 26.5t31.5 63.5q0 36 -32.5 63t-126.5 80l-129 74q-160 96 -160 262q0 44 13 85.5t27.5 67t41.5 54.5t37 37.5t32 25.5q-96 77 -96 193q0 120 101.5 198t304.5 78q139 0 251 -43v-174l-10 4q-135 47 -213 47
q-20 0 -39.5 -3.5t-40.5 -11t-34 -24.5t-13 -40q0 -32 25.5 -54t97.5 -63l141 -80q168 -93 168 -262q0 -158 -145 -273q53 -53 76.5 -97t23.5 -111q0 -130 -101.5 -213.5t-307.5 -83.5q-77 0 -166.5 14.5t-138.5 34.5zM389 670l47 -27q51 -29 146 -86q43 49 43 92
q0 55 -49.5 100t-129.5 87l-38 20q-64 34 -123 68q-45 -38 -45 -93q0 -43 35.5 -79.5t113.5 -81.5z" />
    <glyph glyph-name="dieresis" unicode="&#xa8;" horiz-adv-x="555" 
d="M584 1163h-238v256h238v-256zM207 1163h-236v256h236v-256z" />
    <glyph glyph-name="copyright" unicode="&#xa9;" horiz-adv-x="1576" 
d="M944 592h236q-6 -160 -103.5 -238t-290.5 -78q-201 0 -289.5 98.5t-88.5 323.5q0 249 96.5 360t314.5 111q181 0 263.5 -74.5t82.5 -244.5h-225q0 92 -31 132t-100 40q-88 0 -126 -69.5t-38 -227.5q0 -170 34.5 -239.5t119.5 -69.5q72 0 106 42t39 134zM1518 729
q0 -152 -56.5 -288t-153.5 -234t-233 -155.5t-289 -57.5q-150 0 -284.5 57.5t-231.5 155t-154 233.5t-57 287q0 120 36 231t103 200t156 155.5t201 102.5t233 36q150 0 285 -56.5t232.5 -153t155 -230.5t57.5 -283zM1427 719q0 136 -50 257.5t-135 208.5t-203.5 138
t-250.5 51q-176 0 -324 -86.5t-233.5 -236.5t-85.5 -330q0 -176 86 -325.5t233.5 -236.5t321.5 -87t321.5 87t233.5 236t86 324z" />
    <glyph glyph-name="ordfeminine" unicode="&#xaa;" horiz-adv-x="811" 
d="M756 739h-201q-21 0 -34 3.5t-24.5 20t-11.5 48.5q-88 -88 -229 -88q-24 0 -47.5 4t-52.5 17.5t-50.5 35t-36 60.5t-14.5 90q0 54 17 94t44 64t73 40t90 23.5t110 13.5l105 11v51q0 27 -2.5 44.5t-10.5 36.5t-26 28.5t-47 9.5q-109 0 -109 -125v-9h-225v19
q0 118 86 172.5t258 54.5q171 0 239 -51t68 -174v-348q0 -54 5.5 -83.5t25.5 -45.5v-17zM494 975v102q-203 -7 -203 -123q0 -104 88 -104q115 0 115 125z" />
    <glyph glyph-name="guillemotleft" unicode="&#xab;" horiz-adv-x="1024" 
d="M1006 117h-279l-231 411l231 412h279l-238 -412zM537 117h-279l-231 411l231 412h279l-238 -412z" />
    <glyph glyph-name="logicalnot" unicode="&#xac;" horiz-adv-x="1482" 
d="M1298 39h-313v487h-844v244h1157v-731z" />
    <glyph glyph-name="uni00AD" unicode="&#xad;" horiz-adv-x="894" 
d="M811 403h-727v256h727v-256z" />
    <glyph glyph-name="registered" unicode="&#xae;" horiz-adv-x="1576" 
d="M1518 729q0 -152 -56.5 -288t-153.5 -234t-233 -155.5t-289 -57.5q-150 0 -284.5 57.5t-231.5 155t-154 233.5t-57 287q0 120 36 231t103 200t156 155.5t201 102.5t233 36q150 0 285 -56.5t232.5 -153t155 -230.5t57.5 -283zM1427 719q0 136 -50 257.5t-135 208.5
t-203.5 138t-250.5 51q-176 0 -324 -86.5t-233.5 -236.5t-85.5 -330q0 -176 86 -325.5t233.5 -236.5t321.5 -87t321.5 87t233.5 236t86 324zM475 1155h371q142 0 210 -50t68 -171q0 -93 -41 -146t-129 -75q66 -13 100.5 -51.5t51.5 -116.5l37 -172q7 -30 39 -82h-226
q-24 21 -32 61l-33 152q-17 82 -48.5 108.5t-111.5 26.5h-43v-348h-213v864zM688 1020v-246h45q99 0 137.5 26.5t38.5 100.5q0 62 -29 90.5t-108 28.5h-84z" />
    <glyph glyph-name="macron" unicode="&#xaf;" horiz-adv-x="555" 
d="M580 1188h-605v176h605v-176z" />
    <glyph glyph-name="degree" unicode="&#xb0;" horiz-adv-x="724" 
d="M715 1192q0 -146 -103.5 -249t-249.5 -103q-147 0 -249.5 104t-102.5 250q0 147 102.5 249.5t249.5 102.5q146 0 249.5 -104t103.5 -250zM510 1192q0 60 -44 102.5t-104 42.5q-61 0 -104 -42.5t-43 -102.5q0 -61 44 -104.5t103 -43.5q61 0 104.5 44t43.5 104z" />
    <glyph glyph-name="plusminus" unicode="&#xb1;" horiz-adv-x="1482" 
d="M1294 760h-395v-402h-313v402h-396v235h396v394h313v-394h395v-235zM1292 0h-1102v256h1102v-256z" />
    <glyph glyph-name="twosuperior" unicode="&#xb2;" horiz-adv-x="845" 
d="M764 903h-703v131l158 135q62 53 94.5 82t80.5 77.5t72.5 84t43 80.5t18.5 88q0 27 -8.5 48t-20 32t-27.5 18t-28 9t-24 2q-34 0 -59 -13.5t-37 -30.5t-18.5 -41.5t-7.5 -37t-1 -25.5v-31h-234v19q0 131 89.5 210t293.5 79q166 0 246 -68.5t80 -183.5q0 -64 -24 -122.5
t-73.5 -114t-96 -96t-119.5 -95.5l-84 -64q364 6 389 6v-178z" />
    <glyph glyph-name="threesuperior" unicode="&#xb3;" horiz-adv-x="845" 
d="M72 1180h227v-25q0 -15 1.5 -28.5t8.5 -34.5t18.5 -36t35.5 -26.5t57 -11.5q65 0 94 41t29 94q0 93 -37 124.5t-141 31.5h-72v129h69q88 0 127 32.5t39 112.5q0 117 -104 117q-113 0 -113 -137v-35h-219v26q0 77 30.5 131.5t83.5 82t110.5 39.5t125.5 12q320 0 320 -232
q0 -47 -16.5 -83.5t-37.5 -57t-55 -36t-55 -21t-51 -11.5q24 -3 37 -4.5t42 -8.5t47 -15.5t41.5 -25t37.5 -38t24 -54.5t10 -73q0 -268 -374 -268q-58 0 -102 5t-91 21.5t-77.5 45t-50 78.5t-19.5 118v21z" />
    <glyph glyph-name="acute" unicode="&#xb4;" horiz-adv-x="555" 
d="M551 1442l-301 -303h-246l205 303h342z" />
    <glyph glyph-name="mu" unicode="&#xb5;" 
d="M1077 0h-329v90q-60 -90 -175 -90q-52 0 -88.5 22.5t-48.5 53.5v-498h-334v1446h330v-657q0 -31 2 -55t10.5 -53.5t22.5 -49.5t41 -33.5t63 -13.5q177 0 177 182v680h329v-1024z" />
    <glyph glyph-name="paragraph" unicode="&#xb6;" horiz-adv-x="1310" 
d="M1108 1292h-72v-1634h-164v1634h-249v-1634h-164v973q-151 33 -234.5 132.5t-83.5 260.5q0 192 118 307t366 115h483v-154z" />
    <glyph glyph-name="periodcentered" unicode="&#xb7;" horiz-adv-x="512" 
d="M430 375h-348v303h348v-303z" />
    <glyph glyph-name="cedilla" unicode="&#xb8;" horiz-adv-x="555" 
d="M115 41h108l-6 -125h45q94 0 154.5 -55t60.5 -150q0 -66 -22 -111t-64.5 -68t-93 -32.5t-119.5 -9.5q-73 0 -102 2v146q47 -7 88 -7q26 0 42.5 1.5t42.5 8t40 24t14 44.5q0 26 -12 43t-34.5 23.5t-39 8t-41.5 1.5h-74z" />
    <glyph glyph-name="onesuperior" unicode="&#xb9;" horiz-adv-x="845" 
d="M334 1602h-191v145q252 23 435 82v-926h-244v699z" />
    <glyph glyph-name="ordmasculine" unicode="&#xba;" horiz-adv-x="811" 
d="M764 1102q0 -95 -19.5 -164.5t-51.5 -110t-81.5 -64.5t-99 -32t-115.5 -8q-183 0 -267.5 84.5t-84.5 265.5q0 36 1.5 63.5t9.5 70.5t22 74t42 66.5t66 58t97 37.5t133 15q71 0 127.5 -14t92 -34t61.5 -53.5t38.5 -61t19.5 -69t8 -65t1 -59.5zM528 1106q0 118 -24.5 179
t-89.5 61q-42 0 -69.5 -20.5t-40 -60t-17 -79t-4.5 -96.5q0 -64 4.5 -106.5t17 -77.5t37 -51.5t61.5 -16.5q33 0 56.5 14.5t36.5 37t20.5 60t9.5 72t2 84.5z" />
    <glyph glyph-name="guillemotright" unicode="&#xbb;" horiz-adv-x="1024" 
d="M997 528l-231 -411h-279l238 411l-238 412h279zM528 528l-231 -411h-279l238 411l-238 412h279z" />
    <glyph glyph-name="onequarter" unicode="&#xbc;" horiz-adv-x="1947" 
d="M1808 174h-96v-174h-217v174h-418v131q157 316 281 600h244q-142 -283 -293 -567h194v307h209v-307h96v-164zM334 1120h-191v146q252 23 435 82v-926h-244v698zM1305 1327l-633 -1327h-168l639 1327h162z" />
    <glyph glyph-name="onehalf" unicode="&#xbd;" horiz-adv-x="1947" 
d="M567 422h-243v698h-191v146q251 23 434 82v-926zM1815 0h-703v131l158 135q62 53 94.5 82t80.5 77.5t72.5 84t43 80.5t18.5 88q0 34 -12 57t-31 33t-34.5 14t-31.5 4q-34 0 -59 -13.5t-36.5 -30.5t-18 -41t-7.5 -36.5t-1 -25.5v-31h-234v19q0 131 89.5 209.5t293.5 78.5
q166 0 246 -68t80 -183q0 -52 -18 -102t-44.5 -89.5t-72 -84.5t-83.5 -76.5t-96 -75.5l-84 -64q365 6 390 6v-178zM1292 1327l-633 -1327h-167l638 1327h162z" />
    <glyph glyph-name="threequarters" unicode="&#xbe;" horiz-adv-x="1947" 
d="M1886 174h-96v-174h-217v174h-418v131q157 316 281 600h243q-142 -283 -293 -567h195v307h209v-307h96v-164zM76 698h227v-24q0 -15 1.5 -28.5t8.5 -34.5t18.5 -36t35.5 -26.5t57 -11.5q65 0 94 41t29 94q0 93 -37 124t-141 31h-72v129h70q88 0 126.5 33t38.5 113
q0 117 -104 117q-113 0 -113 -138v-34h-219v26q0 62 21 109.5t54 76.5t80.5 47t94 24.5t100.5 6.5q320 0 320 -231q0 -47 -16.5 -83.5t-37.5 -57t-55 -36t-55 -21t-51 -11.5q24 -3 37 -4.5t42 -8.5t47 -15.5t42 -25t38 -38t24 -54.5t10 -73q0 -268 -375 -268q-58 0 -102 5
t-91 21.5t-77.5 45t-50 78.5t-19.5 118v20zM1421 1327l-633 -1327h-167l639 1327h161z" />
    <glyph glyph-name="questiondown" unicode="&#xbf;" horiz-adv-x="1110" 
d="M492 891h321v-266q-21 0 -56 -2.5t-99.5 -15.5t-108.5 -34q-137 -64 -137 -229q0 -23 3.5 -46t14.5 -51.5t28.5 -49.5t49 -35.5t72.5 -14.5q82 0 115.5 53.5t33.5 166.5v57h336v-41q0 -34 -1 -57t-8 -64t-19.5 -72t-38.5 -66t-62 -61q-45 -31 -106.5 -51.5t-123 -27.5
t-90.5 -9t-53 -2q-66 0 -129.5 8.5t-133.5 34.5t-121.5 66t-85.5 109t-34 159q0 79 26.5 146t69 113t100 80t116.5 51.5t121 23.5v127zM481 1327h340v-303h-340v303z" />
    <glyph glyph-name="Agrave" unicode="&#xc0;" horiz-adv-x="1409" 
d="M1411 0h-377l-131 477h-403l-150 -477h-352l473 1446h524zM852 692l-139 516l-156 -516h295zM897 1548h-244l-247 303h329z" />
    <glyph glyph-name="Aacute" unicode="&#xc1;" horiz-adv-x="1409" 
d="M1411 0h-377l-131 477h-403l-150 -477h-352l473 1446h524zM852 692l-139 516l-156 -516h295zM1108 1851l-301 -303h-246l205 303h342z" />
    <glyph glyph-name="Acircumflex" unicode="&#xc2;" horiz-adv-x="1409" 
d="M1411 0h-377l-131 477h-403l-150 -477h-352l473 1446h524zM852 692l-139 516l-156 -516h295zM1016 1548h-209l-102 191l-105 -191h-201l172 303h267z" />
    <glyph glyph-name="Atilde" unicode="&#xc3;" horiz-adv-x="1409" 
d="M1411 0h-377l-131 477h-403l-150 -477h-352l473 1446h524zM852 692l-139 516l-156 -516h295zM1028 1845v-96q0 -102 -29 -153.5t-112 -51.5q-42 0 -80 17t-90 51l-74 49q-41 27 -59 27q-10 0 -16.5 -6.5t-9 -20t-3 -23t-0.5 -26.5v-56h-176v95q0 36 1 55.5t8 52t20 50.5
t40 32t66 14q70 0 143 -49l76 -51q68 -47 84 -47q15 0 22 12.5t8 25.5t1 40v59h180z" />
    <glyph glyph-name="Adieresis" unicode="&#xc4;" horiz-adv-x="1409" 
d="M1411 0h-377l-131 477h-403l-150 -477h-352l473 1446h524zM852 692l-139 516l-156 -516h295zM1040 1573h-237v256h237v-256zM664 1573h-238v256h238v-256z" />
    <glyph glyph-name="Aring" unicode="&#xc5;" horiz-adv-x="1409" 
d="M1411 0h-377l-131 477h-403l-150 -477h-352l473 1446h524zM852 692l-139 516l-156 -516h295zM940 1753q0 -89 -60 -150t-149 -61q-85 0 -145 60t-60 145t61 147t146 62q89 0 148 -57t59 -146zM823 1745q0 42 -23.5 67t-64.5 25q-38 0 -64 -25t-26 -63q0 -40 24 -65
t64 -25q38 0 64 24t26 62z" />
    <glyph glyph-name="AE" unicode="&#xc6;" horiz-adv-x="1878" 
d="M1839 0h-952v537h-328l-211 -537h-360l551 1446h1247v-225h-547v-357h500v-227h-500v-412h600v-225zM887 752v469h-92l-168 -469h260z" />
    <glyph glyph-name="Ccedilla" unicode="&#xc7;" horiz-adv-x="1409" 
d="M702 -84h46q93 0 153 -54t60 -149q0 -54 -16.5 -94.5t-43 -64.5t-66.5 -39t-81 -20t-92 -5q-72 0 -103 2v146q54 -7 88 -7q78 0 108.5 19.5t30.5 56.5q0 27 -12 44t-35 23.5t-39.5 8.5t-40.5 2h-73l10 188q-123 15 -211 54t-144.5 98t-89 150t-45 194.5t-12.5 245.5
q0 101 8.5 185t29.5 164t55 142t86 114.5t121.5 86.5t163 53t208.5 19q107 0 194 -16t160 -52.5t123 -93.5t77.5 -142t27.5 -194v-23h-361v31q0 129 -57 213t-176 84q-58 0 -103 -20.5t-75 -61t-50 -91.5t-30.5 -121.5t-14.5 -140t-4 -157.5q0 -70 2 -123t9 -111
t18.5 -100.5t31.5 -82t48 -64t67.5 -39t89.5 -14.5q231 0 248 327h377q0 -92 -24 -169t-63.5 -129.5t-95.5 -93t-114 -64.5t-126 -39t-125.5 -20t-117.5 -5v-51z" />
    <glyph glyph-name="Egrave" unicode="&#xc8;" horiz-adv-x="1110" 
d="M1081 0h-948v1446h893v-225h-526v-357h479v-227h-479v-412h581v-225zM713 1548h-244l-248 303h330z" />
    <glyph glyph-name="Eacute" unicode="&#xc9;" horiz-adv-x="1110" 
d="M1081 0h-948v1446h893v-225h-526v-357h479v-227h-479v-412h581v-225zM985 1851l-301 -303h-246l205 303h342z" />
    <glyph glyph-name="Ecircumflex" unicode="&#xca;" horiz-adv-x="1110" 
d="M1081 0h-948v1446h893v-225h-526v-357h479v-227h-479v-412h581v-225zM866 1548h-209l-102 191l-104 -191h-201l172 303h266z" />
    <glyph glyph-name="Edieresis" unicode="&#xcb;" horiz-adv-x="1110" 
d="M1081 0h-948v1446h893v-225h-526v-357h479v-227h-479v-412h581v-225zM889 1573h-238v256h238v-256zM512 1573h-238v256h238v-256z" />
    <glyph glyph-name="Igrave" unicode="&#xcc;" horiz-adv-x="641" 
d="M508 0h-375v1446h375v-1446zM494 1548h-244l-248 303h330z" />
    <glyph glyph-name="Iacute" unicode="&#xcd;" horiz-adv-x="641" 
d="M508 0h-375v1446h375v-1446zM698 1851l-301 -303h-245l204 303h342z" />
    <glyph glyph-name="Icircumflex" unicode="&#xce;" horiz-adv-x="641" 
d="M508 0h-375v1446h375v-1446zM633 1548h-209l-102 191l-105 -191h-201l172 303h267z" />
    <glyph glyph-name="Idieresis" unicode="&#xcf;" horiz-adv-x="641" 
d="M508 0h-375v1446h375v-1446zM627 1573h-238v256h238v-256zM250 1573h-238v256h238v-256z" />
    <glyph glyph-name="Eth" unicode="&#xd0;" horiz-adv-x="1492" 
d="M133 1446h676q156 0 263.5 -34t183 -113.5t110.5 -213t35 -329.5q0 -68 -1.5 -115.5t-11 -127.5t-26.5 -139.5t-51.5 -125t-83.5 -111.5q-41 -38 -94 -64.5t-101.5 -40.5t-113.5 -21.5t-109.5 -9t-108.5 -1.5h-567v676h-125v194h125v576zM506 1255v-385h282v-194h-282
v-486h129q45 0 76 2.5t76.5 11.5t84 31.5t68.5 57.5q90 104 90 446q0 150 -14.5 243.5t-54.5 157.5t-107 89.5t-174 25.5h-174z" />
    <glyph glyph-name="Ntilde" unicode="&#xd1;" horiz-adv-x="1492" 
d="M1362 0h-420q-460 897 -493 1001l12 -1001h-328v1446h426q18 -35 48.5 -94.5t110.5 -216.5t143 -285t120 -251t68 -163l-9 1010h322v-1446zM1071 1845v-96q0 -102 -29 -153.5t-112 -51.5q-42 0 -80 17t-90 51l-74 49q-40 27 -59 27q-10 0 -16.5 -6.5t-9 -20t-3 -23
t-0.5 -26.5v-56h-176v95q0 36 1 55.5t8 52t20 50.5t40 32t66 14q70 0 143 -49l76 -51q68 -47 84 -47q15 0 22 12.5t8 25.5t1 40v59h180z" />
    <glyph glyph-name="Ograve" unicode="&#xd2;" horiz-adv-x="1492" 
d="M1409 776q0 -214 -34 -361.5t-112 -250t-206.5 -150t-317.5 -47.5q-178 0 -298.5 35.5t-202 120.5t-118 224.5t-36.5 348.5q0 82 4.5 148.5t16.5 141t34.5 133t57 117t86.5 101t119 75.5t159 50t203 17q152 0 264.5 -32t185 -89t116.5 -146.5t61.5 -193.5t17.5 -242z
M1026 758q0 71 -1.5 120t-7.5 108.5t-17 99.5t-31 81t-48.5 65t-70 39t-94.5 15q-57 0 -102 -18t-75 -46.5t-51.5 -77t-33 -95t-18 -117t-8 -126.5t-1.5 -138q0 -200 27 -309.5t85 -154t164 -44.5q105 0 165 53.5t89 183.5t29 361zM932 1548h-244l-248 303h330z" />
    <glyph glyph-name="Oacute" unicode="&#xd3;" horiz-adv-x="1492" 
d="M1409 776q0 -214 -34 -361.5t-112 -250t-206.5 -150t-317.5 -47.5q-178 0 -298.5 35.5t-202 120.5t-118 224.5t-36.5 348.5q0 82 4.5 148.5t16.5 141t34.5 133t57 117t86.5 101t119 75.5t159 50t203 17q152 0 264.5 -32t185 -89t116.5 -146.5t61.5 -193.5t17.5 -242z
M1026 758q0 71 -1.5 120t-7.5 108.5t-17 99.5t-31 81t-48.5 65t-70 39t-94.5 15q-57 0 -102 -18t-75 -46.5t-51.5 -77t-33 -95t-18 -117t-8 -126.5t-1.5 -138q0 -200 27 -309.5t85 -154t164 -44.5q105 0 165 53.5t89 183.5t29 361zM1112 1851l-301 -303h-246l205 303h342z
" />
    <glyph glyph-name="Ocircumflex" unicode="&#xd4;" horiz-adv-x="1492" 
d="M1409 776q0 -214 -34 -361.5t-112 -250t-206.5 -150t-317.5 -47.5q-178 0 -298.5 35.5t-202 120.5t-118 224.5t-36.5 348.5q0 82 4.5 148.5t16.5 141t34.5 133t57 117t86.5 101t119 75.5t159 50t203 17q152 0 264.5 -32t185 -89t116.5 -146.5t61.5 -193.5t17.5 -242z
M1026 758q0 71 -1.5 120t-7.5 108.5t-17 99.5t-31 81t-48.5 65t-70 39t-94.5 15q-57 0 -102 -18t-75 -46.5t-51.5 -77t-33 -95t-18 -117t-8 -126.5t-1.5 -138q0 -200 27 -309.5t85 -154t164 -44.5q105 0 165 53.5t89 183.5t29 361zM1059 1548h-209l-102 191l-105 -191h-201
l172 303h267z" />
    <glyph glyph-name="Otilde" unicode="&#xd5;" horiz-adv-x="1492" 
d="M1409 776q0 -214 -34 -361.5t-112 -250t-206.5 -150t-317.5 -47.5q-178 0 -298.5 35.5t-202 120.5t-118 224.5t-36.5 348.5q0 82 4.5 148.5t16.5 141t34.5 133t57 117t86.5 101t119 75.5t159 50t203 17q152 0 264.5 -32t185 -89t116.5 -146.5t61.5 -193.5t17.5 -242z
M1026 758q0 71 -1.5 120t-7.5 108.5t-17 99.5t-31 81t-48.5 65t-70 39t-94.5 15q-57 0 -102 -18t-75 -46.5t-51.5 -77t-33 -95t-18 -117t-8 -126.5t-1.5 -138q0 -200 27 -309.5t85 -154t164 -44.5q105 0 165 53.5t89 183.5t29 361zM1071 1845v-96q0 -102 -29 -153.5
t-112 -51.5q-42 0 -80 17t-90 51l-74 49q-40 27 -59 27q-10 0 -16.5 -6.5t-9 -20t-3 -23t-0.5 -26.5v-56h-176v95q0 36 1 55.5t8 52t20 50.5t40 32t66 14q70 0 143 -49l76 -51q68 -47 84 -47q15 0 22 12.5t8 25.5t1 40v59h180z" />
    <glyph glyph-name="Odieresis" unicode="&#xd6;" horiz-adv-x="1492" 
d="M1409 776q0 -214 -34 -361.5t-112 -250t-206.5 -150t-317.5 -47.5q-178 0 -298.5 35.5t-202 120.5t-118 224.5t-36.5 348.5q0 82 4.5 148.5t16.5 141t34.5 133t57 117t86.5 101t119 75.5t159 50t203 17q152 0 264.5 -32t185 -89t116.5 -146.5t61.5 -193.5t17.5 -242z
M1026 758q0 71 -1.5 120t-7.5 108.5t-17 99.5t-31 81t-48.5 65t-70 39t-94.5 15q-57 0 -102 -18t-75 -46.5t-51.5 -77t-33 -95t-18 -117t-8 -126.5t-1.5 -138q0 -200 27 -309.5t85 -154t164 -44.5q105 0 165 53.5t89 183.5t29 361zM1055 1573h-238v256h238v-256zM678 1573
h-238v256h238v-256z" />
    <glyph glyph-name="multiply" unicode="&#xd7;" horiz-adv-x="1482" 
d="M1243 381l-209 -223l-309 295l-276 -289l-181 170l277 289l-305 290l206 222l306 -291l276 291l180 -170l-276 -289z" />
    <glyph glyph-name="Oslash" unicode="&#xd8;" horiz-adv-x="1492" 
d="M1219 1565l102 -64l-98 -151q50 -42 85.5 -98t54.5 -109.5t30 -123t13.5 -122.5t2.5 -125q0 -296 -63.5 -456t-184.5 -242q-75 -49 -170.5 -78t-242.5 -29q-237 0 -392 78l-98 -149l-102 63l100 154q-57 57 -90 116q-82 145 -82 463q0 413 154 598q69 81 193 135t312 54
q234 0 373 -70zM1012 1032l-492 -741q1 -2 6 -12.5t6.5 -13.5t7 -12.5t10 -15t12 -14t16.5 -16.5q57 -51 157 -51q137 0 205 82q41 48 65 171t28.5 206t4.5 151q0 161 -26 266zM477 451l490 731q-15 21 -29 36.5t-39 33.5t-61 28t-82 10q-68 0 -117 -22t-76 -51
q-31 -33 -54 -97.5t-33 -124t-16 -133t-6.5 -101t-0.5 -52.5q0 -146 24 -258z" />
    <glyph glyph-name="Ugrave" unicode="&#xd9;" horiz-adv-x="1449" 
d="M1325 1446v-914q0 -297 -140.5 -430t-475.5 -133q-319 0 -451.5 123t-132.5 416v938h373v-909q0 -169 24 -234q19 -47 70 -84t135 -37q88 0 150 45q54 38 72 108t18 200v911h358zM907 1548h-243l-248 303h329z" />
    <glyph glyph-name="Uacute" unicode="&#xda;" horiz-adv-x="1449" 
d="M1325 1446v-914q0 -297 -140.5 -430t-475.5 -133q-319 0 -451.5 123t-132.5 416v938h373v-909q0 -169 24 -234q19 -47 70 -84t135 -37q88 0 150 45q54 38 72 108t18 200v911h358zM1087 1851l-301 -303h-245l204 303h342z" />
    <glyph glyph-name="Ucircumflex" unicode="&#xdb;" horiz-adv-x="1449" 
d="M1325 1446v-914q0 -297 -140.5 -430t-475.5 -133q-319 0 -451.5 123t-132.5 416v938h373v-909q0 -169 24 -234q19 -47 70 -84t135 -37q88 0 150 45q54 38 72 108t18 200v911h358zM1038 1548h-209l-102 191l-104 -191h-201l172 303h266z" />
    <glyph glyph-name="Udieresis" unicode="&#xdc;" horiz-adv-x="1449" 
d="M1325 1446v-914q0 -297 -140.5 -430t-475.5 -133q-319 0 -451.5 123t-132.5 416v938h373v-909q0 -169 24 -234q19 -47 70 -84t135 -37q88 0 150 45q54 38 72 108t18 200v911h358zM1038 1573h-237v256h237v-256zM662 1573h-238v256h238v-256z" />
    <glyph glyph-name="Yacute" unicode="&#xdd;" horiz-adv-x="1323" 
d="M1337 1446l-485 -950v-496h-369v496l-497 950h407l289 -610l272 610h383zM1069 1851l-301 -303h-246l205 303h342z" />
    <glyph glyph-name="Thorn" unicode="&#xde;" horiz-adv-x="1280" 
d="M133 1446h373v-240h262q138 0 232.5 -27.5t150.5 -85.5t80 -139t24 -198q0 -247 -119.5 -360t-373.5 -113h-256v-283h-373v1446zM506 1012v-535h137q45 0 77.5 5t66 21.5t54.5 45.5t34.5 80t13.5 121q0 53 -8.5 95t-20.5 69t-34 46.5t-41 29t-49.5 15t-51 6.5t-53.5 1
h-125z" />
    <glyph glyph-name="germandbls" unicode="&#xdf;" horiz-adv-x="1366" 
d="M451 0h-330v940q0 66 6 120.5t22.5 109.5t43 97.5t70.5 80.5t102.5 63t140 39t182.5 14q284 0 404 -166q69 -97 69 -219q0 -51 -12 -112q-3 0 -40 -0.5t-70 -4t-58 -12.5q-86 -33 -86 -106q0 -19 8.5 -36.5t17.5 -29.5t29 -27t30 -21t34 -19t28 -15l45 -24
q132 -73 186 -149.5t54 -196.5q0 -23 -2 -45t-11.5 -59t-25 -68t-47 -66t-73.5 -59t-108 -40t-147 -16q-90 0 -158 15t-111 40.5t-70 63.5t-37.5 80.5t-10.5 95.5v29h267q5 -152 125 -152q15 0 32.5 5t38 17t34 37.5t13.5 61.5q0 32 -9.5 56.5t-32 43.5t-38.5 28.5t-51 27.5
l-71 37q-123 64 -180.5 126.5t-57.5 168.5q0 26 3 47.5t16.5 54t36.5 59t68.5 55t108.5 48.5v55q0 24 -0.5 40.5t-4.5 43.5t-10.5 46t-20.5 41t-33 35.5t-48.5 22.5t-66.5 9q-74 0 -119 -37q-48 -38 -61.5 -97t-13.5 -143v-1034z" />
    <glyph glyph-name="agrave" unicode="&#xe0;" horiz-adv-x="1150" 
d="M1087 0h-292q-52 0 -72.5 21t-20.5 83v13q-55 -64 -131.5 -104t-201.5 -40q-147 0 -226.5 82.5t-79.5 225.5q0 111 51 178t158 104q128 45 443 68v117q0 149 -142 149q-84 0 -122.5 -50.5t-38.5 -125.5v-19h-320v21q0 74 24.5 131t80 103t155.5 70t242 24q112 0 192 -15
t130 -41.5t78.5 -70.5t39 -93.5t10.5 -119.5v-504q0 -87 8.5 -131t34.5 -64v-12zM715 350v150q-150 -11 -211 -35q-107 -43 -107 -158q0 -22 3.5 -42t15.5 -50.5t43 -49t78 -18.5q178 0 178 203zM778 1139h-243l-250 303h329z" />
    <glyph glyph-name="aacute" unicode="&#xe1;" horiz-adv-x="1150" 
d="M1087 0h-292q-52 0 -72.5 21t-20.5 83v13q-55 -64 -131.5 -104t-201.5 -40q-147 0 -226.5 82.5t-79.5 225.5q0 111 51 178t158 104q128 45 443 68v117q0 149 -142 149q-84 0 -122.5 -50.5t-38.5 -125.5v-19h-320v21q0 74 24.5 131t80 103t155.5 70t242 24q112 0 192 -15
t130 -41.5t78.5 -70.5t39 -93.5t10.5 -119.5v-504q0 -87 8.5 -131t34.5 -64v-12zM715 350v150q-150 -11 -211 -35q-107 -43 -107 -158q0 -22 3.5 -42t15.5 -50.5t43 -49t78 -18.5q178 0 178 203zM963 1442l-301 -303h-246l205 303h342z" />
    <glyph glyph-name="acircumflex" unicode="&#xe2;" horiz-adv-x="1150" 
d="M1087 0h-292q-52 0 -72.5 21t-20.5 83v13q-55 -64 -131.5 -104t-201.5 -40q-147 0 -226.5 82.5t-79.5 225.5q0 111 51 178t158 104q128 45 443 68v117q0 149 -142 149q-84 0 -122.5 -50.5t-38.5 -125.5v-19h-320v21q0 74 24.5 131t80 103t155.5 70t242 24q112 0 192 -15
t130 -41.5t78.5 -70.5t39 -93.5t10.5 -119.5v-504q0 -87 8.5 -131t34.5 -64v-12zM715 350v150q-150 -11 -211 -35q-107 -43 -107 -158q0 -22 3.5 -42t15.5 -50.5t43 -49t78 -18.5q178 0 178 203zM891 1139h-211l-102 190l-105 -190h-203l172 303h267z" />
    <glyph glyph-name="atilde" unicode="&#xe3;" horiz-adv-x="1150" 
d="M1087 0h-292q-52 0 -72.5 21t-20.5 83v13q-55 -64 -131.5 -104t-201.5 -40q-147 0 -226.5 82.5t-79.5 225.5q0 111 51 178t158 104q128 45 443 68v117q0 149 -142 149q-84 0 -122.5 -50.5t-38.5 -125.5v-19h-320v21q0 74 24.5 131t80 103t155.5 70t242 24q112 0 192 -15
t130 -41.5t78.5 -70.5t39 -93.5t10.5 -119.5v-504q0 -87 8.5 -131t34.5 -64v-12zM715 350v150q-150 -11 -211 -35q-107 -43 -107 -158q0 -22 3.5 -42t15.5 -50.5t43 -49t78 -18.5q178 0 178 203zM903 1436v-97q0 -102 -29 -153t-112 -51q-69 0 -170 67l-74 49q-41 27 -59 27
q-10 0 -16.5 -6.5t-9 -20t-3 -23t-0.5 -26.5v-55h-176v94q0 25 0.5 39t3 39t7 39.5t14.5 33.5t24 29t36 17.5t50 7.5q70 0 143 -49l76 -51q69 -48 84 -48t22 12.5t8 25.5t1 40v60h180z" />
    <glyph glyph-name="adieresis" unicode="&#xe4;" horiz-adv-x="1150" 
d="M1087 0h-292q-52 0 -72.5 21t-20.5 83v13q-55 -64 -131.5 -104t-201.5 -40q-147 0 -226.5 82.5t-79.5 225.5q0 111 51 178t158 104q128 45 443 68v117q0 149 -142 149q-84 0 -122.5 -50.5t-38.5 -125.5v-19h-320v21q0 74 24.5 131t80 103t155.5 70t242 24q112 0 192 -15
t130 -41.5t78.5 -70.5t39 -93.5t10.5 -119.5v-504q0 -87 8.5 -131t34.5 -64v-12zM715 350v150q-150 -11 -211 -35q-107 -43 -107 -158q0 -22 3.5 -42t15.5 -50.5t43 -49t78 -18.5q178 0 178 203zM889 1163h-238v256h238v-256zM512 1163h-236v256h236v-256z" />
    <glyph glyph-name="aring" unicode="&#xe5;" horiz-adv-x="1150" 
d="M1087 0h-292q-52 0 -72.5 21t-20.5 83v13q-55 -64 -131.5 -104t-201.5 -40q-147 0 -226.5 82.5t-79.5 225.5q0 111 51 178t158 104q128 45 443 68v117q0 149 -142 149q-84 0 -122.5 -50.5t-38.5 -125.5v-19h-320v21q0 74 24.5 131t80 103t155.5 70t242 24q112 0 192 -15
t130 -41.5t78.5 -70.5t39 -93.5t10.5 -119.5v-504q0 -87 8.5 -131t34.5 -64v-12zM715 350v150q-150 -11 -211 -35q-107 -43 -107 -158q0 -22 3.5 -42t15.5 -50.5t43 -49t78 -18.5q178 0 178 203zM793 1341q0 -90 -60 -149t-149 -59q-87 0 -146 61.5t-59 148.5q0 83 63 142
t148 59q91 0 147 -59t56 -144zM676 1341q0 38 -25.5 62t-62.5 24q-49 0 -69.5 -30t-20.5 -60q0 -42 26.5 -65t61.5 -23q40 0 65 26.5t25 65.5z" />
    <glyph glyph-name="ae" unicode="&#xe6;" horiz-adv-x="1705" 
d="M694 631v84q0 32 -1.5 52t-9 47t-21.5 42.5t-41 27t-66 11.5t-68 -13.5t-44.5 -32.5t-25 -45.5t-12 -45.5t-2.5 -39v-19h-317q0 351 453 351q114 0 191.5 -21.5t137.5 -83.5q32 35 114.5 70t203.5 35q136 0 227.5 -45.5t138.5 -106.5q90 -118 90 -340v-72h-669v-69
q0 -91 15 -152t43 -88.5t55 -37t63 -9.5q49 0 83 17.5t52 49t25.5 61.5t11.5 69h321q-9 -172 -138 -263.5t-371 -91.5q-161 0 -249.5 41t-150.5 119q-29 -37 -70 -69.5t-120.5 -61.5t-171.5 -29q-146 0 -232 78.5t-86 224.5q0 72 22 128.5t52 93t87.5 62.5t102 39
t123.5 20.5t124 9t130 2.5zM977 631h340q-1 26 -1.5 38.5t-4 45t-9 51.5t-17.5 46.5t-28.5 42.5t-42 26.5t-57.5 11.5q-166 0 -180 -262zM694 369v123l-96 -5q-23 -1 -44 -4t-54 -14.5t-56.5 -29.5t-41 -53.5t-17.5 -82.5q0 -68 36.5 -112t104.5 -44q44 0 76.5 15t49.5 36
t27 53.5t12.5 58.5t2.5 59z" />
    <glyph glyph-name="ccedilla" unicode="&#xe7;" horiz-adv-x="1130" 
d="M547 -27l-4 -57h45q93 0 153 -54t60 -149q0 -54 -16 -94.5t-42 -64.5t-65.5 -39t-81 -20t-94.5 -5q-72 0 -103 2v146q54 -7 97 -7q131 0 131 78q0 26 -12 43t-34.5 23.5t-39 8t-41.5 1.5h-74l14 197q-2 0 -28.5 5t-51.5 12.5t-51 20.5q-62 29 -107 72.5t-69.5 88.5
t-38.5 103t-18 102.5t-4 100.5q0 49 2 85t12.5 99t29.5 109.5t58 100.5t93 88.5t138.5 58t190.5 23.5q477 0 477 -394h-323q0 38 -5.5 73t-20.5 75.5t-49.5 65t-84.5 24.5q-55 0 -92.5 -31t-56 -89t-26 -123t-7.5 -152q0 -142 21 -224.5t58 -113.5t97 -31q40 0 70.5 17
t47 40t27.5 59t15 62t6 60h325q0 -2 -1.5 -21t-3 -34t-6 -39t-11.5 -44q-28 -80 -84.5 -134.5t-128.5 -79.5t-133 -34.5t-127 -9.5h-33z" />
    <glyph glyph-name="egrave" unicode="&#xe8;" horiz-adv-x="1161" 
d="M1085 489h-675v-36q0 -49 2.5 -87t13.5 -85t29.5 -77t54 -51.5t84.5 -21.5q45 0 78.5 17t50.5 39.5t27 53t12 50t2 37.5h323q0 -72 -29 -134.5t-87 -112.5t-156.5 -79t-226.5 -29q-122 0 -213 26t-148 71t-91.5 113t-48 143.5t-13.5 171.5q0 130 28.5 228.5t75.5 159.5
t116.5 98.5t143.5 52t164 14.5q91 0 164.5 -16.5t123 -43t86.5 -66t57 -79.5t32.5 -91.5t16 -92.5t3.5 -91v-82zM414 631h346q0 264 -162 264q-81 0 -130.5 -65t-53.5 -199zM760 1139h-244l-250 303h330z" />
    <glyph glyph-name="eacute" unicode="&#xe9;" horiz-adv-x="1161" 
d="M1085 489h-675v-36q0 -49 2.5 -87t13.5 -85t29.5 -77t54 -51.5t84.5 -21.5q45 0 78.5 17t50.5 39.5t27 53t12 50t2 37.5h323q0 -72 -29 -134.5t-87 -112.5t-156.5 -79t-226.5 -29q-122 0 -213 26t-148 71t-91.5 113t-48 143.5t-13.5 171.5q0 130 28.5 228.5t75.5 159.5
t116.5 98.5t143.5 52t164 14.5q91 0 164.5 -16.5t123 -43t86.5 -66t57 -79.5t32.5 -91.5t16 -92.5t3.5 -91v-82zM414 631h346q0 264 -162 264q-81 0 -130.5 -65t-53.5 -199zM983 1442l-301 -303h-246l205 303h342z" />
    <glyph glyph-name="ecircumflex" unicode="&#xea;" horiz-adv-x="1161" 
d="M1085 489h-675v-36q0 -49 2.5 -87t13.5 -85t29.5 -77t54 -51.5t84.5 -21.5q45 0 78.5 17t50.5 39.5t27 53t12 50t2 37.5h323q0 -72 -29 -134.5t-87 -112.5t-156.5 -79t-226.5 -29q-122 0 -213 26t-148 71t-91.5 113t-48 143.5t-13.5 171.5q0 130 28.5 228.5t75.5 159.5
t116.5 98.5t143.5 52t164 14.5q91 0 164.5 -16.5t123 -43t86.5 -66t57 -79.5t32.5 -91.5t16 -92.5t3.5 -91v-82zM414 631h346q0 264 -162 264q-81 0 -130.5 -65t-53.5 -199zM891 1139h-211l-102 190l-105 -190h-203l172 303h267z" />
    <glyph glyph-name="edieresis" unicode="&#xeb;" horiz-adv-x="1161" 
d="M1085 489h-675v-36q0 -49 2.5 -87t13.5 -85t29.5 -77t54 -51.5t84.5 -21.5q45 0 78.5 17t50.5 39.5t27 53t12 50t2 37.5h323q0 -72 -29 -134.5t-87 -112.5t-156.5 -79t-226.5 -29q-122 0 -213 26t-148 71t-91.5 113t-48 143.5t-13.5 171.5q0 130 28.5 228.5t75.5 159.5
t116.5 98.5t143.5 52t164 14.5q91 0 164.5 -16.5t123 -43t86.5 -66t57 -79.5t32.5 -91.5t16 -92.5t3.5 -91v-82zM414 631h346q0 264 -162 264q-81 0 -130.5 -65t-53.5 -199zM893 1163h-238v256h238v-256zM516 1163h-235v256h235v-256z" />
    <glyph glyph-name="igrave" unicode="&#xec;" horiz-adv-x="555" 
d="M444 0h-333v1024h333v-1024zM444 1139h-243l-250 303h330z" />
    <glyph glyph-name="iacute" unicode="&#xed;" horiz-adv-x="555" 
d="M444 0h-333v1024h333v-1024zM653 1442l-301 -303h-246l205 303h342z" />
    <glyph glyph-name="icircumflex" unicode="&#xee;" horiz-adv-x="555" 
d="M444 0h-333v1024h333v-1024zM592 1139h-211l-102 190l-105 -190h-203l172 303h267z" />
    <glyph glyph-name="idieresis" unicode="&#xef;" horiz-adv-x="555" 
d="M444 0h-333v1024h333v-1024zM582 1163h-238v256h238v-256zM205 1163h-236v256h236v-256z" />
    <glyph glyph-name="eth" unicode="&#xf0;" 
d="M360 1161l-63 125h225q-63 77 -149 160h352q79 -72 143 -160h164l64 -125h-144q172 -319 172 -622q0 -105 -17 -190.5t-45.5 -143.5t-71.5 -101t-87 -67.5t-101 -39.5t-105.5 -19.5t-106.5 -4.5q-266 0 -392 123t-126 391q0 52 2 89t12.5 100.5t30 109t59 99t94 87
t140 56.5t192.5 23q77 0 84 -7q-20 47 -72 117h-254zM408 512q0 -210 41 -296.5t147 -86.5q29 0 50.5 5.5t49.5 28.5t46 64t31 119t13 186q0 45 -0.5 71.5t-4 70t-10.5 70t-20 59t-32 51t-48.5 31t-66.5 12.5q-108 0 -152 -96t-44 -289z" />
    <glyph glyph-name="ntilde" unicode="&#xf1;" 
d="M1083 0h-329v657q0 111 -31.5 163t-112.5 52q-40 0 -76 -13.5t-64 -52.5t-28 -97v-709h-331v1024h331v-115q36 30 61.5 47.5t69 41t96.5 35t115 11.5q23 0 43.5 -1.5t52 -9t57.5 -19.5t54.5 -35t47.5 -54.5t31.5 -79.5t12.5 -108v-737zM924 1436v-97q0 -101 -29.5 -152.5
t-112.5 -51.5q-69 0 -170 67l-73 49q-41 27 -60 27q-10 0 -16.5 -6t-8.5 -20.5t-2.5 -22.5t-0.5 -27v-55h-177v94q0 29 1 46t4.5 45t12 44.5t23 34.5t38.5 26.5t57 8.5q70 0 143 -49l76 -51q69 -48 84 -48q11 0 17.5 5.5t9 19.5t3 22.5t0.5 30.5v60h181z" />
    <glyph glyph-name="ograve" unicode="&#xf2;" 
d="M1122 528q0 -153 -33 -259.5t-101 -171.5t-164 -94.5t-230 -29.5q-121 0 -212 25t-149.5 68.5t-95 109.5t-51 141t-14.5 170q0 60 3 106.5t16 108t35 107.5t63.5 94t98 78.5t141.5 50t192 19.5q96 0 172.5 -16.5t128.5 -43t89.5 -68.5t58.5 -84t33 -99t15.5 -104
t3.5 -108zM786 492v65q0 175 -41.5 256.5t-140.5 81.5q-98 0 -147 -84.5t-49 -284.5v-98q0 -299 188 -299q102 0 146 92t44 271zM776 1139h-244l-249 303h329z" />
    <glyph glyph-name="oacute" unicode="&#xf3;" 
d="M1122 528q0 -153 -33 -259.5t-101 -171.5t-164 -94.5t-230 -29.5q-121 0 -212 25t-149.5 68.5t-95 109.5t-51 141t-14.5 170q0 60 3 106.5t16 108t35 107.5t63.5 94t98 78.5t141.5 50t192 19.5q96 0 172.5 -16.5t128.5 -43t89.5 -68.5t58.5 -84t33 -99t15.5 -104
t3.5 -108zM786 492v65q0 175 -41.5 256.5t-140.5 81.5q-98 0 -147 -84.5t-49 -284.5v-98q0 -299 188 -299q102 0 146 92t44 271zM985 1442l-301 -303h-246l205 303h342z" />
    <glyph glyph-name="ocircumflex" unicode="&#xf4;" 
d="M1122 528q0 -153 -33 -259.5t-101 -171.5t-164 -94.5t-230 -29.5q-121 0 -212 25t-149.5 68.5t-95 109.5t-51 141t-14.5 170q0 60 3 106.5t16 108t35 107.5t63.5 94t98 78.5t141.5 50t192 19.5q96 0 172.5 -16.5t128.5 -43t89.5 -68.5t58.5 -84t33 -99t15.5 -104
t3.5 -108zM786 492v65q0 175 -41.5 256.5t-140.5 81.5q-98 0 -147 -84.5t-49 -284.5v-98q0 -299 188 -299q102 0 146 92t44 271zM911 1139h-211l-102 190l-104 -190h-203l172 303h266z" />
    <glyph glyph-name="otilde" unicode="&#xf5;" 
d="M1122 528q0 -153 -33 -259.5t-101 -171.5t-164 -94.5t-230 -29.5q-121 0 -212 25t-149.5 68.5t-95 109.5t-51 141t-14.5 170q0 60 3 106.5t16 108t35 107.5t63.5 94t98 78.5t141.5 50t192 19.5q96 0 172.5 -16.5t128.5 -43t89.5 -68.5t58.5 -84t33 -99t15.5 -104
t3.5 -108zM786 492v65q0 175 -41.5 256.5t-140.5 81.5q-98 0 -147 -84.5t-49 -284.5v-98q0 -299 188 -299q102 0 146 92t44 271zM924 1436v-97q0 -101 -29.5 -152.5t-112.5 -51.5q-69 0 -170 67l-73 49q-41 27 -60 27q-10 0 -16.5 -6t-8.5 -20.5t-2.5 -22.5t-0.5 -27v-55
h-177v94q0 29 1 46t4.5 45t12 44.5t23 34.5t38.5 26.5t57 8.5q70 0 143 -49l76 -51q69 -48 84 -48q11 0 17.5 5.5t9 19.5t3 22.5t0.5 30.5v60h181z" />
    <glyph glyph-name="odieresis" unicode="&#xf6;" 
d="M1122 528q0 -153 -33 -259.5t-101 -171.5t-164 -94.5t-230 -29.5q-121 0 -212 25t-149.5 68.5t-95 109.5t-51 141t-14.5 170q0 60 3 106.5t16 108t35 107.5t63.5 94t98 78.5t141.5 50t192 19.5q96 0 172.5 -16.5t128.5 -43t89.5 -68.5t58.5 -84t33 -99t15.5 -104
t3.5 -108zM786 492v65q0 175 -41.5 256.5t-140.5 81.5q-98 0 -147 -84.5t-49 -284.5v-98q0 -299 188 -299q102 0 146 92t44 271zM903 1163h-237v256h237v-256zM526 1163h-235v256h235v-256z" />
    <glyph glyph-name="divide" unicode="&#xf7;" horiz-adv-x="1482" 
d="M889 883h-297v311h297v-311zM1321 520h-1159v256h1159v-256zM889 104h-297v312h297v-312z" />
    <glyph glyph-name="oslash" unicode="&#xf8;" 
d="M977 1137l78 -54l-88 -127q3 -3 22.5 -20t29.5 -28t28.5 -34t29 -48t22.5 -60.5t17.5 -82t5.5 -101.5q0 -173 -20 -260q-22 -93 -69.5 -162t-115.5 -109t-147.5 -59t-173.5 -19q-193 0 -291 58l-98 -137l-76 53l92 133q-78 63 -114.5 150.5t-36.5 256.5q0 295 134 429.5
t384 134.5q195 0 293 -50zM788 707l-354 -494q42 -92 152 -92q82 0 131 45q86 80 86 344q-1 0 -1 29t-3.5 79t-10.5 89zM401 332l355 493q-52 80 -150 80q-73 0 -119.5 -39t-72 -133.5t-25.5 -251.5q0 -53 12 -149z" />
    <glyph glyph-name="ugrave" unicode="&#xf9;" 
d="M1077 0h-329v117q-31 -27 -55 -44t-68 -41.5t-100 -37t-122 -12.5q-143 0 -222 74.5t-79 248.5v719h330v-647q0 -116 32.5 -170.5t115.5 -54.5q68 0 118 40.5t50 126.5v705h329v-1024zM731 1139h-244l-249 303h329z" />
    <glyph glyph-name="uacute" unicode="&#xfa;" 
d="M1077 0h-329v117q-31 -27 -55 -44t-68 -41.5t-100 -37t-122 -12.5q-143 0 -222 74.5t-79 248.5v719h330v-647q0 -116 32.5 -170.5t115.5 -54.5q68 0 118 40.5t50 126.5v705h329v-1024zM1006 1442l-301 -303h-246l205 303h342z" />
    <glyph glyph-name="ucircumflex" unicode="&#xfb;" 
d="M1077 0h-329v117q-31 -27 -55 -44t-68 -41.5t-100 -37t-122 -12.5q-143 0 -222 74.5t-79 248.5v719h330v-647q0 -116 32.5 -170.5t115.5 -54.5q68 0 118 40.5t50 126.5v705h329v-1024zM911 1139h-211l-102 190l-104 -190h-203l172 303h266z" />
    <glyph glyph-name="udieresis" unicode="&#xfc;" 
d="M1077 0h-329v117q-31 -27 -55 -44t-68 -41.5t-100 -37t-122 -12.5q-143 0 -222 74.5t-79 248.5v719h330v-647q0 -116 32.5 -170.5t115.5 -54.5q68 0 118 40.5t50 126.5v705h329v-1024zM903 1163h-237v256h237v-256zM526 1163h-235v256h235v-256z" />
    <glyph glyph-name="yacute" unicode="&#xfd;" horiz-adv-x="1024" 
d="M1028 1024l-350 -1090q-37 -116 -71 -180t-79 -102q-96 -82 -280 -82q-114 0 -215 22v226q84 -21 145 -21q50 0 83 16.5t48.5 49t21 67t5.5 84.5l-340 1010h346l190 -748l183 748h313zM920 1442l-302 -303h-245l205 303h342z" />
    <glyph glyph-name="thorn" unicode="&#xfe;" 
d="M111 1446h329v-547q22 27 43.5 47t60 45t94.5 39t124 14q87 0 152.5 -28.5t104.5 -75.5t62.5 -117t32 -141t8.5 -160q0 -261 -94.5 -400.5t-306.5 -139.5q-105 0 -169.5 33.5t-111.5 93.5v-531h-329v1868zM438 623v-265q0 -89 44 -146.5t120 -57.5q57 0 94.5 25t57 75.5
t27 110.5t7.5 147q0 54 -2 94.5t-8 84.5t-18.5 74.5t-31 56t-47.5 38t-67 12.5q-176 0 -176 -249z" />
    <glyph glyph-name="ydieresis" unicode="&#xff;" horiz-adv-x="1024" 
d="M1028 1024l-350 -1090q-37 -116 -71 -180t-79 -102q-96 -82 -280 -82q-114 0 -215 22v226q84 -21 145 -21q50 0 83 16.5t48.5 49t21 67t5.5 84.5l-340 1010h346l190 -748l183 748h313zM817 1163h-237v256h237v-256zM440 1163h-235v256h235v-256z" />
    <glyph glyph-name="Amacron" unicode="&#x100;" horiz-adv-x="1409" 
d="M1411 0h-377l-131 477h-403l-150 -477h-352l473 1446h524zM852 692l-139 516l-156 -516h295zM1059 1597h-666v177h666v-177z" />
    <glyph glyph-name="amacron" unicode="&#x101;" horiz-adv-x="1150" 
d="M1087 0h-292q-52 0 -72.5 21t-20.5 83v13q-55 -64 -131.5 -104t-201.5 -40q-147 0 -226.5 82.5t-79.5 225.5q0 111 51 178t158 104q128 45 443 68v117q0 149 -142 149q-84 0 -122.5 -50.5t-38.5 -125.5v-19h-320v21q0 74 24.5 131t80 103t155.5 70t242 24q112 0 192 -15
t130 -41.5t78.5 -70.5t39 -93.5t10.5 -119.5v-504q0 -87 8.5 -131t34.5 -64v-12zM715 350v150q-150 -11 -211 -35q-107 -43 -107 -158q0 -22 3.5 -42t15.5 -50.5t43 -49t78 -18.5q178 0 178 203zM877 1188h-605v176h605v-176z" />
    <glyph glyph-name="Abreve" unicode="&#x102;" horiz-adv-x="1409" 
d="M1411 0h-377l-131 477h-403l-150 -477h-352l473 1446h524zM852 692l-139 516l-156 -516h295zM850 1843h168q0 -59 -15 -107t-36.5 -78t-52 -52t-57 -33t-57.5 -17t-46 -7t-29 -1q-38 0 -72.5 6t-74 25.5t-67.5 50.5t-46.5 86t-18.5 127h168v-18q0 -20 4 -39.5t14.5 -44.5
t36 -40t62.5 -15q39 0 65.5 18.5t37 47t13.5 47.5t3 36v8z" />
    <glyph glyph-name="abreve" unicode="&#x103;" horiz-adv-x="1150" 
d="M1087 0h-292q-52 0 -72.5 21t-20.5 83v13q-55 -64 -131.5 -104t-201.5 -40q-147 0 -226.5 82.5t-79.5 225.5q0 111 51 178t158 104q128 45 443 68v117q0 149 -142 149q-84 0 -122.5 -50.5t-38.5 -125.5v-19h-320v21q0 74 24.5 131t80 103t155.5 70t242 24q112 0 192 -15
t130 -41.5t78.5 -70.5t39 -93.5t10.5 -119.5v-504q0 -87 8.5 -131t34.5 -64v-12zM715 350v150q-150 -11 -211 -35q-107 -43 -107 -158q0 -22 3.5 -42t15.5 -50.5t43 -49t78 -18.5q178 0 178 203zM711 1434h168q0 -59 -15 -107t-36.5 -78t-52 -52t-57 -33t-57.5 -17t-46 -7
t-29 -1q-38 0 -72.5 6t-74 25.5t-67.5 50.5t-46.5 86t-18.5 127h168v-19q0 -20 4 -39.5t14.5 -44.5t36 -40t62.5 -15q39 0 65.5 18.5t37 47t13.5 47.5t3 36v9z" />
    <glyph glyph-name="Aogonek" unicode="&#x104;" horiz-adv-x="1409" 
d="M1411 0h-20q-131 -99 -131 -162q0 -30 22 -50.5t68 -20.5q15 0 28.5 2t26 5t14.5 3v-148q-4 -1 -17 -5t-18.5 -5.5t-18.5 -4.5t-22.5 -4t-25 -2t-31.5 -1q-107 0 -160 49.5t-53 118.5q0 45 25 87t65.5 72.5t60.5 43t40 22.5h-230l-131 477h-403l-150 -477h-352l473 1446
h524zM852 692l-139 516l-156 -516h295z" />
    <glyph glyph-name="aogonek" unicode="&#x105;" horiz-adv-x="1150" 
d="M1087 0h-16q-131 -99 -131 -162q0 -30 22 -50.5t68 -20.5q10 0 70 10v-148q-4 -1 -17 -5t-18.5 -5.5t-18.5 -4.5t-22.5 -4t-25 -2t-31.5 -1q-107 0 -160 49.5t-53 118.5q0 45 25 87t65 72.5t60 43t40 22.5h-149q-52 0 -72.5 21t-20.5 83v13q-55 -64 -131.5 -104
t-201.5 -40q-147 0 -226.5 82.5t-79.5 225.5q0 111 51 178t158 104q128 45 443 68v117q0 149 -142 149q-84 0 -122.5 -50.5t-38.5 -125.5v-19h-320v21q0 74 24.5 131t80 103t155.5 70t242 24q112 0 192 -15t130 -41.5t78.5 -70.5t39 -93.5t10.5 -119.5v-504q0 -87 8.5 -131
t34.5 -64v-12zM715 350v150q-150 -11 -211 -35q-107 -43 -107 -158q0 -22 3.5 -42t15.5 -50.5t43 -49t78 -18.5q178 0 178 203z" />
    <glyph glyph-name="Cacute" unicode="&#x106;" horiz-adv-x="1409" 
d="M1350 956h-363v17q0 162 -57.5 237.5t-171.5 75.5q-95 0 -154 -52t-92 -186t-33 -362q0 -130 13 -225t34.5 -152.5t56.5 -91t72.5 -45.5t87.5 -12q235 0 250 327h377q-7 -135 -50 -228q-121 -254 -496 -287q-54 -5 -113 -5q-109 0 -196.5 17.5t-151.5 48.5t-111.5 80.5
t-77.5 107.5t-48 136.5t-25 160t-7 184.5q0 89 5 160t21.5 154.5t45.5 147t79.5 125.5t119.5 101.5t170.5 64t228.5 24.5q103 0 187 -14t160 -49t127.5 -90.5t81.5 -143t30 -201.5v-25zM1073 1851l-301 -303h-246l205 303h342z" />
    <glyph glyph-name="cacute" unicode="&#x107;" horiz-adv-x="1130" 
d="M1073 657h-323q-5 238 -158 238q-41 0 -72.5 -16.5t-51 -47.5t-32 -66t-18.5 -83.5t-8 -87t-2 -88.5q0 -41 0.5 -65t3.5 -68.5t9.5 -72.5t19 -63.5t30.5 -56t46.5 -35t64.5 -14.5q77 0 121.5 59.5t44.5 176.5h325q0 -182 -127 -288t-379 -106q-239 0 -367 129t-128 412
q0 110 24 198t58.5 143t88 95t97.5 58.5t103 29t87.5 12t67.5 1.5q475 0 475 -394zM958 1442l-301 -303h-245l204 303h342z" />
    <glyph glyph-name="Ccircumflex" unicode="&#x108;" horiz-adv-x="1409" 
d="M1350 956h-363v17q0 162 -57.5 237.5t-171.5 75.5q-95 0 -154 -52t-92 -186t-33 -362q0 -130 13 -225t34.5 -152.5t56.5 -91t72.5 -45.5t87.5 -12q235 0 250 327h377q-7 -135 -50 -228q-121 -254 -496 -287q-54 -5 -113 -5q-109 0 -196.5 17.5t-151.5 48.5t-111.5 80.5
t-77.5 107.5t-48 136.5t-25 160t-7 184.5q0 89 5 160t21.5 154.5t45.5 147t79.5 125.5t119.5 101.5t170.5 64t228.5 24.5q103 0 187 -14t160 -49t127.5 -90.5t81.5 -143t30 -201.5v-25zM1073 1548h-209l-102 191l-105 -191h-200l172 303h266z" />
    <glyph glyph-name="ccircumflex" unicode="&#x109;" horiz-adv-x="1130" 
d="M1073 657h-323q-5 238 -158 238q-41 0 -72.5 -16.5t-51 -47.5t-32 -66t-18.5 -83.5t-8 -87t-2 -88.5q0 -41 0.5 -65t3.5 -68.5t9.5 -72.5t19 -63.5t30.5 -56t46.5 -35t64.5 -14.5q77 0 121.5 59.5t44.5 176.5h325q0 -182 -127 -288t-379 -106q-239 0 -367 129t-128 412
q0 110 24 198t58.5 143t88 95t97.5 58.5t103 29t87.5 12t67.5 1.5q475 0 475 -394zM907 1139h-211l-102 190l-105 -190h-202l172 303h266z" />
    <glyph glyph-name="Cdotaccent" unicode="&#x10a;" horiz-adv-x="1409" 
d="M1350 956h-363v17q0 162 -57.5 237.5t-171.5 75.5q-95 0 -154 -52t-92 -186t-33 -362q0 -130 13 -225t34.5 -152.5t56.5 -91t72.5 -45.5t87.5 -12q235 0 250 327h377q-7 -135 -50 -228q-121 -254 -496 -287q-54 -5 -113 -5q-109 0 -196.5 17.5t-151.5 48.5t-111.5 80.5
t-77.5 107.5t-48 136.5t-25 160t-7 184.5q0 89 5 160t21.5 154.5t45.5 147t79.5 125.5t119.5 101.5t170.5 64t228.5 24.5q103 0 187 -14t160 -49t127.5 -90.5t81.5 -143t30 -201.5v-25zM881 1573h-238v256h238v-256z" />
    <glyph glyph-name="cdotaccent" unicode="&#x10b;" horiz-adv-x="1130" 
d="M1073 657h-323q-5 238 -158 238q-41 0 -72.5 -16.5t-51 -47.5t-32 -66t-18.5 -83.5t-8 -87t-2 -88.5q0 -41 0.5 -65t3.5 -68.5t9.5 -72.5t19 -63.5t30.5 -56t46.5 -35t64.5 -14.5q77 0 121.5 59.5t44.5 176.5h325q0 -182 -127 -288t-379 -106q-239 0 -367 129t-128 412
q0 110 24 198t58.5 143t88 95t97.5 58.5t103 29t87.5 12t67.5 1.5q475 0 475 -394zM711 1163h-238v256h238v-256z" />
    <glyph glyph-name="Ccaron" unicode="&#x10c;" horiz-adv-x="1409" 
d="M1350 956h-363v17q0 162 -57.5 237.5t-171.5 75.5q-95 0 -154 -52t-92 -186t-33 -362q0 -130 13 -225t34.5 -152.5t56.5 -91t72.5 -45.5t87.5 -12q235 0 250 327h377q-7 -135 -50 -228q-121 -254 -496 -287q-54 -5 -113 -5q-109 0 -196.5 17.5t-151.5 48.5t-111.5 80.5
t-77.5 107.5t-48 136.5t-25 160t-7 184.5q0 89 5 160t21.5 154.5t45.5 147t79.5 125.5t119.5 101.5t170.5 64t228.5 24.5q103 0 187 -14t160 -49t127.5 -90.5t81.5 -143t30 -201.5v-25zM1065 1851l-170 -303h-266l-180 303h208l103 -190l104 190h201z" />
    <glyph glyph-name="ccaron" unicode="&#x10d;" horiz-adv-x="1130" 
d="M1073 657h-323q-5 238 -158 238q-41 0 -72.5 -16.5t-51 -47.5t-32 -66t-18.5 -83.5t-8 -87t-2 -88.5q0 -41 0.5 -65t3.5 -68.5t9.5 -72.5t19 -63.5t30.5 -56t46.5 -35t64.5 -14.5q77 0 121.5 59.5t44.5 176.5h325q0 -182 -127 -288t-379 -106q-239 0 -367 129t-128 412
q0 110 24 198t58.5 143t88 95t97.5 58.5t103 29t87.5 12t67.5 1.5q475 0 475 -394zM901 1442l-172 -303h-266l-182 303h211l102 -191l104 191h203z" />
    <glyph glyph-name="Dcaron" unicode="&#x10e;" horiz-adv-x="1492" 
d="M133 0v1446h625q101 0 164.5 -4.5t149 -30t149.5 -74.5q52 -39 89.5 -99t56.5 -118t29.5 -137t12.5 -132t2 -128q0 -413 -156 -567q-45 -43 -100 -73.5t-104.5 -46.5t-117.5 -24.5t-115.5 -10t-121.5 -1.5h-563zM506 190h174q55 0 100.5 9t80 23.5t61.5 39.5t45.5 52
t32 66t21.5 75t12 86.5t5.5 93.5t1.5 102q0 66 -2 112.5t-9 104.5t-19.5 97.5t-36 80.5t-56 65.5t-81.5 40t-111 15.5h-219v-1063zM936 1851l-170 -303h-266l-181 303h209l103 -190l104 190h201z" />
    <glyph glyph-name="dcaron" unicode="&#x10f;" 
d="M1085 0h-325v125q-121 -143 -324 -143q-89 0 -155 27.5t-105.5 72t-63 113.5t-32 140t-8.5 163q0 56 3 103.5t13 105.5t27.5 103.5t48.5 91t72.5 75.5t103 48.5t137.5 18.5q57 0 101 -9.5t79 -31.5t52.5 -37t50.5 -48v528h325v-1446zM758 401v258q0 93 -42.5 153
t-123.5 60q-66 0 -105 -34.5t-59 -120t-20 -232.5q0 -98 12 -164.5t36 -102.5t53.5 -51t70.5 -15q85 0 131 59q47 61 47 190zM1448 1178l-141 -271h-146l144 271h-144v268h287v-268z" />
    <glyph glyph-name="Dcroat" unicode="&#x110;" horiz-adv-x="1492" 
d="M133 1446h676q156 0 263.5 -34t183 -113.5t110.5 -213t35 -329.5q0 -68 -1.5 -115.5t-11 -127.5t-26.5 -139.5t-51.5 -125t-83.5 -111.5q-41 -38 -94 -64.5t-101.5 -40.5t-113.5 -21.5t-109.5 -9t-108.5 -1.5h-567v676h-125v194h125v576zM506 1255v-385h282v-194h-282
v-486h129q45 0 76 2.5t76.5 11.5t84 31.5t68.5 57.5q90 104 90 446q0 150 -14.5 243.5t-54.5 157.5t-107 89.5t-174 25.5h-174z" />
    <glyph glyph-name="dcroat" unicode="&#x111;" 
d="M500 1313h260v133h325v-133h109v-146h-109v-1167h-325v125q-121 -143 -324 -143q-89 0 -155 27.5t-105.5 72t-63 113.5t-32 140t-8.5 163q0 56 3 103.5t13 105.5t27.5 103.5t48.5 91t72.5 75.5t103 48.5t137.5 18.5q57 0 101 -9.5t79 -31.5t52.5 -37t50.5 -48v249h-260
v146zM758 383v276q0 93 -42.5 153t-123.5 60q-101 0 -142.5 -85.5t-41.5 -274.5q0 -104 10 -186q1 -16 8 -39.5t22.5 -56.5t50 -55.5t81.5 -22.5q90 0 134 63.5t44 167.5z" />
    <glyph glyph-name="Emacron" unicode="&#x112;" horiz-adv-x="1110" 
d="M1081 0h-948v1446h893v-225h-526v-357h479v-227h-479v-412h581v-225zM922 1597h-666v177h666v-177z" />
    <glyph glyph-name="emacron" unicode="&#x113;" horiz-adv-x="1161" 
d="M1085 489h-675v-36q0 -49 2.5 -87t13.5 -85t29.5 -77t54 -51.5t84.5 -21.5q45 0 78.5 17t50.5 39.5t27 53t12 50t2 37.5h323q0 -72 -29 -134.5t-87 -112.5t-156.5 -79t-226.5 -29q-122 0 -213 26t-148 71t-91.5 113t-48 143.5t-13.5 171.5q0 130 28.5 228.5t75.5 159.5
t116.5 98.5t143.5 52t164 14.5q91 0 164.5 -16.5t123 -43t86.5 -66t57 -79.5t32.5 -91.5t16 -92.5t3.5 -91v-82zM414 631h346q0 264 -162 264q-81 0 -130.5 -65t-53.5 -199zM905 1188h-604v176h604v-176z" />
    <glyph glyph-name="Ebreve" unicode="&#x114;" horiz-adv-x="1110" 
d="M1081 0h-948v1446h893v-225h-526v-357h479v-227h-479v-412h581v-225zM692 1843h168q0 -59 -15 -107t-36.5 -78t-52 -52t-57 -33t-57.5 -17t-46 -7t-29 -1q-38 0 -72.5 6t-73.5 25.5t-67 50.5t-46.5 86t-18.5 127h168v-18q0 -16 1.5 -30.5t8.5 -35.5t19 -36t34.5 -26
t52.5 -11q39 0 65.5 18.5t37 47t13.5 47.5t3 36v8z" />
    <glyph glyph-name="ebreve" unicode="&#x115;" horiz-adv-x="1161" 
d="M1085 489h-675v-36q0 -49 2.5 -87t13.5 -85t29.5 -77t54 -51.5t84.5 -21.5q45 0 78.5 17t50.5 39.5t27 53t12 50t2 37.5h323q0 -72 -29 -134.5t-87 -112.5t-156.5 -79t-226.5 -29q-122 0 -213 26t-148 71t-91.5 113t-48 143.5t-13.5 171.5q0 130 28.5 228.5t75.5 159.5
t116.5 98.5t143.5 52t164 14.5q91 0 164.5 -16.5t123 -43t86.5 -66t57 -79.5t32.5 -91.5t16 -92.5t3.5 -91v-82zM414 631h346q0 264 -162 264q-81 0 -130.5 -65t-53.5 -199zM717 1434h168q0 -59 -15 -107t-36.5 -78t-52 -52t-57 -33t-57.5 -17t-46 -7t-29 -1q-38 0 -72.5 6
t-74 25.5t-67.5 50.5t-46.5 86t-18.5 127h168v-19q0 -20 4 -39.5t14.5 -44.5t36 -40t62.5 -15q39 0 65.5 18.5t37 47t13.5 47.5t3 36v9z" />
    <glyph glyph-name="Edotaccent" unicode="&#x116;" horiz-adv-x="1110" 
d="M1081 0h-948v1446h893v-225h-526v-357h479v-227h-479v-412h581v-225zM694 1573h-237v256h237v-256z" />
    <glyph glyph-name="edotaccent" unicode="&#x117;" horiz-adv-x="1161" 
d="M1085 489h-675v-36q0 -49 2.5 -87t13.5 -85t29.5 -77t54 -51.5t84.5 -21.5q45 0 78.5 17t50.5 39.5t27 53t12 50t2 37.5h323q0 -72 -29 -134.5t-87 -112.5t-156.5 -79t-226.5 -29q-122 0 -213 26t-148 71t-91.5 113t-48 143.5t-13.5 171.5q0 130 28.5 228.5t75.5 159.5
t116.5 98.5t143.5 52t164 14.5q91 0 164.5 -16.5t123 -43t86.5 -66t57 -79.5t32.5 -91.5t16 -92.5t3.5 -91v-82zM414 631h346q0 264 -162 264q-81 0 -130.5 -65t-53.5 -199zM719 1163h-238v256h238v-256z" />
    <glyph glyph-name="Eogonek" unicode="&#x118;" horiz-adv-x="1110" 
d="M1081 0h-28q-131 -99 -131 -162q0 -30 22 -50.5t68 -20.5q15 0 28.5 2t26 5t14.5 3v-148q-4 -1 -17 -5t-18.5 -5.5t-18.5 -4.5t-22.5 -4t-25 -2t-31.5 -1q-107 0 -160 49.5t-53 118.5q0 45 25 87t65.5 72.5t60.5 43t40 22.5h-793v1446h893v-225h-526v-357h479v-227h-479
v-412h581v-225z" />
    <glyph glyph-name="eogonek" unicode="&#x119;" horiz-adv-x="1161" 
d="M1085 489h-675v-36q0 -49 2.5 -87t13.5 -85t29.5 -77t54 -51.5t84.5 -21.5q45 0 78.5 17t50.5 39.5t27 53t12 50t2 37.5h323q0 -72 -29 -134.5t-87 -112.5t-156.5 -79t-226.5 -29q-122 0 -213 26t-148 71t-91.5 113t-48 143.5t-13.5 171.5q0 130 28.5 228.5t75.5 159.5
t116.5 98.5t143.5 52t164 14.5q91 0 164.5 -16.5t123 -43t86.5 -66t57 -79.5t32.5 -91.5t16 -92.5t3.5 -91v-82zM414 631h346q0 264 -162 264q-81 0 -130.5 -65t-53.5 -199zM604 12h119l-16 -12q-132 -100 -132 -162q0 -29 22.5 -50t68.5 -21q15 0 28.5 2t26 5t14.5 3v-148
q-4 -1 -17 -5t-18.5 -5.5t-18.5 -4.5t-22.5 -4t-25 -2t-31.5 -1q-107 0 -160 49.5t-53 118.5q0 45 25 87t65.5 72.5t60.5 43t40 22.5z" />
    <glyph glyph-name="Ecaron" unicode="&#x11a;" horiz-adv-x="1110" 
d="M1081 0h-948v1446h893v-225h-526v-357h479v-227h-479v-412h581v-225zM885 1851l-170 -303h-266l-181 303h209l103 -190l104 190h201z" />
    <glyph glyph-name="ecaron" unicode="&#x11b;" horiz-adv-x="1161" 
d="M1085 489h-675v-36q0 -49 2.5 -87t13.5 -85t29.5 -77t54 -51.5t84.5 -21.5q45 0 78.5 17t50.5 39.5t27 53t12 50t2 37.5h323q0 -72 -29 -134.5t-87 -112.5t-156.5 -79t-226.5 -29q-122 0 -213 26t-148 71t-91.5 113t-48 143.5t-13.5 171.5q0 130 28.5 228.5t75.5 159.5
t116.5 98.5t143.5 52t164 14.5q91 0 164.5 -16.5t123 -43t86.5 -66t57 -79.5t32.5 -91.5t16 -92.5t3.5 -91v-82zM414 631h346q0 264 -162 264q-81 0 -130.5 -65t-53.5 -199zM909 1442l-172 -303h-266l-182 303h211l102 -191l105 191h202z" />
    <glyph glyph-name="Gcircumflex" unicode="&#x11c;" horiz-adv-x="1449" 
d="M1350 0h-338v106q-56 -70 -164 -104.5t-221 -34.5q-284 0 -424 193q-71 101 -95 239t-24 303q0 120 13 218t42.5 188t80.5 156t125 115.5t178 74.5t237 25q119 0 214.5 -22.5t155 -54.5t102.5 -82.5t63.5 -91t31.5 -96.5t12.5 -82t1.5 -62v-1h-354q0 299 -235 299
q-68 0 -119.5 -26t-81.5 -80t-48.5 -104t-25.5 -132.5t-8.5 -128.5t-1.5 -127q0 -77 4.5 -138.5t15.5 -124.5t32 -108.5t52 -82t77 -55.5t106 -19q35 0 69.5 7.5t69 25.5t60.5 45t42.5 69t16.5 94v166h-238v203h576v-770zM1067 1548h-209l-102 191l-105 -191h-200l172 303
h266z" />
    <glyph glyph-name="gcircumflex" unicode="&#x11d;" 
d="M1083 1024v-911q0 -55 -2 -95t-8 -90t-17.5 -86.5t-32 -77t-48.5 -69t-70 -55.5t-94.5 -43.5t-123 -26.5t-155.5 -10q-42 0 -80 2.5t-85.5 11t-86.5 21.5t-78 37t-66 55t-43.5 77.5t-16.5 102.5v47h325q0 -28 1.5 -47t10 -52.5t25 -55t49.5 -38t80 -16.5q189 0 189 285
v139q-48 -59 -126.5 -94t-178.5 -35q-67 0 -120 11.5t-103 43.5t-83 85t-53 140t-20 205q0 99 7 169t38 152.5t88 137.5q103 100 274 100q47 0 88 -9.5t68.5 -23t53 -34t38.5 -35t29 -35.5v117h327zM756 369v295q0 94 -38 151t-122 57q-49 0 -84 -20.5t-55 -52.5t-31 -82.5
t-14.5 -97.5t-3.5 -111q0 -67 3 -112.5t13 -94t28.5 -77.5t51 -47.5t78.5 -18.5q75 0 124.5 55t49.5 156zM907 1139h-211l-102 190l-105 -190h-202l172 303h266z" />
    <glyph glyph-name="Gbreve" unicode="&#x11e;" horiz-adv-x="1449" 
d="M1350 0h-338v106q-56 -70 -164 -104.5t-221 -34.5q-284 0 -424 193q-71 101 -95 239t-24 303q0 120 13 218t42.5 188t80.5 156t125 115.5t178 74.5t237 25q119 0 214.5 -22.5t155 -54.5t102.5 -82.5t63.5 -91t31.5 -96.5t12.5 -82t1.5 -62v-1h-354q0 299 -235 299
q-68 0 -119.5 -26t-81.5 -80t-48.5 -104t-25.5 -132.5t-8.5 -128.5t-1.5 -127q0 -77 4.5 -138.5t15.5 -124.5t32 -108.5t52 -82t77 -55.5t106 -19q35 0 69.5 7.5t69 25.5t60.5 45t42.5 69t16.5 94v166h-238v203h576v-770zM866 1843h168q0 -59 -15 -107t-36.5 -78t-52 -52
t-57 -33t-57.5 -17t-46 -7t-29 -1q-38 0 -72.5 6t-73.5 25.5t-67 50.5t-46.5 86t-18.5 127h168v-18q0 -20 4 -39.5t14.5 -44.5t36 -40t62.5 -15q39 0 65.5 18.5t36.5 47.5t13 47.5t3 35.5v8z" />
    <glyph glyph-name="gbreve" unicode="&#x11f;" 
d="M1083 1024v-911q0 -55 -2 -95t-8 -90t-17.5 -86.5t-32 -77t-48.5 -69t-70 -55.5t-94.5 -43.5t-123 -26.5t-155.5 -10q-42 0 -80 2.5t-85.5 11t-86.5 21.5t-78 37t-66 55t-43.5 77.5t-16.5 102.5v47h325q0 -28 1.5 -47t10 -52.5t25 -55t49.5 -38t80 -16.5q189 0 189 285
v139q-48 -59 -126.5 -94t-178.5 -35q-67 0 -120 11.5t-103 43.5t-83 85t-53 140t-20 205q0 99 7 169t38 152.5t88 137.5q103 100 274 100q47 0 88 -9.5t68.5 -23t53 -34t38.5 -35t29 -35.5v117h327zM756 369v295q0 94 -38 151t-122 57q-49 0 -84 -20.5t-55 -52.5t-31 -82.5
t-14.5 -97.5t-3.5 -111q0 -67 3 -112.5t13 -94t28.5 -77.5t51 -47.5t78.5 -18.5q75 0 124.5 55t49.5 156zM692 1434h168q0 -59 -15 -107t-36.5 -78t-52 -52t-57 -33t-57.5 -17t-46 -7t-29 -1q-38 0 -72.5 6t-73.5 25.5t-67 50.5t-46.5 86t-18.5 127h168v-19q0 -16 1.5 -30.5
t8.5 -35.5t19 -36t34.5 -26t52.5 -11q39 0 65.5 18.5t37 47t13.5 47.5t3 36v9z" />
    <glyph glyph-name="Gdotaccent" unicode="&#x120;" horiz-adv-x="1449" 
d="M1350 0h-338v106q-56 -70 -164 -104.5t-221 -34.5q-284 0 -424 193q-71 101 -95 239t-24 303q0 120 13 218t42.5 188t80.5 156t125 115.5t178 74.5t237 25q119 0 214.5 -22.5t155 -54.5t102.5 -82.5t63.5 -91t31.5 -96.5t12.5 -82t1.5 -62v-1h-354q0 299 -235 299
q-68 0 -119.5 -26t-81.5 -80t-48.5 -104t-25.5 -132.5t-8.5 -128.5t-1.5 -127q0 -77 4.5 -138.5t15.5 -124.5t32 -108.5t52 -82t77 -55.5t106 -19q35 0 69.5 7.5t69 25.5t60.5 45t42.5 69t16.5 94v166h-238v203h576v-770zM864 1573h-237v256h237v-256z" />
    <glyph glyph-name="gdotaccent" unicode="&#x121;" 
d="M1083 1024v-911q0 -55 -2 -95t-8 -90t-17.5 -86.5t-32 -77t-48.5 -69t-70 -55.5t-94.5 -43.5t-123 -26.5t-155.5 -10q-42 0 -80 2.5t-85.5 11t-86.5 21.5t-78 37t-66 55t-43.5 77.5t-16.5 102.5v47h325q0 -28 1.5 -47t10 -52.5t25 -55t49.5 -38t80 -16.5q189 0 189 285
v139q-48 -59 -126.5 -94t-178.5 -35q-67 0 -120 11.5t-103 43.5t-83 85t-53 140t-20 205q0 99 7 169t38 152.5t88 137.5q103 100 274 100q47 0 88 -9.5t68.5 -23t53 -34t38.5 -35t29 -35.5v117h327zM756 369v295q0 94 -38 151t-122 57q-49 0 -84 -20.5t-55 -52.5t-31 -82.5
t-14.5 -97.5t-3.5 -111q0 -67 3 -112.5t13 -94t28.5 -77.5t51 -47.5t78.5 -18.5q75 0 124.5 55t49.5 156zM727 1163h-238v256h238v-256z" />
    <glyph glyph-name="Gcommaaccent" unicode="&#x122;" horiz-adv-x="1449" 
d="M1350 0h-338v106q-56 -70 -164 -104.5t-221 -34.5q-284 0 -424 193q-71 101 -95 239t-24 303q0 120 13 218t42.5 188t80.5 156t125 115.5t178 74.5t237 25q119 0 214.5 -22.5t155 -54.5t102.5 -82.5t63.5 -91t31.5 -96.5t12.5 -82t1.5 -62v-1h-354q0 299 -235 299
q-68 0 -119.5 -26t-81.5 -80t-48.5 -104t-25.5 -132.5t-8.5 -128.5t-1.5 -127q0 -77 4.5 -138.5t15.5 -124.5t32 -108.5t52 -82t77 -55.5t106 -19q35 0 69.5 7.5t69 25.5t60.5 45t42.5 69t16.5 94v166h-238v203h576v-770zM874 -317l-135 -218h-139l141 209h-135v254h268
v-245z" />
    <glyph glyph-name="gcommaaccent" unicode="&#x123;" 
d="M1083 1024v-911q0 -55 -2 -95t-8 -90t-17.5 -86.5t-32 -77t-48.5 -69t-70 -55.5t-94.5 -43.5t-123 -26.5t-155.5 -10q-42 0 -80 2.5t-85.5 11t-86.5 21.5t-78 37t-66 55t-43.5 77.5t-16.5 102.5v47h325q0 -28 1.5 -47t10 -52.5t25 -55t49.5 -38t80 -16.5q189 0 189 285
v139q-48 -59 -126.5 -94t-178.5 -35q-67 0 -120 11.5t-103 43.5t-83 85t-53 140t-20 205q0 99 7 169t38 152.5t88 137.5q103 100 274 100q47 0 88 -9.5t68.5 -23t53 -34t38.5 -35t29 -35.5v117h327zM756 369v295q0 94 -38 151t-122 57q-49 0 -84 -20.5t-55 -52.5t-31 -82.5
t-14.5 -97.5t-3.5 -111q0 -67 3 -112.5t13 -94t28.5 -77.5t51 -47.5t78.5 -18.5q75 0 124.5 55t49.5 156zM422 1391l135 217h139l-141 -209h135v-254h-268v246z" />
    <glyph glyph-name="Hcircumflex" unicode="&#x124;" horiz-adv-x="1449" 
d="M1319 0h-373v649h-440v-649h-373v1446h373v-569h440v569h373v-1446zM1032 1548h-209l-102 191l-105 -191h-200l172 303h266z" />
    <glyph glyph-name="hcircumflex" unicode="&#x125;" 
d="M1083 0h-331v668q0 64 -11 106.5t-32.5 62.5t-44.5 27.5t-54 7.5q-85 0 -126.5 -49t-41.5 -125v-698h-331v1446h331v-537q154 135 338 135q79 0 136.5 -22t89 -54t49.5 -81t23 -91t5 -96v-700zM580 1548h-209l-103 191l-104 -191h-201l172 303h266z" />
    <glyph glyph-name="Hbar" unicode="&#x126;" horiz-adv-x="1449" 
d="M51 1042v195h82v209h373v-209h440v209h373v-209h82v-195h-82v-1042h-373v649h-440v-649h-373v1042h-82zM506 877h440v165h-440v-165z" />
    <glyph glyph-name="hbar" unicode="&#x127;" 
d="M0 1313h111v133h331v-133h252v-146h-252v-258q154 135 338 135q79 0 136.5 -22t89 -54t49.5 -81t23 -91t5 -96v-700h-331v668q0 64 -11 106.5t-32.5 62.5t-44.5 27.5t-54 7.5q-85 0 -126.5 -49t-41.5 -125v-698h-331v1167h-111v146z" />
    <glyph glyph-name="Itilde" unicode="&#x128;" horiz-adv-x="641" 
d="M508 0h-375v1446h375v-1446zM645 1845v-96q0 -102 -29 -153.5t-112 -51.5q-42 0 -80 17t-90 51l-74 49q-41 27 -59 27q-10 0 -16.5 -6.5t-9 -20t-3 -23t-0.5 -26.5v-56h-176v95q0 36 1 55.5t8 52t20 50.5t40 32t66 14q70 0 143 -49l76 -51q68 -47 84 -47q15 0 22 12.5
t8 25.5t1 40v59h180z" />
    <glyph glyph-name="itilde" unicode="&#x129;" horiz-adv-x="555" 
d="M444 0h-333v1024h333v-1024zM602 1436v-97q0 -102 -29 -153t-112 -51q-69 0 -170 67l-74 49q-40 27 -59 27q-10 0 -16.5 -6.5t-9 -20t-3 -23t-0.5 -26.5v-55h-176v94q0 25 0.5 39t3 39t7 39.5t14.5 33.5t24 29t36 17.5t50 7.5q70 0 143 -49l76 -51q69 -48 84 -48t22 12.5
t8 25.5t1 40v60h180z" />
    <glyph glyph-name="uni012A" unicode="&#x12a;" horiz-adv-x="641" 
d="M647 1597h-653v177h653v-177zM508 0h-375v1446h375v-1446z" />
    <glyph glyph-name="imacron" unicode="&#x12b;" horiz-adv-x="555" 
d="M561 1188h-567v176h567v-176zM444 0h-333v1024h333v-1024z" />
    <glyph glyph-name="Ibreve" unicode="&#x12c;" horiz-adv-x="641" 
d="M508 0h-375v1446h375v-1446zM438 1843h168q0 -59 -15 -107t-36.5 -78t-52 -52t-57 -33t-57.5 -17t-46 -7t-29 -1q-38 0 -72.5 6t-73.5 25.5t-67 50.5t-46.5 86t-18.5 127h168v-18q0 -16 1.5 -30.5t8.5 -35.5t19 -36t34.5 -26t52.5 -11q39 0 65.5 18.5t37 47t13.5 47.5
t3 36v8z" />
    <glyph glyph-name="uni012D" unicode="&#x12d;" horiz-adv-x="555" 
d="M444 0h-333v1024h333v-1024zM395 1434h168q0 -59 -15 -107t-36.5 -78t-52 -52t-57 -33t-57.5 -17t-46 -7t-29 -1q-38 0 -72.5 6t-73.5 25.5t-67 50.5t-46.5 86t-18.5 127h168v-19q0 -16 1.5 -30.5t8.5 -35.5t19 -36t34.5 -26t52.5 -11q39 0 65.5 18.5t37 47t13.5 47.5
t3 36v9z" />
    <glyph glyph-name="Iogonek" unicode="&#x12e;" horiz-adv-x="641" 
d="M508 0h-19q-131 -99 -131 -162q0 -29 22.5 -50t68.5 -21q15 0 28.5 2t26 5t14.5 3v-148q-4 -1 -17 -5t-18.5 -5.5t-18.5 -4.5t-22.5 -4t-25 -2t-31.5 -1q-107 0 -160 49.5t-53 118.5q0 45 25 87t65 72.5t60 43t40 22.5h-229v1446h375v-1446z" />
    <glyph glyph-name="iogonek" unicode="&#x12f;" horiz-adv-x="555" 
d="M444 0h-22q-131 -99 -131 -162q0 -30 22 -50.5t68 -20.5q10 0 70 10v-148q-77 -22 -134 -22q-107 0 -160 49.5t-53 118.5q0 45 25 87t65.5 72.5t60.5 43t40 22.5h-184v1024h333v-1024zM444 1180h-333v256h333v-256z" />
    <glyph glyph-name="Idotaccent" unicode="&#x130;" horiz-adv-x="641" 
d="M508 0h-375v1446h375v-1446zM438 1573h-237v256h237v-256z" />
    <glyph glyph-name="dotlessi" unicode="&#x131;" horiz-adv-x="555" 
d="M444 0h-333v1024h333v-1024z" />
    <glyph glyph-name="IJ" unicode="&#x132;" horiz-adv-x="1579" 
d="M508 0h-375v1446h375v-1446zM641 43v229q1 -1 23 -10.5t32.5 -14t35 -13.5t42.5 -13t43.5 -8t48.5 -4q76 0 127 39q50 38 63 97t13 192v909h375v-893q0 -63 -1.5 -104.5t-8 -100.5t-22 -108.5t-40.5 -89.5q-48 -75 -148 -125t-257 -50q-78 0 -145.5 12t-100.5 23.5
t-80 32.5z" />
    <glyph glyph-name="ij" unicode="&#x133;" horiz-adv-x="1110" 
d="M444 1180h-333v256h333v-256zM444 0h-333v1024h333v-1024zM997 1024v-1063q0 -43 -3 -77.5t-13 -75.5t-27 -72.5t-46.5 -62.5t-70 -51t-99.5 -32t-132 -12q-66 0 -127 6v195q24 -4 47 -4q39 0 65 11.5t41.5 30t23.5 53.5t10 68.5t2 88.5v997h329zM997 1180h-329v256h329
v-256z" />
    <glyph glyph-name="Jcircumflex" unicode="&#x134;" horiz-adv-x="937" 
d="M0 43v229q1 -1 23 -10.5t32.5 -14t35 -13.5t42.5 -13t43.5 -8t48.5 -4q76 0 127 39q50 38 63 97t13 192v909h375v-893q0 -63 -1.5 -104.5t-8 -100.5t-22 -108.5t-40.5 -89.5q-48 -75 -148.5 -125t-256.5 -50q-78 0 -145.5 12t-100.5 23.5t-80 32.5zM928 1548h-209
l-103 191l-104 -191h-201l172 303h267z" />
    <glyph glyph-name="jcircumflex" unicode="&#x135;" horiz-adv-x="555" 
d="M442 1024v-1063q0 -43 -3 -77.5t-13 -75.5t-27 -72.5t-46.5 -62.5t-70 -51t-99.5 -32t-132 -12q-66 0 -127 6v195q24 -4 47 -4q39 0 65 11.5t41.5 30t23.5 53.5t10 68.5t2 88.5v997h329zM588 1139h-211l-103 190l-104 -190h-203l172 303h267z" />
    <glyph glyph-name="Kcommaaccent" unicode="&#x136;" horiz-adv-x="1366" 
d="M1376 0h-405l-340 614l-142 -170v-444h-356v1446h356v-600l451 600h375l-434 -528zM819 -317l-135 -218h-139l141 209h-135v254h268v-245z" />
    <glyph glyph-name="kcommaaccent" unicode="&#x137;" horiz-adv-x="1150" 
d="M1161 0h-358l-234 440l-133 -153v-287h-325v1446h325v-828l318 406h336l-299 -340zM713 -317l-135 -218h-140l142 209h-136v254h269v-245z" />
    <glyph glyph-name="kgreenlandic" unicode="&#x138;" horiz-adv-x="1150" 
d="M1161 0h-358l-234 440l-133 -153v-287h-325v1024h325v-406l318 406h336l-299 -340z" />
    <glyph glyph-name="Lacute" unicode="&#x139;" horiz-adv-x="1110" 
d="M1087 0h-954v1446h375v-1221h579v-225zM688 1851l-301 -303h-246l205 303h342z" />
    <glyph glyph-name="lacute" unicode="&#x13a;" horiz-adv-x="555" 
d="M442 0h-331v1446h331v-1446zM664 1851l-302 -303h-245l205 303h342z" />
    <glyph glyph-name="Lcommaaccent" unicode="&#x13b;" horiz-adv-x="1110" 
d="M1087 0h-954v1446h375v-1221h579v-225zM756 -317l-135 -218h-140l142 209h-136v254h269v-245z" />
    <glyph glyph-name="lcommaaccent" unicode="&#x13c;" horiz-adv-x="555" 
d="M442 0h-331v1446h331v-1446zM414 -317l-135 -218h-140l142 209h-136v254h269v-245z" />
    <glyph glyph-name="Lcaron" unicode="&#x13d;" horiz-adv-x="1110" 
d="M1087 0h-954v1446h375v-1221h579v-225zM899 1178l-141 -271h-146l144 271h-144v268h287v-268z" />
    <glyph glyph-name="lcaron" unicode="&#x13e;" horiz-adv-x="555" 
d="M442 0h-331v1446h331v-1446zM819 1178l-141 -271h-146l144 271h-144v268h287v-268z" />
    <glyph glyph-name="Ldot" unicode="&#x13f;" horiz-adv-x="1110" 
d="M1087 0h-954v1446h375v-1221h579v-225zM1028 702h-334v306h334v-306z" />
    <glyph glyph-name="ldot" unicode="&#x140;" horiz-adv-x="790" 
d="M442 0h-331v1446h331v-1446zM823 678h-309v285h309v-285z" />
    <glyph glyph-name="Lslash" unicode="&#x141;" horiz-adv-x="1110" 
d="M1087 0h-954v518l-125 -104v200l125 105v727h375v-412l219 187v-199l-219 -191v-606h579v-225z" />
    <glyph glyph-name="lslash" unicode="&#x142;" horiz-adv-x="555" 
d="M547 920l-105 -91v-829h-329v553l-105 -86v182l105 86v711h329v-434l105 88v-180z" />
    <glyph glyph-name="Nacute" unicode="&#x143;" horiz-adv-x="1492" 
d="M1362 0h-420q-460 897 -493 1001l12 -1001h-328v1446h426q18 -35 48.5 -94.5t110.5 -216.5t143 -285t120 -251t68 -163l-9 1010h322v-1446zM1087 1851l-301 -303h-245l204 303h342z" />
    <glyph glyph-name="nacute" unicode="&#x144;" 
d="M1083 0h-329v657q0 111 -31.5 163t-112.5 52q-40 0 -76 -13.5t-64 -52.5t-28 -97v-709h-331v1024h331v-115q36 30 61.5 47.5t69 41t96.5 35t115 11.5q23 0 43.5 -1.5t52 -9t57.5 -19.5t54.5 -35t47.5 -54.5t31.5 -79.5t12.5 -108v-737zM938 1442l-301 -303h-246l205 303
h342z" />
    <glyph glyph-name="Ncommaaccent" unicode="&#x145;" horiz-adv-x="1492" 
d="M1362 0h-420q-460 897 -493 1001l12 -1001h-328v1446h426q18 -35 48.5 -94.5t110.5 -216.5t143 -285t120 -251t68 -163l-9 1010h322v-1446zM883 -317l-135 -218h-140l142 209h-136v254h269v-245z" />
    <glyph glyph-name="ncommaaccent" unicode="&#x146;" 
d="M1083 0h-329v657q0 111 -31.5 163t-112.5 52q-40 0 -76 -13.5t-64 -52.5t-28 -97v-709h-331v1024h331v-115q36 30 61.5 47.5t69 41t96.5 35t115 11.5q23 0 43.5 -1.5t52 -9t57.5 -19.5t54.5 -35t47.5 -54.5t31.5 -79.5t12.5 -108v-737zM733 -317l-135 -218h-139l141 209
h-135v254h268v-245z" />
    <glyph glyph-name="Ncaron" unicode="&#x147;" horiz-adv-x="1492" 
d="M1362 0h-420q-460 897 -493 1001l12 -1001h-328v1446h426q18 -35 48.5 -94.5t110.5 -216.5t143 -285t120 -251t68 -163l-9 1010h322v-1446zM1055 1851l-170 -303h-267l-180 303h209l103 -190l104 190h201z" />
    <glyph glyph-name="ncaron" unicode="&#x148;" 
d="M1083 0h-329v657q0 111 -31.5 163t-112.5 52q-40 0 -76 -13.5t-64 -52.5t-28 -97v-709h-331v1024h331v-115q36 30 61.5 47.5t69 41t96.5 35t115 11.5q23 0 43.5 -1.5t52 -9t57.5 -19.5t54.5 -35t47.5 -54.5t31.5 -79.5t12.5 -108v-737zM907 1442l-172 -303h-266l-182 303
h211l102 -191l105 191h202z" />
    <glyph glyph-name="napostrophe" unicode="&#x149;" 
d="M1083 0h-329v657q0 111 -31.5 163t-112.5 52q-40 0 -76 -13.5t-64 -52.5t-28 -97v-709h-331v1024h331v-115q36 30 61.5 47.5t69 41t96.5 35t115 11.5q23 0 43.5 -1.5t52 -9t57.5 -19.5t54.5 -35t47.5 -54.5t31.5 -79.5t12.5 -108v-737zM170 1178l-141 -271h-146l144 271
h-144v268h287v-268z" />
    <glyph glyph-name="Eng" unicode="&#x14a;" horiz-adv-x="1492" 
d="M1040 -55q-1 2 -50.5 86.5t-108.5 186.5t-134.5 234t-137 241.5t-107.5 196.5t-53 111l12 -1001h-328v1446h426q50 -86 126 -216.5t211 -378.5t153 -312l-9 907h322v-1460q0 -66 -6.5 -117.5t-23 -99.5t-45 -82t-70 -60t-101.5 -38.5t-137 -12.5q-78 0 -143 8v211
q46 -6 79 -6q68 0 96.5 31.5t28.5 124.5z" />
    <glyph glyph-name="eng" unicode="&#x14b;" 
d="M1083 -39q0 -43 -3 -78t-13 -76t-27 -72.5t-46.5 -62.5t-70 -51t-99.5 -32.5t-132 -12.5q-66 0 -127 6v195q24 -4 53 -4q60 0 87.5 17.5t38 63.5t10.5 146v657q0 111 -31.5 163t-112.5 52q-40 0 -76 -13.5t-64 -52.5t-28 -97v-709h-331v1024h331v-115q36 30 61.5 47.5
t69 41t96.5 35t115 11.5q23 0 43.5 -1.5t52 -9t57.5 -19.5t54.5 -35t47.5 -54.5t31.5 -79.5t12.5 -108v-776z" />
    <glyph glyph-name="Omacron" unicode="&#x14c;" horiz-adv-x="1492" 
d="M1409 776q0 -214 -34 -361.5t-112 -250t-206.5 -150t-317.5 -47.5q-178 0 -298.5 35.5t-202 120.5t-118 224.5t-36.5 348.5q0 82 4.5 148.5t16.5 141t34.5 133t57 117t86.5 101t119 75.5t159 50t203 17q152 0 264.5 -32t185 -89t116.5 -146.5t61.5 -193.5t17.5 -242z
M1026 758q0 71 -1.5 120t-7.5 108.5t-17 99.5t-31 81t-48.5 65t-70 39t-94.5 15q-57 0 -102 -18t-75 -46.5t-51.5 -77t-33 -95t-18 -117t-8 -126.5t-1.5 -138q0 -200 27 -309.5t85 -154t164 -44.5q105 0 165 53.5t89 183.5t29 361zM1096 1597h-666v177h666v-177z" />
    <glyph glyph-name="omacron" unicode="&#x14d;" 
d="M1122 528q0 -153 -33 -259.5t-101 -171.5t-164 -94.5t-230 -29.5q-121 0 -212 25t-149.5 68.5t-95 109.5t-51 141t-14.5 170q0 60 3 106.5t16 108t35 107.5t63.5 94t98 78.5t141.5 50t192 19.5q96 0 172.5 -16.5t128.5 -43t89.5 -68.5t58.5 -84t33 -99t15.5 -104
t3.5 -108zM786 492v65q0 175 -41.5 256.5t-140.5 81.5q-98 0 -147 -84.5t-49 -284.5v-98q0 -299 188 -299q102 0 146 92t44 271zM911 1188h-604v176h604v-176z" />
    <glyph glyph-name="Obreve" unicode="&#x14e;" horiz-adv-x="1492" 
d="M1409 776q0 -214 -34 -361.5t-112 -250t-206.5 -150t-317.5 -47.5q-178 0 -298.5 35.5t-202 120.5t-118 224.5t-36.5 348.5q0 82 4.5 148.5t16.5 141t34.5 133t57 117t86.5 101t119 75.5t159 50t203 17q152 0 264.5 -32t185 -89t116.5 -146.5t61.5 -193.5t17.5 -242z
M1026 758q0 71 -1.5 120t-7.5 108.5t-17 99.5t-31 81t-48.5 65t-70 39t-94.5 15q-57 0 -102 -18t-75 -46.5t-51.5 -77t-33 -95t-18 -117t-8 -126.5t-1.5 -138q0 -200 27 -309.5t85 -154t164 -44.5q105 0 165 53.5t89 183.5t29 361zM883 1843h168q0 -59 -15 -107t-36.5 -78
t-52 -52t-57 -33t-57.5 -17t-46 -7t-29 -1q-38 0 -72.5 6t-74 25.5t-67.5 50.5t-46.5 86t-18.5 127h168v-18q0 -20 4 -39.5t14.5 -44.5t36 -40t62.5 -15q39 0 65.5 18.5t37 47t13.5 47.5t3 36v8z" />
    <glyph glyph-name="obreve" unicode="&#x14f;" 
d="M1122 528q0 -153 -33 -259.5t-101 -171.5t-164 -94.5t-230 -29.5q-121 0 -212 25t-149.5 68.5t-95 109.5t-51 141t-14.5 170q0 60 3 106.5t16 108t35 107.5t63.5 94t98 78.5t141.5 50t192 19.5q96 0 172.5 -16.5t128.5 -43t89.5 -68.5t58.5 -84t33 -99t15.5 -104
t3.5 -108zM786 492v65q0 175 -41.5 256.5t-140.5 81.5q-98 0 -147 -84.5t-49 -284.5v-98q0 -299 188 -299q102 0 146 92t44 271zM725 1434h168q0 -59 -15 -107t-36.5 -78t-52 -52t-57 -33t-57.5 -17t-46 -7t-29 -1q-38 0 -72.5 6t-73.5 25.5t-67 50.5t-46.5 86t-18.5 127
h167v-19q0 -20 4 -39.5t14.5 -44.5t36 -40t62.5 -15q39 0 65.5 18.5t37 47t13.5 47.5t3 36v9z" />
    <glyph glyph-name="Ohungarumlaut" unicode="&#x150;" horiz-adv-x="1492" 
d="M1409 776q0 -214 -34 -361.5t-112 -250t-206.5 -150t-317.5 -47.5q-178 0 -298.5 35.5t-202 120.5t-118 224.5t-36.5 348.5q0 82 4.5 148.5t16.5 141t34.5 133t57 117t86.5 101t119 75.5t159 50t203 17q152 0 264.5 -32t185 -89t116.5 -146.5t61.5 -193.5t17.5 -242z
M1026 758q0 71 -1.5 120t-7.5 108.5t-17 99.5t-31 81t-48.5 65t-70 39t-94.5 15q-57 0 -102 -18t-75 -46.5t-51.5 -77t-33 -95t-18 -117t-8 -126.5t-1.5 -138q0 -200 27 -309.5t85 -154t164 -44.5q105 0 165 53.5t89 183.5t29 361zM926 1851l-299 -303h-226l205 303h320z
M1325 1851l-299 -303h-225l205 303h319z" />
    <glyph glyph-name="ohungarumlaut" unicode="&#x151;" 
d="M1122 528q0 -153 -33 -259.5t-101 -171.5t-164 -94.5t-230 -29.5q-121 0 -212 25t-149.5 68.5t-95 109.5t-51 141t-14.5 170q0 60 3 106.5t16 108t35 107.5t63.5 94t98 78.5t141.5 50t192 19.5q96 0 172.5 -16.5t128.5 -43t89.5 -68.5t58.5 -84t33 -99t15.5 -104
t3.5 -108zM786 492v65q0 175 -41.5 256.5t-140.5 81.5q-98 0 -147 -84.5t-49 -284.5v-98q0 -299 188 -299q102 0 146 92t44 271zM754 1442l-299 -303h-228l205 303h322zM1153 1442l-299 -303h-227l204 303h322z" />
    <glyph glyph-name="OE" unicode="&#x152;" horiz-adv-x="2004" 
d="M1960 0h-920v66q-52 -27 -92 -42.5t-119.5 -31t-173.5 -15.5q-26 0 -52 1t-80.5 9.5t-101.5 23t-102 45t-94 71.5q-46 49 -76.5 119t-43.5 152.5t-17 146t-4 143.5q0 241 36.5 382t106.5 222q76 89 208.5 133.5t266.5 44.5q80 0 151 -14.5t110 -30.5t92 -43v64h852v-225
h-549v-357h504v-227h-504v-412h602v-225zM465 739q0 -224 25.5 -346.5t82.5 -175.5t162 -53q55 0 97.5 16.5t71 41.5t48.5 70t31 86t16.5 106.5t7 115.5t1.5 127q0 215 -26 335.5t-82 171t-155 50.5q-154 0 -217 -128t-63 -417z" />
    <glyph glyph-name="oe" unicode="&#x153;" horiz-adv-x="1792" 
d="M1726 487h-661v-61q0 -46 2.5 -81t13 -78t28 -70.5t51 -46.5t79.5 -19q49 0 84 20.5t51.5 53.5t23.5 63t7 60h324q-3 -74 -34 -137t-88.5 -112.5t-151 -77.5t-212.5 -28q-258 0 -334 133q-98 -133 -370 -133q-225 0 -346 125q-70 72 -95.5 171.5t-25.5 232.5
q0 93 12.5 168t47 148.5t90.5 122.5t149 79.5t217 30.5q129 0 205.5 -33t140.5 -90q25 22 44 36t61.5 38t103 36.5t133.5 12.5q450 0 450 -500v-64zM1071 629h330q0 39 -2.5 70t-11.5 70t-25 64.5t-46 43.5t-71 18q-19 0 -35 -2.5t-42.5 -17t-44.5 -41t-33.5 -79.5
t-18.5 -126zM770 506q0 56 -1 94.5t-5 83t-11.5 73.5t-20 57.5t-30.5 44.5t-44 26t-60 10q-39 0 -69.5 -16t-50.5 -38.5t-34 -60t-20.5 -68.5t-10.5 -77t-4.5 -71.5t-0.5 -65.5q0 -83 6.5 -141.5t24 -113.5t54.5 -83.5t93 -28.5q42 0 73.5 14.5t51 43.5t32 60.5t18 79
t7.5 85.5t2 92z" />
    <glyph glyph-name="Racute" unicode="&#x154;" horiz-adv-x="1366" 
d="M133 1446h723q416 0 416 -373q0 -62 -13 -114.5t-32 -87t-48 -62.5t-54 -43.5t-58.5 -28t-51.5 -16.5t-42 -8q118 -16 180 -92q66 -82 100 -254l21 -101q24 -119 42.5 -170.5t55.5 -95.5h-383q-23 16 -41 57t-26 76t-25 115l-14 71q-22 110 -45.5 161t-69.5 87
q-57 43 -180 43h-90v-610h-365v1446zM498 799h155q129 0 189.5 55.5t60.5 179.5q0 57 -14 98t-36 64t-58.5 36.5t-70.5 17t-83 3.5h-143v-454zM985 1851l-301 -303h-246l205 303h342z" />
    <glyph glyph-name="racute" unicode="&#x155;" horiz-adv-x="768" 
d="M440 0h-331v1024h331v-182q31 88 105 145q69 55 153 55q47 0 82 -20v-268q-81 45 -149 45q-50 0 -87.5 -17.5t-56.5 -41t-30.5 -55.5t-14 -53t-2.5 -42v-590zM707 1442l-301 -303h-246l205 303h342z" />
    <glyph glyph-name="Rcommaaccent" unicode="&#x156;" horiz-adv-x="1366" 
d="M133 1446h723q416 0 416 -373q0 -62 -13 -114.5t-32 -87t-48 -62.5t-54 -43.5t-58.5 -28t-51.5 -16.5t-42 -8q118 -16 180 -92q66 -82 100 -254l21 -101q24 -119 42.5 -170.5t55.5 -95.5h-383q-23 16 -41 57t-26 76t-25 115l-14 71q-22 110 -45.5 161t-69.5 87
q-57 43 -180 43h-90v-610h-365v1446zM498 799h155q129 0 189.5 55.5t60.5 179.5q0 57 -14 98t-36 64t-58.5 36.5t-70.5 17t-83 3.5h-143v-454zM819 -317l-135 -218h-139l141 209h-135v254h268v-245z" />
    <glyph glyph-name="rcommaaccent" unicode="&#x157;" horiz-adv-x="768" 
d="M440 0h-331v1024h331v-182q31 88 105 145q69 55 153 55q47 0 82 -20v-268q-81 45 -149 45q-50 0 -87.5 -17.5t-56.5 -41t-30.5 -55.5t-14 -53t-2.5 -42v-590zM416 -317l-135 -218h-140l142 209h-136v254h269v-245z" />
    <glyph glyph-name="Rcaron" unicode="&#x158;" horiz-adv-x="1366" 
d="M133 1446h723q416 0 416 -373q0 -62 -13 -114.5t-32 -87t-48 -62.5t-54 -43.5t-58.5 -28t-51.5 -16.5t-42 -8q118 -16 180 -92q66 -82 100 -254l21 -101q24 -119 42.5 -170.5t55.5 -95.5h-383q-23 16 -41 57t-26 76t-25 115l-14 71q-22 110 -45.5 161t-69.5 87
q-57 43 -180 43h-90v-610h-365v1446zM498 799h155q129 0 189.5 55.5t60.5 179.5q0 57 -14 98t-36 64t-58.5 36.5t-70.5 17t-83 3.5h-143v-454zM915 1851l-170 -303h-266l-180 303h209l102 -190l105 190h200z" />
    <glyph glyph-name="rcaron" unicode="&#x159;" horiz-adv-x="768" 
d="M440 0h-331v1024h331v-182q31 88 105 145q69 55 153 55q47 0 82 -20v-268q-81 45 -149 45q-50 0 -87.5 -17.5t-56.5 -41t-30.5 -55.5t-14 -53t-2.5 -42v-590zM731 1442l-172 -303h-266l-182 303h211l102 -191l104 191h203z" />
    <glyph glyph-name="Sacute" unicode="&#x15a;" horiz-adv-x="1280" 
d="M1180 1075v-20q-258 4 -326 4q0 36 -4 65t-16.5 60.5t-33.5 52.5t-58 35t-87 14q-58 0 -101 -18.5t-64 -47t-30 -55t-9 -51.5q0 -41 18 -73t55 -55t71 -37t87 -31l119 -37q105 -33 177.5 -70t126.5 -88.5t79.5 -121t25.5 -161.5q0 -102 -31 -183t-83 -134t-124 -88.5
t-150.5 -50.5t-166.5 -15q-306 0 -451 108.5t-145 325.5v33q144 -4 353 -4v-16q0 -254 233 -254q57 0 100 17.5t65 41t35 55t16 52.5t3 41q0 32 -6 56t-21 44t-32 34t-48 28.5t-59 25t-75 25.5l-95 30q-71 23 -122.5 43t-103 47.5t-85.5 58.5t-61.5 71.5t-40.5 92.5t-13 115
q0 218 148 327.5t412 109.5q269 0 393.5 -97t124.5 -305zM1038 1851l-301 -303h-245l204 303h342z" />
    <glyph glyph-name="sacute" unicode="&#x15b;" horiz-adv-x="1024" 
d="M944 760v-17q-219 5 -287 7v12q0 23 -5 43.5t-18 44.5t-43.5 38.5t-74.5 14.5q-57 0 -98 -28.5t-41 -83.5q0 -94 176 -134l96 -22q56 -13 97 -27.5t84.5 -39.5t70.5 -57.5t44.5 -82.5t17.5 -113q0 -118 -59 -195.5t-160 -112t-242 -34.5q-41 0 -74.5 1.5t-82 8.5
t-85.5 18.5t-77.5 34t-67 53t-43.5 77.5t-17 106l2 35l305 -6v-18q0 -156 168 -156q62 0 102 31.5t40 93.5q0 29 -11 51.5t-25 35.5t-41 24.5t-43 15.5l-48 12l-131 33q-31 8 -49.5 13.5t-53.5 18.5t-57 26.5t-50 37t-44 50t-27.5 65.5t-11.5 84q0 160 112 246t322 86
q72 0 131 -7t116.5 -26.5t96 -51t62.5 -84t24 -122.5zM907 1442l-301 -303h-246l205 303h342z" />
    <glyph glyph-name="Scircumflex" unicode="&#x15c;" horiz-adv-x="1280" 
d="M1180 1075v-20q-258 4 -326 4q0 36 -4 65t-16.5 60.5t-33.5 52.5t-58 35t-87 14q-58 0 -101 -18.5t-64 -47t-30 -55t-9 -51.5q0 -41 18 -73t55 -55t71 -37t87 -31l119 -37q105 -33 177.5 -70t126.5 -88.5t79.5 -121t25.5 -161.5q0 -102 -31 -183t-83 -134t-124 -88.5
t-150.5 -50.5t-166.5 -15q-306 0 -451 108.5t-145 325.5v33q144 -4 353 -4v-16q0 -254 233 -254q57 0 100 17.5t65 41t35 55t16 52.5t3 41q0 32 -6 56t-21 44t-32 34t-48 28.5t-59 25t-75 25.5l-95 30q-71 23 -122.5 43t-103 47.5t-85.5 58.5t-61.5 71.5t-40.5 92.5t-13 115
q0 218 148 327.5t412 109.5q269 0 393.5 -97t124.5 -305zM997 1548h-209l-102 191l-104 -191h-201l172 303h266z" />
    <glyph glyph-name="scircumflex" unicode="&#x15d;" horiz-adv-x="1024" 
d="M944 760v-17q-219 5 -287 7v12q0 23 -5 43.5t-18 44.5t-43.5 38.5t-74.5 14.5q-57 0 -98 -28.5t-41 -83.5q0 -94 176 -134l96 -22q56 -13 97 -27.5t84.5 -39.5t70.5 -57.5t44.5 -82.5t17.5 -113q0 -118 -59 -195.5t-160 -112t-242 -34.5q-41 0 -74.5 1.5t-82 8.5
t-85.5 18.5t-77.5 34t-67 53t-43.5 77.5t-17 106l2 35l305 -6v-18q0 -156 168 -156q62 0 102 31.5t40 93.5q0 29 -11 51.5t-25 35.5t-41 24.5t-43 15.5l-48 12l-131 33q-31 8 -49.5 13.5t-53.5 18.5t-57 26.5t-50 37t-44 50t-27.5 65.5t-11.5 84q0 160 112 246t322 86
q72 0 131 -7t116.5 -26.5t96 -51t62.5 -84t24 -122.5zM844 1139h-211l-103 190l-104 -190h-203l172 303h267z" />
    <glyph glyph-name="Scedilla" unicode="&#x15e;" horiz-adv-x="1280" 
d="M1180 1075v-20q-258 4 -326 4q0 36 -4 65t-16.5 60.5t-33.5 52.5t-58 35t-87 14q-58 0 -101 -18.5t-64 -47t-30 -55t-9 -51.5q0 -41 18 -73t55 -55t71 -37t87 -31l119 -37q105 -33 177.5 -70t126.5 -88.5t79.5 -121t25.5 -161.5q0 -102 -31 -183t-83 -134t-124 -88.5
t-150.5 -50.5t-166.5 -15h-14l-2 -53h45q94 0 154.5 -55t60.5 -150q0 -66 -22 -111t-64.5 -68t-93 -32.5t-119.5 -9.5q-73 0 -102 2v146q47 -7 88 -7q26 0 42.5 1.5t42.5 8t40 24t14 44.5q0 26 -12 43t-34.5 23.5t-39 8t-41.5 1.5h-74l8 190q-243 20 -358 126.5t-115 301.5
v33q144 -4 353 -4v-16q0 -254 233 -254q57 0 100 17.5t65 41t35 55t16 52.5t3 41q0 32 -6 56t-21 44t-32 34t-48 28.5t-59 25t-75 25.5l-95 30q-71 23 -122.5 43t-103 47.5t-85.5 58.5t-61.5 71.5t-40.5 92.5t-13 115q0 218 148 327.5t412 109.5q269 0 393.5 -97t124.5 -305
z" />
    <glyph glyph-name="scedilla" unicode="&#x15f;" horiz-adv-x="1024" 
d="M944 760v-17q-219 5 -287 7v12q0 23 -5 43.5t-18 44.5t-43.5 38.5t-74.5 14.5q-57 0 -98 -28.5t-41 -83.5q0 -94 176 -134l96 -22q56 -13 97 -27.5t84.5 -39.5t70.5 -57.5t44.5 -82.5t17.5 -113q0 -172 -119 -255.5t-328 -86.5l-2 -57h45q94 0 154.5 -55t60.5 -150
q0 -66 -22 -111t-64.5 -68t-93 -32.5t-119.5 -9.5q-73 0 -102 2v146q47 -7 88 -7q26 0 42.5 1.5t42.5 8t40 24t14 44.5q0 26 -12 43t-34.5 23.5t-39 8t-41.5 1.5h-74l9 192q-353 23 -353 295l2 35l305 -6v-18q0 -156 168 -156q62 0 102 31.5t40 93.5q0 29 -11 51.5t-25 35.5
t-41 24.5t-43 15.5l-48 12l-131 33q-31 8 -49.5 13.5t-53.5 18.5t-57 26.5t-50 37t-44 50t-27.5 65.5t-11.5 84q0 160 112 246t322 86q72 0 131 -7t116.5 -26.5t96 -51t62.5 -84t24 -122.5z" />
    <glyph glyph-name="Scaron" unicode="&#x160;" horiz-adv-x="1280" 
d="M1180 1075v-20q-258 4 -326 4q0 36 -4 65t-16.5 60.5t-33.5 52.5t-58 35t-87 14q-58 0 -101 -18.5t-64 -47t-30 -55t-9 -51.5q0 -41 18 -73t55 -55t71 -37t87 -31l119 -37q105 -33 177.5 -70t126.5 -88.5t79.5 -121t25.5 -161.5q0 -102 -31 -183t-83 -134t-124 -88.5
t-150.5 -50.5t-166.5 -15q-306 0 -451 108.5t-145 325.5v33q144 -4 353 -4v-16q0 -254 233 -254q57 0 100 17.5t65 41t35 55t16 52.5t3 41q0 32 -6 56t-21 44t-32 34t-48 28.5t-59 25t-75 25.5l-95 30q-71 23 -122.5 43t-103 47.5t-85.5 58.5t-61.5 71.5t-40.5 92.5t-13 115
q0 218 148 327.5t412 109.5q269 0 393.5 -97t124.5 -305zM946 1851l-170 -303h-266l-180 303h209l102 -190l104 190h201z" />
    <glyph glyph-name="scaron" unicode="&#x161;" horiz-adv-x="1024" 
d="M944 760v-17q-219 5 -287 7v12q0 23 -5 43.5t-18 44.5t-43.5 38.5t-74.5 14.5q-57 0 -98 -28.5t-41 -83.5q0 -94 176 -134l96 -22q56 -13 97 -27.5t84.5 -39.5t70.5 -57.5t44.5 -82.5t17.5 -113q0 -118 -59 -195.5t-160 -112t-242 -34.5q-41 0 -74.5 1.5t-82 8.5
t-85.5 18.5t-77.5 34t-67 53t-43.5 77.5t-17 106l2 35l305 -6v-18q0 -156 168 -156q62 0 102 31.5t40 93.5q0 29 -11 51.5t-25 35.5t-41 24.5t-43 15.5l-48 12l-131 33q-31 8 -49.5 13.5t-53.5 18.5t-57 26.5t-50 37t-44 50t-27.5 65.5t-11.5 84q0 160 112 246t322 86
q72 0 131 -7t116.5 -26.5t96 -51t62.5 -84t24 -122.5zM838 1442l-172 -303h-267l-182 303h211l102 -191l105 191h203z" />
    <glyph glyph-name="Tcommaaccent" unicode="&#x162;" horiz-adv-x="1110" 
d="M1112 1221h-373v-1221h-370v1221h-371v225h1114v-225zM692 -317l-135 -218h-139l141 209h-135v254h268v-245z" />
    <glyph glyph-name="tcommaaccent" unicode="&#x163;" horiz-adv-x="681" 
d="M463 879v-521q0 -93 23.5 -134.5t93.5 -41.5q34 0 79 13v-179q-111 -30 -219 -30q-94 0 -157.5 25t-94.5 63q-33 40 -44 97t-11 171v537h-131v145h131v201l330 67v-268h172v-145h-172zM543 -317l-135 -218h-140l142 209h-136v254h269v-245z" />
    <glyph glyph-name="Tcaron" unicode="&#x164;" horiz-adv-x="1110" 
d="M1112 1221h-373v-1221h-370v1221h-371v225h1114v-225zM862 1851l-170 -303h-266l-180 303h209l102 -190l105 190h200z" />
    <glyph glyph-name="tcaron" unicode="&#x165;" horiz-adv-x="681" 
d="M463 879v-521q0 -93 23.5 -134.5t93.5 -41.5q34 0 79 13v-179q-111 -30 -219 -30q-94 0 -157.5 25t-94.5 63q-33 40 -44 97t-11 171v537h-131v145h131v201l330 67v-268h172v-145h-172zM844 1327l-142 -270h-145l143 270h-143v268h287v-268z" />
    <glyph glyph-name="Tbar" unicode="&#x166;" horiz-adv-x="1110" 
d="M141 774v195h228v252h-371v225h1114v-225h-373v-252h230v-195h-230v-774h-370v774h-228z" />
    <glyph glyph-name="tbar" unicode="&#x167;" horiz-adv-x="681" 
d="M35 668h98v211h-131v145h131v201l330 67v-268h172v-145h-172v-211h125v-146h-125v-164q0 -93 23.5 -134.5t93.5 -41.5q34 0 79 13v-179q-111 -30 -219 -30q-94 0 -157.5 25t-94.5 63q-33 40 -44 97t-11 171v180h-98v146z" />
    <glyph glyph-name="Utilde" unicode="&#x168;" horiz-adv-x="1449" 
d="M1325 1446v-914q0 -297 -140.5 -430t-475.5 -133q-319 0 -451.5 123t-132.5 416v938h373v-909q0 -169 24 -234q19 -47 70 -84t135 -37q88 0 150 45q54 38 72 108t18 200v911h358zM1049 1845v-96q0 -102 -29.5 -153.5t-112.5 -51.5q-42 0 -80 17t-90 51l-73 49
q-41 27 -60 27q-10 0 -16.5 -6.5t-9 -20t-3 -23t-0.5 -26.5v-56h-176v95q0 35 1 55.5t8 52.5t20.5 50t40.5 32t66 14q70 0 143 -49l76 -51q68 -47 84 -47q11 0 17.5 5.5t9 19.5t3 22.5t0.5 30.5v59h181z" />
    <glyph glyph-name="utilde" unicode="&#x169;" 
d="M1077 0h-329v117q-31 -27 -55 -44t-68 -41.5t-100 -37t-122 -12.5q-143 0 -222 74.5t-79 248.5v719h330v-647q0 -116 32.5 -170.5t115.5 -54.5q68 0 118 40.5t50 126.5v705h329v-1024zM922 1436v-97q0 -101 -29.5 -152.5t-112.5 -51.5q-69 0 -170 67l-73 49
q-41 27 -60 27q-10 0 -16.5 -6t-8.5 -20.5t-2.5 -22.5t-0.5 -27v-55h-177v94q0 29 1 46t4.5 45t12 44.5t23 34.5t38.5 26.5t57 8.5q70 0 143 -49l76 -51q69 -48 84 -48q11 0 17.5 5.5t9 19.5t3 22.5t0.5 30.5v60h181z" />
    <glyph glyph-name="Umacron" unicode="&#x16a;" horiz-adv-x="1449" 
d="M1325 1446v-914q0 -297 -140.5 -430t-475.5 -133q-319 0 -451.5 123t-132.5 416v938h373v-909q0 -169 24 -234q19 -47 70 -84t135 -37q88 0 150 45q54 38 72 108t18 200v911h358zM1057 1597h-666v177h666v-177z" />
    <glyph glyph-name="umacron" unicode="&#x16b;" 
d="M1077 0h-329v117q-31 -27 -55 -44t-68 -41.5t-100 -37t-122 -12.5q-143 0 -222 74.5t-79 248.5v719h330v-647q0 -116 32.5 -170.5t115.5 -54.5q68 0 118 40.5t50 126.5v705h329v-1024zM899 1188h-604v176h604v-176z" />
    <glyph glyph-name="Ubreve" unicode="&#x16c;" horiz-adv-x="1449" 
d="M1325 1446v-914q0 -297 -140.5 -430t-475.5 -133q-319 0 -451.5 123t-132.5 416v938h373v-909q0 -169 24 -234q19 -47 70 -84t135 -37q88 0 150 45q54 38 72 108t18 200v911h358zM842 1843h168q0 -59 -15 -107t-36.5 -78t-52 -52t-57 -33t-57.5 -17t-46 -7t-29 -1
q-38 0 -72.5 6t-74 25.5t-67.5 50.5t-46.5 86t-18.5 127h168v-18q0 -20 4 -39.5t14.5 -44.5t36 -40t62.5 -15q39 0 65.5 18.5t37 47t13.5 47.5t3 36v8z" />
    <glyph glyph-name="ubreve" unicode="&#x16d;" 
d="M1077 0h-329v117q-31 -27 -55 -44t-68 -41.5t-100 -37t-122 -12.5q-143 0 -222 74.5t-79 248.5v719h330v-647q0 -116 32.5 -170.5t115.5 -54.5q68 0 118 40.5t50 126.5v705h329v-1024zM715 1434h168q0 -59 -15 -107t-36.5 -78t-52 -52t-57 -33t-57.5 -17t-46 -7t-29 -1
q-38 0 -72.5 6t-74 25.5t-67.5 50.5t-46.5 86t-18.5 127h168v-19q0 -20 4 -39.5t14.5 -44.5t36 -40t62.5 -15q39 0 65.5 18.5t37 47t13.5 47.5t3 36v9z" />
    <glyph glyph-name="Uring" unicode="&#x16e;" horiz-adv-x="1449" 
d="M1325 1446v-914q0 -297 -140.5 -430t-475.5 -133q-319 0 -451.5 123t-132.5 416v938h373v-909q0 -169 24 -234q19 -47 70 -84t135 -37q88 0 150 45q54 38 72 108t18 200v911h358zM932 1753q0 -89 -60 -150t-149 -61q-85 0 -145 60t-60 145t61 147t146 62q89 0 148 -57
t59 -146zM815 1745q0 42 -23.5 67t-64.5 25q-38 0 -64 -25t-26 -63q0 -40 24 -65t64 -25q38 0 64 24t26 62z" />
    <glyph glyph-name="uring" unicode="&#x16f;" 
d="M1077 0h-329v117q-31 -27 -55 -44t-68 -41.5t-100 -37t-122 -12.5q-143 0 -222 74.5t-79 248.5v719h330v-647q0 -116 32.5 -170.5t115.5 -54.5q68 0 118 40.5t50 126.5v705h329v-1024zM803 1341q0 -90 -60 -149t-149 -59q-87 0 -146 61.5t-59 148.5q0 83 63 142t148 59
q91 0 147 -59t56 -144zM686 1341q0 38 -25.5 62t-62.5 24q-49 0 -69.5 -30t-20.5 -60q0 -42 26.5 -65t61.5 -23q40 0 65 26.5t25 65.5z" />
    <glyph glyph-name="Uhungarumlaut" unicode="&#x170;" horiz-adv-x="1449" 
d="M1325 1446v-914q0 -297 -140.5 -430t-475.5 -133q-319 0 -451.5 123t-132.5 416v938h373v-909q0 -169 24 -234q19 -47 70 -84t135 -37q88 0 150 45q54 38 72 108t18 200v911h358zM893 1851l-299 -303h-225l204 303h320zM1292 1851l-299 -303h-225l205 303h319z" />
    <glyph glyph-name="uhungarumlaut" unicode="&#x171;" 
d="M1077 0h-329v117q-31 -27 -55 -44t-68 -41.5t-100 -37t-122 -12.5q-143 0 -222 74.5t-79 248.5v719h330v-647q0 -116 32.5 -170.5t115.5 -54.5q68 0 118 40.5t50 126.5v705h329v-1024zM766 1442l-299 -303h-227l204 303h322zM1165 1442l-299 -303h-227l205 303h321z" />
    <glyph glyph-name="Uogonek" unicode="&#x172;" horiz-adv-x="1449" 
d="M1325 1446v-914q0 -267 -113 -400.5t-376 -156.5q-99 -80 -99 -137q0 -30 22 -50.5t68 -20.5q10 0 70 10v-148q-4 -1 -17 -5t-18.5 -5.5t-18.5 -4.5t-22.5 -4t-25 -2t-31.5 -1q-107 0 -160 49.5t-53 118.5q0 105 137 194q-308 4 -435.5 127.5t-127.5 411.5v938h373v-909
q0 -169 24 -234q19 -47 70 -84t135 -37q88 0 150 45q54 38 72 108t18 200v911h358z" />
    <glyph glyph-name="uogonek" unicode="&#x173;" 
d="M1077 0h-16q-131 -99 -131 -162q0 -30 22 -50.5t68 -20.5q10 0 70 10v-148q-77 -22 -134 -22q-107 0 -160 49.5t-53 118.5q0 45 25 87t65.5 72.5t60.5 43t40 22.5h-186v117q-31 -27 -55 -44t-68 -41.5t-100 -37t-122 -12.5q-143 0 -222 74.5t-79 248.5v719h330v-647
q0 -116 32.5 -170.5t115.5 -54.5q68 0 118 40.5t50 126.5v705h329v-1024z" />
    <glyph glyph-name="Wcircumflex" unicode="&#x174;" horiz-adv-x="1878" 
d="M1591 0h-461l-192 930l-215 -930h-463l-262 1446h358l181 -1147l260 1147h303q202 -975 233 -1139l209 1139h338zM1260 1548h-209l-103 191l-104 -191h-201l172 303h266z" />
    <glyph glyph-name="wcircumflex" unicode="&#x175;" horiz-adv-x="1622" 
d="M1616 1024l-268 -1024h-365q-154 563 -166 647q-6 -38 -51 -200t-87 -305l-42 -142h-367l-264 1024h336q144 -647 156 -743q7 44 54.5 229.5t91.5 349.5l44 164h279q166 -639 182 -743q4 41 42.5 226.5t74.5 350.5l37 166h313zM1128 1139h-210l-103 190l-104 -190h-203
l172 303h266z" />
    <glyph glyph-name="Ycircumflex" unicode="&#x176;" horiz-adv-x="1323" 
d="M1337 1446l-485 -950v-496h-369v496l-497 950h407l289 -610l272 610h383zM989 1548h-209l-102 191l-105 -191h-200l172 303h266z" />
    <glyph glyph-name="ycircumflex" unicode="&#x177;" horiz-adv-x="1024" 
d="M1028 1024l-350 -1090q-37 -116 -71 -180t-79 -102q-96 -82 -280 -82q-114 0 -215 22v226q84 -21 145 -21q50 0 83 16.5t48.5 49t21 67t5.5 84.5l-340 1010h346l190 -748l183 748h313zM842 1139h-211l-103 190l-104 -190h-203l172 303h266z" />
    <glyph glyph-name="Ydieresis" unicode="&#x178;" horiz-adv-x="1323" 
d="M1337 1446l-485 -950v-496h-369v496l-497 950h407l289 -610l272 610h383zM967 1573h-238v256h238v-256zM590 1573h-238v256h238v-256z" />
    <glyph glyph-name="Zacute" unicode="&#x179;" horiz-adv-x="1280" 
d="M1227 0h-1182v205l748 1016h-666v225h1100v-217l-729 -1004h729v-225zM1073 1851l-301 -303h-246l205 303h342z" />
    <glyph glyph-name="zacute" unicode="&#x17a;" horiz-adv-x="980" 
d="M930 0h-881v193l486 614h-449v217h844v-203l-475 -602h475v-219zM877 1442l-302 -303h-245l205 303h342z" />
    <glyph glyph-name="Zdotaccent" unicode="&#x17b;" horiz-adv-x="1280" 
d="M1227 0h-1182v205l748 1016h-666v225h1100v-217l-729 -1004h729v-225zM846 1573h-238v256h238v-256z" />
    <glyph glyph-name="zdotaccent" unicode="&#x17c;" horiz-adv-x="980" 
d="M930 0h-881v193l486 614h-449v217h844v-203l-475 -602h475v-219zM662 1163h-238v256h238v-256z" />
    <glyph glyph-name="Zcaron" unicode="&#x17d;" horiz-adv-x="1280" 
d="M1227 0h-1182v205l748 1016h-666v225h1100v-217l-729 -1004h729v-225zM999 1851l-170 -303h-266l-180 303h209l102 -190l105 190h200z" />
    <glyph glyph-name="zcaron" unicode="&#x17e;" horiz-adv-x="980" 
d="M930 0h-881v193l486 614h-449v217h844v-203l-475 -602h475v-219zM815 1442l-172 -303h-266l-182 303h211l102 -191l104 191h203z" />
    <glyph glyph-name="longs" unicode="&#x17f;" horiz-adv-x="591" 
d="M471 0h-332v879h-133v145h133v102q0 21 1.5 40t9 55t21 65t41 62.5t65 56t96.5 38t133 15.5q106 0 182 -31v-176q-52 21 -98 21q-64 0 -91.5 -39t-27.5 -127v-1106z" />
    <glyph glyph-name="florin" unicode="&#x192;" horiz-adv-x="1067" 
d="M987 1317l-26 -193q-56 27 -101 27q-34 0 -58 -11.5t-37 -25.5t-21.5 -42t-11 -44t-5.5 -49l-8 -72h196v-176h-219l-73 -573q-19 -153 -52 -244q-21 -58 -54 -101t-67.5 -66t-78 -37t-77 -17.5t-73.5 -3.5q-84 0 -184 14l26 193q43 -13 76 -13q69 0 98.5 61.5t53.5 243.5
l69 543h-159v176h182l14 99q5 35 9.5 59.5t17 63t28 65t44 57t65 49t90 31t119.5 12.5q111 0 217 -26z" />
    <glyph glyph-name="Aringacute" unicode="&#x1fa;" horiz-adv-x="1409" 
d="M1411 0h-377l-131 477h-403l-150 -477h-352l473 1446h524zM852 692l-139 516l-156 -516h295zM1004 2044l-226 -193h-143l135 193h234zM901 1655q0 -75 -48.5 -120.5t-119.5 -45.5q-73 0 -120.5 48t-47.5 116q0 73 51 119.5t121 46.5q67 0 115.5 -45.5t48.5 -118.5z
M803 1653q0 30 -20.5 49.5t-47.5 19.5q-28 0 -48.5 -19.5t-20.5 -49.5t18.5 -50t48.5 -20q29 0 49.5 19.5t20.5 50.5z" />
    <glyph glyph-name="aringacute" unicode="&#x1fb;" horiz-adv-x="1150" 
d="M950 1810l-301 -303h-176l180 303h297zM766 1284q0 -80 -52.5 -129t-129.5 -49q-76 0 -126 51.5t-50 128.5q0 74 53.5 122t128.5 48q80 0 128 -50t48 -122zM655 1284q0 30 -18.5 49t-48.5 19q-39 0 -54.5 -23.5t-15.5 -48.5q0 -33 20.5 -51.5t47.5 -18.5q31 0 50 21
t19 53zM1087 0h-292q-52 0 -72.5 21t-20.5 83v13q-55 -64 -131.5 -104t-201.5 -40q-147 0 -226.5 82.5t-79.5 225.5q0 111 51 178t158 104q128 45 443 68v117q0 149 -142 149q-84 0 -122.5 -50.5t-38.5 -125.5v-19h-320v21q0 74 24.5 131t80 103t155.5 70t242 24
q112 0 192 -15t130 -41.5t78.5 -70.5t39 -93.5t10.5 -119.5v-504q0 -87 8.5 -131t34.5 -64v-12zM715 350v150q-150 -11 -211 -35q-107 -43 -107 -158q0 -22 3.5 -42t15.5 -50.5t43 -49t78 -18.5q178 0 178 203z" />
    <glyph glyph-name="AEacute" unicode="&#x1fc;" horiz-adv-x="1878" 
d="M1839 0h-952v537h-328l-211 -537h-360l551 1446h1247v-225h-547v-357h500v-227h-500v-412h600v-225zM887 752v469h-92l-168 -469h260zM1442 1851l-301 -303h-246l205 303h342z" />
    <glyph glyph-name="aeacute" unicode="&#x1fd;" horiz-adv-x="1705" 
d="M694 631v84q0 32 -1.5 52t-9 47t-21.5 42.5t-41 27t-66 11.5t-68 -13.5t-44.5 -32.5t-25 -45.5t-12 -45.5t-2.5 -39v-19h-317q0 351 453 351q114 0 191.5 -21.5t137.5 -83.5q32 35 114.5 70t203.5 35q136 0 227.5 -45.5t138.5 -106.5q90 -118 90 -340v-72h-669v-69
q0 -91 15 -152t43 -88.5t55 -37t63 -9.5q49 0 83 17.5t52 49t25.5 61.5t11.5 69h321q-9 -172 -138 -263.5t-371 -91.5q-161 0 -249.5 41t-150.5 119q-29 -37 -70 -69.5t-120.5 -61.5t-171.5 -29q-146 0 -232 78.5t-86 224.5q0 72 22 128.5t52 93t87.5 62.5t102 39
t123.5 20.5t124 9t130 2.5zM977 631h340q-1 26 -1.5 38.5t-4 45t-9 51.5t-17.5 46.5t-28.5 42.5t-42 26.5t-57.5 11.5q-166 0 -180 -262zM694 369v123l-96 -5q-23 -1 -44 -4t-54 -14.5t-56.5 -29.5t-41 -53.5t-17.5 -82.5q0 -68 36.5 -112t104.5 -44q44 0 76.5 15t49.5 36
t27 53.5t12.5 58.5t2.5 59zM1251 1442l-301 -303h-245l204 303h342z" />
    <glyph glyph-name="Oslashacute" unicode="&#x1fe;" horiz-adv-x="1492" 
d="M1219 1565l102 -64l-98 -151q50 -42 85.5 -98t54.5 -109.5t30 -123t13.5 -122.5t2.5 -125q0 -296 -63.5 -456t-184.5 -242q-75 -49 -170.5 -78t-242.5 -29q-237 0 -392 78l-98 -149l-102 63l100 154q-57 57 -90 116q-82 145 -82 463q0 413 154 598q69 81 193 135t312 54
q234 0 373 -70zM1012 1032l-492 -741q1 -2 6 -12.5t6.5 -13.5t7 -12.5t10 -15t12 -14t16.5 -16.5q57 -51 157 -51q137 0 205 82q41 48 65 171t28.5 206t4.5 151q0 161 -26 266zM477 451l490 731q-15 21 -29 36.5t-39 33.5t-61 28t-82 10q-68 0 -117 -22t-76 -51
q-31 -33 -54 -97.5t-33 -124t-16 -133t-6.5 -101t-0.5 -52.5q0 -146 24 -258zM1112 1851l-301 -303h-246l205 303h342z" />
    <glyph glyph-name="oslashacute" unicode="&#x1ff;" 
d="M977 1137l78 -54l-88 -127q3 -3 22.5 -20t29.5 -28t28.5 -34t29 -48t22.5 -60.5t17.5 -82t5.5 -101.5q0 -173 -20 -260q-22 -93 -69.5 -162t-115.5 -109t-147.5 -59t-173.5 -19q-193 0 -291 58l-98 -137l-76 53l92 133q-78 63 -114.5 150.5t-36.5 256.5q0 295 134 429.5
t384 134.5q195 0 293 -50zM788 707l-354 -494q42 -92 152 -92q82 0 131 45q86 80 86 344q-1 0 -1 29t-3.5 79t-10.5 89zM401 332l355 493q-52 80 -150 80q-73 0 -119.5 -39t-72 -133.5t-25.5 -251.5q0 -53 12 -149zM985 1442l-301 -303h-246l205 303h342z" />
    <glyph glyph-name="Scommaaccent" unicode="&#x218;" horiz-adv-x="1280" 
d="M1180 1075v-20q-258 4 -326 4q0 36 -4 65t-16.5 60.5t-33.5 52.5t-58 35t-87 14q-58 0 -101 -18.5t-64 -47t-30 -55t-9 -51.5q0 -41 18 -73t55 -55t71 -37t87 -31l119 -37q105 -33 177.5 -70t126.5 -88.5t79.5 -121t25.5 -161.5q0 -102 -31 -183t-83 -134t-124 -88.5
t-150.5 -50.5t-166.5 -15q-306 0 -451 108.5t-145 325.5v33q144 -4 353 -4v-16q0 -254 233 -254q57 0 100 17.5t65 41t35 55t16 52.5t3 41q0 32 -6 56t-21 44t-32 34t-48 28.5t-59 25t-75 25.5l-95 30q-71 23 -122.5 43t-103 47.5t-85.5 58.5t-61.5 71.5t-40.5 92.5t-13 115
q0 218 148 327.5t412 109.5q269 0 393.5 -97t124.5 -305zM776 -317l-135 -218h-139l141 209h-135v254h268v-245z" />
    <glyph glyph-name="scommaaccent" unicode="&#x219;" horiz-adv-x="1024" 
d="M944 760v-17q-219 5 -287 7v12q0 23 -5 43.5t-18 44.5t-43.5 38.5t-74.5 14.5q-57 0 -98 -28.5t-41 -83.5q0 -94 176 -134l96 -22q56 -13 97 -27.5t84.5 -39.5t70.5 -57.5t44.5 -82.5t17.5 -113q0 -118 -59 -195.5t-160 -112t-242 -34.5q-41 0 -74.5 1.5t-82 8.5
t-85.5 18.5t-77.5 34t-67 53t-43.5 77.5t-17 106l2 35l305 -6v-18q0 -156 168 -156q62 0 102 31.5t40 93.5q0 29 -11 51.5t-25 35.5t-41 24.5t-43 15.5l-48 12l-131 33q-31 8 -49.5 13.5t-53.5 18.5t-57 26.5t-50 37t-44 50t-27.5 65.5t-11.5 84q0 160 112 246t322 86
q72 0 131 -7t116.5 -26.5t96 -51t62.5 -84t24 -122.5zM649 -317l-135 -218h-139l141 209h-135v254h268v-245z" />
    <glyph glyph-name="uni021A" unicode="&#x21a;" horiz-adv-x="1110" 
d="M1112 1221h-373v-1221h-370v1221h-371v225h1114v-225zM692 -317l-135 -218h-139l141 209h-135v254h268v-245z" />
    <glyph glyph-name="uni021B" unicode="&#x21b;" horiz-adv-x="681" 
d="M463 879v-521q0 -93 23.5 -134.5t93.5 -41.5q34 0 79 13v-179q-111 -30 -219 -30q-94 0 -157.5 25t-94.5 63q-33 40 -44 97t-11 171v537h-131v145h131v201l330 67v-268h172v-145h-172zM543 -317l-135 -218h-140l142 209h-136v254h269v-245z" />
    <glyph glyph-name="circumflex" unicode="&#x2c6;" horiz-adv-x="555" 
d="M588 1139h-211l-103 190l-104 -190h-203l172 303h267z" />
    <glyph glyph-name="caron" unicode="&#x2c7;" horiz-adv-x="555" 
d="M588 1442l-172 -303h-266l-183 303h211l103 -191l104 191h203z" />
    <glyph glyph-name="uni02C9" unicode="&#x2c9;" horiz-adv-x="555" 
d="M580 1188h-605v176h605v-176z" />
    <glyph glyph-name="breve" unicode="&#x2d8;" horiz-adv-x="555" 
d="M395 1434h168q0 -59 -15 -107t-36.5 -78t-52 -52t-57 -33t-57.5 -17t-46 -7t-29 -1q-38 0 -72.5 6t-73.5 25.5t-67 50.5t-46.5 86t-18.5 127h168v-19q0 -16 1.5 -30.5t8.5 -35.5t19 -36t34.5 -26t52.5 -11q39 0 65.5 18.5t37 47t13.5 47.5t3 36v9z" />
    <glyph glyph-name="dotaccent" unicode="&#x2d9;" horiz-adv-x="555" 
d="M397 1163h-237v256h237v-256z" />
    <glyph glyph-name="ring" unicode="&#x2da;" horiz-adv-x="555" 
d="M483 1341q0 -90 -60 -149t-149 -59q-87 0 -145.5 61.5t-58.5 148.5q0 83 63 142t148 59q91 0 146.5 -59t55.5 -144zM367 1341q0 38 -25.5 62t-62.5 24q-49 0 -70 -30t-21 -60q0 -42 26.5 -65t61.5 -23q40 0 65.5 26.5t25.5 65.5z" />
    <glyph glyph-name="ogonek" unicode="&#x2db;" horiz-adv-x="555" 
d="M319 12h119l-16 -12q-131 -99 -131 -162q0 -30 22 -50.5t68 -20.5q10 0 70 10v-148q-77 -22 -134 -22q-107 0 -160 49.5t-53 118.5q0 45 25 87t65.5 72.5t60.5 43t40 22.5z" />
    <glyph glyph-name="tilde" unicode="&#x2dc;" horiz-adv-x="555" 
d="M602 1436v-97q0 -102 -29 -153t-112 -51q-69 0 -170 67l-74 49q-40 27 -59 27q-10 0 -16.5 -6.5t-9 -20t-3 -23t-0.5 -26.5v-55h-176v94q0 25 0.5 39t3 39t7 39.5t14.5 33.5t24 29t36 17.5t50 7.5q70 0 143 -49l76 -51q69 -48 84 -48t22 12.5t8 25.5t1 40v60h180z" />
    <glyph glyph-name="hungarumlaut" unicode="&#x2dd;" horiz-adv-x="555" 
d="M340 1442l-299 -303h-227l204 303h322zM739 1442l-299 -303h-227l205 303h321z" />
    <glyph glyph-name="uni037E" unicode="&#x37e;" horiz-adv-x="555" 
d="M475 721h-350v303h350v-303zM475 10l-164 -311h-196l168 301h-164v303h356v-293z" />
    <glyph glyph-name="tonos" unicode="&#x384;" horiz-adv-x="563" 
d="M537 1442l-279 -301h-240l183 301h336z" />
    <glyph glyph-name="dieresistonos" unicode="&#x385;" horiz-adv-x="708" 
d="M737 1141h-200v217h200v-217zM547 1442l-166 -301h-166l102 301h230zM176 1141h-201v217h201v-217z" />
    <glyph glyph-name="Alphatonos" unicode="&#x386;" horiz-adv-x="1409" 
d="M188 1446l-278 -301h-240l183 301h335zM1411 0h-377l-131 477h-403l-150 -477h-352l473 1446h524zM852 692l-139 516l-156 -516h295z" />
    <glyph glyph-name="anoteleia" unicode="&#x387;" horiz-adv-x="512" 
d="M430 375h-348v303h348v-303z" />
    <glyph glyph-name="Epsilontonos" unicode="&#x388;" horiz-adv-x="1110" 
d="M16 1446l-278 -301h-240l183 301h335zM1081 0h-948v1446h893v-225h-526v-357h479v-227h-479v-412h581v-225z" />
    <glyph glyph-name="Etatonos" unicode="&#x389;" horiz-adv-x="1449" 
d="M23 1446l-279 -301h-240l183 301h336zM1319 0h-373v649h-440v-649h-373v1446h373v-569h440v569h373v-1446z" />
    <glyph glyph-name="Iotatonos" unicode="&#x38a;" horiz-adv-x="641" 
d="M-2 1446l-279 -301h-239l182 301h336zM508 0h-375v1446h375v-1446z" />
    <glyph glyph-name="Omicrontonos" unicode="&#x38c;" horiz-adv-x="1492" 
d="M86 1444l-279 -301h-239l182 301h336zM1409 776q0 -214 -34 -361.5t-112 -250t-206.5 -150t-317.5 -47.5q-178 0 -298.5 35.5t-202 120.5t-118 224.5t-36.5 348.5q0 82 4.5 148.5t16.5 141t34.5 133t57 117t86.5 101t119 75.5t159 50t203 17q152 0 264.5 -32t185 -89
t116.5 -146.5t61.5 -193.5t17.5 -242zM1026 758q0 71 -1.5 120t-7.5 108.5t-17 99.5t-31 81t-48.5 65t-70 39t-94.5 15q-57 0 -102 -18t-75 -46.5t-51.5 -77t-33 -95t-18 -117t-8 -126.5t-1.5 -138q0 -200 27 -309.5t85 -154t164 -44.5q105 0 165 53.5t89 183.5t29 361z" />
    <glyph glyph-name="Upsilontonos" unicode="&#x38e;" horiz-adv-x="1323" 
d="M-59 1446l-279 -301h-240l183 301h336zM1337 1446l-485 -950v-496h-369v496l-497 950h407l289 -610l272 610h383z" />
    <glyph glyph-name="Omegatonos" unicode="&#x38f;" horiz-adv-x="1478" 
d="M1395 813q0 -206 -69 -366t-204 -220h258v-227h-544v227q46 22 79 62t52 87.5t30.5 113.5t15 128.5t3.5 145.5q0 274 -60 398t-208 124q-69 0 -119 -26t-82 -72t-51 -119t-26 -155t-7 -191q0 -95 6.5 -165t24 -141t55 -119t94.5 -71v-227h-545v227h242q-256 109 -256 543
q0 169 35.5 295.5t114 221.5t211 143.5t317.5 48.5q170 0 293.5 -46.5t197 -135t108 -208t34.5 -276.5zM168 1446l-279 -301h-239l182 301h336z" />
    <glyph glyph-name="iotadieresistonos" unicode="&#x390;" horiz-adv-x="536" 
d="M436 0h-334v1024h334v-1024zM717 1141h-201v217h201v-217zM526 1442l-166 -301h-165l102 301h229zM156 1141h-201v217h201v-217z" />
    <glyph glyph-name="Alpha" unicode="&#x391;" horiz-adv-x="1409" 
d="M1411 0h-377l-131 477h-403l-150 -477h-352l473 1446h524zM852 692l-139 516l-156 -516h295z" />
    <glyph glyph-name="Beta" unicode="&#x392;" horiz-adv-x="1366" 
d="M133 0v1446h545q258 0 354 -39q33 -14 62 -35t60.5 -56t50 -91t18.5 -125q0 -27 -3.5 -54t-18 -67.5t-38 -74.5t-68.5 -69t-106 -57q23 0 57 -8t80.5 -33t84.5 -62.5t65 -104.5t27 -152q0 -79 -18.5 -143t-47.5 -107t-73.5 -74.5t-89 -49t-101.5 -28t-103 -13.5t-102 -3
h-635zM496 666v-480h151q109 0 166 26.5t86 82.5q31 57 31 135q0 132 -88 193q-37 27 -88.5 35t-157.5 8h-100zM496 846h131q82 0 132 17.5t79 62.5q34 53 34 135q0 124 -86 170q-30 18 -74 23.5t-124 5.5h-92v-414z" />
    <glyph glyph-name="Gamma" unicode="&#x393;" horiz-adv-x="993" 
d="M997 1221h-499v-1221h-371v1446h870v-225z" />
    <glyph glyph-name="uni0394" unicode="&#x394;" horiz-adv-x="1452" 
d="M1454 0h-1456l555 1446h354zM993 250l-278 846l-281 -846h559z" />
    <glyph glyph-name="Epsilon" unicode="&#x395;" horiz-adv-x="1110" 
d="M1081 0h-948v1446h893v-225h-526v-357h479v-227h-479v-412h581v-225z" />
    <glyph glyph-name="Zeta" unicode="&#x396;" horiz-adv-x="1280" 
d="M1227 0h-1182v205l748 1016h-666v225h1100v-217l-729 -1004h729v-225z" />
    <glyph glyph-name="Eta" unicode="&#x397;" horiz-adv-x="1449" 
d="M1319 0h-373v649h-440v-649h-373v1446h373v-569h440v569h373v-1446z" />
    <glyph glyph-name="Theta" unicode="&#x398;" horiz-adv-x="1492" 
d="M942 653h-375v195h375v-195zM1409 776q0 -214 -34 -361.5t-112 -250t-206.5 -150t-317.5 -47.5q-178 0 -298.5 35.5t-202 120.5t-118 224.5t-36.5 348.5q0 82 4.5 148.5t16.5 141t34.5 133t57 117t86.5 101t119 75.5t159 50t203 17q152 0 264.5 -32t185 -89t116.5 -146.5
t61.5 -193.5t17.5 -242zM1026 758q0 71 -1.5 120t-7.5 108.5t-17 99.5t-31 81t-48.5 65t-70 39t-94.5 15q-57 0 -102 -18t-75 -46.5t-51.5 -77t-33 -95t-18 -117t-8 -126.5t-1.5 -138q0 -200 27 -309.5t85 -154t164 -44.5q105 0 165 53.5t89 183.5t29 361z" />
    <glyph glyph-name="Iota" unicode="&#x399;" horiz-adv-x="641" 
d="M508 0h-375v1446h375v-1446z" />
    <glyph glyph-name="Kappa" unicode="&#x39a;" horiz-adv-x="1366" 
d="M1376 0h-405l-340 614l-142 -170v-444h-356v1446h356v-600l451 600h375l-434 -528z" />
    <glyph glyph-name="Lambda" unicode="&#x39b;" horiz-adv-x="1384" 
d="M1378 0h-374l-302 1186l-340 -1186h-358l455 1446h522z" />
    <glyph glyph-name="Mu" unicode="&#x39c;" horiz-adv-x="1961" 
d="M1831 0h-348q-4 851 -4 1202q-9 -36 -99.5 -336.5t-177.5 -583.5l-86 -282h-274q-297 952 -363 1198q0 -86 -3 -622t-3 -576h-340q19 1417 19 1446h550l281 -969l285 969h551z" />
    <glyph glyph-name="Nu" unicode="&#x39d;" horiz-adv-x="1492" 
d="M1362 0h-420q-460 897 -493 1001l12 -1001h-328v1446h426q18 -35 48.5 -94.5t110.5 -216.5t143 -285t120 -251t68 -163l-9 1010h322v-1446z" />
    <glyph glyph-name="Xi" unicode="&#x39e;" horiz-adv-x="1187" 
d="M1116 1200h-1044v246h1044v-246zM1055 627h-920v247h920v-247zM1141 0h-1094v248h1094v-248z" />
    <glyph glyph-name="Omicron" unicode="&#x39f;" horiz-adv-x="1492" 
d="M1409 776q0 -214 -34 -361.5t-112 -250t-206.5 -150t-317.5 -47.5q-178 0 -298.5 35.5t-202 120.5t-118 224.5t-36.5 348.5q0 82 4.5 148.5t16.5 141t34.5 133t57 117t86.5 101t119 75.5t159 50t203 17q152 0 264.5 -32t185 -89t116.5 -146.5t61.5 -193.5t17.5 -242z
M1026 758q0 71 -1.5 120t-7.5 108.5t-17 99.5t-31 81t-48.5 65t-70 39t-94.5 15q-57 0 -102 -18t-75 -46.5t-51.5 -77t-33 -95t-18 -117t-8 -126.5t-1.5 -138q0 -200 27 -309.5t85 -154t164 -44.5q105 0 165 53.5t89 183.5t29 361z" />
    <glyph glyph-name="Pi" unicode="&#x3a0;" horiz-adv-x="1404" 
d="M1280 0h-373v1214h-411v-1214h-373v1446h1157v-1446z" />
    <glyph glyph-name="Rho" unicode="&#x3a1;" horiz-adv-x="1280" 
d="M506 524v-524h-373v1446h615q67 0 115.5 -3t105 -14t95.5 -30t77.5 -53.5t62 -82t37.5 -117.5t14 -159q0 -246 -126.5 -354.5t-374.5 -108.5h-248zM506 717h123q70 0 115.5 11.5t80 41.5t49.5 85t15 140q0 132 -53.5 195t-178.5 63h-151v-536z" />
    <glyph glyph-name="Sigma" unicode="&#x3a3;" horiz-adv-x="1241" 
d="M1202 0h-1153v231l402 510l-371 488v217h1108v-225h-674l352 -463l-403 -508h739v-250z" />
    <glyph glyph-name="Tau" unicode="&#x3a4;" horiz-adv-x="1110" 
d="M1112 1221h-373v-1221h-370v1221h-371v225h1114v-225z" />
    <glyph glyph-name="Upsilon" unicode="&#x3a5;" horiz-adv-x="1323" 
d="M1337 1446l-485 -950v-496h-369v496l-497 950h407l289 -610l272 610h383z" />
    <glyph glyph-name="Phi" unicode="&#x3a6;" horiz-adv-x="1767" 
d="M1700 762q0 -142 -32.5 -247.5t-105.5 -185.5t-198.5 -123t-304.5 -48v-158h-348v158q-181 3 -306.5 40.5t-199 110.5t-105.5 171.5t-32 234.5q0 118 18 207t62 164.5t117 125.5t184 81t262 40v113h348v-111q149 -3 260 -30.5t183.5 -74.5t117 -119t62.5 -156t18 -193z
M1356 768q0 176 -66.5 272t-230.5 105v-801q87 7 146 38.5t91.5 88.5t46 128t13.5 169zM711 344v801q-157 -8 -227 -101.5t-70 -310.5q0 -91 13.5 -156.5t45.5 -118.5t91.5 -81.5t146.5 -32.5z" />
    <glyph glyph-name="Chi" unicode="&#x3a7;" horiz-adv-x="1323" 
d="M1331 0h-393l-276 489l-283 -489h-387l469 772l-398 674h396l215 -402l223 402h379l-399 -662z" />
    <glyph glyph-name="Psi" unicode="&#x3a8;" horiz-adv-x="1662" 
d="M1583 856q0 -135 -39 -223q-57 -133 -190.5 -192.5t-347.5 -69.5v-371h-347v367q-180 6 -300 41t-187 112q-92 102 -92 316v610h340v-612q0 -249 239 -256v868h347v-868q144 6 200 94q45 71 45 192v582h332v-590z" />
    <glyph glyph-name="uni03A9" unicode="&#x3a9;" horiz-adv-x="1560" 
d="M1473 0h-611v236q115 65 169 196.5t54 335.5q0 217 -79 338t-220 121q-146 0 -228.5 -121.5t-82.5 -335.5q0 -76 3.5 -132t17 -121.5t37.5 -114t66 -94t101 -75.5v-233h-614v229h356q-157 80 -239 226t-82 348q0 307 181.5 493.5t479.5 186.5q152 0 276.5 -48.5
t205.5 -133t124.5 -197t43.5 -242.5q0 -92 -19 -183.5t-57 -177t-101.5 -157t-144.5 -113.5h363v-231z" />
    <glyph glyph-name="Iotadieresis" unicode="&#x3aa;" horiz-adv-x="641" 
d="M508 0h-375v1446h375v-1446zM627 1573h-238v256h238v-256zM250 1573h-238v256h238v-256z" />
    <glyph glyph-name="Upsilondieresis" unicode="&#x3ab;" horiz-adv-x="1323" 
d="M989 1538h-237v256h237v-256zM612 1538h-235v256h235v-256zM1337 1446l-485 -950v-496h-369v496l-497 950h407l289 -610l272 610h383z" />
    <glyph glyph-name="alphatonos" unicode="&#x3ac;" horiz-adv-x="1200" 
d="M1143 0h-281q-44 0 -70 20.5t-26 79.5v35q-37 -61 -124.5 -107t-205.5 -46q-188 0 -279 120.5t-91 389.5q0 93 10 169t36.5 149.5t70 123t114 80t164.5 30.5q205 0 301 -137v117h330v-860q0 -55 11 -89t40 -55v-20zM762 367v297q0 37 -9 71.5t-28.5 66.5t-55.5 51t-83 19
q-187 0 -187 -317q0 -80 3.5 -135t15 -109.5t31.5 -86.5t55 -52t84 -20q69 0 121.5 53t52.5 162zM965 1442l-279 -301h-240l183 301h336z" />
    <glyph glyph-name="epsilontonos" unicode="&#x3ad;" horiz-adv-x="1099" 
d="M1073 289q-4 -57 -20 -102t-53 -86t-94 -68.5t-146.5 -43.5t-206.5 -16q-267 0 -383.5 69t-116.5 218q0 138 90 210t267 87q-170 18 -242 66t-72 161q0 73 38 126.5t105.5 83.5t149 43.5t180.5 13.5q120 0 210 -19.5t141 -49t82 -71t41 -79t10 -80.5h-267q-1 40 -17 68.5
t-36 43t-53.5 22t-55 8.5t-55.5 1q-63 0 -107 -34.5t-44 -92.5q0 -80 47.5 -110.5t136.5 -30.5h209v-156h-168q-136 0 -194 -40.5t-58 -145.5q0 -156 180 -156q88 0 128.5 40t45.5 120h328zM946 1442l-278 -301h-240l182 301h336z" />
    <glyph glyph-name="etatonos" unicode="&#x3ae;" 
d="M1083 0h-329v657q0 111 -31.5 163t-112.5 52q-40 0 -76 -13.5t-64 -52.5t-28 -97v-709h-331v1024h331v-115q36 30 61.5 47.5t69 41t96.5 35t115 11.5q23 0 43.5 -1.5t52 -9t57.5 -19.5t54.5 -35t47.5 -54.5t31.5 -79.5t12.5 -108v-737zM963 1442l-279 -301h-240l183 301
h336z" />
    <glyph glyph-name="iotatonos" unicode="&#x3af;" horiz-adv-x="536" 
d="M436 0h-334v1024h334v-1024zM659 1442l-278 -301h-240l183 301h335z" />
    <glyph glyph-name="upsilondieresistonos" unicode="&#x3b0;" horiz-adv-x="1159" 
d="M1065 1024v-659q0 -67 -11.5 -120t-43.5 -105.5t-85.5 -87t-143.5 -56t-210 -21.5q-121 0 -209 20.5t-139.5 53.5t-81.5 85t-39.5 103.5t-9.5 120.5v666h332v-684q0 -95 36 -145t120 -50q36 0 61.5 8t48 29.5t34 65t11.5 108.5v668h330zM967 1141h-201v217h201v-217z
M776 1442l-166 -301h-166l103 301h229zM406 1141h-201v217h201v-217z" />
    <glyph glyph-name="alpha" unicode="&#x3b1;" horiz-adv-x="1200" 
d="M1143 0h-281q-44 0 -70 20.5t-26 79.5v35q-37 -61 -124.5 -107t-205.5 -46q-188 0 -279 120.5t-91 389.5q0 93 10 169t36.5 149.5t70 123t114 80t164.5 30.5q205 0 301 -137v117h330v-860q0 -55 11 -89t40 -55v-20zM762 367v297q0 37 -9 71.5t-28.5 66.5t-55.5 51t-83 19
q-187 0 -187 -317q0 -80 3.5 -135t15 -109.5t31.5 -86.5t55 -52t84 -20q69 0 121.5 53t52.5 162z" />
    <glyph glyph-name="beta" unicode="&#x3b2;" horiz-adv-x="1198" 
d="M1137 420q0 -215 -110.5 -331t-309.5 -116q-188 0 -285 131v-526h-330v1469q0 415 492 415q233 0 341.5 -92.5t108.5 -255.5q0 -263 -301 -311q208 -21 301 -117.5t93 -265.5zM805 430q0 56 -9 100.5t-31.5 86.5t-68 65t-112.5 23h-33v169h24q61 0 100.5 34.5t53.5 82
t14 107.5q0 97 -39.5 154t-113.5 57q-29 0 -54 -9.5t-50 -31.5t-39.5 -66.5t-14.5 -107.5v-721q0 -116 47 -172t121 -56q88 0 146.5 72t58.5 213z" />
    <glyph glyph-name="gamma" unicode="&#x3b3;" horiz-adv-x="1021" 
d="M1022 1024l-350 -1024v-422h-332v422l-340 1024h346l172 -678l189 678h315z" />
    <glyph glyph-name="delta" unicode="&#x3b4;" horiz-adv-x="1175" 
d="M1114 518q0 -270 -138 -407.5t-394 -137.5q-84 0 -154 12t-139.5 46t-116.5 88t-76.5 145t-29.5 211q0 226 120 359t332 133l-311 307v172h807v-184h-432l354 -349q95 -94 136.5 -187.5t41.5 -207.5zM778 520q0 163 -46.5 234t-135.5 71q-85 0 -141 -77.5t-56 -249.5
q0 -85 9 -148.5t30 -115t60 -78.5t94 -27t93.5 31t57.5 89t27 122.5t8 148.5z" />
    <glyph glyph-name="epsilon" unicode="&#x3b5;" horiz-adv-x="1099" 
d="M1073 289q-4 -57 -20 -102t-53 -86t-94 -68.5t-146.5 -43.5t-206.5 -16q-267 0 -383.5 69t-116.5 218q0 138 90 210t267 87q-170 18 -242 66t-72 161q0 73 38 126.5t105.5 83.5t149 43.5t180.5 13.5q120 0 210 -19.5t141 -49t82 -71t41 -79t10 -80.5h-267q-1 40 -17 68.5
t-36 43t-53.5 22t-55 8.5t-55.5 1q-63 0 -107 -34.5t-44 -92.5q0 -80 47.5 -110.5t136.5 -30.5h209v-156h-168q-136 0 -194 -40.5t-58 -145.5q0 -156 180 -156q88 0 128.5 40t45.5 120h328z" />
    <glyph glyph-name="zeta" unicode="&#x3b6;" horiz-adv-x="1040" 
d="M1020 25q0 -71 -32.5 -158t-80.5 -160h-196q71 138 71 221q0 34 -18 53t-74 19h-244q-75 0 -133 7t-109 24.5t-84 47t-52 75.5t-19 108q0 100 37 181t113.5 146.5t177 117t244.5 104.5h-512v213h878v-225q-286 -92 -443 -205t-157 -256q0 -127 166 -127h205q66 0 111 -8
t81 -28t53 -57t17 -93z" />
    <glyph glyph-name="eta" unicode="&#x3b7;" 
d="M1083 0h-329v657q0 111 -31.5 163t-112.5 52q-40 0 -76 -13.5t-64 -52.5t-28 -97v-709h-331v1024h331v-115q36 30 61.5 47.5t69 41t96.5 35t115 11.5q23 0 43.5 -1.5t52 -9t57.5 -19.5t54.5 -35t47.5 -54.5t31.5 -79.5t12.5 -108v-737z" />
    <glyph glyph-name="theta" unicode="&#x3b8;" horiz-adv-x="1177" 
d="M606 1462q179 0 284.5 -70.5t155.5 -227t50 -423.5q0 -119 -4 -204.5t-24 -191.5t-56 -167q-121 -205 -441 -205q-296 0 -409 191q-49 84 -63.5 218.5t-14.5 354.5q0 391 118 558t404 167zM770 819q0 262 -40.5 377t-133.5 115q-60 0 -97.5 -38t-61 -148.5t-27.5 -305.5
h360zM770 674h-360q0 -84 2 -145.5t8.5 -129t18.5 -113.5t31 -84.5t48 -57.5t68 -19q45 0 77.5 25t53 68.5t32.5 114.5t16.5 151t4.5 190z" />
    <glyph glyph-name="iota" unicode="&#x3b9;" horiz-adv-x="536" 
d="M436 0h-334v1024h334v-1024z" />
    <glyph glyph-name="kappa" unicode="&#x3ba;" horiz-adv-x="1150" 
d="M1161 0h-358l-234 440l-133 -153v-287h-325v1024h325v-406l318 406h336l-299 -340z" />
    <glyph glyph-name="lambda" unicode="&#x3bb;" horiz-adv-x="1032" 
d="M1030 0h-338l-184 672l-195 -672h-313l375 1022l-58 158q-9 27 -19.5 45t-39 34.5t-70.5 16.5q-45 0 -100 -14v176q113 24 219 24q75 0 128 -16.5t89.5 -52.5t60 -80t46.5 -113z" />
    <glyph glyph-name="uni03BC" unicode="&#x3bc;" 
d="M1077 0h-329v90q-60 -90 -175 -90q-52 0 -88.5 22.5t-48.5 53.5v-498h-334v1446h330v-657q0 -31 2 -55t10.5 -53.5t22.5 -49.5t41 -33.5t63 -13.5q177 0 177 182v680h329v-1024z" />
    <glyph glyph-name="nu" unicode="&#x3bd;" horiz-adv-x="1024" 
d="M698 0h-385l-317 1024h344l178 -719l201 719h309z" />
    <glyph glyph-name="xi" unicode="&#x3be;" horiz-adv-x="1046" 
d="M1028 25q0 -71 -32.5 -158t-80.5 -160h-196q72 140 72 221q0 34 -18.5 53t-74.5 19h-151q-134 0 -230.5 26t-152.5 75.5t-81.5 114.5t-25.5 149q0 85 21.5 152t71 124t140.5 91.5t220 41.5q-98 11 -166 32.5t-107 54t-56 71.5t-17 90q0 94 66.5 157t226.5 91h-305v176
h852v-221h-205q-154 0 -237 -47t-83 -142q0 -48 21.5 -83.5t57 -53.5t74 -26.5t81.5 -8.5h184v-184h-160q-70 0 -128 -12t-109.5 -39t-81 -80t-29.5 -127q0 -47 14.5 -82.5t38.5 -56.5t59 -34t70.5 -17.5t79.5 -4.5h127q128 0 189 -46t61 -156z" />
    <glyph glyph-name="omicron" unicode="&#x3bf;" 
d="M1122 528q0 -153 -33 -259.5t-101 -171.5t-164 -94.5t-230 -29.5q-121 0 -212 25t-149.5 68.5t-95 109.5t-51 141t-14.5 170q0 60 3 106.5t16 108t35 107.5t63.5 94t98 78.5t141.5 50t192 19.5q96 0 172.5 -16.5t128.5 -43t89.5 -68.5t58.5 -84t33 -99t15.5 -104
t3.5 -108zM786 492v65q0 175 -41.5 256.5t-140.5 81.5q-98 0 -147 -84.5t-49 -284.5v-98q0 -299 188 -299q102 0 146 92t44 271z" />
    <glyph glyph-name="pi" unicode="&#x3c0;" horiz-adv-x="1343" 
d="M1272 0h-119q-49 0 -80.5 1.5t-68.5 5.5t-60 12.5t-47.5 23t-39 36.5t-26.5 52.5t-17 71t-5 92.5v504h-285v-799h-331v799h-111v225h1159v-225h-98v-447q0 -49 3.5 -74.5t17 -40.5t33 -18.5t58.5 -3.5h17v-215z" />
    <glyph glyph-name="rho" unicode="&#x3c1;" horiz-adv-x="1175" 
d="M1112 537q0 -276 -114 -416.5t-341 -140.5q-156 0 -241 114v-516h-332v922q0 278 127.5 414.5t394.5 136.5q117 0 205 -25t145 -69t92 -109.5t49.5 -141t14.5 -169.5zM604 895q-85 0 -136.5 -92t-51.5 -295v-150q0 -37 9 -72.5t28 -68t55.5 -52.5t85.5 -20q41 0 72 15
t50.5 44.5t32.5 63t19 81.5t8 88.5t2 94.5q0 84 -6.5 143t-24 112.5t-53.5 80.5t-90 27z" />
    <glyph glyph-name="sigma1" unicode="&#x3c2;" horiz-adv-x="1085" 
d="M1067 657h-326q-1 27 -1.5 43.5t-4.5 44.5t-9.5 46t-17.5 39.5t-28 34t-41 21.5t-57 9q-100 0 -141.5 -84.5t-41.5 -247.5q0 -60 4.5 -100t20 -85.5t44.5 -77t80.5 -62.5t125.5 -54q145 -46 193 -85.5t48 -123.5q0 -52 -35 -134.5t-69 -133.5h-195q62 117 62 174
q0 42 -37.5 64.5t-114.5 42.5q-48 13 -79.5 22.5t-75 26t-72 32t-63.5 39.5t-57.5 51t-46 64.5t-36.5 81t-21.5 100t-8.5 121.5q0 56 5.5 105.5t21 104t40.5 99t66.5 86t96 69.5t133 44.5t173.5 16.5q218 0 341.5 -103.5t123.5 -290.5z" />
    <glyph glyph-name="sigma" unicode="&#x3c3;" horiz-adv-x="1216" 
d="M1167 805l-268 18q94 -42 148.5 -126t54.5 -208q0 -260 -125 -388t-395 -128q-72 0 -133.5 9.5t-121.5 31.5t-106 61t-81.5 94.5t-54.5 136t-19 181.5q0 286 131.5 411.5t420.5 125.5h549v-219zM778 532q0 63 -3.5 105.5t-14 84t-30 66t-53 39.5t-81.5 15
q-37 0 -69.5 -16t-62.5 -52t-47.5 -104t-17.5 -162q0 -69 4.5 -122t17 -103t33.5 -82.5t56 -52t82 -19.5q48 0 82.5 23t54 59t31 91.5t15 108t3.5 121.5z" />
    <glyph glyph-name="tau" unicode="&#x3c4;" horiz-adv-x="921" 
d="M879 805h-265v-477q0 -38 3 -60t13 -43.5t32.5 -31t58.5 -9.5q31 0 51 13v-183q-110 -28 -207 -28q-86 0 -141.5 19.5t-86.5 64t-42.5 105.5t-11.5 155q0 9 1 230t1 245h-252v219h846v-219z" />
    <glyph glyph-name="upsilon" unicode="&#x3c5;" horiz-adv-x="1159" 
d="M1065 1024v-659q0 -67 -11.5 -120t-43.5 -105.5t-85.5 -87t-143.5 -56t-210 -21.5q-121 0 -209 20.5t-139.5 53.5t-81.5 85t-39.5 103.5t-9.5 120.5v666h332v-684q0 -95 36 -145t120 -50q36 0 61.5 8t48 29.5t34 65t11.5 108.5v668h330z" />
    <glyph glyph-name="phi" unicode="&#x3c6;" horiz-adv-x="1562" 
d="M1499 547q0 -64 -4.5 -116t-19.5 -111.5t-39.5 -105.5t-68 -91t-102 -75t-143 -50.5t-190.5 -24.5v-395h-299v395q-159 4 -269.5 38.5t-175.5 100t-93.5 153t-28.5 208.5q0 292 114 425.5t371 150.5v-152q-18 -6 -25 -9t-24.5 -11.5t-25.5 -17t-22.5 -25.5t-22 -36.5
t-17.5 -50t-15 -66.5t-8.5 -85t-3.5 -107q0 -195 55.5 -276.5t190.5 -89.5v551q0 200 93 288.5t316 88.5q457 0 457 -504zM1180 535q0 63 -3.5 112.5t-13 98t-25.5 80.5t-43.5 51.5t-64.5 19.5q-98 0 -98 -199v-575q60 2 103.5 20.5t71.5 50t44 83.5t22.5 112.5t6.5 145.5z
" />
    <glyph glyph-name="chi" unicode="&#x3c7;" horiz-adv-x="1024" 
d="M1028 0h-356l-172 317l-185 -317h-319l334 522l-299 502h348l149 -281l152 281h307l-295 -481z" />
    <glyph glyph-name="psi" unicode="&#x3c8;" horiz-adv-x="1533" 
d="M1442 1024v-559q0 -78 -9 -138t-30.5 -116t-60 -95t-96.5 -70t-141 -47t-192 -19v-402h-299v399q-196 4 -311 48t-164 129.5t-49 226.5v643h313v-629q0 -60 8 -102t29 -81.5t64.5 -62t109.5 -28.5v1153h299v-1155q123 11 170 91.5t47 231.5v582h312z" />
    <glyph glyph-name="omega" unicode="&#x3c9;" horiz-adv-x="1615" 
d="M1065 1049q117 -7 202.5 -37.5t150.5 -93t97.5 -167t32.5 -251.5q0 -99 -11 -175.5t-40 -144.5t-77 -112t-124 -69.5t-178 -25.5q-138 0 -207.5 56.5t-103.5 175.5q-33 -116 -111 -174t-209 -58q-234 0 -327.5 114.5t-93.5 371.5q0 154 30 262.5t93 177t149.5 104
t208.5 46.5v-154q-32 -10 -50 -19t-42.5 -35.5t-37.5 -66.5t-22.5 -112.5t-9.5 -172.5q0 -201 28.5 -280.5t112.5 -79.5q129 0 129 213v430h299v-446q0 -197 131 -197q88 0 115 81.5t27 293.5q0 75 -5 133.5t-11.5 97.5t-21 68t-25 44t-31.5 26t-32 14.5t-36 9.5v152z" />
    <glyph glyph-name="iotadieresis" unicode="&#x3ca;" horiz-adv-x="536" 
d="M436 0h-334v1024h334v-1024zM575 1163h-237v256h237v-256zM199 1163h-236v256h236v-256z" />
    <glyph glyph-name="upsilondieresis" unicode="&#x3cb;" horiz-adv-x="1159" 
d="M1065 1024v-659q0 -67 -11.5 -120t-43.5 -105.5t-85.5 -87t-143.5 -56t-210 -21.5q-121 0 -209 20.5t-139.5 53.5t-81.5 85t-39.5 103.5t-9.5 120.5v666h332v-684q0 -95 36 -145t120 -50q36 0 61.5 8t48 29.5t34 65t11.5 108.5v668h330zM885 1163h-238v256h238v-256z
M508 1163h-236v256h236v-256z" />
    <glyph glyph-name="omicrontonos" unicode="&#x3cc;" 
d="M1122 528q0 -153 -33 -259.5t-101 -171.5t-164 -94.5t-230 -29.5q-121 0 -212 25t-149.5 68.5t-95 109.5t-51 141t-14.5 170q0 60 3 106.5t16 108t35 107.5t63.5 94t98 78.5t141.5 50t192 19.5q96 0 172.5 -16.5t128.5 -43t89.5 -68.5t58.5 -84t33 -99t15.5 -104
t3.5 -108zM786 492v65q0 175 -41.5 256.5t-140.5 81.5q-98 0 -147 -84.5t-49 -284.5v-98q0 -299 188 -299q102 0 146 92t44 271zM973 1442l-279 -301h-239l182 301h336z" />
    <glyph glyph-name="upsilontonos" unicode="&#x3cd;" horiz-adv-x="1159" 
d="M1065 1024v-659q0 -67 -11.5 -120t-43.5 -105.5t-85.5 -87t-143.5 -56t-210 -21.5q-121 0 -209 20.5t-139.5 53.5t-81.5 85t-39.5 103.5t-9.5 120.5v666h332v-684q0 -95 36 -145t120 -50q36 0 61.5 8t48 29.5t34 65t11.5 108.5v668h330zM946 1442l-278 -301h-240l182 301
h336z" />
    <glyph glyph-name="omegatonos" unicode="&#x3ce;" horiz-adv-x="1615" 
d="M1065 1049q117 -7 202.5 -37.5t150.5 -93t97.5 -167t32.5 -251.5q0 -99 -11 -175.5t-40 -144.5t-77 -112t-124 -69.5t-178 -25.5q-138 0 -207.5 56.5t-103.5 175.5q-33 -116 -111 -174t-209 -58q-234 0 -327.5 114.5t-93.5 371.5q0 154 30 262.5t93 177t149.5 104
t208.5 46.5v-154q-32 -10 -50 -19t-42.5 -35.5t-37.5 -66.5t-22.5 -112.5t-9.5 -172.5q0 -201 28.5 -280.5t112.5 -79.5q129 0 129 213v430h299v-446q0 -197 131 -197q88 0 115 81.5t27 293.5q0 75 -5 133.5t-11.5 97.5t-21 68t-25 44t-31.5 26t-32 14.5t-36 9.5v152z
M1192 1442l-279 -301h-239l182 301h336z" />
    <glyph glyph-name="afii10023" unicode="&#x401;" horiz-adv-x="1110" 
d="M1081 0h-948v1446h893v-225h-526v-357h479v-227h-479v-412h581v-225zM889 1573h-238v256h238v-256zM512 1573h-238v256h238v-256z" />
    <glyph glyph-name="afii10051" unicode="&#x402;" horiz-adv-x="1589" 
d="M1145 1221h-428v-381q152 41 315 41q233 0 363.5 -109t130.5 -338q0 -454 -461 -454q-123 0 -217 47v204q55 -34 133 -34q62 0 104.5 36.5t60 89.5t17.5 117q0 236 -241 236q-119 0 -205 -29v-647h-373v1221h-346v225h1147v-225z" />
    <glyph glyph-name="afii10052" unicode="&#x403;" horiz-adv-x="1024" 
d="M1014 1221h-508v-1221h-373v1446h881v-225zM942 1851l-301 -303h-246l205 303h342z" />
    <glyph glyph-name="afii10053" unicode="&#x404;" horiz-adv-x="1406" 
d="M1343 1055h-362q0 115 -63 178q-53 53 -162 53q-60 0 -107.5 -16t-85.5 -66q-41 -53 -64.5 -148.5t-23.5 -189.5h496v-225h-496q0 -282 70 -385q37 -55 85 -75.5t113 -20.5q145 0 205 110q39 70 39 166h379q-2 -199 -152 -330q-84 -72 -196 -105.5t-277 -33.5
q-48 0 -81.5 1t-97.5 10t-113 24.5t-106 47.5t-99 77q-89 96 -119.5 235.5t-30.5 327.5q0 70 1.5 118t11 129t27 142t52.5 128.5t84 115.5q158 156 502 156q135 0 248.5 -27.5t198.5 -105.5q121 -113 124 -291z" />
    <glyph glyph-name="afii10054" unicode="&#x405;" horiz-adv-x="1280" 
d="M1180 1075v-20q-258 4 -326 4q0 36 -4 65t-16.5 60.5t-33.5 52.5t-58 35t-87 14q-58 0 -101 -18.5t-64 -47t-30 -55t-9 -51.5q0 -41 18 -73t55 -55t71 -37t87 -31l119 -37q105 -33 177.5 -70t126.5 -88.5t79.5 -121t25.5 -161.5q0 -102 -31 -183t-83 -134t-124 -88.5
t-150.5 -50.5t-166.5 -15q-306 0 -451 108.5t-145 325.5v33q144 -4 353 -4v-16q0 -254 233 -254q57 0 100 17.5t65 41t35 55t16 52.5t3 41q0 32 -6 56t-21 44t-32 34t-48 28.5t-59 25t-75 25.5l-95 30q-71 23 -122.5 43t-103 47.5t-85.5 58.5t-61.5 71.5t-40.5 92.5t-13 115
q0 218 148 327.5t412 109.5q269 0 393.5 -97t124.5 -305z" />
    <glyph glyph-name="afii10055" unicode="&#x406;" horiz-adv-x="641" 
d="M508 0h-375v1446h375v-1446z" />
    <glyph glyph-name="afii10056" unicode="&#x407;" horiz-adv-x="696" 
d="M535 0h-373v1446h373v-1446zM643 1573h-225v258h225v-258zM279 1573h-226v258h226v-258z" />
    <glyph glyph-name="afii10057" unicode="&#x408;" horiz-adv-x="937" 
d="M0 43v229q1 -1 23 -10.5t32.5 -14t35 -13.5t42.5 -13t43.5 -8t48.5 -4q76 0 127 39q50 38 63 97t13 192v909h375v-893q0 -63 -1.5 -104.5t-8 -100.5t-22 -108.5t-40.5 -89.5q-48 -75 -148.5 -125t-256.5 -50q-78 0 -145.5 12t-100.5 23.5t-80 32.5z" />
    <glyph glyph-name="afii10058" unicode="&#x409;" horiz-adv-x="2170" 
d="M1341 885h279q119 0 206 -21.5t152 -71t97 -134.5t32 -207q0 -237 -123.5 -344t-373.5 -107h-625v1221h-346q0 -139 1 -247t1 -124q0 -121 -6 -219.5t-24 -216.5t-58.5 -209t-101.5 -142q-103 -86 -267 -86q-103 0 -188 43v226q55 -35 115 -35q71 0 118 63q48 67 64 228
t16 397q0 27 -0.5 72.5t-1 161.5t-0.5 313h1034v-561zM1341 692v-499h164q124 0 180 64t56 194q0 122 -59 181.5t-183 59.5h-158z" />
    <glyph glyph-name="afii10059" unicode="&#x40a;" horiz-adv-x="2109" 
d="M1280 885h287q229 0 354 -102.5t125 -331.5q0 -234 -127 -342.5t-377 -108.5h-618v659h-418v-659h-373v1446h373v-561h418v561h356v-561zM1280 692v-499h164q123 0 179 64.5t56 193.5q0 120 -56.5 180.5t-184.5 60.5h-158z" />
    <glyph glyph-name="afii10060" unicode="&#x40b;" horiz-adv-x="1605" 
d="M1145 1221h-428v-381q193 41 336 41q438 0 438 -365v-516h-373v512q0 82 -52 123t-146 41q-104 0 -203 -29v-647h-373v1221h-346v225h1147v-225z" />
    <glyph glyph-name="afii10061" unicode="&#x40c;" horiz-adv-x="1376" 
d="M133 1446h373v-590h69q129 0 187 162l53 147q29 77 53.5 125t64.5 94t97 67.5t135 21.5q90 0 172 -37v-226q-48 21 -80 21q-28 0 -50 -12t-39 -36.5t-27 -45t-23 -52.5l-53 -139q-10 -27 -21.5 -48.5t-35 -51.5t-62 -52t-88.5 -32q195 -23 287 -281l78 -217
q39 -109 75 -168t80 -96h-397q-68 63 -113 203l-65 200q-14 44 -24 70t-29.5 61.5t-41.5 55.5t-57 34.5t-78 14.5h-67v-639h-373v1446zM1065 1851l-301 -303h-246l205 303h342z" />
    <glyph glyph-name="afii10062" unicode="&#x40e;" horiz-adv-x="1310" 
d="M702 737l242 709h383l-450 -1077q-29 -69 -59 -124t-73.5 -108.5t-93.5 -89t-118 -57t-148 -21.5q-116 0 -213 51v226q68 -37 141 -37q82 0 125 40t86 128l-516 1069h408zM1055 1831q-7 -148 -102.5 -220.5t-266.5 -72.5q-167 0 -262.5 68t-104.5 225h242v-16
q0 -62 30.5 -101t94.5 -39q61 0 94 39t33 101v16h242z" />
    <glyph glyph-name="afii10145" unicode="&#x40f;" horiz-adv-x="1433" 
d="M1300 0h-423v-369h-320v369h-424v1446h373v-1221h422v1221h372v-1446z" />
    <glyph glyph-name="afii10017" unicode="&#x410;" horiz-adv-x="1409" 
d="M1411 0h-377l-131 477h-403l-150 -477h-352l473 1446h524zM852 692l-139 516l-156 -516h295z" />
    <glyph glyph-name="afii10018" unicode="&#x411;" horiz-adv-x="1366" 
d="M498 872h297q152 0 239.5 -22.5t161.5 -95.5q107 -107 107 -314q0 -104 -27 -182.5t-71.5 -126.5t-111.5 -78t-137.5 -41.5t-158.5 -11.5h-664v1446h1051v-225h-686v-349zM498 680v-487h155q86 0 142 17t90 64q45 66 45 162q0 122 -58 180q-38 37 -85 50.5t-117 13.5
h-172z" />
    <glyph glyph-name="afii10019" unicode="&#x412;" horiz-adv-x="1366" 
d="M133 0v1446h545q258 0 354 -39q33 -14 62 -35t60.5 -56t50 -91t18.5 -125q0 -27 -3.5 -54t-18 -67.5t-38 -74.5t-68.5 -69t-106 -57q23 0 57 -8t80.5 -33t84.5 -62.5t65 -104.5t27 -152q0 -79 -18.5 -143t-47.5 -107t-73.5 -74.5t-89 -49t-101.5 -28t-103 -13.5t-102 -3
h-635zM496 666v-480h151q109 0 166 26.5t86 82.5q31 57 31 135q0 132 -88 193q-37 27 -88.5 35t-157.5 8h-100zM496 846h131q82 0 132 17.5t79 62.5q34 53 34 135q0 124 -86 170q-30 18 -74 23.5t-124 5.5h-92v-414z" />
    <glyph glyph-name="afii10020" unicode="&#x413;" horiz-adv-x="1024" 
d="M1014 1221h-508v-1221h-373v1446h881v-225z" />
    <glyph glyph-name="afii10021" unicode="&#x414;" horiz-adv-x="1572" 
d="M1374 225h185v-553h-320v328h-913v-328h-320v553h119q192 331 192 897v324h1057v-1221zM1001 1221h-352v-213q0 -228 -35 -419t-131 -364h518v996z" />
    <glyph glyph-name="afii10022" unicode="&#x415;" horiz-adv-x="1110" 
d="M1081 0h-948v1446h893v-225h-526v-357h479v-227h-479v-412h581v-225z" />
    <glyph glyph-name="afii10024" unicode="&#x416;" horiz-adv-x="2015" 
d="M834 1446h348v-606h51q67 0 99 40.5t61 129.5l51 159q19 59 35.5 100t43.5 82.5t59.5 66t81 40t110.5 15.5q102 0 184 -37v-226q-41 21 -84 21q-104 0 -148 -146l-40 -137q-23 -76 -61.5 -124.5t-113.5 -59.5q105 -17 168 -91t101 -192l71 -217q59 -181 158 -264h-379
q-41 31 -67 77t-52 136l-59 203q-13 45 -21 69t-26.5 61t-39 56t-55 34t-77.5 15h-51v-651h-348v651h-52q-43 0 -76 -14t-52.5 -28t-39.5 -55t-26.5 -60t-24.5 -79q-1 -3 -1.5 -4t-1 -3.5t-1.5 -4.5l-55 -190q-26 -90 -52 -136t-67 -77h-379q99 83 158 264l72 217
q37 117 98.5 190.5t169.5 92.5q-40 6 -70 23t-50 45t-31.5 54t-22.5 62l-43 137q-43 146 -146 146q-43 0 -84 -21v226q82 37 185 37q72 0 124.5 -18.5t90 -59.5t63.5 -93.5t51 -132.5l56 -170q10 -31 16 -47.5t19.5 -41.5t27.5 -37.5t38 -22.5t54 -10h52v606z" />
    <glyph glyph-name="afii10025" unicode="&#x417;" horiz-adv-x="1376" 
d="M481 641v225h162q118 0 185 52t67 163q0 105 -57 158q-49 47 -152 47q-107 0 -162 -57q-27 -27 -44 -70t-17 -86v-18h-363l2 22q17 179 129 279q57 51 140 80t152.5 36t160.5 7q128 0 235 -19t189 -78q141 -101 141 -282q0 -116 -69 -200t-187 -120q148 -23 231 -118
t83 -244q0 -236 -185 -355q-147 -94 -465 -94q-170 0 -276 28t-180 91q-142 120 -142 328v20h383v-18q0 -52 13 -96t23 -61t18 -25q59 -74 184 -74q115 0 178 65q64 66 64 185q0 229 -279 229h-162z" />
    <glyph glyph-name="afii10026" unicode="&#x418;" horiz-adv-x="1515" 
d="M1382 0h-372v721q0 28 8 307q-35 -95 -119 -270l-369 -758h-397v1446h373v-623q0 -245 -8 -405q30 69 54 126.5t38 90.5q61 141 346 706q11 23 17.5 35.5t16.5 32.5t19 37h393v-1446z" />
    <glyph glyph-name="afii10027" unicode="&#x419;" horiz-adv-x="1515" 
d="M1382 0h-372v721q0 28 8 307q-35 -95 -119 -270l-369 -758h-397v1446h373v-623q0 -245 -8 -405q30 69 54 126.5t38 90.5q61 141 346 706q11 23 17.5 35.5t16.5 32.5t19 37h393v-1446zM1126 1831q-7 -148 -102 -220.5t-266 -72.5q-167 0 -262.5 68t-104.5 225h242v-16
q0 -62 30.5 -101t94.5 -39q61 0 94 39t33 101v16h241z" />
    <glyph glyph-name="afii10028" unicode="&#x41a;" horiz-adv-x="1376" 
d="M133 1446h373v-590h69q129 0 187 162l53 147q29 77 53.5 125t64.5 94t97 67.5t135 21.5q90 0 172 -37v-226q-48 21 -80 21q-28 0 -50 -12t-39 -36.5t-27 -45t-23 -52.5l-53 -139q-10 -27 -21.5 -48.5t-35 -51.5t-62 -52t-88.5 -32q195 -23 287 -281l78 -217
q39 -109 75 -168t80 -96h-397q-68 63 -113 203l-65 200q-14 44 -24 70t-29.5 61.5t-41.5 55.5t-57 34.5t-78 14.5h-67v-639h-373v1446z" />
    <glyph glyph-name="afii10029" unicode="&#x41b;" horiz-adv-x="1503" 
d="M-2 20v226q55 -35 115 -35q71 0 118 63q80 110 80 555q0 27 -0.5 90t-1 196.5t-0.5 330.5h1061v-1446h-373v1221h-354v-279q0 -124 -3 -217.5t-14.5 -204.5t-31 -191t-55.5 -152.5t-86 -113.5q-103 -86 -267 -86q-103 0 -188 43z" />
    <glyph glyph-name="afii10030" unicode="&#x41c;" horiz-adv-x="1961" 
d="M1831 0h-348q-4 851 -4 1202q-9 -36 -99.5 -336.5t-177.5 -583.5l-86 -282h-274q-297 952 -363 1198q0 -86 -3 -622t-3 -576h-340q19 1417 19 1446h550l281 -969l285 969h551z" />
    <glyph glyph-name="afii10031" unicode="&#x41d;" horiz-adv-x="1449" 
d="M1319 0h-373v649h-440v-649h-373v1446h373v-569h440v569h373v-1446z" />
    <glyph glyph-name="afii10032" unicode="&#x41e;" horiz-adv-x="1492" 
d="M1409 776q0 -214 -34 -361.5t-112 -250t-206.5 -150t-317.5 -47.5q-178 0 -298.5 35.5t-202 120.5t-118 224.5t-36.5 348.5q0 82 4.5 148.5t16.5 141t34.5 133t57 117t86.5 101t119 75.5t159 50t203 17q152 0 264.5 -32t185 -89t116.5 -146.5t61.5 -193.5t17.5 -242z
M1026 758q0 71 -1.5 120t-7.5 108.5t-17 99.5t-31 81t-48.5 65t-70 39t-94.5 15q-57 0 -102 -18t-75 -46.5t-51.5 -77t-33 -95t-18 -117t-8 -126.5t-1.5 -138q0 -200 27 -309.5t85 -154t164 -44.5q105 0 165 53.5t89 183.5t29 361z" />
    <glyph glyph-name="afii10033" unicode="&#x41f;" horiz-adv-x="1433" 
d="M1300 0h-372v1221h-422v-1221h-373v1446h1167v-1446z" />
    <glyph glyph-name="afii10034" unicode="&#x420;" horiz-adv-x="1280" 
d="M506 524v-524h-373v1446h615q67 0 115.5 -3t105 -14t95.5 -30t77.5 -53.5t62 -82t37.5 -117.5t14 -159q0 -246 -126.5 -354.5t-374.5 -108.5h-248zM506 717h123q70 0 115.5 11.5t80 41.5t49.5 85t15 140q0 132 -53.5 195t-178.5 63h-151v-536z" />
    <glyph glyph-name="afii10035" unicode="&#x421;" horiz-adv-x="1409" 
d="M1350 956h-363v17q0 162 -57.5 237.5t-171.5 75.5q-95 0 -154 -52t-92 -186t-33 -362q0 -130 13 -225t34.5 -152.5t56.5 -91t72.5 -45.5t87.5 -12q235 0 250 327h377q-7 -135 -50 -228q-121 -254 -496 -287q-54 -5 -113 -5q-109 0 -196.5 17.5t-151.5 48.5t-111.5 80.5
t-77.5 107.5t-48 136.5t-25 160t-7 184.5q0 89 5 160t21.5 154.5t45.5 147t79.5 125.5t119.5 101.5t170.5 64t228.5 24.5q103 0 187 -14t160 -49t127.5 -90.5t81.5 -143t30 -201.5v-25z" />
    <glyph glyph-name="afii10036" unicode="&#x422;" horiz-adv-x="1110" 
d="M1112 1221h-373v-1221h-370v1221h-371v225h1114v-225z" />
    <glyph glyph-name="afii10037" unicode="&#x423;" horiz-adv-x="1310" 
d="M702 737l242 709h383l-450 -1077q-29 -69 -59 -124t-73.5 -108.5t-93.5 -89t-118 -57t-148 -21.5q-116 0 -213 51v226q68 -37 141 -37q82 0 125 40t86 128l-516 1069h408z" />
    <glyph glyph-name="afii10038" unicode="&#x424;" horiz-adv-x="1867" 
d="M1120 0h-372v233h-160q-504 0 -504 519q0 262 118 392t384 130h162v201h372v-201h164q253 0 376.5 -129t123.5 -393q0 -519 -506 -519h-158v-233zM760 426v655h-64q-77 0 -129 -22.5t-79.5 -68t-38.5 -101.5t-11 -135q0 -58 5.5 -102.5t22 -88.5t45 -72.5t76.5 -46.5
t113 -18h60zM1108 426h57q76 0 128.5 23t82 68t42 102t12.5 135q0 57 -5.5 101.5t-22 88.5t-44.5 72.5t-75.5 46.5t-111.5 18h-63v-655z" />
    <glyph glyph-name="afii10039" unicode="&#x425;" horiz-adv-x="1323" 
d="M1331 0h-393l-276 489l-283 -489h-387l469 772l-398 674h396l215 -402l223 402h379l-399 -662z" />
    <glyph glyph-name="afii10040" unicode="&#x426;" horiz-adv-x="1499" 
d="M1298 225h185v-553h-320v328h-1030v1446h373v-1221h420v1221h372v-1221z" />
    <glyph glyph-name="afii10041" unicode="&#x427;" horiz-adv-x="1392" 
d="M1260 0h-373v606q-189 -41 -334 -41q-98 0 -173.5 17.5t-137.5 57.5t-95.5 112.5t-33.5 175.5v518h374v-514q0 -85 50 -123.5t147 -38.5q104 0 203 29v647h373v-1446z" />
    <glyph glyph-name="afii10042" unicode="&#x428;" horiz-adv-x="2007" 
d="M1874 0h-1741v1446h356v-1221h336v1221h357v-1221h336v1221h356v-1446z" />
    <glyph glyph-name="afii10043" unicode="&#x429;" horiz-adv-x="2076" 
d="M1874 225h184v-553h-319v328h-1606v1446h356v-1221h336v1221h357v-1221h336v1221h356v-1221z" />
    <glyph glyph-name="afii10044" unicode="&#x42a;" horiz-adv-x="1544" 
d="M715 885h243q157 0 251 -24t163 -93q109 -112 109 -317q0 -451 -514 -451h-625v1221h-344v225h717v-561zM715 692v-499h164q133 0 184 63t51 197q0 123 -55 178q-33 35 -78.5 48t-110.5 13h-155z" />
    <glyph glyph-name="afii10045" unicode="&#x42b;" horiz-adv-x="1810" 
d="M481 885h197q159 0 252.5 -23.5t161.5 -93.5q108 -111 108 -317q0 -451 -514 -451h-553v1446h348v-561zM481 692v-499h148q132 0 182.5 63t50.5 197q0 123 -53 178q-61 61 -188 61h-140zM1677 0h-348v1446h348v-1446z" />
    <glyph glyph-name="afii10046" unicode="&#x42c;" horiz-adv-x="1335" 
d="M506 885h244q159 0 252 -23.5t161 -93.5q109 -112 109 -317q0 -451 -514 -451h-625v1446h373v-561zM506 692v-499h164q133 0 184 63t51 197q0 123 -55 178q-33 35 -78 48t-110 13h-156z" />
    <glyph glyph-name="afii10047" unicode="&#x42d;" horiz-adv-x="1394" 
d="M434 1055h-362v12q0 164 135 283q89 77 204 103t255 26q65 0 120 -5t123.5 -19.5t130.5 -48t111 -83.5q53 -55 87.5 -128t49 -157t19 -147t4.5 -146q0 -88 -6 -160.5t-22.5 -161t-54 -165t-93.5 -131.5q-160 -160 -504 -160q-306 0 -449 131q-70 63 -105.5 151.5
t-35.5 164.5v22h383v-20q0 -34 13 -81.5t28 -74.5q58 -100 197 -100q131 0 194 90q43 60 58.5 174.5t15.5 216.5h-475v225h475q0 119 -14.5 203t-61.5 139q-63 78 -184 78q-109 0 -166 -53q-10 -8 -23 -23.5t-30 -56t-17 -86.5v-12z" />
    <glyph glyph-name="afii10048" unicode="&#x42e;" horiz-adv-x="2039" 
d="M489 877h220q3 121 43.5 238.5t103.5 189.5q152 174 485 174q63 0 112 -4.5t116 -19t127.5 -50t109.5 -90.5q88 -99 119 -238.5t31 -320.5q0 -442 -162 -621q-89 -97 -214 -132.5t-275 -35.5q-286 0 -433 137q-167 157 -167 529v18h-216v-651h-356v1446h356v-569z
M1323 160q71 0 118.5 26t80.5 86q69 126 69 463q0 189 -15.5 287t-45.5 154q-61 110 -195 110q-77 0 -125.5 -27.5t-83.5 -91.5q-73 -134 -73 -465q0 -327 65 -432q66 -110 205 -110z" />
    <glyph glyph-name="afii10049" unicode="&#x42f;" horiz-adv-x="1392" 
d="M1260 0h-365v610h-121q-47 0 -83.5 -13t-60.5 -34t-42.5 -56t-29 -69t-21.5 -84l-31 -135q-31 -134 -94 -219h-394q71 71 113 233l35 142q14 60 32.5 105.5t48.5 90t76.5 75.5t108.5 48q-136 9 -222.5 103.5t-86.5 242.5q0 201 120 303.5t339 102.5h678v-1446zM895 799
v454h-158q-126 0 -185.5 -53.5t-59.5 -179.5q0 -221 237 -221h166z" />
    <glyph glyph-name="afii10065" unicode="&#x430;" horiz-adv-x="1150" 
d="M1087 0h-292q-52 0 -72.5 21t-20.5 83v13q-55 -64 -131.5 -104t-201.5 -40q-147 0 -226.5 82.5t-79.5 225.5q0 111 51 178t158 104q128 45 443 68v117q0 149 -142 149q-84 0 -122.5 -50.5t-38.5 -125.5v-19h-320v21q0 74 24.5 131t80 103t155.5 70t242 24q112 0 192 -15
t130 -41.5t78.5 -70.5t39 -93.5t10.5 -119.5v-504q0 -87 8.5 -131t34.5 -64v-12zM715 350v150q-150 -11 -211 -35q-107 -43 -107 -158q0 -22 3.5 -42t15.5 -50.5t43 -49t78 -18.5q178 0 178 203z" />
    <glyph glyph-name="afii10066" unicode="&#x431;" horiz-adv-x="1200" 
d="M262 780q111 195 400 195q205 0 323 -92q87 -69 115 -164.5t28 -224.5q0 -60 -5 -109t-19 -108t-46 -110.5t-79 -90.5q-125 -103 -381 -103q-229 0 -344 84q-55 40 -92 98t-53 127.5t-21.5 127t-5.5 129.5q0 322 49 489q50 181 168.5 259.5t325.5 96.5q136 11 204 21
q31 5 52 13t30 19t12.5 19t4.5 19h192q-1 -89 -26.5 -151t-76.5 -99t-114.5 -55.5t-152.5 -26.5q-15 -1 -56 -4l-61.5 -4.5t-59.5 -7t-62 -12t-55.5 -18.5t-54.5 -27t-45 -37t-39 -50q-48 -79 -55 -203zM418 479q0 -186 43 -266q47 -84 145 -84q52 0 85 21t57 65
q45 87 45 277q0 187 -45 260q-24 38 -55.5 52.5t-80.5 14.5q-94 0 -143 -71q-51 -74 -51 -269z" />
    <glyph glyph-name="afii10067" unicode="&#x432;" horiz-adv-x="1142" 
d="M111 0v1024h596q54 0 97 -6t84 -22t68 -42.5t43.5 -70t16.5 -101.5q0 -184 -209 -231q123 -11 198.5 -75t75.5 -183q0 -149 -98.5 -221t-269.5 -72h-602zM442 463v-307h127q176 0 176 155q0 80 -44.5 116t-137.5 36h-121zM442 606h113q70 0 112 34.5t42 102.5
q0 63 -36 94t-116 31h-115v-262z" />
    <glyph glyph-name="afii10068" unicode="&#x433;" horiz-adv-x="827" 
d="M442 0h-331v1024h710v-217h-379v-807z" />
    <glyph glyph-name="afii10069" unicode="&#x434;" horiz-adv-x="1290" 
d="M1110 184h164v-454h-287v270h-696v-270h-287v454h90q146 229 146 578v262h870v-840zM406 184h372v656h-252v-138q0 -272 -120 -518z" />
    <glyph glyph-name="afii10070" unicode="&#x435;" horiz-adv-x="1161" 
d="M1085 489h-675v-36q0 -49 2.5 -87t13.5 -85t29.5 -77t54 -51.5t84.5 -21.5q45 0 78.5 17t50.5 39.5t27 53t12 50t2 37.5h323q0 -72 -29 -134.5t-87 -112.5t-156.5 -79t-226.5 -29q-122 0 -213 26t-148 71t-91.5 113t-48 143.5t-13.5 171.5q0 130 28.5 228.5t75.5 159.5
t116.5 98.5t143.5 52t164 14.5q91 0 164.5 -16.5t123 -43t86.5 -66t57 -79.5t32.5 -91.5t16 -92.5t3.5 -91v-82zM414 631h346q0 264 -162 264q-81 0 -130.5 -65t-53.5 -199z" />
    <glyph glyph-name="afii10072" unicode="&#x436;" horiz-adv-x="1597" 
d="M639 1024h319v-414h37q50 0 74.5 25t40.5 80l33 108q32 108 87.5 167t160.5 59q80 0 153 -33v-213q-31 16 -67 16q-71 0 -103 -92l-31 -84q-33 -90 -112 -102q82 -16 127 -69.5t78 -149.5l43 -134q42 -133 112 -188h-319q-54 44 -88 164l-33 123q-12 40 -20 61.5
t-26 50.5t-45.5 42.5t-66.5 13.5h-35v-455h-319v455h-35q-37 0 -63.5 -12t-44 -38.5t-28 -51.5t-22.5 -66l-32 -123q-34 -120 -88 -164h-320q71 56 113 188l43 134q31 92 75 144.5t130 74.5q-80 12 -113 102l-31 84q-31 92 -102 92q-37 0 -68 -16v213q73 33 154 33
q101 0 157.5 -58t90.5 -168l32 -108q16 -52 40 -78.5t75 -26.5h37v414z" />
    <glyph glyph-name="afii10073" unicode="&#x437;" horiz-adv-x="1130" 
d="M55 307h328v-14q0 -76 44.5 -120t133.5 -44q78 0 125 42t47 120q0 143 -178 143h-123v184h117q168 0 168 146q0 131 -150 131q-73 0 -119 -39t-47 -113h-315q7 84 45 142.5t84 89.5q109 76 367 76q216 0 325 -62q121 -67 121 -198q0 -93 -54.5 -153.5t-154.5 -84.5
q112 -11 181 -78.5t69 -177.5q0 -175 -147 -258q-117 -66 -375 -66q-73 0 -120 2.5t-123.5 22.5t-127.5 59q-118 89 -121 250z" />
    <glyph glyph-name="afii10074" unicode="&#x438;" horiz-adv-x="1253" 
d="M1143 0h-332v455q0 132 6 282q-96 -217 -98 -221l-246 -516h-362v1024h331v-403q0 -175 -6 -334q44 103 105 233q98 213 241 504h361v-1024z" />
    <glyph glyph-name="afii10075" unicode="&#x439;" horiz-adv-x="1253" 
d="M1143 0h-332v455q0 132 6 282q-96 -217 -98 -221l-246 -516h-362v1024h331v-403q0 -175 -6 -334q44 103 105 233q98 213 241 504h361v-1024zM963 1434q-6 -295 -336 -295q-161 0 -246.5 70.5t-89.5 224.5h213v-19q0 -61 29 -99t94 -38q62 0 92.5 37t30.5 100v19h213z" />
    <glyph glyph-name="afii10076" unicode="&#x43a;" horiz-adv-x="1138" 
d="M111 1024h331v-414h56q102 0 143 111l39 102q20 54 41 90.5t52 70t75.5 49.5t103.5 16q76 0 148 -33v-217q-22 20 -62 20q-39 0 -61 -22.5t-43 -67.5l-37 -86q-4 -11 -11.5 -23t-22.5 -29.5t-40.5 -30.5t-56.5 -17q80 -11 129.5 -69.5t83.5 -151.5l45 -132
q16 -45 27.5 -71.5t35 -61t52.5 -57.5h-344q-49 51 -78 143l-47 144q-13 39 -24.5 63.5t-31 51.5t-48.5 40t-68 13h-56v-455h-331v1024z" />
    <glyph glyph-name="afii10077" unicode="&#x43b;" horiz-adv-x="1204" 
d="M8 4v180q28 -14 66 -14q129 0 139 248q4 113 4 332v274h877v-1024h-332v840h-258v-181q0 -233 -17 -344q-23 -159 -105 -244t-243 -85q-68 0 -131 18z" />
    <glyph glyph-name="afii10078" unicode="&#x43c;" horiz-adv-x="1499" 
d="M1397 0h-295v852q-6 -20 -19.5 -72t-23.5 -86l-205 -694h-217l-205 690q-34 117 -43 152q0 -10 1 -59t1 -85l-6 -698h-291q23 911 25 1024h446l131 -471q10 -37 17 -65t10.5 -45t11 -56t15.5 -76q31 168 51 238l129 475h446z" />
    <glyph glyph-name="afii10079" unicode="&#x43d;" horiz-adv-x="1191" 
d="M1081 0h-331v422h-308v-422h-331v1024h331v-385h308v385h331v-1024z" />
    <glyph glyph-name="afii10080" unicode="&#x43e;" 
d="M1122 528q0 -153 -33 -259.5t-101 -171.5t-164 -94.5t-230 -29.5q-121 0 -212 25t-149.5 68.5t-95 109.5t-51 141t-14.5 170q0 60 3 106.5t16 108t35 107.5t63.5 94t98 78.5t141.5 50t192 19.5q96 0 172.5 -16.5t128.5 -43t89.5 -68.5t58.5 -84t33 -99t15.5 -104
t3.5 -108zM786 492v65q0 175 -41.5 256.5t-140.5 81.5q-98 0 -147 -84.5t-49 -284.5v-98q0 -299 188 -299q102 0 146 92t44 271z" />
    <glyph glyph-name="afii10081" unicode="&#x43f;" horiz-adv-x="1183" 
d="M1073 0h-332v840h-299v-840h-331v1024h962v-1024z" />
    <glyph glyph-name="afii10082" unicode="&#x440;" 
d="M111 1024h331v-123q12 17 29.5 34t56 45.5t99 46t133.5 17.5q103 0 175 -37t112 -107.5t57.5 -159t17.5 -205.5q0 -130 -20.5 -227.5t-66 -172.5t-126 -114t-194.5 -39q-188 0 -273 127v-531h-331v1446zM442 659v-301q0 -32 6.5 -63t22 -65.5t50 -56t83.5 -21.5
q53 0 90 27t56.5 78t27.5 113t8 144q0 48 -1.5 80.5t-6.5 79t-16.5 77.5t-29.5 61t-49 45t-71 15q-84 0 -127 -58.5t-43 -154.5z" />
    <glyph glyph-name="afii10083" unicode="&#x441;" horiz-adv-x="1130" 
d="M1073 657h-323q-5 238 -158 238q-41 0 -72.5 -16.5t-51 -47.5t-32 -66t-18.5 -83.5t-8 -87t-2 -88.5q0 -41 0.5 -65t3.5 -68.5t9.5 -72.5t19 -63.5t30.5 -56t46.5 -35t64.5 -14.5q77 0 121.5 59.5t44.5 176.5h325q0 -182 -127 -288t-379 -106q-239 0 -367 129t-128 412
q0 110 24 198t58.5 143t88 95t97.5 58.5t103 29t87.5 12t67.5 1.5q475 0 475 -394z" />
    <glyph glyph-name="afii10084" unicode="&#x442;" horiz-adv-x="950" 
d="M641 0h-332v807h-303v217h938v-217h-303v-807z" />
    <glyph glyph-name="afii10085" unicode="&#x443;" horiz-adv-x="1024" 
d="M1028 1024l-350 -1090q-37 -116 -71 -180t-79 -102q-96 -82 -280 -82q-114 0 -215 22v226q84 -21 145 -21q50 0 83 16.5t48.5 49t21 67t5.5 84.5l-340 1010h346l190 -748l183 748h313z" />
    <glyph glyph-name="afii10086" unicode="&#x444;" horiz-adv-x="1671" 
d="M670 1446h331v-465q95 63 213 63q155 0 252 -88q44 -41 72.5 -95.5t40.5 -118.5t16 -113.5t4 -112.5q0 -59 -2.5 -100.5t-12.5 -104.5t-35 -118t-64 -99q-99 -114 -277 -114q-116 0 -207 63v-465h-331v465q-91 -63 -207 -63q-178 0 -277 114q-39 44 -64 99t-35 118
t-12.5 104.5t-2.5 100.5q0 63 4 112.5t16 113.5t40.5 118.5t72.5 95.5q97 88 252 88q118 0 213 -63v465zM676 199v626q-43 43 -107 43q-33 0 -59.5 -14.5t-43 -35t-28.5 -56t-17.5 -62.5t-8.5 -71t-3.5 -65t-0.5 -60v-8q0 -34 0.5 -55.5t3.5 -61t9 -65.5t18 -59t29 -52.5
t43.5 -33t59.5 -13.5q56 0 105 43zM995 825v-626q49 -43 105 -43q34 0 60.5 13.5t43 33t29 52t18 59.5t9 67t4 63.5t0.5 59.5v8q0 33 -0.5 55.5t-3.5 63t-9 69t-18 62.5t-28.5 55.5t-43 36t-59.5 14.5q-64 0 -107 -43z" />
    <glyph glyph-name="afii10087" unicode="&#x445;" horiz-adv-x="1024" 
d="M1028 0h-356l-172 317l-185 -317h-319l334 522l-299 502h348l149 -281l152 281h307l-295 -481z" />
    <glyph glyph-name="afii10088" unicode="&#x446;" horiz-adv-x="1253" 
d="M1073 184h164v-454h-287v270h-839v1024h331v-840h299v840h332v-840z" />
    <glyph glyph-name="afii10089" unicode="&#x447;" horiz-adv-x="1146" 
d="M1036 0h-331v416q-141 -29 -263 -29q-62 0 -111 6.5t-95.5 25t-77.5 49t-49.5 81t-18.5 117.5v358h332v-356q0 -58 37 -87.5t102 -29.5q77 0 144 20v453h331v-1024z" />
    <glyph glyph-name="afii10090" unicode="&#x448;" horiz-adv-x="1724" 
d="M1614 0h-1503v1024h331v-840h254v840h332v-840h254v840h332v-1024z" />
    <glyph glyph-name="afii10091" unicode="&#x449;" horiz-adv-x="1794" 
d="M1614 184h164v-454h-287v270h-1380v1024h331v-840h254v840h332v-840h254v840h332v-840z" />
    <glyph glyph-name="afii10092" unicode="&#x44a;" horiz-adv-x="1277" 
d="M598 651h266q173 0 267 -73.5t94 -247.5q0 -176 -92 -253t-285 -77h-582v807h-260v217h592v-373zM598 496v-340h135q156 0 156 174q0 85 -43.5 125.5t-132.5 40.5h-115z" />
    <glyph glyph-name="afii10093" unicode="&#x44b;" horiz-adv-x="1564" 
d="M442 651h203q84 0 146.5 -15.5t112 -51.5t75 -99.5t25.5 -154.5q0 -176 -89 -253t-284 -77h-520v1024h331v-373zM442 496v-340h117q76 0 117 44t41 130q0 166 -172 166h-103zM1454 0h-332v1024h332v-1024z" />
    <glyph glyph-name="afii10094" unicode="&#x44c;" horiz-adv-x="1122" 
d="M442 651h271q172 0 264 -73.5t92 -247.5q0 -176 -92.5 -253t-280.5 -77h-585v1024h331v-373zM442 496v-340h136q155 0 155 174q0 85 -43.5 125.5t-132.5 40.5h-115z" />
    <glyph glyph-name="afii10095" unicode="&#x44d;" horiz-adv-x="1134" 
d="M389 743h-315q7 71 40.5 129.5t82.5 96.5q108 82 356 82q120 0 215.5 -24t167.5 -93q43 -41 70.5 -92t39 -110t14.5 -101.5t3 -100.5q0 -64 -5.5 -117.5t-20 -114.5t-45.5 -114.5t-77 -93.5q-43 -39 -95 -64t-108 -35.5t-97.5 -14t-94.5 -3.5q-227 0 -338 84
q-123 91 -125 250h328q4 -73 33 -117q40 -61 127 -61q52 0 84.5 20t56.5 62q45 79 45 223h-321v184h321q0 66 -12.5 126t-34.5 90q-43 61 -131 61q-78 0 -119 -41q-45 -45 -45 -111z" />
    <glyph glyph-name="afii10096" unicode="&#x44e;" horiz-adv-x="1679" 
d="M442 623h158q15 209 141 319q125 109 371 109q237 0 356 -107q140 -121 140 -416q0 -293 -131 -426q-129 -129 -392 -129q-242 0 -354 107q-65 60 -100 155t-35 189v14h-154v-438h-331v1024h331v-401zM903 514q0 -210 43 -299q48 -86 146 -86q50 0 81.5 20t53.5 64
q49 98 49 319q0 67 -1.5 104t-12.5 92t-33 93q-43 74 -133 74q-92 0 -138 -72q-36 -56 -45.5 -127.5t-9.5 -181.5z" />
    <glyph glyph-name="afii10097" unicode="&#x44f;" horiz-adv-x="1134" 
d="M1024 0h-332v418h-86q-70 0 -110 -41.5t-58 -120.5l-22 -100q-24 -110 -64 -156h-344q57 57 86 168l23 90q23 92 75 148t148 75q-114 5 -188 69t-74 183q0 153 93 222t269 69h584v-1024zM692 561v307h-121q-88 0 -129 -33.5t-41 -125.5q0 -148 160 -148h131z" />
    <glyph glyph-name="afii10071" unicode="&#x451;" horiz-adv-x="1161" 
d="M1085 489h-675v-36q0 -49 2.5 -87t13.5 -85t29.5 -77t54 -51.5t84.5 -21.5q45 0 78.5 17t50.5 39.5t27 53t12 50t2 37.5h323q0 -72 -29 -134.5t-87 -112.5t-156.5 -79t-226.5 -29q-122 0 -213 26t-148 71t-91.5 113t-48 143.5t-13.5 171.5q0 130 28.5 228.5t75.5 159.5
t116.5 98.5t143.5 52t164 14.5q91 0 164.5 -16.5t123 -43t86.5 -66t57 -79.5t32.5 -91.5t16 -92.5t3.5 -91v-82zM414 631h346q0 264 -162 264q-81 0 -130.5 -65t-53.5 -199zM893 1163h-238v256h238v-256zM516 1163h-235v256h235v-256z" />
    <glyph glyph-name="afii10099" unicode="&#x452;" horiz-adv-x="1191" 
d="M442 1276h369v-143h-369v-293q146 135 344 135q295 0 295 -322v-665q0 -213 -88 -311.5t-309 -98.5q-60 0 -121 6v197q21 -6 45 -6q36 0 62.5 12t41.5 31t24 50t11.5 61.5t2.5 72.5v612q0 189 -134 189q-39 0 -79.5 -16.5t-63.5 -47.5q-31 -45 -31 -106v-633h-331v1133
h-131v143h131v170h331v-170z" />
    <glyph glyph-name="afii10100" unicode="&#x453;" horiz-adv-x="827" 
d="M442 0h-331v1024h710v-217h-379v-807zM838 1442l-301 -303h-246l205 303h342z" />
    <glyph glyph-name="afii10101" unicode="&#x454;" horiz-adv-x="1134" 
d="M1065 743h-315q0 64 -39 109q-39 43 -115 43q-81 0 -131 -66q-29 -39 -45.5 -98.5t-16.5 -112.5h322v-184h-322v-12q0 -55 13 -115t35 -98q47 -80 139 -80q84 0 125 59q35 51 35 111v8h327q-8 -154 -129 -244q-119 -90 -375 -90q-55 0 -98.5 4t-99 16.5t-105 42
t-88.5 73.5q-110 122 -110 389q0 302 145 436q128 117 393 117q100 0 181 -16t147 -66q117 -89 127 -226z" />
    <glyph glyph-name="afii10102" unicode="&#x455;" horiz-adv-x="1024" 
d="M944 760v-17q-219 5 -287 7v12q0 23 -5 43.5t-18 44.5t-43.5 38.5t-74.5 14.5q-57 0 -98 -28.5t-41 -83.5q0 -94 176 -134l96 -22q56 -13 97 -27.5t84.5 -39.5t70.5 -57.5t44.5 -82.5t17.5 -113q0 -118 -59 -195.5t-160 -112t-242 -34.5q-41 0 -74.5 1.5t-82 8.5
t-85.5 18.5t-77.5 34t-67 53t-43.5 77.5t-17 106l2 35l305 -6v-18q0 -156 168 -156q62 0 102 31.5t40 93.5q0 29 -11 51.5t-25 35.5t-41 24.5t-43 15.5l-48 12l-131 33q-31 8 -49.5 13.5t-53.5 18.5t-57 26.5t-50 37t-44 50t-27.5 65.5t-11.5 84q0 160 112 246t322 86
q72 0 131 -7t116.5 -26.5t96 -51t62.5 -84t24 -122.5z" />
    <glyph glyph-name="afii10103" unicode="&#x456;" horiz-adv-x="552" 
d="M442 1180h-331v254h331v-254zM442 0h-331v1024h331v-1024z" />
    <glyph glyph-name="afii10104" unicode="&#x457;" horiz-adv-x="589" 
d="M461 0h-332v1024h332v-1024zM557 1180h-213v254h213v-254zM246 1180h-213v254h213v-254z" />
    <glyph glyph-name="afii10105" unicode="&#x458;" horiz-adv-x="555" 
d="M442 1024v-1063q0 -43 -3 -77.5t-13 -75.5t-27 -72.5t-46.5 -62.5t-70 -51t-99.5 -32t-132 -12q-66 0 -127 6v195q24 -4 47 -4q39 0 65 11.5t41.5 30t23.5 53.5t10 68.5t2 88.5v997h329zM442 1180h-329v256h329v-256z" />
    <glyph glyph-name="afii10106" unicode="&#x459;" horiz-adv-x="1757" 
d="M217 1024h877v-373h249q173 0 267 -73.5t94 -247.5q0 -178 -92.5 -254t-290.5 -76h-559v840h-258v-181q0 -233 -17 -344q-23 -158 -105.5 -243.5t-242.5 -85.5q-68 0 -131 18v180q28 -14 66 -14q34 0 59.5 17t39 40.5t22.5 60.5t12 65t4 65q6 170 6 332v274zM1094 496
v-340h108q88 0 127 43t39 131q0 87 -43 126.5t-141 39.5h-90z" />
    <glyph glyph-name="afii10107" unicode="&#x45a;" horiz-adv-x="1728" 
d="M1065 651h252q173 0 265.5 -73.5t92.5 -247.5q0 -178 -92 -254t-291 -76h-559v467h-291v-467h-331v1024h331v-373h291v373h332v-373zM1065 496v-340h109q86 0 125.5 43t39.5 131q0 87 -43 126.5t-141 39.5h-90z" />
    <glyph glyph-name="afii10108" unicode="&#x45b;" horiz-adv-x="1191" 
d="M442 1276h369v-143h-369v-293q146 135 344 135q295 0 295 -326v-649h-331v616q0 187 -136 187q-38 0 -78.5 -17t-62.5 -47q-31 -45 -31 -106v-633h-331v1133h-131v143h131v170h331v-170z" />
    <glyph glyph-name="afii10109" unicode="&#x45c;" horiz-adv-x="1138" 
d="M111 1024h331v-414h56q102 0 143 111l39 102q20 54 41 90.5t52 70t75.5 49.5t103.5 16q76 0 148 -33v-217q-22 20 -62 20q-39 0 -61 -22.5t-43 -67.5l-37 -86q-4 -11 -11.5 -23t-22.5 -29.5t-40.5 -30.5t-56.5 -17q80 -11 129.5 -69.5t83.5 -151.5l45 -132
q16 -45 27.5 -71.5t35 -61t52.5 -57.5h-344q-49 51 -78 143l-47 144q-13 39 -24.5 63.5t-31 51.5t-48.5 40t-68 13h-56v-455h-331v1024zM1001 1442l-301 -303h-245l204 303h342z" />
    <glyph glyph-name="afii10110" unicode="&#x45e;" horiz-adv-x="1024" 
d="M1028 1024l-350 -1090q-37 -116 -71 -180t-79 -102q-96 -82 -280 -82q-114 0 -215 22v226q84 -21 145 -21q50 0 83 16.5t48.5 49t21 67t5.5 84.5l-340 1010h346l190 -748l183 748h313zM858 1434q0 -78 -27 -136t-64 -87.5t-88 -47t-85.5 -21t-71.5 -3.5q-171 0 -250 73
q-42 39 -64 98t-22 124h213v-19q0 -26 3.5 -46t15 -43t38 -35.5t66.5 -12.5q123 0 123 137v19h213z" />
    <glyph glyph-name="afii10193" unicode="&#x45f;" horiz-adv-x="1187" 
d="M1077 0h-340v-328h-286v328h-340v1024h331v-840h303v840h332v-1024z" />
    <glyph glyph-name="afii10050" unicode="&#x490;" horiz-adv-x="1024" 
d="M1014 1221h-506v-1221h-375v1446h561v328h320v-553z" />
    <glyph glyph-name="afii10098" unicode="&#x491;" horiz-adv-x="827" 
d="M442 0h-331v1024h424v270h286v-487h-379v-807z" />
    <glyph glyph-name="Wgrave" unicode="&#x1e80;" horiz-adv-x="1878" 
d="M1591 0h-461l-192 930l-215 -930h-463l-262 1446h358l181 -1147l260 1147h303q202 -975 233 -1139l209 1139h338zM1135 1548h-244l-248 303h330z" />
    <glyph glyph-name="wgrave" unicode="&#x1e81;" horiz-adv-x="1622" 
d="M1616 1024l-268 -1024h-365q-154 563 -166 647q-6 -38 -51 -200t-87 -305l-42 -142h-367l-264 1024h336q144 -647 156 -743q7 44 54.5 229.5t91.5 349.5l44 164h279q166 -639 182 -743q4 41 42.5 226.5t74.5 350.5l37 166h313zM1008 1139h-244l-250 303h330z" />
    <glyph glyph-name="Wacute" unicode="&#x1e82;" horiz-adv-x="1878" 
d="M1591 0h-461l-192 930l-215 -930h-463l-262 1446h358l181 -1147l260 1147h303q202 -975 233 -1139l209 1139h338zM1290 1851l-301 -303h-246l205 303h342z" />
    <glyph glyph-name="wacute" unicode="&#x1e83;" horiz-adv-x="1622" 
d="M1616 1024l-268 -1024h-365q-154 563 -166 647q-6 -38 -51 -200t-87 -305l-42 -142h-367l-264 1024h336q144 -647 156 -743q7 44 54.5 229.5t91.5 349.5l44 164h279q166 -639 182 -743q4 41 42.5 226.5t74.5 350.5l37 166h313zM1190 1442l-301 -303h-246l205 303h342z
" />
    <glyph glyph-name="Wdieresis" unicode="&#x1e84;" horiz-adv-x="1878" 
d="M1591 0h-461l-192 930l-215 -930h-463l-262 1446h358l181 -1147l260 1147h303q202 -975 233 -1139l209 1139h338zM1245 1573h-237v256h237v-256zM868 1573h-237v256h237v-256z" />
    <glyph glyph-name="wdieresis" unicode="&#x1e85;" horiz-adv-x="1622" 
d="M1616 1024l-268 -1024h-365q-154 563 -166 647q-6 -38 -51 -200t-87 -305l-42 -142h-367l-264 1024h336q144 -647 156 -743q7 44 54.5 229.5t91.5 349.5l44 164h279q166 -639 182 -743q4 41 42.5 226.5t74.5 350.5l37 166h313zM1124 1163h-237v256h237v-256zM748 1163
h-236v256h236v-256z" />
    <glyph glyph-name="Ygrave" unicode="&#x1ef2;" horiz-adv-x="1323" 
d="M1337 1446l-485 -950v-496h-369v496l-497 950h407l289 -610l272 610h383zM885 1548h-244l-248 303h330z" />
    <glyph glyph-name="ygrave" unicode="&#x1ef3;" horiz-adv-x="1024" 
d="M1028 1024l-350 -1090q-37 -116 -71 -180t-79 -102q-96 -82 -280 -82q-114 0 -215 22v226q84 -21 145 -21q50 0 83 16.5t48.5 49t21 67t5.5 84.5l-340 1010h346l190 -748l183 748h313zM707 1139h-244l-250 303h330z" />
    <glyph glyph-name="endash" unicode="&#x2013;" 
d="M1110 403h-1026v256h1026v-256z" />
    <glyph glyph-name="emdash" unicode="&#x2014;" horiz-adv-x="1898" 
d="M1815 403h-1731v256h1731v-256z" />
    <glyph glyph-name="quoteleft" unicode="&#x2018;" horiz-adv-x="512" 
d="M444 1446l-168 -301h162v-303h-356v293l162 311h200z" />
    <glyph glyph-name="quoteright" unicode="&#x2019;" horiz-adv-x="512" 
d="M430 1153l-162 -311h-200l168 301h-162v303h356v-293z" />
    <glyph glyph-name="quotesinglbase" unicode="&#x201a;" horiz-adv-x="512" 
d="M432 10l-162 -311h-198l168 301h-164v303h356v-293z" />
    <glyph glyph-name="quotedblleft" unicode="&#x201c;" horiz-adv-x="980" 
d="M897 1446l-168 -301h162v-303h-356v293l161 311h201zM444 1446l-168 -301h162v-303h-356v293l162 311h200z" />
    <glyph glyph-name="quotedblright" unicode="&#x201d;" horiz-adv-x="980" 
d="M899 1153l-162 -311h-200l168 301h-162v303h356v-293zM446 1153l-161 -311h-201l168 301h-162v303h356v-293z" />
    <glyph glyph-name="quotedblbase" unicode="&#x201e;" horiz-adv-x="980" 
d="M899 10l-162 -311h-200l168 301h-162v303h356v-293zM446 10l-161 -311h-201l168 301h-162v303h356v-293z" />
    <glyph glyph-name="dagger" unicode="&#x2020;" horiz-adv-x="1024" 
d="M997 883h-319v-883h-332v883h-317v215h317v348h332v-348h319v-215z" />
    <glyph glyph-name="daggerdbl" unicode="&#x2021;" horiz-adv-x="1024" 
d="M963 293h-289v-293h-324v293h-289v209h289v438h-289v209h289v297h324v-297h289v-209h-289v-438h289v-209z" />
    <glyph glyph-name="bullet" unicode="&#x2022;" horiz-adv-x="681" 
d="M590 471h-498v496h498v-496z" />
    <glyph glyph-name="ellipsis" unicode="&#x2026;" horiz-adv-x="2048" 
d="M1825 0h-236v231h236v-231zM1141 0h-234v231h234v-231zM457 0h-234v231h234v-231z" />
    <glyph glyph-name="perthousand" unicode="&#x2030;" horiz-adv-x="2750" 
d="M1978 420v65q0 232 90.5 331t270.5 99q88 0 149 -20.5t105 -69.5t65 -132t21 -206v-59q0 -106 -18 -184t-49.5 -126.5t-79.5 -78t-100.5 -40.5t-121.5 -11q-64 0 -111.5 9.5t-91 37.5t-70.5 75t-43 125t-16 185zM2441 469q0 72 -2 117t-8 89.5t-17.5 68.5t-31.5 38.5
t-49 14.5q-69 0 -94 -75.5t-25 -272.5q0 -106 4.5 -167.5t17.5 -102.5t34.5 -55.5t58.5 -14.5q73 0 92.5 72t19.5 288zM72 842v65q0 233 90 331.5t270 98.5q88 0 149 -20.5t105 -69.5t65 -132t21 -206v-59q0 -106 -18 -184t-49.5 -126.5t-79.5 -78t-100.5 -40.5t-121.5 -11
q-64 0 -111 9.5t-90.5 37.5t-70.5 75t-43 125t-16 185zM535 891q0 71 -2 117t-8 90t-18 68t-32 38.5t-49 14.5q-69 0 -94 -76t-25 -273q0 -106 4.5 -167.5t17.5 -102.5t34.5 -55.5t58.5 -14.5q73 0 93 73t20 288zM1176 420v65q0 233 90 331.5t270 98.5q88 0 149 -20.5
t105 -69.5t65 -132t21 -206v-59q0 -106 -18 -184t-49.5 -126.5t-79.5 -78t-100.5 -40.5t-121.5 -11q-64 0 -111 9.5t-90.5 37.5t-70.5 75t-43 125t-16 185zM1638 469q0 72 -2 117t-8 89.5t-17.5 68.5t-31.5 38.5t-49 14.5q-69 0 -94 -75.5t-25 -272.5q0 -106 4.5 -167.5
t17.5 -102.5t34.5 -55.5t58.5 -14.5q73 0 92.5 72t19.5 288zM1372 1327l-633 -1327h-168l639 1327h162z" />
    <glyph glyph-name="guilsinglleft" unicode="&#x2039;" horiz-adv-x="555" 
d="M539 117h-279l-231 411l231 412h279l-238 -412z" />
    <glyph glyph-name="guilsinglright" unicode="&#x203a;" horiz-adv-x="555" 
d="M528 528l-231 -411h-279l238 411l-238 412h279z" />
    <glyph glyph-name="fraction" unicode="&#x2044;" horiz-adv-x="256" 
d="M528 1327l-632 -1327h-168l639 1327h161z" />
    <glyph glyph-name="zero.superior" unicode="&#x2070;" horiz-adv-x="845" 
d="M72 1323v66q0 233 90 331.5t270 98.5q88 0 149 -20.5t105 -69.5t65 -132t21 -206v-60q0 -106 -18 -184t-49.5 -126.5t-79.5 -78t-100.5 -40.5t-121.5 -11q-64 0 -111 9.5t-90.5 37.5t-70.5 75t-43 125t-16 185zM535 1372q0 71 -2 117t-8 90t-18 68t-32 38.5t-49 14.5
q-69 0 -94 -75.5t-25 -272.5q0 -106 4.5 -167.5t17.5 -102.5t34.5 -55.5t58.5 -14.5q73 0 93 72.5t20 287.5z" />
    <glyph glyph-name="four.superior" unicode="&#x2074;" horiz-adv-x="845" 
d="M780 1077h-96v-174h-217v174h-418v131q157 316 281 600h243q-160 -318 -292 -567h194v307h209v-307h96v-164z" />
    <glyph glyph-name="five.superior" unicode="&#x2075;" horiz-adv-x="845" 
d="M748 1642h-420q-4 -55 -9 -188q22 20 70.5 38.5t120.5 18.5q135 0 205.5 -77.5t70.5 -221.5q0 -157 -95 -239t-275 -82q-338 0 -338 244v26h241v-22q0 -62 27.5 -95.5t79.5 -33.5q60 0 89.5 45t29.5 151q0 84 -26 127t-93 43q-34 0 -65 -21.5t-42 -66.5h-215l23 520h621
v-166z" />
    <glyph glyph-name="six.superior" unicode="&#x2076;" horiz-adv-x="845" 
d="M762 1565h-219q0 42 -10.5 71t-28 41.5t-33 17.5t-31.5 5q-74 0 -100.5 -71t-26.5 -214q82 68 199 68q134 0 201 -75t67 -204q0 -313 -352 -313q-199 0 -276.5 91.5t-77.5 313.5v45q0 61 2 104.5t11 97t24 90.5t42.5 74.5t66.5 60.5t96 37t130 14q145 0 230.5 -59
t85.5 -171v-24zM317 1182q0 -90 30 -132t81 -42q55 0 84 39t29 135q0 93 -24 135.5t-87 42.5q-113 0 -113 -178z" />
    <glyph glyph-name="seven.superior" unicode="&#x2077;" horiz-adv-x="845" 
d="M397 903h-266q183 334 383 731h-442v174h696v-172q-22 -44 -72.5 -146t-81 -163.5t-90 -177.5t-127.5 -246z" />
    <glyph glyph-name="eight.superior" unicode="&#x2078;" horiz-adv-x="845" 
d="M285 1380q-195 24 -195 197q0 123 88 182.5t246 59.5q332 0 332 -226q0 -80 -44 -137.5t-139 -75.5q205 -20 205 -221q0 -268 -358 -268q-350 0 -350 256q0 94 54 159t161 74zM541 1161q0 88 -28 125t-87 37q-119 0 -119 -160q0 -86 30.5 -120.5t86.5 -34.5q61 0 89 35.5
t28 117.5zM319 1573q0 -135 101 -135q52 0 78 30.5t26 102.5q0 75 -27 103t-75 28q-44 0 -73.5 -30.5t-29.5 -98.5z" />
    <glyph glyph-name="nine.superior" unicode="&#x2079;" horiz-adv-x="845" 
d="M66 1147h235q3 -76 28 -106.5t74 -30.5q32 0 54.5 12.5t35.5 32.5t21 58.5t11 77t5 101.5q-78 -63 -198 -63q-105 0 -176 57q-42 35 -65 86.5t-23 143.5q0 303 360 303q181 0 262.5 -89t81.5 -307q0 -203 -24.5 -302t-98.5 -158q-95 -72 -252 -72q-249 0 -313 135
q-18 41 -18 121zM528 1526q0 178 -108 178q-61 0 -88 -47t-27 -148q0 -161 105 -161q49 0 83.5 39.5t34.5 138.5z" />
    <glyph glyph-name="parenleft.superior" unicode="&#x207d;" horiz-adv-x="581" 
d="M561 1888v-127h-22q-47 0 -83.5 -12.5t-60.5 -31.5t-41.5 -52.5t-26.5 -65t-14.5 -79.5t-6.5 -85.5t-1 -93.5v-133q0 -45 1.5 -79.5t7.5 -75t16.5 -70.5t28.5 -59t42.5 -47t61 -29.5t82.5 -11.5h16v-129h-45q-245 0 -344 147q-86 134 -86 408q0 223 24.5 337.5
t100.5 188.5q105 100 309 100h41z" />
    <glyph glyph-name="parenright.superior" unicode="&#x207e;" horiz-adv-x="581" 
d="M16 707v129h23q46 0 82 12t60.5 31t41.5 51.5t26 63.5t14 79t6 85t1 93v135q0 66 -3.5 112.5t-17.5 99.5t-38.5 86t-69.5 55t-108 22h-17v127h45q248 0 345 -147q86 -134 86 -408q0 -223 -25.5 -336.5t-104.5 -189.5q-58 -57 -133 -78.5t-172 -21.5h-41z" />
    <glyph glyph-name="zero.inferior" unicode="&#x2080;" horiz-adv-x="845" 
d="M72 59v66q0 233 90 331.5t270 98.5q88 0 149 -20.5t105 -69.5t65 -132t21 -206v-59q0 -106 -18 -184t-49.5 -127t-79.5 -78.5t-100.5 -40.5t-121.5 -11q-64 0 -111 9.5t-90.5 37.5t-70.5 75t-43 125t-16 185zM535 109q0 89 -3.5 142.5t-14.5 99.5t-33 65.5t-58 19.5
q-69 0 -94 -75.5t-25 -272.5q0 -106 4.5 -167.5t17.5 -102.5t34.5 -55.5t58.5 -14.5q73 0 93 73t20 288z" />
    <glyph glyph-name="one.inferior" unicode="&#x2081;" horiz-adv-x="845" 
d="M334 338h-191v145q252 23 435 82v-925h-244v698z" />
    <glyph glyph-name="two.inferior" unicode="&#x2082;" horiz-adv-x="845" 
d="M764 -360h-703v131l158 135q52 45 79 68.5t70 64.5t66 69.5t48 65.5t35.5 72t10.5 71q0 27 -8.5 48t-20 32t-27.5 18t-28 9t-24 2q-42 0 -69.5 -18t-37.5 -47.5t-13 -46.5t-3 -35v-31h-234v18q0 131 89.5 210t293.5 79q166 0 246 -68.5t80 -183.5q0 -64 -24 -122.5
t-73.5 -114t-96 -96t-119.5 -95.5l-84 -63q364 6 389 6v-178z" />
    <glyph glyph-name="three.inferior" unicode="&#x2083;" horiz-adv-x="845" 
d="M72 -84h227v-25q0 -15 1.5 -28.5t8.5 -34.5t18.5 -36t35.5 -26.5t57 -11.5q65 0 94 41t29 94q0 93 -37 124.5t-141 31.5h-72v129h69q88 0 127 32.5t39 112.5q0 117 -104 117q-113 0 -113 -137v-35h-219v27q0 62 21 109.5t54 76.5t80.5 47t94 24.5t100.5 6.5
q320 0 320 -231q0 -47 -16.5 -83.5t-37.5 -57t-55 -36t-55 -21t-51 -11.5q24 -3 37 -4.5t42 -8.5t47 -15.5t41.5 -25t37.5 -38t24 -54.5t10 -73q0 -269 -374 -269q-58 0 -102 5t-91 22t-77.5 45.5t-50 78.5t-19.5 118v20z" />
    <glyph glyph-name="four.inferior" unicode="&#x2084;" horiz-adv-x="845" 
d="M780 -186h-96v-174h-217v174h-418v131q157 316 281 600h243q-169 -336 -292 -568h194v308h209v-308h96v-163z" />
    <glyph glyph-name="five.inferior" unicode="&#x2085;" horiz-adv-x="845" 
d="M748 379h-420q-4 -55 -9 -189q23 21 71.5 39.5t119.5 18.5q135 0 205.5 -77.5t70.5 -221.5q0 -157 -95 -239.5t-275 -82.5q-338 0 -338 244v27h241v-23q0 -62 27.5 -95.5t79.5 -33.5q60 0 89.5 45.5t29.5 151.5q0 84 -26 127t-93 43q-34 0 -65 -21.5t-42 -66.5h-215
l23 520h621v-166z" />
    <glyph glyph-name="six.inferior" unicode="&#x2086;" horiz-adv-x="845" 
d="M762 301h-219q0 42 -10.5 71t-28 41.5t-33 17.5t-31.5 5q-74 0 -100.5 -70.5t-26.5 -213.5q81 67 199 67q135 0 201.5 -74.5t66.5 -203.5q0 -92 -30.5 -157t-84 -97.5t-110.5 -46t-127 -13.5q-199 0 -276.5 91.5t-77.5 314.5v45q0 61 2 104.5t11 97t24 90t42.5 74.5
t66.5 60.5t96 36.5t130 14q146 0 231 -58.5t85 -170.5v-25zM317 -82q0 -90 30 -132t81 -42q55 0 84 39t29 135q0 93 -24 135.5t-87 42.5q-113 0 -113 -178z" />
    <glyph glyph-name="seven.inferior" unicode="&#x2087;" horiz-adv-x="845" 
d="M397 -360h-266q183 334 383 731h-442v174h696v-172q-22 -44 -72.5 -146t-81 -163.5t-90 -177.5t-127.5 -246z" />
    <glyph glyph-name="eight.inferior" unicode="&#x2088;" horiz-adv-x="845" 
d="M285 117q-195 24 -195 196q0 123 88 182.5t246 59.5q332 0 332 -225q0 -80 -44 -137.5t-139 -75.5q205 -20 205 -221q0 -140 -95 -204.5t-263 -64.5q-350 0 -350 256q0 94 54 159.5t161 74.5zM541 -102q0 88 -28 124.5t-87 36.5q-119 0 -119 -159q0 -87 30.5 -121.5
t86.5 -34.5q61 0 89 36t28 118zM319 309q0 -135 101 -135q52 0 78 30.5t26 102.5q0 75 -27 103t-75 28q-44 0 -73.5 -30.5t-29.5 -98.5z" />
    <glyph glyph-name="nine.inferior" unicode="&#x2089;" horiz-adv-x="845" 
d="M66 -117h235q3 -76 28 -106.5t74 -30.5q32 0 54.5 12.5t35.5 32.5t21 59t11 77.5t5 101.5q-79 -64 -198 -64q-43 0 -91.5 14.5t-84.5 43.5q-43 36 -65.5 86.5t-22.5 142.5q0 303 360 303q182 0 263 -88.5t81 -306.5q0 -204 -24.5 -303t-98.5 -158q-95 -72 -252 -72
q-249 0 -313 135q-18 41 -18 121zM528 262q0 178 -108 178q-61 0 -88 -46.5t-27 -147.5q0 -162 105 -162q49 0 83.5 39.5t34.5 138.5z" />
    <glyph glyph-name="parenleft.inferior" unicode="&#x208d;" horiz-adv-x="581" 
d="M561 625v-127h-22q-47 0 -83.5 -12.5t-60.5 -31.5t-41.5 -52.5t-26.5 -65t-14.5 -79.5t-6.5 -85.5t-1 -93.5v-133q0 -45 1.5 -79.5t7.5 -75.5t16.5 -70.5t28.5 -59t42.5 -47.5t61 -29.5t82.5 -11.5h16v-129h-45q-245 0 -344 147q-86 134 -86 408q0 223 24.5 337.5
t100.5 188.5q106 101 309 101h41z" />
    <glyph glyph-name="parenright.inferior" unicode="&#x208e;" horiz-adv-x="581" 
d="M16 -557v129h23q46 0 82 12t60.5 31t41.5 52t26 64t14 79t6 85t1 93v135q0 66 -3.5 112.5t-17.5 99.5t-38.5 86t-69.5 55t-108 22h-17v127h45q248 0 345 -148q86 -134 86 -407q0 -223 -25.5 -337t-104.5 -190q-58 -57 -133 -78.5t-172 -21.5h-41z" />
    <glyph glyph-name="Euro" unicode="&#x20ac;" horiz-adv-x="1257" 
d="M1186 1264v-246q-63 58 -150.5 91.5t-175.5 33.5q-146 0 -221 -64t-90 -190h516v-156h-530q-3 -40 -3 -67q0 -32 3 -66h530v-156h-520q5 -72 30 -123.5t67.5 -79.5t93 -40.5t114.5 -12.5q193 0 336 125v-262q-69 -32 -166 -50.5t-180 -18.5q-109 0 -195 13.5t-161 46
t-128.5 85t-90.5 132t-54 185.5h-156v156h146q0 100 2 133h-148v156h162q51 244 205.5 349t419.5 105q195 0 344 -79z" />
    <glyph glyph-name="afii61289" unicode="&#x2113;" horiz-adv-x="1167" 
d="M557 444v-43q0 -219 156 -219q66 0 121 35t118 117l154 -121q-99 -125 -209 -179t-254 -54q-349 0 -389 313l-111 -70l-57 213l160 101v350q0 239 100 347.5t303 108.5q169 0 264 -81t95 -224q0 -101 -37 -178.5t-129 -171.5q-66 -66 -123 -115t-162 -129zM557 700
q201 189 201 338q0 119 -90 119q-60 0 -85.5 -42t-25.5 -167v-248z" />
    <glyph glyph-name="afii61352" unicode="&#x2116;" horiz-adv-x="2199" 
d="M1284 0h-407l-437 893v-893h-307v1327h406l438 -893v893h307v-1327zM1767 641q-196 0 -274 85t-78 261q0 180 83 268t276 88q350 0 350 -331q0 -84 -16 -147.5t-55 -116t-110.5 -80t-175.5 -27.5zM1892 1018q0 109 -27.5 160t-95.5 51q-65 0 -93.5 -56t-28.5 -188
q0 -120 24 -174.5t98 -54.5q67 0 95 58t28 204zM1427 539h684v-197h-684v197z" />
    <glyph glyph-name="trademark" unicode="&#x2122;" horiz-adv-x="1513" 
d="M1405 768h-162l-2 553l-158 -553h-129q-153 520 -157 547q-4 -504 -4 -547h-160l8 678h258l121 -436l123 436h258zM588 1333h-176v-567h-191v567h-176v113h543v-113z" />
    <glyph glyph-name="Omega" unicode="&#x2126;" horiz-adv-x="1560" 
d="M1473 0h-611v236q115 65 169 196.5t54 335.5q0 217 -79 338t-220 121q-146 0 -228.5 -121.5t-82.5 -335.5q0 -76 3.5 -132t17 -121.5t37.5 -114t66 -94t101 -75.5v-233h-614v229h356q-157 80 -239 226t-82 348q0 307 181.5 493.5t479.5 186.5q152 0 276.5 -48.5
t205.5 -133t124.5 -197t43.5 -242.5q0 -92 -19 -183.5t-57 -177t-101.5 -157t-144.5 -113.5h363v-231z" />
    <glyph glyph-name="estimated" unicode="&#x212e;" horiz-adv-x="1638" 
d="M1597 563h-1183q9 -191 112.5 -287t296.5 -96q145 0 241 55t153 181l364 -8q-147 -428 -758 -428q-371 0 -574.5 177.5t-203.5 499.5q0 320 208 503t572 183q474 0 662 -296q64 -102 85.5 -199.5t24.5 -284.5zM418 793h801q-13 186 -108 276t-277 90q-184 0 -290 -93.5
t-126 -272.5z" />
    <glyph glyph-name="onethird" unicode="&#x2153;" horiz-adv-x="1947" 
d="M580 422h-244v698h-191v146q252 23 435 82v-926zM1092 276h227v-24q0 -15 1.5 -28.5t8.5 -34.5t18.5 -36t35.5 -26.5t57 -11.5q65 0 94 41t29 94q0 93 -37.5 124.5t-141.5 31.5h-71v129h69q88 0 127 32.5t39 112.5q0 117 -104 117q-113 0 -113 -138v-34h-219v26
q0 62 21 109.5t54 76.5t80.5 47t94 24.5t100.5 6.5q320 0 320 -231q0 -47 -16.5 -83.5t-37.5 -57t-55 -36t-55 -21t-51 -11.5q24 -3 37 -4.5t42 -8.5t47 -15.5t41.5 -25t37.5 -38t24 -54.5t10 -73q0 -268 -374 -268q-58 0 -102 5t-91 21.5t-77.5 45t-50 78.5t-19.5 118v20z
M1305 1327l-633 -1327h-168l639 1327h162z" />
    <glyph glyph-name="twothirds" unicode="&#x2154;" horiz-adv-x="1947" 
d="M1178 276h227v-24q0 -15 1.5 -28.5t8.5 -34.5t18.5 -36t35.5 -26.5t57 -11.5q65 0 94 41t29 94q0 93 -37.5 124.5t-141.5 31.5h-71v129h69q88 0 127 32.5t39 112.5q0 117 -104 117q-113 0 -113 -138v-34h-219v26q0 62 21 109.5t54 76.5t80.5 47t94 24.5t100.5 6.5
q320 0 320 -231q0 -47 -16.5 -83.5t-37.5 -57t-55 -36t-55 -21t-51 -11.5q24 -3 37 -4.5t42 -8.5t47 -15.5t41.5 -25t37.5 -38t24 -54.5t10 -73q0 -268 -374 -268q-58 0 -102 5t-91 21.5t-77.5 45t-50 78.5t-19.5 118v20zM754 422h-703v131l158 135q62 53 94.5 82t80.5 77.5
t72.5 84t43 80.5t18.5 88q0 34 -11.5 57t-30.5 33t-34.5 14t-31.5 4q-42 0 -69.5 -18t-37.5 -47.5t-13 -46.5t-3 -35v-31h-234v19q0 131 89.5 209.5t293.5 78.5q166 0 246 -68.5t80 -183.5q0 -64 -24 -122.5t-73.5 -114t-96 -96t-119.5 -95.5l-84 -63q364 6 389 6v-178z
M1401 1327l-633 -1327h-168l639 1327h162z" />
    <glyph glyph-name="oneeighth" unicode="&#x215b;" horiz-adv-x="1947" 
d="M549 422h-244v698h-190v146q251 23 434 82v-926zM1321 477q-195 24 -195 197q0 123 87.5 182t246.5 59q332 0 332 -225q0 -80 -43.5 -137.5t-138.5 -75.5q205 -20 205 -221q0 -140 -95.5 -204t-263.5 -64q-350 0 -350 256q0 94 54 159t161 74zM1577 258q0 88 -28 125
t-87 37q-119 0 -119 -160q0 -87 30.5 -121.5t86.5 -34.5q61 0 89 36t28 118zM1356 670q0 -135 100 -135q52 0 78.5 30.5t26.5 102.5q0 75 -27.5 103t-75.5 28q-44 0 -73 -30.5t-29 -98.5zM1286 1327l-633 -1327h-168l639 1327h162z" />
    <glyph glyph-name="threeeighths" unicode="&#x215c;" horiz-adv-x="1947" 
d="M1378 477q-194 24 -194 197q0 123 87.5 182t246.5 59q331 0 331 -225q0 -80 -43.5 -137.5t-138.5 -75.5q205 -20 205 -221q0 -140 -95.5 -204t-263.5 -64q-350 0 -350 256q0 94 54 159t161 74zM1634 258q0 88 -27.5 125t-86.5 37q-119 0 -119 -160q0 -87 30.5 -121.5
t86.5 -34.5q61 0 88.5 36t27.5 118zM1413 670q0 -135 100 -135q52 0 78.5 30.5t26.5 102.5q0 75 -27 103t-75 28q-44 0 -73.5 -30.5t-29.5 -98.5zM59 698h228v-24q0 -15 1.5 -28.5t8.5 -34.5t18.5 -36t35.5 -26.5t57 -11.5q65 0 93.5 41t28.5 94q0 93 -37 124t-141 31h-71
v129h69q88 0 127 33t39 113q0 117 -104 117q-113 0 -113 -138v-34h-219v26q0 62 21 109.5t54 76.5t80.5 47t94 24.5t100.5 6.5q320 0 320 -231q0 -47 -16.5 -83.5t-37.5 -57t-55 -36t-55 -21t-51 -11.5q24 -3 37 -4.5t42 -8.5t47 -15.5t41.5 -25t37.5 -38t24 -54.5t10 -73
q0 -268 -375 -268q-58 0 -102 5t-91 21.5t-77.5 45t-50 78.5t-19.5 118v20zM1372 1327l-633 -1327h-168l639 1327h162z" />
    <glyph glyph-name="fiveeighths" unicode="&#x215d;" horiz-adv-x="1947" 
d="M1382 477q-194 24 -194 197q0 123 87.5 182t246.5 59q331 0 331 -225q0 -80 -43.5 -137.5t-138.5 -75.5q205 -20 205 -221q0 -268 -358 -268q-351 0 -351 256q0 94 54 159t161 74zM1638 258q0 88 -27.5 125t-86.5 37q-119 0 -119 -160q0 -87 30.5 -121.5t86.5 -34.5
q61 0 88.5 36t27.5 118zM1417 670q0 -135 101 -135q52 0 78 30.5t26 102.5q0 75 -27 103t-75 28q-44 0 -73.5 -30.5t-29.5 -98.5zM762 1161h-420q-3 -32 -8 -188q23 20 70.5 38.5t119.5 18.5q135 0 206 -77.5t71 -221.5q0 -157 -95.5 -239t-275.5 -82q-338 0 -338 243v27
h242v-23q0 -62 27 -95.5t79 -33.5q60 0 89.5 45.5t29.5 151.5q0 84 -26 127t-93 43q-34 0 -64.5 -21.5t-41.5 -66.5h-215l22 520h621v-166zM1384 1327l-632 -1327h-168l639 1327h161z" />
    <glyph glyph-name="seveneighths" unicode="&#x215e;" horiz-adv-x="1947" 
d="M1335 477q-194 24 -194 197q0 123 87.5 182t246.5 59q331 0 331 -225q0 -80 -43.5 -137.5t-138.5 -75.5q205 -20 205 -221q0 -140 -95.5 -204t-263.5 -64q-350 0 -350 256q0 94 54 159t161 74zM1591 258q0 88 -27.5 125t-86.5 37q-119 0 -119 -160q0 -87 30.5 -121.5
t86.5 -34.5q61 0 88.5 36t27.5 118zM1370 670q0 -135 100 -135q52 0 78.5 30.5t26.5 102.5q0 75 -27 103t-75 28q-44 0 -73.5 -30.5t-29.5 -98.5zM453 422h-267q183 334 383 731h-442v174h696v-172q-15 -31 -88 -179t-133.5 -267t-148.5 -287zM1309 1327l-633 -1327h-168
l639 1327h162z" />
    <glyph glyph-name="partialdiff" unicode="&#x2202;" horiz-adv-x="1148" 
d="M315 1200l-30 230q143 45 282 45q250 0 368 -171t118 -534q0 -404 -132 -600.5t-401 -196.5q-204 0 -328 122t-124 323q0 212 122 345.5t314 133.5q138 0 250 -86v20q0 207 -63 305.5t-195 98.5q-67 0 -181 -35zM729 578q-83 92 -186 92q-83 0 -132 -66.5t-49 -179.5
q0 -104 47.5 -165.5t127.5 -61.5q97 0 143 91.5t49 289.5z" />
    <glyph glyph-name="Delta" unicode="&#x2206;" horiz-adv-x="1452" 
d="M1454 0h-1456l555 1446h354zM993 250l-278 846l-281 -846h559z" />
    <glyph glyph-name="product" unicode="&#x220f;" horiz-adv-x="1419" 
d="M1307 -250h-351v1458h-493v-1458h-348v1696h1192v-1696z" />
    <glyph glyph-name="summation" unicode="&#x2211;" horiz-adv-x="1236" 
d="M1190 -250h-1135v236l492 620l-492 598v242h1135v-238h-729l504 -592l-523 -628h748v-238z" />
    <glyph glyph-name="minus" unicode="&#x2212;" horiz-adv-x="1482" 
d="M1294 498h-1108v243h1108v-243z" />
    <glyph glyph-name="uni2215" unicode="&#x2215;" horiz-adv-x="256" 
d="M528 1327l-632 -1327h-168l639 1327h161z" />
    <glyph glyph-name="uni2219" unicode="&#x2219;" horiz-adv-x="512" 
d="M430 375h-348v303h348v-303z" />
    <glyph glyph-name="radical" unicode="&#x221a;" horiz-adv-x="1482" 
d="M1382 1446l-516 -1825h-313l-225 531l-148 -60l-106 268l422 166l198 -506l365 1426h323z" />
    <glyph glyph-name="infinity" unicode="&#x221e;" horiz-adv-x="1482" 
d="M745 848q88 126 163 179.5t175 53.5q148 0 242 -119t94 -305q0 -194 -97 -318t-249 -124q-103 0 -178 49.5t-164 175.5l-14 -20q-77 -111 -151 -158t-167 -47q-152 0 -244 116.5t-92 309.5q0 189 99 313.5t248 124.5q106 0 181 -53.5t154 -177.5zM885 643
q60 -100 103 -141t87 -41q54 0 87.5 50t33.5 130q0 78 -33 129t-84 51q-41 0 -86.5 -42t-107.5 -136zM600 643q-59 98 -102.5 140t-87.5 42q-53 0 -86 -50.5t-33 -129.5t32.5 -129.5t84.5 -50.5q41 0 85.5 41.5t106.5 136.5z" />
    <glyph glyph-name="integral" unicode="&#x222b;" horiz-adv-x="776" 
d="M719 1438l-2 -242q-54 43 -99 43q-27 0 -42 -8.5t-26 -43.5t-11 -100v-1056q0 -195 -43 -264q-77 -127 -279 -127q-82 0 -168 30v242q38 -24 56.5 -31.5t41.5 -7.5q41 0 57.5 25.5t16.5 81.5v1120q0 92 13 154.5t47.5 113.5t100 75.5t165.5 24.5q90 0 172 -30z" />
    <glyph glyph-name="approxequal" unicode="&#x2248;" horiz-adv-x="1482" 
d="M1245 1100l92 -232q-88 -110 -168.5 -157t-167.5 -47q-47 0 -98 17t-149 62l-74 35q-130 62 -213 62q-57 0 -105 -32t-122 -130l-95 235q81 111 154.5 158t171.5 47q54 0 106 -16t148 -60l111 -51q68 -32 99 -41.5t62 -9.5q64 0 117.5 34t130.5 126zM1245 616l92 -231
q-89 -111 -168.5 -157t-167.5 -46q-48 0 -99.5 16.5t-147.5 61.5l-74 35q-132 63 -211 63q-61 0 -107 -31.5t-122 -131.5l-95 235q82 113 154.5 159t171.5 46q54 0 106.5 -16.5t147.5 -59.5l111 -51q68 -31 99.5 -41t61.5 -10q64 0 117 34t131 125z" />
    <glyph glyph-name="notequal" unicode="&#x2260;" horiz-adv-x="1482" 
d="M1280 276h-590l-141 -288h-230l144 288h-260v254h383l92 189h-475v254h602l133 270h227l-131 -270h246v-254h-375l-92 -189h467v-254z" />
    <glyph glyph-name="lessequal" unicode="&#x2264;" horiz-adv-x="1482" 
d="M1208 319l-952 437v270l952 406v-269l-659 -268l659 -274v-302zM1208 0h-952v254h952v-254z" />
    <glyph glyph-name="greaterequal" unicode="&#x2265;" horiz-adv-x="1482" 
d="M1227 725l-953 -406v271l660 266l-660 277v299l953 -437v-270zM1227 0h-953v254h953v-254z" />
    <glyph glyph-name="lozenge" unicode="&#x25ca;" horiz-adv-x="1482" 
d="M1268 723l-387 -723h-279l-389 723l395 723h279zM973 717l-236 485l-225 -461l240 -481z" />
    <glyph glyph-name="uniF6C1" unicode="&#xf6c1;" horiz-adv-x="1280" 
d="M1180 1075v-20q-258 4 -326 4q0 36 -4 65t-16.5 60.5t-33.5 52.5t-58 35t-87 14q-58 0 -101 -18.5t-64 -47t-30 -55t-9 -51.5q0 -41 18 -73t55 -55t71 -37t87 -31l119 -37q105 -33 177.5 -70t126.5 -88.5t79.5 -121t25.5 -161.5q0 -102 -31 -183t-83 -134t-124 -88.5
t-150.5 -50.5t-166.5 -15h-14l-2 -53h45q94 0 154.5 -55t60.5 -150q0 -66 -22 -111t-64.5 -68t-93 -32.5t-119.5 -9.5q-73 0 -102 2v146q47 -7 88 -7q26 0 42.5 1.5t42.5 8t40 24t14 44.5q0 26 -12 43t-34.5 23.5t-39 8t-41.5 1.5h-74l8 190q-243 20 -358 126.5t-115 301.5
v33q144 -4 353 -4v-16q0 -254 233 -254q57 0 100 17.5t65 41t35 55t16 52.5t3 41q0 32 -6 56t-21 44t-32 34t-48 28.5t-59 25t-75 25.5l-95 30q-71 23 -122.5 43t-103 47.5t-85.5 58.5t-61.5 71.5t-40.5 92.5t-13 115q0 218 148 327.5t412 109.5q269 0 393.5 -97t124.5 -305
z" />
    <glyph glyph-name="uniF6C2" unicode="&#xf6c2;" horiz-adv-x="1024" 
d="M944 760v-17q-219 5 -287 7v12q0 23 -5 43.5t-18 44.5t-43.5 38.5t-74.5 14.5q-57 0 -98 -28.5t-41 -83.5q0 -94 176 -134l96 -22q56 -13 97 -27.5t84.5 -39.5t70.5 -57.5t44.5 -82.5t17.5 -113q0 -172 -119 -255.5t-328 -86.5l-2 -57h45q94 0 154.5 -55t60.5 -150
q0 -66 -22 -111t-64.5 -68t-93 -32.5t-119.5 -9.5q-73 0 -102 2v146q47 -7 88 -7q26 0 42.5 1.5t42.5 8t40 24t14 44.5q0 26 -12 43t-34.5 23.5t-39 8t-41.5 1.5h-74l9 192q-353 23 -353 295l2 35l305 -6v-18q0 -156 168 -156q62 0 102 31.5t40 93.5q0 29 -11 51.5t-25 35.5
t-41 24.5t-43 15.5l-48 12l-131 33q-31 8 -49.5 13.5t-53.5 18.5t-57 26.5t-50 37t-44 50t-27.5 65.5t-11.5 84q0 160 112 246t322 86q72 0 131 -7t116.5 -26.5t96 -51t62.5 -84t24 -122.5z" />
    <glyph glyph-name="acute.cap" horiz-adv-x="555" 
d="M551 1851l-301 -303h-246l205 303h342z" />
    <glyph glyph-name="breve.cap" horiz-adv-x="555" 
d="M395 1843h168q0 -59 -15 -107t-36.5 -78t-52 -52t-57 -33t-57.5 -17t-46 -7t-29 -1q-38 0 -72.5 6t-73.5 25.5t-67 50.5t-46.5 86t-18.5 127h168v-18q0 -16 1.5 -30.5t8.5 -35.5t19 -36t34.5 -26t52.5 -11q39 0 65.5 18.5t37 47t13.5 47.5t3 36v8z" />
    <glyph glyph-name="caron.cap" horiz-adv-x="555" 
d="M586 1851l-170 -303h-266l-181 303h209l103 -190l104 190h201z" />
    <glyph glyph-name="cedilla.cap" horiz-adv-x="555" 
d="M115 41h108l-6 -125h45q94 0 154.5 -55t60.5 -150q0 -66 -22 -111t-64.5 -68t-93 -32.5t-119.5 -9.5q-73 0 -102 2v146q47 -7 88 -7q26 0 42.5 1.5t42.5 8t40 24t14 44.5q0 26 -12 43t-34.5 23.5t-39 8t-41.5 1.5h-74z" />
    <glyph glyph-name="circumflex.cap" horiz-adv-x="555" 
d="M586 1548h-209l-103 191l-104 -191h-201l172 303h267z" />
    <glyph glyph-name="commaaccent" horiz-adv-x="555" 
d="M414 -317l-135 -218h-140l142 209h-136v254h269v-245z" />
    <glyph glyph-name="dieresis.cap" horiz-adv-x="555" 
d="M586 1573h-238v256h238v-256zM209 1573h-238v256h238v-256z" />
    <glyph glyph-name="dotaccent.cap" horiz-adv-x="555" 
d="M395 1573h-237v256h237v-256z" />
    <glyph glyph-name="grave.cap" horiz-adv-x="555" 
d="M522 1548h-243l-248 303h329z" />
    <glyph glyph-name="hungarumlaut.cap" horiz-adv-x="555" 
d="M340 1851l-299 -303h-225l204 303h320zM739 1851l-299 -303h-225l205 303h319z" />
    <glyph glyph-name="macron.cap" horiz-adv-x="555" 
d="M610 1597h-665v177h665v-177z" />
    <glyph glyph-name="ring.cap" horiz-adv-x="555" 
d="M483 1753q0 -89 -60 -150t-149 -61q-85 0 -144.5 60t-59.5 145t61 147t145 62q89 0 148 -57t59 -146zM367 1745q0 42 -23.5 67t-64.5 25q-39 0 -65 -25t-26 -63q0 -40 24 -65t64 -25q38 0 64.5 24.5t26.5 61.5z" />
    <glyph glyph-name="tilde.cap" horiz-adv-x="555" 
d="M602 1845v-96q0 -102 -29 -153.5t-112 -51.5q-42 0 -80 17t-90 51l-74 49q-40 27 -59 27q-10 0 -16.5 -6.5t-9 -20t-3 -23t-0.5 -26.5v-56h-176v95q0 36 1 55.5t8 52t20 50.5t40 32t66 14q70 0 143 -49l76 -51q68 -47 84 -47q15 0 22 12.5t8 25.5t1 40v59h180z" />
    <glyph glyph-name="caron.alt" horiz-adv-x="555" 
d="M420 1178l-141 -271h-146l143 271h-143v268h287v-268z" />
    <glyph glyph-name="eth.sc" horiz-adv-x="1253" 
d="M117 643v420h436q172 0 254.5 -9.5t150.5 -35.5q120 -46 175 -157.5t55 -305.5q0 -173 -40 -286t-113.5 -171t-188.5 -80q-62 -12 -113.5 -15t-202.5 -3h-413v471h-117v172h117zM449 471v-287h81q184 0 252 76.5t68 280.5q0 96 -12 155t-45 101.5t-91.5 59.5t-152.5 17
h-100v-231h237v-172h-237z" />
    <glyph glyph-name="lslash.sc" horiz-adv-x="950" 
d="M451 221h473v-221h-807v293l-115 -74v178l115 76v590h334v-373l292 197v-176l-292 -195v-295z" />
    </font>
</defs>
</svg>
