<?xml version="1.0" standalone="no"?>
<!DOCTYPE svg PUBLIC "-//W3C//DTD SVG 1.1//EN" "http://www.w3.org/Graphics/SVG/1.1/DTD/svg11.dtd" >
<svg xmlns="http://www.w3.org/2000/svg" xmlns:xlink="http://www.w3.org/1999/xlink" version="1.1">
<metadata>
Created by FontForge 20190801 at Thu Apr 12 11:30:44 2007
 By root
(c) Copyright 2006, 2007 Berthold LLC. All Rights Reserved. This font software computer program is the property of Berthold. You may not reproduce, modify, adapt, translate, alter nor create derivative works of the font software. You may not reverse engineer, decompile, decrypt, disassemble, nor seek to discover the source code of the font software.
</metadata>
<defs>
<font id="ImagoPro-BookItalic" horiz-adv-x="271" >
  <font-face 
    font-family="Imago Pro Book"
    font-weight="400"
    font-style="italic"
    font-stretch="normal"
    units-per-em="1000"
    panose-1="2 11 5 0 6 0 0 2 0 4"
    ascent="750"
    descent="-250"
    x-height="500"
    cap-height="706"
    bbox="-150 -282 1118 998"
    underline-thickness="50"
    underline-position="-100"
    slope="-14"
    stemh="48"
    stemv="56"
    unicode-range="U+0020-FB02"
  />
<missing-glyph horiz-adv-x="500" 
d="M0 0v706h500v-706h-500zM250 401l170 255h-340zM280 353l170 -258v516zM80 50h340l-170 258zM50 611v-516l170 258z" />
    <glyph glyph-name="fi" unicode="fi" horiz-adv-x="523" 
d="M134 0h-86l117 452h-79l13 48h78l19 75c15 59 43 140 155 140c44 0 70 -12 86 -21l-14 -53c-20 9 -35 16 -57 16c-42 0 -69 -27 -90 -110l-12 -47h94l-12 -48h-95zM578 695l-22 -84h-85l22 84h85zM528 500l-130 -500h-85l130 500h85z" />
    <glyph glyph-name="fl" unicode="fl" horiz-adv-x="523" 
d="M136 0h-86l117 452h-79l13 48h78l19 75c15 59 43 140 155 140c44 0 70 -12 86 -21l-14 -53c-20 9 -35 16 -57 16c-42 0 -69 -27 -90 -110l-12 -47h94l-12 -48h-95zM581 706l-181 -706h-84l180 706h85z" />
    <glyph glyph-name=".notdef" horiz-adv-x="500" 
d="M0 0v706h500v-706h-500zM250 401l170 255h-340zM280 353l170 -258v516zM80 50h340l-170 258zM50 611v-516l170 258z" />
    <glyph glyph-name="space" unicode=" " 
 />
    <glyph glyph-name="exclam" unicode="!" horiz-adv-x="250" 
d="M306 648l-138 -485h-72l111 485h99zM162 91l-24 -91h-98l23 91h99z" />
    <glyph glyph-name="quotedbl" unicode="&#x22;" horiz-adv-x="321" 
d="M420 743l-99 -308h-32l41 308h90zM252 743l-98 -308h-32l41 308h89z" />
    <glyph glyph-name="numbersign" unicode="#" horiz-adv-x="667" 
d="M674 471l-12 -56h-166l-32 -110h162l-14 -55h-164l-76 -250h-55l75 250h-114l-75 -250h-58l75 250h-159l14 55h161l33 110h-159l14 56h161l70 235h59l-71 -235h112l72 235h56l-69 -235h160zM441 415h-114l-32 -110h113z" />
    <glyph glyph-name="dollar" unicode="$" horiz-adv-x="458" 
d="M115 -101l25 99c-63 9 -103 28 -126 41l17 64c61 -28 108 -48 180 -48c62 0 127 32 127 106c0 47 -25 76 -87 129l-35 30c-52 45 -111 95 -111 174c0 16 4 52 29 87c52 72 144 74 191 74l21 79h52l-22 -86c36 -8 66 -17 97 -34l-16 -60c-48 21 -100 43 -154 43
c-46 0 -112 -22 -112 -90c0 -49 44 -89 78 -118l47 -40c55 -47 112 -97 112 -175c0 -29 -7 -87 -66 -132c-62 -48 -138 -49 -167 -49l-25 -94h-55z" />
    <glyph glyph-name="percent" unicode="%" horiz-adv-x="792" 
d="M245 0h-54l411 648h53zM378 540c0 -62 -39 -246 -91 -300c-29 -30 -64 -40 -106 -40c-61 0 -118 27 -118 111c0 29 8 79 25 145c5 20 19 86 45 128c40 63 99 68 128 68c23 0 117 -2 117 -112zM315 552c0 48 -36 58 -55 58c-45 0 -64 -35 -74 -55
c-26 -51 -60 -200 -60 -250c0 -15 2 -63 56 -63c41 0 66 25 94 114c24 76 39 152 39 196zM782 334c0 -62 -39 -246 -91 -300c-29 -30 -64 -40 -106 -40c-61 0 -118 27 -118 111c0 29 8 79 25 145c5 20 19 86 45 128c40 63 99 68 128 68c23 0 117 -2 117 -112zM719 346
c0 48 -36 58 -55 58c-45 0 -64 -35 -74 -55c-26 -51 -60 -200 -60 -250c0 -15 2 -63 56 -63c41 0 66 25 94 114c24 76 39 152 39 196z" />
    <glyph glyph-name="ampersand" unicode="&#x26;" horiz-adv-x="673" 
d="M633 356l-20 -85c-17 -69 -31 -104 -90 -172l49 -99h-97l-21 44c-65 -38 -111 -53 -185 -53c-135 0 -221 76 -221 197c0 55 19 108 57 147c50 50 82 62 169 91c-25 47 -36 86 -36 129c0 97 73 162 181 162c94 0 151 -50 151 -132c0 -86 -52 -127 -193 -178l116 -245
c25 41 33 72 51 150l10 44h79zM359 446c85 29 134 69 134 136c0 52 -32 86 -79 86c-55 0 -92 -39 -92 -94c0 -39 12 -81 37 -128zM431 91l-138 291c-100 -38 -155 -85 -155 -178s66 -153 167 -153c46 0 75 10 126 40z" />
    <glyph glyph-name="quotesingle" unicode="'" horiz-adv-x="153" 
d="M252 743l-98 -308h-32l41 308h89z" />
    <glyph glyph-name="parenleft" unicode="(" horiz-adv-x="375" 
d="M510 706l-14 -54c-63 0 -141 -2 -195 -84c-30 -46 -64 -170 -76 -216c-35 -133 -55 -226 -55 -281c0 -124 78 -152 134 -162l-13 -50c-131 7 -198 88 -198 210c0 47 9 97 12 111c15 81 71 307 110 388c61 128 176 139 258 139c14 0 21 0 37 -1z" />
    <glyph glyph-name="parenright" unicode=")" horiz-adv-x="375" 
d="M-101 -140l14 53c63 0 141 2 195 84c30 46 64 170 76 216c35 133 55 226 55 281c0 124 -78 152 -134 162l13 50c131 -7 198 -88 198 -210c0 -47 -9 -97 -12 -111c-15 -81 -71 -307 -110 -388c-61 -128 -176 -139 -258 -139c-14 0 -24 1 -37 2z" />
    <glyph glyph-name="asterisk" unicode="*" horiz-adv-x="354" 
d="M426 564l-107 -29l80 -76l-43 -43l-75 81l-28 -109l-55 16l27 106l-106 -34l-17 59l110 29l-83 77l44 44l76 -81l28 108l56 -14l-28 -107l105 32z" />
    <glyph glyph-name="plus" unicode="+" horiz-adv-x="724" 
d="M663 338l-20 -75h-224l-59 -231h-88l59 231h-225l20 75h224l59 229h88l-59 -229h225z" />
    <glyph glyph-name="comma" unicode="," horiz-adv-x="208" 
d="M121 89l-23 -89l-89 -132h-55l89 132h-48l23 89h103z" />
    <glyph glyph-name="hyphen" unicode="-" horiz-adv-x="396" 
d="M363 291l-17 -65h-293l17 65h293z" />
    <glyph glyph-name="period" unicode="." horiz-adv-x="208" 
d="M119 92l-24 -92h-97l24 92h97z" />
    <glyph glyph-name="slash" unicode="/" horiz-adv-x="375" 
d="M480 706l-434 -706h-82l435 706h81z" />
    <glyph glyph-name="zero" unicode="0" horiz-adv-x="500" 
d="M49 154c0 77 44 253 66 319s71 182 219 182c146 0 173 -93 173 -158c0 -71 -27 -216 -72 -336c-36 -95 -86 -168 -216 -168c-44 0 -89 8 -123 37c-44 38 -47 95 -47 124zM133 145c0 -70 37 -100 87 -100c71 0 104 43 145 173c33 105 59 229 59 288c0 82 -58 95 -87 95
c-69 0 -99 -52 -115 -83c-38 -76 -89 -299 -89 -373z" />
    <glyph glyph-name="one" unicode="1" horiz-adv-x="500" 
d="M252 0h-87l140 564h-127l14 54c41 5 122 13 224 38z" />
    <glyph glyph-name="two" unicode="2" horiz-adv-x="500" 
d="M104 67h328l-18 -67h-428l18 69c46 45 115 103 176 153l73 60c111 91 172 141 172 224c0 72 -51 95 -102 95c-36 0 -88 -9 -119 -77c-9 -21 -17 -55 -23 -84h-86c14 88 44 215 232 215c59 0 187 -17 187 -152c0 -99 -76 -167 -169 -243l-43 -35
c-61 -50 -130 -101 -198 -158z" />
    <glyph glyph-name="three" unicode="3" horiz-adv-x="500" 
d="M169 308l14 56h57c46 0 100 5 134 41c27 28 37 71 37 110c0 14 -3 36 -19 55c-20 25 -42 32 -74 32c-94 0 -115 -81 -123 -108h-84c9 38 19 58 28 73c24 38 77 88 184 88c90 0 177 -38 177 -144c0 -83 -62 -167 -169 -180c51 -12 120 -41 120 -139
c0 -78 -45 -125 -66 -144c-61 -54 -135 -55 -167 -55c-159 0 -199 83 -199 161c0 3 0 15 2 24h84v-14c0 -29 4 -55 26 -79c24 -27 56 -36 91 -36c109 0 140 84 140 148c0 109 -101 111 -165 111h-28z" />
    <glyph glyph-name="four" unicode="4" horiz-adv-x="500" 
d="M471 211l-17 -65h-72l-38 -146h-83l37 146h-278l13 49c56 79 109 159 162 240c46 70 91 141 135 213h98c-53 -82 -106 -163 -161 -244c-44 -65 -89 -130 -136 -193h184l61 236l85 6l-62 -242h72z" />
    <glyph glyph-name="five" unicode="5" horiz-adv-x="500" 
d="M505 578h-270l-53 -181c21 16 58 39 121 39c33 0 161 -8 161 -166c0 -37 -8 -278 -254 -278c-142 0 -176 81 -176 143c0 0 1 25 2 34h81v-14c0 -16 1 -39 6 -51c9 -21 33 -57 91 -57c14 0 52 3 83 26c57 42 80 142 80 206c0 24 -9 101 -98 101c-56 0 -98 -31 -124 -85
h-73l102 353h338z" />
    <glyph glyph-name="six" unicode="6" horiz-adv-x="500" 
d="M538 485h-85c1 10 2 22 2 30c0 40 -19 87 -99 87c-117 0 -147 -112 -183 -241c22 18 61 49 137 49c97 0 159 -54 159 -148c0 -50 -18 -130 -46 -175c-51 -84 -131 -94 -187 -94c-119 0 -185 56 -185 169c0 79 39 215 48 246c57 194 140 247 259 247
c65 0 182 -18 182 -141c0 -10 -1 -18 -2 -29zM384 260c0 69 -46 99 -101 99c-140 0 -150 -174 -150 -203c0 -88 52 -111 101 -111c47 0 79 19 103 52c25 35 47 106 47 163z" />
    <glyph glyph-name="seven" unicode="7" horiz-adv-x="500" 
d="M159 0h-101c60 95 120 189 179 285c60 97 119 195 178 294h-332l18 69h425l-16 -62c-116 -196 -234 -391 -351 -586z" />
    <glyph glyph-name="eight" unicode="8" horiz-adv-x="500" 
d="M356 339c90 -18 103 -78 103 -124s-16 -104 -43 -141c-57 -78 -149 -81 -185 -81c-126 0 -197 54 -197 157c0 71 32 137 78 170c37 27 71 30 97 31c-29 8 -89 23 -89 114c0 67 41 190 207 190c146 0 186 -68 186 -138c0 -109 -76 -174 -157 -178zM203 457
c0 -55 30 -86 93 -86c33 0 75 3 105 47c17 26 30 73 30 104c0 71 -63 85 -96 85c-120 0 -132 -124 -132 -150zM373 229c0 32 -13 90 -106 90c-40 0 -85 -9 -116 -58c-23 -36 -31 -89 -31 -115c0 -71 46 -102 108 -102c50 0 88 17 114 64c18 32 31 84 31 121z" />
    <glyph glyph-name="nine" unicode="9" horiz-adv-x="500" 
d="M17 163h85c0 -6 -1 -14 -1 -23c0 -47 20 -93 97 -93c111 0 145 97 184 241c-24 -20 -61 -50 -139 -50c-136 0 -158 97 -158 155c0 51 18 122 47 168c52 82 129 94 186 94c116 0 185 -56 185 -173c0 -78 -37 -210 -47 -242c-51 -171 -119 -247 -256 -247
c-92 0 -185 30 -185 142c0 11 1 17 2 28zM423 498c0 93 -68 106 -102 106c-144 0 -150 -199 -150 -220c0 -43 22 -95 101 -95c26 0 64 6 95 38c45 47 56 140 56 171z" />
    <glyph glyph-name="colon" unicode=":" horiz-adv-x="250" 
d="M266 500l-23 -92h-98l24 92h97zM161 92l-24 -92h-98l25 92h97z" />
    <glyph glyph-name="semicolon" unicode=";" horiz-adv-x="250" 
d="M263 500l-25 -92h-97l24 92h98zM162 89l-23 -89l-89 -132h-55l89 132h-47l22 89h103z" />
    <glyph glyph-name="less" unicode="&#x3c;" horiz-adv-x="724" 
d="M685 586l-24 -93l-433 -190l335 -189l-22 -84l-405 233l22 87z" />
    <glyph glyph-name="equal" unicode="=" horiz-adv-x="724" 
d="M681 428l-20 -77h-526l20 77h526zM633 240l-20 -77h-526l20 77h526z" />
    <glyph glyph-name="greater" unicode="&#x3e;" horiz-adv-x="724" 
d="M635 343l-22 -87l-527 -235l24 92l432 190l-334 189l21 85z" />
    <glyph glyph-name="question" unicode="?" horiz-adv-x="479" 
d="M216 91l-23 -91h-98l23 91h98zM217 164h-73l34 131c17 1 34 2 52 4c27 3 111 14 155 91c16 29 26 66 26 99c0 72 -42 111 -100 111c-84 0 -102 -66 -120 -133h-83c12 50 25 103 63 141c48 47 121 47 138 47c111 0 192 -54 192 -163c0 -65 -27 -123 -74 -167
c-54 -51 -120 -70 -190 -85z" />
    <glyph glyph-name="at" unicode="@" horiz-adv-x="888" 
d="M613 494h67l-65 -226c-10 -36 -20 -81 -20 -98c0 -26 11 -40 31 -40c22 0 54 22 81 58c56 73 90 166 90 245c0 140 -99 229 -248 229c-236 0 -412 -199 -412 -441c0 -177 123 -293 309 -293c134 0 245 55 342 148l33 -43c-123 -106 -232 -157 -379 -157
c-217 0 -363 137 -363 341c0 270 204 495 473 495c179 0 302 -104 302 -275c0 -187 -143 -366 -258 -366c-48 0 -74 22 -74 88c-49 -59 -96 -86 -149 -86c-75 0 -123 56 -123 144c0 139 109 299 235 299c50 0 84 -23 108 -88zM564 343c0 55 -11 112 -79 112
c-86 0 -157 -134 -157 -229c0 -57 29 -92 76 -92c74 0 160 101 160 209z" />
    <glyph glyph-name="A" unicode="A" horiz-adv-x="650" 
d="M593 0h-92l-29 271h-259l-169 -271h-96l452 706h114zM465 337l-29 287l-181 -287h210z" />
    <glyph glyph-name="B" unicode="B" horiz-adv-x="608" 
d="M23 0l183 706h180c62 0 211 -5 211 -150c0 -85 -56 -160 -144 -184c110 -34 116 -128 116 -157c0 -31 -7 -104 -74 -160c-57 -48 -134 -55 -206 -55h-266zM202 336l-70 -271h152c59 0 117 5 160 54c25 28 37 61 37 99c0 67 -35 92 -59 103c-35 15 -70 15 -139 15h-81z
M219 399h67c104 0 152 12 188 55c12 14 35 45 35 93c0 20 -3 67 -57 87c-23 9 -55 9 -104 9h-66z" />
    <glyph glyph-name="C" unicode="C" horiz-adv-x="644" 
d="M664 485h-91c2 20 2 23 2 38c0 72 -30 136 -141 136c-69 0 -154 -21 -215 -189c-25 -70 -57 -190 -57 -266c0 -148 120 -155 152 -155c54 0 144 11 204 160h97c-8 -25 -17 -54 -41 -90c-33 -51 -106 -129 -254 -129c-102 0 -255 32 -255 222c0 30 16 228 107 369
c86 133 204 136 257 136c101 0 155 -28 188 -64c23 -24 49 -62 49 -137c0 -11 -1 -21 -2 -31z" />
    <glyph glyph-name="D" unicode="D" horiz-adv-x="692" 
d="M23 0l183 706h190c77 0 161 -2 222 -54c35 -31 70 -79 70 -182c0 -59 -13 -123 -22 -156c-10 -35 -28 -120 -93 -201c-34 -43 -66 -61 -86 -72c-68 -36 -152 -41 -213 -41h-251zM135 63h106c58 0 131 2 185 29c34 17 80 55 117 140c29 66 53 172 53 245
c0 119 -59 165 -186 165h-125z" />
    <glyph glyph-name="E" unicode="E" horiz-adv-x="525" 
d="M595 706l-18 -68h-292l-61 -236h286l-18 -68h-286l-68 -266h340l-17 -68h-438l183 706h389z" />
    <glyph glyph-name="F" unicode="F" horiz-adv-x="483" 
d="M593 706l-18 -68h-290l-66 -257h283l-17 -68h-283l-82 -313h-97l183 706h387z" />
    <glyph glyph-name="G" unicode="G" horiz-adv-x="688" 
d="M658 354l-97 -354h-86l19 57c-31 -34 -81 -67 -189 -67c-121 0 -240 47 -240 223c0 82 46 319 157 424c82 77 179 80 217 80c124 0 191 -51 218 -99c10 -17 22 -48 22 -96c0 -13 -1 -26 -2 -39h-88c1 12 2 24 2 34c0 104 -73 140 -148 140c-36 0 -101 -6 -159 -75
c-80 -95 -124 -294 -124 -382c0 -33 4 -64 23 -93c29 -45 85 -58 136 -58c109 0 161 51 184 92c20 34 34 84 44 121l6 25h-189l19 67h275z" />
    <glyph glyph-name="H" unicode="H" horiz-adv-x="654" 
d="M701 706l-183 -706h-96l87 338h-301l-87 -338h-98l183 706h97l-79 -303h302l79 303h96z" />
    <glyph glyph-name="I" unicode="I" horiz-adv-x="258" 
d="M305 706l-186 -706h-96l183 706h99z" />
    <glyph glyph-name="J" unicode="J" horiz-adv-x="421" 
d="M469 706l-122 -476c-23 -90 -59 -241 -238 -241c-23 0 -85 5 -145 35l27 69c12 -6 63 -36 115 -36c13 0 54 3 84 33c23 23 44 82 76 207l106 409h97z" />
    <glyph glyph-name="K" unicode="K" horiz-adv-x="587" 
d="M709 706l-336 -288l198 -418h-102l-166 360l-119 -104l-67 -256h-94l183 706h94l-87 -333l380 333h116z" />
    <glyph glyph-name="L" unicode="L" horiz-adv-x="504" 
d="M465 69l-18 -69h-424l183 706h96l-164 -637h327z" />
    <glyph glyph-name="M" unicode="M" horiz-adv-x="862" 
d="M727 0h-91l174 669l-388 -669h-90c-41 555 -43 613 -44 670l-182 -670h-83l195 706h149l37 -592l342 592h163z" />
    <glyph glyph-name="N" unicode="N" horiz-adv-x="675" 
d="M539 0h-99s-169 532 -181 594l-152 -594h-84l187 706h98l180 -599l153 599h81z" />
    <glyph glyph-name="O" unicode="O" horiz-adv-x="688" 
d="M65 215c0 94 39 230 67 296c55 129 141 206 308 206c79 0 140 -21 181 -54c64 -51 70 -120 70 -167c0 -54 -11 -107 -24 -160c-28 -113 -63 -210 -122 -267s-140 -79 -221 -79c-135 0 -259 53 -259 225zM163 205c0 -107 61 -156 159 -156c149 0 200 115 247 300
c12 45 25 102 25 159c0 89 -53 152 -155 152c-60 0 -113 -20 -157 -72c-78 -93 -119 -311 -119 -383z" />
    <glyph glyph-name="P" unicode="P" horiz-adv-x="546" 
d="M120 0h-97l183 706h171c78 0 177 -1 217 -103c9 -24 11 -46 11 -72c0 -75 -28 -154 -86 -204c-61 -52 -136 -56 -212 -56h-117zM207 336h96c57 0 97 0 143 39c59 50 65 136 65 155c0 18 0 69 -50 97c-26 14 -59 14 -118 14h-57z" />
    <glyph glyph-name="Q" unicode="Q" horiz-adv-x="688" 
d="M655 -103h-93c-3 20 -7 49 -32 76c-19 21 -53 38 -81 38c-40 -16 -90 -21 -130 -21c-160 0 -254 71 -254 226c0 97 52 316 136 407c81 89 187 94 240 94c238 0 251 -162 251 -223c0 -76 -26 -225 -85 -337c-31 -58 -57 -82 -79 -102c93 -25 120 -78 127 -158zM162 201
c0 -79 43 -153 158 -153s180 73 228 208c21 59 50 157 50 239c0 94 -41 164 -155 164c-137 0 -192 -101 -228 -201c-26 -71 -53 -174 -53 -257z" />
    <glyph glyph-name="R" unicode="R" horiz-adv-x="608" 
d="M206 706h187c65 0 137 -4 184 -58c15 -17 35 -49 35 -106c0 -89 -47 -139 -72 -161c-31 -27 -63 -41 -114 -47c77 -12 94 -107 102 -168l6 -44c5 -39 15 -97 38 -122h-99c-18 24 -21 41 -28 92l-7 49c-10 68 -12 101 -39 132c-31 36 -67 37 -152 37h-48l-80 -310h-96z
M217 376h87c69 0 140 1 184 62c11 16 31 48 31 97c0 108 -98 108 -151 108h-83z" />
    <glyph glyph-name="S" unicode="S" horiz-adv-x="542" 
d="M27 212l88 -6s-3 -21 -3 -36c0 -92 83 -123 152 -123c115 0 147 88 147 133c0 76 -49 109 -118 147l-34 19c-44 25 -127 77 -127 182c0 123 96 189 234 189c37 0 208 -5 208 -169c0 -11 -1 -18 -3 -29h-85v26c0 106 -94 117 -123 117c-103 0 -139 -79 -139 -121
c0 -65 47 -96 108 -131l33 -19c56 -32 141 -80 141 -201c0 -85 -61 -201 -237 -201c-98 0 -247 26 -247 177c0 14 0 21 5 46z" />
    <glyph glyph-name="T" unicode="T" horiz-adv-x="487" 
d="M617 706l-18 -69h-190l-165 -637h-98l165 637h-211l18 69h499z" />
    <glyph glyph-name="U" unicode="U" horiz-adv-x="675" 
d="M723 706l-124 -479c-13 -52 -32 -111 -68 -153c-69 -81 -186 -84 -229 -84c-163 0 -230 64 -230 168c0 32 10 72 20 112l113 436h97l-107 -416c-16 -63 -24 -97 -24 -129c0 -70 51 -109 144 -109c146 0 179 97 215 237l107 417h86z" />
    <glyph glyph-name="V" unicode="V" horiz-adv-x="566" 
d="M283 0h-120l-36 706h97l21 -629l349 629h96z" />
    <glyph glyph-name="W" unicode="W" horiz-adv-x="837" 
d="M627 0h-142l18 554l-273 -554h-142l39 706h93l-44 -646l321 646h90s-15 -631 -16 -648l300 648h89z" />
    <glyph glyph-name="X" unicode="X" horiz-adv-x="566" 
d="M667 706l-297 -331l145 -375h-98l-113 298l-264 -298h-105l339 376l-129 330h98l98 -256l225 256h101z" />
    <glyph glyph-name="Y" unicode="Y" horiz-adv-x="525" 
d="M669 706l-343 -447l-67 -259h-93l68 259l-126 447h99l94 -361l268 361h100z" />
    <glyph glyph-name="Z" unicode="Z" horiz-adv-x="566" 
d="M635 706l-17 -66l-512 -570h430l-18 -70h-549l17 65l515 575h-377l17 66h494z" />
    <glyph glyph-name="bracketleft" unicode="[" horiz-adv-x="292" 
d="M419 706l-13 -54h-129l-192 -739h129l-14 -54h-206l220 847h205z" />
    <glyph glyph-name="backslash" unicode="\" horiz-adv-x="417" 
d="M355 0h-74l-149 706h73z" />
    <glyph glyph-name="bracketright" unicode="]" horiz-adv-x="292" 
d="M327 706l-219 -847h-206l13 54h129l193 739h-129l13 54h206z" />
    <glyph glyph-name="asciicircum" unicode="^" horiz-adv-x="724" 
d="M629 287h-90l-68 334l-240 -334h-97l310 419h88z" />
    <glyph glyph-name="underscore" unicode="_" horiz-adv-x="500" 
d="M537 -147l-15 -59h-520l15 59h520z" />
    <glyph glyph-name="grave" unicode="`" 
d="M214 559h-64l-93 136h91z" />
    <glyph glyph-name="a" unicode="a" horiz-adv-x="490" 
d="M399 0h-50c-31 0 -55 2 -55 40c0 4 1 12 1 12c-20 -21 -68 -61 -145 -61c-122 0 -128 96 -128 121c0 80 48 121 75 137c50 30 128 38 262 53l9 33c7 27 9 37 9 54c0 70 -69 72 -86 72c-66 0 -97 -41 -109 -62c-9 -16 -16 -39 -17 -43h-83c23 99 90 153 219 153
c80 0 161 -27 161 -116c0 -22 -3 -36 -9 -58l-62 -242c-7 -26 -9 -35 -9 -49s8 -32 20 -32zM326 172l22 83c-123 -9 -238 -25 -238 -138c0 -37 21 -72 72 -72c43 0 86 25 105 44c20 20 26 35 39 83z" />
    <glyph glyph-name="b" unicode="b" horiz-adv-x="528" 
d="M100 0h-86l183 706h86l-68 -264c20 18 75 67 159 67c26 0 135 0 135 -156c0 -32 -4 -81 -27 -154c-11 -37 -63 -208 -232 -208c-62 0 -116 23 -136 60zM192 356l-51 -199c-5 -21 -9 -33 -9 -43c0 -14 22 -73 101 -73c60 0 101 39 128 89c31 57 60 164 60 229
c0 20 -1 99 -82 99s-135 -84 -147 -102z" />
    <glyph glyph-name="c" unicode="c" horiz-adv-x="494" 
d="M479 330h-81c3 17 3 25 3 34c0 20 -6 93 -92 93c-49 0 -100 -22 -141 -117c-9 -20 -41 -102 -41 -182c0 -49 21 -115 104 -115c46 0 95 17 130 110h85c-5 -20 -14 -55 -48 -92c-27 -30 -78 -70 -174 -70c-113 0 -185 53 -185 169c0 82 30 189 79 255c66 89 148 94 189 94
c154 0 175 -100 175 -143c0 -10 0 -17 -3 -36z" />
    <glyph glyph-name="d" unicode="d" horiz-adv-x="528" 
d="M315 0l13 47c-24 -20 -68 -56 -145 -56c-72 0 -147 39 -147 157c0 105 56 361 272 361c76 0 111 -31 127 -46l63 243h85l-182 -706h-86zM359 168l64 248c-21 27 -55 44 -95 44c-140 0 -204 -212 -204 -313c0 -55 22 -105 86 -105c57 0 127 39 149 126z" />
    <glyph glyph-name="e" unicode="e" horiz-adv-x="500" 
d="M468 245h-335c-3 -15 -12 -46 -12 -86c0 -34 8 -115 110 -115c96 0 124 73 135 103h86c-58 -153 -181 -156 -229 -156c-31 0 -186 1 -186 169c0 76 31 185 74 249c53 78 125 100 197 100c45 0 176 -9 176 -158c0 -71 -9 -85 -16 -106zM150 301h246c3 9 9 37 9 63
c0 18 -8 96 -97 96c-25 0 -67 -7 -105 -54c-26 -32 -40 -68 -53 -105z" />
    <glyph glyph-name="f" unicode="f" horiz-adv-x="301" 
d="M134 0h-86l117 452h-79l13 48h78l19 75c15 59 43 140 155 140c44 0 70 -12 86 -21l-14 -53c-20 9 -35 16 -57 16c-42 0 -69 -27 -90 -110l-12 -47h94l-12 -48h-95z" />
    <glyph glyph-name="g" unicode="g" horiz-adv-x="527" 
d="M530 500l-128 -497c-31 -118 -75 -211 -249 -211c-139 0 -170 74 -170 119v33h91c-1 -8 -1 -11 -1 -17c0 -28 9 -85 97 -85c72 0 106 56 116 77c13 25 29 77 46 145c-30 -25 -76 -57 -146 -57c-50 0 -149 19 -149 159c0 71 22 132 31 155c41 105 117 188 239 188
c15 0 86 -2 129 -46l9 37h85zM377 238l46 176c-33 44 -79 46 -97 46c-33 0 -82 -11 -128 -73c-43 -59 -73 -156 -73 -229c0 -24 4 -99 88 -99c22 0 71 8 112 51c29 30 33 56 52 128z" />
    <glyph glyph-name="h" unicode="h" horiz-adv-x="524" 
d="M400 0h-85l77 297c11 43 17 71 17 92c0 48 -40 64 -74 64c-25 0 -76 -9 -116 -52c-20 -22 -28 -45 -42 -99l-78 -302h-85l183 706h86l-69 -264c38 32 95 67 175 67c82 0 108 -51 108 -103c0 -25 -6 -58 -20 -110z" />
    <glyph glyph-name="i" unicode="i" horiz-adv-x="222" 
d="M277 695l-22 -84h-85l22 84h85zM227 500l-130 -500h-85l130 500h85z" />
    <glyph glyph-name="j" unicode="j" horiz-adv-x="223" 
d="M142 500h85l-122 -474c-33 -129 -65 -234 -199 -234c-27 0 -42 4 -56 8l17 58c10 -2 21 -4 34 -4c70 0 89 53 121 179zM278 695l-22 -83h-85l22 83h85z" />
    <glyph glyph-name="k" unicode="k" horiz-adv-x="491" 
d="M532 500l-225 -191l150 -309h-95l-121 258l-99 -86l-44 -172h-84l183 706h83l-112 -431l264 225h100z" />
    <glyph glyph-name="l" unicode="l" horiz-adv-x="221" 
d="M279 706l-181 -706h-84l180 706h85z" />
    <glyph glyph-name="m" unicode="m" horiz-adv-x="795" 
d="M671 0h-85l79 307c6 22 15 58 15 83c0 32 -19 63 -71 63c-57 0 -94 -41 -105 -54c-22 -25 -30 -53 -46 -115l-73 -284h-85l77 299c11 43 17 69 17 89c0 8 -1 65 -68 65c-20 0 -58 -7 -95 -41c-29 -26 -37 -45 -54 -112l-78 -300h-85l129 500h86l-15 -58
c43 41 95 67 157 67c85 0 102 -54 109 -77c47 42 104 77 174 77c108 0 114 -80 114 -105c0 -21 -5 -48 -17 -93z" />
    <glyph glyph-name="n" unicode="n" horiz-adv-x="524" 
d="M400 0h-85l77 297c11 43 17 71 17 92c0 48 -40 64 -74 64c-25 0 -76 -9 -116 -52c-20 -22 -28 -45 -42 -99l-78 -302h-85l129 500h86l-15 -58c40 33 91 67 175 67c82 0 108 -51 108 -103c0 -25 -6 -58 -20 -110z" />
    <glyph glyph-name="o" unicode="o" horiz-adv-x="521" 
d="M38 164c0 27 4 82 26 148c42 124 123 198 259 198c93 0 141 -49 158 -83c19 -36 19 -78 19 -91c0 -59 -19 -136 -40 -185c-22 -53 -75 -160 -230 -160c-114 0 -192 60 -192 173zM125 160c0 -50 20 -116 108 -116c89 0 128 69 151 139c16 49 33 110 33 168
c0 52 -24 106 -103 106c-88 0 -129 -71 -141 -94c-27 -53 -48 -145 -48 -203z" />
    <glyph glyph-name="p" unicode="p" horiz-adv-x="529" 
d="M46 -206h-85l182 706h86l-14 -56c32 26 93 65 163 65c78 0 133 -48 133 -151c0 -72 -40 -367 -256 -367c-30 0 -97 2 -142 58zM191 352l-48 -185c-3 -13 -9 -37 -9 -51c0 -47 54 -77 98 -77c140 0 191 233 191 319c0 35 -11 100 -83 100c-66 0 -124 -64 -149 -106z" />
    <glyph glyph-name="q" unicode="q" horiz-adv-x="528" 
d="M530 500l-182 -706h-86l65 252c-39 -34 -91 -55 -144 -55c-114 0 -147 80 -147 157c0 51 13 102 17 117c44 172 143 244 253 244c79 0 120 -37 129 -46l10 37h85zM359 170l64 247c-22 25 -50 42 -93 42c-52 0 -117 -29 -165 -134c-22 -50 -42 -122 -42 -178
c0 -47 19 -105 88 -105c61 0 124 36 148 128z" />
    <glyph glyph-name="r" unicode="r" horiz-adv-x="319" 
d="M99 0h-85l129 500h86l-23 -78c59 71 101 84 136 84c11 0 22 0 42 -10l-24 -74c-8 4 -29 19 -57 19c-79 0 -115 -101 -132 -165z" />
    <glyph glyph-name="s" unicode="s" horiz-adv-x="417" 
d="M413 360l-73 4c1 7 2 16 2 22c0 55 -50 73 -90 73c-48 0 -83 -27 -83 -68c0 -42 34 -65 78 -93l36 -23c46 -29 88 -64 88 -131s-41 -153 -179 -153c-124 0 -186 59 -186 140c0 9 1 18 3 30l81 -5c-1 -8 -1 -12 -1 -18c0 -66 49 -97 105 -97c69 0 96 46 96 83
c0 49 -36 72 -78 99l-40 26c-35 23 -84 56 -84 124c0 63 44 136 166 136c84 0 161 -35 161 -122c0 -10 -1 -21 -2 -27z" />
    <glyph glyph-name="t" unicode="t" horiz-adv-x="305" 
d="M266 62l-15 -58c-18 -6 -34 -13 -73 -13c-71 0 -110 32 -110 89c0 20 5 43 15 82l75 290h-82l13 48h82l27 108l88 10l-30 -118h94l-12 -48h-95l-76 -292c-5 -21 -12 -43 -12 -62c0 -41 30 -50 55 -50c23 0 36 5 56 14z" />
    <glyph glyph-name="u" unicode="u" horiz-adv-x="524" 
d="M141 500h85l-77 -297c-11 -43 -17 -71 -17 -92c0 -48 40 -63 74 -63c25 0 76 9 116 52c20 22 28 44 42 98l78 302h85l-129 -500h-86l15 57c-40 -33 -91 -66 -175 -66c-82 0 -108 51 -108 103c0 25 6 58 20 110z" />
    <glyph glyph-name="v" unicode="v" horiz-adv-x="421" 
d="M489 500l-295 -500h-88l-35 500h85l21 -409l233 409h79z" />
    <glyph glyph-name="w" unicode="w" horiz-adv-x="692" 
d="M759 500l-272 -500h-92s-5 311 -5 389c-15 -41 -207 -389 -207 -389h-92l-17 500h85s6 -365 6 -418c17 37 219 418 219 418h80s2 -390 2 -418c11 27 215 418 215 418h78z" />
    <glyph glyph-name="x" unicode="x" horiz-adv-x="448" 
d="M494 500l-214 -241l105 -259h-92l-79 197l-176 -197h-87l240 259l-95 241h90l71 -178l157 178h80z" />
    <glyph glyph-name="y" unicode="y" horiz-adv-x="418" 
d="M486 500l-286 -532c-14 -26 -27 -49 -44 -75c-34 -52 -71 -101 -149 -101c-35 0 -70 13 -81 17l20 64c8 -4 35 -16 62 -16c15 0 33 4 48 15c22 16 59 69 59 124c0 16 -3 56 -5 72l-41 432h86l31 -429l218 429h82z" />
    <glyph glyph-name="z" unicode="z" horiz-adv-x="450" 
d="M474 500l-15 -56l-366 -385h292l-16 -59h-397l17 53l369 391h-263l14 56h365z" />
    <glyph glyph-name="braceleft" unicode="{" horiz-adv-x="316" 
d="M213 -141h-12c-106 0 -148 31 -148 106c0 16 3 44 10 72l25 104c4 18 8 40 8 53c0 38 -18 63 -51 74l9 35c63 13 81 34 101 116l31 125c30 121 65 154 194 161l37 2l-9 -34c-103 -15 -119 -28 -146 -138l-29 -120c-21 -87 -46 -117 -114 -135c35 -18 53 -50 53 -95
c0 -15 -2 -31 -6 -47l-23 -96c-7 -29 -12 -58 -12 -72c0 -42 20 -70 90 -77z" />
    <glyph glyph-name="bar" unicode="|" horiz-adv-x="306" 
d="M322 706l-220 -847h-79l219 847h80z" />
    <glyph glyph-name="braceright" unicode="}" horiz-adv-x="316" 
d="M137 707h21c96 0 139 -31 139 -106c0 -16 -4 -43 -11 -72l-25 -104c-4 -18 -7 -40 -7 -53c0 -38 17 -63 51 -74l-9 -35c-63 -13 -81 -34 -101 -116l-31 -125c-29 -119 -61 -154 -195 -161l-36 -2l8 34c105 16 121 31 147 138l29 120c21 87 46 117 113 135
c-35 18 -52 50 -52 95c0 15 1 31 5 47l24 96c7 29 11 58 11 72c0 46 -21 69 -89 77z" />
    <glyph glyph-name="asciitilde" unicode="~" horiz-adv-x="724" 
d="M647 383l32 -67c-76 -73 -131 -100 -187 -100c-33 0 -61 8 -114 39l-31 18c-40 23 -67 31 -95 31c-41 0 -61 -13 -134 -81l-32 69c70 72 117 100 182 100c37 0 59 -10 107 -35l56 -29c41 -21 53 -26 73 -26c42 0 76 18 143 81z" />
    <glyph glyph-name="Adieresis" unicode="&#xc4;" horiz-adv-x="650" 
d="M593 0h-92l-29 271h-259l-169 -271h-96l452 706h114zM465 337l-29 287l-181 -287h210zM610 860l-22 -83h-86l22 83h86zM445 860l-21 -83h-86l22 83h85z" />
    <glyph glyph-name="Aring" unicode="&#xc5;" horiz-adv-x="650" 
d="M593 0h-92l-29 271h-259l-169 -271h-96l452 706h114zM465 337l-29 287l-181 -287h210zM568 834c0 -52 -41 -91 -92 -91c-49 0 -87 40 -87 88c0 51 39 91 90 91c49 0 89 -38 89 -88zM523 833c0 23 -21 45 -44 45c-25 0 -45 -20 -45 -45c0 -23 18 -45 42 -45
c26 0 47 18 47 45z" />
    <glyph glyph-name="Ccedilla" unicode="&#xc7;" horiz-adv-x="644" 
d="M664 485h-91c2 20 2 23 2 38c0 72 -30 136 -141 136c-69 0 -154 -21 -215 -189c-25 -70 -57 -190 -57 -266c0 -148 120 -155 152 -155c54 0 144 11 204 160h97c-8 -25 -17 -54 -41 -90c-33 -51 -106 -129 -254 -129c-12 0 -24 0 -37 1l-11 -32c14 0 26 0 39 -3
c19 -5 55 -25 55 -75c0 -66 -50 -103 -138 -103c-18 0 -42 1 -55 3l13 49c15 -2 31 -4 47 -4c32 0 71 13 71 52c0 42 -58 42 -84 42l26 77c-89 15 -181 67 -181 215c0 30 16 228 107 369c86 133 204 136 257 136c101 0 155 -28 188 -64c23 -24 49 -62 49 -137
c0 -11 -1 -21 -2 -31z" />
    <glyph glyph-name="Eacute" unicode="&#xc9;" horiz-adv-x="525" 
d="M595 706l-18 -68h-292l-61 -236h286l-18 -68h-286l-68 -266h340l-17 -68h-438l183 706h389zM562 895l-142 -136h-71l109 136h104z" />
    <glyph glyph-name="Ntilde" unicode="&#xd1;" horiz-adv-x="675" 
d="M539 0h-99s-169 532 -181 594l-152 -594h-84l187 706h98l180 -599l153 599h81zM648 886l-14 -52c-9 -35 -19 -75 -68 -75c-26 0 -47 13 -74 32l-26 19c-21 16 -30 22 -41 22c-18 0 -21 -21 -27 -45l-6 -26h-62l10 40c9 37 22 87 75 87c28 0 48 -12 73 -31l31 -23
c18 -13 28 -20 36 -20c15 0 20 22 25 44l6 28h62z" />
    <glyph glyph-name="Odieresis" unicode="&#xd6;" horiz-adv-x="688" 
d="M65 215c0 94 39 230 67 296c55 129 141 206 308 206c79 0 140 -21 181 -54c64 -51 70 -120 70 -167c0 -54 -11 -107 -24 -160c-28 -113 -63 -210 -122 -267s-140 -79 -221 -79c-135 0 -259 53 -259 225zM163 205c0 -107 61 -156 159 -156c149 0 200 115 247 300
c12 45 25 102 25 159c0 89 -53 152 -155 152c-60 0 -113 -20 -157 -72c-78 -93 -119 -311 -119 -383zM621 860l-22 -83h-86l22 83h86zM456 860l-21 -83h-86l22 83h85z" />
    <glyph glyph-name="Udieresis" unicode="&#xdc;" horiz-adv-x="675" 
d="M723 706l-124 -479c-13 -52 -32 -111 -68 -153c-69 -81 -186 -84 -229 -84c-163 0 -230 64 -230 168c0 32 10 72 20 112l113 436h97l-107 -416c-16 -63 -24 -97 -24 -129c0 -70 51 -109 144 -109c146 0 179 97 215 237l107 417h86zM621 860l-22 -83h-86l22 83h86z
M456 860l-21 -83h-86l22 83h85z" />
    <glyph glyph-name="aacute" unicode="&#xe1;" horiz-adv-x="490" 
d="M399 0h-50c-31 0 -55 2 -55 40c0 4 1 12 1 12c-20 -21 -68 -61 -145 -61c-122 0 -128 96 -128 121c0 80 48 121 75 137c50 30 128 38 262 53l9 33c7 27 9 37 9 54c0 70 -69 72 -86 72c-66 0 -97 -41 -109 -62c-9 -16 -16 -39 -17 -43h-83c23 99 90 153 219 153
c80 0 161 -27 161 -116c0 -22 -3 -36 -9 -58l-62 -242c-7 -26 -9 -35 -9 -49s8 -32 20 -32zM326 172l22 83c-123 -9 -238 -25 -238 -138c0 -37 21 -72 72 -72c43 0 86 25 105 44c20 20 26 35 39 83zM472 695l-142 -136h-71l109 136h104z" />
    <glyph glyph-name="agrave" unicode="&#xe0;" horiz-adv-x="490" 
d="M399 0h-50c-31 0 -55 2 -55 40c0 4 1 12 1 12c-20 -21 -68 -61 -145 -61c-122 0 -128 96 -128 121c0 80 48 121 75 137c50 30 128 38 262 53l9 33c7 27 9 37 9 54c0 70 -69 72 -86 72c-66 0 -97 -41 -109 -62c-9 -16 -16 -39 -17 -43h-83c23 99 90 153 219 153
c80 0 161 -27 161 -116c0 -22 -3 -36 -9 -58l-62 -242c-7 -26 -9 -35 -9 -49s8 -32 20 -32zM326 172l22 83c-123 -9 -238 -25 -238 -138c0 -37 21 -72 72 -72c43 0 86 25 105 44c20 20 26 35 39 83zM363 559h-64l-93 136h91z" />
    <glyph glyph-name="acircumflex" unicode="&#xe2;" horiz-adv-x="490" 
d="M399 0h-50c-31 0 -55 2 -55 40c0 4 1 12 1 12c-20 -21 -68 -61 -145 -61c-122 0 -128 96 -128 121c0 80 48 121 75 137c50 30 128 38 262 53l9 33c7 27 9 37 9 54c0 70 -69 72 -86 72c-66 0 -97 -41 -109 -62c-9 -16 -16 -39 -17 -43h-83c23 99 90 153 219 153
c80 0 161 -27 161 -116c0 -22 -3 -36 -9 -58l-62 -242c-7 -26 -9 -35 -9 -49s8 -32 20 -32zM326 172l22 83c-123 -9 -238 -25 -238 -138c0 -37 21 -72 72 -72c43 0 86 25 105 44c20 20 26 35 39 83zM437 559h-61l-29 99l-79 -99h-72l112 136h88z" />
    <glyph glyph-name="adieresis" unicode="&#xe4;" horiz-adv-x="490" 
d="M399 0h-50c-31 0 -55 2 -55 40c0 4 1 12 1 12c-20 -21 -68 -61 -145 -61c-122 0 -128 96 -128 121c0 80 48 121 75 137c50 30 128 38 262 53l9 33c7 27 9 37 9 54c0 70 -69 72 -86 72c-66 0 -97 -41 -109 -62c-9 -16 -16 -39 -17 -43h-83c23 99 90 153 219 153
c80 0 161 -27 161 -116c0 -22 -3 -36 -9 -58l-62 -242c-7 -26 -9 -35 -9 -49s8 -32 20 -32zM326 172l22 83c-123 -9 -238 -25 -238 -138c0 -37 21 -72 72 -72c43 0 86 25 105 44c20 20 26 35 39 83zM471 660l-21 -83h-86l21 83h86zM307 660l-22 -83h-85l21 83h86z" />
    <glyph glyph-name="atilde" unicode="&#xe3;" horiz-adv-x="490" 
d="M399 0h-50c-31 0 -55 2 -55 40c0 4 1 12 1 12c-20 -21 -68 -61 -145 -61c-122 0 -128 96 -128 121c0 80 48 121 75 137c50 30 128 38 262 53l9 33c7 27 9 37 9 54c0 70 -69 72 -86 72c-66 0 -97 -41 -109 -62c-9 -16 -16 -39 -17 -43h-83c23 99 90 153 219 153
c80 0 161 -27 161 -116c0 -22 -3 -36 -9 -58l-62 -242c-7 -26 -9 -35 -9 -49s8 -32 20 -32zM326 172l22 83c-123 -9 -238 -25 -238 -138c0 -37 21 -72 72 -72c43 0 86 25 105 44c20 20 26 35 39 83zM481 686l-14 -52c-10 -37 -19 -75 -68 -75c-27 0 -46 13 -69 29l-32 22
c-22 15 -29 22 -40 22c-18 0 -22 -21 -27 -45l-6 -27h-63l10 40c10 39 21 88 75 88c26 0 47 -13 73 -32l30 -22c17 -12 28 -21 37 -21c12 0 20 15 26 45l6 28h62z" />
    <glyph glyph-name="aring" unicode="&#xe5;" horiz-adv-x="490" 
d="M399 0h-50c-31 0 -55 2 -55 40c0 4 1 12 1 12c-20 -21 -68 -61 -145 -61c-122 0 -128 96 -128 121c0 80 48 121 75 137c50 30 128 38 262 53l9 33c7 27 9 37 9 54c0 70 -69 72 -86 72c-66 0 -97 -41 -109 -62c-9 -16 -16 -39 -17 -43h-83c23 99 90 153 219 153
c80 0 161 -27 161 -116c0 -22 -3 -36 -9 -58l-62 -242c-7 -26 -9 -35 -9 -49s8 -32 20 -32zM326 172l22 83c-123 -9 -238 -25 -238 -138c0 -37 21 -72 72 -72c43 0 86 25 105 44c20 20 26 35 39 83zM421 634c0 -52 -40 -91 -92 -91c-49 0 -87 39 -87 88c0 50 40 91 90 91
c49 0 89 -38 89 -88zM376 633c0 23 -20 45 -44 45c-25 0 -45 -20 -45 -45c0 -23 18 -45 42 -45c26 0 47 18 47 45z" />
    <glyph glyph-name="ccedilla" unicode="&#xe7;" horiz-adv-x="494" 
d="M479 330h-81c3 17 3 25 3 34c0 20 -6 93 -92 93c-49 0 -100 -22 -141 -117c-9 -20 -41 -102 -41 -182c0 -49 21 -115 104 -115c46 0 95 17 130 110h85c-5 -20 -14 -55 -48 -92c-27 -30 -78 -70 -174 -70c-10 0 -20 1 -29 2l-11 -34c14 0 26 0 39 -3c19 -5 55 -25 55 -75
c0 -66 -50 -103 -138 -103c-18 0 -42 1 -55 3l13 49c15 -2 31 -4 47 -4c32 0 71 13 71 52c0 42 -58 42 -84 42l27 79c-74 18 -120 69 -120 161c0 82 30 189 79 255c66 89 148 94 189 94c154 0 175 -100 175 -143c0 -10 0 -17 -3 -36z" />
    <glyph glyph-name="eacute" unicode="&#xe9;" horiz-adv-x="500" 
d="M468 245h-335c-3 -15 -12 -46 -12 -86c0 -34 8 -115 110 -115c96 0 124 73 135 103h86c-58 -153 -181 -156 -229 -156c-31 0 -186 1 -186 169c0 76 31 185 74 249c53 78 125 100 197 100c45 0 176 -9 176 -158c0 -71 -9 -85 -16 -106zM150 301h246c3 9 9 37 9 63
c0 18 -8 96 -97 96c-25 0 -67 -7 -105 -54c-26 -32 -40 -68 -53 -105zM486 695l-142 -136h-71l109 136h104z" />
    <glyph glyph-name="egrave" unicode="&#xe8;" horiz-adv-x="500" 
d="M468 245h-335c-3 -15 -12 -46 -12 -86c0 -34 8 -115 110 -115c96 0 124 73 135 103h86c-58 -153 -181 -156 -229 -156c-31 0 -186 1 -186 169c0 76 31 185 74 249c53 78 125 100 197 100c45 0 176 -9 176 -158c0 -71 -9 -85 -16 -106zM150 301h246c3 9 9 37 9 63
c0 18 -8 96 -97 96c-25 0 -67 -7 -105 -54c-26 -32 -40 -68 -53 -105zM385 559h-64l-93 136h91z" />
    <glyph glyph-name="ecircumflex" unicode="&#xea;" horiz-adv-x="500" 
d="M468 245h-335c-3 -15 -12 -46 -12 -86c0 -34 8 -115 110 -115c96 0 124 73 135 103h86c-58 -153 -181 -156 -229 -156c-31 0 -186 1 -186 169c0 76 31 185 74 249c53 78 125 100 197 100c45 0 176 -9 176 -158c0 -71 -9 -85 -16 -106zM150 301h246c3 9 9 37 9 63
c0 18 -8 96 -97 96c-25 0 -67 -7 -105 -54c-26 -32 -40 -68 -53 -105zM448 559h-61l-29 99l-79 -99h-72l112 136h88z" />
    <glyph glyph-name="edieresis" unicode="&#xeb;" horiz-adv-x="500" 
d="M468 245h-335c-3 -15 -12 -46 -12 -86c0 -34 8 -115 110 -115c96 0 124 73 135 103h86c-58 -153 -181 -156 -229 -156c-31 0 -186 1 -186 169c0 76 31 185 74 249c53 78 125 100 197 100c45 0 176 -9 176 -158c0 -71 -9 -85 -16 -106zM150 301h246c3 9 9 37 9 63
c0 18 -8 96 -97 96c-25 0 -67 -7 -105 -54c-26 -32 -40 -68 -53 -105zM488 660l-21 -83h-86l21 83h86zM324 660l-22 -83h-85l21 83h86z" />
    <glyph glyph-name="iacute" unicode="&#xed;" horiz-adv-x="222" 
d="M227 500l-130 -500h-85l130 500h85zM350 695l-142 -136h-71l109 136h104z" />
    <glyph glyph-name="igrave" unicode="&#xec;" horiz-adv-x="222" 
d="M227 500l-130 -500h-85l130 500h85zM238 559h-64l-93 136h91z" />
    <glyph glyph-name="icircumflex" unicode="&#xee;" horiz-adv-x="222" 
d="M227 500l-130 -500h-85l130 500h85zM308 559h-61l-29 99l-79 -99h-72l112 136h88z" />
    <glyph glyph-name="idieresis" unicode="&#xef;" horiz-adv-x="222" 
d="M227 500l-130 -500h-85l130 500h85zM342 660l-21 -83h-86l21 83h86zM178 660l-22 -83h-85l21 83h86z" />
    <glyph glyph-name="ntilde" unicode="&#xf1;" horiz-adv-x="524" 
d="M400 0h-85l77 297c11 43 17 71 17 92c0 48 -40 64 -74 64c-25 0 -76 -9 -116 -52c-20 -22 -28 -45 -42 -99l-78 -302h-85l129 500h86l-15 -58c40 33 91 67 175 67c82 0 108 -51 108 -103c0 -25 -6 -58 -20 -110zM503 686l-14 -52c-10 -37 -19 -75 -68 -75
c-27 0 -46 13 -69 29l-32 22c-22 15 -29 22 -40 22c-18 0 -22 -21 -27 -45l-6 -27h-63l10 40c10 39 21 88 75 88c26 0 47 -13 73 -32l30 -22c17 -12 28 -21 37 -21c12 0 20 15 26 45l6 28h62z" />
    <glyph glyph-name="oacute" unicode="&#xf3;" horiz-adv-x="521" 
d="M38 164c0 27 4 82 26 148c42 124 123 198 259 198c93 0 141 -49 158 -83c19 -36 19 -78 19 -91c0 -59 -19 -136 -40 -185c-22 -53 -75 -160 -230 -160c-114 0 -192 60 -192 173zM125 160c0 -50 20 -116 108 -116c89 0 128 69 151 139c16 49 33 110 33 168
c0 52 -24 106 -103 106c-88 0 -129 -71 -141 -94c-27 -53 -48 -145 -48 -203zM496 695l-142 -136h-71l109 136h104z" />
    <glyph glyph-name="ograve" unicode="&#xf2;" horiz-adv-x="521" 
d="M38 164c0 27 4 82 26 148c42 124 123 198 259 198c93 0 141 -49 158 -83c19 -36 19 -78 19 -91c0 -59 -19 -136 -40 -185c-22 -53 -75 -160 -230 -160c-114 0 -192 60 -192 173zM125 160c0 -50 20 -116 108 -116c89 0 128 69 151 139c16 49 33 110 33 168
c0 52 -24 106 -103 106c-88 0 -129 -71 -141 -94c-27 -53 -48 -145 -48 -203zM392 559h-64l-93 136h91z" />
    <glyph glyph-name="ocircumflex" unicode="&#xf4;" horiz-adv-x="521" 
d="M38 164c0 27 4 82 26 148c42 124 123 198 259 198c93 0 141 -49 158 -83c19 -36 19 -78 19 -91c0 -59 -19 -136 -40 -185c-22 -53 -75 -160 -230 -160c-114 0 -192 60 -192 173zM125 160c0 -50 20 -116 108 -116c89 0 128 69 151 139c16 49 33 110 33 168
c0 52 -24 106 -103 106c-88 0 -129 -71 -141 -94c-27 -53 -48 -145 -48 -203zM464 559h-61l-29 99l-79 -99h-72l112 136h88z" />
    <glyph glyph-name="odieresis" unicode="&#xf6;" horiz-adv-x="521" 
d="M38 164c0 27 4 82 26 148c42 124 123 198 259 198c93 0 141 -49 158 -83c19 -36 19 -78 19 -91c0 -59 -19 -136 -40 -185c-22 -53 -75 -160 -230 -160c-114 0 -192 60 -192 173zM125 160c0 -50 20 -116 108 -116c89 0 128 69 151 139c16 49 33 110 33 168
c0 52 -24 106 -103 106c-88 0 -129 -71 -141 -94c-27 -53 -48 -145 -48 -203zM498 660l-21 -83h-86l21 83h86zM334 660l-22 -83h-85l21 83h86z" />
    <glyph glyph-name="otilde" unicode="&#xf5;" horiz-adv-x="521" 
d="M38 164c0 27 4 82 26 148c42 124 123 198 259 198c93 0 141 -49 158 -83c19 -36 19 -78 19 -91c0 -59 -19 -136 -40 -185c-22 -53 -75 -160 -230 -160c-114 0 -192 60 -192 173zM125 160c0 -50 20 -116 108 -116c89 0 128 69 151 139c16 49 33 110 33 168
c0 52 -24 106 -103 106c-88 0 -129 -71 -141 -94c-27 -53 -48 -145 -48 -203zM509 686l-14 -52c-10 -37 -19 -75 -68 -75c-27 0 -46 13 -69 29l-32 22c-22 15 -29 22 -40 22c-18 0 -22 -21 -27 -45l-6 -27h-63l10 40c10 39 21 88 75 88c26 0 47 -13 73 -32l30 -22
c17 -12 28 -21 37 -21c12 0 20 15 26 45l6 28h62z" />
    <glyph glyph-name="uacute" unicode="&#xfa;" horiz-adv-x="524" 
d="M141 500h85l-77 -297c-11 -43 -17 -71 -17 -92c0 -48 40 -63 74 -63c25 0 76 9 116 52c20 22 28 44 42 98l78 302h85l-129 -500h-86l15 57c-40 -33 -91 -66 -175 -66c-82 0 -108 51 -108 103c0 25 6 58 20 110zM510 695l-142 -136h-71l109 136h104z" />
    <glyph glyph-name="ugrave" unicode="&#xf9;" horiz-adv-x="524" 
d="M141 500h85l-77 -297c-11 -43 -17 -71 -17 -92c0 -48 40 -63 74 -63c25 0 76 9 116 52c20 22 28 44 42 98l78 302h85l-129 -500h-86l15 57c-40 -33 -91 -66 -175 -66c-82 0 -108 51 -108 103c0 25 6 58 20 110zM392 559h-64l-93 136h91z" />
    <glyph glyph-name="ucircumflex" unicode="&#xfb;" horiz-adv-x="524" 
d="M141 500h85l-77 -297c-11 -43 -17 -71 -17 -92c0 -48 40 -63 74 -63c25 0 76 9 116 52c20 22 28 44 42 98l78 302h85l-129 -500h-86l15 57c-40 -33 -91 -66 -175 -66c-82 0 -108 51 -108 103c0 25 6 58 20 110zM464 559h-61l-29 99l-79 -99h-72l112 136h88z" />
    <glyph glyph-name="udieresis" unicode="&#xfc;" horiz-adv-x="524" 
d="M141 500h85l-77 -297c-11 -43 -17 -71 -17 -92c0 -48 40 -63 74 -63c25 0 76 9 116 52c20 22 28 44 42 98l78 302h85l-129 -500h-86l15 57c-40 -33 -91 -66 -175 -66c-82 0 -108 51 -108 103c0 25 6 58 20 110zM495 660l-21 -83h-86l21 83h86zM331 660l-22 -83h-85l21 83
h86z" />
    <glyph glyph-name="dagger" unicode="&#x2020;" horiz-adv-x="396" 
d="M464 516l-16 -60h-147l-118 -456h-82l118 456h-147l16 60h147l49 190h82l-50 -190h148z" />
    <glyph glyph-name="degree" unicode="&#xb0;" horiz-adv-x="354" 
d="M336 601c0 -79 -66 -147 -147 -147c-82 0 -147 66 -147 147c0 79 66 147 147 147c82 0 147 -66 147 -147zM276 601c0 49 -39 87 -88 87c-47 0 -86 -39 -86 -88c0 -47 39 -86 87 -86c49 0 87 39 87 87z" />
    <glyph glyph-name="cent" unicode="&#xa2;" horiz-adv-x="479" 
d="M203 -109h-55l27 103c-121 17 -135 114 -135 165c0 65 27 171 65 235c47 80 116 115 203 115l21 80h54l-22 -85c121 -23 121 -117 121 -137c0 -14 -1 -23 -3 -37h-81c1 8 3 18 3 39c0 78 -57 88 -90 88c-51 0 -80 -23 -99 -44c-51 -56 -84 -200 -84 -258
c0 -94 61 -115 103 -115c88 0 114 69 130 111h85c-29 -109 -115 -160 -209 -160h-8z" />
    <glyph glyph-name="sterling" unicode="&#xa3;" horiz-adv-x="542" 
d="M498 65l-17 -65h-483l15 56c14 2 63 7 112 88c26 42 37 75 43 96h-109l17 61h109c17 56 28 108 47 163c41 115 113 192 242 192c50 0 77 -12 97 -19l-16 -61c-30 13 -51 21 -86 21c-156 0 -161 -191 -200 -296h177l-16 -61h-178c-26 -76 -58 -133 -141 -175h387z" />
    <glyph glyph-name="section" unicode="&#xa7;" horiz-adv-x="396" 
d="M1 29l17 62c23 -16 65 -44 117 -44c79 0 90 58 90 76c0 30 -12 47 -46 90l-33 42c-26 34 -56 77 -56 121c0 69 54 113 103 141c-9 13 -23 34 -23 70c0 95 87 128 154 128c23 0 71 0 116 -27l-15 -56c-10 7 -45 30 -99 30c-39 0 -79 -20 -79 -66c0 -30 15 -51 50 -95
l33 -42c29 -37 61 -77 61 -127c0 -80 -75 -131 -101 -147c0 0 12 -23 12 -52c0 -11 -3 -38 -19 -66c-42 -74 -124 -76 -149 -76c-39 0 -96 8 -133 38zM212 301l23 -29c5 -6 28 -37 35 -45c18 15 49 41 49 81c0 36 -26 71 -46 97l-23 30c-12 15 -12 16 -33 45
c-25 -19 -54 -41 -54 -84c0 -27 14 -51 49 -95z" />
    <glyph glyph-name="bullet" unicode="&#x2022;" horiz-adv-x="333" 
d="M344 466l-55 -225h-227l56 225h226z" />
    <glyph glyph-name="paragraph" unicode="&#xb6;" horiz-adv-x="642" 
d="M636 706l-13 -53h-34l-209 -820h-56l209 820h-146l-210 -820h-56l126 491c-73 23 -113 81 -113 162c0 69 34 135 91 175c47 34 90 45 186 45h225z" />
    <glyph glyph-name="germandbls" unicode="&#xdf;" horiz-adv-x="562" 
d="M102 0h-85l118 505c17 71 43 128 97 167c30 21 74 43 155 43c32 0 176 -1 176 -140c0 -18 -3 -70 -37 -115c-24 4 -30 4 -44 4c-87 0 -101 -55 -101 -75c0 -32 25 -61 61 -97l42 -41c27 -26 52 -64 52 -113c0 -50 -34 -147 -167 -147c-53 0 -174 23 -174 128
c0 7 1 15 3 31l83 -5c0 -2 -2 -11 -2 -22c0 -57 48 -79 91 -79c6 0 19 0 33 5c15 6 48 25 48 70c0 37 -17 55 -67 105l-20 20c-39 39 -68 79 -68 129c0 59 45 110 108 126c30 8 56 9 67 10c4 9 16 38 16 70c0 36 -17 88 -103 88c-28 0 -86 -3 -128 -67
c-21 -33 -30 -67 -47 -141z" />
    <glyph glyph-name="registered" unicode="&#xae;" horiz-adv-x="780" 
d="M784 356c0 -202 -155 -359 -357 -359c-198 0 -355 158 -355 358c0 198 157 354 356 354s356 -156 356 -353zM748 351c0 182 -140 324 -320 324c-179 0 -321 -143 -321 -323c0 -178 143 -321 320 -321s321 144 321 320zM343 566h151c79 0 118 -35 118 -101
c0 -62 -39 -107 -103 -118c32 -13 48 -35 48 -76v-29c0 -44 0 -82 13 -100h-72c-8 9 -10 14 -10 46v29c0 70 0 106 -71 106h-61l-44 -181h-71zM403 517l-35 -146h32c55 0 77 2 96 10c27 11 45 42 45 76c0 39 -20 60 -73 60h-65z" />
    <glyph glyph-name="copyright" unicode="&#xa9;" horiz-adv-x="780" 
d="M618 414h-77c4 17 5 24 5 35c0 48 -26 70 -82 70c-53 0 -87 -22 -114 -76c-22 -44 -42 -123 -42 -166c0 -59 33 -90 95 -90c57 0 86 17 108 87h76c-21 -94 -82 -139 -189 -139s-168 50 -168 137c0 86 36 189 84 241c37 40 88 60 156 60c102 0 152 -40 152 -121
c0 -14 0 -21 -4 -38zM784 356c0 -202 -155 -359 -357 -359c-198 0 -355 158 -355 358c0 198 157 354 356 354s356 -156 356 -353zM748 351c0 182 -140 324 -320 324c-179 0 -321 -143 -321 -323c0 -178 143 -321 320 -321s321 144 321 320z" />
    <glyph glyph-name="trademark" unicode="&#x2122;" horiz-adv-x="739" 
d="M777 706l-77 -331h-53l68 296l-173 -296h-44l-30 292l-74 -292h-51l85 331h87l24 -255l148 255h90zM397 706l-9 -39h-96l-71 -293h-61l71 293h-97l10 39h253z" />
    <glyph glyph-name="acute" unicode="&#xb4;" 
d="M242 695l-142 -136h-71l109 136h104z" />
    <glyph glyph-name="dieresis" unicode="&#xa8;" 
d="M271 660l-21 -83h-86l21 83h86zM107 660l-22 -83h-85l21 83h86z" />
    <glyph glyph-name="notequal" unicode="&#x2260;" horiz-adv-x="724" 
d="M680 428l-20 -77h-198l-81 -112h252l-19 -76h-289l-125 -169h-78l125 169h-159l20 76h196l80 112h-249l20 77h288l117 157h78l-116 -157h158z" />
    <glyph glyph-name="AE" unicode="&#xc6;" horiz-adv-x="921" 
d="M984 706l-18 -67h-292l-61 -237h286l-17 -67h-286l-69 -266h347l-18 -69h-440l87 335h-211l-244 -335h-100l523 706h513zM582 639h-66l-173 -237h178z" />
    <glyph glyph-name="Oslash" unicode="&#xd8;" horiz-adv-x="688" 
d="M727 690l-67 -71c27 -42 31 -89 31 -123c0 -54 -11 -107 -24 -160c-28 -113 -63 -210 -122 -267s-140 -79 -221 -79c-76 0 -148 16 -197 61l-64 -68l-31 30l67 71c-22 33 -34 76 -34 132c0 93 39 229 67 295c55 129 141 206 308 206c79 0 140 -21 181 -54
c4 -4 8 -7 11 -11l63 67zM167 157l407 433c-24 43 -69 70 -135 70c-60 0 -113 -20 -157 -72c-78 -93 -119 -311 -119 -383c0 -18 1 -34 4 -48zM590 545l-405 -433c26 -43 74 -63 137 -63c149 0 200 115 247 300c12 45 25 102 25 159c0 13 -2 25 -4 37z" />
    <glyph glyph-name="infinity" unicode="&#x221e;" horiz-adv-x="724" 
d="M398 361c91 91 132 124 201 124c72 0 121 -55 121 -137c0 -127 -94 -236 -204 -236c-71 0 -105 34 -148 122c-78 -86 -137 -122 -200 -122c-72 0 -119 54 -119 138c0 125 95 235 203 235c69 0 107 -35 146 -124zM428 297c39 -84 60 -111 106 -111c58 0 110 68 110 145
c0 48 -22 76 -59 76c-27 0 -64 -20 -95 -50zM339 299c-31 77 -62 111 -103 111c-58 0 -110 -69 -110 -146c0 -49 22 -78 60 -78c56 0 119 74 153 113z" />
    <glyph glyph-name="plusminus" unicode="&#xb1;" horiz-adv-x="724" 
d="M692 431l-20 -75h-225l-56 -220h-87l56 220h-225l20 75h224l56 218h87l-55 -218h225zM601 78l-20 -78h-537l21 78h536z" />
    <glyph glyph-name="lessequal" unicode="&#x2264;" horiz-adv-x="724" 
d="M709 653l-23 -89l-429 -179l337 -179l-21 -85l-408 223l22 87zM562 78l-20 -78h-466l20 78h466z" />
    <glyph glyph-name="greaterequal" unicode="&#x2265;" horiz-adv-x="724" 
d="M652 428l-22 -86l-522 -222l22 89l429 178l-337 179l21 86zM562 78l-20 -78h-466l20 78h466z" />
    <glyph glyph-name="yen" unicode="&#xa5;" horiz-adv-x="539" 
d="M639 648l-220 -289h102l-13 -52h-129l-55 -69h165l-12 -53h-166l-48 -185h-87l49 185h-177l13 53h177l-20 69h-139l13 52h112l-81 289h92l86 -331l244 331h94z" />
    <glyph glyph-name="mu" unicode="&#xb5;" horiz-adv-x="521" 
d="M527 500l-129 -500h-86l14 52c-58 -58 -115 -58 -135 -58c-30 0 -68 3 -93 43l-63 -243h-85l183 706h85l-84 -324c-5 -19 -10 -39 -10 -59c0 -67 60 -69 76 -69c13 0 41 1 74 18c64 33 76 79 89 131l79 303h85z" />
    <glyph glyph-name="partialdiff" unicode="&#x2202;" horiz-adv-x="540" 
d="M236 629l3 72c36 10 65 14 102 14c123 0 185 -67 185 -203c0 -86 -24 -214 -60 -313c-50 -140 -131 -209 -243 -209c-111 0 -181 67 -181 174c0 146 107 261 242 261c55 0 97 -17 138 -55c10 43 16 96 16 132c0 93 -40 139 -119 139c-24 0 -43 -2 -83 -12zM402 295
c-33 39 -75 59 -122 59c-84 0 -151 -85 -151 -191c0 -63 38 -103 99 -103c89 0 147 92 174 235z" />
    <glyph glyph-name="summation" unicode="&#x2211;" horiz-adv-x="595" 
d="M689 706l-19 -73h-442l208 -336l-371 -346h431l-19 -73h-541l19 76l370 347l-197 327l19 78h542z" />
    <glyph glyph-name="product" unicode="&#x220f;" horiz-adv-x="697" 
d="M747 706l-212 -828h-89l193 754h-372l-193 -754h-90l212 828h551z" />
    <glyph glyph-name="pi" unicode="&#x3c0;" horiz-adv-x="610" 
d="M609 500l-18 -70h-53l-75 -298c-5 -19 -8 -34 -8 -38c0 -17 6 -30 48 -30h10l-17 -64h-24c-78 0 -104 27 -104 71c0 15 3 34 10 62l75 297h-195l-110 -430h-84l110 430h-54l18 70h471z" />
    <glyph glyph-name="integral" unicode="&#x222b;" horiz-adv-x="340" 
d="M425 706l-19 -78c-18 14 -30 19 -47 19c-32 0 -46 -17 -61 -77l-149 -605c-27 -109 -68 -142 -152 -142c-23 0 -38 3 -60 12l20 79c17 -13 27 -17 43 -17c33 0 49 19 63 77l147 603c26 104 67 142 152 142c24 0 40 -3 63 -13z" />
    <glyph glyph-name="ordfeminine" unicode="&#xaa;" horiz-adv-x="333" 
d="M350 363h-42c-31 0 -32 12 -33 31c-16 -15 -51 -37 -94 -37c-49 0 -90 27 -90 83c0 109 104 118 201 129l27 3l5 20c3 11 6 23 6 35c0 46 -42 46 -54 46c-62 0 -77 -48 -83 -71h-62c13 57 44 109 146 109c77 0 116 -31 116 -80c0 -16 -2 -25 -6 -40l-43 -166
c-4 -15 -5 -22 -5 -30c0 -14 7 -18 14 -19zM310 535c-93 -8 -154 -20 -154 -91c0 -29 19 -45 47 -45c30 0 77 18 91 74z" />
    <glyph glyph-name="ordmasculine" unicode="&#xba;" horiz-adv-x="354" 
d="M418 596c0 -58 -23 -239 -185 -239c-72 0 -132 34 -132 120c0 17 7 235 194 235c33 0 123 -12 123 -116zM165 473c0 -61 41 -75 68 -75c64 0 95 50 116 143c5 22 8 41 8 61c0 59 -46 69 -67 69c-96 0 -125 -136 -125 -198z" />
    <glyph glyph-name="Omega" unicode="&#x2126;" horiz-adv-x="741" 
d="M652 66l-17 -66h-269l17 69c149 38 263 237 263 403c0 118 -67 187 -180 187c-86 0 -160 -43 -211 -123c-50 -78 -79 -178 -79 -269c0 -94 24 -161 112 -198l-17 -69h-270l17 66h167c-69 57 -98 123 -98 218c0 30 4 64 11 98c43 211 192 341 372 341
c163 0 264 -96 264 -250c0 -157 -94 -335 -251 -407h169z" />
    <glyph glyph-name="ae" unicode="&#xe6;" horiz-adv-x="801" 
d="M770 245h-334l-3 -12c-8 -44 -10 -55 -10 -82c0 -63 40 -108 109 -108c79 0 114 51 136 104h85c-25 -75 -69 -120 -133 -142c-41 -14 -81 -14 -98 -14c-80 0 -136 29 -166 82c-30 -29 -87 -82 -195 -82c-75 0 -139 33 -139 123c0 21 3 63 38 105c50 58 122 76 312 80
l10 40c6 23 7 37 7 48c-1 32 -18 73 -89 73c-70 0 -121 -42 -132 -107h-85c6 23 20 73 62 108c58 48 133 48 160 48c77 0 125 -19 148 -59c29 28 72 59 162 59c99 0 170 -47 170 -155c0 -22 -2 -58 -15 -109zM451 299h247c7 33 8 46 8 65c0 60 -35 95 -92 95
c-12 0 -51 -3 -84 -28c-53 -41 -75 -118 -79 -132zM343 185l14 63c-96 -4 -126 -6 -155 -15c-54 -16 -90 -55 -90 -114c0 -47 33 -76 84 -76c84 0 130 65 147 142z" />
    <glyph glyph-name="oslash" unicode="&#xf8;" horiz-adv-x="521" 
d="M541 494l-61 -61c11 -19 24 -44 24 -93c0 -65 -32 -173 -76 -243c-63 -100 -160 -106 -195 -106c-79 0 -120 29 -146 49l-62 -61l-27 27l65 64c-13 19 -25 44 -25 94c0 64 28 156 59 212c23 42 82 133 218 133c75 0 114 -29 139 -48l61 61zM120 127l288 288
c-5 7 -31 41 -88 41c-29 0 -81 -10 -125 -67s-77 -157 -77 -228c0 -11 1 -21 2 -34zM423 377l-289 -290c25 -25 49 -43 95 -43c76 0 116 60 126 77c35 57 70 154 70 221c0 12 -1 22 -2 35z" />
    <glyph glyph-name="questiondown" unicode="&#xbf;" horiz-adv-x="479" 
d="M317 557l23 91h98l-23 -91h-98zM315 484h73l-34 -131c-17 -1 -34 -2 -52 -4c-27 -3 -111 -14 -155 -91c-16 -29 -26 -66 -26 -99c0 -72 42 -111 100 -111c84 0 102 66 120 133h83c-12 -50 -25 -103 -63 -141c-48 -47 -121 -47 -138 -47c-111 0 -192 54 -192 163
c0 65 27 123 74 167c54 51 120 70 190 85z" />
    <glyph glyph-name="exclamdown" unicode="&#xa1;" horiz-adv-x="250" 
d="M263 648l-23 -91h-99l24 91h98zM207 485l-112 -485h-98l138 485h72z" />
    <glyph glyph-name="logicalnot" unicode="&#xac;" horiz-adv-x="724" 
d="M661 339l-82 -333h-91l64 257h-476l20 76h565z" />
    <glyph glyph-name="radical" unicode="&#x221a;" horiz-adv-x="725" 
d="M756 706l-480 -891h-84l-65 298l-73 -25l-21 65l159 54l58 -288l414 787h92z" />
    <glyph glyph-name="florin" unicode="&#x192;" horiz-adv-x="379" 
d="M448 641l-17 -63c-19 13 -37 18 -61 18c-56 0 -69 -47 -79 -86l-17 -64h94l-15 -61h-95l-106 -406c-11 -44 -36 -136 -154 -136c-14 0 -33 0 -57 5l15 59c11 -4 23 -6 32 -6c59 0 73 52 100 158l84 326h-79l16 61h78l21 75c13 45 36 135 154 135c41 0 65 -5 86 -15z" />
    <glyph glyph-name="approxequal" unicode="&#x2248;" horiz-adv-x="724" 
d="M666 477l33 -66c-79 -73 -132 -96 -186 -96c-33 0 -61 10 -114 38l-32 17c-40 21 -67 30 -95 30c-39 0 -61 -12 -133 -78l-32 67c71 71 114 96 181 96c34 0 61 -9 107 -33l56 -29c42 -22 53 -25 73 -25c43 0 77 18 142 79zM619 281l33 -66c-75 -68 -132 -96 -187 -96
c-32 0 -60 10 -113 38l-32 17c-40 21 -67 31 -95 31c-36 0 -65 -11 -133 -79l-32 67c71 71 115 97 180 97c37 0 60 -10 108 -34l56 -28c41 -20 53 -25 73 -25c43 0 75 16 142 78z" />
    <glyph glyph-name="Delta" unicode="&#x2206;" horiz-adv-x="660" 
d="M616 0h-682l448 706h89zM507 76l-100 531l-325 -531h425z" />
    <glyph glyph-name="guillemotleft" unicode="&#xab;" horiz-adv-x="375" 
d="M406 445l-156 -187l84 -184h-71l-82 184l149 187h76zM260 445l-156 -187l85 -184h-72l-81 184l148 187h76z" />
    <glyph glyph-name="guillemotright" unicode="&#xbb;" horiz-adv-x="375" 
d="M355 260l-148 -186h-76l156 186l-86 185h73zM210 260l-149 -186h-76l156 186l-85 185h72z" />
    <glyph glyph-name="ellipsis" unicode="&#x2026;" horiz-adv-x="1000" 
d="M842 86l-20 -86h-85l20 86h85zM508 86l-20 -86h-85l20 86h85zM175 86l-21 -86h-85l21 86h85z" />
    <glyph glyph-name="uni00A0" unicode="&#xa0;" 
 />
    <glyph glyph-name="Agrave" unicode="&#xc0;" horiz-adv-x="650" 
d="M593 0h-92l-29 271h-259l-169 -271h-96l452 706h114zM465 337l-29 287l-181 -287h210zM513 759h-63l-92 136h90z" />
    <glyph glyph-name="Atilde" unicode="&#xc3;" horiz-adv-x="650" 
d="M593 0h-92l-29 271h-259l-169 -271h-96l452 706h114zM465 337l-29 287l-181 -287h210zM632 886l-14 -52c-9 -35 -19 -75 -68 -75c-26 0 -47 13 -74 32l-26 19c-21 16 -30 22 -41 22c-18 0 -21 -21 -27 -45l-6 -26h-62l10 40c9 37 22 87 75 87c28 0 48 -12 73 -31l31 -23
c18 -13 28 -20 36 -20c15 0 20 22 25 44l6 28h62z" />
    <glyph glyph-name="Otilde" unicode="&#xd5;" horiz-adv-x="688" 
d="M65 215c0 94 39 230 67 296c55 129 141 206 308 206c79 0 140 -21 181 -54c64 -51 70 -120 70 -167c0 -54 -11 -107 -24 -160c-28 -113 -63 -210 -122 -267s-140 -79 -221 -79c-135 0 -259 53 -259 225zM163 205c0 -107 61 -156 159 -156c149 0 200 115 247 300
c12 45 25 102 25 159c0 89 -53 152 -155 152c-60 0 -113 -20 -157 -72c-78 -93 -119 -311 -119 -383zM631 886l-14 -52c-9 -35 -19 -75 -68 -75c-26 0 -47 13 -74 32l-26 19c-21 16 -30 22 -41 22c-18 0 -21 -21 -27 -45l-6 -26h-62l10 40c9 37 22 87 75 87
c28 0 48 -12 73 -31l31 -23c18 -13 28 -20 36 -20c15 0 20 22 25 44l6 28h62z" />
    <glyph glyph-name="OE" unicode="&#x152;" horiz-adv-x="1004" 
d="M953 69l-18 -69h-437l18 69c-38 -35 -92 -79 -208 -79c-173 0 -243 98 -243 225c0 75 38 304 151 416c85 84 189 86 232 86c98 0 176 -36 210 -98l23 87h381l-17 -68h-296l-61 -236h290l-18 -69h-290l-68 -264h351zM163 204c0 -89 42 -155 160 -155
c168 0 216 133 260 313c20 81 27 123 27 163c0 134 -139 135 -159 135c-85 0 -167 -36 -229 -195c-7 -17 -59 -155 -59 -261z" />
    <glyph glyph-name="oe" unicode="&#x153;" horiz-adv-x="854" 
d="M825 245h-336c-11 -45 -12 -71 -12 -94c0 -47 27 -108 111 -108c93 0 122 74 135 104h84c-6 -19 -20 -66 -63 -103c-28 -25 -75 -53 -161 -53c-92 0 -136 33 -167 79c-32 -36 -76 -79 -185 -79c-35 0 -189 1 -189 177c0 84 27 153 38 179c17 39 74 162 242 162
c75 0 128 -28 163 -79c27 38 86 79 177 79c14 0 81 0 127 -36c50 -39 51 -101 51 -124s-2 -54 -15 -104zM506 300h247c2 9 9 36 9 65c0 7 0 94 -96 94c-24 0 -69 -6 -109 -52c-31 -36 -43 -75 -51 -107zM423 348c0 84 -59 109 -103 109c-38 0 -101 -18 -144 -99
c-28 -52 -49 -138 -49 -197c0 -48 18 -118 108 -118c57 0 115 25 153 134c8 23 35 109 35 171z" />
    <glyph glyph-name="endash" unicode="&#x2013;" horiz-adv-x="500" 
d="M467 291l-17 -65h-397l17 65h397z" />
    <glyph glyph-name="emdash" unicode="&#x2014;" horiz-adv-x="908" 
d="M875 291l-17 -65h-805l17 65h805z" />
    <glyph glyph-name="quotedblleft" unicode="&#x201c;" horiz-adv-x="375" 
d="M464 706l-92 -133h50l-23 -88h-104l23 88l89 133h57zM296 706l-92 -133h50l-23 -88h-104l23 88l89 133h57z" />
    <glyph glyph-name="quotedblright" unicode="&#x201d;" horiz-adv-x="375" 
d="M449 706l-23 -88l-89 -132h-55l89 132h-48l23 88h103zM282 706l-22 -88l-90 -132h-55l90 132h-48l23 88h102z" />
    <glyph glyph-name="quoteleft" unicode="&#x2018;" horiz-adv-x="208" 
d="M296 706l-92 -133h50l-23 -88h-104l23 88l89 133h57z" />
    <glyph glyph-name="quoteright" unicode="&#x2019;" horiz-adv-x="208" 
d="M283 706l-23 -87l-89 -134h-57l91 134h-49l22 87h105z" />
    <glyph glyph-name="divide" unicode="&#xf7;" horiz-adv-x="724" 
d="M488 507l-25 -101h-103l25 101h103zM674 339l-20 -78h-566l20 78h566zM410 192l-25 -101h-103l25 101h103z" />
    <glyph glyph-name="lozenge" unicode="&#x25ca;" horiz-adv-x="724" 
d="M613 353l-271 -353h-85l-91 353l272 353h85zM526 360l-64 268l-207 -278l64 -270z" />
    <glyph glyph-name="ydieresis" unicode="&#xff;" horiz-adv-x="418" 
d="M486 500l-286 -532c-14 -26 -27 -49 -44 -75c-34 -52 -71 -101 -149 -101c-35 0 -70 13 -81 17l20 64c8 -4 35 -16 62 -16c15 0 33 4 48 15c22 16 59 69 59 124c0 16 -3 56 -5 72l-41 432h86l31 -429l218 429h82zM440 660l-21 -83h-86l21 83h86zM276 660l-22 -83h-85
l21 83h86z" />
    <glyph glyph-name="Ydieresis" unicode="&#x178;" horiz-adv-x="525" 
d="M669 706l-343 -447l-67 -259h-93l68 259l-126 447h99l94 -361l268 361h100zM544 860l-22 -83h-86l22 83h86zM379 860l-21 -83h-86l22 83h85z" />
    <glyph glyph-name="fraction" unicode="&#x2044;" horiz-adv-x="125" 
d="M-87 0h-54l411 648h53z" />
    <glyph glyph-name="Euro" unicode="&#x20ac;" horiz-adv-x="580" 
d="M530 419l-13 -52h-283c-6 -19 -12 -50 -15 -69h280l-15 -53h-269c-2 -16 -3 -36 -3 -50c0 -97 47 -146 159 -146c54 0 116 20 162 59l-25 -85c-53 -27 -116 -34 -170 -34c-150 0 -219 78 -219 220c0 11 1 23 2 35h-87l15 53h78c2 15 9 48 15 70h-76l15 52h72
c59 164 163 235 336 235c48 0 106 -13 140 -34l-23 -77c-29 39 -81 54 -126 54c-108 0 -185 -39 -233 -178h283z" />
    <glyph glyph-name="guilsinglleft" unicode="&#x2039;" horiz-adv-x="229" 
d="M260 445l-156 -187l85 -184h-72l-81 184l148 187h76z" />
    <glyph glyph-name="guilsinglright" unicode="&#x203a;" horiz-adv-x="229" 
d="M210 260l-149 -186h-76l156 186l-81 185h68z" />
    <glyph glyph-name="daggerdbl" unicode="&#x2021;" horiz-adv-x="417" 
d="M476 538l-15 -59h-145l-66 -253h145l-15 -59h-145l-43 -167h-78l43 167h-146l15 59h146l66 253h-146l15 59h146l43 168h78l-43 -168h145z" />
    <glyph glyph-name="periodcentered" unicode="&#xb7;" horiz-adv-x="208" 
d="M175 307l-24 -92h-97l24 92h97z" />
    <glyph glyph-name="quotesinglbase" unicode="&#x201a;" horiz-adv-x="208" 
d="M121 89l-23 -89l-89 -132h-55l89 132h-48l23 89h103z" />
    <glyph glyph-name="quotedblbase" unicode="&#x201e;" horiz-adv-x="375" 
d="M287 89l-23 -89l-89 -132h-55l90 132h-48l23 89h102zM121 89l-23 -89l-89 -132h-55l89 132h-48l23 89h103z" />
    <glyph glyph-name="perthousand" unicode="&#x2030;" horiz-adv-x="1125" 
d="M245 0h-54l411 648h53zM378 540c0 -62 -39 -246 -91 -300c-29 -30 -64 -40 -106 -40c-61 0 -118 27 -118 111c0 29 8 79 25 145c5 20 19 86 45 128c40 63 99 68 128 68c23 0 117 -2 117 -112zM315 552c0 48 -36 58 -55 58c-45 0 -64 -35 -74 -55
c-26 -51 -60 -200 -60 -250c0 -15 2 -63 56 -63c41 0 66 25 94 114c24 76 39 152 39 196zM782 334c0 -62 -39 -246 -91 -300c-29 -30 -64 -40 -106 -40c-61 0 -118 27 -118 111c0 29 8 79 25 145c5 20 19 86 45 128c40 63 99 68 128 68c23 0 117 -2 117 -112zM719 346
c0 48 -36 58 -55 58c-45 0 -64 -35 -74 -55c-26 -51 -60 -200 -60 -250c0 -15 2 -63 56 -63c41 0 66 25 94 114c24 76 39 152 39 196zM1113 334c0 -62 -39 -246 -91 -300c-29 -30 -64 -40 -106 -40c-61 0 -118 27 -118 111c0 29 8 79 25 145c5 20 19 86 45 128
c40 63 99 68 128 68c23 0 117 -2 117 -112zM1050 346c0 48 -36 58 -55 58c-45 0 -64 -35 -74 -55c-26 -51 -60 -200 -60 -250c0 -15 2 -63 56 -63c41 0 66 25 94 114c24 76 39 152 39 196z" />
    <glyph glyph-name="Acircumflex" unicode="&#xc2;" horiz-adv-x="650" 
d="M593 0h-92l-29 271h-259l-169 -271h-96l452 706h114zM465 337l-29 287l-181 -287h210zM579 759h-61l-28 98l-79 -98h-71l111 136h87z" />
    <glyph glyph-name="Ecircumflex" unicode="&#xca;" horiz-adv-x="525" 
d="M595 706l-18 -68h-292l-61 -236h286l-18 -68h-286l-68 -266h340l-17 -68h-438l183 706h389zM517 759h-61l-28 98l-79 -98h-71l111 136h87z" />
    <glyph glyph-name="Aacute" unicode="&#xc1;" horiz-adv-x="650" 
d="M593 0h-92l-29 271h-259l-169 -271h-96l452 706h114zM465 337l-29 287l-181 -287h210zM614 895l-142 -136h-71l109 136h104z" />
    <glyph glyph-name="Edieresis" unicode="&#xcb;" horiz-adv-x="525" 
d="M595 706l-18 -68h-292l-61 -236h286l-18 -68h-286l-68 -266h340l-17 -68h-438l183 706h389zM551 860l-22 -83h-86l22 83h86zM386 860l-21 -83h-86l22 83h85z" />
    <glyph glyph-name="Egrave" unicode="&#xc8;" horiz-adv-x="525" 
d="M595 706l-18 -68h-292l-61 -236h286l-18 -68h-286l-68 -266h340l-17 -68h-438l183 706h389zM444 759h-63l-92 136h90z" />
    <glyph glyph-name="Iacute" unicode="&#xcd;" horiz-adv-x="258" 
d="M305 706l-186 -706h-96l183 706h99zM426 895l-142 -136h-71l109 136h104z" />
    <glyph glyph-name="Icircumflex" unicode="&#xce;" horiz-adv-x="258" 
d="M305 706l-186 -706h-96l183 706h99zM381 759h-61l-28 98l-79 -98h-71l111 136h87z" />
    <glyph glyph-name="Idieresis" unicode="&#xcf;" horiz-adv-x="258" 
d="M305 706l-186 -706h-96l183 706h99zM416 860l-22 -83h-86l22 83h86zM251 860l-21 -83h-86l22 83h85z" />
    <glyph glyph-name="Igrave" unicode="&#xcc;" horiz-adv-x="258" 
d="M305 706l-186 -706h-96l183 706h99zM308 759h-63l-92 136h90z" />
    <glyph glyph-name="Oacute" unicode="&#xd3;" horiz-adv-x="688" 
d="M65 215c0 94 39 230 67 296c55 129 141 206 308 206c79 0 140 -21 181 -54c64 -51 70 -120 70 -167c0 -54 -11 -107 -24 -160c-28 -113 -63 -210 -122 -267s-140 -79 -221 -79c-135 0 -259 53 -259 225zM163 205c0 -107 61 -156 159 -156c149 0 200 115 247 300
c12 45 25 102 25 159c0 89 -53 152 -155 152c-60 0 -113 -20 -157 -72c-78 -93 -119 -311 -119 -383zM628 895l-142 -136h-71l109 136h104z" />
    <glyph glyph-name="Ocircumflex" unicode="&#xd4;" horiz-adv-x="688" 
d="M65 215c0 94 39 230 67 296c55 129 141 206 308 206c79 0 140 -21 181 -54c64 -51 70 -120 70 -167c0 -54 -11 -107 -24 -160c-28 -113 -63 -210 -122 -267s-140 -79 -221 -79c-135 0 -259 53 -259 225zM163 205c0 -107 61 -156 159 -156c149 0 200 115 247 300
c12 45 25 102 25 159c0 89 -53 152 -155 152c-60 0 -113 -20 -157 -72c-78 -93 -119 -311 -119 -383zM586 759h-61l-28 98l-79 -98h-71l111 136h87z" />
    <glyph glyph-name="Ograve" unicode="&#xd2;" horiz-adv-x="688" 
d="M65 215c0 94 39 230 67 296c55 129 141 206 308 206c79 0 140 -21 181 -54c64 -51 70 -120 70 -167c0 -54 -11 -107 -24 -160c-28 -113 -63 -210 -122 -267s-140 -79 -221 -79c-135 0 -259 53 -259 225zM163 205c0 -107 61 -156 159 -156c149 0 200 115 247 300
c12 45 25 102 25 159c0 89 -53 152 -155 152c-60 0 -113 -20 -157 -72c-78 -93 -119 -311 -119 -383zM527 759h-63l-92 136h90z" />
    <glyph glyph-name="Uacute" unicode="&#xda;" horiz-adv-x="675" 
d="M723 706l-124 -479c-13 -52 -32 -111 -68 -153c-69 -81 -186 -84 -229 -84c-163 0 -230 64 -230 168c0 32 10 72 20 112l113 436h97l-107 -416c-16 -63 -24 -97 -24 -129c0 -70 51 -109 144 -109c146 0 179 97 215 237l107 417h86zM635 895l-142 -136h-71l109 136h104z
" />
    <glyph glyph-name="Ucircumflex" unicode="&#xdb;" horiz-adv-x="675" 
d="M723 706l-124 -479c-13 -52 -32 -111 -68 -153c-69 -81 -186 -84 -229 -84c-163 0 -230 64 -230 168c0 32 10 72 20 112l113 436h97l-107 -416c-16 -63 -24 -97 -24 -129c0 -70 51 -109 144 -109c146 0 179 97 215 237l107 417h86zM590 759h-61l-28 98l-79 -98h-71
l111 136h87z" />
    <glyph glyph-name="Ugrave" unicode="&#xd9;" horiz-adv-x="675" 
d="M723 706l-124 -479c-13 -52 -32 -111 -68 -153c-69 -81 -186 -84 -229 -84c-163 0 -230 64 -230 168c0 32 10 72 20 112l113 436h97l-107 -416c-16 -63 -24 -97 -24 -129c0 -70 51 -109 144 -109c146 0 179 97 215 237l107 417h86zM516 759h-63l-92 136h90z" />
    <glyph glyph-name="dotlessi" unicode="&#x131;" horiz-adv-x="222" 
d="M227 500l-130 -500h-85l130 500h85z" />
    <glyph glyph-name="circumflex" unicode="&#x2c6;" 
d="M256 559h-61l-29 99l-79 -99h-72l112 136h88z" />
    <glyph glyph-name="tilde" unicode="&#x2dc;" 
d="M295 686l-14 -52c-10 -37 -19 -75 -68 -75c-27 0 -46 13 -69 29l-32 22c-22 15 -29 22 -40 22c-18 0 -22 -21 -27 -45l-6 -27h-63l10 40c10 39 21 88 75 88c26 0 47 -13 73 -32l30 -22c17 -12 28 -21 37 -21c12 0 20 15 26 45l6 28h62z" />
    <glyph glyph-name="macron" unicode="&#xaf;" 
d="M275 639l-14 -64h-265l14 64h265z" />
    <glyph glyph-name="breve" unicode="&#x2d8;" 
d="M201 678h63c-13 -45 -52 -119 -152 -119c-51 0 -105 28 -105 92c0 10 2 27 2 27h59c-1 -6 -2 -13 -2 -20c0 -36 26 -50 54 -50c56 0 75 53 81 70z" />
    <glyph glyph-name="dotaccent" unicode="&#x2d9;" 
d="M190 660l-22 -83h-87l22 83h87z" />
    <glyph glyph-name="ring" unicode="&#x2da;" 
d="M225 634c0 -52 -40 -91 -92 -91c-49 0 -87 39 -87 88c0 50 40 91 90 91c49 0 89 -38 89 -88zM180 633c0 23 -20 45 -44 45c-25 0 -45 -20 -45 -45c0 -23 18 -45 42 -45c26 0 47 18 47 45z" />
    <glyph glyph-name="cedilla" unicode="&#xb8;" 
d="M159 17l-21 -58c14 0 26 0 39 -3c19 -5 55 -25 55 -75c0 -66 -50 -103 -138 -103c-18 0 -42 1 -55 3l13 49c15 -2 31 -4 47 -4c32 0 71 13 71 52c0 42 -58 42 -84 42l33 97h40z" />
    <glyph glyph-name="hungarumlaut" unicode="&#x2dd;" 
d="M166 695l-143 -136h-66l110 136h99zM315 695l-143 -136h-66l110 136h99z" />
    <glyph glyph-name="ogonek" unicode="&#x2db;" 
d="M213 9v-9c-52 -37 -77 -62 -77 -89c0 -19 10 -36 43 -36c18 0 25 3 35 6l-14 -57c-11 -3 -29 -7 -55 -7c-61 0 -89 28 -89 64c0 44 68 98 103 119v9h54z" />
    <glyph glyph-name="caron" unicode="&#x2c7;" 
d="M255 695l-112 -136h-86l-41 136h60l29 -98l79 98h71z" />
    <glyph glyph-name="currency" unicode="&#xa4;" horiz-adv-x="674" 
d="M662 550l-79 -69c32 -56 42 -91 42 -141c0 -65 -19 -116 -63 -170l70 -81l-58 -49l-69 81c-56 -33 -87 -42 -139 -42c-68 0 -117 18 -171 63l-79 -70l-49 56l80 70c-31 50 -43 89 -43 141c0 67 18 114 64 169l-69 78l56 50l69 -78c49 30 89 42 143 42
c65 0 112 -17 170 -63l77 69zM550 342c0 106 -80 187 -184 187c-106 0 -187 -82 -187 -190c0 -109 81 -190 190 -190c107 0 181 90 181 193z" />
    <glyph glyph-name="afii61289" unicode="&#x2113;" horiz-adv-x="494" 
d="M383 123l50 -38c-66 -68 -114 -92 -181 -92c-96 0 -152 49 -152 134c0 17 1 26 6 48l-65 -32v68c27 13 41 19 84 42l58 214c41 151 97 189 182 189c78 0 127 -43 127 -111c0 -75 -50 -148 -118 -206c-46 -40 -80 -64 -172 -124l-6 -23c-6 -24 -9 -40 -9 -56
c0 -50 29 -79 79 -79c40 0 69 17 117 66zM224 296c129 97 193 172 193 247c0 35 -18 55 -52 55c-12 0 -25 -4 -36 -11c-22 -15 -32 -29 -57 -118z" />
    <glyph glyph-name="estimated" unicode="&#x212e;" horiz-adv-x="759" 
d="M758 300h-612c-3 -23 -3 -32 -3 -47c0 -123 90 -198 238 -198c120 0 214 52 264 145l94 -5c-60 -129 -191 -204 -361 -204c-205 0 -330 105 -330 275c0 221 160 390 404 390c202 0 312 -97 312 -274c0 -25 -1 -41 -6 -82zM159 369h508c2 18 2 33 2 42
c0 118 -77 185 -215 185c-154 0 -257 -79 -295 -227z" />
    <glyph glyph-name="acute.cap" 
d="M242 895l-142 -136h-71l109 136h104z" />
    <glyph glyph-name="breve.cap" 
d="M201 878h63c-13 -45 -52 -119 -152 -119c-51 0 -105 28 -105 92c0 10 2 27 2 27h59c-1 -6 -2 -13 -2 -20c0 -36 26 -50 54 -50c56 0 75 53 81 70z" />
    <glyph glyph-name="caron.cap" 
d="M255 895l-111 -136h-87l-41 136h60l29 -98l79 98h71z" />
    <glyph glyph-name="cedilla.cap" 
d="M159 17l-21 -58c14 0 26 0 39 -3c19 -5 55 -25 55 -75c0 -66 -50 -103 -138 -103c-18 0 -42 1 -55 3l13 49c15 -2 31 -4 47 -4c32 0 71 13 71 52c0 42 -58 42 -84 42l33 97h40z" />
    <glyph glyph-name="circumflex.cap" 
d="M255 759h-61l-28 98l-79 -98h-71l111 136h87z" />
    <glyph glyph-name="commaaccent" unicode="&#xf6c3;" 
d="M184 -121l-66 -108h-55l72 108h-48l23 89h97z" />
    <glyph glyph-name="dieresis.cap" 
d="M272 860l-22 -83h-86l22 83h86zM107 860l-21 -83h-86l22 83h85z" />
    <glyph glyph-name="dotaccent.cap" 
d="M189 860l-22 -83h-86l22 83h86z" />
    <glyph glyph-name="grave.cap" 
d="M213 759h-63l-92 136h90z" />
    <glyph glyph-name="hungarumlaut.cap" 
d="M166 895l-143 -136h-67l110 136h100zM315 895l-143 -136h-67l110 136h100z" />
    <glyph glyph-name="macron.cap" 
d="M275 839l-14 -64h-265l14 64h265z" />
    <glyph glyph-name="ring.cap" 
d="M225 834c0 -52 -41 -91 -92 -91c-49 0 -87 40 -87 88c0 51 39 91 90 91c49 0 89 -38 89 -88zM180 833c0 23 -21 45 -44 45c-25 0 -45 -20 -45 -45c0 -23 18 -45 42 -45c26 0 47 18 47 45z" />
    <glyph glyph-name="tilde.cap" 
d="M295 886l-14 -52c-9 -35 -19 -75 -68 -75c-26 0 -47 13 -74 32l-26 19c-21 16 -30 22 -41 22c-18 0 -21 -21 -27 -45l-6 -26h-62l10 40c9 37 22 87 75 87c28 0 48 -12 73 -31l31 -23c18 -13 28 -20 36 -20c15 0 20 22 25 44l6 28h62z" />
    <glyph glyph-name="caron.alt" 
d="M185 614l-67 -112h-56l70 112h-41l24 92h93z" />
    <glyph glyph-name="Eth" unicode="&#xd0;" horiz-adv-x="692" 
d="M23 0l89 345h-73l15 60h74l78 301h195c51 0 120 -1 171 -25c100 -47 115 -144 115 -211c0 -113 -48 -345 -194 -428c-69 -39 -153 -42 -219 -42h-251zM135 63h115c58 0 148 2 203 48c103 84 138 296 138 362c0 160 -115 169 -195 169h-111l-62 -237h180l-15 -60h-180z
" />
    <glyph glyph-name="eth" unicode="&#xf0;" horiz-adv-x="521" 
d="M218 583l-11 46h128c-3 8 -20 37 -55 77h90c32 -40 39 -56 52 -77h79l11 -46h-68c35 -77 55 -154 55 -232c0 -108 -38 -360 -269 -360c-105 0 -192 50 -192 174c0 132 72 344 266 344c41 0 69 -10 93 -19c-2 13 -12 53 -37 93h-142zM125 159c0 -93 61 -115 108 -115
c92 0 143 75 173 215c7 30 11 61 11 92c0 90 -69 106 -103 106c-41 0 -83 -15 -119 -60c-47 -59 -70 -179 -70 -238z" />
    <glyph glyph-name="Lslash" unicode="&#x141;" horiz-adv-x="504" 
d="M478 69l-18 -69h-424l77 296l-90 -63l23 89l90 63l83 321h97l-62 -239l154 106l-22 -89l-155 -106l-80 -309h327z" />
    <glyph glyph-name="lslash" unicode="&#x142;" horiz-adv-x="221" 
d="M287 501l-18 -69l-74 -53l-97 -379h-84l78 308l-73 -50l17 69l74 52l84 327h85l-65 -256z" />
    <glyph glyph-name="Scaron" unicode="&#x160;" horiz-adv-x="542" 
d="M27 212l88 -6s-3 -21 -3 -36c0 -92 83 -123 152 -123c115 0 147 88 147 133c0 76 -49 109 -118 147l-34 19c-44 25 -127 77 -127 182c0 123 96 189 234 189c37 0 208 -5 208 -169c0 -11 -1 -18 -3 -29h-85v26c0 106 -94 117 -123 117c-103 0 -139 -79 -139 -121
c0 -65 47 -96 108 -131l33 -19c56 -32 141 -80 141 -201c0 -85 -61 -201 -237 -201c-98 0 -247 26 -247 177c0 14 0 21 5 46zM545 895l-111 -136h-87l-41 136h60l29 -98l79 98h71z" />
    <glyph glyph-name="scaron" unicode="&#x161;" horiz-adv-x="417" 
d="M413 360l-73 4c1 7 2 16 2 22c0 55 -50 73 -90 73c-48 0 -83 -27 -83 -68c0 -42 34 -65 78 -93l36 -23c46 -29 88 -64 88 -131s-41 -153 -179 -153c-124 0 -186 59 -186 140c0 9 1 18 3 30l81 -5c-1 -8 -1 -12 -1 -18c0 -66 49 -97 105 -97c69 0 96 46 96 83
c0 49 -36 72 -78 99l-40 26c-35 23 -84 56 -84 124c0 63 44 136 166 136c84 0 161 -35 161 -122c0 -10 -1 -21 -2 -27zM431 695l-112 -136h-86l-41 136h60l29 -98l79 98h71z" />
    <glyph glyph-name="Yacute" unicode="&#xdd;" horiz-adv-x="525" 
d="M669 706l-343 -447l-67 -259h-93l68 259l-126 447h99l94 -361l268 361h100zM541 895l-142 -136h-71l109 136h104z" />
    <glyph glyph-name="yacute" unicode="&#xfd;" horiz-adv-x="418" 
d="M486 500l-286 -532c-14 -26 -27 -49 -44 -75c-34 -52 -71 -101 -149 -101c-35 0 -70 13 -81 17l20 64c8 -4 35 -16 62 -16c15 0 33 4 48 15c22 16 59 69 59 124c0 16 -3 56 -5 72l-41 432h86l31 -429l218 429h82zM439 695l-142 -136h-71l109 136h104z" />
    <glyph glyph-name="Thorn" unicode="&#xde;" horiz-adv-x="546" 
d="M270 580h67c74 0 145 0 195 -56c33 -36 40 -79 40 -115c0 -68 -21 -120 -37 -149c-65 -112 -173 -115 -260 -115h-117l-38 -145h-97l183 706h97zM253 514l-79 -305h93c32 0 72 1 103 13c106 42 108 170 108 185c0 83 -60 107 -120 107h-105z" />
    <glyph glyph-name="thorn" unicode="&#xfe;" horiz-adv-x="521" 
d="M197 706h86l-68 -263c70 60 137 66 160 66c57 0 136 -26 136 -149c0 -105 -56 -369 -255 -369c-49 0 -102 9 -143 58l-67 -255h-85zM191 352l-47 -184c-4 -17 -10 -40 -10 -51c0 -47 50 -78 99 -78c74 0 111 62 124 84c45 77 66 183 66 235c0 91 -61 100 -83 100
c-61 0 -120 -58 -149 -106z" />
    <glyph glyph-name="Zcaron" unicode="&#x17d;" horiz-adv-x="566" 
d="M635 706l-17 -66l-512 -570h430l-18 -70h-549l17 65l515 575h-377l17 66h494zM549 895l-111 -136h-87l-41 136h60l29 -98l79 98h71z" />
    <glyph glyph-name="zcaron" unicode="&#x17e;" horiz-adv-x="450" 
d="M474 500l-15 -56l-366 -385h292l-16 -59h-397l17 53l369 391h-263l14 56h365zM450 695l-112 -136h-86l-41 136h60l29 -98l79 98h71z" />
    <glyph glyph-name="onehalf" unicode="&#xbd;" horiz-adv-x="792" 
d="M187 0h-54l411 648h53zM292 655l-112 -449h-64l93 379h-85l11 43c54 6 101 12 157 27zM710 51l-13 -51h-294l13 51c46 45 82 72 131 113l37 31c87 73 115 100 115 151c0 55 -51 58 -65 58c-71 0 -82 -54 -94 -108h-63l1 5c11 54 31 146 162 146c57 0 125 -21 125 -106
c0 -66 -50 -112 -108 -159l-60 -48c-35 -28 -59 -49 -103 -83h216z" />
    <glyph glyph-name="onequarter" unicode="&#xbc;" horiz-adv-x="792" 
d="M627 648l-410 -648h-54l412 648h52zM318 655l-112 -449h-64l93 379h-85l11 43c54 6 101 12 157 27zM745 148l-13 -50h-49l-25 -98h-63l26 98h-187l9 37c60 91 135 200 201 307h74c-70 -105 -142 -211 -200 -294h116l41 158l63 5l-42 -163h49z" />
    <glyph glyph-name="onesuperior" unicode="&#xb9;" horiz-adv-x="333" 
d="M377 890l-112 -449h-64l93 379h-85l11 43c54 6 101 12 157 27z" />
    <glyph glyph-name="threequarters" unicode="&#xbe;" horiz-adv-x="792" 
d="M260 0h-54l412 648h52zM758 148l-13 -50h-49l-25 -98h-63l26 98h-187l9 37c60 91 135 200 201 307h74c-70 -105 -142 -211 -200 -294h116l41 158l63 5l-42 -163h49zM45 331h63v-14c0 -68 57 -73 77 -73c79 0 90 72 90 97c0 70 -65 71 -106 71h-25l11 44h46
c84 0 107 45 107 96c0 37 -25 58 -59 58c-62 0 -76 -48 -81 -73h-63c19 95 88 115 145 115c61 0 122 -27 122 -100c0 -24 -8 -101 -101 -122c28 -10 70 -31 70 -91c0 -55 -40 -139 -161 -139c-24 0 -136 2 -136 110c0 6 0 13 1 21z" />
    <glyph glyph-name="threesuperior" unicode="&#xb3;" horiz-adv-x="333" 
d="M104 566h63v-14c0 -68 57 -73 77 -73c79 0 90 72 90 97c0 70 -65 71 -106 71h-25l11 44h46c84 0 107 45 107 96c0 37 -25 58 -59 58c-62 0 -76 -48 -81 -73h-63c19 95 88 115 145 115c61 0 122 -27 122 -100c0 -24 -8 -101 -101 -122c28 -10 70 -31 70 -91
c0 -55 -40 -139 -161 -139c-24 0 -136 2 -136 110c0 6 0 13 1 21z" />
    <glyph glyph-name="twosuperior" unicode="&#xb2;" horiz-adv-x="333" 
d="M387 492l-13 -51h-294l13 51c46 45 82 72 131 113l37 31c87 73 115 100 115 151c0 55 -51 58 -65 58c-71 0 -82 -54 -94 -108h-63l1 5c11 54 31 146 162 146c57 0 125 -21 125 -106c0 -66 -50 -112 -108 -159l-60 -48c-35 -28 -59 -49 -103 -83h216z" />
    <glyph glyph-name="brokenbar" unicode="&#xa6;" horiz-adv-x="306" 
d="M322 706l-94 -363h-79l93 363h80zM197 222l-95 -363h-79l94 363h80z" />
    <glyph glyph-name="minus" unicode="&#x2212;" horiz-adv-x="724" 
d="M662 336l-20 -82h-540l20 82h540z" />
    <glyph glyph-name="multiply" unicode="&#xd7;" horiz-adv-x="724" 
d="M650 464l-207 -165l139 -179l-69 -55l-139 179l-204 -163l-45 57l204 164l-139 177l70 56l138 -178l206 165z" />
    <glyph glyph-name="uni00AD" unicode="&#xad;" horiz-adv-x="396" 
d="M363 291l-17 -65h-293l17 65h293z" />
    <glyph glyph-name="uni03BC" unicode="&#x3bc;" horiz-adv-x="521" 
d="M527 500l-129 -500h-86l14 52c-58 -58 -115 -58 -135 -58c-30 0 -68 3 -93 43l-63 -243h-85l183 706h85l-84 -324c-5 -19 -10 -39 -10 -59c0 -67 60 -69 76 -69c13 0 41 1 74 18c64 33 76 79 89 131l79 303h85z" />
    <glyph glyph-name="uni03A9" unicode="&#x3a9;" horiz-adv-x="741" 
d="M652 66l-17 -66h-269l17 69c149 38 263 237 263 403c0 118 -67 187 -180 187c-86 0 -160 -43 -211 -123c-50 -78 -79 -178 -79 -269c0 -94 24 -161 112 -198l-17 -69h-270l17 66h167c-69 57 -98 123 -98 218c0 30 4 64 11 98c43 211 192 341 372 341
c163 0 264 -96 264 -250c0 -157 -94 -335 -251 -407h169z" />
    <glyph glyph-name="uni0394" unicode="&#x394;" horiz-adv-x="660" 
d="M616 0h-682l448 706h89zM507 76l-100 531l-325 -531h425z" />
    <glyph glyph-name="uni2215" unicode="&#x2215;" horiz-adv-x="125" 
d="M-87 0h-54l411 648h53z" />
    <glyph glyph-name="uni2219" unicode="&#x2219;" horiz-adv-x="208" 
d="M175 307l-24 -92h-97l24 92h97z" />
    <glyph glyph-name="uni02C9" unicode="&#x2c9;" 
d="M275 639l-14 -64h-265l14 64h265z" />
    <glyph glyph-name="uni037E" unicode="&#x37e;" horiz-adv-x="250" 
d="M263 500l-25 -92h-97l24 92h98zM162 89l-23 -89l-89 -132h-55l89 132h-47l22 89h103z" />
    <glyph glyph-name="eth.sc" horiz-adv-x="564" 
d="M12 0l62 245h-63l14 55h63l56 219h140c65 0 140 -3 182 -28c52 -30 81 -88 81 -163c0 -93 -37 -198 -88 -249c-32 -32 -80 -57 -131 -68c-38 -8 -82 -11 -157 -11h-159zM215 462l-42 -162h175l-14 -55h-174l-48 -189h71c148 0 208 36 247 136c18 46 27 91 27 133
c0 91 -42 137 -153 137h-89z" />
    <glyph glyph-name="lslash.sc" horiz-adv-x="422" 
d="M190 309l168 99l-18 -68l-168 -97l-46 -184h260l-15 -59h-346l48 188l-61 -37l17 70l62 37l67 261h84z" />
    <glyph glyph-name="scaron.sc" horiz-adv-x="446" 
d="M464 381h-79v6c0 58 -38 90 -106 90c-61 0 -98 -31 -98 -81c0 -33 13 -51 63 -79l69 -39c64 -36 92 -77 92 -131c0 -96 -78 -157 -197 -157c-128 0 -199 52 -199 146c0 8 0 16 2 27h82c-1 -10 -1 -17 -1 -22c0 -61 45 -99 119 -99c67 0 110 34 110 88c0 33 -15 54 -56 78
l-71 41c-71 41 -96 77 -96 131c0 92 73 150 190 150c110 0 176 -50 176 -133v-16zM466 695l-112 -136h-86l-41 136h60l29 -98l79 98h71z" />
    <glyph glyph-name="yacute.sc" horiz-adv-x="484" 
d="M236 0h-86l48 189l-113 330h87l84 -258l207 258h92l-272 -331zM481 695l-142 -136h-71l109 136h104z" />
    <glyph glyph-name="thorn.sc" horiz-adv-x="463" 
d="M99 0h-85l132 519h83l-23 -94h93c74 0 163 -31 163 -137c0 -61 -25 -115 -68 -146c-41 -30 -91 -40 -191 -40h-78zM139 156h83c95 0 151 37 151 127c0 69 -43 87 -128 87h-51z" />
    <glyph glyph-name="zcaron.sc" horiz-adv-x="474" 
d="M424 0h-439l13 52l383 410h-298l14 57h401l-14 -54l-380 -406h336zM452 695l-112 -136h-86l-41 136h60l29 -98l79 98h71z" />
    <glyph glyph-name="numbersign.oldstyle" horiz-adv-x="535" 
d="M363 156l-48 -165h-57l47 165h-103l-48 -165h-59l48 165h-131l14 56h131l27 93h-130l15 57h130l47 165h59l-48 -165h105l48 165h56l-47 -165h123l-14 -57h-124l-27 -93h124l-14 -56h-124zM216 212h104l27 93h-104z" />
    <glyph glyph-name="dollar.oldstyle" horiz-adv-x="393" 
d="M277 599h52l-20 -79c30 -7 45 -12 76 -28l-15 -56c-57 28 -92 35 -129 35c-54 0 -86 -25 -86 -66c0 -22 11 -43 31 -60l91 -75c53 -43 74 -80 74 -125c0 -90 -72 -147 -189 -149l-24 -87h-55l24 91c-52 9 -69 15 -101 33l16 60c79 -36 97 -40 146 -40c65 0 106 29 106 76
c0 29 -14 47 -61 87l-68 58c-46 39 -67 76 -67 118c0 80 67 133 169 133h10z" />
    <glyph glyph-name="percent.oldstyle" horiz-adv-x="815" 
d="M56 256c0 61 22 154 47 199c26 47 69 72 131 72c73 0 121 -38 121 -111c0 -53 -21 -138 -46 -189c-25 -50 -65 -74 -125 -74c-77 0 -128 41 -128 103zM613 519l-329 -519h-54l330 519h53zM119 260c0 -40 23 -63 64 -63c27 0 49 15 63 41c19 35 45 140 45 184
c0 38 -19 61 -57 61c-69 0 -82 -58 -101 -135c-9 -38 -14 -64 -14 -88zM488 97c0 61 22 154 47 199c26 47 69 72 131 72c73 0 121 -38 121 -111c0 -53 -21 -138 -46 -189c-25 -50 -65 -74 -125 -74c-77 0 -128 41 -128 103zM551 101c0 -40 23 -63 64 -63c27 0 49 15 63 41
c19 35 45 133 45 184c0 38 -19 61 -57 61c-69 0 -82 -58 -101 -135c-9 -38 -14 -64 -14 -88z" />
    <glyph glyph-name="ampersand.sc" horiz-adv-x="527" 
d="M485 262l-16 -65c-13 -52 -33 -90 -66 -123l38 -74h-86l-14 29c-37 -25 -85 -38 -140 -38c-107 0 -173 56 -173 147c0 86 41 130 169 175c-19 41 -26 64 -26 92c0 77 55 126 142 126c78 0 125 -39 125 -103c0 -62 -40 -101 -149 -136l86 -167c13 20 29 70 42 137h68z
M270 333c68 21 100 51 100 93c0 36 -23 60 -59 60c-41 0 -67 -26 -67 -65c0 -26 6 -47 26 -88zM320 74l-103 197c-76 -29 -111 -62 -111 -121c0 -64 43 -106 110 -106c38 0 64 8 104 30z" />
    <glyph glyph-name="zero.oldstyle" horiz-adv-x="504" 
d="M45 161c0 100 39 272 136 337c33 22 78 33 129 33c113 0 175 -57 175 -162c0 -97 -34 -221 -78 -288c-41 -62 -102 -93 -184 -93c-104 0 -178 48 -178 173zM128 150c0 -72 33 -109 98 -109c41 0 71 15 90 42c46 62 86 198 86 293c0 67 -35 103 -98 103
c-42 0 -75 -17 -101 -53c-40 -55 -75 -208 -75 -276z" />
    <glyph glyph-name="one.oldstyle" horiz-adv-x="319" 
d="M166 0h-88l111 450h-127l14 54c71 7 154 20 225 39z" />
    <glyph glyph-name="two.oldstyle" horiz-adv-x="488" 
d="M429 68l-18 -67h-410l16 68l109 60c88 49 143 86 181 120c42 39 65 88 65 135c0 59 -35 92 -91 92c-69 0 -112 -48 -121 -136h-87c17 124 91 190 216 190c108 0 169 -54 169 -148c0 -81 -47 -144 -148 -214c-62 -43 -88 -59 -173 -100h292z" />
    <glyph glyph-name="three.oldstyle" horiz-adv-x="504" 
d="M146 183l15 56h33c115 0 185 41 185 143c0 61 -33 95 -90 95c-59 0 -101 -39 -115 -107h-85c21 107 94 161 209 161c104 0 166 -54 166 -145c0 -89 -62 -158 -158 -178c70 -12 112 -65 112 -141c0 -118 -93 -200 -227 -200c-120 0 -194 60 -194 158c0 9 0 16 2 28h85
c-1 -8 -1 -14 -1 -18c0 -69 42 -111 112 -111c84 0 135 59 135 145c0 81 -44 114 -152 114h-32z" />
    <glyph glyph-name="four.oldstyle" horiz-adv-x="494" 
d="M445 65l-17 -65h-78l-36 -143h-79l36 143h-283l11 48c102 148 194 277 312 471h92c-123 -184 -222 -332 -308 -454h191l61 235l82 7l-63 -242h79z" />
    <glyph glyph-name="five.oldstyle" horiz-adv-x="504" 
d="M474 449h-248l-53 -180c35 28 71 38 114 38c93 0 151 -62 151 -161c0 -163 -101 -279 -243 -279c-114 0 -180 56 -180 153c0 7 0 13 1 24h88c-1 -7 -1 -13 -1 -16c0 -69 34 -105 96 -105c89 0 153 92 153 220c0 69 -33 108 -91 108c-54 0 -97 -31 -121 -85h-73l101 353
h323z" />
    <glyph glyph-name="six.oldstyle" horiz-adv-x="504" 
d="M532 480h-84c1 14 1 20 1 29c0 56 -32 88 -88 88c-40 0 -76 -18 -101 -51c-31 -43 -45 -71 -79 -196c37 38 80 56 132 56c98 0 157 -58 157 -155c0 -66 -22 -137 -57 -183c-41 -55 -96 -80 -176 -80c-112 0 -173 59 -173 166c0 109 51 285 93 367c43 83 120 129 215 129
c99 0 161 -52 161 -134c0 -12 0 -22 -1 -36zM147 152c0 -70 35 -110 98 -110c91 0 138 102 138 208c0 69 -35 104 -93 104c-81 0 -143 -88 -143 -202z" />
    <glyph glyph-name="seven.oldstyle" horiz-adv-x="443" 
d="M97 -129h-100c112 191 226 376 337 579h-288l17 69h381l-16 -62c-102 -189 -216 -392 -331 -586z" />
    <glyph glyph-name="eight.oldstyle" horiz-adv-x="504" 
d="M352 334c66 -15 103 -61 103 -130c0 -128 -85 -216 -225 -216c-122 0 -193 58 -193 158c0 106 67 184 172 200c-55 18 -87 62 -87 122c0 108 84 182 206 182c112 0 179 -53 179 -142c0 -91 -63 -163 -155 -174zM424 508c0 61 -37 90 -97 90c-74 0 -121 -56 -121 -141
c0 -56 37 -89 98 -89c78 0 120 68 120 140zM124 145c0 -65 41 -104 109 -104c108 0 136 97 136 173c0 64 -40 100 -107 100c-82 0 -138 -69 -138 -169z" />
    <glyph glyph-name="nine.oldstyle" horiz-adv-x="504" 
d="M4 37h84c-1 -7 -2 -17 -2 -25c0 -59 34 -91 94 -91c93 0 137 83 179 250c-39 -42 -80 -59 -134 -59c-98 0 -156 59 -156 159c0 148 81 260 231 260c112 0 174 -60 174 -167c0 -93 -39 -259 -82 -351c-46 -98 -118 -146 -220 -146c-111 0 -169 50 -169 144c0 9 0 14 1 26z
M391 368c0 69 -35 108 -97 108c-92 0 -139 -103 -139 -210c0 -61 27 -102 92 -102c83 0 144 87 144 204z" />
    <glyph glyph-name="a.sc" horiz-adv-x="542" 
d="M487 0h-88l-30 192h-195l-128 -192h-93l349 519h97zM362 252l-29 191l-123 -191h152z" />
    <glyph glyph-name="b.sc" horiz-adv-x="490" 
d="M12 0l132 519h165c135 0 163 -59 163 -116c0 -64 -37 -107 -113 -130c64 -13 100 -55 100 -116c0 -46 -19 -87 -54 -115c-41 -32 -90 -42 -200 -42h-193zM109 55h80c61 0 88 2 112 9c44 14 69 47 69 93c0 76 -61 85 -132 85h-80zM171 294h76c79 0 139 28 139 99
c0 29 -12 52 -35 63c-19 9 -42 11 -102 11h-34z" />
    <glyph glyph-name="c.sc" horiz-adv-x="525" 
d="M529 357h-80c1 5 1 9 1 12c0 71 -41 108 -120 108c-49 0 -83 -15 -112 -50c-46 -56 -83 -170 -83 -259c0 -81 44 -125 124 -125c78 0 130 32 156 119h79c-24 -113 -108 -173 -242 -173c-132 0 -206 67 -206 187c0 87 33 194 80 259c47 64 113 95 206 95
c127 0 198 -55 198 -154c0 -5 0 -10 -1 -19z" />
    <glyph glyph-name="d.sc" horiz-adv-x="564" 
d="M12 0l132 519h188c125 0 215 -51 215 -191c0 -93 -37 -198 -88 -249c-32 -32 -80 -57 -131 -68c-38 -8 -82 -11 -157 -11h-159zM112 56h71c148 0 208 36 247 136c18 46 27 91 27 133c0 89 -39 137 -150 137h-92z" />
    <glyph glyph-name="e.sc" horiz-adv-x="442" 
d="M375 0h-363l132 519h320l-15 -59h-235l-42 -163h231l-14 -55h-231l-46 -184h278z" />
    <glyph glyph-name="f.sc" horiz-adv-x="409" 
d="M98 0h-86l132 519h319l-16 -59h-232l-45 -178h223l-15 -57h-223z" />
    <glyph glyph-name="g.sc" horiz-adv-x="560" 
d="M525 263l-68 -263h-74l13 46c-41 -41 -87 -56 -157 -56c-123 0 -193 68 -193 187c0 80 30 178 72 245c45 72 115 107 211 107c131 0 202 -55 202 -155c0 -4 0 -8 -1 -15h-82v13c0 67 -42 105 -118 105c-69 0 -115 -32 -147 -103c-29 -64 -49 -148 -49 -205
c0 -82 44 -125 126 -125c85 0 139 51 164 146l5 19h-129l14 54h211z" />
    <glyph glyph-name="h.sc" horiz-adv-x="555" 
d="M436 0h-86l60 242h-252l-60 -242h-86l132 519h85l-56 -222h252l56 222h87z" />
    <glyph glyph-name="i.sc" horiz-adv-x="216" 
d="M97 0h-85l132 519h85z" />
    <glyph glyph-name="j.sc" horiz-adv-x="339" 
d="M352 519l-86 -352c-32 -132 -80 -174 -182 -174c-44 0 -82 7 -126 25l22 59c37 -17 64 -25 95 -25s60 16 75 40c12 20 22 51 41 126l76 301h85z" />
    <glyph glyph-name="k.sc" horiz-adv-x="502" 
d="M297 310l168 -310h-91l-142 258l-91 -74l-47 -184h-82l132 519h82l-63 -243l288 243h96z" />
    <glyph glyph-name="l.sc" horiz-adv-x="422" 
d="M358 0h-346l133 519h84l-116 -461h260z" />
    <glyph glyph-name="m.sc" horiz-adv-x="714" 
d="M596 0h-85c15 58 114 450 123 479c-97 -160 -197 -319 -295 -479h-77c-41 405 -46 443 -47 480c-8 -37 -19 -75 -29 -112l-97 -368h-79l141 519h131c36 -354 39 -392 41 -430c86 145 175 287 263 430h139z" />
    <glyph glyph-name="n.sc" horiz-adv-x="557" 
d="M442 0h-97l-156 406l-100 -406h-77l132 519h91l157 -414l101 414h77z" />
    <glyph glyph-name="o.sc" horiz-adv-x="563" 
d="M46 185c0 84 31 184 77 247c48 65 118 97 215 97c138 0 209 -65 209 -191c0 -82 -27 -175 -70 -242c-46 -71 -118 -106 -217 -106c-136 0 -214 71 -214 195zM460 346c0 88 -41 130 -127 130c-53 0 -98 -21 -127 -61c-42 -58 -72 -158 -72 -237c0 -86 46 -134 125 -134
c57 0 103 22 132 63c38 55 69 163 69 239z" />
    <glyph glyph-name="p.sc" horiz-adv-x="461" 
d="M96 0h-84l132 519h125c95 0 130 -7 163 -30s52 -63 52 -107c0 -61 -26 -114 -69 -146c-40 -30 -91 -40 -191 -40h-78zM161 250h80c129 0 153 68 153 126c0 36 -14 63 -40 75c-21 10 -42 13 -98 13h-41z" />
    <glyph glyph-name="q.sc" horiz-adv-x="559" 
d="M548 -96h-86c-10 56 -41 93 -106 100c-37 -11 -57 -14 -93 -14c-138 0 -218 70 -218 192c0 86 30 184 76 247c49 68 118 100 216 100c139 0 210 -64 210 -191c0 -106 -49 -241 -118 -295c76 -16 108 -59 119 -139zM460 347c0 85 -43 129 -125 129
c-58 0 -102 -21 -131 -64c-41 -61 -70 -157 -70 -232c0 -88 44 -136 125 -136c57 0 102 22 131 63c38 54 70 165 70 240z" />
    <glyph glyph-name="r.sc" horiz-adv-x="505" 
d="M144 519h147c151 0 199 -42 199 -127c0 -83 -56 -137 -153 -147c49 -7 71 -33 83 -93l12 -61c9 -45 18 -70 35 -91h-94c-15 16 -22 37 -33 99l-8 46c-12 69 -49 79 -143 79h-35l-57 -224h-85zM168 277h64c118 0 168 34 168 112c0 55 -31 77 -110 77h-75z" />
    <glyph glyph-name="s.sc" horiz-adv-x="446" 
d="M464 381h-79v6c0 58 -38 90 -106 90c-61 0 -98 -31 -98 -81c0 -33 13 -51 63 -79l69 -39c64 -36 92 -77 92 -131c0 -96 -78 -157 -197 -157c-128 0 -199 52 -199 146c0 8 0 16 2 27h82c-1 -10 -1 -17 -1 -22c0 -61 45 -99 119 -99c67 0 110 34 110 88c0 33 -15 54 -56 78
l-71 41c-71 41 -96 77 -96 131c0 92 73 150 190 150c110 0 176 -50 176 -133v-16z" />
    <glyph glyph-name="t.sc" horiz-adv-x="423" 
d="M210 0h-86l118 461h-170l15 58h409l-14 -58h-155z" />
    <glyph glyph-name="u.sc" horiz-adv-x="546" 
d="M562 519l-86 -351c-32 -132 -101 -176 -235 -176c-89 0 -193 24 -193 132c0 31 8 61 15 91l75 304h87l-73 -298c-8 -32 -15 -65 -15 -93c0 -64 61 -80 114 -80c55 0 106 23 129 76c13 30 21 65 29 97l73 298h80z" />
    <glyph glyph-name="v.sc" horiz-adv-x="479" 
d="M231 0h-104l-40 519h87c10 -146 21 -289 29 -435l260 435h90z" />
    <glyph glyph-name="w.sc" horiz-adv-x="711" 
d="M516 0h-117c6 342 6 379 6 417c-16 -37 -35 -71 -220 -417h-115l20 519h85s-13 -354 -21 -452c40 86 231 452 231 452h94c-2 -151 -2 -301 -7 -452c71 149 146 302 219 452h87z" />
    <glyph glyph-name="x.sc" horiz-adv-x="481" 
d="M429 0h-92l-94 212l-200 -212h-98l268 276l-113 243h94l81 -186l174 186h94l-239 -250z" />
    <glyph glyph-name="y.sc" horiz-adv-x="484" 
d="M236 0h-86l48 189l-113 330h87l84 -258l207 258h92l-272 -331z" />
    <glyph glyph-name="z.sc" horiz-adv-x="474" 
d="M424 0h-439l13 52l383 410h-298l14 57h401l-14 -54l-380 -406h336z" />
    <glyph glyph-name="aacute.sc" horiz-adv-x="542" 
d="M487 0h-88l-30 192h-195l-128 -192h-93l349 519h97zM362 252l-29 191l-123 -191h152zM515 695l-142 -136h-71l109 136h104z" />
    <glyph glyph-name="agrave.sc" horiz-adv-x="542" 
d="M487 0h-88l-30 192h-195l-128 -192h-93l349 519h97zM362 252l-29 191l-123 -191h152zM391 559h-64l-93 136h91z" />
    <glyph glyph-name="acircumflex.sc" horiz-adv-x="542" 
d="M487 0h-88l-30 192h-195l-128 -192h-93l349 519h97zM362 252l-29 191l-123 -191h152zM465 559h-61l-29 99l-79 -99h-72l112 136h88z" />
    <glyph glyph-name="adieresis.sc" horiz-adv-x="542" 
d="M487 0h-88l-30 192h-195l-128 -192h-93l349 519h97zM362 252l-29 191l-123 -191h152zM499 660l-21 -83h-86l21 83h86zM335 660l-22 -83h-85l21 83h86z" />
    <glyph glyph-name="atilde.sc" horiz-adv-x="542" 
d="M487 0h-88l-30 192h-195l-128 -192h-93l349 519h97zM362 252l-29 191l-123 -191h152zM516 686l-14 -52c-10 -37 -19 -75 -68 -75c-27 0 -46 13 -69 29l-32 22c-22 15 -29 22 -40 22c-18 0 -22 -21 -27 -45l-6 -27h-63l10 40c10 39 21 88 75 88c26 0 47 -13 73 -32l30 -22
c17 -12 28 -21 37 -21c12 0 20 15 26 45l6 28h62z" />
    <glyph glyph-name="aring.sc" horiz-adv-x="542" 
d="M487 0h-88l-30 192h-195l-128 -192h-93l349 519h97zM362 252l-29 191l-123 -191h152zM447 635c0 -52 -40 -91 -92 -91c-49 0 -87 39 -87 88c0 50 40 91 90 91c49 0 89 -38 89 -88zM402 634c0 23 -20 45 -44 45c-25 0 -45 -20 -45 -45c0 -23 18 -45 42 -45
c26 0 47 18 47 45z" />
    <glyph glyph-name="ccedilla.sc" horiz-adv-x="525" 
d="M208 -42h5c58 0 88 -26 88 -77c0 -65 -50 -104 -134 -104c-9 0 -25 0 -58 3l13 49c18 -2 28 -3 41 -3c50 0 76 17 76 49s-22 44 -84 44l26 78c-87 19 -135 83 -135 179c0 87 33 194 80 259c47 64 113 95 206 95c127 0 198 -55 198 -154c0 -5 0 -11 -1 -19h-80
c1 5 1 9 1 12c0 71 -41 108 -120 108c-49 0 -83 -15 -112 -50c-46 -56 -83 -170 -83 -259c0 -81 45 -126 124 -126c77 0 130 34 156 120h79c-25 -114 -108 -173 -245 -173c-12 0 -17 1 -30 2z" />
    <glyph glyph-name="eacute.sc" horiz-adv-x="442" 
d="M375 0h-363l132 519h320l-15 -59h-235l-42 -163h231l-14 -55h-231l-46 -184h278zM464 695l-142 -136h-71l109 136h104z" />
    <glyph glyph-name="egrave.sc" horiz-adv-x="442" 
d="M375 0h-363l132 519h320l-15 -59h-235l-42 -163h231l-14 -55h-231l-46 -184h278zM340 559h-64l-93 136h91z" />
    <glyph glyph-name="ecircumflex.sc" horiz-adv-x="442" 
d="M375 0h-363l132 519h320l-15 -59h-235l-42 -163h231l-14 -55h-231l-46 -184h278zM427 559h-61l-29 99l-79 -99h-72l112 136h88z" />
    <glyph glyph-name="edieresis.sc" horiz-adv-x="442" 
d="M375 0h-363l132 519h320l-15 -59h-235l-42 -163h231l-14 -55h-231l-46 -184h278zM459 660l-21 -83h-86l21 83h86zM295 660l-22 -83h-85l21 83h86z" />
    <glyph glyph-name="iacute.sc" horiz-adv-x="216" 
d="M97 0h-85l132 519h85zM361 695l-142 -136h-71l109 136h104z" />
    <glyph glyph-name="igrave.sc" horiz-adv-x="216" 
d="M97 0h-85l132 519h85zM229 559h-64l-93 136h91z" />
    <glyph glyph-name="icircumflex.sc" horiz-adv-x="216" 
d="M97 0h-85l132 519h85zM306 559h-61l-29 99l-79 -99h-72l112 136h88z" />
    <glyph glyph-name="idieresis.sc" horiz-adv-x="216" 
d="M97 0h-85l132 519h85zM341 660l-21 -83h-86l21 83h86zM177 660l-22 -83h-85l21 83h86z" />
    <glyph glyph-name="ntilde.sc" horiz-adv-x="557" 
d="M442 0h-97l-156 406l-100 -406h-77l132 519h91l157 -414l101 414h77zM531 686l-14 -52c-10 -37 -19 -75 -68 -75c-27 0 -46 13 -69 29l-32 22c-22 15 -29 22 -40 22c-18 0 -22 -21 -27 -45l-6 -27h-63l10 40c10 39 21 88 75 88c26 0 47 -13 73 -32l30 -22
c17 -12 28 -21 37 -21c12 0 20 15 26 45l6 28h62z" />
    <glyph glyph-name="oacute.sc" horiz-adv-x="563" 
d="M46 185c0 84 31 184 77 247c48 65 118 97 215 97c138 0 209 -65 209 -191c0 -82 -27 -175 -70 -242c-46 -71 -118 -106 -217 -106c-136 0 -214 71 -214 195zM460 346c0 88 -41 130 -127 130c-53 0 -98 -21 -127 -61c-42 -58 -72 -158 -72 -237c0 -86 46 -134 125 -134
c57 0 103 22 132 63c38 55 69 163 69 239zM506 695l-142 -136h-71l109 136h104z" />
    <glyph glyph-name="ograve.sc" horiz-adv-x="563" 
d="M46 185c0 84 31 184 77 247c48 65 118 97 215 97c138 0 209 -65 209 -191c0 -82 -27 -175 -70 -242c-46 -71 -118 -106 -217 -106c-136 0 -214 71 -214 195zM460 346c0 88 -41 130 -127 130c-53 0 -98 -21 -127 -61c-42 -58 -72 -158 -72 -237c0 -86 46 -134 125 -134
c57 0 103 22 132 63c38 55 69 163 69 239zM384 559h-64l-93 136h91z" />
    <glyph glyph-name="ocircumflex.sc" horiz-adv-x="563" 
d="M46 185c0 84 31 184 77 247c48 65 118 97 215 97c138 0 209 -65 209 -191c0 -82 -27 -175 -70 -242c-46 -71 -118 -106 -217 -106c-136 0 -214 71 -214 195zM460 346c0 88 -41 130 -127 130c-53 0 -98 -21 -127 -61c-42 -58 -72 -158 -72 -237c0 -86 46 -134 125 -134
c57 0 103 22 132 63c38 55 69 163 69 239zM473 559h-61l-29 99l-79 -99h-72l112 136h88z" />
    <glyph glyph-name="odieresis.sc" horiz-adv-x="563" 
d="M46 185c0 84 31 184 77 247c48 65 118 97 215 97c138 0 209 -65 209 -191c0 -82 -27 -175 -70 -242c-46 -71 -118 -106 -217 -106c-136 0 -214 71 -214 195zM460 346c0 88 -41 130 -127 130c-53 0 -98 -21 -127 -61c-42 -58 -72 -158 -72 -237c0 -86 46 -134 125 -134
c57 0 103 22 132 63c38 55 69 163 69 239zM504 660l-21 -83h-86l21 83h86zM340 660l-22 -83h-85l21 83h86z" />
    <glyph glyph-name="otilde.sc" horiz-adv-x="563" 
d="M46 185c0 84 31 184 77 247c48 65 118 97 215 97c138 0 209 -65 209 -191c0 -82 -27 -175 -70 -242c-46 -71 -118 -106 -217 -106c-136 0 -214 71 -214 195zM460 346c0 88 -41 130 -127 130c-53 0 -98 -21 -127 -61c-42 -58 -72 -158 -72 -237c0 -86 46 -134 125 -134
c57 0 103 22 132 63c38 55 69 163 69 239zM521 686l-14 -52c-10 -37 -19 -75 -68 -75c-27 0 -46 13 -69 29l-32 22c-22 15 -29 22 -40 22c-18 0 -22 -21 -27 -45l-6 -27h-63l10 40c10 39 21 88 75 88c26 0 47 -13 73 -32l30 -22c17 -12 28 -21 37 -21c12 0 20 15 26 45l6 28
h62z" />
    <glyph glyph-name="uacute.sc" horiz-adv-x="546" 
d="M562 519l-86 -351c-32 -132 -101 -176 -235 -176c-89 0 -193 24 -193 132c0 31 8 61 15 91l75 304h87l-73 -298c-8 -32 -15 -65 -15 -93c0 -64 61 -80 114 -80c55 0 106 23 129 76c13 30 21 65 29 97l73 298h80zM512 695l-142 -136h-71l109 136h104z" />
    <glyph glyph-name="ugrave.sc" horiz-adv-x="546" 
d="M562 519l-86 -351c-32 -132 -101 -176 -235 -176c-89 0 -193 24 -193 132c0 31 8 61 15 91l75 304h87l-73 -298c-8 -32 -15 -65 -15 -93c0 -64 61 -80 114 -80c55 0 106 23 129 76c13 30 21 65 29 97l73 298h80zM393 559h-64l-93 136h91z" />
    <glyph glyph-name="ucircumflex.sc" horiz-adv-x="546" 
d="M562 519l-86 -351c-32 -132 -101 -176 -235 -176c-89 0 -193 24 -193 132c0 31 8 61 15 91l75 304h87l-73 -298c-8 -32 -15 -65 -15 -93c0 -64 61 -80 114 -80c55 0 106 23 129 76c13 30 21 65 29 97l73 298h80zM463 559h-61l-29 99l-79 -99h-72l112 136h88z" />
    <glyph glyph-name="udieresis.sc" horiz-adv-x="546" 
d="M562 519l-86 -351c-32 -132 -101 -176 -235 -176c-89 0 -193 24 -193 132c0 31 8 61 15 91l75 304h87l-73 -298c-8 -32 -15 -65 -15 -93c0 -64 61 -80 114 -80c55 0 106 23 129 76c13 30 21 65 29 97l73 298h80zM504 660l-21 -83h-86l21 83h86zM340 660l-22 -83h-85
l21 83h86z" />
    <glyph glyph-name="cent.oldstyle" horiz-adv-x="432" 
d="M287 510h53l-20 -78c73 -15 107 -54 107 -122c0 -9 0 -15 -1 -28h-77v25c0 51 -26 75 -81 75c-42 0 -75 -16 -98 -47c-33 -46 -59 -134 -59 -199c0 -57 37 -94 96 -94c55 0 89 27 110 86h80c-34 -103 -99 -137 -192 -137l-23 -90h-54l25 93c-72 12 -122 59 -122 136
c0 104 46 217 108 265c36 28 72 40 130 41z" />
    <glyph glyph-name="sterling.oldstyle" horiz-adv-x="454" 
d="M449 517l-18 -63c-23 15 -43 21 -71 21c-79 0 -109 -48 -138 -177l-10 -45h146l-15 -59h-144c-20 -76 -33 -101 -91 -138h295l-16 -56h-402l15 56c62 19 103 53 120 138h-83l15 59h82l13 56c21 92 37 130 67 165c34 39 86 58 148 58c34 0 58 -3 87 -15z" />
    <glyph glyph-name="germandbls.sc" horiz-adv-x="892" 
d="M464 381h-79v6c0 58 -38 90 -106 90c-61 0 -98 -31 -98 -81c0 -33 13 -51 63 -79l69 -39c64 -36 92 -77 92 -131c0 -96 -78 -157 -197 -157c-128 0 -199 52 -199 146c0 8 0 16 2 27h82c-1 -10 -1 -17 -1 -22c0 -61 45 -99 119 -99c67 0 110 34 110 88c0 33 -15 54 -56 78
l-71 41c-71 41 -96 77 -96 131c0 92 73 150 190 150c110 0 176 -50 176 -133v-16zM910 381h-79v6c0 58 -38 90 -106 90c-61 0 -98 -31 -98 -81c0 -33 13 -51 63 -79l69 -39c64 -36 92 -77 92 -131c0 -96 -78 -157 -197 -157c-128 0 -199 52 -199 146c0 8 0 16 2 27h82
c-1 -10 -1 -17 -1 -22c0 -61 45 -99 119 -99c67 0 110 34 110 88c0 33 -15 54 -56 78l-71 41c-71 41 -96 77 -96 131c0 92 73 150 190 150c110 0 176 -50 176 -133v-16z" />
    <glyph glyph-name="yen.oldstyle" horiz-adv-x="487" 
d="M538 519l-179 -223h74l-14 -54h-99l-46 -61h129l-13 -52h-130l-33 -129h-79l33 129h-130l14 52h130l-15 61h-100l14 54h71l-61 223h82l65 -256l194 256h93z" />
    <glyph glyph-name="ae.sc" horiz-adv-x="760" 
d="M698 0h-361l58 231h-164l-178 -231h-95l401 519h423l-15 -59h-230l-42 -165h225l-13 -53h-226l-46 -184h278zM409 284l48 182h-55l-136 -182h143z" />
    <glyph glyph-name="oslash.sc" horiz-adv-x="563" 
d="M551 547l26 -28l-62 -61c23 -35 32 -70 32 -119c0 -83 -27 -176 -70 -243c-46 -71 -118 -106 -217 -106c-69 0 -117 16 -160 53l-61 -61l-27 27l64 64c-21 30 -30 66 -30 113c0 82 31 183 77 246c48 65 118 97 215 97c64 0 113 -14 151 -43zM139 134l299 300
c-23 28 -57 42 -104 42c-54 0 -99 -21 -128 -61c-42 -58 -72 -157 -72 -239c0 -17 1 -25 5 -42zM454 398l-300 -301c24 -37 56 -53 105 -53c57 0 103 22 132 63c38 55 69 163 69 240c0 22 -1 31 -6 51z" />
    <glyph glyph-name="florin.oldstyle" horiz-adv-x="324" 
d="M374 525l-16 -62c-16 9 -34 12 -49 12c-34 0 -52 -17 -69 -84l-12 -49h85l-15 -59h-85l-69 -279c-29 -116 -63 -139 -137 -139c-22 0 -44 2 -68 7l15 62c22 -6 33 -8 46 -8c42 0 49 9 74 106l64 250h-74l15 59h73l13 52c26 101 60 141 140 141c23 0 47 -2 69 -9z" />
    <glyph glyph-name="oe.sc" horiz-adv-x="822" 
d="M773 57l-14 -57h-360l10 42c-41 -35 -84 -49 -151 -49c-128 0 -201 70 -201 193c0 83 31 180 76 243c46 65 116 97 209 97c86 0 138 -25 171 -81l18 74h313l-15 -59h-235l-40 -164h228l-14 -55h-229l-47 -184h281zM473 349c0 84 -43 129 -125 129c-56 0 -99 -20 -129 -61
c-42 -58 -72 -157 -72 -239c0 -85 45 -133 125 -133c57 0 103 22 132 64c37 54 69 164 69 240z" />
    <glyph glyph-name="ydieresis.sc" horiz-adv-x="484" 
d="M236 0h-86l48 189l-113 330h87l84 -258l207 258h92l-272 -331zM469 660l-21 -83h-86l21 83h86zM305 660l-22 -83h-85l21 83h86z" />
    <glyph glyph-name="Euro.oldstyle" horiz-adv-x="497" 
d="M460 353l-15 -55h-250c-6 -17 -11 -42 -14 -60h248l-13 -53h-240c-1 -14 -2 -26 -2 -35c0 -75 50 -109 147 -109c47 0 97 16 138 48l-23 -74c-47 -19 -97 -26 -145 -26c-130 0 -198 63 -198 165c0 9 1 23 2 30h-77l13 53h69c2 12 8 43 13 61h-67l17 55h65
c52 128 140 176 281 176c42 0 82 -9 124 -28l-21 -66c-33 32 -73 44 -109 44c-74 0 -148 -15 -192 -126h249z" />
    <glyph glyph-name="f_i.sc" horiz-adv-x="625" 
d="M98 0h-86l132 519h319l-16 -59h-232l-45 -178h223l-15 -57h-223zM506 0h-85l132 519h85z" />
    <glyph glyph-name="f_l.sc" horiz-adv-x="831" 
d="M98 0h-86l132 519h319l-16 -59h-232l-45 -178h223l-15 -57h-223zM767 0h-346l133 519h84l-116 -461h260z" />
    <glyph glyph-name="periodcentered.sc" horiz-adv-x="208" 
d="M175 304l-24 -93h-96l24 93h96z" />
    <glyph glyph-name="perthousand.oldstyle" horiz-adv-x="1146" 
d="M56 256c0 61 22 154 47 199c26 47 69 72 131 72c73 0 121 -38 121 -111c0 -53 -21 -138 -46 -189c-25 -50 -65 -74 -125 -74c-77 0 -128 41 -128 103zM613 519l-329 -519h-54l330 519h53zM119 260c0 -40 23 -63 64 -63c27 0 49 15 63 41c19 35 45 140 45 184
c0 38 -19 61 -57 61c-69 0 -82 -58 -101 -135c-9 -38 -14 -64 -14 -88zM488 97c0 61 22 154 47 199c26 47 69 72 131 72c73 0 121 -38 121 -111c0 -53 -21 -138 -46 -189c-25 -50 -65 -74 -125 -74c-77 0 -128 41 -128 103zM551 101c0 -40 23 -63 64 -63c27 0 49 15 63 41
c19 35 45 133 45 184c0 38 -19 61 -57 61c-69 0 -82 -58 -101 -135c-9 -38 -14 -64 -14 -88zM819 97c0 61 22 154 47 199c26 47 69 72 131 72c73 0 121 -38 121 -111c0 -53 -21 -138 -46 -189c-25 -50 -65 -74 -125 -74c-77 0 -128 41 -128 103zM882 101
c0 -40 23 -63 64 -63c27 0 49 15 63 41c19 35 45 133 45 184c0 38 -19 61 -57 61c-69 0 -82 -58 -101 -135c-9 -38 -14 -64 -14 -88z" />
    <glyph glyph-name="acute.sc" 
d="M242 695l-142 -136h-71l109 136h104z" />
    <glyph glyph-name="breve.sc" 
d="M201 678h63c-13 -45 -52 -119 -152 -119c-51 0 -105 28 -105 92c0 10 2 27 2 27h59c-1 -6 -2 -13 -2 -20c0 -36 26 -50 54 -50c56 0 75 53 81 70z" />
    <glyph glyph-name="caron.sc" 
d="M255 695l-112 -136h-86l-41 136h60l29 -98l79 98h71z" />
    <glyph glyph-name="cedilla.sc" 
d="M159 17l-21 -58c14 0 26 0 39 -3c19 -5 55 -25 55 -75c0 -66 -50 -103 -138 -103c-18 0 -42 1 -55 3l13 49c15 -2 31 -4 47 -4c32 0 71 13 71 52c0 42 -58 42 -84 42l33 97h40z" />
    <glyph glyph-name="circumflex.sc" 
d="M256 559h-61l-29 99l-79 -99h-72l112 136h88z" />
    <glyph glyph-name="commaaccent.sc" 
d="M184 -121l-66 -108h-55l72 108h-48l23 89h97z" />
    <glyph glyph-name="dieresis.sc" 
d="M271 660l-21 -83h-86l21 83h86zM107 660l-22 -83h-85l21 83h86z" />
    <glyph glyph-name="dotaccent.sc" 
d="M190 660l-22 -83h-87l22 83h87z" />
    <glyph glyph-name="grave.sc" 
d="M214 559h-64l-93 136h91z" />
    <glyph glyph-name="hungarumlaut.sc" 
d="M166 695l-143 -136h-66l110 136h99zM315 695l-143 -136h-66l110 136h99z" />
    <glyph glyph-name="macron.sc" 
d="M275 639l-14 -64h-265l14 64h265z" />
    <glyph glyph-name="ogonek.sc" 
d="M213 9v-9c-52 -37 -77 -62 -77 -89c0 -19 10 -36 43 -36c18 0 25 3 35 6l-14 -57c-11 -3 -29 -7 -55 -7c-61 0 -89 28 -89 64c0 44 68 98 103 119v9h54z" />
    <glyph glyph-name="ring.sc" 
d="M225 635c0 -52 -40 -91 -92 -91c-49 0 -87 39 -87 88c0 50 40 91 90 91c49 0 89 -38 89 -88zM180 634c0 23 -20 45 -44 45c-25 0 -45 -20 -45 -45c0 -23 18 -45 42 -45c26 0 47 18 47 45z" />
    <glyph glyph-name="tilde.sc" 
d="M295 686l-14 -52c-10 -37 -19 -75 -68 -75c-27 0 -46 13 -69 29l-32 22c-22 15 -29 22 -40 22c-18 0 -22 -21 -27 -45l-6 -27h-63l10 40c10 39 21 88 75 88c26 0 47 -13 73 -32l30 -22c17 -12 28 -21 37 -21c12 0 20 15 26 45l6 28h62z" />
    <glyph glyph-name="exclam.sc" horiz-adv-x="221" 
d="M143 168h-70c2 14 67 295 81 351h93c-17 -57 -100 -337 -104 -351zM136 92l-24 -92h-97l24 92h97z" />
    <glyph glyph-name="question.sc" horiz-adv-x="377" 
d="M174 165h-79l26 103c108 3 197 39 197 140c0 43 -26 65 -79 65c-64 0 -97 -56 -104 -115h-83c19 100 70 170 202 170c91 0 150 -42 150 -115c0 -121 -96 -183 -217 -193zM172 92l-24 -92h-96l24 92h96z" />
    <glyph glyph-name="exclamdown.sc" horiz-adv-x="221" 
d="M106 350h69c-2 -14 -67 -295 -81 -350h-93c17 56 100 336 105 350zM113 427l24 92h96l-24 -92h-96z" />
    <glyph glyph-name="questiondown.sc" horiz-adv-x="377" 
d="M233 355h79l-26 -103c-108 -3 -197 -39 -197 -140c0 -43 26 -65 79 -65c64 0 97 56 104 115h83c-19 -100 -70 -170 -202 -170c-91 0 -150 42 -150 115c0 121 96 183 217 193zM235 427l24 92h96l-24 -92h-96z" />
    <glyph glyph-name="onethird" unicode="&#x2153;" horiz-adv-x="792" 
d="M208 0h-54l411 648h53zM308 655l-112 -449h-64l93 379h-85l11 43c54 6 101 12 157 27zM438 125h63v-14c0 -68 57 -73 77 -73c79 0 90 72 90 97c0 70 -65 71 -106 71h-25l11 44h46c84 0 107 45 107 96c0 37 -25 58 -59 58c-62 0 -76 -48 -81 -73h-63c19 95 88 115 145 115
c61 0 122 -27 122 -100c0 -24 -8 -101 -101 -122c28 -10 70 -31 70 -91c0 -55 -40 -139 -161 -139c-24 0 -136 2 -136 110c0 6 0 13 1 21z" />
    <glyph glyph-name="twothirds" unicode="&#x2154;" horiz-adv-x="792" 
d="M267 0h-54l411 648h53zM480 125h63v-14c0 -68 57 -73 77 -73c79 0 90 72 90 97c0 70 -65 71 -106 71h-25l11 44h46c84 0 107 45 107 96c0 37 -25 58 -59 58c-62 0 -76 -48 -81 -73h-63c19 95 88 115 145 115c61 0 122 -27 122 -100c0 -24 -8 -101 -101 -122
c28 -10 70 -31 70 -91c0 -55 -40 -139 -161 -139c-24 0 -136 2 -136 110c0 6 0 13 1 21zM330 257l-13 -51h-294l13 51c46 45 82 72 131 113l37 31c87 73 115 100 115 151c0 55 -51 58 -65 58c-71 0 -82 -54 -94 -108h-63l1 5c11 54 31 146 162 146c57 0 125 -21 125 -106
c0 -66 -50 -112 -108 -159l-60 -48c-35 -28 -59 -49 -103 -83h216z" />
    <glyph glyph-name="oneeighth" unicode="&#x215b;" horiz-adv-x="792" 
d="M198 0h-54l411 648h53zM301 655l-112 -449h-64l93 379h-85l11 43c54 6 101 12 157 27zM668 230c51 -17 61 -55 61 -83c0 -48 -15 -153 -148 -153c-87 0 -144 38 -144 109c0 76 46 129 107 138c-21 8 -49 27 -49 74s29 131 142 131c97 0 129 -46 129 -95
c0 -68 -47 -112 -98 -121zM664 153c0 21 -7 61 -68 61c-23 0 -54 -8 -74 -39c-14 -22 -21 -59 -21 -75c0 -45 31 -65 70 -65c85 0 93 92 93 118zM704 349c0 46 -30 59 -61 59c-78 0 -86 -81 -86 -98c0 -35 19 -55 59 -55c85 0 88 81 88 94z" />
    <glyph glyph-name="threeeighths" unicode="&#x215c;" horiz-adv-x="792" 
d="M246 0h-54l411 648h53zM698 230c51 -17 61 -55 61 -83c0 -48 -23 -153 -156 -153c-87 0 -136 38 -136 109c0 76 46 129 107 138c-21 8 -49 27 -49 74s29 131 142 131c97 0 129 -46 129 -95c0 -68 -47 -112 -98 -121zM694 153c0 21 -7 61 -68 61c-23 0 -54 -8 -74 -39
c-14 -22 -21 -59 -21 -75c0 -45 31 -65 70 -65c85 0 93 92 93 118zM734 349c0 46 -30 59 -61 59c-78 0 -86 -81 -86 -98c0 -35 19 -55 59 -55c85 0 88 81 88 94zM39 331h63v-14c0 -68 57 -73 77 -73c79 0 90 72 90 97c0 70 -65 71 -106 71h-25l11 44h46c84 0 107 45 107 96
c0 37 -25 58 -59 58c-62 0 -76 -48 -81 -73h-63c19 95 88 115 145 115c61 0 122 -27 122 -100c0 -24 -8 -101 -101 -122c28 -10 70 -31 70 -91c0 -55 -40 -139 -161 -139c-24 0 -136 2 -136 110c0 6 0 13 1 21z" />
    <glyph glyph-name="fiveeighths" unicode="&#x215d;" horiz-adv-x="792" 
d="M245 0h-54l411 648h53zM698 230c51 -17 61 -55 61 -83c0 -48 -23 -153 -156 -153c-87 0 -136 38 -136 109c0 76 46 129 107 138c-21 8 -49 27 -49 74s29 131 142 131c97 0 129 -46 129 -95c0 -68 -47 -112 -98 -121zM694 153c0 21 -7 61 -68 61c-23 0 -54 -8 -74 -39
c-14 -22 -21 -59 -21 -75c0 -45 31 -65 70 -65c85 0 93 92 93 118zM734 349c0 46 -30 59 -61 59c-78 0 -86 -81 -86 -98c0 -35 19 -55 59 -55c85 0 88 81 88 94zM368 595h-181c-12 -40 -20 -72 -31 -111c14 10 40 20 74 20c23 0 111 -5 111 -114c0 -25 -5 -190 -173 -190
c-98 0 -122 57 -122 99c0 12 0 19 1 26h61c-1 -9 -1 -13 -1 -19c0 -19 10 -63 63 -63c99 0 106 125 106 149s-5 69 -62 69c-37 0 -65 -20 -81 -57h-55l71 244h233z" />
    <glyph glyph-name="seveneighths" unicode="&#x215e;" horiz-adv-x="792" 
d="M212 0h-54l411 648h53zM679 230c51 -17 61 -55 61 -83c0 -48 -23 -153 -156 -153c-87 0 -136 38 -136 109c0 76 46 129 107 138c-21 8 -49 27 -49 74s29 131 142 131c97 0 129 -46 129 -95c0 -68 -47 -112 -98 -121zM675 153c0 21 -7 61 -68 61c-23 0 -54 -8 -74 -39
c-14 -22 -21 -59 -21 -75c0 -45 31 -65 70 -65c85 0 93 92 93 118zM715 349c0 46 -30 59 -61 59c-78 0 -86 -81 -86 -98c0 -35 19 -55 59 -55c85 0 88 81 88 94zM104 597l14 52h292l-11 -48c-82 -141 -184 -310 -237 -395h-77c92 142 187 295 240 391h-221z" />
    <glyph glyph-name="onefifth" horiz-adv-x="792" 
d="M202 0h-54l411 648h53zM767 389h-181c-12 -40 -20 -72 -31 -111c14 10 40 20 74 20c23 0 111 -5 111 -114c0 -25 -5 -190 -173 -190c-98 0 -122 57 -122 99c0 12 0 19 1 26h61c-1 -9 -1 -13 -1 -19c0 -19 10 -63 63 -63c99 0 106 125 106 149s-5 69 -62 69
c-37 0 -65 -20 -81 -57h-55l71 244h233zM302 655l-112 -449h-64l93 379h-85l11 43c54 6 101 12 157 27z" />
    <glyph glyph-name="twofifths" horiz-adv-x="792" 
d="M263 0h-54l411 648h53zM810 389h-181c-12 -40 -20 -72 -31 -111c14 10 40 20 74 20c23 0 111 -5 111 -114c0 -25 -5 -190 -173 -190c-98 0 -122 57 -122 99c0 12 0 19 1 26h61c-1 -9 -1 -13 -1 -19c0 -19 10 -63 63 -63c99 0 106 125 106 149s-5 69 -62 69
c-37 0 -65 -20 -81 -57h-55l71 244h233zM327 257l-13 -51h-294l13 51c46 45 82 72 131 113l37 31c87 73 115 100 115 151c0 55 -51 58 -65 58c-71 0 -82 -54 -94 -108h-63l1 5c11 54 31 146 162 146c57 0 125 -21 125 -106c0 -66 -50 -112 -108 -159l-60 -48
c-35 -28 -59 -49 -103 -83h216z" />
    <glyph glyph-name="threefifths" horiz-adv-x="792" 
d="M256 0h-54l411 648h53zM803 389h-181c-12 -40 -20 -72 -31 -111c14 10 40 20 74 20c23 0 111 -5 111 -114c0 -25 -5 -190 -173 -190c-98 0 -122 57 -122 99c0 12 0 19 1 26h61c-1 -9 -1 -13 -1 -19c0 -19 10 -63 63 -63c99 0 106 125 106 149s-5 69 -62 69
c-37 0 -65 -20 -81 -57h-55l71 244h233zM44 331h63v-14c0 -68 57 -73 77 -73c79 0 90 72 90 97c0 70 -65 71 -106 71h-25l11 44h46c84 0 107 45 107 96c0 37 -25 58 -59 58c-62 0 -76 -48 -81 -73h-63c19 95 88 115 145 115c61 0 122 -27 122 -100c0 -24 -8 -101 -101 -122
c28 -10 70 -31 70 -91c0 -55 -40 -139 -161 -139c-24 0 -136 2 -136 110c0 6 0 13 1 21z" />
    <glyph glyph-name="fourfifths" horiz-adv-x="792" 
d="M262 0h-54l411 648h53zM813 389h-181c-12 -40 -20 -72 -31 -111c14 10 40 20 74 20c23 0 111 -5 111 -114c0 -25 -5 -190 -173 -190c-98 0 -122 57 -122 99c0 12 0 19 1 26h61c-1 -9 -1 -13 -1 -19c0 -19 10 -63 63 -63c99 0 106 125 106 149s-5 69 -62 69
c-37 0 -65 -20 -81 -57h-55l71 244h233zM354 354l-13 -50h-49l-25 -98h-63l26 98h-187l9 37c60 91 135 200 201 307h74c-70 -105 -142 -211 -200 -294h116l41 158l63 5l-42 -163h49z" />
    <glyph glyph-name="zero.numerator" horiz-adv-x="333" 
d="M378 540c0 -62 -39 -246 -91 -300c-29 -30 -64 -40 -106 -40c-61 0 -118 27 -118 111c0 29 8 79 25 145c5 20 19 86 45 128c40 63 99 68 128 68c23 0 117 -2 117 -112zM315 552c0 48 -36 58 -55 58c-45 0 -64 -35 -74 -55c-26 -51 -60 -200 -60 -250c0 -15 2 -63 56 -63
c41 0 66 25 94 114c24 76 39 152 39 196z" />
    <glyph glyph-name="one.numerator" horiz-adv-x="333" 
d="M317 655l-112 -449h-64l93 379h-85l11 43c54 6 101 12 157 27z" />
    <glyph glyph-name="two.numerator" horiz-adv-x="333" 
d="M327 257l-13 -51h-294l13 51c46 45 82 72 131 113l37 31c87 73 115 100 115 151c0 55 -51 58 -65 58c-71 0 -82 -54 -94 -108h-63l1 5c11 54 31 146 162 146c57 0 125 -21 125 -106c0 -66 -50 -112 -108 -159l-60 -48c-35 -28 -59 -49 -103 -83h216z" />
    <glyph glyph-name="three.numerator" horiz-adv-x="333" 
d="M44 331h63v-14c0 -68 57 -73 77 -73c79 0 90 72 90 97c0 70 -65 71 -106 71h-25l11 44h46c84 0 107 45 107 96c0 37 -25 58 -59 58c-62 0 -76 -48 -81 -73h-63c19 95 88 115 145 115c61 0 122 -27 122 -100c0 -24 -8 -101 -101 -122c28 -10 70 -31 70 -91
c0 -55 -40 -139 -161 -139c-24 0 -136 2 -136 110c0 6 0 13 1 21z" />
    <glyph glyph-name="four.numerator" horiz-adv-x="333" 
d="M354 354l-13 -50h-49l-25 -98h-63l26 98h-187l9 37c60 91 135 200 201 307h74c-70 -105 -142 -211 -200 -294h116l41 158l63 5l-42 -163h49z" />
    <glyph glyph-name="five.numerator" horiz-adv-x="333" 
d="M375 595h-181c-12 -40 -20 -72 -31 -111c14 10 40 20 74 20c23 0 111 -5 111 -114c0 -25 -5 -190 -173 -190c-98 0 -122 57 -122 99c0 12 0 19 1 26h61c-1 -9 -1 -13 -1 -19c0 -19 10 -63 63 -63c99 0 106 125 106 149s-5 69 -62 69c-37 0 -65 -20 -81 -57h-55l71 244
h233z" />
    <glyph glyph-name="six.numerator" horiz-adv-x="333" 
d="M389 532h-64c1 7 1 17 1 23c0 26 -12 56 -63 56c-74 0 -94 -70 -117 -151c16 13 42 28 86 28c67 0 110 -38 110 -104c0 -41 -15 -184 -160 -184c-82 0 -128 39 -128 117c0 53 27 146 33 167c39 131 95 168 177 168c44 0 126 -12 126 -97c0 -13 0 -19 -1 -23zM279 383
c0 45 -30 64 -66 64c-90 0 -97 -114 -97 -134c0 -57 34 -71 65 -71c83 0 98 107 98 141z" />
    <glyph glyph-name="seven.numerator" horiz-adv-x="333" 
d="M105 597l14 52h292l-11 -48c-82 -141 -184 -310 -237 -395h-77c92 142 187 295 240 391h-221z" />
    <glyph glyph-name="eight.numerator" horiz-adv-x="333" 
d="M274 436c51 -17 61 -55 61 -83c0 -48 -23 -153 -156 -153c-87 0 -136 38 -136 109c0 76 46 129 107 138c-21 8 -49 27 -49 74s29 131 142 131c97 0 129 -46 129 -95c0 -68 -47 -112 -98 -121zM270 359c0 21 -7 61 -68 61c-23 0 -54 -8 -74 -39c-14 -22 -21 -59 -21 -75
c0 -45 31 -65 70 -65c85 0 93 92 93 118zM310 555c0 46 -30 59 -61 59c-78 0 -86 -81 -86 -98c0 -35 19 -55 59 -55c85 0 88 81 88 94z" />
    <glyph glyph-name="nine.numerator" horiz-adv-x="333" 
d="M287 400c-18 -19 -46 -34 -90 -34c-94 0 -109 67 -109 107c0 60 29 179 159 179c80 0 128 -39 128 -119c0 -52 -25 -142 -32 -164c-35 -110 -83 -169 -175 -169c-64 0 -128 22 -128 99c0 12 0 16 1 22h64c-1 -8 -1 -16 -1 -19c0 -30 13 -59 62 -59c69 0 101 67 121 157z
M314 544c0 59 -42 69 -65 69c-94 0 -98 -132 -98 -146c0 -28 14 -61 65 -61c78 0 98 85 98 138z" />
    <glyph glyph-name="period.numerator" horiz-adv-x="141" 
d="M127 274l-18 -68h-73l18 68h73z" />
    <glyph glyph-name="comma.numerator" horiz-adv-x="141" 
d="M127 272l-16 -63l-62 -92h-42l59 89h-32l18 66h75z" />
    <glyph glyph-name="hyphen.numerator" horiz-adv-x="268" 
d="M291 408l-14 -49h-202l12 49h204z" />
    <glyph glyph-name="parenleft.numerator" horiz-adv-x="254" 
d="M252 149l-11 -38c-90 5 -138 60 -138 145c0 31 5 61 8 75c13 60 50 209 75 262c40 85 120 96 175 96c8 0 16 0 30 -1l-12 -43c-41 0 -96 -6 -130 -55c-22 -32 -43 -114 -51 -145c-23 -89 -37 -152 -37 -188c0 -82 53 -101 91 -108z" />
    <glyph glyph-name="parenright.numerator" horiz-adv-x="254" 
d="M109 649l11 39c91 -5 138 -61 138 -145c0 -32 -5 -62 -8 -75c-14 -61 -49 -210 -74 -262c-42 -87 -120 -96 -177 -96c-7 0 -17 0 -29 2l12 41c42 0 95 2 131 56c19 29 43 114 51 145c23 89 36 152 36 188c0 81 -53 100 -91 107z" />
    <glyph glyph-name="dollar.numerator" horiz-adv-x="310" 
d="M113 130l20 75c-33 6 -59 15 -85 28l14 52c33 -19 75 -36 123 -36c40 0 82 20 82 68c0 30 -14 49 -56 85l-27 23c-58 49 -72 81 -72 121c0 32 24 107 136 107h8l16 61h47l-17 -66c19 -3 44 -10 65 -20l-15 -51c-31 21 -70 32 -105 32c-29 0 -72 -14 -72 -58
c0 -32 28 -58 51 -78l32 -27c42 -35 76 -72 76 -120c0 -20 -6 -63 -46 -93c-41 -31 -87 -32 -108 -32l-19 -71h-48z" />
    <glyph glyph-name="cent.numerator" horiz-adv-x="329" 
d="M185 133h-49l19 70c-81 14 -88 78 -88 113c0 45 18 118 44 161c32 53 77 78 134 78l14 55h48l-15 -59c78 -18 79 -80 79 -94c0 -11 -1 -21 -2 -29h-63c2 9 3 19 3 30c0 49 -36 53 -58 53c-32 0 -51 -14 -63 -27c-33 -36 -54 -131 -54 -170c0 -61 38 -71 66 -71
c57 0 73 42 83 71h64c-21 -77 -73 -114 -144 -114z" />
    <glyph glyph-name="sterling.numerator" horiz-adv-x="368" 
d="M382 256l-12 -50h-332l12 44c55 11 86 62 103 118h-74l13 49h74l12 51c26 110 66 186 184 186c33 0 53 -4 69 -9l-13 -56c-16 11 -36 17 -60 17c-75 0 -101 -65 -119 -147l-9 -42h117l-13 -49h-117c-17 -49 -39 -84 -87 -112h252z" />
    <glyph glyph-name="yen.numerator" horiz-adv-x="371" 
d="M478 649l-140 -184h67l-12 -47h-89l-38 -50h114l-11 -44h-118l-30 -118h-64l30 118h-119l11 44h119l-13 50h-93l12 47h68l-51 184h66l56 -225l162 225h73z" />
    <glyph glyph-name="Euro.numerator" horiz-adv-x="444" 
d="M456 506l-14 -47h-210c-5 -16 -9 -36 -11 -51h208l-12 -45h-201c-2 -9 -2 -23 -2 -30c0 -65 43 -91 123 -91c40 0 82 14 118 41l-20 -66c-41 -16 -78 -22 -120 -22c-112 0 -170 54 -170 141c0 8 0 20 1 26h-66l12 45h58c2 14 7 36 12 52h-58l15 47h55
c41 110 116 151 237 151c33 0 68 -7 107 -24l-18 -59c-29 27 -63 37 -93 37c-61 0 -123 -12 -161 -105h210z" />
    <glyph glyph-name="florin.numerator" horiz-adv-x="284" 
d="M249 514h69l-12 -49h-69l-64 -250c-12 -46 -30 -115 -114 -115c-10 0 -28 1 -43 4l14 49c9 -3 16 -4 22 -4c39 0 48 32 66 101l55 215h-57l14 49h55l13 47c9 33 25 93 106 93c30 0 45 -3 62 -9l-12 -50c-17 9 -27 12 -45 12c-25 0 -41 -20 -50 -55z" />
    <glyph glyph-name="zero.denominator" horiz-adv-x="333" 
d="M325 334c0 -62 -39 -246 -91 -300c-29 -30 -64 -40 -106 -40c-61 0 -118 27 -118 111c0 29 8 79 25 145c5 20 19 86 45 128c40 63 99 68 128 68c23 0 117 -2 117 -112zM262 346c0 48 -36 58 -55 58c-45 0 -64 -35 -74 -55c-26 -51 -60 -200 -60 -250c0 -15 2 -63 56 -63
c41 0 66 25 94 114c24 76 39 152 39 196z" />
    <glyph glyph-name="one.denominator" horiz-adv-x="333" 
d="M264 449l-112 -449h-64l93 379h-85l11 43c54 6 101 12 157 27z" />
    <glyph glyph-name="two.denominator" horiz-adv-x="333" 
d="M274 51l-13 -51h-294l13 51c46 45 82 72 131 113l37 31c87 73 115 100 115 151c0 55 -51 58 -65 58c-71 0 -82 -54 -94 -108h-63l1 5c11 54 31 146 162 146c57 0 125 -21 125 -106c0 -66 -50 -112 -108 -159l-60 -48c-35 -28 -59 -49 -103 -83h216z" />
    <glyph glyph-name="three.denominator" horiz-adv-x="333" 
d="M-9 125h63v-14c0 -68 57 -73 77 -73c79 0 90 72 90 97c0 70 -65 71 -106 71h-25l11 44h46c84 0 107 45 107 96c0 37 -25 58 -59 58c-62 0 -76 -48 -81 -73h-63c19 95 88 115 145 115c61 0 122 -27 122 -100c0 -24 -8 -101 -101 -122c28 -10 70 -31 70 -91
c0 -55 -40 -139 -161 -139c-24 0 -136 2 -136 110c0 6 0 13 1 21z" />
    <glyph glyph-name="four.denominator" horiz-adv-x="333" 
d="M301 148l-13 -50h-49l-25 -98h-63l26 98h-187l9 37c60 91 135 200 201 307h74c-70 -105 -142 -211 -200 -294h116l41 158l63 5l-42 -163h49z" />
    <glyph glyph-name="five.denominator" horiz-adv-x="333" 
d="M322 389h-181c-12 -40 -20 -72 -31 -111c14 10 40 20 74 20c23 0 111 -5 111 -114c0 -25 -5 -190 -173 -190c-98 0 -122 57 -122 99c0 12 0 19 1 26h61c-1 -9 -1 -13 -1 -19c0 -19 10 -63 63 -63c99 0 106 125 106 149s-5 69 -62 69c-37 0 -65 -20 -81 -57h-55l71 244
h233z" />
    <glyph glyph-name="six.denominator" horiz-adv-x="333" 
d="M336 326h-64c1 7 1 17 1 23c0 26 -12 56 -63 56c-74 0 -94 -70 -117 -151c16 13 42 28 86 28c67 0 110 -38 110 -104c0 -41 -15 -184 -160 -184c-82 0 -128 39 -128 117c0 53 27 146 33 167c39 131 95 168 177 168c44 0 126 -12 126 -97c0 -13 0 -19 -1 -23zM226 177
c0 45 -30 64 -66 64c-90 0 -97 -114 -97 -134c0 -57 34 -71 65 -71c83 0 98 107 98 141z" />
    <glyph glyph-name="seven.denominator" horiz-adv-x="333" 
d="M52 391l14 52h292l-11 -48c-82 -141 -184 -310 -237 -395h-77c92 142 187 295 240 391h-221z" />
    <glyph glyph-name="eight.denominator" horiz-adv-x="333" 
d="M221 230c51 -17 61 -55 61 -83c0 -48 -23 -153 -156 -153c-87 0 -136 38 -136 109c0 76 46 129 107 138c-21 8 -49 27 -49 74s29 131 142 131c97 0 129 -46 129 -95c0 -68 -47 -112 -98 -121zM217 153c0 21 -7 61 -68 61c-23 0 -54 -8 -74 -39c-14 -22 -21 -59 -21 -75
c0 -45 31 -65 70 -65c85 0 93 92 93 118zM257 349c0 46 -30 59 -61 59c-78 0 -86 -81 -86 -98c0 -35 19 -55 59 -55c85 0 88 81 88 94z" />
    <glyph glyph-name="nine.denominator" horiz-adv-x="333" 
d="M234 194c-18 -19 -46 -34 -90 -34c-94 0 -109 67 -109 107c0 60 29 179 159 179c80 0 128 -39 128 -119c0 -52 -25 -142 -32 -164c-35 -110 -83 -169 -175 -169c-64 0 -128 22 -128 99c0 12 0 16 1 22h64c-1 -8 -1 -16 -1 -19c0 -30 13 -59 62 -59c69 0 101 67 121 157z
M261 338c0 59 -42 69 -65 69c-94 0 -98 -132 -98 -146c0 -28 14 -61 65 -61c78 0 98 85 98 138z" />
    <glyph glyph-name="period.denominator" horiz-adv-x="141" 
d="M74 68l-18 -68h-73l18 68h73z" />
    <glyph glyph-name="comma.denominator" horiz-adv-x="141" 
d="M74 66l-16 -63l-62 -92h-42l59 89h-32l18 66h75z" />
    <glyph glyph-name="hyphen.denominator" horiz-adv-x="268" 
d="M238 202l-14 -49h-202l12 49h204z" />
    <glyph glyph-name="parenleft.denominator" horiz-adv-x="254" 
d="M199 -57l-11 -38c-90 5 -138 60 -138 145c0 31 5 61 8 75c13 60 50 209 75 262c40 85 120 96 175 96c8 0 16 0 30 -1l-12 -43c-41 0 -96 -6 -130 -55c-22 -32 -43 -114 -51 -145c-23 -89 -37 -152 -37 -188c0 -82 53 -101 91 -108z" />
    <glyph glyph-name="parenright.denominator" horiz-adv-x="254" 
d="M56 443l11 39c91 -5 138 -61 138 -145c0 -32 -5 -62 -8 -75c-14 -61 -49 -210 -74 -262c-42 -87 -120 -96 -177 -96c-7 0 -17 0 -29 2l12 41c42 0 95 2 131 56c19 29 43 114 51 145c23 89 36 152 36 188c0 81 -53 100 -91 107z" />
    <glyph glyph-name="dollar.denominator" horiz-adv-x="310" 
d="M60 -76l20 75c-33 6 -59 15 -85 28l14 52c33 -19 75 -36 123 -36c40 0 82 20 82 68c0 30 -14 49 -56 85l-27 23c-58 49 -72 81 -72 121c0 32 24 107 136 107h8l16 61h47l-17 -66c19 -3 44 -10 65 -20l-15 -51c-31 21 -70 32 -105 32c-29 0 -72 -14 -72 -58
c0 -32 28 -58 51 -78l32 -27c42 -35 76 -72 76 -120c0 -20 -6 -63 -46 -93c-41 -31 -87 -32 -108 -32l-19 -71h-48z" />
    <glyph glyph-name="cent.denominator" horiz-adv-x="329" 
d="M132 -73h-49l19 70c-81 14 -88 78 -88 113c0 45 18 118 44 161c32 53 77 78 134 78l14 55h48l-15 -59c78 -18 79 -80 79 -94c0 -11 -1 -21 -2 -29h-63c2 9 3 19 3 30c0 49 -36 53 -58 53c-32 0 -51 -14 -63 -27c-33 -36 -54 -131 -54 -170c0 -61 38 -71 66 -71
c57 0 73 42 83 71h64c-21 -77 -73 -114 -144 -114z" />
    <glyph glyph-name="sterling.denominator" horiz-adv-x="368" 
d="M329 50l-12 -50h-332l12 44c55 11 86 62 103 118h-74l13 49h74l12 51c26 110 66 186 184 186c33 0 53 -4 69 -9l-13 -56c-16 11 -36 17 -60 17c-75 0 -101 -65 -119 -147l-9 -42h117l-13 -49h-117c-17 -49 -39 -84 -87 -112h252z" />
    <glyph glyph-name="yen.denominator" horiz-adv-x="371" 
d="M425 443l-140 -184h67l-12 -47h-89l-38 -50h114l-11 -44h-118l-30 -118h-64l30 118h-119l11 44h119l-13 50h-93l12 47h68l-51 184h66l56 -225l162 225h73z" />
    <glyph glyph-name="Euro.denominator" horiz-adv-x="444" 
d="M403 300l-14 -47h-210c-5 -16 -9 -36 -11 -51h208l-12 -45h-201c-2 -9 -2 -23 -2 -30c0 -65 43 -91 123 -91c40 0 82 14 118 41l-20 -66c-41 -16 -78 -22 -120 -22c-112 0 -170 54 -170 141c0 8 0 20 1 26h-66l12 45h58c2 14 7 36 12 52h-58l15 47h55
c41 110 116 151 237 151c33 0 68 -7 107 -24l-18 -59c-29 27 -63 37 -93 37c-61 0 -123 -12 -161 -105h210z" />
    <glyph glyph-name="florin.denominator" horiz-adv-x="284" 
d="M196 308h69l-12 -49h-69l-64 -250c-12 -46 -30 -115 -114 -115c-10 0 -28 1 -43 4l14 49c9 -3 16 -4 22 -4c39 0 48 32 66 101l55 215h-57l14 49h55l13 47c9 33 25 93 106 93c30 0 45 -3 62 -9l-12 -50c-17 9 -27 12 -45 12c-25 0 -41 -20 -50 -55z" />
    <glyph glyph-name="zero.superior" unicode="&#x2070;" horiz-adv-x="333" 
d="M438 775c0 -62 -39 -246 -91 -300c-29 -30 -64 -40 -106 -40c-61 0 -118 27 -118 111c0 29 8 79 25 145c5 20 19 86 45 128c40 63 99 68 128 68c23 0 117 -2 117 -112zM375 787c0 48 -36 58 -55 58c-45 0 -64 -35 -74 -55c-26 -51 -60 -200 -60 -250c0 -15 2 -63 56 -63
c41 0 66 25 94 114c24 76 39 152 39 196z" />
    <glyph glyph-name="one.superior" horiz-adv-x="333" 
d="M377 890l-112 -449h-64l93 379h-85l11 43c54 6 101 12 157 27z" />
    <glyph glyph-name="two.superior" horiz-adv-x="333" 
d="M387 492l-13 -51h-294l13 51c46 45 82 72 131 113l37 31c87 73 115 100 115 151c0 55 -51 58 -65 58c-71 0 -82 -54 -94 -108h-63l1 5c11 54 31 146 162 146c57 0 125 -21 125 -106c0 -66 -50 -112 -108 -159l-60 -48c-35 -28 -59 -49 -103 -83h216z" />
    <glyph glyph-name="three.superior" horiz-adv-x="333" 
d="M104 566h63v-14c0 -68 57 -73 77 -73c79 0 90 72 90 97c0 70 -65 71 -106 71h-25l11 44h46c84 0 107 45 107 96c0 37 -25 58 -59 58c-62 0 -76 -48 -81 -73h-63c19 95 88 115 145 115c61 0 122 -27 122 -100c0 -24 -8 -101 -101 -122c28 -10 70 -31 70 -91
c0 -55 -40 -139 -161 -139c-24 0 -136 2 -136 110c0 6 0 13 1 21z" />
    <glyph glyph-name="four.superior" unicode="&#x2074;" horiz-adv-x="333" 
d="M414 589l-13 -50h-49l-25 -98h-63l26 98h-187l9 37c60 91 135 200 201 307h74c-70 -105 -142 -211 -200 -294h116l41 158l63 5l-42 -163h49z" />
    <glyph glyph-name="five.superior" unicode="&#x2075;" horiz-adv-x="333" 
d="M435 830h-181c-12 -40 -20 -72 -31 -111c14 10 40 20 74 20c23 0 111 -5 111 -114c0 -25 -5 -190 -173 -190c-98 0 -122 57 -122 99c0 12 0 19 1 26h61c-1 -9 -1 -13 -1 -19c0 -19 10 -63 63 -63c99 0 106 125 106 149s-5 69 -62 69c-37 0 -65 -20 -81 -57h-55l71 244
h233z" />
    <glyph glyph-name="six.superior" unicode="&#x2076;" horiz-adv-x="333" 
d="M449 767h-64c1 7 1 17 1 23c0 26 -12 56 -63 56c-74 0 -94 -70 -117 -151c16 13 42 28 86 28c67 0 110 -38 110 -104c0 -41 -15 -184 -160 -184c-82 0 -128 39 -128 117c0 53 27 146 33 167c39 131 95 168 177 168c44 0 126 -12 126 -97c0 -13 0 -19 -1 -23zM339 618
c0 45 -30 64 -66 64c-90 0 -97 -114 -97 -134c0 -57 34 -71 65 -71c83 0 98 107 98 141z" />
    <glyph glyph-name="seven.superior" unicode="&#x2077;" horiz-adv-x="333" 
d="M165 832l14 52h292l-11 -48c-82 -141 -184 -310 -237 -395h-77c92 142 187 295 240 391h-221z" />
    <glyph glyph-name="eight.superior" unicode="&#x2078;" horiz-adv-x="333" 
d="M334 671c51 -17 61 -55 61 -83c0 -48 -23 -153 -156 -153c-87 0 -136 38 -136 109c0 76 46 129 107 138c-21 8 -49 27 -49 74s29 131 142 131c97 0 129 -46 129 -95c0 -68 -47 -112 -98 -121zM330 594c0 21 -7 61 -68 61c-23 0 -54 -8 -74 -39c-14 -22 -21 -59 -21 -75
c0 -45 31 -65 70 -65c85 0 93 92 93 118zM370 790c0 46 -30 59 -61 59c-78 0 -86 -81 -86 -98c0 -35 19 -55 59 -55c85 0 88 81 88 94z" />
    <glyph glyph-name="nine.superior" unicode="&#x2079;" horiz-adv-x="333" 
d="M347 635c-18 -19 -46 -34 -90 -34c-94 0 -109 67 -109 107c0 60 29 179 159 179c80 0 128 -39 128 -119c0 -52 -25 -142 -32 -164c-35 -110 -83 -169 -175 -169c-64 0 -128 22 -128 99c0 12 0 16 1 22h64c-1 -8 -1 -16 -1 -19c0 -30 13 -59 62 -59c69 0 101 67 121 157z
M374 779c0 59 -42 69 -65 69c-94 0 -98 -132 -98 -146c0 -28 14 -61 65 -61c78 0 98 85 98 138z" />
    <glyph glyph-name="period.superior" horiz-adv-x="141" 
d="M187 509l-18 -68h-73l18 68h73z" />
    <glyph glyph-name="comma.superior" horiz-adv-x="141" 
d="M187 507l-16 -63l-62 -92h-42l59 89h-32l18 66h75z" />
    <glyph glyph-name="hyphen.superior" horiz-adv-x="268" 
d="M351 643l-14 -49h-202l12 49h204z" />
    <glyph glyph-name="parenleft.superior" unicode="&#x207d;" horiz-adv-x="254" 
d="M312 384l-11 -38c-90 5 -138 60 -138 145c0 31 5 61 8 75c13 60 50 209 75 262c40 85 120 96 175 96c8 0 16 0 30 -1l-12 -43c-41 0 -96 -6 -130 -55c-22 -32 -43 -114 -51 -145c-23 -89 -37 -152 -37 -188c0 -82 53 -101 91 -108z" />
    <glyph glyph-name="parenright.superior" unicode="&#x207e;" horiz-adv-x="254" 
d="M169 884l11 39c91 -5 138 -61 138 -145c0 -32 -5 -62 -8 -75c-14 -61 -49 -210 -74 -262c-42 -87 -120 -96 -177 -96c-7 0 -17 0 -29 2l12 41c42 0 95 2 131 56c19 29 43 114 51 145c23 89 36 152 36 188c0 81 -53 100 -91 107z" />
    <glyph glyph-name="dollar.superior" horiz-adv-x="310" 
d="M173 365l20 75c-33 6 -59 15 -85 28l14 52c33 -19 75 -36 123 -36c40 0 82 20 82 68c0 30 -14 49 -56 85l-27 23c-58 49 -72 81 -72 121c0 32 24 107 136 107h8l16 61h47l-17 -66c19 -3 44 -10 65 -20l-15 -51c-31 21 -70 32 -105 32c-29 0 -72 -14 -72 -58
c0 -32 28 -58 51 -78l32 -27c42 -35 76 -72 76 -120c0 -20 -6 -63 -46 -93c-41 -31 -87 -32 -108 -32l-19 -71h-48z" />
    <glyph glyph-name="cent.superior" horiz-adv-x="329" 
d="M245 368h-49l19 70c-81 14 -88 78 -88 113c0 45 18 118 44 161c32 53 77 78 134 78l14 55h48l-15 -59c78 -18 79 -80 79 -94c0 -11 -1 -21 -2 -29h-63c2 9 3 19 3 30c0 49 -36 53 -58 53c-32 0 -51 -14 -63 -27c-33 -36 -54 -131 -54 -170c0 -61 38 -71 66 -71
c57 0 73 42 83 71h64c-21 -77 -73 -114 -144 -114z" />
    <glyph glyph-name="sterling.superior" horiz-adv-x="368" 
d="M442 491l-12 -50h-332l12 44c55 11 86 62 103 118h-74l13 49h74l12 51c26 110 66 186 184 186c33 0 53 -4 69 -9l-13 -56c-16 11 -36 17 -60 17c-75 0 -101 -65 -119 -147l-9 -42h117l-13 -49h-117c-17 -49 -39 -84 -87 -112h252z" />
    <glyph glyph-name="yen.superior" horiz-adv-x="371" 
d="M538 884l-140 -184h67l-12 -47h-89l-38 -50h114l-11 -44h-118l-30 -118h-64l30 118h-119l11 44h119l-13 50h-93l12 47h68l-51 184h66l56 -225l162 225h73z" />
    <glyph glyph-name="Euro.superior" horiz-adv-x="444" 
d="M516 741l-14 -47h-210c-5 -16 -9 -36 -11 -51h208l-12 -45h-201c-2 -9 -2 -23 -2 -30c0 -65 43 -91 123 -91c40 0 82 14 118 41l-20 -66c-41 -16 -78 -22 -120 -22c-112 0 -170 54 -170 141c0 8 0 20 1 26h-66l12 45h58c2 14 7 36 12 52h-58l15 47h55
c41 110 116 151 237 151c33 0 68 -7 107 -24l-18 -59c-29 27 -63 37 -93 37c-61 0 -123 -12 -161 -105h210z" />
    <glyph glyph-name="florin.superior" horiz-adv-x="284" 
d="M309 749h69l-12 -49h-69l-64 -250c-12 -46 -30 -115 -114 -115c-10 0 -28 1 -43 4l14 49c9 -3 16 -4 22 -4c39 0 48 32 66 101l55 215h-57l14 49h55l13 47c9 33 25 93 106 93c30 0 45 -3 62 -9l-12 -50c-17 9 -27 12 -45 12c-25 0 -41 -20 -50 -55z" />
    <glyph glyph-name="zero.inferior" unicode="&#x2080;" horiz-adv-x="333" 
d="M279 158c0 -62 -39 -246 -91 -300c-29 -30 -64 -40 -106 -40c-61 0 -118 27 -118 111c0 29 8 79 25 145c5 20 19 86 45 128c40 63 99 68 128 68c23 0 117 -2 117 -112zM216 170c0 48 -36 58 -55 58c-45 0 -64 -35 -74 -55c-26 -51 -60 -200 -60 -250c0 -15 2 -63 56 -63
c41 0 66 25 94 114c24 76 39 152 39 196z" />
    <glyph glyph-name="one.inferior" unicode="&#x2081;" horiz-adv-x="333" 
d="M218 273l-112 -449h-64l93 379h-85l11 43c54 6 101 12 157 27z" />
    <glyph glyph-name="two.inferior" unicode="&#x2082;" horiz-adv-x="333" 
d="M228 -125l-13 -51h-294l13 51c46 45 82 72 131 113l37 31c87 73 115 100 115 151c0 55 -51 58 -65 58c-71 0 -82 -54 -94 -108h-63l1 5c11 54 31 146 162 146c57 0 125 -21 125 -106c0 -66 -50 -112 -108 -159l-60 -48c-35 -28 -59 -49 -103 -83h216z" />
    <glyph glyph-name="three.inferior" unicode="&#x2083;" horiz-adv-x="333" 
d="M-55 -51h63v-14c0 -68 57 -73 77 -73c79 0 90 72 90 97c0 70 -65 71 -106 71h-25l11 44h46c84 0 107 45 107 96c0 37 -25 58 -59 58c-62 0 -76 -48 -81 -73h-63c19 95 88 115 145 115c61 0 122 -27 122 -100c0 -24 -8 -101 -101 -122c28 -10 70 -31 70 -91
c0 -55 -40 -139 -161 -139c-24 0 -136 2 -136 110c0 6 0 13 1 21z" />
    <glyph glyph-name="four.inferior" unicode="&#x2084;" horiz-adv-x="333" 
d="M255 -28l-13 -50h-49l-25 -98h-63l26 98h-187l9 37c60 91 135 200 201 307h74c-70 -105 -142 -211 -200 -294h116l41 158l63 5l-42 -163h49z" />
    <glyph glyph-name="five.inferior" unicode="&#x2085;" horiz-adv-x="333" 
d="M276 213h-181c-12 -40 -20 -72 -31 -111c14 10 40 20 74 20c23 0 111 -5 111 -114c0 -25 -5 -190 -173 -190c-98 0 -122 57 -122 99c0 12 0 19 1 26h61c-1 -9 -1 -13 -1 -19c0 -19 10 -63 63 -63c99 0 106 125 106 149s-5 69 -62 69c-37 0 -65 -20 -81 -57h-55l71 244
h233z" />
    <glyph glyph-name="six.inferior" unicode="&#x2086;" horiz-adv-x="333" 
d="M290 150h-64c1 7 1 17 1 23c0 26 -12 56 -63 56c-74 0 -94 -70 -117 -151c16 13 42 28 86 28c67 0 110 -38 110 -104c0 -41 -15 -184 -160 -184c-82 0 -128 39 -128 117c0 53 27 146 33 167c39 131 95 168 177 168c44 0 126 -12 126 -97c0 -13 0 -19 -1 -23zM180 1
c0 45 -30 64 -66 64c-90 0 -97 -114 -97 -134c0 -57 34 -71 65 -71c83 0 98 107 98 141z" />
    <glyph glyph-name="seven.inferior" unicode="&#x2087;" horiz-adv-x="333" 
d="M6 215l14 52h292l-11 -48c-82 -141 -184 -310 -237 -395h-77c92 142 187 295 240 391h-221z" />
    <glyph glyph-name="eight.inferior" unicode="&#x2088;" horiz-adv-x="333" 
d="M175 54c51 -17 61 -55 61 -83c0 -48 -23 -153 -156 -153c-87 0 -136 38 -136 109c0 76 46 129 107 138c-21 8 -49 27 -49 74s29 131 142 131c97 0 129 -46 129 -95c0 -68 -47 -112 -98 -121zM171 -23c0 21 -7 61 -68 61c-23 0 -54 -8 -74 -39c-14 -22 -21 -59 -21 -75
c0 -45 31 -65 70 -65c85 0 93 92 93 118zM211 173c0 46 -30 59 -61 59c-78 0 -86 -81 -86 -98c0 -35 19 -55 59 -55c85 0 88 81 88 94z" />
    <glyph glyph-name="nine.inferior" unicode="&#x2089;" horiz-adv-x="333" 
d="M188 18c-18 -19 -46 -34 -90 -34c-94 0 -109 67 -109 107c0 60 29 179 159 179c80 0 128 -39 128 -119c0 -52 -25 -142 -32 -164c-35 -110 -83 -169 -175 -169c-64 0 -128 22 -128 99c0 12 0 16 1 22h64c-1 -8 -1 -16 -1 -19c0 -30 13 -59 62 -59c69 0 101 67 121 157z
M215 162c0 59 -42 69 -65 69c-94 0 -98 -132 -98 -146c0 -28 14 -61 65 -61c78 0 98 85 98 138z" />
    <glyph glyph-name="period.inferior" horiz-adv-x="141" 
d="M28 -108l-18 -68h-73l18 68h73z" />
    <glyph glyph-name="comma.inferior" horiz-adv-x="141" 
d="M28 -110l-16 -63l-62 -92h-42l59 89h-32l18 66h75z" />
    <glyph glyph-name="hyphen.inferior" horiz-adv-x="268" 
d="M192 26l-14 -49h-202l12 49h204z" />
    <glyph glyph-name="parenleft.inferior" unicode="&#x208d;" horiz-adv-x="254" 
d="M153 -233l-11 -38c-90 5 -138 60 -138 145c0 31 5 61 8 75c13 60 50 209 75 262c40 85 120 96 175 96c8 0 16 0 30 -1l-12 -43c-41 0 -96 -6 -130 -55c-22 -32 -43 -114 -51 -145c-23 -89 -37 -152 -37 -188c0 -82 53 -101 91 -108z" />
    <glyph glyph-name="parenright.inferior" unicode="&#x208e;" horiz-adv-x="254" 
d="M10 267l11 39c91 -5 138 -61 138 -145c0 -32 -5 -62 -8 -75c-14 -61 -49 -210 -74 -262c-42 -87 -120 -96 -177 -96c-7 0 -17 0 -29 2l12 41c42 0 95 2 131 56c19 29 43 114 51 145c23 89 36 152 36 188c0 81 -53 100 -91 107z" />
    <glyph glyph-name="dollar.inferior" horiz-adv-x="310" 
d="M14 -252l20 75c-33 6 -59 15 -85 28l14 52c33 -19 75 -36 123 -36c40 0 82 20 82 68c0 30 -14 49 -56 85l-27 23c-58 49 -72 81 -72 121c0 32 24 107 136 107h8l16 61h47l-17 -66c19 -3 44 -10 65 -20l-15 -51c-31 21 -70 32 -105 32c-29 0 -72 -14 -72 -58
c0 -32 28 -58 51 -78l32 -27c42 -35 76 -72 76 -120c0 -20 -6 -63 -46 -93c-41 -31 -87 -32 -108 -32l-19 -71h-48z" />
    <glyph glyph-name="cent.inferior" horiz-adv-x="329" 
d="M86 -249h-49l19 70c-81 14 -88 78 -88 113c0 45 18 118 44 161c32 53 77 78 134 78l14 55h48l-15 -59c78 -18 79 -80 79 -94c0 -11 -1 -21 -2 -29h-63c2 9 3 19 3 30c0 49 -36 53 -58 53c-32 0 -51 -14 -63 -27c-33 -36 -54 -131 -54 -170c0 -61 38 -71 66 -71
c57 0 73 42 83 71h64c-21 -77 -73 -114 -144 -114z" />
    <glyph glyph-name="sterling.inferior" horiz-adv-x="368" 
d="M283 -126l-12 -50h-332l12 44c55 11 86 62 103 118h-74l13 49h74l12 51c26 110 66 186 184 186c33 0 53 -4 69 -9l-13 -56c-16 11 -36 17 -60 17c-75 0 -101 -65 -119 -147l-9 -42h117l-13 -49h-117c-17 -49 -39 -84 -87 -112h252z" />
    <glyph glyph-name="yen.inferior" horiz-adv-x="371" 
d="M379 267l-140 -184h67l-12 -47h-89l-38 -50h114l-11 -44h-118l-30 -118h-64l30 118h-119l11 44h119l-13 50h-93l12 47h68l-51 184h66l56 -225l162 225h73z" />
    <glyph glyph-name="Euro.inferior" horiz-adv-x="444" 
d="M357 124l-14 -47h-210c-5 -16 -9 -36 -11 -51h208l-12 -45h-201c-2 -9 -2 -23 -2 -30c0 -65 43 -91 123 -91c40 0 82 14 118 41l-20 -66c-41 -16 -78 -22 -120 -22c-112 0 -170 54 -170 141c0 8 0 20 1 26h-66l12 45h58c2 14 7 36 12 52h-58l15 47h55
c41 110 116 151 237 151c33 0 68 -7 107 -24l-18 -59c-29 27 -63 37 -93 37c-61 0 -123 -12 -161 -105h210z" />
    <glyph glyph-name="florin.inferior" horiz-adv-x="284" 
d="M150 132h69l-12 -49h-69l-64 -250c-12 -46 -30 -115 -114 -115c-10 0 -28 1 -43 4l14 49c9 -3 16 -4 22 -4c39 0 48 32 66 101l55 215h-57l14 49h55l13 47c9 33 25 93 106 93c30 0 45 -3 62 -9l-12 -50c-17 9 -27 12 -45 12c-25 0 -41 -20 -50 -55z" />
    <glyph glyph-name="Eth.sc" horiz-adv-x="564" 
d="M12 0l62 245h-63l14 55h63l56 219h140c65 0 140 -3 182 -28c52 -30 81 -88 81 -163c0 -93 -37 -198 -88 -249c-32 -32 -80 -57 -131 -68c-38 -8 -82 -11 -157 -11h-159zM215 462l-42 -162h175l-14 -55h-174l-48 -189h71c148 0 208 36 247 136c18 46 27 91 27 133
c0 91 -42 137 -153 137h-89z" />
    <glyph glyph-name="Lslash.sc" horiz-adv-x="422" 
d="M190 309l168 99l-18 -68l-168 -97l-46 -184h260l-15 -59h-346l48 188l-61 -37l17 70l62 37l67 261h84z" />
    <glyph glyph-name="Scaron.sc" horiz-adv-x="446" 
d="M464 381h-79v6c0 58 -38 90 -106 90c-61 0 -98 -31 -98 -81c0 -33 13 -51 63 -79l69 -39c64 -36 92 -77 92 -131c0 -96 -78 -157 -197 -157c-128 0 -199 52 -199 146c0 8 0 16 2 27h82c-1 -10 -1 -17 -1 -22c0 -61 45 -99 119 -99c67 0 110 34 110 88c0 33 -15 54 -56 78
l-71 41c-71 41 -96 77 -96 131c0 92 73 150 190 150c110 0 176 -50 176 -133v-16zM466 695l-112 -136h-86l-41 136h60l29 -98l79 98h71z" />
    <glyph glyph-name="Yacute.sc" horiz-adv-x="484" 
d="M236 0h-86l48 189l-113 330h87l84 -258l207 258h92l-272 -331zM481 695l-142 -136h-71l109 136h104z" />
    <glyph glyph-name="Thorn.sc" horiz-adv-x="463" 
d="M99 0h-85l132 519h83l-23 -94h93c74 0 163 -31 163 -137c0 -61 -25 -115 -68 -146c-41 -30 -91 -40 -191 -40h-78zM139 156h83c95 0 151 37 151 127c0 69 -43 87 -128 87h-51z" />
    <glyph glyph-name="Zcaron.sc" horiz-adv-x="474" 
d="M424 0h-439l13 52l383 410h-298l14 57h401l-14 -54l-380 -406h336zM452 695l-112 -136h-86l-41 136h60l29 -98l79 98h71z" />
    <glyph glyph-name="A.sc" horiz-adv-x="542" 
d="M487 0h-88l-30 192h-195l-128 -192h-93l349 519h97zM362 252l-29 191l-123 -191h152z" />
    <glyph glyph-name="B.sc" horiz-adv-x="490" 
d="M12 0l132 519h165c135 0 163 -59 163 -116c0 -64 -37 -107 -113 -130c64 -13 100 -55 100 -116c0 -46 -19 -87 -54 -115c-41 -32 -90 -42 -200 -42h-193zM109 55h80c61 0 88 2 112 9c44 14 69 47 69 93c0 76 -61 85 -132 85h-80zM171 294h76c79 0 139 28 139 99
c0 29 -12 52 -35 63c-19 9 -42 11 -102 11h-34z" />
    <glyph glyph-name="C.sc" horiz-adv-x="525" 
d="M529 357h-80c1 5 1 9 1 12c0 71 -41 108 -120 108c-49 0 -83 -15 -112 -50c-46 -56 -83 -170 -83 -259c0 -81 44 -125 124 -125c78 0 130 32 156 119h79c-24 -113 -108 -173 -242 -173c-132 0 -206 67 -206 187c0 87 33 194 80 259c47 64 113 95 206 95
c127 0 198 -55 198 -154c0 -5 0 -10 -1 -19z" />
    <glyph glyph-name="D.sc" horiz-adv-x="564" 
d="M12 0l132 519h188c125 0 215 -51 215 -191c0 -93 -37 -198 -88 -249c-32 -32 -80 -57 -131 -68c-38 -8 -82 -11 -157 -11h-159zM112 56h71c148 0 208 36 247 136c18 46 27 91 27 133c0 89 -39 137 -150 137h-92z" />
    <glyph glyph-name="E.sc" horiz-adv-x="442" 
d="M375 0h-363l132 519h320l-15 -59h-235l-42 -163h231l-14 -55h-231l-46 -184h278z" />
    <glyph glyph-name="F.sc" horiz-adv-x="409" 
d="M98 0h-86l132 519h319l-16 -59h-232l-45 -178h223l-15 -57h-223z" />
    <glyph glyph-name="G.sc" horiz-adv-x="560" 
d="M525 263l-68 -263h-74l13 46c-41 -41 -87 -56 -157 -56c-123 0 -193 68 -193 187c0 80 30 178 72 245c45 72 115 107 211 107c131 0 202 -55 202 -155c0 -4 0 -8 -1 -15h-82v13c0 67 -42 105 -118 105c-69 0 -115 -32 -147 -103c-29 -64 -49 -148 -49 -205
c0 -82 44 -125 126 -125c85 0 139 51 164 146l5 19h-129l14 54h211z" />
    <glyph glyph-name="H.sc" horiz-adv-x="555" 
d="M436 0h-86l60 242h-252l-60 -242h-86l132 519h85l-56 -222h252l56 222h87z" />
    <glyph glyph-name="I.sc" horiz-adv-x="216" 
d="M97 0h-85l132 519h85z" />
    <glyph glyph-name="J.sc" horiz-adv-x="339" 
d="M352 519l-86 -352c-32 -132 -80 -174 -182 -174c-44 0 -82 7 -126 25l22 59c37 -17 64 -25 95 -25s60 16 75 40c12 20 22 51 41 126l76 301h85z" />
    <glyph glyph-name="K.sc" horiz-adv-x="502" 
d="M297 310l168 -310h-91l-142 258l-91 -74l-47 -184h-82l132 519h82l-63 -243l288 243h96z" />
    <glyph glyph-name="L.sc" horiz-adv-x="422" 
d="M358 0h-346l133 519h84l-116 -461h260z" />
    <glyph glyph-name="M.sc" horiz-adv-x="714" 
d="M596 0h-85c15 58 114 450 123 479c-97 -160 -197 -319 -295 -479h-77c-41 405 -46 443 -47 480c-8 -37 -19 -75 -29 -112l-97 -368h-79l141 519h131c36 -354 39 -392 41 -430c86 145 175 287 263 430h139z" />
    <glyph glyph-name="N.sc" horiz-adv-x="557" 
d="M442 0h-97l-156 406l-100 -406h-77l132 519h91l157 -414l101 414h77z" />
    <glyph glyph-name="O.sc" horiz-adv-x="563" 
d="M46 185c0 84 31 184 77 247c48 65 118 97 215 97c138 0 209 -65 209 -191c0 -82 -27 -175 -70 -242c-46 -71 -118 -106 -217 -106c-136 0 -214 71 -214 195zM460 346c0 88 -41 130 -127 130c-53 0 -98 -21 -127 -61c-42 -58 -72 -158 -72 -237c0 -86 46 -134 125 -134
c57 0 103 22 132 63c38 55 69 163 69 239z" />
    <glyph glyph-name="P.sc" horiz-adv-x="461" 
d="M96 0h-84l132 519h125c95 0 130 -7 163 -30s52 -63 52 -107c0 -61 -26 -114 -69 -146c-40 -30 -91 -40 -191 -40h-78zM161 250h80c129 0 153 68 153 126c0 36 -14 63 -40 75c-21 10 -42 13 -98 13h-41z" />
    <glyph glyph-name="Q.sc" horiz-adv-x="559" 
d="M548 -96h-86c-10 56 -41 93 -106 100c-37 -11 -57 -14 -93 -14c-138 0 -218 70 -218 192c0 86 30 184 76 247c49 68 118 100 216 100c139 0 210 -64 210 -191c0 -106 -49 -241 -118 -295c76 -16 108 -59 119 -139zM460 347c0 85 -43 129 -125 129
c-58 0 -102 -21 -131 -64c-41 -61 -70 -157 -70 -232c0 -88 44 -136 125 -136c57 0 102 22 131 63c38 54 70 165 70 240z" />
    <glyph glyph-name="R.sc" horiz-adv-x="505" 
d="M144 519h147c151 0 199 -42 199 -127c0 -83 -56 -137 -153 -147c49 -7 71 -33 83 -93l12 -61c9 -45 18 -70 35 -91h-94c-15 16 -22 37 -33 99l-8 46c-12 69 -49 79 -143 79h-35l-57 -224h-85zM168 277h64c118 0 168 34 168 112c0 55 -31 77 -110 77h-75z" />
    <glyph glyph-name="S.sc" horiz-adv-x="446" 
d="M464 381h-79v6c0 58 -38 90 -106 90c-61 0 -98 -31 -98 -81c0 -33 13 -51 63 -79l69 -39c64 -36 92 -77 92 -131c0 -96 -78 -157 -197 -157c-128 0 -199 52 -199 146c0 8 0 16 2 27h82c-1 -10 -1 -17 -1 -22c0 -61 45 -99 119 -99c67 0 110 34 110 88c0 33 -15 54 -56 78
l-71 41c-71 41 -96 77 -96 131c0 92 73 150 190 150c110 0 176 -50 176 -133v-16z" />
    <glyph glyph-name="T.sc" horiz-adv-x="423" 
d="M210 0h-86l118 461h-170l15 58h409l-14 -58h-155z" />
    <glyph glyph-name="U.sc" horiz-adv-x="546" 
d="M562 519l-86 -351c-32 -132 -101 -176 -235 -176c-89 0 -193 24 -193 132c0 31 8 61 15 91l75 304h87l-73 -298c-8 -32 -15 -65 -15 -93c0 -64 61 -80 114 -80c55 0 106 23 129 76c13 30 21 65 29 97l73 298h80z" />
    <glyph glyph-name="V.sc" horiz-adv-x="479" 
d="M231 0h-104l-40 519h87c10 -146 21 -289 29 -435l260 435h90z" />
    <glyph glyph-name="W.sc" horiz-adv-x="711" 
d="M516 0h-117c6 342 6 379 6 417c-16 -37 -35 -71 -220 -417h-115l20 519h85s-13 -354 -21 -452c40 86 231 452 231 452h94c-2 -151 -2 -301 -7 -452c71 149 146 302 219 452h87z" />
    <glyph glyph-name="X.sc" horiz-adv-x="481" 
d="M429 0h-92l-94 212l-200 -212h-98l268 276l-113 243h94l81 -186l174 186h94l-239 -250z" />
    <glyph glyph-name="Y.sc" horiz-adv-x="484" 
d="M236 0h-86l48 189l-113 330h87l84 -258l207 258h92l-272 -331z" />
    <glyph glyph-name="Z.sc" horiz-adv-x="474" 
d="M424 0h-439l13 52l383 410h-298l14 57h401l-14 -54l-380 -406h336z" />
    <glyph glyph-name="Aacute.sc" horiz-adv-x="542" 
d="M487 0h-88l-30 192h-195l-128 -192h-93l349 519h97zM362 252l-29 191l-123 -191h152zM515 695l-142 -136h-71l109 136h104z" />
    <glyph glyph-name="Agrave.sc" horiz-adv-x="542" 
d="M487 0h-88l-30 192h-195l-128 -192h-93l349 519h97zM362 252l-29 191l-123 -191h152zM391 559h-64l-93 136h91z" />
    <glyph glyph-name="Acircumflex.sc" horiz-adv-x="542" 
d="M487 0h-88l-30 192h-195l-128 -192h-93l349 519h97zM362 252l-29 191l-123 -191h152zM465 559h-61l-29 99l-79 -99h-72l112 136h88z" />
    <glyph glyph-name="Adieresis.sc" horiz-adv-x="542" 
d="M487 0h-88l-30 192h-195l-128 -192h-93l349 519h97zM362 252l-29 191l-123 -191h152zM499 660l-21 -83h-86l21 83h86zM335 660l-22 -83h-85l21 83h86z" />
    <glyph glyph-name="Atilde.sc" horiz-adv-x="542" 
d="M487 0h-88l-30 192h-195l-128 -192h-93l349 519h97zM362 252l-29 191l-123 -191h152zM516 686l-14 -52c-10 -37 -19 -75 -68 -75c-27 0 -46 13 -69 29l-32 22c-22 15 -29 22 -40 22c-18 0 -22 -21 -27 -45l-6 -27h-63l10 40c10 39 21 88 75 88c26 0 47 -13 73 -32l30 -22
c17 -12 28 -21 37 -21c12 0 20 15 26 45l6 28h62z" />
    <glyph glyph-name="Aring.sc" horiz-adv-x="542" 
d="M487 0h-88l-30 192h-195l-128 -192h-93l349 519h97zM362 252l-29 191l-123 -191h152zM447 635c0 -52 -40 -91 -92 -91c-49 0 -87 39 -87 88c0 50 40 91 90 91c49 0 89 -38 89 -88zM402 634c0 23 -20 45 -44 45c-25 0 -45 -20 -45 -45c0 -23 18 -45 42 -45
c26 0 47 18 47 45z" />
    <glyph glyph-name="Ccedilla.sc" horiz-adv-x="525" 
d="M208 -42h5c58 0 88 -26 88 -77c0 -65 -50 -104 -134 -104c-9 0 -25 0 -58 3l13 49c18 -2 28 -3 41 -3c50 0 76 17 76 49s-22 44 -84 44l26 78c-87 19 -135 83 -135 179c0 87 33 194 80 259c47 64 113 95 206 95c127 0 198 -55 198 -154c0 -5 0 -11 -1 -19h-80
c1 5 1 9 1 12c0 71 -41 108 -120 108c-49 0 -83 -15 -112 -50c-46 -56 -83 -170 -83 -259c0 -81 45 -126 124 -126c77 0 130 34 156 120h79c-25 -114 -108 -173 -245 -173c-12 0 -17 1 -30 2z" />
    <glyph glyph-name="Eacute.sc" horiz-adv-x="442" 
d="M375 0h-363l132 519h320l-15 -59h-235l-42 -163h231l-14 -55h-231l-46 -184h278zM464 695l-142 -136h-71l109 136h104z" />
    <glyph glyph-name="Egrave.sc" horiz-adv-x="442" 
d="M375 0h-363l132 519h320l-15 -59h-235l-42 -163h231l-14 -55h-231l-46 -184h278zM340 559h-64l-93 136h91z" />
    <glyph glyph-name="Ecircumflex.sc" horiz-adv-x="442" 
d="M375 0h-363l132 519h320l-15 -59h-235l-42 -163h231l-14 -55h-231l-46 -184h278zM427 559h-61l-29 99l-79 -99h-72l112 136h88z" />
    <glyph glyph-name="Edieresis.sc" horiz-adv-x="442" 
d="M375 0h-363l132 519h320l-15 -59h-235l-42 -163h231l-14 -55h-231l-46 -184h278zM459 660l-21 -83h-86l21 83h86zM295 660l-22 -83h-85l21 83h86z" />
    <glyph glyph-name="Iacute.sc" horiz-adv-x="216" 
d="M97 0h-85l132 519h85zM361 695l-142 -136h-71l109 136h104z" />
    <glyph glyph-name="Igrave.sc" horiz-adv-x="216" 
d="M97 0h-85l132 519h85zM229 559h-64l-93 136h91z" />
    <glyph glyph-name="Icircumflex.sc" horiz-adv-x="216" 
d="M97 0h-85l132 519h85zM306 559h-61l-29 99l-79 -99h-72l112 136h88z" />
    <glyph glyph-name="Idieresis.sc" horiz-adv-x="216" 
d="M97 0h-85l132 519h85zM341 660l-21 -83h-86l21 83h86zM177 660l-22 -83h-85l21 83h86z" />
    <glyph glyph-name="Ntilde.sc" horiz-adv-x="557" 
d="M442 0h-97l-156 406l-100 -406h-77l132 519h91l157 -414l101 414h77zM531 686l-14 -52c-10 -37 -19 -75 -68 -75c-27 0 -46 13 -69 29l-32 22c-22 15 -29 22 -40 22c-18 0 -22 -21 -27 -45l-6 -27h-63l10 40c10 39 21 88 75 88c26 0 47 -13 73 -32l30 -22
c17 -12 28 -21 37 -21c12 0 20 15 26 45l6 28h62z" />
    <glyph glyph-name="Oacute.sc" horiz-adv-x="563" 
d="M46 185c0 84 31 184 77 247c48 65 118 97 215 97c138 0 209 -65 209 -191c0 -82 -27 -175 -70 -242c-46 -71 -118 -106 -217 -106c-136 0 -214 71 -214 195zM460 346c0 88 -41 130 -127 130c-53 0 -98 -21 -127 -61c-42 -58 -72 -158 -72 -237c0 -86 46 -134 125 -134
c57 0 103 22 132 63c38 55 69 163 69 239zM506 695l-142 -136h-71l109 136h104z" />
    <glyph glyph-name="Ograve.sc" horiz-adv-x="563" 
d="M46 185c0 84 31 184 77 247c48 65 118 97 215 97c138 0 209 -65 209 -191c0 -82 -27 -175 -70 -242c-46 -71 -118 -106 -217 -106c-136 0 -214 71 -214 195zM460 346c0 88 -41 130 -127 130c-53 0 -98 -21 -127 -61c-42 -58 -72 -158 -72 -237c0 -86 46 -134 125 -134
c57 0 103 22 132 63c38 55 69 163 69 239zM384 559h-64l-93 136h91z" />
    <glyph glyph-name="Ocircumflex.sc" horiz-adv-x="563" 
d="M46 185c0 84 31 184 77 247c48 65 118 97 215 97c138 0 209 -65 209 -191c0 -82 -27 -175 -70 -242c-46 -71 -118 -106 -217 -106c-136 0 -214 71 -214 195zM460 346c0 88 -41 130 -127 130c-53 0 -98 -21 -127 -61c-42 -58 -72 -158 -72 -237c0 -86 46 -134 125 -134
c57 0 103 22 132 63c38 55 69 163 69 239zM473 559h-61l-29 99l-79 -99h-72l112 136h88z" />
    <glyph glyph-name="Odieresis.sc" horiz-adv-x="563" 
d="M46 185c0 84 31 184 77 247c48 65 118 97 215 97c138 0 209 -65 209 -191c0 -82 -27 -175 -70 -242c-46 -71 -118 -106 -217 -106c-136 0 -214 71 -214 195zM460 346c0 88 -41 130 -127 130c-53 0 -98 -21 -127 -61c-42 -58 -72 -158 -72 -237c0 -86 46 -134 125 -134
c57 0 103 22 132 63c38 55 69 163 69 239zM504 660l-21 -83h-86l21 83h86zM340 660l-22 -83h-85l21 83h86z" />
    <glyph glyph-name="Otilde.sc" horiz-adv-x="563" 
d="M46 185c0 84 31 184 77 247c48 65 118 97 215 97c138 0 209 -65 209 -191c0 -82 -27 -175 -70 -242c-46 -71 -118 -106 -217 -106c-136 0 -214 71 -214 195zM460 346c0 88 -41 130 -127 130c-53 0 -98 -21 -127 -61c-42 -58 -72 -158 -72 -237c0 -86 46 -134 125 -134
c57 0 103 22 132 63c38 55 69 163 69 239zM521 686l-14 -52c-10 -37 -19 -75 -68 -75c-27 0 -46 13 -69 29l-32 22c-22 15 -29 22 -40 22c-18 0 -22 -21 -27 -45l-6 -27h-63l10 40c10 39 21 88 75 88c26 0 47 -13 73 -32l30 -22c17 -12 28 -21 37 -21c12 0 20 15 26 45l6 28
h62z" />
    <glyph glyph-name="Uacute.sc" horiz-adv-x="546" 
d="M562 519l-86 -351c-32 -132 -101 -176 -235 -176c-89 0 -193 24 -193 132c0 31 8 61 15 91l75 304h87l-73 -298c-8 -32 -15 -65 -15 -93c0 -64 61 -80 114 -80c55 0 106 23 129 76c13 30 21 65 29 97l73 298h80zM512 695l-142 -136h-71l109 136h104z" />
    <glyph glyph-name="Ugrave.sc" horiz-adv-x="546" 
d="M562 519l-86 -351c-32 -132 -101 -176 -235 -176c-89 0 -193 24 -193 132c0 31 8 61 15 91l75 304h87l-73 -298c-8 -32 -15 -65 -15 -93c0 -64 61 -80 114 -80c55 0 106 23 129 76c13 30 21 65 29 97l73 298h80zM393 559h-64l-93 136h91z" />
    <glyph glyph-name="Ucircumflex.sc" horiz-adv-x="546" 
d="M562 519l-86 -351c-32 -132 -101 -176 -235 -176c-89 0 -193 24 -193 132c0 31 8 61 15 91l75 304h87l-73 -298c-8 -32 -15 -65 -15 -93c0 -64 61 -80 114 -80c55 0 106 23 129 76c13 30 21 65 29 97l73 298h80zM463 559h-61l-29 99l-79 -99h-72l112 136h88z" />
    <glyph glyph-name="Udieresis.sc" horiz-adv-x="546" 
d="M562 519l-86 -351c-32 -132 -101 -176 -235 -176c-89 0 -193 24 -193 132c0 31 8 61 15 91l75 304h87l-73 -298c-8 -32 -15 -65 -15 -93c0 -64 61 -80 114 -80c55 0 106 23 129 76c13 30 21 65 29 97l73 298h80zM504 660l-21 -83h-86l21 83h86zM340 660l-22 -83h-85
l21 83h86z" />
    <glyph glyph-name="AE.sc" horiz-adv-x="760" 
d="M698 0h-361l58 231h-164l-178 -231h-95l401 519h423l-15 -59h-230l-42 -165h225l-13 -53h-226l-46 -184h278zM409 284l48 182h-55l-136 -182h143z" />
    <glyph glyph-name="Oslash.sc" horiz-adv-x="563" 
d="M551 547l26 -28l-62 -61c23 -35 32 -70 32 -119c0 -83 -27 -176 -70 -243c-46 -71 -118 -106 -217 -106c-69 0 -117 16 -160 53l-61 -61l-27 27l64 64c-21 30 -30 66 -30 113c0 82 31 183 77 246c48 65 118 97 215 97c64 0 113 -14 151 -43zM139 134l299 300
c-23 28 -57 42 -104 42c-54 0 -99 -21 -128 -61c-42 -58 -72 -157 -72 -239c0 -17 1 -25 5 -42zM454 398l-300 -301c24 -37 56 -53 105 -53c57 0 103 22 132 63c38 55 69 163 69 240c0 22 -1 31 -6 51z" />
    <glyph glyph-name="OE.sc" horiz-adv-x="822" 
d="M773 57l-14 -57h-360l10 42c-41 -35 -84 -49 -151 -49c-128 0 -201 70 -201 193c0 83 31 180 76 243c46 65 116 97 209 97c86 0 138 -25 171 -81l18 74h313l-15 -59h-235l-40 -164h228l-14 -55h-229l-47 -184h281zM473 349c0 84 -43 129 -125 129c-56 0 -99 -20 -129 -61
c-42 -58 -72 -157 -72 -239c0 -85 45 -133 125 -133c57 0 103 22 132 64c37 54 69 164 69 240z" />
    <glyph glyph-name="Ydieresis.sc" horiz-adv-x="484" 
d="M236 0h-86l48 189l-113 330h87l84 -258l207 258h92l-272 -331zM469 660l-21 -83h-86l21 83h86zM305 660l-22 -83h-85l21 83h86z" />
    <glyph glyph-name="zero.fitted" horiz-adv-x="515" 
d="M49 154c0 77 45 253 66 319c22 69 76 182 226 182c146 0 178 -93 178 -158c0 -71 -27 -216 -72 -336c-36 -95 -90 -168 -220 -168c-44 0 -97 8 -131 37c-44 38 -47 95 -47 124zM133 145c0 -70 45 -100 95 -100c71 0 108 43 149 173c33 105 59 229 59 288
c0 82 -63 95 -92 95c-69 0 -106 -49 -122 -83c-36 -76 -89 -299 -89 -373z" />
    <glyph glyph-name="one.fitted" horiz-adv-x="313" 
d="M158 0h-87l140 564h-127l14 54c41 5 122 13 224 38z" />
    <glyph glyph-name="two.fitted" horiz-adv-x="482" 
d="M101 67h328l-18 -67h-428l18 69c49 45 115 100 249 210c111 91 161 144 161 227c0 72 -44 95 -95 95c-36 0 -84 -9 -115 -77c-9 -21 -17 -55 -23 -84h-86c14 89 47 214 228 215c59 0 180 -17 180 -152c0 -99 -69 -169 -205 -280c-61 -50 -126 -99 -194 -156z" />
    <glyph glyph-name="three.fitted" horiz-adv-x="500" 
d="M169 308l14 56h57c46 0 100 5 134 41c27 28 37 71 37 110c0 14 -3 36 -19 55c-20 25 -42 32 -74 32c-94 0 -115 -81 -123 -108h-84c9 38 19 58 28 73c24 38 77 88 184 88c90 0 177 -38 177 -144c0 -83 -62 -167 -169 -180c51 -12 120 -41 120 -139
c0 -78 -45 -125 -66 -144c-61 -54 -135 -55 -167 -55c-159 0 -199 83 -199 161c0 3 0 15 2 24h84v-14c0 -29 4 -55 26 -79c24 -27 56 -36 91 -36c109 0 140 84 140 148c0 109 -101 111 -165 111h-28z" />
    <glyph glyph-name="four.fitted" horiz-adv-x="495" 
d="M477 211l-17 -65h-72l-38 -146h-83l37 146h-283l13 49c104 147 205 299 302 453h98c-98 -148 -197 -296 -302 -437h189l61 236l85 6l-62 -242h72z" />
    <glyph glyph-name="five.fitted" horiz-adv-x="500" 
d="M505 578h-270l-53 -181c21 16 58 39 121 39c33 0 161 -8 161 -166c0 -37 -8 -278 -254 -278c-142 0 -176 81 -176 143c0 0 1 25 2 34h81v-14c0 -16 1 -39 6 -51c9 -21 33 -57 91 -57c14 0 52 3 83 26c57 42 80 142 80 206c0 24 -9 101 -98 101c-56 0 -98 -31 -124 -85
h-73l102 353h338z" />
    <glyph glyph-name="six.fitted" horiz-adv-x="500" 
d="M538 485h-85c1 10 2 22 2 30c0 40 -19 87 -99 87c-117 0 -147 -112 -183 -241c22 18 61 49 137 49c97 0 159 -54 159 -148c0 -50 -18 -130 -46 -175c-51 -84 -131 -94 -187 -94c-119 0 -185 56 -185 169c0 79 39 215 48 246c57 194 140 247 259 247
c65 0 182 -18 182 -141c0 -10 -1 -18 -2 -29zM384 260c0 69 -46 99 -101 99c-140 0 -150 -174 -150 -203c0 -88 52 -111 101 -111c47 0 79 19 103 52c25 35 47 106 47 163z" />
    <glyph glyph-name="seven.fitted" horiz-adv-x="430" 
d="M150 0h-101c109 190 219 391 321 579h-296l18 69h389l-16 -62c-100 -187 -209 -390 -315 -586z" />
    <glyph glyph-name="eight.fitted" horiz-adv-x="500" 
d="M356 339c90 -18 103 -78 103 -124s-16 -104 -43 -141c-57 -78 -149 -81 -185 -81c-126 0 -197 54 -197 157c0 71 32 137 78 170c37 27 71 30 97 31c-29 8 -89 23 -89 114c0 67 41 190 207 190c146 0 186 -68 186 -138c0 -109 -76 -174 -157 -178zM203 457
c0 -55 30 -86 93 -86c33 0 75 3 105 47c17 26 30 73 30 104c0 71 -63 85 -96 85c-120 0 -132 -124 -132 -150zM373 229c0 32 -13 90 -106 90c-40 0 -85 -9 -116 -58c-23 -36 -31 -89 -31 -115c0 -71 46 -102 108 -102c50 0 88 17 114 64c18 32 31 84 31 121z" />
    <glyph glyph-name="nine.fitted" horiz-adv-x="500" 
d="M17 163h85c0 -6 -1 -14 -1 -23c0 -47 20 -93 97 -93c111 0 145 97 184 241c-24 -20 -61 -50 -139 -50c-136 0 -158 97 -158 155c0 51 18 122 47 168c52 82 129 94 186 94c116 0 185 -56 185 -173c0 -78 -37 -210 -47 -242c-51 -171 -119 -247 -256 -247
c-92 0 -185 30 -185 142c0 11 1 17 2 28zM423 498c0 93 -68 106 -102 106c-144 0 -150 -199 -150 -220c0 -43 22 -95 101 -95c26 0 64 6 95 38c45 47 56 140 56 171z" />
    <glyph glyph-name="zero.tab" horiz-adv-x="500" 
d="M49 154c0 77 44 253 66 319s71 182 219 182c146 0 173 -93 173 -158c0 -71 -27 -216 -72 -336c-36 -95 -86 -168 -216 -168c-44 0 -89 8 -123 37c-44 38 -47 95 -47 124zM133 145c0 -70 37 -100 87 -100c71 0 104 43 145 173c33 105 59 229 59 288c0 82 -58 95 -87 95
c-69 0 -99 -52 -115 -83c-38 -76 -89 -299 -89 -373z" />
    <glyph glyph-name="one.tab" horiz-adv-x="500" 
d="M252 0h-87l140 564h-127l14 54c41 5 122 13 224 38z" />
    <glyph glyph-name="two.tab" horiz-adv-x="500" 
d="M104 67h328l-18 -67h-428l18 69c46 45 115 103 176 153l73 60c111 91 172 141 172 224c0 72 -51 95 -102 95c-36 0 -88 -9 -119 -77c-9 -21 -17 -55 -23 -84h-86c14 88 44 215 232 215c59 0 187 -17 187 -152c0 -99 -76 -167 -169 -243l-43 -35
c-61 -50 -130 -101 -198 -158z" />
    <glyph glyph-name="three.tab" horiz-adv-x="500" 
d="M169 308l14 56h57c46 0 100 5 134 41c27 28 37 71 37 110c0 14 -3 36 -19 55c-20 25 -42 32 -74 32c-94 0 -115 -81 -123 -108h-84c9 38 19 58 28 73c24 38 77 88 184 88c90 0 177 -38 177 -144c0 -83 -62 -167 -169 -180c51 -12 120 -41 120 -139
c0 -78 -45 -125 -66 -144c-61 -54 -135 -55 -167 -55c-159 0 -199 83 -199 161c0 3 0 15 2 24h84v-14c0 -29 4 -55 26 -79c24 -27 56 -36 91 -36c109 0 140 84 140 148c0 109 -101 111 -165 111h-28z" />
    <glyph glyph-name="four.tab" horiz-adv-x="500" 
d="M471 211l-17 -65h-72l-38 -146h-83l37 146h-278l13 49c56 79 109 159 162 240c46 70 91 141 135 213h98c-53 -82 -106 -163 -161 -244c-44 -65 -89 -130 -136 -193h184l61 236l85 6l-62 -242h72z" />
    <glyph glyph-name="five.tab" horiz-adv-x="500" 
d="M505 578h-270l-53 -181c21 16 58 39 121 39c33 0 161 -8 161 -166c0 -37 -8 -278 -254 -278c-142 0 -176 81 -176 143c0 0 1 25 2 34h81v-14c0 -16 1 -39 6 -51c9 -21 33 -57 91 -57c14 0 52 3 83 26c57 42 80 142 80 206c0 24 -9 101 -98 101c-56 0 -98 -31 -124 -85
h-73l102 353h338z" />
    <glyph glyph-name="six.tab" horiz-adv-x="500" 
d="M538 485h-85c1 10 2 22 2 30c0 40 -19 87 -99 87c-117 0 -147 -112 -183 -241c22 18 61 49 137 49c97 0 159 -54 159 -148c0 -50 -18 -130 -46 -175c-51 -84 -131 -94 -187 -94c-119 0 -185 56 -185 169c0 79 39 215 48 246c57 194 140 247 259 247
c65 0 182 -18 182 -141c0 -10 -1 -18 -2 -29zM384 260c0 69 -46 99 -101 99c-140 0 -150 -174 -150 -203c0 -88 52 -111 101 -111c47 0 79 19 103 52c25 35 47 106 47 163z" />
    <glyph glyph-name="seven.tab" horiz-adv-x="500" 
d="M159 0h-101c60 95 120 189 179 285c60 97 119 195 178 294h-332l18 69h425l-16 -62c-116 -196 -234 -391 -351 -586z" />
    <glyph glyph-name="eight.tab" horiz-adv-x="500" 
d="M356 339c90 -18 103 -78 103 -124s-16 -104 -43 -141c-57 -78 -149 -81 -185 -81c-126 0 -197 54 -197 157c0 71 32 137 78 170c37 27 71 30 97 31c-29 8 -89 23 -89 114c0 67 41 190 207 190c146 0 186 -68 186 -138c0 -109 -76 -174 -157 -178zM203 457
c0 -55 30 -86 93 -86c33 0 75 3 105 47c17 26 30 73 30 104c0 71 -63 85 -96 85c-120 0 -132 -124 -132 -150zM373 229c0 32 -13 90 -106 90c-40 0 -85 -9 -116 -58c-23 -36 -31 -89 -31 -115c0 -71 46 -102 108 -102c50 0 88 17 114 64c18 32 31 84 31 121z" />
    <glyph glyph-name="nine.tab" horiz-adv-x="500" 
d="M17 163h85c0 -6 -1 -14 -1 -23c0 -47 20 -93 97 -93c111 0 145 97 184 241c-24 -20 -61 -50 -139 -50c-136 0 -158 97 -158 155c0 51 18 122 47 168c52 82 129 94 186 94c116 0 185 -56 185 -173c0 -78 -37 -210 -47 -242c-51 -171 -119 -247 -256 -247
c-92 0 -185 30 -185 142c0 11 1 17 2 28zM423 498c0 93 -68 106 -102 106c-144 0 -150 -199 -150 -220c0 -43 22 -95 101 -95c26 0 64 6 95 38c45 47 56 140 56 171z" />
    <glyph glyph-name="zero.taboldstyle" horiz-adv-x="504" 
d="M45 161c0 100 39 272 136 337c33 22 78 33 129 33c113 0 175 -57 175 -162c0 -97 -34 -221 -78 -288c-41 -62 -102 -93 -184 -93c-104 0 -178 48 -178 173zM128 150c0 -72 33 -109 98 -109c41 0 71 15 90 42c46 62 86 198 86 293c0 67 -35 103 -98 103
c-42 0 -75 -17 -101 -53c-40 -55 -75 -208 -75 -276z" />
    <glyph glyph-name="one.taboldstyle" horiz-adv-x="504" 
d="M253 0h-88l111 450h-127l14 54c71 7 154 20 225 39z" />
    <glyph glyph-name="two.taboldstyle" horiz-adv-x="504" 
d="M444 67l-18 -67h-424l17 68l113 60c92 49 149 87 188 121c44 39 69 88 69 135c0 57 -37 93 -95 93c-72 0 -120 -50 -130 -137h-87c18 125 95 191 224 191c112 0 176 -54 176 -149c0 -81 -49 -144 -154 -215c-64 -43 -91 -59 -179 -100h300z" />
    <glyph glyph-name="three.taboldstyle" horiz-adv-x="504" 
d="M146 183l15 56h33c115 0 185 41 185 143c0 61 -33 95 -90 95c-59 0 -101 -39 -115 -107h-85c21 107 94 161 209 161c104 0 166 -54 166 -145c0 -89 -62 -158 -158 -178c70 -12 112 -65 112 -141c0 -118 -93 -200 -227 -200c-120 0 -194 60 -194 158c0 9 0 16 2 28h85
c-1 -8 -1 -14 -1 -18c0 -69 42 -111 112 -111c84 0 135 59 135 145c0 81 -44 114 -152 114h-32z" />
    <glyph glyph-name="four.taboldstyle" horiz-adv-x="504" 
d="M440 65l-17 -65h-78l-36 -143h-79l36 143h-267l11 48l30 42c95 133 156 228 249 385l26 44h92c-114 -183 -301 -454 -301 -454h175l61 235l82 7l-63 -242h79z" />
    <glyph glyph-name="five.taboldstyle" horiz-adv-x="504" 
d="M474 449h-248l-53 -180c35 28 71 38 114 38c93 0 151 -62 151 -161c0 -163 -101 -279 -243 -279c-114 0 -180 56 -180 153c0 7 0 13 1 24h88c-1 -7 -1 -13 -1 -16c0 -69 34 -105 96 -105c89 0 153 92 153 220c0 69 -33 108 -91 108c-54 0 -97 -31 -121 -85h-73l101 353
h323z" />
    <glyph glyph-name="six.taboldstyle" horiz-adv-x="504" 
d="M532 480h-84c1 14 1 20 1 29c0 56 -32 88 -88 88c-40 0 -76 -18 -101 -51c-31 -43 -45 -71 -79 -196c37 38 80 56 132 56c98 0 157 -58 157 -155c0 -66 -22 -137 -57 -183c-41 -55 -96 -80 -176 -80c-112 0 -173 59 -173 166c0 109 51 285 93 367c43 83 120 129 215 129
c99 0 161 -52 161 -134c0 -12 0 -22 -1 -36zM147 152c0 -70 35 -110 98 -110c91 0 138 102 138 208c0 69 -35 104 -93 104c-81 0 -143 -88 -143 -202z" />
    <glyph glyph-name="seven.taboldstyle" horiz-adv-x="504" 
d="M158 -129h-100c121 194 241 387 356 579h-322l17 69h415l-16 -62c-116 -201 -230 -392 -350 -586z" />
    <glyph glyph-name="eight.taboldstyle" horiz-adv-x="504" 
d="M352 334c66 -15 103 -61 103 -130c0 -128 -85 -216 -225 -216c-122 0 -193 58 -193 158c0 106 67 184 172 200c-55 18 -87 62 -87 122c0 108 84 182 206 182c112 0 179 -53 179 -142c0 -91 -63 -163 -155 -174zM424 508c0 61 -37 90 -97 90c-74 0 -121 -56 -121 -141
c0 -56 37 -89 98 -89c78 0 120 68 120 140zM124 145c0 -65 41 -104 109 -104c108 0 136 97 136 173c0 64 -40 100 -107 100c-82 0 -138 -69 -138 -169z" />
    <glyph glyph-name="nine.taboldstyle" horiz-adv-x="504" 
d="M4 37h84c-1 -7 -2 -17 -2 -25c0 -59 34 -91 94 -91c93 0 137 83 179 250c-39 -42 -80 -59 -134 -59c-98 0 -156 59 -156 159c0 148 81 260 231 260c112 0 174 -60 174 -167c0 -93 -39 -259 -82 -351c-46 -98 -118 -146 -220 -146c-111 0 -169 50 -169 144c0 9 0 14 1 26z
M391 368c0 69 -35 108 -97 108c-92 0 -139 -103 -139 -210c0 -61 27 -102 92 -102c83 0 144 87 144 204z" />
    <glyph glyph-name="braceleft.cap" horiz-adv-x="316" 
d="M229 -79h-12c-106 0 -148 31 -148 106c0 16 3 44 10 72l25 104c4 18 8 40 8 53c0 38 -18 63 -51 74l9 35c63 13 81 34 101 116l31 125c30 121 65 154 194 161l37 2l-9 -34c-103 -15 -119 -28 -146 -138l-29 -120c-21 -87 -46 -117 -114 -135c35 -18 53 -50 53 -95
c0 -15 -2 -31 -6 -47l-23 -96c-7 -29 -12 -58 -12 -72c0 -42 20 -70 90 -77z" />
    <glyph glyph-name="braceright.cap" horiz-adv-x="316" 
d="M153 769h21c96 0 139 -31 139 -106c0 -16 -4 -43 -11 -72l-25 -104c-4 -18 -7 -40 -7 -53c0 -38 17 -63 51 -74l-9 -35c-63 -13 -81 -34 -101 -116l-31 -125c-29 -119 -61 -154 -195 -161l-36 -2l8 34c105 16 121 31 147 138l29 120c21 87 46 117 113 135
c-35 18 -52 50 -52 95c0 15 1 31 5 47l24 96c7 29 11 58 11 72c0 46 -21 69 -89 77z" />
    <glyph glyph-name="bracketleft.cap" horiz-adv-x="292" 
d="M435 768l-13 -54h-129l-192 -739h129l-14 -54h-206l220 847h205z" />
    <glyph glyph-name="bracketright.cap" horiz-adv-x="292" 
d="M343 768l-219 -847h-206l13 54h129l193 739h-129l13 54h206z" />
    <glyph glyph-name="emdash.cap" horiz-adv-x="908" 
d="M898 373l-17 -65h-805l17 65h805z" />
    <glyph glyph-name="endash.cap" horiz-adv-x="500" 
d="M490 373l-17 -65h-397l17 65h397z" />
    <glyph glyph-name="guillemotleft.cap" horiz-adv-x="375" 
d="M429 527l-156 -187l84 -184h-71l-82 184l149 187h76zM283 527l-156 -187l85 -184h-72l-81 184l148 187h76z" />
    <glyph glyph-name="guillemotright.cap" horiz-adv-x="375" 
d="M378 342l-148 -186h-76l156 186l-86 185h73zM233 342l-149 -186h-76l156 186l-85 185h72z" />
    <glyph glyph-name="guilsinglleft.cap" horiz-adv-x="229" 
d="M283 527l-156 -187l85 -184h-72l-81 184l148 187h76z" />
    <glyph glyph-name="guilsinglright.cap" horiz-adv-x="229" 
d="M233 342l-149 -186h-76l156 186l-81 185h68z" />
    <glyph glyph-name="hyphen.cap" horiz-adv-x="396" 
d="M386 373l-17 -65h-293l17 65h293z" />
    <glyph glyph-name="parenleft.cap" horiz-adv-x="375" 
d="M526 767l-14 -53c-63 0 -141 -2 -195 -84c-30 -46 -64 -170 -76 -216c-35 -133 -55 -226 -55 -281c0 -124 78 -152 134 -162l-13 -50c-131 7 -198 88 -198 210c0 47 9 97 12 111c15 81 71 307 110 388c61 128 176 139 258 139c14 0 24 -1 37 -2z" />
    <glyph glyph-name="parenright.cap" horiz-adv-x="375" 
d="M-85 -78l14 53c63 0 141 2 195 84c30 46 64 170 76 216c35 133 55 226 55 281c0 124 -78 152 -134 162l13 50c131 -7 198 -88 198 -210c0 -47 -9 -97 -12 -111c-15 -81 -71 -307 -110 -388c-61 -128 -176 -139 -258 -139c-14 0 -24 1 -37 2z" />
    <glyph glyph-name="periodcentered.cap" horiz-adv-x="208" 
d="M198 389l-24 -92h-97l24 92h97z" />
    <glyph glyph-name="Amacron" unicode="&#x100;" horiz-adv-x="650" 
d="M593 0h-92l-29 271h-259l-169 -271h-96l452 706h114zM465 337l-29 287l-181 -287h210zM597 837l-14 -64h-265l14 64h265z" />
    <glyph glyph-name="amacron" unicode="&#x101;" horiz-adv-x="490" 
d="M399 0h-50c-31 0 -55 2 -55 40c0 4 1 12 1 12c-20 -21 -68 -61 -145 -61c-122 0 -128 96 -128 121c0 80 48 121 75 137c50 30 128 38 262 53l9 33c7 27 9 37 9 54c0 70 -69 72 -86 72c-66 0 -97 -41 -109 -62c-9 -16 -16 -39 -17 -43h-83c23 99 90 153 219 153
c80 0 161 -27 161 -116c0 -22 -3 -36 -9 -58l-62 -242c-7 -26 -9 -35 -9 -49s8 -32 20 -32zM326 172l22 83c-123 -9 -238 -25 -238 -138c0 -37 21 -72 72 -72c43 0 86 25 105 44c20 20 26 35 39 83zM471 639l-14 -64h-265l14 64h265z" />
    <glyph glyph-name="Abreve" unicode="&#x102;" horiz-adv-x="650" 
d="M593 0h-92l-29 271h-259l-169 -271h-96l452 706h114zM465 337l-29 287l-181 -287h210zM544 878h63c-13 -45 -52 -119 -152 -119c-51 0 -105 28 -105 92c0 10 2 27 2 27h59c-1 -6 -2 -13 -2 -20c0 -36 26 -50 54 -50c56 0 75 53 81 70z" />
    <glyph glyph-name="abreve" unicode="&#x103;" horiz-adv-x="490" 
d="M399 0h-50c-31 0 -55 2 -55 40c0 4 1 12 1 12c-20 -21 -68 -61 -145 -61c-122 0 -128 96 -128 121c0 80 48 121 75 137c50 30 128 38 262 53l9 33c7 27 9 37 9 54c0 70 -69 72 -86 72c-66 0 -97 -41 -109 -62c-9 -16 -16 -39 -17 -43h-83c23 99 90 153 219 153
c80 0 161 -27 161 -116c0 -22 -3 -36 -9 -58l-62 -242c-7 -26 -9 -35 -9 -49s8 -32 20 -32zM326 172l22 83c-123 -9 -238 -25 -238 -138c0 -37 21 -72 72 -72c43 0 86 25 105 44c20 20 26 35 39 83zM400 678h63c-13 -45 -52 -119 -152 -119c-51 0 -105 28 -105 92
c0 10 2 27 2 27h59c-1 -6 -2 -13 -2 -20c0 -36 26 -50 54 -50c56 0 75 53 81 70z" />
    <glyph glyph-name="Aogonek" unicode="&#x104;" horiz-adv-x="650" 
d="M593 0h-6c-52 -37 -77 -62 -77 -89c0 -19 10 -36 43 -36c18 0 25 3 35 6l-14 -57c-11 -3 -29 -7 -55 -7c-61 0 -89 28 -89 64c0 44 68 98 103 119h-32l-29 271h-259l-169 -271h-96l452 706h114zM465 337l-29 287l-181 -287h210z" />
    <glyph glyph-name="aogonek" unicode="&#x105;" horiz-adv-x="490" 
d="M399 0h-4c-50 -37 -76 -62 -76 -89c0 -19 10 -36 43 -36c18 0 25 3 35 6l-14 -57c-11 -3 -29 -7 -55 -7c-61 0 -89 28 -89 64c0 44 68 98 103 119c-28 0 -48 5 -48 40c0 4 1 12 1 12c-20 -21 -68 -61 -145 -61c-122 0 -128 96 -128 121c0 80 48 121 75 137
c50 30 128 38 262 53l9 33c7 27 9 37 9 54c0 70 -69 72 -86 72c-66 0 -97 -41 -109 -62c-9 -16 -16 -39 -17 -43h-83c23 99 90 153 219 153c80 0 161 -27 161 -116c0 -22 -3 -36 -9 -58l-62 -242c-7 -26 -9 -35 -9 -49s8 -32 20 -32zM326 172l22 83
c-123 -9 -238 -25 -238 -138c0 -37 21 -72 72 -72c43 0 86 25 105 44c20 20 26 35 39 83z" />
    <glyph glyph-name="Cacute" unicode="&#x106;" horiz-adv-x="644" 
d="M664 485h-91c2 20 2 23 2 38c0 72 -30 136 -141 136c-69 0 -154 -21 -215 -189c-25 -70 -57 -190 -57 -266c0 -148 120 -155 152 -155c54 0 144 11 204 160h97c-8 -25 -17 -54 -41 -90c-33 -51 -106 -129 -254 -129c-102 0 -255 32 -255 222c0 30 16 228 107 369
c86 133 204 136 257 136c101 0 155 -28 188 -64c23 -24 49 -62 49 -137c0 -11 -1 -21 -2 -31zM597 895l-142 -136h-71l109 136h104z" />
    <glyph glyph-name="cacute" unicode="&#x107;" horiz-adv-x="494" 
d="M479 330h-81c3 17 3 25 3 34c0 20 -6 93 -92 93c-49 0 -100 -22 -141 -117c-9 -20 -41 -102 -41 -182c0 -49 21 -115 104 -115c46 0 95 17 130 110h85c-5 -20 -14 -55 -48 -92c-27 -30 -78 -70 -174 -70c-113 0 -185 53 -185 169c0 82 30 189 79 255c66 89 148 94 189 94
c154 0 175 -100 175 -143c0 -10 0 -17 -3 -36zM481 695l-142 -136h-71l109 136h104z" />
    <glyph glyph-name="Ccircumflex" unicode="&#x108;" horiz-adv-x="644" 
d="M664 485h-91c2 20 2 23 2 38c0 72 -30 136 -141 136c-69 0 -154 -21 -215 -189c-25 -70 -57 -190 -57 -266c0 -148 120 -155 152 -155c54 0 144 11 204 160h97c-8 -25 -17 -54 -41 -90c-33 -51 -106 -129 -254 -129c-102 0 -255 32 -255 222c0 30 16 228 107 369
c86 133 204 136 257 136c101 0 155 -28 188 -64c23 -24 49 -62 49 -137c0 -11 -1 -21 -2 -31zM574 759h-61l-28 98l-79 -98h-71l111 136h87z" />
    <glyph glyph-name="ccircumflex" unicode="&#x109;" horiz-adv-x="494" 
d="M479 330h-81c3 17 3 25 3 34c0 20 -6 93 -92 93c-49 0 -100 -22 -141 -117c-9 -20 -41 -102 -41 -182c0 -49 21 -115 104 -115c46 0 95 17 130 110h85c-5 -20 -14 -55 -48 -92c-27 -30 -78 -70 -174 -70c-113 0 -185 53 -185 169c0 82 30 189 79 255c66 89 148 94 189 94
c154 0 175 -100 175 -143c0 -10 0 -17 -3 -36zM456 559h-61l-29 99l-79 -99h-72l112 136h88z" />
    <glyph glyph-name="Cdotaccent" unicode="&#x10a;" horiz-adv-x="644" 
d="M664 485h-91c2 20 2 23 2 38c0 72 -30 136 -141 136c-69 0 -154 -21 -215 -189c-25 -70 -57 -190 -57 -266c0 -148 120 -155 152 -155c54 0 144 11 204 160h97c-8 -25 -17 -54 -41 -90c-33 -51 -106 -129 -254 -129c-102 0 -255 32 -255 222c0 30 16 228 107 369
c86 133 204 136 257 136c101 0 155 -28 188 -64c23 -24 49 -62 49 -137c0 -11 -1 -21 -2 -31zM525 860l-22 -83h-86l22 83h86z" />
    <glyph glyph-name="cdotaccent" unicode="&#x10b;" horiz-adv-x="494" 
d="M479 330h-81c3 17 3 25 3 34c0 20 -6 93 -92 93c-49 0 -100 -22 -141 -117c-9 -20 -41 -102 -41 -182c0 -49 21 -115 104 -115c46 0 95 17 130 110h85c-5 -20 -14 -55 -48 -92c-27 -30 -78 -70 -174 -70c-113 0 -185 53 -185 169c0 82 30 189 79 255c66 89 148 94 189 94
c154 0 175 -100 175 -143c0 -10 0 -17 -3 -36zM398 660l-22 -83h-87l22 83h87z" />
    <glyph glyph-name="Ccaron" unicode="&#x10c;" horiz-adv-x="644" 
d="M664 485h-91c2 20 2 23 2 38c0 72 -30 136 -141 136c-69 0 -154 -21 -215 -189c-25 -70 -57 -190 -57 -266c0 -148 120 -155 152 -155c54 0 144 11 204 160h97c-8 -25 -17 -54 -41 -90c-33 -51 -106 -129 -254 -129c-102 0 -255 32 -255 222c0 30 16 228 107 369
c86 133 204 136 257 136c101 0 155 -28 188 -64c23 -24 49 -62 49 -137c0 -11 -1 -21 -2 -31zM605 895l-111 -136h-87l-41 136h60l29 -98l79 98h71z" />
    <glyph glyph-name="ccaron" unicode="&#x10d;" horiz-adv-x="494" 
d="M479 330h-81c3 17 3 25 3 34c0 20 -6 93 -92 93c-49 0 -100 -22 -141 -117c-9 -20 -41 -102 -41 -182c0 -49 21 -115 104 -115c46 0 95 17 130 110h85c-5 -20 -14 -55 -48 -92c-27 -30 -78 -70 -174 -70c-113 0 -185 53 -185 169c0 82 30 189 79 255c66 89 148 94 189 94
c154 0 175 -100 175 -143c0 -10 0 -17 -3 -36zM475 695l-112 -136h-86l-41 136h60l29 -98l79 98h71z" />
    <glyph glyph-name="Dcaron" unicode="&#x10e;" horiz-adv-x="692" 
d="M23 0l183 706h190c77 0 161 -2 222 -54c35 -31 70 -79 70 -182c0 -59 -13 -123 -22 -156c-10 -35 -28 -120 -93 -201c-34 -43 -66 -61 -86 -72c-68 -36 -152 -41 -213 -41h-251zM135 63h106c58 0 131 2 185 29c34 17 80 55 117 140c29 66 53 172 53 245
c0 119 -59 165 -186 165h-125zM560 895l-111 -136h-87l-41 136h60l29 -98l79 98h71z" />
    <glyph glyph-name="dcaron" unicode="&#x10f;" horiz-adv-x="528" 
d="M315 0l13 47c-24 -20 -68 -56 -145 -56c-72 0 -147 39 -147 157c0 105 56 361 272 361c76 0 111 -31 127 -46l63 243h85l-182 -706h-86zM359 168l64 248c-21 27 -55 44 -95 44c-140 0 -204 -212 -204 -313c0 -55 22 -105 86 -105c57 0 127 39 149 126zM690 614l-67 -112
h-56l70 112h-41l24 92h93z" />
    <glyph glyph-name="Dcroat" unicode="&#x110;" horiz-adv-x="692" 
d="M23 0l89 345h-73l15 60h74l78 301h195c51 0 120 -1 171 -25c100 -47 115 -144 115 -211c0 -113 -48 -345 -194 -428c-69 -39 -153 -42 -219 -42h-251zM135 63h115c58 0 148 2 203 48c103 84 138 296 138 362c0 160 -115 169 -195 169h-111l-62 -237h180l-15 -60h-180z
" />
    <glyph glyph-name="dcroat" unicode="&#x111;" horiz-adv-x="528" 
d="M624 593h-70l-153 -593h-86l13 47c-24 -20 -68 -56 -145 -56c-72 0 -147 39 -147 157c0 105 56 361 272 361c76 0 111 -31 127 -46l33 130h-135l13 48h135l17 65h85l-17 -65h70zM359 168l64 248c-21 27 -55 44 -95 44c-140 0 -204 -212 -204 -313c0 -55 22 -105 86 -105
c57 0 127 39 149 126z" />
    <glyph glyph-name="Emacron" unicode="&#x112;" horiz-adv-x="525" 
d="M595 706l-18 -68h-292l-61 -236h286l-18 -68h-286l-68 -266h340l-17 -68h-438l183 706h389zM551 839l-14 -64h-265l14 64h265z" />
    <glyph glyph-name="emacron" unicode="&#x113;" horiz-adv-x="500" 
d="M468 245h-335c-3 -15 -12 -46 -12 -86c0 -34 8 -115 110 -115c96 0 124 73 135 103h86c-58 -153 -181 -156 -229 -156c-31 0 -186 1 -186 169c0 76 31 185 74 249c53 78 125 100 197 100c45 0 176 -9 176 -158c0 -71 -9 -85 -16 -106zM150 301h246c3 9 9 37 9 63
c0 18 -8 96 -97 96c-25 0 -67 -7 -105 -54c-26 -32 -40 -68 -53 -105zM481 639l-14 -64h-265l14 64h265z" />
    <glyph glyph-name="Ebreve" unicode="&#x114;" horiz-adv-x="525" 
d="M595 706l-18 -68h-292l-61 -236h286l-18 -68h-286l-68 -266h340l-17 -68h-438l183 706h389zM494 878h63c-13 -45 -52 -119 -152 -119c-51 0 -105 28 -105 92c0 10 2 27 2 27h59c-1 -6 -2 -13 -2 -20c0 -36 26 -50 54 -50c56 0 75 53 81 70z" />
    <glyph glyph-name="ebreve" unicode="&#x115;" horiz-adv-x="500" 
d="M468 245h-335c-3 -15 -12 -46 -12 -86c0 -34 8 -115 110 -115c96 0 124 73 135 103h86c-58 -153 -181 -156 -229 -156c-31 0 -186 1 -186 169c0 76 31 185 74 249c53 78 125 100 197 100c45 0 176 -9 176 -158c0 -71 -9 -85 -16 -106zM150 301h246c3 9 9 37 9 63
c0 18 -8 96 -97 96c-25 0 -67 -7 -105 -54c-26 -32 -40 -68 -53 -105zM418 678h63c-13 -45 -52 -119 -152 -119c-51 0 -105 28 -105 92c0 10 2 27 2 27h59c-1 -6 -2 -13 -2 -20c0 -36 26 -50 54 -50c56 0 75 53 81 70z" />
    <glyph glyph-name="Edotaccent" unicode="&#x116;" horiz-adv-x="525" 
d="M595 706l-18 -68h-292l-61 -236h286l-18 -68h-286l-68 -266h340l-17 -68h-438l183 706h389zM486 860l-22 -83h-86l22 83h86z" />
    <glyph glyph-name="edotaccent" unicode="&#x117;" horiz-adv-x="500" 
d="M468 245h-335c-3 -15 -12 -46 -12 -86c0 -34 8 -115 110 -115c96 0 124 73 135 103h86c-58 -153 -181 -156 -229 -156c-31 0 -186 1 -186 169c0 76 31 185 74 249c53 78 125 100 197 100c45 0 176 -9 176 -158c0 -71 -9 -85 -16 -106zM150 301h246c3 9 9 37 9 63
c0 18 -8 96 -97 96c-25 0 -67 -7 -105 -54c-26 -32 -40 -68 -53 -105zM407 660l-22 -83h-87l22 83h87z" />
    <glyph glyph-name="Eogonek" unicode="&#x118;" horiz-adv-x="525" 
d="M595 706l-18 -68h-292l-61 -236h286l-18 -68h-286l-68 -266h340l-17 -68h-7c-52 -37 -77 -62 -77 -89c0 -19 10 -36 43 -36c18 0 25 3 35 6l-14 -57c-11 -3 -29 -7 -55 -7c-61 0 -89 28 -89 64c0 44 68 98 103 119h-377l183 706h389z" />
    <glyph glyph-name="eogonek" unicode="&#x119;" horiz-adv-x="500" 
d="M468 245h-335c-3 -15 -12 -46 -12 -86c0 -34 8 -115 110 -115c96 0 124 73 135 103h86c-41 -108 -114 -141 -170 -151c-48 -35 -71 -59 -71 -85c0 -19 10 -36 43 -36c18 0 25 3 35 6l-14 -57c-11 -3 -29 -7 -55 -7c-61 0 -89 28 -89 64c0 39 52 85 88 110
c-36 0 -182 6 -182 169c0 76 31 185 74 249c53 78 125 100 197 100c45 0 176 -9 176 -158c0 -71 -10 -86 -16 -106zM150 301h246c3 9 9 37 9 63c0 18 -8 96 -97 96c-25 0 -67 -7 -105 -54c-26 -32 -40 -68 -53 -105z" />
    <glyph glyph-name="Ecaron" unicode="&#x11a;" horiz-adv-x="525" 
d="M595 706l-18 -68h-292l-61 -236h286l-18 -68h-286l-68 -266h340l-17 -68h-438l183 706h389zM560 895l-111 -136h-87l-41 136h60l29 -98l79 98h71z" />
    <glyph glyph-name="ecaron" unicode="&#x11b;" horiz-adv-x="500" 
d="M468 245h-335c-3 -15 -12 -46 -12 -86c0 -34 8 -115 110 -115c96 0 124 73 135 103h86c-58 -153 -181 -156 -229 -156c-31 0 -186 1 -186 169c0 76 31 185 74 249c53 78 125 100 197 100c45 0 176 -9 176 -158c0 -71 -9 -85 -16 -106zM150 301h246c3 9 9 37 9 63
c0 18 -8 96 -97 96c-25 0 -67 -7 -105 -54c-26 -32 -40 -68 -53 -105zM472 695l-112 -136h-86l-41 136h60l29 -98l79 98h71z" />
    <glyph glyph-name="Gcircumflex" unicode="&#x11c;" horiz-adv-x="688" 
d="M658 354l-97 -354h-86l19 57c-31 -34 -81 -67 -189 -67c-121 0 -240 47 -240 223c0 82 46 319 157 424c82 77 179 80 217 80c124 0 191 -51 218 -99c10 -17 22 -48 22 -96c0 -13 -1 -26 -2 -39h-88c1 12 2 24 2 34c0 104 -73 140 -148 140c-36 0 -101 -6 -159 -75
c-80 -95 -124 -294 -124 -382c0 -33 4 -64 23 -93c29 -45 85 -58 136 -58c109 0 161 51 184 92c20 34 34 84 44 121l6 25h-189l19 67h275zM584 759h-61l-28 98l-79 -98h-71l111 136h87z" />
    <glyph glyph-name="gcircumflex" unicode="&#x11d;" horiz-adv-x="527" 
d="M530 500l-128 -497c-31 -118 -75 -211 -249 -211c-139 0 -170 74 -170 119v33h91c-1 -8 -1 -11 -1 -17c0 -28 9 -85 97 -85c72 0 106 56 116 77c13 25 29 77 46 145c-30 -25 -76 -57 -146 -57c-50 0 -149 19 -149 159c0 71 22 132 31 155c41 105 117 188 239 188
c15 0 86 -2 129 -46l9 37h85zM377 238l46 176c-33 44 -79 46 -97 46c-33 0 -82 -11 -128 -73c-43 -59 -73 -156 -73 -229c0 -24 4 -99 88 -99c22 0 71 8 112 51c29 30 33 56 52 128zM460 559h-61l-29 99l-79 -99h-72l112 136h88z" />
    <glyph glyph-name="Gbreve" unicode="&#x11e;" horiz-adv-x="688" 
d="M658 354l-97 -354h-86l19 57c-31 -34 -81 -67 -189 -67c-121 0 -240 47 -240 223c0 82 46 319 157 424c82 77 179 80 217 80c124 0 191 -51 218 -99c10 -17 22 -48 22 -96c0 -13 -1 -26 -2 -39h-88c1 12 2 24 2 34c0 104 -73 140 -148 140c-36 0 -101 -6 -159 -75
c-80 -95 -124 -294 -124 -382c0 -33 4 -64 23 -93c29 -45 85 -58 136 -58c109 0 161 51 184 92c20 34 34 84 44 121l6 25h-189l19 67h275zM545 878h63c-13 -45 -52 -119 -152 -119c-51 0 -105 28 -105 92c0 10 2 27 2 27h59c-1 -6 -2 -13 -2 -20c0 -36 26 -50 54 -50
c56 0 75 53 81 70z" />
    <glyph glyph-name="gbreve" unicode="&#x11f;" horiz-adv-x="527" 
d="M530 500l-128 -497c-31 -118 -75 -211 -249 -211c-139 0 -170 74 -170 119v33h91c-1 -8 -1 -11 -1 -17c0 -28 9 -85 97 -85c72 0 106 56 116 77c13 25 29 77 46 145c-30 -25 -76 -57 -146 -57c-50 0 -149 19 -149 159c0 71 22 132 31 155c41 105 117 188 239 188
c15 0 86 -2 129 -46l9 37h85zM377 238l46 176c-33 44 -79 46 -97 46c-33 0 -82 -11 -128 -73c-43 -59 -73 -156 -73 -229c0 -24 4 -99 88 -99c22 0 71 8 112 51c29 30 33 56 52 128zM416 678h63c-13 -45 -52 -119 -152 -119c-51 0 -105 28 -105 92c0 10 2 27 2 27h59
c-1 -6 -2 -13 -2 -20c0 -36 26 -50 54 -50c56 0 75 53 81 70z" />
    <glyph glyph-name="Gdotaccent" unicode="&#x120;" horiz-adv-x="688" 
d="M658 354l-97 -354h-86l19 57c-31 -34 -81 -67 -189 -67c-121 0 -240 47 -240 223c0 82 46 319 157 424c82 77 179 80 217 80c124 0 191 -51 218 -99c10 -17 22 -48 22 -96c0 -13 -1 -26 -2 -39h-88c1 12 2 24 2 34c0 104 -73 140 -148 140c-36 0 -101 -6 -159 -75
c-80 -95 -124 -294 -124 -382c0 -33 4 -64 23 -93c29 -45 85 -58 136 -58c109 0 161 51 184 92c20 34 34 84 44 121l6 25h-189l19 67h275zM525 860l-22 -83h-86l22 83h86z" />
    <glyph glyph-name="gdotaccent" unicode="&#x121;" horiz-adv-x="527" 
d="M530 500l-128 -497c-31 -118 -75 -211 -249 -211c-139 0 -170 74 -170 119v33h91c-1 -8 -1 -11 -1 -17c0 -28 9 -85 97 -85c72 0 106 56 116 77c13 25 29 77 46 145c-30 -25 -76 -57 -146 -57c-50 0 -149 19 -149 159c0 71 22 132 31 155c41 105 117 188 239 188
c15 0 86 -2 129 -46l9 37h85zM377 238l46 176c-33 44 -79 46 -97 46c-33 0 -82 -11 -128 -73c-43 -59 -73 -156 -73 -229c0 -24 4 -99 88 -99c22 0 71 8 112 51c29 30 33 56 52 128zM403 660l-22 -83h-87l22 83h87z" />
    <glyph glyph-name="Gcommaaccent" unicode="&#x122;" horiz-adv-x="688" 
d="M658 354l-97 -354h-86l19 57c-31 -34 -81 -67 -189 -67c-121 0 -240 47 -240 223c0 82 46 319 157 424c82 77 179 80 217 80c124 0 191 -51 218 -99c10 -17 22 -48 22 -96c0 -13 -1 -26 -2 -39h-88c1 12 2 24 2 34c0 104 -73 140 -148 140c-36 0 -101 -6 -159 -75
c-80 -95 -124 -294 -124 -382c0 -33 4 -64 23 -93c29 -45 85 -58 136 -58c109 0 161 51 184 92c20 34 34 84 44 121l6 25h-189l19 67h275zM323 -121l-66 -108h-55l72 108h-48l23 89h97z" />
    <glyph glyph-name="gcommaaccent" unicode="&#x123;" horiz-adv-x="527" 
d="M530 500l-128 -497c-31 -118 -75 -211 -249 -211c-139 0 -170 74 -170 119v33h91c-1 -8 -1 -11 -1 -17c0 -28 9 -85 97 -85c72 0 106 56 116 77c13 25 29 77 46 145c-30 -25 -76 -57 -146 -57c-50 0 -149 19 -149 159c0 71 22 132 31 155c41 105 117 188 239 188
c15 0 86 -2 129 -46l9 37h85zM377 238l46 176c-33 44 -79 46 -97 46c-33 0 -82 -11 -128 -73c-43 -59 -73 -156 -73 -229c0 -24 4 -99 88 -99c22 0 71 8 112 51c29 30 33 56 52 128zM307 648l66 108h55l-72 -108h48l-23 -89h-97z" />
    <glyph glyph-name="Hcircumflex" unicode="&#x124;" horiz-adv-x="654" 
d="M701 706l-183 -706h-96l87 338h-301l-87 -338h-98l183 706h97l-79 -303h302l79 303h96zM578 759h-61l-28 98l-79 -98h-71l111 136h87z" />
    <glyph glyph-name="hcircumflex" unicode="&#x125;" horiz-adv-x="524" 
d="M400 0h-85l77 297c11 43 17 71 17 92c0 48 -40 64 -74 64c-25 0 -76 -9 -116 -52c-20 -22 -28 -45 -42 -99l-78 -302h-85l183 706h86l-69 -264c38 32 95 67 175 67c82 0 108 -51 108 -103c0 -25 -6 -58 -20 -110zM360 759h-61l-28 98l-79 -98h-71l111 136h87z" />
    <glyph glyph-name="Hbar" unicode="&#x126;" horiz-adv-x="654" 
d="M109 526l18 68h50l29 112h97l-29 -112h302l29 112h96l-29 -112h50l-18 -68h-50l-136 -526h-96l87 338h-301l-87 -338h-98l136 526h-50zM224 403h302l32 123h-302z" />
    <glyph glyph-name="hbar" unicode="&#x127;" horiz-adv-x="524" 
d="M394 593h-141l-39 -151c38 32 95 67 175 67c82 0 108 -51 108 -103c0 -25 -6 -58 -20 -110l-77 -296h-85l77 297c11 43 17 71 17 92c0 48 -40 64 -74 64c-25 0 -76 -9 -116 -52c-20 -22 -28 -45 -42 -99l-78 -302h-85l153 593h-64l13 48h64l17 65h86l-17 -65h140z" />
    <glyph glyph-name="Itilde" unicode="&#x128;" horiz-adv-x="258" 
d="M305 706l-186 -706h-96l183 706h99zM422 886l-14 -52c-9 -35 -19 -75 -68 -75c-26 0 -47 13 -74 32l-26 19c-21 16 -30 22 -41 22c-18 0 -21 -21 -27 -45l-6 -26h-62l10 40c9 37 22 87 75 87c28 0 48 -12 73 -31l31 -23c18 -13 28 -20 36 -20c15 0 20 22 25 44l6 28h62z
" />
    <glyph glyph-name="itilde" unicode="&#x129;" horiz-adv-x="222" 
d="M227 500l-130 -500h-85l130 500h85zM350 686l-14 -52c-10 -37 -19 -75 -68 -75c-27 0 -46 13 -69 29l-32 22c-22 15 -29 22 -40 22c-18 0 -22 -21 -27 -45l-6 -27h-63l10 40c10 39 21 88 75 88c26 0 47 -13 73 -32l30 -22c17 -12 28 -21 37 -21c12 0 20 15 26 45l6 28h62
z" />
    <glyph glyph-name="uni012A" unicode="&#x12a;" horiz-adv-x="258" 
d="M401 839l-14 -64h-255l14 64h255zM305 706l-186 -706h-96l183 706h99z" />
    <glyph glyph-name="imacron" unicode="&#x12b;" horiz-adv-x="222" 
d="M227 500l-130 -500h-85l130 500h85zM311 575h-235l13 64h235z" />
    <glyph glyph-name="Ibreve" unicode="&#x12c;" horiz-adv-x="258" 
d="M305 706l-186 -706h-96l183 706h99zM342 878h63c-13 -45 -52 -119 -152 -119c-51 0 -105 28 -105 92c0 10 2 27 2 27h59c-1 -6 -2 -13 -2 -20c0 -36 26 -50 54 -50c56 0 75 53 81 70z" />
    <glyph glyph-name="uni012D" unicode="&#x12d;" horiz-adv-x="222" 
d="M227 500l-130 -500h-85l130 500h85zM274 678h63c-13 -45 -52 -119 -152 -119c-51 0 -105 28 -105 92c0 10 2 27 2 27h59c-1 -6 -2 -13 -2 -20c0 -36 26 -50 54 -50c56 0 75 53 81 70z" />
    <glyph glyph-name="Iogonek" unicode="&#x12e;" horiz-adv-x="258" 
d="M305 706l-186 -706h-9c-52 -37 -77 -62 -77 -89c0 -19 10 -36 43 -36c18 0 25 3 35 6l-14 -57c-11 -3 -29 -7 -55 -7c-61 0 -89 28 -89 64c0 44 68 98 103 119h-33l183 706h99z" />
    <glyph glyph-name="iogonek" unicode="&#x12f;" horiz-adv-x="222" 
d="M227 500l-130 -500h-7c-55 -39 -77 -63 -77 -89c0 -19 10 -36 43 -36c18 0 25 3 35 6l-14 -57c-11 -3 -29 -7 -55 -7c-61 0 -89 28 -89 64c0 44 68 98 103 119h-24l130 500h85zM277 695l-22 -84h-85l22 84h85z" />
    <glyph glyph-name="Idotaccent" unicode="&#x130;" horiz-adv-x="258" 
d="M305 706l-186 -706h-96l183 706h99zM329 860l-22 -83h-86l22 83h86z" />
    <glyph glyph-name="IJ" unicode="&#x132;" horiz-adv-x="679" 
d="M305 706l-186 -706h-96l183 706h99zM727 706l-122 -476c-23 -90 -59 -241 -238 -241c-23 0 -85 5 -145 35l27 69c12 -6 63 -36 115 -36c13 0 54 3 84 33c23 23 44 82 76 207l106 409h97z" />
    <glyph glyph-name="ij" unicode="&#x133;" horiz-adv-x="445" 
d="M277 695l-22 -84h-85l22 84h85zM227 500l-130 -500h-85l130 500h85zM364 500h85l-122 -474c-33 -129 -65 -234 -199 -234c-27 0 -42 4 -56 8l17 58c10 -2 21 -4 34 -4c70 0 89 53 121 179zM500 695l-22 -83h-85l22 83h85z" />
    <glyph glyph-name="Jcircumflex" unicode="&#x134;" horiz-adv-x="421" 
d="M469 706l-122 -476c-23 -90 -59 -241 -238 -241c-23 0 -85 5 -145 35l27 69c12 -6 63 -36 115 -36c13 0 54 3 84 33c23 23 44 82 76 207l106 409h97zM548 759h-61l-28 98l-79 -98h-71l111 136h87z" />
    <glyph glyph-name="jcircumflex" unicode="&#x135;" horiz-adv-x="223" 
d="M142 500h85l-122 -474c-33 -129 -65 -234 -199 -234c-27 0 -42 4 -56 8l17 58c10 -2 21 -4 34 -4c70 0 89 53 121 179zM315 559h-61l-29 99l-79 -99h-72l112 136h88z" />
    <glyph glyph-name="Kcommaaccent" unicode="&#x136;" horiz-adv-x="587" 
d="M709 706l-336 -288l198 -418h-102l-166 360l-119 -104l-67 -256h-94l183 706h94l-87 -333l380 333h116zM284 -121l-66 -108h-55l72 108h-48l23 89h97z" />
    <glyph glyph-name="kcommaaccent" unicode="&#x137;" horiz-adv-x="491" 
d="M532 500l-225 -191l150 -309h-95l-121 258l-99 -86l-44 -172h-84l183 706h83l-112 -431l264 225h100zM226 -121l-66 -108h-55l72 108h-48l23 89h97z" />
    <glyph glyph-name="kgreenlandic" unicode="&#x138;" horiz-adv-x="491" 
d="M532 500l-225 -191l150 -309h-95l-121 258l-99 -86l-44 -172h-84l130 500h83l-59 -225l264 225h100z" />
    <glyph glyph-name="Lacute" unicode="&#x139;" horiz-adv-x="504" 
d="M465 69l-18 -69h-424l183 706h96l-164 -637h327zM433 895l-142 -136h-71l109 136h104z" />
    <glyph glyph-name="lacute" unicode="&#x13a;" horiz-adv-x="221" 
d="M279 706l-181 -706h-84l180 706h85zM404 895l-142 -136h-71l109 136h104z" />
    <glyph glyph-name="Lcommaaccent" unicode="&#x13b;" horiz-adv-x="504" 
d="M465 69l-18 -69h-424l183 706h96l-164 -637h327zM264 -121l-66 -108h-55l72 108h-48l23 89h97z" />
    <glyph glyph-name="lcommaaccent" unicode="&#x13c;" horiz-adv-x="221" 
d="M343 706l-181 -706h-84l180 706h85zM135 -121l-66 -108h-55l72 108h-48l23 89h97z" />
    <glyph glyph-name="Lcaron" unicode="&#x13d;" horiz-adv-x="504" 
d="M465 69l-18 -69h-424l183 706h96l-164 -637h327zM411 614l-67 -112h-56l70 112h-41l24 92h93z" />
    <glyph glyph-name="lcaron" unicode="&#x13e;" horiz-adv-x="221" 
d="M279 706l-181 -706h-84l180 706h85zM376 614l-67 -112h-56l70 112h-41l24 92h93z" />
    <glyph glyph-name="Ldot" unicode="&#x13f;" horiz-adv-x="504" 
d="M465 69l-18 -69h-424l183 706h96l-164 -637h327zM440 370h-89l24 92h89z" />
    <glyph glyph-name="ldot" unicode="&#x140;" horiz-adv-x="298" 
d="M279 706l-181 -706h-84l180 706h85zM331 356h-87l23 86h87z" />
    <glyph glyph-name="Nacute" unicode="&#x143;" horiz-adv-x="675" 
d="M539 0h-99s-169 532 -181 594l-152 -594h-84l187 706h98l180 -599l153 599h81zM613 895l-142 -136h-71l109 136h104z" />
    <glyph glyph-name="nacute" unicode="&#x144;" horiz-adv-x="524" 
d="M400 0h-85l77 297c11 43 17 71 17 92c0 48 -40 64 -74 64c-25 0 -76 -9 -116 -52c-20 -22 -28 -45 -42 -99l-78 -302h-85l129 500h86l-15 -58c40 33 91 67 175 67c82 0 108 -51 108 -103c0 -25 -6 -58 -20 -110zM487 695l-142 -136h-71l109 136h104z" />
    <glyph glyph-name="Ncommaaccent" unicode="&#x145;" horiz-adv-x="675" 
d="M539 0h-99s-169 532 -181 594l-152 -594h-84l187 706h98l180 -599l153 599h81zM312 -121l-66 -108h-55l72 108h-48l23 89h97z" />
    <glyph glyph-name="ncommaaccent" unicode="&#x146;" horiz-adv-x="524" 
d="M400 0h-85l77 297c11 43 17 71 17 92c0 48 -40 64 -74 64c-25 0 -76 -9 -116 -52c-20 -22 -28 -45 -42 -99l-78 -302h-85l129 500h86l-15 -58c40 33 91 67 175 67c82 0 108 -51 108 -103c0 -25 -6 -58 -20 -110zM230 -121l-66 -108h-55l72 108h-48l23 89h97z" />
    <glyph glyph-name="Ncaron" unicode="&#x147;" horiz-adv-x="675" 
d="M539 0h-99s-169 532 -181 594l-152 -594h-84l187 706h98l180 -599l153 599h81zM616 895l-111 -136h-87l-41 136h60l29 -98l79 98h71z" />
    <glyph glyph-name="ncaron" unicode="&#x148;" horiz-adv-x="524" 
d="M400 0h-85l77 297c11 43 17 71 17 92c0 48 -40 64 -74 64c-25 0 -76 -9 -116 -52c-20 -22 -28 -45 -42 -99l-78 -302h-85l129 500h86l-15 -58c40 33 91 67 175 67c82 0 108 -51 108 -103c0 -25 -6 -58 -20 -110zM471 695l-112 -136h-86l-41 136h60l29 -98l79 98h71z" />
    <glyph glyph-name="napostrophe" unicode="&#x149;" horiz-adv-x="524" 
d="M400 0h-85l77 297c11 43 17 71 17 92c0 48 -40 64 -74 64c-25 0 -76 -9 -116 -52c-20 -22 -28 -45 -42 -99l-78 -302h-85l129 500h86l-15 -58c40 33 91 67 175 67c82 0 108 -51 108 -103c0 -25 -6 -58 -20 -110zM175 614l-67 -112h-56l70 112h-41l24 92h93z" />
    <glyph glyph-name="Eng" unicode="&#x14a;" horiz-adv-x="675" 
d="M641 706h81l-183 -705c-30 -117 -69 -209 -193 -209c-22 0 -42 2 -57 6l18 62c11 -3 22 -5 35 -5c58 0 81 36 105 123c-40 126 -178 563 -188 616l-152 -594h-84l187 706h98l180 -599z" />
    <glyph glyph-name="eng" unicode="&#x14b;" horiz-adv-x="524" 
d="M477 296l-70 -270c-33 -129 -65 -234 -199 -234c-27 0 -42 4 -56 8l17 58c10 -2 21 -4 34 -4c63 0 85 44 112 146l77 297c11 43 18 71 18 92c0 48 -41 64 -75 64c-25 0 -76 -9 -116 -52c-20 -22 -28 -45 -42 -99l-78 -302h-85l129 500h86l-15 -58c27 23 87 67 165 67
c82 0 118 -51 118 -103c0 -25 -6 -58 -20 -110z" />
    <glyph glyph-name="Omacron" unicode="&#x14c;" horiz-adv-x="688" 
d="M65 215c0 94 39 230 67 296c55 129 141 206 308 206c79 0 140 -21 181 -54c64 -51 70 -120 70 -167c0 -54 -11 -107 -24 -160c-28 -113 -63 -210 -122 -267s-140 -79 -221 -79c-135 0 -259 53 -259 225zM163 205c0 -107 61 -156 159 -156c149 0 200 115 247 300
c12 45 25 102 25 159c0 89 -53 152 -155 152c-60 0 -113 -20 -157 -72c-78 -93 -119 -311 -119 -383zM611 839l-14 -64h-265l14 64h265z" />
    <glyph glyph-name="omacron" unicode="&#x14d;" horiz-adv-x="521" 
d="M38 164c0 27 4 82 26 148c42 124 123 198 259 198c93 0 141 -49 158 -83c19 -36 19 -78 19 -91c0 -59 -19 -136 -40 -185c-22 -53 -75 -160 -230 -160c-114 0 -192 60 -192 173zM125 160c0 -50 20 -116 108 -116c89 0 128 69 151 139c16 49 33 110 33 168
c0 52 -24 106 -103 106c-88 0 -129 -71 -141 -94c-27 -53 -48 -145 -48 -203zM497 639l-14 -64h-265l14 64h265z" />
    <glyph glyph-name="Obreve" unicode="&#x14e;" horiz-adv-x="688" 
d="M65 215c0 94 39 230 67 296c55 129 141 206 308 206c79 0 140 -21 181 -54c64 -51 70 -120 70 -167c0 -54 -11 -107 -24 -160c-28 -113 -63 -210 -122 -267s-140 -79 -221 -79c-135 0 -259 53 -259 225zM163 205c0 -107 61 -156 159 -156c149 0 200 115 247 300
c12 45 25 102 25 159c0 89 -53 152 -155 152c-60 0 -113 -20 -157 -72c-78 -93 -119 -311 -119 -383zM546 878h63c-13 -45 -52 -119 -152 -119c-51 0 -105 28 -105 92c0 10 2 27 2 27h59c-1 -6 -2 -13 -2 -20c0 -36 26 -50 54 -50c56 0 75 53 81 70z" />
    <glyph glyph-name="obreve" unicode="&#x14f;" horiz-adv-x="521" 
d="M38 164c0 27 4 82 26 148c42 124 123 198 259 198c93 0 141 -49 158 -83c19 -36 19 -78 19 -91c0 -59 -19 -136 -40 -185c-22 -53 -75 -160 -230 -160c-114 0 -192 60 -192 173zM125 160c0 -50 20 -116 108 -116c89 0 128 69 151 139c16 49 33 110 33 168
c0 52 -24 106 -103 106c-88 0 -129 -71 -141 -94c-27 -53 -48 -145 -48 -203zM422 678h63c-13 -45 -52 -119 -152 -119c-51 0 -105 28 -105 92c0 10 2 27 2 27h59c-1 -6 -2 -13 -2 -20c0 -36 26 -50 54 -50c56 0 75 53 81 70z" />
    <glyph glyph-name="Ohungarumlaut" unicode="&#x150;" horiz-adv-x="688" 
d="M65 215c0 94 39 230 67 296c55 129 141 206 308 206c79 0 140 -21 181 -54c64 -51 70 -120 70 -167c0 -54 -11 -107 -24 -160c-28 -113 -63 -210 -122 -267s-140 -79 -221 -79c-135 0 -259 53 -259 225zM163 205c0 -107 61 -156 159 -156c149 0 200 115 247 300
c12 45 25 102 25 159c0 89 -53 152 -155 152c-60 0 -113 -20 -157 -72c-78 -93 -119 -311 -119 -383zM550 895l-143 -136h-67l110 136h100zM699 895l-143 -136h-67l110 136h100z" />
    <glyph glyph-name="ohungarumlaut" unicode="&#x151;" horiz-adv-x="521" 
d="M38 164c0 27 4 82 26 148c42 124 123 198 259 198c93 0 141 -49 158 -83c19 -36 19 -78 19 -91c0 -59 -19 -136 -40 -185c-22 -53 -75 -160 -230 -160c-114 0 -192 60 -192 173zM125 160c0 -50 20 -116 108 -116c89 0 128 69 151 139c16 49 33 110 33 168
c0 52 -24 106 -103 106c-88 0 -129 -71 -141 -94c-27 -53 -48 -145 -48 -203zM411 695l-143 -136h-66l110 136h99zM560 695l-143 -136h-66l110 136h99z" />
    <glyph glyph-name="Racute" unicode="&#x154;" horiz-adv-x="608" 
d="M206 706h187c65 0 137 -4 184 -58c15 -17 35 -49 35 -106c0 -89 -47 -139 -72 -161c-31 -27 -63 -41 -114 -47c77 -12 94 -107 102 -168l6 -44c5 -39 15 -97 38 -122h-99c-18 24 -21 41 -28 92l-7 49c-10 68 -12 101 -39 132c-31 36 -67 37 -152 37h-48l-80 -310h-96z
M217 376h87c69 0 140 1 184 62c11 16 31 48 31 97c0 108 -98 108 -151 108h-83zM532 895l-142 -136h-71l109 136h104z" />
    <glyph glyph-name="racute" unicode="&#x155;" horiz-adv-x="319" 
d="M99 0h-85l129 500h86l-23 -78c59 71 101 84 136 84c11 0 22 0 42 -10l-24 -74c-8 4 -29 19 -57 19c-79 0 -115 -101 -132 -165zM401 695l-142 -136h-71l109 136h104z" />
    <glyph glyph-name="Rcommaaccent" unicode="&#x156;" horiz-adv-x="608" 
d="M206 706h187c65 0 137 -4 184 -58c15 -17 35 -49 35 -106c0 -89 -47 -139 -72 -161c-31 -27 -63 -41 -114 -47c77 -12 94 -107 102 -168l6 -44c5 -39 15 -97 38 -122h-99c-18 24 -21 41 -28 92l-7 49c-10 68 -12 101 -39 132c-31 36 -67 37 -152 37h-48l-80 -310h-96z
M217 376h87c69 0 140 1 184 62c11 16 31 48 31 97c0 108 -98 108 -151 108h-83zM288 -121l-66 -108h-55l72 108h-48l23 89h97z" />
    <glyph glyph-name="rcommaaccent" unicode="&#x157;" horiz-adv-x="319" 
d="M162 0h-85l129 500h86l-23 -78c59 71 101 84 136 84c11 0 22 0 42 -10l-24 -74c-8 4 -29 19 -57 19c-79 0 -115 -101 -132 -165zM135 -121l-66 -108h-55l72 108h-48l23 89h97z" />
    <glyph glyph-name="Rcaron" unicode="&#x158;" horiz-adv-x="608" 
d="M206 706h187c65 0 137 -4 184 -58c15 -17 35 -49 35 -106c0 -89 -47 -139 -72 -161c-31 -27 -63 -41 -114 -47c77 -12 94 -107 102 -168l6 -44c5 -39 15 -97 38 -122h-99c-18 24 -21 41 -28 92l-7 49c-10 68 -12 101 -39 132c-31 36 -67 37 -152 37h-48l-80 -310h-96z
M217 376h87c69 0 140 1 184 62c11 16 31 48 31 97c0 108 -98 108 -151 108h-83zM527 895l-111 -136h-87l-41 136h60l29 -98l79 98h71z" />
    <glyph glyph-name="rcaron" unicode="&#x159;" horiz-adv-x="319" 
d="M99 0h-85l129 500h86l-23 -78c59 71 101 84 136 84c11 0 22 0 42 -10l-24 -74c-8 4 -29 19 -57 19c-79 0 -115 -101 -132 -165zM402 695l-112 -136h-86l-41 136h60l29 -98l79 98h71z" />
    <glyph glyph-name="Sacute" unicode="&#x15a;" horiz-adv-x="542" 
d="M27 212l88 -6s-3 -21 -3 -36c0 -92 83 -123 152 -123c115 0 147 88 147 133c0 76 -49 109 -118 147l-34 19c-44 25 -127 77 -127 182c0 123 96 189 234 189c37 0 208 -5 208 -169c0 -11 -1 -18 -3 -29h-85v26c0 106 -94 117 -123 117c-103 0 -139 -79 -139 -121
c0 -65 47 -96 108 -131l33 -19c56 -32 141 -80 141 -201c0 -85 -61 -201 -237 -201c-98 0 -247 26 -247 177c0 14 0 21 5 46zM527 895l-142 -136h-71l109 136h104z" />
    <glyph glyph-name="sacute" unicode="&#x15b;" horiz-adv-x="417" 
d="M413 360l-73 4c1 7 2 16 2 22c0 55 -50 73 -90 73c-48 0 -83 -27 -83 -68c0 -42 34 -65 78 -93l36 -23c46 -29 88 -64 88 -131s-41 -153 -179 -153c-124 0 -186 59 -186 140c0 9 1 18 3 30l81 -5c-1 -8 -1 -12 -1 -18c0 -66 49 -97 105 -97c69 0 96 46 96 83
c0 49 -36 72 -78 99l-40 26c-35 23 -84 56 -84 124c0 63 44 136 166 136c84 0 161 -35 161 -122c0 -10 -1 -21 -2 -27zM435 695l-142 -136h-71l109 136h104z" />
    <glyph glyph-name="Scircumflex" unicode="&#x15c;" horiz-adv-x="542" 
d="M27 212l88 -6s-3 -21 -3 -36c0 -92 83 -123 152 -123c115 0 147 88 147 133c0 76 -49 109 -118 147l-34 19c-44 25 -127 77 -127 182c0 123 96 189 234 189c37 0 208 -5 208 -169c0 -11 -1 -18 -3 -29h-85v26c0 106 -94 117 -123 117c-103 0 -139 -79 -139 -121
c0 -65 47 -96 108 -131l33 -19c56 -32 141 -80 141 -201c0 -85 -61 -201 -237 -201c-98 0 -247 26 -247 177c0 14 0 21 5 46zM509 759h-61l-28 98l-79 -98h-71l111 136h87z" />
    <glyph glyph-name="scircumflex" unicode="&#x15d;" horiz-adv-x="417" 
d="M413 360l-73 4c1 7 2 16 2 22c0 55 -50 73 -90 73c-48 0 -83 -27 -83 -68c0 -42 34 -65 78 -93l36 -23c46 -29 88 -64 88 -131s-41 -153 -179 -153c-124 0 -186 59 -186 140c0 9 1 18 3 30l81 -5c-1 -8 -1 -12 -1 -18c0 -66 49 -97 105 -97c69 0 96 46 96 83
c0 49 -36 72 -78 99l-40 26c-35 23 -84 56 -84 124c0 63 44 136 166 136c84 0 161 -35 161 -122c0 -10 -1 -21 -2 -27zM401 559h-61l-29 99l-79 -99h-72l112 136h88z" />
    <glyph glyph-name="Scedilla" unicode="&#x15e;" horiz-adv-x="542" 
d="M27 212l88 -6s-3 -21 -3 -36c0 -92 83 -123 152 -123c115 0 147 88 147 133c0 76 -49 109 -118 147l-34 19c-44 25 -127 77 -127 182c0 123 96 189 234 189c37 0 208 -5 208 -169c0 -11 -1 -18 -3 -29h-85v26c0 106 -94 117 -123 117c-103 0 -139 -79 -139 -121
c0 -65 47 -96 108 -131l33 -19c56 -32 141 -80 141 -201c0 -85 -61 -201 -237 -201c-7 0 -13 0 -20 1l-11 -31c14 0 26 0 39 -3c19 -5 55 -25 55 -75c0 -66 -50 -103 -138 -103c-18 0 -42 1 -55 3l13 49c15 -2 31 -4 47 -4c32 0 71 13 71 52c0 42 -58 42 -84 42l24 73
c-89 10 -188 50 -188 173c0 14 0 21 5 46z" />
    <glyph glyph-name="scedilla" unicode="&#x15f;" horiz-adv-x="417" 
d="M413 360l-73 4c1 7 2 16 2 22c0 55 -50 73 -90 73c-48 0 -83 -27 -83 -68c0 -42 34 -65 78 -93l36 -23c46 -29 88 -64 88 -131s-41 -153 -179 -153h-5l-11 -32c14 0 26 0 39 -3c19 -5 55 -25 55 -75c0 -66 -50 -103 -138 -103c-18 0 -42 1 -55 3l13 49c15 -2 31 -4 47 -4
c32 0 71 13 71 52c0 42 -58 42 -84 42l25 74c-96 12 -143 66 -143 137c0 9 1 18 3 30l81 -5c-1 -8 -1 -12 -1 -18c0 -66 49 -97 105 -97c69 0 96 46 96 83c0 49 -36 72 -78 99l-40 26c-35 23 -84 56 -84 124c0 63 44 136 166 136c84 0 161 -35 161 -122c0 -10 -1 -21 -2 -27
z" />
    <glyph glyph-name="Tcommaaccent" unicode="&#x162;" horiz-adv-x="487" 
d="M627 706l-18 -69h-190l-165 -637h-98l165 637h-211l18 69h499zM221 -121l-66 -108h-55l72 108h-48l23 89h97z" />
    <glyph glyph-name="tcommaaccent" unicode="&#x163;" horiz-adv-x="305" 
d="M273 62l-15 -58c-18 -6 -34 -13 -73 -13c-71 0 -110 32 -110 89c0 20 5 43 15 82l75 290h-82l13 48h82l27 108l88 10l-30 -118h94l-12 -48h-95l-76 -292c-5 -21 -12 -43 -12 -62c0 -41 30 -50 55 -50c23 0 36 5 56 14zM189 -121l-66 -108h-55l72 108h-48l23 89h97z" />
    <glyph glyph-name="Tcaron" unicode="&#x164;" horiz-adv-x="487" 
d="M617 706l-18 -69h-190l-165 -637h-98l165 637h-211l18 69h499zM530 895l-111 -136h-87l-41 136h60l29 -98l79 98h71z" />
    <glyph glyph-name="tcaron" unicode="&#x165;" horiz-adv-x="305" 
d="M266 62l-15 -58c-18 -6 -34 -13 -73 -13c-71 0 -110 32 -110 89c0 20 5 43 15 82l75 290h-82l13 48h82l27 108l88 10l-30 -118h94l-12 -48h-95l-76 -292c-5 -21 -12 -43 -12 -62c0 -41 30 -50 55 -50c23 0 36 5 56 14zM419 634l-67 -112h-56l70 112h-41l24 92h93z" />
    <glyph glyph-name="Tbar" unicode="&#x166;" horiz-adv-x="487" 
d="M116 406l18 68h134l43 163h-211l18 69h499l-18 -69h-190l-42 -163h136l-18 -68h-136l-105 -406h-98l105 406h-135z" />
    <glyph glyph-name="tbar" unicode="&#x167;" horiz-adv-x="305" 
d="M299 268h-86l-28 -108c-5 -21 -12 -43 -12 -62c0 -41 30 -50 55 -50c23 0 36 5 56 14l-15 -58c-18 -6 -34 -13 -73 -13c-71 0 -110 32 -110 89c0 20 5 43 15 82l27 106h-60l13 48h60l35 136h-82l13 48h82l27 108l88 10l-30 -118h94l-12 -48h-95l-36 -136h86z" />
    <glyph glyph-name="Utilde" unicode="&#x168;" horiz-adv-x="675" 
d="M723 706l-124 -479c-13 -52 -32 -111 -68 -153c-69 -81 -186 -84 -229 -84c-163 0 -230 64 -230 168c0 32 10 72 20 112l113 436h97l-107 -416c-16 -63 -24 -97 -24 -129c0 -70 51 -109 144 -109c146 0 179 97 215 237l107 417h86zM643 886l-14 -52
c-9 -35 -19 -75 -68 -75c-26 0 -47 13 -74 32l-26 19c-21 16 -30 22 -41 22c-18 0 -21 -21 -27 -45l-6 -26h-62l10 40c9 37 22 87 75 87c28 0 48 -12 73 -31l31 -23c18 -13 28 -20 36 -20c15 0 20 22 25 44l6 28h62z" />
    <glyph glyph-name="utilde" unicode="&#x169;" horiz-adv-x="524" 
d="M141 500h85l-77 -297c-11 -43 -17 -71 -17 -92c0 -48 40 -63 74 -63c25 0 76 9 116 52c20 22 28 44 42 98l78 302h85l-129 -500h-86l15 57c-40 -33 -91 -66 -175 -66c-82 0 -108 51 -108 103c0 25 6 58 20 110zM502 686l-14 -52c-10 -37 -19 -75 -68 -75
c-27 0 -46 13 -69 29l-32 22c-22 15 -29 22 -40 22c-18 0 -22 -21 -27 -45l-6 -27h-63l10 40c10 39 21 88 75 88c26 0 47 -13 73 -32l30 -22c17 -12 28 -21 37 -21c12 0 20 15 26 45l6 28h62z" />
    <glyph glyph-name="Umacron" unicode="&#x16a;" horiz-adv-x="675" 
d="M723 706l-124 -479c-13 -52 -32 -111 -68 -153c-69 -81 -186 -84 -229 -84c-163 0 -230 64 -230 168c0 32 10 72 20 112l113 436h97l-107 -416c-16 -63 -24 -97 -24 -129c0 -70 51 -109 144 -109c146 0 179 97 215 237l107 417h86zM622 839l-14 -64h-265l14 64h265z" />
    <glyph glyph-name="umacron" unicode="&#x16b;" horiz-adv-x="524" 
d="M141 500h85l-77 -297c-11 -43 -17 -71 -17 -92c0 -48 40 -63 74 -63c25 0 76 9 116 52c20 22 28 44 42 98l78 302h85l-129 -500h-86l15 57c-40 -33 -91 -66 -175 -66c-82 0 -108 51 -108 103c0 25 6 58 20 110zM486 639l-14 -64h-265l14 64h265z" />
    <glyph glyph-name="Ubreve" unicode="&#x16c;" horiz-adv-x="675" 
d="M723 706l-124 -479c-13 -52 -32 -111 -68 -153c-69 -81 -186 -84 -229 -84c-163 0 -230 64 -230 168c0 32 10 72 20 112l113 436h97l-107 -416c-16 -63 -24 -97 -24 -129c0 -70 51 -109 144 -109c146 0 179 97 215 237l107 417h86zM552 878h63
c-13 -45 -52 -119 -152 -119c-51 0 -105 28 -105 92c0 10 2 27 2 27h59c-1 -6 -2 -13 -2 -20c0 -36 26 -50 54 -50c56 0 75 53 81 70z" />
    <glyph glyph-name="ubreve" unicode="&#x16d;" horiz-adv-x="524" 
d="M141 500h85l-77 -297c-11 -43 -17 -71 -17 -92c0 -48 40 -63 74 -63c25 0 76 9 116 52c20 22 28 44 42 98l78 302h85l-129 -500h-86l15 57c-40 -33 -91 -66 -175 -66c-82 0 -108 51 -108 103c0 25 6 58 20 110zM424 678h63c-13 -45 -52 -119 -152 -119
c-51 0 -105 28 -105 92c0 10 2 27 2 27h59c-1 -6 -2 -13 -2 -20c0 -36 26 -50 54 -50c56 0 75 53 81 70z" />
    <glyph glyph-name="Uring" unicode="&#x16e;" horiz-adv-x="675" 
d="M723 706l-124 -479c-13 -52 -32 -111 -68 -153c-69 -81 -186 -84 -229 -84c-163 0 -230 64 -230 168c0 32 10 72 20 112l113 436h97l-107 -416c-16 -63 -24 -97 -24 -129c0 -70 51 -109 144 -109c146 0 179 97 215 237l107 417h86zM577 834c0 -52 -41 -91 -92 -91
c-49 0 -87 40 -87 88c0 51 39 91 90 91c49 0 89 -38 89 -88zM532 833c0 23 -21 45 -44 45c-25 0 -45 -20 -45 -45c0 -23 18 -45 42 -45c26 0 47 18 47 45z" />
    <glyph glyph-name="uring" unicode="&#x16f;" horiz-adv-x="524" 
d="M141 500h85l-77 -297c-11 -43 -17 -71 -17 -92c0 -48 40 -63 74 -63c25 0 76 9 116 52c20 22 28 44 42 98l78 302h85l-129 -500h-86l15 57c-40 -33 -91 -66 -175 -66c-82 0 -108 51 -108 103c0 25 6 58 20 110zM438 634c0 -52 -40 -91 -92 -91c-49 0 -87 39 -87 88
c0 50 40 91 90 91c49 0 89 -38 89 -88zM393 633c0 23 -20 45 -44 45c-25 0 -45 -20 -45 -45c0 -23 18 -45 42 -45c26 0 47 18 47 45z" />
    <glyph glyph-name="Uhungarumlaut" unicode="&#x170;" horiz-adv-x="675" 
d="M723 706l-124 -479c-13 -52 -32 -111 -68 -153c-69 -81 -186 -84 -229 -84c-163 0 -230 64 -230 168c0 32 10 72 20 112l113 436h97l-107 -416c-16 -63 -24 -97 -24 -129c0 -70 51 -109 144 -109c146 0 179 97 215 237l107 417h86zM553 895l-143 -136h-67l110 136h100z
M702 895l-143 -136h-67l110 136h100z" />
    <glyph glyph-name="uhungarumlaut" unicode="&#x171;" horiz-adv-x="524" 
d="M141 500h85l-77 -297c-11 -43 -17 -71 -17 -92c0 -48 40 -63 74 -63c25 0 76 9 116 52c20 22 28 44 42 98l78 302h85l-129 -500h-86l15 57c-40 -33 -91 -66 -175 -66c-82 0 -108 51 -108 103c0 25 6 58 20 110zM423 695l-143 -136h-66l110 136h99zM572 695l-143 -136h-66
l110 136h99z" />
    <glyph glyph-name="Uogonek" unicode="&#x172;" horiz-adv-x="675" 
d="M723 706l-124 -479c-13 -52 -32 -111 -68 -153c-56 -66 -144 -80 -198 -83c-43 -32 -64 -55 -64 -80c0 -19 10 -36 43 -36c18 0 25 3 35 6l-14 -57c-11 -3 -29 -7 -55 -7c-61 0 -89 28 -89 64c0 39 51 85 88 110c-145 6 -205 68 -205 167c0 32 10 72 20 112l113 436h97
l-107 -416c-16 -63 -24 -97 -24 -129c0 -70 51 -109 144 -109c146 0 179 97 215 237l107 417h86z" />
    <glyph glyph-name="uogonek" unicode="&#x173;" horiz-adv-x="524" 
d="M141 500h85l-77 -297c-11 -43 -17 -71 -17 -92c0 -48 40 -63 74 -63c25 0 76 9 116 52c20 22 28 44 42 98l78 302h85l-129 -500c-52 -34 -79 -62 -79 -89c0 -19 10 -36 43 -36c18 0 25 3 35 6l-14 -57c-11 -3 -29 -7 -55 -7c-61 0 -89 28 -89 64c0 44 68 98 103 119h-30
l15 57c-40 -33 -91 -66 -175 -66c-82 0 -108 51 -108 103c0 25 6 58 20 110z" />
    <glyph glyph-name="Wcircumflex" unicode="&#x174;" horiz-adv-x="837" 
d="M627 0h-142l18 554l-273 -554h-142l39 706h93l-44 -646l321 646h90s-15 -631 -16 -648l300 648h89zM657 759h-61l-28 98l-79 -98h-71l111 136h87z" />
    <glyph glyph-name="wcircumflex" unicode="&#x175;" horiz-adv-x="692" 
d="M759 500l-272 -500h-92s-5 311 -5 389c-15 -41 -207 -389 -207 -389h-92l-17 500h85s6 -365 6 -418c17 37 219 418 219 418h80s2 -390 2 -418c11 27 215 418 215 418h78zM536 559h-61l-29 99l-79 -99h-72l112 136h88z" />
    <glyph glyph-name="Ycircumflex" unicode="&#x176;" horiz-adv-x="525" 
d="M669 706l-343 -447l-67 -259h-93l68 259l-126 447h99l94 -361l268 361h100zM507 729h-61l-28 98l-79 -98h-71l111 136h87z" />
    <glyph glyph-name="ycircumflex" unicode="&#x177;" horiz-adv-x="418" 
d="M486 500l-286 -532c-14 -26 -27 -49 -44 -75c-34 -52 -71 -101 -149 -101c-35 0 -70 13 -81 17l20 64c8 -4 35 -16 62 -16c15 0 33 4 48 15c22 16 59 69 59 124c0 16 -3 56 -5 72l-41 432h86l31 -429l218 429h82zM409 559h-61l-29 99l-79 -99h-72l112 136h88z" />
    <glyph glyph-name="Zacute" unicode="&#x179;" horiz-adv-x="566" 
d="M635 706l-17 -66l-512 -570h430l-18 -70h-549l17 65l515 575h-377l17 66h494zM526 895l-142 -136h-71l109 136h104z" />
    <glyph glyph-name="zacute" unicode="&#x17a;" horiz-adv-x="450" 
d="M474 500l-15 -56l-366 -385h292l-16 -59h-397l17 53l369 391h-263l14 56h365zM439 695l-142 -136h-71l109 136h104z" />
    <glyph glyph-name="Zdotaccent" unicode="&#x17b;" horiz-adv-x="566" 
d="M635 706l-17 -66l-512 -570h430l-18 -70h-549l17 65l515 575h-377l17 66h494zM452 860l-22 -83h-86l22 83h86z" />
    <glyph glyph-name="zdotaccent" unicode="&#x17c;" horiz-adv-x="450" 
d="M474 500l-15 -56l-366 -385h292l-16 -59h-397l17 53l369 391h-263l14 56h365zM357 660l-22 -83h-87l22 83h87z" />
    <glyph glyph-name="longs" unicode="&#x17f;" horiz-adv-x="272" 
d="M134 0h-86l117 452h-79l13 48h78l19 75c15 59 43 140 155 140c44 0 70 -12 86 -21l-14 -53c-20 9 -35 16 -57 16c-42 0 -69 -27 -90 -110z" />
    <glyph glyph-name="Aringacute" unicode="&#x1fa;" horiz-adv-x="650" 
d="M593 0h-92l-29 271h-259l-169 -271h-96l452 706h114zM465 337l-29 287l-181 -287h210zM624 998l-129 -94h-58l92 94h95zM548 808c0 -47 -36 -76 -75 -76c-44 0 -75 35 -75 75c0 44 37 75 77 75c38 0 73 -31 73 -74zM510 807c0 21 -17 36 -36 36c-20 0 -37 -15 -37 -36
c0 -20 14 -36 36 -36c20 0 37 14 37 36z" />
    <glyph glyph-name="aringacute" unicode="&#x1fb;" horiz-adv-x="490" 
d="M399 0h-50c-31 0 -55 2 -55 40c0 4 1 12 1 12c-20 -21 -68 -61 -145 -61c-122 0 -128 96 -128 121c0 80 48 121 75 137c50 30 128 38 262 53l9 33c7 27 9 37 9 54c0 70 -69 72 -86 72c-66 0 -97 -41 -109 -62c-9 -16 -16 -39 -17 -43h-83c23 99 90 153 219 153
c80 0 161 -27 161 -116c0 -22 -3 -36 -9 -58l-62 -242c-7 -26 -9 -35 -9 -49s8 -32 20 -32zM326 172l22 83c-123 -9 -238 -25 -238 -138c0 -37 21 -72 72 -72c43 0 86 25 105 44c20 20 26 35 39 83zM518 862l-161 -126h-67l115 126h113zM414 626c0 -52 -42 -84 -87 -84
c-49 0 -85 39 -85 84c0 49 42 83 88 83c43 0 84 -33 84 -83zM370 626c0 23 -18 39 -41 39s-43 -16 -43 -39s17 -41 42 -41c23 0 42 15 42 41z" />
    <glyph glyph-name="AEacute" unicode="&#x1fc;" horiz-adv-x="921" 
d="M984 706l-18 -67h-292l-61 -237h286l-17 -67h-286l-69 -266h347l-18 -69h-440l87 335h-211l-244 -335h-100l523 706h513zM582 639h-66l-173 -237h178zM856 895l-142 -136h-71l109 136h104z" />
    <glyph glyph-name="aeacute" unicode="&#x1fd;" horiz-adv-x="801" 
d="M770 245h-334l-3 -12c-8 -44 -10 -55 -10 -82c0 -63 40 -108 109 -108c79 0 114 51 136 104h85c-25 -75 -69 -120 -133 -142c-41 -14 -81 -14 -98 -14c-80 0 -136 29 -166 82c-30 -29 -87 -82 -195 -82c-75 0 -139 33 -139 123c0 21 3 63 38 105c50 58 122 76 312 80
l10 40c6 23 7 37 7 48c-1 32 -18 73 -89 73c-70 0 -121 -42 -132 -107h-85c6 23 20 73 62 108c58 48 133 48 160 48c77 0 125 -19 148 -59c29 28 72 59 162 59c99 0 170 -47 170 -155c0 -22 -2 -58 -15 -109zM451 299h247c7 33 8 46 8 65c0 60 -35 95 -92 95
c-12 0 -51 -3 -84 -28c-53 -41 -75 -118 -79 -132zM343 185l14 63c-96 -4 -126 -6 -155 -15c-54 -16 -90 -55 -90 -114c0 -47 33 -76 84 -76c84 0 130 65 147 142zM602 695l-142 -136h-71l109 136h104z" />
    </font>
</defs>
</svg>
