<svg width="20" height="14" viewBox="0 0 20 14" fill="none" xmlns="http://www.w3.org/2000/svg">
<path d="M19.2232 2.36152C19.1137 1.9534 18.8988 1.58122 18.6002 1.28223C18.3016 0.98323 17.9297 0.76791 17.5217 0.657813C16.0199 0.253906 10 0.253906 10 0.253906C10 0.253906 3.98008 0.253906 2.47832 0.655664C2.07016 0.765404 1.69806 0.980605 1.39939 1.27966C1.10071 1.57871 0.885983 1.95108 0.776758 2.35938C0.375 3.86328 0.375 7 0.375 7C0.375 7 0.375 10.1367 0.776758 11.6385C0.998047 12.4678 1.65117 13.1209 2.47832 13.3422C3.98008 13.7461 10 13.7461 10 13.7461C10 13.7461 16.0199 13.7461 17.5217 13.3422C18.351 13.1209 19.002 12.4678 19.2232 11.6385C19.625 10.1367 19.625 7 19.625 7C19.625 7 19.625 3.86328 19.2232 2.36152ZM8.08789 9.87891V4.12109L13.0723 6.97852L8.08789 9.87891Z" fill="#000000"/>
</svg>
