<svg width="19" height="17" viewBox="0 0 19 17" fill="none" xmlns="http://www.w3.org/2000/svg">
<path d="M5.4277 14.9595C4.97809 15.3052 4.42236 15.5192 3.81256 15.5192C2.34304 15.5192 1.14724 14.3234 1.14724 12.8539C1.14724 11.3841 2.34304 10.1882 3.81256 10.1882C4.92166 10.1882 5.87287 10.8702 6.27393 11.8359L7.10857 10.9703C6.4513 9.82305 5.22941 9.04102 3.81256 9.04102C1.70661 9.04102 0 10.748 0 12.8539C0 14.9595 1.70661 16.6665 3.81256 16.6665C4.80337 16.6665 5.69735 16.2792 6.37551 15.6593C6.11524 15.5719 5.86836 15.4334 5.6574 15.2302C5.57037 15.1461 5.49527 15.0543 5.4277 14.9595Z" fill="#c3c1df"/>
<path d="M11.2175 9.06957L9.1987 7.89696C10.099 7.33346 9.76519 7.54216 10.6656 6.97862L10.6372 7.26544C10.5886 7.75357 10.9484 8.20027 11.4013 8.29205C11.4121 8.29427 14.9453 8.89481 15.0741 8.89481C15.5331 8.89481 15.9384 8.56319 16.0159 8.09525C16.1026 7.57429 15.7505 7.08203 15.2295 6.99583L12.6284 6.56371L12.7521 5.32243C12.8768 4.52922 12.9309 4.28051 12.6347 3.80729L12.2624 3.21204C11.7814 2.44382 10.7671 2.20891 9.99707 2.69104L5.92202 5.24243C4.92115 5.86909 4.43306 7.19041 5.25017 8.1624C5.5694 8.54222 8.67312 10.4495 8.67312 10.4495L6.15945 13.0569C5.71952 13.5129 5.73261 14.2393 6.18895 14.6788C6.41153 14.8935 6.69835 15.0003 6.98513 15.0003C7.2858 15.0003 7.58605 14.8831 7.81086 14.6492L11.4669 10.8577C11.9827 10.324 11.8618 9.44373 11.2175 9.06957Z" fill="#c3c1df"/>
<path d="M15.5 3.8615C16.3937 3.30171 16.6645 2.12383 16.105 1.23054C15.5456 0.336495 14.3677 0.0657431 13.4741 0.625189C12.5808 1.18463 12.31 2.3621 12.8691 3.25538C13.4284 4.14947 14.6064 4.42061 15.5 3.8615Z" fill="#c3c1df"/>
<path d="M15.1875 9.04102C13.0597 9.04102 11.375 10.7966 11.375 12.8539C11.375 14.9595 13.0817 16.6665 15.1875 16.6665C17.293 16.6665 19.0001 14.9595 19.0001 12.8539C19.0001 10.748 17.293 9.04102 15.1875 9.04102ZM15.1875 15.5192C13.718 15.5192 12.5222 14.3234 12.5222 12.8539C12.5222 11.3841 13.7181 10.1882 15.1875 10.1882C16.6571 10.1882 17.8529 11.3841 17.8529 12.8539C17.8529 14.3234 16.6571 15.5192 15.1875 15.5192Z" fill="#c3c1df"/>
</svg>
