<svg width="19" height="19" viewBox="0 0 19 19" fill="none" xmlns="http://www.w3.org/2000/svg">
<g clip-path="url(#clip0_729_840)">
<path d="M16.9526 0H12.5562C11.591 0 10.3003 0.534607 9.618 1.21707L0.597809 10.2371C0.212219 10.6226 0 11.1366 0 11.6847C0 12.2328 0.212364 12.7468 0.597809 13.1322L5.86763 18.4022C6.25307 18.7876 6.7671 19 7.31519 19C7.86313 19 8.3773 18.7876 8.76289 18.4022L17.7829 9.382C18.4654 8.69968 19 7.40897 19 6.44384V2.0471C18.9999 0.918312 18.0814 0 16.9526 0ZM17.8867 6.44384C17.8867 7.11514 17.4704 8.12029 16.9958 8.59488L7.97562 17.6149C7.80036 17.7902 7.56582 17.8867 7.31519 17.8867C7.06455 17.8867 6.83015 17.7902 6.6549 17.6151L1.38508 12.345C1.20982 12.1697 1.11328 11.9352 1.11328 11.6847C1.11328 11.434 1.20968 11.1995 1.38493 11.0244L10.4051 2.0042C10.8797 1.5296 11.8849 1.11328 12.5562 1.11328H16.9526C17.4676 1.11328 17.8866 1.53221 17.8867 2.0471V6.44384Z" fill="#000"/>
<path d="M15.4922 2.9834C15.3456 2.9834 15.202 3.04283 15.0985 3.14633C14.995 3.24983 14.9355 3.39349 14.9355 3.54004C14.9355 3.68674 14.995 3.82996 15.0985 3.93346C15.202 4.03739 15.3456 4.09668 15.4922 4.09668C15.6387 4.09668 15.782 4.03739 15.8856 3.93346C15.9894 3.82996 16.0488 3.6863 16.0488 3.54004C16.0488 3.39349 15.9894 3.24983 15.8856 3.14633C15.782 3.04283 15.6387 2.9834 15.4922 2.9834Z" fill="#000"/>
</g>
<defs>
<clipPath id="clip0_729_840">
<rect width="19" height="19" fill="white"/>
</clipPath>
</defs>
</svg>
