<svg width="19" height="19" viewBox="0 0 19 19" fill="none" xmlns="http://www.w3.org/2000/svg">
<g clip-path="url(#clip0_3328_97)">
<path d="M14.4137 9.73831C14.4135 9.61163 14.4865 9.4963 14.6009 9.44207C14.7152 9.38769 14.8507 9.40432 14.9486 9.48446L15.9861 10.3332L18.0172 7.53427L14.6066 5.22081L11.7602 4.65137C11.5695 5.75027 10.616 6.55261 9.50078 6.55261C8.38556 6.55261 7.43205 5.75027 7.24138 4.65137L4.38343 5.22305L0.982422 7.20668L3.01548 10.306L4.03792 9.37633C4.13374 9.28899 4.27226 9.2666 4.39079 9.31907C4.50948 9.37153 4.58594 9.48894 4.58594 9.61867V19H14.4137V9.73831Z" fill="#c3c1df"/>
<path d="M9.49986 5.89619C10.3137 5.89379 11.0019 5.29347 11.115 4.48745L9.49986 3.94824L7.88477 4.48745C7.9977 5.29347 8.686 5.89379 9.49986 5.89619Z" fill="#c3c1df"/>
<path d="M9.49984 1.96533C9.31892 1.96533 9.17224 2.11201 9.17224 2.29292V3.2757C9.17224 3.45677 9.31892 3.2757 9.49984 3.2757C9.68059 3.2757 9.82743 3.45677 9.82743 3.2757V2.57397C10.485 2.40249 10.9019 1.75611 10.7867 1.08621C10.6714 0.416465 10.0624 -0.0534886 9.38515 0.00489575C8.70804 0.0632801 8.18849 0.630488 8.18945 1.31015C8.18945 1.49106 8.33614 1.63774 8.51705 1.63774C8.69796 1.63774 8.84465 1.49106 8.84465 1.31015C8.84465 0.948323 9.13801 0.654962 9.49984 0.654962C9.86166 0.654962 10.155 0.948323 10.155 1.31015C10.155 1.67197 9.86166 1.96533 9.49984 1.96533Z" fill="#c3c1df"/>
</g>
<defs>
<clipPath id="clip0_3328_97">
<rect width="19" height="19" fill="white"/>
</clipPath>
</defs>
</svg>
