<svg width="19" height="19" viewBox="0 0 19 19" fill="none" xmlns="http://www.w3.org/2000/svg">
<g clip-path="url(#clip0_729_820)">
<path d="M17.736 9.74616C17.6595 9.58974 17.6595 9.41036 17.736 9.25398L18.4446 7.80431C18.8392 6.99715 18.5266 6.03509 17.733 5.61402L16.3076 4.85773C16.1538 4.77617 16.0484 4.631 16.0183 4.45959L15.7395 2.87024C15.5843 1.98534 14.7657 1.3907 13.8763 1.51654L12.2787 1.74253C12.1062 1.76687 11.9357 1.71143 11.8106 1.59042L10.6509 0.468536C10.0052 -0.15616 8.9936 -0.156197 8.3479 0.468536L7.18816 1.59053C7.06303 1.71158 6.89251 1.76691 6.7201 1.74264L5.12244 1.51665C4.23275 1.39074 3.41449 1.98545 3.25927 2.87035L2.9805 4.45963C2.95041 4.63107 2.84498 4.7762 2.69124 4.85781L1.26587 5.61409C0.472258 6.03513 0.15965 6.99726 0.554195 7.80442L1.26279 9.25406C1.33924 9.41047 1.33924 9.58986 1.26279 9.74623L0.554157 11.1959C0.159613 12.003 0.47222 12.9651 1.26584 13.3862L2.6912 14.1424C2.84498 14.224 2.95041 14.3692 2.9805 14.5406L3.25927 16.1299C3.40058 16.9355 4.09133 17.5005 4.8852 17.5004C4.96339 17.5004 5.04273 17.4949 5.12248 17.4836L6.72014 17.2576C6.89244 17.2332 7.06307 17.2887 7.1882 17.4097L8.3479 18.5316C8.67082 18.844 9.08503 19.0001 9.4994 19.0001C9.91364 19.0001 10.3281 18.8439 10.6509 18.5316L11.8106 17.4097C11.9358 17.2887 12.1063 17.2334 12.2787 17.2576L13.8763 17.4836C14.7661 17.6095 15.5843 17.0148 15.7395 16.1299L16.0183 14.5406C16.0484 14.3692 16.1538 14.224 16.3076 14.1424L17.733 13.3862C18.5266 12.9651 18.8392 12.003 18.4446 11.1958L17.736 9.74616ZM17.2193 12.4181L15.794 13.1744C15.3395 13.4156 15.0278 13.8445 14.939 14.3512L14.6602 15.9405C14.6077 16.2399 14.3309 16.441 14.0298 16.3985L12.4322 16.1725C11.9227 16.1004 11.4185 16.2643 11.0487 16.622L9.88897 17.7439C9.67054 17.9552 9.32828 17.9552 9.10979 17.7439L7.95009 16.622C7.63755 16.3197 7.22898 16.1558 6.80245 16.1558C6.7243 16.1558 6.64551 16.1613 6.56662 16.1725L4.96896 16.3985C4.66815 16.441 4.39113 16.2399 4.33859 15.9405L4.05979 14.3511C3.97087 13.8444 3.65923 13.4154 3.20475 13.1743L1.77939 12.4181C1.51087 12.2756 1.40511 11.9501 1.53859 11.677L2.24723 10.2274C2.47315 9.76512 2.47315 9.23498 2.24723 8.77275L1.53859 7.32308C1.40511 7.04999 1.51087 6.72451 1.77939 6.58205L3.20475 5.82576C3.65919 5.58459 3.97087 5.15568 4.05975 4.64892L4.33851 3.05961C4.39106 2.76021 4.66782 2.55908 4.96889 2.60161L6.56655 2.8276C7.07587 2.89971 7.58022 2.73579 7.95001 2.3781L9.10975 1.25621C9.32817 1.04492 9.67043 1.04492 9.88893 1.25621L11.0486 2.3781C11.4184 2.73583 11.9227 2.89971 12.4321 2.8276L14.0298 2.60161C14.3306 2.55904 14.6076 2.76021 14.6601 3.05961L14.9389 4.64896C15.0278 5.15572 15.3394 5.58466 15.7939 5.82576L17.2193 6.58205C17.4878 6.72451 17.5936 7.04999 17.4601 7.32308L16.7515 8.77271C16.5255 9.23491 16.5255 9.76512 16.7515 10.2273L17.4601 11.6769C17.5936 11.9501 17.4878 12.2756 17.2193 12.4181Z" fill="#000"/>
<path d="M13.5044 5.49642C13.2905 5.28244 12.9435 5.28244 12.7296 5.49642L5.49739 12.7286C5.28342 12.9426 5.28342 13.2895 5.49739 13.5035C5.60438 13.6105 5.74461 13.664 5.88481 13.664C6.02501 13.664 6.16528 13.6105 6.27223 13.5035L13.5044 6.27133C13.7185 6.05732 13.7185 5.71042 13.5044 5.49642Z" fill="#000"/>
<path d="M7.30886 4.56836C6.20107 4.56836 5.2998 5.46963 5.2998 6.57741C5.2998 7.68519 6.20107 8.58646 7.30886 8.58646C8.41664 8.58646 9.31791 7.68519 9.31791 6.57741C9.31791 5.46963 8.41664 4.56836 7.30886 4.56836ZM7.30886 7.49059C6.80532 7.49059 6.39568 7.08095 6.39568 6.57737C6.39568 6.07384 6.80532 5.66419 7.30886 5.66419C7.81239 5.66419 8.22208 6.07384 8.22208 6.57737C8.22204 7.08095 7.81239 7.49059 7.30886 7.49059Z" fill="#000"/>
<path d="M11.6917 10.4131C10.5839 10.4131 9.68262 11.3144 9.68262 12.4221C9.68262 13.5299 10.5839 14.4312 11.6917 14.4312C12.7995 14.4312 13.7007 13.5299 13.7007 12.4221C13.7007 11.3144 12.7995 10.4131 11.6917 10.4131ZM11.6917 13.3353C11.1881 13.3353 10.7785 12.9257 10.7785 12.4221C10.7785 11.9186 11.1881 11.509 11.6917 11.509C12.1952 11.509 12.6049 11.9186 12.6049 12.4221C12.6049 12.9257 12.1952 13.3353 11.6917 13.3353Z" fill="#000"/>
</g>
<defs>
<clipPath id="clip0_729_820">
<rect width="19" height="19" fill="white"/>
</clipPath>
</defs>
</svg>
