<svg width="16" height="19" viewBox="0 0 16 19" fill="none" xmlns="http://www.w3.org/2000/svg">
<path fill-rule="evenodd" clip-rule="evenodd" d="M15.9683 15.4001C15.9683 18.5347 11.6698 18.897 8.43726 18.897L8.20594 18.8968C6.14647 18.8918 0.904297 18.7618 0.904297 15.3811C0.904297 12.3105 5.03012 11.9002 8.23801 11.8847L8.66858 11.8844C10.7279 11.8894 15.9683 12.0195 15.9683 15.4001ZM8.43726 13.3107C4.385 13.3107 2.33082 14.0069 2.33082 15.3811C2.33082 16.7677 4.385 17.4705 8.43726 17.4705C12.4886 17.4705 14.5418 16.7743 14.5418 15.4001C14.5418 14.0135 12.4886 13.3107 8.43726 13.3107ZM8.43726 0C11.2218 0 13.4862 2.26531 13.4862 5.04987C13.4862 7.83444 11.2218 10.0988 8.43726 10.0988H8.40683C5.62797 10.0902 3.37693 7.82398 3.38641 5.04702C3.38641 2.26531 5.65175 0 8.43726 0ZM8.43726 1.35805C6.40115 1.35805 4.74446 3.01376 4.74446 5.04987C4.73783 7.07933 6.38213 8.7341 8.40969 8.7417L8.43726 9.42073V8.7417C10.4724 8.7417 12.1281 7.08504 12.1281 5.04987C12.1281 3.01376 10.4724 1.35805 8.43726 1.35805Z" fill="#000"/>
</svg>
