<svg width="19" height="19" viewBox="0 0 19 19" fill="none" xmlns="http://www.w3.org/2000/svg">
<path d="M18.4434 15.4609H0.556641C0.249184 15.4609 0 15.7103 0 16.0177C0 16.325 0.249184 16.5744 0.556641 16.5744H18.4434C18.7508 16.5744 19 16.325 19 16.0177C19 15.7103 18.7508 15.4609 18.4434 15.4609Z" fill="#c3c1df"/>
<path d="M4.62803 6.967C5.87366 6.967 6.88692 5.95359 6.88692 4.70811C6.88692 3.46248 5.87366 2.44922 4.62803 2.44922C3.38255 2.44922 2.36914 3.46248 2.36914 4.70811C2.36914 5.95359 3.38255 6.967 4.62803 6.967Z" fill="#c3c1df"/>
<path d="M16.4093 12.652C16.1505 12.2078 15.7593 11.9531 15.3354 11.9531C15.3351 11.9531 15.3348 11.9531 15.3345 11.9531C14.9108 11.9536 14.5199 12.2086 14.2621 12.6529L14.2587 12.6588C14.251 12.6724 14.2433 12.6862 14.2353 12.7001L11.1276 7.31693C10.8111 6.76855 10.3375 6.4537 9.82829 6.45312C9.82786 6.45312 9.82742 6.45312 9.82684 6.45312C9.3176 6.45312 8.84315 6.76754 8.52468 7.31693C8.52468 7.31693 7.5107 9.07426 6.8594 10.2025C6.75807 10.0272 6.68095 9.89357 6.67892 9.89024C6.36277 9.34157 5.88905 9.02657 5.37952 9.02614C5.37923 9.02614 5.37894 9.02614 5.3785 9.02614C4.86897 9.02614 4.39467 9.34084 4.07706 9.88995L1.52681 14.3081L1.50391 14.3479H17.3877C17.0651 13.7915 16.6608 13.0903 16.4093 12.652Z" fill="#c3c1df"/>
</svg>
