<svg width="19" height="19" viewBox="0 0 19 19" fill="none" xmlns="http://www.w3.org/2000/svg">
<path d="M15.8195 16.1101C14.727 16.1238 13.7258 16.525 12.9473 17.1818C13.452 18.2498 14.5478 18.9998 15.8177 18.9998H15.8195C17.1243 18.9991 18.2383 18.2072 18.7219 17.1087C17.9426 16.4838 16.9536 16.1094 15.8793 16.1094C15.8592 16.1094 15.8392 16.1094 15.8195 16.1101Z" fill="#c3c1df"/>
<path d="M15.8195 12.6475H15.8176C13.9418 12.6475 12.5216 14.2643 12.6474 16.0107C13.5495 15.382 14.642 15.0087 15.8195 14.9968C15.8395 14.9961 15.8592 14.9961 15.8792 14.9961C17.0281 14.9961 18.0976 15.3397 18.9916 15.9298C19.1159 14.3678 17.7592 12.6486 15.8195 12.6475Z" fill="#c3c1df"/>
<path d="M13.4674 11.7247C15.7204 10.6223 17.514 8.32217 17.7643 5.72921C18.0973 2.27605 15.5347 -0.304855 12.0648 0.0290903C8.68498 0.355354 5.71142 3.32858 5.38509 6.70959C5.33128 7.26768 5.35198 7.80828 5.44327 8.32128C5.25116 9.65773 4.67244 10.616 4.292 11.1216C4.292 11.1216 4.29204 11.1217 4.29204 11.1217C4.03528 11.4631 4.36032 11.1147 0.162789 15.3123C-0.0542629 15.5298 -0.0542629 15.8819 0.162789 16.0994C0.329149 16.2657 1.56975 17.5065 1.73707 17.6738C1.95375 17.8905 2.30625 17.8917 2.52404 17.6738C6.71152 13.4688 6.38837 13.7742 6.69482 13.5363C7.18978 13.1519 8.14118 12.5556 9.47459 12.3517C10.6937 12.5682 12.1082 12.3901 13.4674 11.7247ZM6.69099 5.79585L7.92157 7.02658L6.58958 8.35872C6.39906 7.55576 6.43602 6.67059 6.69099 5.79585ZM7.04175 9.48079L8.70862 7.8137L9.98069 9.08592L8.31422 10.7526C7.80638 10.4481 7.36612 10.022 7.04175 9.48079ZM10.0293 1.78755L11.5946 3.35307L10.545 4.40285L8.77701 2.63467C9.17278 2.29713 9.59423 2.01406 10.0293 1.78755ZM12.3817 4.14023L13.0336 4.79224L13.6537 5.41244L12.6041 6.46219C11.8316 5.68965 12.1147 5.97279 11.332 5.19001L12.3817 4.14023ZM16.4584 6.64294L15.228 5.41237L16.56 4.08022C16.7599 4.92323 16.7008 5.81111 16.4584 6.64294ZM11.8171 7.24931L10.7677 8.2989C10.1293 7.66044 10.1385 7.66964 9.49563 7.02669L10.5451 5.9771L11.8171 7.24931ZM9.43603 11.205L10.7678 9.87311L11.9982 11.1037C11.1236 11.3586 10.2388 11.3956 9.43603 11.205ZM13.1199 10.6514L11.5547 9.08603L12.6042 8.03643L14.3725 9.80494C13.9767 10.1424 13.555 10.425 13.1199 10.6514ZM15.1594 9.01752L13.3912 7.24931L14.4408 6.1996L16.0061 7.76509C15.7797 8.20016 15.4968 8.62168 15.1594 9.01752ZM16.1078 2.95815L14.4409 4.62525C13.8025 3.98678 13.8117 3.99599 13.1688 3.35303L14.8357 1.68598C15.3759 2.00979 15.8043 2.4521 16.1078 2.95815ZM13.7138 1.23365L12.3818 2.56587L11.1513 1.33522C11.9831 1.09271 12.8707 1.03352 13.7138 1.23365ZM7.98985 3.42157L9.75799 5.1899L8.70851 6.23949L7.14335 4.67416C7.36983 4.23912 7.65242 3.81742 7.98985 3.42157ZM7.70511 11.6874C6.87999 12.0183 6.2737 12.4392 5.90458 12.7404C5.6368 12.4706 5.32497 12.1563 5.08628 11.9166C5.08632 11.9165 5.08639 11.9165 5.08643 11.9164C5.38323 11.5438 5.79559 10.9342 6.11836 10.1068C6.32617 10.4424 6.59689 10.785 6.93525 11.1009C7.18158 11.3311 7.43696 11.5224 7.7056 11.6873C7.70541 11.6873 7.70526 11.6874 7.70511 11.6874Z" fill="#c3c1df"/>
</svg>
