<svg width="19" height="19" fill="none" xmlns="http://www.w3.org/2000/svg">
	<path fill="#c3c1df" d="M8.738 9.346a2.232 2.232 0 1 0 0-4.464 2.232 2.232 0 0 0 0 4.464ZM4.247 3.758a1.741 1.741 0 1 0 0-3.482 1.741 1.741 0 0 0 0 3.482Z"/>
	<path fill="#c3c1df" d="M1.207 9.42a.369.369 0 0 0 .216.434l3.855 1.508c.168.066.33.264.361.442l.699 4.05.43-.324c.573-.431 1.485-.47 2.093-.087l1.781 1.126a.31.31 0 0 0 .059 0l1.429-.928-.668-2.005c-.057-.171.035-.261.205-.2l3.893 1.345c.512.178 1.15-.06 1.421-.529l.062-.104c.272-.47.08-1-.431-1.183L4.047 8.438a.36.36 0 0 1-.221-.426l.692-2.521a.955.955 0 0 0-.693-1.186l-.114-.028a1.026 1.026 0 0 0-1.226.706L1.207 9.419Z"/>
	<path fill="#c3c1df" d="m18.265 16.096-1.936 1.43a.492.492 0 0 1-.48.012l-1.696-1.118c-.437-.288-1.097-.291-1.535-.006l-1.738 1.127a.6.6 0 0 1-.539.003l-1.805-1.14A1.417 1.417 0 0 0 7 16.468l-1.402 1.056a.489.489 0 0 1-.478.017l-1.737-1.127a1.34 1.34 0 0 0-1.536.092L.166 17.908a.462.462 0 0 0 .591.71l1.682-1.403a.425.425 0 0 1 .441-.026l1.737 1.126c.45.292 1.11.268 1.537-.054l1.402-1.056a.503.503 0 0 1 .487-.02l1.805 1.14c.44.277 1.098.273 1.535-.01l1.737-1.127a.569.569 0 0 1 .524.003l1.696 1.118a1.4 1.4 0 0 0 1.537-.04l1.936-1.431a.463.463 0 0 0-.548-.742Z"/>
</svg>