<svg width="19" height="19" viewBox="0 0 19 19" fill="none" xmlns="http://www.w3.org/2000/svg">
<path d="M3.91085 19.0004C4.83674 19.0004 5.58733 18.2498 5.58733 17.3239C5.58733 16.398 4.83674 15.6475 3.91085 15.6475C2.98496 15.6475 2.23438 16.398 2.23438 17.3239C2.23438 18.2498 2.98496 19.0004 3.91085 19.0004Z" fill="#c3c1df"/>
<path d="M9.50068 19.0004C10.4266 19.0004 11.1771 18.2498 11.1771 17.3239C11.1771 16.398 10.4266 15.6475 9.50068 15.6475C8.5748 15.6475 7.82422 16.398 7.82422 17.3239C7.82422 18.2498 8.5748 19.0004 9.50068 19.0004Z" fill="#c3c1df"/>
<path d="M15.0886 19.0004C16.0145 19.0004 16.7651 18.2498 16.7651 17.3239C16.7651 16.398 16.0145 15.6475 15.0886 15.6475C14.1627 15.6475 13.4121 16.398 13.4121 17.3239C13.4121 18.2498 14.1627 19.0004 15.0886 19.0004Z" fill="#c3c1df"/>
<path d="M3.35229 2.23529V0H1.18945V3.91177H1.67582C2.60018 3.91177 3.35229 3.15966 3.35229 2.23529Z" fill="#c3c1df"/>
<path d="M10.8485 12.2937L14.699 8.44326L13.4558 8.10547L9.26758 12.2937H10.8485Z" fill="#c3c1df"/>
<path d="M18.9709 12.2939C18.8889 11.5225 18.6327 10.8515 18.206 10.2938C17.6475 9.56311 16.8511 9.02795 15.9634 8.78695L15.9424 8.78125L12.4297 12.2939H18.9709Z" fill="#c3c1df"/>
<path d="M0 13.4121V13.9709C0 14.8954 0.752028 15.6474 1.67647 15.6474H17.3235C18.248 15.6474 19 14.8954 19 13.9709V13.4121C18.2144 13.4121 1.22453 13.4121 0 13.4121Z" fill="#c3c1df"/>
<path d="M12.2142 7.76821L11.0543 7.45303C10.1209 7.19936 9.4065 6.48027 9.13421 5.58824H6.70634V4.47059H9.0141V3.35294H6.70634V2.23529H9.0141V0H4.47105V2.23529C4.47105 3.77597 3.21757 5.02941 1.67693 5.02941H1.1902L1.18871 7.14262C1.18837 7.8701 1.01614 8.59892 0.690645 9.25028C0.488499 9.65498 0.333556 10.0827 0.230248 10.5209C0.126531 10.959 0.0737034 11.4106 0.0732563 11.8635C0.0731445 12.0143 0.0661034 12.1625 0.0566406 12.2941H7.68823L12.2142 7.76821Z" fill="#c3c1df"/>
</svg>
