<svg width="19" height="19" fill="none" xmlns="http://www.w3.org/2000/svg">
	<path  d="M18.232 2.43c-.597-1.04-1.325-1.638-2-1.638a.395.395 0 0 0-.154.031.781.781 0 0 0-.637.76V3.96c0 .289.163.531.396.67v11.248c-.474.102-.792.384-.792.748 0 .365.318.646.792.748v1.232a.396.396 0 1 0 .79 0v-1.232c.473-.102.793-.383.793-.748 0-.364-.32-.646-.794-.748V5.863c.32.306.717.467 1.183.47h.01c.433 0 .78-.19.982-.535.473-.808.036-2.313-.57-3.369Zm-.114 2.969c-.043.075-.108.15-.303.143a.895.895 0 0 1-.668-.272c-.184-.188-.303-.459-.382-.734a.783.783 0 0 0 .259-.577V2.087c.177.199.355.447.521.736.568.99.825 2.145.573 2.576ZM3.165 15.877V4.63a.781.781 0 0 0 .396-.67V1.584a.781.781 0 0 0-.638-.76.395.395 0 0 0-.154-.032c-.674 0-1.403.597-2 1.637C.165 3.485-.272 4.99.2 5.798c.203.346.55.536.983.536h.01a1.674 1.674 0 0 0 1.183-.47v10.013c-.474.102-.794.384-.794.748 0 .365.32.646.794.748v1.232a.394.394 0 1 0 .79 0v-1.232c.474-.102.791-.383.791-.748 0-.364-.317-.646-.791-.748ZM1.855 5.27a.895.895 0 0 1-.669.272h-.005c-.188 0-.254-.069-.298-.143-.252-.431.006-1.586.573-2.576a4.4 4.4 0 0 1 .521-.736V3.96c0 .23.102.433.26.577-.08.275-.199.546-.383.734Z" fill="#c3c1df"/>
	<path d="M12.785 12.504a63.495 63.495 0 0 1-1.069-2.31 37.984 37.984 0 0 1-.325-.788c-.15-.373-.319-.798-.495-1.25a560.017 560.017 0 0 1 2.792-5.859c.193-.399.214-.863.059-1.274a1.563 1.563 0 0 0-.86-.897 1.564 1.564 0 0 0-1.245.006c-.409.177-.72.506-.875.927-.285.77-.758 2.041-1.276 3.42-.52-1.38-.992-2.652-1.276-3.42a1.607 1.607 0 0 0-.876-.927A1.564 1.564 0 0 0 6.095.126h-.001c-.4.17-.706.489-.86.898-.154.41-.134.875.059 1.273.585 1.21 1.786 3.706 2.793 5.858-.177.454-.345.88-.495 1.25v.002c-.12.296-.23.564-.325.788-.21.49-.57 1.267-1.07 2.307v.003c-.7 1.458-1.53 3.127-2.07 4.206a1.6 1.6 0 0 0-.072 1.265 1.567 1.567 0 0 0 2.098.889c.401-.176.715-.514.863-.93.404-1.14 1.035-2.902 1.6-4.421v-.001a66.8 66.8 0 0 1 .876-2.256c.206.491.497 1.242.874 2.256a329.542 329.542 0 0 1 1.602 4.422c.147.416.461.755.861.93a1.564 1.564 0 0 0 1.243.01c.401-.17.705-.49.857-.9.15-.41.124-.87-.073-1.264a323.06 323.06 0 0 1-2.07-4.207Zm-3.981-1.657a56.725 56.725 0 0 0-.787 2.005l-.906-.373-.021-.01a55.52 55.52 0 0 0 .904-1.964c.055-.13.115-.272.177-.426l.812.355a30.91 30.91 0 0 0-.18.413Zm3.066 1.632-.906.373c-.337-.895-.6-1.569-.787-2.005a49.83 49.83 0 0 0-.178-.413l.81-.355.179.426c.185.437.488 1.096.904 1.965l-.022.009Z" fill="#c3c1df"/>
</svg>