<svg width="32" height="32" viewBox="0 0 32 32" fill="none" xmlns="http://www.w3.org/2000/svg">
<path d="M28.4408 0.166992H3.55985C1.68671 0.166992 0.166992 1.68671 0.166992 3.55985V28.4408C0.166992 30.3139 1.68671 31.8337 3.55985 31.8337H28.4408C30.3139 31.8337 31.8337 30.3139 31.8337 28.4408V3.55985C31.8337 1.68671 30.3139 0.166992 28.4408 0.166992ZM17.1313 20.5241H13.7384V23.917C13.7384 24.539 13.2295 25.0479 12.6075 25.0479H10.3456C9.72354 25.0479 9.21461 24.539 9.21461 23.917V8.08366C9.21461 7.46164 9.72354 6.95271 10.3456 6.95271H17.1313C20.8705 6.95271 23.917 9.99921 23.917 13.7384C23.917 17.4776 20.8705 20.5241 17.1313 20.5241ZM17.1313 11.4765H13.7384V16.0003H17.1313C18.3753 16.0003 19.3932 14.9825 19.3932 13.7384C19.3932 12.4944 18.3753 11.4765 17.1313 11.4765Z" fill="#615D8D"/>
</svg>
