<svg width="37" height="37" viewBox="0 0 37 37" fill="none" xmlns="http://www.w3.org/2000/svg">
<g clip-path="url(#clip0_637_26)">
<path d="M26.9798 16.958C21.4545 16.958 16.959 21.4535 16.959 26.9788C16.959 32.5042 21.4545 36.9996 26.9798 36.9996C32.5051 36.9996 37.0006 32.5042 37.0006 26.9788C37.0006 21.4535 32.5051 16.958 26.9798 16.958ZM31.3227 25.0379L26.3123 30.8191C26.1011 31.0612 25.8004 31.2061 25.4798 31.2169C25.4659 31.2169 25.452 31.2169 25.4381 31.2169C25.1313 31.2169 24.8369 31.0951 24.6211 30.8777L21.9231 28.1798C21.4714 27.7281 21.4714 26.9958 21.9231 26.5441C22.3749 26.0924 23.1071 26.0924 23.5589 26.5441L25.3796 28.3632L29.576 23.5209C29.9938 23.0399 30.723 22.9859 31.207 23.4037C31.688 23.8261 31.7405 24.5553 31.3227 25.0379Z" fill="#3453F3"/>
<path d="M14.2146 0L6.72206 0.0308333C5.75081 0.0308333 4.84122 0.570417 4.37872 1.41833L0.462891 8.51L13.4591 8.47917L14.2146 0Z" fill="#3453F3"/>
<path d="M30.3407 8.44889L26.3786 1.35723C25.9007 0.50931 25.0065 -0.0302734 24.0198 -0.0302734L16.5273 0.000559896L17.3136 8.47973L30.3407 8.44889Z" fill="#3453F3"/>
<path d="M30.8331 14.4451C29.6152 14.0751 28.3202 13.8747 26.979 13.8747C19.7485 13.8747 13.8748 19.7485 13.8748 26.9789C13.8748 28.3201 14.0752 29.6305 14.4606 30.8485L2.48188 30.8793C2.46646 30.8793 2.46646 30.8793 2.46646 30.8793C1.14062 30.8793 0.0460417 29.7847 0.0460417 28.4435L-0.015625 10.8222L14.2448 10.7914H16.5573L30.8177 10.7451L30.8331 14.4451Z" fill="#3453F3"/>
</g>
<defs>
<clipPath id="clip0_637_26">
<rect width="37" height="37" fill="white"/>
</clipPath>
</defs>
</svg>
