<svg width="32" height="36" viewBox="0 0 32 36" fill="none" xmlns="http://www.w3.org/2000/svg">
<path d="M14.2401 0.583008C6.46416 0.583008 0.166016 1.45384 0.166016 7.54967V24.9663C0.169977 25.6968 0.328587 26.4182 0.63161 27.0842C0.934633 27.7502 1.37534 28.3459 1.92528 28.8328V31.933C1.92528 32.3949 2.11063 32.8379 2.44055 33.1646C2.77048 33.4912 3.21795 33.6747 3.68453 33.6747H5.44379C5.91038 33.6747 6.35785 33.4912 6.68778 33.1646C7.0177 32.8379 7.20305 32.3949 7.20305 31.933V30.1913H17.7586C16.7068 28.3202 16.1048 26.2343 15.9994 24.0955C16.015 22.5532 16.4033 21.0369 17.1317 19.6735C17.8601 18.31 18.9075 17.1389 20.1864 16.258H3.68453V7.54967H24.7956V14.5163C25.0886 14.4985 25.3823 14.4985 25.6753 14.5163C26.5688 14.5192 27.4574 14.6482 28.3142 14.8995V7.54967C28.3142 1.45384 22.016 0.583008 14.2401 0.583008ZM6.32342 21.483C6.84535 21.483 7.35555 21.6362 7.78951 21.9233C8.22347 22.2104 8.56171 22.6184 8.76144 23.0957C8.96117 23.5731 9.01343 24.0984 8.91161 24.6052C8.80979 25.112 8.55846 25.5775 8.1894 25.9428C7.82035 26.3082 7.35014 26.557 6.83825 26.6578C6.32635 26.7586 5.79576 26.7069 5.31356 26.5091C4.83137 26.3114 4.41923 25.9766 4.12927 25.5469C3.8393 25.1173 3.68453 24.6122 3.68453 24.0955C3.68453 23.4026 3.96256 22.7381 4.45745 22.2482C4.95233 21.7583 5.62355 21.483 6.32342 21.483ZM25.6753 17.9997C24.0479 18.0178 22.4923 18.6658 21.3416 19.8051C20.1908 20.9444 19.5362 22.4844 19.5179 24.0955C19.5179 28.6238 25.6753 35.4163 25.6753 35.4163C25.6753 35.4163 31.8327 28.6238 31.8327 24.0955C31.8144 22.4844 31.1598 20.9444 30.009 19.8051C28.8582 18.6658 27.3026 18.0178 25.6753 17.9997ZM25.6753 26.3597C25.1154 26.3597 24.5784 26.1395 24.1825 25.7475C23.7866 25.3556 23.5642 24.824 23.5642 24.2697C23.5642 23.7154 23.7866 23.1838 24.1825 22.7918C24.5784 22.3999 25.1154 22.1797 25.6753 22.1797C26.223 22.2163 26.7387 22.4483 27.1269 22.8326C27.515 23.2169 27.7493 23.7274 27.7864 24.2697C27.7989 24.5474 27.7528 24.8247 27.6511 25.0839C27.5495 25.343 27.3944 25.5784 27.1958 25.775C26.9972 25.9716 26.7595 26.1251 26.4977 26.2258C26.2359 26.3264 25.9558 26.372 25.6753 26.3597Z" fill="#615D8D"/>
</svg>
