<svg width="37" height="37" viewBox="0 0 37 37" fill="none" xmlns="http://www.w3.org/2000/svg">
<path d="M9.36333 36.9688L10.0445 36.7785C10.6997 36.5953 11.0824 35.9157 10.8993 35.2605L3.11128 7.39007C3.00139 6.99675 2.73974 6.6632 2.3839 6.46279C2.02807 6.26239 1.6072 6.21156 1.21388 6.32147L1.12591 6.34603C0.306827 6.57488 -0.171656 7.4244 0.0571881 8.24349L7.84543 36.1139C8.02852 36.7692 8.7081 37.1519 9.36333 36.9688Z" fill="#3453F3"/>
<path d="M36.789 17.4921C34.3193 16.2606 32.0345 14.6887 30.0014 12.8224C29.8305 12.666 29.7637 12.4258 29.8292 12.2036C30.8365 8.39272 31.5846 4.51799 32.0683 0.606014C32.1449 -0.0446757 31.794 -0.236055 31.424 0.210497C24.1644 8.89274 11.6035 -1.37795 4.12695 6.51326C4.21672 6.68132 4.28733 6.85892 4.33747 7.04274L9.38988 25.1345C16.8792 17.3389 29.3954 27.5458 36.6423 18.8827C37.0123 18.4362 37.0825 17.6196 36.789 17.4921Z" fill="#3453F3"/>
</svg>
