<svg width="37" height="37" viewBox="0 0 37 37" fill="none" xmlns="http://www.w3.org/2000/svg">
<path d="M36.8833 16.4461C36.8249 15.9261 36.2182 15.5349 35.6937 15.5349C33.9986 15.5349 32.4941 14.5399 31.8632 13C31.2192 11.4231 31.6347 9.58436 32.8977 8.42571C33.2955 8.062 33.344 7.453 33.0105 7.03025C32.1426 5.92841 31.1566 4.93297 30.0797 4.07035C29.6584 3.73241 29.0393 3.77945 28.6737 4.18412C27.5711 5.40533 25.5903 5.85912 24.0596 5.22052C22.4673 4.55055 21.4623 2.93651 21.561 1.20406C21.5935 0.65954 21.1954 0.186386 20.6528 0.123181C19.2708 -0.0368307 17.8766 -0.0414711 16.4906 0.1123C15.9548 0.171505 15.557 0.633459 15.5748 1.1711C15.6348 2.88658 14.6184 4.47214 13.0415 5.11811C11.5292 5.73591 9.56221 5.28548 8.46181 4.07499C8.0981 3.67624 7.4899 3.62728 7.06571 3.95802C5.95714 4.82801 4.94891 5.82408 4.07301 6.91696C3.7317 7.34179 3.7821 7.95752 4.18325 8.3225C5.47119 9.48883 5.88642 11.3434 5.21773 12.9387C4.57928 14.4596 3.00013 15.4393 1.19247 15.4393C0.605872 15.4205 0.188401 15.8146 0.123596 16.3481C-0.0389758 17.7374 -0.0407359 19.1539 0.115756 20.5546C0.17416 21.0769 0.798686 21.4648 1.32896 21.4648C2.94028 21.4238 4.48632 22.4207 5.1358 23.9995C5.78209 25.5764 5.36606 27.4143 4.10101 28.5746C3.7053 28.9383 3.65474 29.5458 3.98884 29.9681C4.84794 31.0631 5.8349 32.0591 6.91498 32.9291C7.33901 33.2706 7.95569 33.2227 8.32324 32.8176C9.4302 31.5935 11.4107 31.1405 12.9351 31.7804C14.532 32.4486 15.5366 34.0625 15.4385 35.7954C15.4063 36.3399 15.8054 36.8145 16.3461 36.8763C17.0533 36.959 17.7643 37 18.4774 37C19.1543 37 19.8313 36.963 20.5083 36.8876C21.0447 36.8284 21.4418 36.366 21.4237 35.8282C21.3618 34.1135 22.3804 32.5278 23.9554 31.8831C25.4778 31.2613 27.436 31.7164 28.537 32.9251C28.9027 33.3231 29.5072 33.3714 29.9331 33.0419C31.0398 32.1742 32.0461 31.1786 32.9258 30.0828C33.2675 29.6588 33.219 29.0423 32.8156 28.6766C31.528 27.5111 31.1105 25.6558 31.7792 24.0621C32.4077 22.5616 33.9282 21.5542 35.5635 21.5542L35.7923 21.5603C36.3232 21.6033 36.8111 21.1945 36.8753 20.6529C37.0386 19.2622 37.0404 17.8474 36.8833 16.4461ZM18.4997 29.1655C12.6092 29.1655 7.83424 24.3906 7.83424 18.5002C7.83424 12.6099 12.6093 7.83495 18.4997 7.83495C24.39 7.83495 29.1651 12.6099 29.1651 18.5002C29.1651 20.4996 28.6138 22.3696 27.6565 23.9688L22.9864 19.2985C23.3245 18.5013 23.5031 17.6371 23.5029 16.7452C23.5029 14.9987 22.8227 13.3568 21.5876 12.122C20.3528 10.8872 18.7109 10.2071 16.9647 10.2071C16.3819 10.2071 15.8019 10.2846 15.2407 10.4374C14.9949 10.5044 14.794 10.707 14.7285 10.9533C14.6616 11.2051 14.737 11.4632 14.9338 11.6602C14.9338 11.6602 17.2394 13.9836 18.0108 14.7548C18.0916 14.8356 18.0915 15.0284 18.0801 15.0979L18.0729 15.1486C17.9951 15.9967 17.8452 17.0147 17.7215 17.4059C17.7049 17.4224 17.6892 17.4363 17.6722 17.4533C17.6545 17.471 17.6382 17.4881 17.621 17.5057C17.2247 17.6329 16.191 17.7846 15.3295 17.8618L15.3297 17.8571L15.291 17.8669C15.2841 17.8677 15.2713 17.8686 15.2543 17.8686C15.1612 17.8686 15.0242 17.8426 14.8997 17.7182C14.0968 16.9153 11.8816 14.7159 11.8816 14.7159C11.6828 14.5178 11.479 14.4762 11.3431 14.4762C11.0265 14.4762 10.7429 14.7051 10.6537 15.0332C10.0438 17.2899 10.6903 19.7173 12.3411 21.3683C13.5763 22.6032 15.2183 23.2833 16.9648 23.2833C17.8567 23.2833 18.721 23.1049 19.518 22.7668L24.2388 27.4876C22.5814 28.5482 20.6133 29.1655 18.4997 29.1655Z" fill="#3453F3"/>
</svg>
