<svg width="20" height="28" viewBox="0 0 20 28" fill="none" xmlns="http://www.w3.org/2000/svg">
<path d="M0.500002 1.7886C0.500002 0.800784 1.30246 -0.00851012 2.28613 0.0819687C4.94595 0.326624 7.53385 1.11584 9.88625 2.40765C12.7626 3.98718 15.1938 6.26704 16.9547 9.03606C18.7156 11.8051 19.7492 14.9737 19.9598 18.2484C20.132 20.9266 19.7493 23.605 18.8428 26.1175C18.5076 27.0467 17.4343 27.4302 16.5398 27.0113V27.0113C15.6452 26.5924 15.27 25.5297 15.5861 24.5938C16.2483 22.6325 16.5236 20.5552 16.39 18.478C16.218 15.804 15.374 13.2167 13.9361 10.9556C12.4983 8.69458 10.5131 6.83295 8.16438 5.54318C6.33988 4.54126 4.34189 3.90959 2.28487 3.67755C1.30328 3.56682 0.500002 2.77642 0.500002 1.7886V1.7886Z" fill="#3453F3"/>
</svg>
