<svg width="12" height="14" viewBox="0 0 12 14" fill="none" xmlns="http://www.w3.org/2000/svg">
<path d="M6.00014 0.939453C9.07728 0.939453 11.5716 3.30602 11.5716 6.2256C11.5716 8.45933 9.91728 10.8937 6.65157 13.5546C6.46998 13.7026 6.23846 13.7839 5.99907 13.7837C5.75968 13.7835 5.52831 13.7019 5.347 13.5535L5.131 13.3757C2.00985 10.7842 0.428711 8.40945 0.428711 6.2256C0.428711 3.30602 2.923 0.939453 6.00014 0.939453ZM6.00014 4.19247C5.43182 4.19247 4.88677 4.40667 4.48491 4.78796C4.08305 5.16924 3.85728 5.68638 3.85728 6.2256C3.85728 6.76482 4.08305 7.28195 4.48491 7.66324C4.88677 8.04453 5.43182 8.25873 6.00014 8.25873C6.56846 8.25873 7.11351 8.04453 7.51537 7.66324C7.91723 7.28195 8.143 6.76482 8.143 6.2256C8.143 5.68638 7.91723 5.16924 7.51537 4.78796C7.11351 4.40667 6.56846 4.19247 6.00014 4.19247Z" fill="#3453F3"/>
</svg>
