<svg width="18" height="18" viewBox="0 0 18 18" fill="none" xmlns="http://www.w3.org/2000/svg">
<path d="M11.7372 1.5C12.0557 1.49925 12.3074 1.74663 12.3082 2.07646L12.3089 2.63868C14.3749 2.8006 15.7396 4.2084 15.7418 6.36732L15.75 12.6867C15.753 15.0405 14.2742 16.4887 11.9039 16.4925L6.11392 16.5C3.7584 16.503 2.26112 15.0202 2.25816 12.6597L2.25 6.41454C2.24705 4.24138 3.56365 2.83733 5.62963 2.64768L5.62889 2.08546C5.62815 1.75563 5.87252 1.5075 6.19833 1.5075C6.52415 1.50675 6.76852 1.75413 6.76926 2.08396L6.77 2.6087L11.1685 2.6027L11.1678 2.07796C11.1671 1.74813 11.4114 1.50075 11.7372 1.5ZM12.0394 12.1439H12.032C11.6913 12.1522 11.4181 12.4378 11.4255 12.7826C11.4262 13.1274 11.701 13.4115 12.0416 13.419C12.3889 13.4183 12.6703 13.1327 12.6695 12.7804C12.6695 12.428 12.3874 12.1439 12.0394 12.1439ZM5.93768 12.1447C5.59705 12.1597 5.33047 12.4453 5.33121 12.7901C5.34676 13.1349 5.62815 13.4048 5.96878 13.389C6.30274 13.3741 6.56858 13.0884 6.55303 12.7436C6.54563 12.4063 6.2709 12.1439 5.93768 12.1447ZM8.98852 12.1409C8.64789 12.1567 8.38206 12.4415 8.38206 12.7864C8.39761 13.1312 8.679 13.4003 9.01962 13.3853C9.35285 13.3696 9.61943 13.0847 9.60387 12.7391C9.59647 12.4025 9.32175 12.1402 8.98852 12.1409ZM5.93398 9.44602C5.59335 9.46102 5.32751 9.74662 5.32825 10.0914C5.34306 10.4363 5.62519 10.7061 5.96582 10.6904C6.29904 10.6754 6.56488 10.3898 6.54933 10.045C6.54192 9.70764 6.26794 9.44527 5.93398 9.44602ZM8.98556 9.41979C8.64493 9.43478 8.37835 9.72039 8.37909 10.0652C8.3939 10.41 8.67603 10.6792 9.01666 10.6642C9.34988 10.6484 9.61572 10.3636 9.60091 10.0187C9.59277 9.68141 9.31878 9.41904 8.98556 9.41979ZM12.0364 9.42353C11.6958 9.43103 11.4292 9.70839 11.4299 10.0532V10.0615C11.4373 10.4063 11.7187 10.6679 12.0601 10.6604C12.3933 10.6522 12.6592 10.3666 12.6518 10.0217C12.6362 9.6919 12.3689 9.42279 12.0364 9.42353ZM11.17 3.75712L6.77148 3.76312L6.77222 4.36957C6.77222 4.69265 6.5286 4.94753 6.20278 4.94753C5.87696 4.94828 5.63186 4.69415 5.63186 4.37107L5.63111 3.79385C4.18715 3.93853 3.38815 4.78711 3.39037 6.41304L3.39111 6.64618L14.6022 6.63118V6.36881C14.5704 4.75712 13.7618 3.91155 12.3104 3.78561L12.3111 4.36282C12.3111 4.68516 12.0601 4.94078 11.7417 4.94078C11.4159 4.94153 11.1708 4.68666 11.1708 4.36432L11.17 3.75712Z" fill="#3453F3"/>
</svg>
