<svg width="19" height="19" viewBox="0 0 19 19" fill="none" xmlns="http://www.w3.org/2000/svg">
<path d="M1.16667 8.45833H7.41667C7.69293 8.45833 7.95789 8.34859 8.15324 8.15324C8.34859 7.95789 8.45833 7.69293 8.45833 7.41667V1.16667C8.45833 0.890399 8.34859 0.625447 8.15324 0.430097C7.95789 0.234747 7.69293 0.125 7.41667 0.125H1.16667C0.890399 0.125 0.625447 0.234747 0.430097 0.430097C0.234747 0.625447 0.125 0.890399 0.125 1.16667V7.41667C0.125 7.69293 0.234747 7.95789 0.430097 8.15324C0.625447 8.34859 0.890399 8.45833 1.16667 8.45833ZM11.5833 8.45833H17.8333C18.1096 8.45833 18.3746 8.34859 18.5699 8.15324C18.7653 7.95789 18.875 7.69293 18.875 7.41667V1.16667C18.875 0.890399 18.7653 0.625447 18.5699 0.430097C18.3746 0.234747 18.1096 0.125 17.8333 0.125H11.5833C11.3071 0.125 11.0421 0.234747 10.8468 0.430097C10.6514 0.625447 10.5417 0.890399 10.5417 1.16667V7.41667C10.5417 7.69293 10.6514 7.95789 10.8468 8.15324C11.0421 8.34859 11.3071 8.45833 11.5833 8.45833ZM1.16667 18.875H7.41667C7.69293 18.875 7.95789 18.7653 8.15324 18.5699C8.34859 18.3746 8.45833 18.1096 8.45833 17.8333V11.5833C8.45833 11.3071 8.34859 11.0421 8.15324 10.8468C7.95789 10.6514 7.69293 10.5417 7.41667 10.5417H1.16667C0.890399 10.5417 0.625447 10.6514 0.430097 10.8468C0.234747 11.0421 0.125 11.3071 0.125 11.5833V17.8333C0.125 18.1096 0.234747 18.3746 0.430097 18.5699C0.625447 18.7653 0.890399 18.875 1.16667 18.875ZM14.7083 18.875C17.0063 18.875 18.875 17.0063 18.875 14.7083C18.875 12.4104 17.0063 10.5417 14.7083 10.5417C12.4104 10.5417 10.5417 12.4104 10.5417 14.7083C10.5417 17.0063 12.4104 18.875 14.7083 18.875Z" fill="#3453F3"/>
</svg>
