<svg width="8" height="8" viewBox="0 0 8 8" fill="none" xmlns="http://www.w3.org/2000/svg">
<path d="M4.82295 4.00043L7.33129 1.49793C7.44113 1.38809 7.50284 1.23911 7.50284 1.08377C7.50284 0.928424 7.44113 0.779444 7.33129 0.6696C7.22144 0.559757 7.07246 0.498047 6.91712 0.498047C6.76178 0.498047 6.6128 0.559757 6.50295 0.6696L4.00045 3.17793L1.49795 0.6696C1.38811 0.559757 1.23913 0.498047 1.08379 0.498047C0.928443 0.498047 0.779463 0.559757 0.669619 0.6696C0.559775 0.779444 0.498066 0.928424 0.498066 1.08377C0.498066 1.23911 0.559775 1.38809 0.669619 1.49793L3.17795 4.00043L0.669619 6.50293C0.614944 6.55716 0.571548 6.62168 0.541933 6.69276C0.512318 6.76385 0.49707 6.84009 0.49707 6.9171C0.49707 6.99411 0.512318 7.07035 0.541933 7.14144C0.571548 7.21252 0.614944 7.27704 0.669619 7.33127C0.723848 7.38594 0.788365 7.42934 0.85945 7.45895C0.930534 7.48857 1.00678 7.50382 1.08379 7.50382C1.16079 7.50382 1.23704 7.48857 1.30812 7.45895C1.37921 7.42934 1.44372 7.38594 1.49795 7.33127L4.00045 4.82293L6.50295 7.33127C6.55718 7.38594 6.6217 7.42934 6.69278 7.45895C6.76387 7.48857 6.84011 7.50382 6.91712 7.50382C6.99413 7.50382 7.07037 7.48857 7.14146 7.45895C7.21254 7.42934 7.27706 7.38594 7.33129 7.33127C7.38596 7.27704 7.42936 7.21252 7.45897 7.14144C7.48859 7.07035 7.50383 6.99411 7.50383 6.9171C7.50383 6.84009 7.48859 6.76385 7.45897 6.69276C7.42936 6.62168 7.38596 6.55716 7.33129 6.50293L4.82295 4.00043Z" fill="#FF002E"/>
</svg>
