<svg width="12" height="12" viewBox="0 0 12 12" fill="none" xmlns="http://www.w3.org/2000/svg">
<path d="M10.0478 4.07463C10.1641 4.07463 10.2696 4.12538 10.353 4.21113C10.4307 4.30271 10.4699 4.41646 10.4585 4.53663C10.4585 4.57629 10.1476 8.50792 9.97006 10.1628C9.85887 11.1784 9.20418 11.795 8.22214 11.8119C7.46704 11.8288 6.72895 11.8346 6.00221 11.8346C5.23065 11.8346 4.47612 11.8288 3.7437 11.8119C2.79457 11.7891 2.13932 11.1615 2.03379 10.1628C1.85112 8.50209 1.5459 4.57629 1.54022 4.53663C1.53455 4.41646 1.57313 4.30271 1.65142 4.21113C1.72857 4.12538 1.83977 4.07463 1.95664 4.07463H10.0478ZM7.20442 0.167969C7.72012 0.167969 8.18079 0.527882 8.31411 1.04121L8.40942 1.46704C8.48657 1.81412 8.78725 2.0597 9.13332 2.0597H10.8342C11.0611 2.0597 11.25 2.24811 11.25 2.48786V2.70953C11.25 2.94344 11.0611 3.13769 10.8342 3.13769H1.16641C0.938918 3.13769 0.75 2.94344 0.75 2.70953V2.48786C0.75 2.24811 0.938918 2.0597 1.16641 2.0597H2.86725C3.21275 2.0597 3.51343 1.81412 3.59115 1.46762L3.68022 1.06979C3.81865 0.527882 4.27421 0.167969 4.79557 0.167969H7.20442Z" fill="#79778A"/>
</svg>
