<svg width="14" height="14" viewBox="0 0 14 14" fill="none" xmlns="http://www.w3.org/2000/svg">
<path d="M10.1099 0.340875C11.0689 0.280937 12.0146 0.613925 12.7272 1.26658C13.3798 1.97918 13.7128 2.92487 13.6596 3.89054V10.1108C13.7195 11.0764 13.3798 12.0221 12.7338 12.7347C12.0212 13.3874 11.0689 13.7204 10.1099 13.6604H3.88959C2.92391 13.7204 1.97822 13.3874 1.26561 12.7347C0.612951 12.0221 0.27996 11.0764 0.339898 10.1108V3.89054C0.27996 2.92487 0.612951 1.97918 1.26561 1.26658C1.97822 0.613925 2.92391 0.280937 3.88959 0.340875H10.1099ZM9.93671 3.38439C9.5238 2.97149 8.85782 2.97149 8.44491 3.38439L7.9987 3.83726C7.9321 3.90385 7.9321 4.01707 7.9987 4.08367C7.9987 4.08367 8.01178 4.09666 8.03504 4.11979L8.19886 4.28271C8.29362 4.37699 8.41189 4.49473 8.53066 4.61312L8.93338 5.01565C9.01741 5.10007 9.07316 5.15663 9.0776 5.16255C9.15085 5.24247 9.19747 5.34903 9.19747 5.4689C9.19747 5.70865 9.00434 5.90845 8.75792 5.90845C8.64471 5.90845 8.53815 5.86183 8.46489 5.78857L7.3527 4.68305C7.29942 4.62977 7.20618 4.62977 7.1529 4.68305L3.97617 7.85976C3.75639 8.07954 3.62985 8.37257 3.62319 8.68557L3.58324 10.2639C3.58324 10.3505 3.60987 10.4304 3.66981 10.4904C3.72975 10.5503 3.80967 10.5836 3.89625 10.5836H5.46131C5.78098 10.5836 6.08733 10.4571 6.32043 10.2306L10.8025 5.73529C11.2087 5.32239 11.2087 4.65641 10.8025 4.25016L9.93671 3.38439Z" fill="#3453F3"/>
</svg>
