<svg width="19" height="19" viewBox="0 0 19 19" fill="none" xmlns="http://www.w3.org/2000/svg">
<path d="M13.0416 4.2812L14.7183 5.95715L13.0416 4.2812ZM14.1198 2.80474L9.58597 7.33861C9.3517 7.57255 9.19193 7.8706 9.1268 8.1952L8.70801 10.2915L10.8043 9.87195C11.1289 9.80703 11.4266 9.64791 11.6609 9.41357L16.1948 4.8797C16.331 4.74345 16.4391 4.58171 16.5129 4.4037C16.5866 4.22569 16.6245 4.03489 16.6245 3.84222C16.6245 3.64954 16.5866 3.45875 16.5129 3.28074C16.4391 3.10273 16.331 2.94098 16.1948 2.80474C16.0586 2.66849 15.8968 2.56042 15.7188 2.48669C15.5408 2.41295 15.35 2.375 15.1573 2.375C14.9646 2.375 14.7739 2.41295 14.5958 2.48669C14.4178 2.56042 14.2561 2.66849 14.1198 2.80474V2.80474Z" stroke="#3453F3" stroke-width="2" stroke-linecap="round" stroke-linejoin="round"/>
<path d="M15.0415 11.8747V14.2497C15.0415 14.6696 14.8747 15.0723 14.5778 15.3693C14.2808 15.6662 13.8781 15.833 13.4582 15.833H4.74984C4.32991 15.833 3.92718 15.6662 3.63025 15.3693C3.33332 15.0723 3.1665 14.6696 3.1665 14.2497V5.54134C3.1665 5.12142 3.33332 4.71869 3.63025 4.42176C3.92718 4.12482 4.32991 3.95801 4.74984 3.95801H7.12484" stroke="#3453F3" stroke-width="2" stroke-linecap="round" stroke-linejoin="round"/>
</svg>
