<svg width="21" height="18" viewBox="0 0 21 18" fill="none" xmlns="http://www.w3.org/2000/svg">
<path d="M16.6871 11.1104C18.5871 11.1104 20.126 12.6234 20.126 14.49C20.126 16.3556 18.5871 17.8686 16.6871 17.8686C14.7882 17.8686 13.2482 16.3556 13.2482 14.49C13.2482 12.6234 14.7882 11.1104 16.6871 11.1104ZM8.20926 13.0488C9.04148 13.0488 9.71703 13.7125 9.71703 14.5301C9.71703 15.3466 9.04148 16.0114 8.20926 16.0114H1.63375C0.801528 16.0114 0.125977 15.3466 0.125977 14.5301C0.125977 13.7125 0.801528 13.0488 1.63375 13.0488H8.20926ZM3.56485 0.0908203C5.46484 0.0908203 7.00372 1.6038 7.00372 3.46938C7.00372 5.33605 5.46484 6.84903 3.56485 6.84903C1.66597 6.84903 0.125977 5.33605 0.125977 3.46938C0.125977 1.6038 1.66597 0.0908203 3.56485 0.0908203ZM18.6193 1.98915C19.4504 1.98915 20.126 2.65285 20.126 3.46938C20.126 4.287 19.4504 4.95071 18.6193 4.95071H12.0438C11.2116 4.95071 10.536 4.287 10.536 3.46938C10.536 2.65285 11.2116 1.98915 12.0438 1.98915H18.6193Z" fill="#3453F3"/>
</svg>
