<svg width="14" height="14" viewBox="0 0 14 14" fill="none" xmlns="http://www.w3.org/2000/svg">
<path fill-rule="evenodd" clip-rule="evenodd" d="M6.99967 0.583008C3.45592 0.583008 0.583008 3.45592 0.583008 6.99967C0.583008 10.5434 3.45592 13.4163 6.99967 13.4163C10.5434 13.4163 13.4163 10.5434 13.4163 6.99967C13.4163 3.45592 10.5434 0.583008 6.99967 0.583008ZM6.70801 3.49967C6.5533 3.49967 6.40492 3.56113 6.29553 3.67053C6.18613 3.77993 6.12467 3.9283 6.12467 4.08301C6.12467 4.23772 6.18613 4.38609 6.29553 4.49549C6.40492 4.60488 6.5533 4.66634 6.70801 4.66634H6.99967C7.15438 4.66634 7.30276 4.60488 7.41215 4.49549C7.52155 4.38609 7.58301 4.23772 7.58301 4.08301C7.58301 3.9283 7.52155 3.77993 7.41215 3.67053C7.30276 3.56113 7.15438 3.49967 6.99967 3.49967H6.70801ZM5.83301 5.83301C5.6783 5.83301 5.52993 5.89447 5.42053 6.00386C5.31113 6.11326 5.24967 6.26163 5.24967 6.41634C5.24967 6.57105 5.31113 6.71942 5.42053 6.82882C5.52993 6.93822 5.6783 6.99967 5.83301 6.99967H6.41634V8.74967H5.83301C5.6783 8.74967 5.52993 8.81113 5.42053 8.92053C5.31113 9.02992 5.24967 9.1783 5.24967 9.33301C5.24967 9.48772 5.31113 9.63609 5.42053 9.74549C5.52993 9.85488 5.6783 9.91634 5.83301 9.91634H8.16634C8.32105 9.91634 8.46942 9.85488 8.57882 9.74549C8.68822 9.63609 8.74967 9.48772 8.74967 9.33301C8.74967 9.1783 8.68822 9.02992 8.57882 8.92053C8.46942 8.81113 8.32105 8.74967 8.16634 8.74967H7.58301V6.41634C7.58301 6.26163 7.52155 6.11326 7.41215 6.00386C7.30276 5.89447 7.15438 5.83301 6.99967 5.83301H5.83301Z" fill="#3453F3"/>
</svg>
