<svg width="20" height="20" viewBox="0 0 20 20" fill="none" xmlns="http://www.w3.org/2000/svg">
<path d="M17.871 7.81617C17.5963 7.52977 17.3123 7.23359 17.2196 7.00961C17.1367 6.80898 17.1305 6.39789 17.1249 6.03531C17.1132 5.25422 17.0984 4.28219 16.4081 3.59188C15.7178 2.90156 14.7458 2.8868 13.9647 2.87508C13.602 2.86961 13.191 2.86336 12.9905 2.78039C12.7664 2.68766 12.4702 2.40367 12.1839 2.12898C11.6303 1.59812 10.9415 0.9375 10 0.9375C9.05859 0.9375 8.36969 1.59812 7.81617 2.12898C7.52977 2.40367 7.23359 2.68766 7.00961 2.78039C6.80898 2.86328 6.39789 2.86953 6.03531 2.87508C5.25422 2.8868 4.28219 2.90156 3.59188 3.59188C2.90156 4.28219 2.88672 5.25422 2.875 6.03531C2.86953 6.39797 2.86328 6.80898 2.78031 7.00953C2.68758 7.23359 2.40359 7.52977 2.12891 7.81609C1.59812 8.36969 0.9375 9.05852 0.9375 10C0.9375 10.9414 1.59812 11.6303 2.12898 12.1838C2.40367 12.4702 2.68766 12.7664 2.78039 12.9904C2.86328 13.191 2.86953 13.6021 2.87508 13.9647C2.8868 14.7458 2.90156 15.7178 3.59188 16.4081C4.28219 17.0984 5.25422 17.1132 6.03531 17.1249C6.39797 17.1304 6.80898 17.1366 7.00953 17.2196C7.23359 17.3123 7.52977 17.5963 7.81609 17.871C8.36969 18.4019 9.05852 19.0625 10 19.0625C10.9414 19.0625 11.6303 18.4019 12.1838 17.871C12.4702 17.5963 12.7664 17.3123 12.9904 17.2196C13.191 17.1367 13.6021 17.1305 13.9647 17.1249C14.7458 17.1132 15.7178 17.0984 16.4081 16.4081C17.0984 15.7178 17.1132 14.7458 17.1249 13.9647C17.1304 13.602 17.1366 13.191 17.2196 12.9905C17.3123 12.7664 17.5963 12.4702 17.871 12.1839C18.4019 11.6303 19.0625 10.9415 19.0625 10C19.0625 9.05859 18.4019 8.36969 17.871 7.81617ZM16.5177 10.8861C16.1413 11.2785 15.7147 11.7234 15.4871 12.2736C15.2673 12.8048 15.2586 13.3801 15.2502 13.9364C15.2439 14.3555 15.2352 14.9295 15.0823 15.0823C14.9295 15.2352 14.3555 15.2438 13.9364 15.2502C13.3801 15.2586 12.8048 15.2673 12.2736 15.4871C11.7234 15.7147 11.2785 16.1413 10.8861 16.5177C10.608 16.7845 10.1877 17.1875 10 17.1875C9.81234 17.1875 9.39203 16.7844 9.11391 16.5177C8.72148 16.1413 8.27656 15.7147 7.72641 15.4871C7.19516 15.2673 6.61992 15.2586 6.06359 15.2502C5.64453 15.2439 5.07047 15.2352 4.91766 15.0823C4.76477 14.9295 4.75617 14.3555 4.74984 13.9364C4.74141 13.3801 4.73273 12.8048 4.51289 12.2736C4.28531 11.7234 3.85867 11.2785 3.48227 10.8861C3.21563 10.608 2.8125 10.1877 2.8125 10C2.8125 9.81234 3.21563 9.39203 3.48227 9.11391C3.85867 8.72148 4.28531 8.27656 4.51289 7.72641C4.73273 7.19516 4.74141 6.61992 4.74984 6.06359C4.75609 5.64453 4.76477 5.07047 4.91766 4.91766C5.07047 4.76477 5.64453 4.75617 6.06359 4.74984C6.61992 4.74141 7.19516 4.73273 7.72641 4.51289C8.27656 4.28531 8.72148 3.85867 9.11391 3.48227C9.39203 3.21563 9.81234 2.8125 10 2.8125C10.1877 2.8125 10.608 3.21563 10.8861 3.48227C11.2785 3.85867 11.7234 4.28531 12.2736 4.51289C12.8048 4.73273 13.3801 4.74141 13.9364 4.74984C14.3555 4.75609 14.9295 4.76477 15.0823 4.91766C15.2352 5.07047 15.2438 5.64453 15.2502 6.06359C15.2586 6.61992 15.2673 7.19516 15.4871 7.72641C15.7147 8.27656 16.1413 8.72148 16.5177 9.11391C16.7845 9.39203 17.1875 9.81234 17.1875 10C17.1875 10.1877 16.7844 10.608 16.5177 10.8861ZM9.06242 10.3125V6.25C9.06242 6.00136 9.16119 5.7629 9.33701 5.58709C9.51283 5.41127 9.75128 5.3125 9.99992 5.3125C10.2486 5.3125 10.487 5.41127 10.6628 5.58709C10.8386 5.7629 10.9374 6.00136 10.9374 6.25V10.3125C10.9374 10.5611 10.8386 10.7996 10.6628 10.9754C10.487 11.1512 10.2486 11.25 9.99992 11.25C9.75128 11.25 9.51283 11.1512 9.33701 10.9754C9.16119 10.7996 9.06242 10.5611 9.06242 10.3125ZM11.2499 13.4375C11.2499 13.6847 11.1766 13.9264 11.0393 14.132C10.9019 14.3375 10.7067 14.4977 10.4783 14.5924C10.2499 14.687 9.99854 14.7117 9.75606 14.6635C9.51358 14.6153 9.29085 14.4962 9.11604 14.3214C8.94122 14.1466 8.82217 13.9238 8.77394 13.6814C8.72571 13.4389 8.75046 13.1876 8.84507 12.9591C8.93968 12.7307 9.0999 12.5355 9.30546 12.3982C9.51102 12.2608 9.7527 12.1875 9.99992 12.1875C10.3314 12.1875 10.6494 12.3192 10.8838 12.5536C11.1182 12.788 11.2499 13.106 11.2499 13.4375Z" fill="#3453F3" fill-opacity="0.69"/>
</svg>
