<svg width="20" height="20" viewBox="0 0 20 20" fill="none" xmlns="http://www.w3.org/2000/svg">
<path fill-rule="evenodd" clip-rule="evenodd" d="M15.833 17.9165H4.99967C3.38884 17.9165 2.08301 16.6107 2.08301 14.9998V4.11917C2.08301 3.22954 2.96287 2.66555 3.73709 2.93434C3.84769 2.97274 3.95614 3.02813 4.05956 3.102L4.20543 3.2062C4.92878 3.72288 5.9071 3.72059 6.63249 3.20246C7.64661 2.47809 9.01941 2.47809 10.0335 3.20246C10.7589 3.72059 11.7372 3.72288 12.4606 3.2062L12.6065 3.102C13.4338 2.51105 14.583 3.10246 14.583 4.11917V10.4165H17.4997C17.8449 10.4165 18.1247 10.6963 18.1247 11.0415V15.6248C18.1247 16.8905 17.0987 17.9165 15.833 17.9165ZM14.7913 11.6665V15.6248C14.7913 16.2001 15.2577 16.6665 15.833 16.6665C16.4083 16.6665 16.8747 16.2001 16.8747 15.6248V11.6665H14.7913ZM11.2497 8.12484C11.2497 7.77966 10.9699 7.49984 10.6247 7.49984H5.62467C5.2795 7.49984 4.99967 7.77966 4.99967 8.12484C4.99967 8.47002 5.2795 8.74984 5.62467 8.74984H10.6247C10.9699 8.74984 11.2497 8.47002 11.2497 8.12484ZM10.4163 10.6248C10.4163 10.2797 10.1365 9.99984 9.79134 9.99984H5.62467C5.2795 9.99984 4.99967 10.2797 4.99967 10.6248C4.99967 10.97 5.2795 11.2498 5.62467 11.2498H9.79134C10.1365 11.2498 10.4163 10.97 10.4163 10.6248ZM10.6247 12.4998C10.9699 12.4998 11.2497 12.7797 11.2497 13.1248C11.2497 13.47 10.9699 13.7498 10.6247 13.7498H5.62467C5.2795 13.7498 4.99967 13.47 4.99967 13.1248C4.99967 12.7797 5.2795 12.4998 5.62467 12.4998H10.6247Z" fill="#3453F3"/>
</svg>
