<svg width="21" height="21" viewBox="0 0 21 21" fill="none" xmlns="http://www.w3.org/2000/svg">
<path d="M6.39844 10.5C6.39844 10.9531 6.76569 11.3203 7.21875 11.3203H9.67969V13.7812C9.67969 14.2343 10.0469 14.6016 10.5 14.6016C10.9531 14.6016 11.3203 14.2343 11.3203 13.7812V11.3203H13.7812C14.2343 11.3203 14.6016 10.9531 14.6016 10.5C14.6016 10.0469 14.2343 9.67969 13.7812 9.67969H11.3203V7.21875C11.3203 6.76569 10.9531 6.39844 10.5 6.39844C10.0469 6.39844 9.67969 6.76569 9.67969 7.21875V9.67969H7.21875C6.76569 9.67969 6.39844 10.0469 6.39844 10.5Z" fill="#002638"/>
<path d="M6.57981 2.53459L7.64084 2.09507C8.05936 1.92165 8.25817 1.44181 8.08475 1.02325C7.91134 0.604681 7.43154 0.405797 7.01293 0.579334L5.9519 1.01886C5.53338 1.19227 5.33457 1.67211 5.50799 2.09068C5.68083 2.50785 6.15989 2.70841 6.57981 2.53459Z" fill="#002638"/>
<path d="M10.5 0C10.0469 0 9.67969 0.367254 9.67969 0.820312C9.67969 1.27337 10.0469 1.64062 10.5 1.64062C15.3964 1.64062 19.3594 5.60306 19.3594 10.5C19.3594 15.3964 15.3969 19.3594 10.5 19.3594C5.60364 19.3594 1.64062 15.3969 1.64062 10.5C1.64062 10.0469 1.27337 9.67969 0.820312 9.67969C0.367254 9.67969 0 10.0469 0 10.5C0 16.303 4.69617 21 10.5 21C16.303 21 21 16.3038 21 10.5C21 4.69699 16.3038 0 10.5 0Z" fill="#002638"/>
<path d="M3.83009 4.64117L4.64216 3.8291C4.96254 3.50873 4.96254 2.98931 4.64216 2.66897C4.32179 2.34864 3.80237 2.3486 3.48204 2.66897L2.66997 3.48104C2.34959 3.80141 2.34959 4.32084 2.66997 4.64117C2.99026 4.96146 3.50972 4.96154 3.83009 4.64117Z" fill="#002638"/>
<path d="M1.02417 8.08381C1.44363 8.25755 1.92298 8.05748 2.09599 7.63989L2.53551 6.57882C2.70892 6.16025 2.51012 5.68041 2.0916 5.50699C1.67295 5.33362 1.19319 5.53238 1.01978 5.95091L0.580253 7.01194C0.406839 7.43055 0.605642 7.91039 1.02417 8.08381Z" fill="#002638"/>
</svg>
