<svg width="18" height="21" viewBox="0 0 18 21" fill="none" xmlns="http://www.w3.org/2000/svg">
<path d="M7.24443 17.4196C7.74434 17.3138 10.7905 17.3138 11.2904 17.4196C11.7178 17.5183 12.1799 17.7489 12.1799 18.2525C12.1551 18.7319 11.8738 19.1569 11.4852 19.4268C10.9813 19.8196 10.39 20.0684 9.77182 20.158C9.42993 20.2024 9.09401 20.2034 8.76404 20.158C8.14487 20.0684 7.55352 19.8196 7.05063 19.4258C6.66103 19.1569 6.37977 18.7319 6.35492 18.2525C6.35492 17.7489 6.81707 17.5183 7.24443 17.4196ZM9.32647 0.19165C11.4066 0.19165 13.5315 1.17867 14.7937 2.81631C15.6126 3.87081 15.9883 4.9243 15.9883 6.56195V6.98798C15.9883 8.24391 16.3203 8.98418 17.0508 9.83724C17.6043 10.4657 17.7812 11.2724 17.7812 12.1477C17.7812 13.0219 17.494 13.8518 16.9186 14.5256C16.1652 15.3333 15.1028 15.849 14.0185 15.9386C12.4472 16.0726 10.8749 16.1854 9.28175 16.1854C7.68759 16.1854 6.1163 16.1179 4.545 15.9386C3.45971 15.849 2.39727 15.3333 1.64492 14.5256C1.06947 13.8518 0.78125 13.0219 0.78125 12.1477C0.78125 11.2724 0.959151 10.4657 1.51174 9.83724C2.26509 8.98418 2.57517 8.24391 2.57517 6.98798V6.56195C2.57517 4.87999 2.99458 3.78017 3.85825 2.70351C5.14231 1.13335 7.2006 0.19165 9.23702 0.19165H9.32647Z" fill="#EB7F00"/>
</svg>
