<svg width="14" height="14" viewBox="0 0 14 14" fill="none" xmlns="http://www.w3.org/2000/svg">
<path d="M1.23979 4.29373C1.47798 4.29373 1.67098 4.08035 1.67098 3.81715V1.78513L4.44814 4.85399C4.53237 4.94702 4.64269 4.99354 4.75302 4.99354C4.86341 4.99354 4.97379 4.94702 5.05796 4.85393C5.22636 4.66781 5.22636 4.36604 5.0579 4.17998L2.28062 1.11106H4.11951C4.35765 1.11106 4.55071 0.897678 4.55071 0.634478C4.55071 0.371279 4.3577 0.157898 4.11951 0.157898H1.23979C1.0016 0.157898 0.808594 0.371279 0.808594 0.634478V3.81721C0.808594 4.08035 1.0016 4.29373 1.23979 4.29373Z" fill="white"/>
<path d="M12.7585 9.70581C12.5203 9.70581 12.3273 9.91919 12.3273 10.1824V12.2145L9.46463 9.05048C9.29618 8.86436 9.02321 8.86436 8.85481 9.05048C8.68642 9.2366 8.68642 9.53837 8.85481 9.72443L11.7174 12.8883H9.87898C9.64079 12.8883 9.44779 13.1017 9.44779 13.3649C9.44779 13.6281 9.64079 13.8415 9.87898 13.8415H12.7585C12.9967 13.8415 13.1897 13.6281 13.1897 13.3649V10.1824C13.1897 9.91919 12.9966 9.70581 12.7585 9.70581Z" fill="white"/>
<path d="M4.53334 9.05079L1.67098 12.2147V10.1827C1.67098 9.9195 1.47798 9.70612 1.23979 9.70612C1.0016 9.70612 0.808594 9.9195 0.808594 10.1827V13.3654C0.808594 13.6286 1.0016 13.8419 1.23979 13.8419H4.11923C4.35736 13.8419 4.55042 13.6286 4.55042 13.3654C4.55042 13.1022 4.35742 12.8888 4.11923 12.8888H2.28074L5.14316 9.72474C5.31156 9.53862 5.31156 9.23685 5.14311 9.05073C4.97483 8.86467 4.7018 8.86467 4.53334 9.05079Z" fill="white"/>
<path d="M12.7585 0.157898H9.87896C9.64077 0.157898 9.44777 0.371279 9.44777 0.634478C9.44777 0.897678 9.64077 1.11106 9.87896 1.11106H11.7175L8.94074 4.1803C8.77235 4.36642 8.77235 4.66819 8.9408 4.85431C9.02497 4.94734 9.13535 4.99385 9.24568 4.99385C9.35601 4.99385 9.46639 4.94728 9.55062 4.85425L12.3274 1.78501V3.81715C12.3274 4.08034 12.5204 4.29373 12.7586 4.29373C12.9968 4.29373 13.1898 4.08034 13.1898 3.81715V0.634478C13.1897 0.371215 12.9966 0.157898 12.7585 0.157898Z" fill="white"/>
</svg>
