<svg width="20" height="18" viewBox="0 0 20 18" fill="none" xmlns="http://www.w3.org/2000/svg">
<path d="M11.8316 16.4485C11.6821 16.4858 11.5296 16.5189 11.3783 16.5468C10.9828 16.6203 10.7213 17.0007 10.7945 17.3966C10.8306 17.5913 10.9412 17.7535 11.0914 17.8594C11.2462 17.9684 11.4432 18.0176 11.6439 17.9802C11.8241 17.9468 12.0057 17.9075 12.1838 17.863C12.5744 17.7658 12.8124 17.3701 12.7149 16.9797C12.6177 16.589 12.2224 16.3513 11.8316 16.4485Z" fill="#3453F3"/>
<path d="M17.2233 6.67791C17.2743 6.83179 17.3718 6.9574 17.4949 7.0442C17.6775 7.17278 17.9163 7.21604 18.1443 7.14067C18.5265 7.01376 18.7336 6.60164 18.6071 6.21964C18.5495 6.0455 18.4856 5.87082 18.4175 5.70073C18.268 5.32696 17.844 5.14498 17.4701 5.29449C17.0965 5.44392 16.9145 5.86801 17.0641 6.2419C17.1213 6.38486 17.1749 6.5316 17.2233 6.67791Z" fill="#3453F3"/>
<path d="M14.2012 15.407C14.0726 15.4919 13.9399 15.5741 13.8062 15.651C13.4574 15.8522 13.3379 16.2981 13.5391 16.6467C13.5937 16.7415 13.6664 16.8191 13.7501 16.8783C13.975 17.0365 14.2804 17.0602 14.5346 16.9137C14.6935 16.8221 14.8516 16.7245 15.0047 16.6233C15.3404 16.4015 15.4329 15.9492 15.2109 15.6134C14.989 15.2774 14.537 15.1851 14.2012 15.407Z" fill="#3453F3"/>
<path d="M19.0597 8.71298C19.0439 8.31068 18.705 7.99755 18.3026 8.01326C17.9007 8.02912 17.5873 8.36809 17.6031 8.77024C17.6092 8.92399 17.6107 9.08005 17.6072 9.23365C17.6015 9.48593 17.7249 9.71082 17.9167 9.84599C18.0309 9.92643 18.1695 9.97511 18.3199 9.97854C18.7222 9.98747 19.0556 9.66838 19.0645 9.26588C19.0685 9.08235 19.067 8.8964 19.0597 8.71298Z" fill="#3453F3"/>
<path d="M17.1033 13.4908C16.7807 13.2488 16.3243 13.3145 16.0827 13.6365C15.9901 13.7598 15.8927 13.8816 15.7929 13.9989C15.5322 14.3052 15.569 14.7653 15.8754 15.0263C15.8928 15.0411 15.9105 15.0547 15.9288 15.0675C16.2334 15.2822 16.6566 15.2329 16.9029 14.9439C17.022 14.804 17.1382 14.6585 17.2487 14.5112C17.4904 14.1892 17.425 13.7325 17.1033 13.4908Z" fill="#3453F3"/>
<path d="M18.1742 10.8558C17.7901 10.7354 17.3811 10.9492 17.2607 11.3333C17.2146 11.4801 17.1636 11.6275 17.1085 11.7719C16.9874 12.0898 17.1034 12.4396 17.3692 12.627C17.418 12.6612 17.4717 12.6903 17.53 12.7123C17.9061 12.8558 18.3272 12.6672 18.4706 12.2909C18.536 12.1193 18.5967 11.9438 18.6516 11.7694C18.7719 11.3852 18.5582 10.9763 18.1742 10.8558Z" fill="#3453F3"/>
<path d="M8.65256 16.5533C8.0009 16.4363 7.37578 16.237 6.78301 15.9591C6.77599 15.9555 6.76971 15.9513 6.76235 15.948C6.62266 15.8822 6.48321 15.8118 6.34804 15.7382C6.34758 15.7376 6.34672 15.7373 6.34598 15.737C6.09798 15.6004 5.85594 15.4493 5.62081 15.2838C2.19209 12.8685 1.36769 8.114 3.78313 4.68533C4.30836 3.94004 4.94396 3.31827 5.65257 2.82547C5.6613 2.81939 5.67003 2.81335 5.67868 2.80723C8.1757 1.08672 11.5663 0.970766 14.2177 2.73875L13.6482 3.56156C13.4899 3.79058 13.5873 3.95747 13.8645 3.93252L16.3381 3.71107C16.6156 3.68612 16.7816 3.44607 16.7069 3.17808L16.0427 0.784777C15.9683 0.516472 15.7779 0.484357 15.6194 0.713335L15.0486 1.53809C13.1029 0.231915 10.7691 -0.266148 8.45266 0.13553C8.21935 0.175908 7.98932 0.225328 7.76245 0.282855C7.76069 0.283167 7.75929 0.283362 7.75789 0.283674C7.74912 0.285818 7.74023 0.288663 7.7317 0.29104C5.73422 0.803991 3.99145 1.969 2.74787 3.63121C2.73739 3.64364 2.72659 3.6558 2.71669 3.66932C2.67534 3.72502 2.6343 3.782 2.59412 3.83898C2.52841 3.93237 2.46363 4.02809 2.40166 4.12381C2.3939 4.13535 2.38798 4.14708 2.3812 4.15873C1.35498 5.74896 0.859998 7.58741 0.944886 9.45907C0.945081 9.46523 0.94473 9.47143 0.944886 9.47774C0.95311 9.66057 0.967609 9.84594 0.987291 10.0284C0.988343 10.0402 0.990955 10.0513 0.992942 10.0631C1.01329 10.2466 1.03882 10.4305 1.07081 10.6144C1.39602 12.4906 2.28107 14.1789 3.60728 15.4925C3.61035 15.4956 3.61355 15.499 3.61667 15.5022C3.61776 15.5034 3.61897 15.504 3.62002 15.5051C3.97633 15.8566 4.3639 16.1816 4.7812 16.4755C5.87329 17.2451 7.08935 17.7537 8.39533 17.9881C8.79159 18.0593 9.17011 17.7955 9.2412 17.3994C9.31225 17.0031 9.04871 16.6243 8.65256 16.5533Z" fill="#3453F3"/>
<path d="M9.55286 3.17676C9.22691 3.17676 8.96289 3.44101 8.96289 3.76649V9.64187L14.3364 12.4197C14.4229 12.4644 14.5155 12.4855 14.6066 12.4855C14.82 12.4855 15.0262 12.3693 15.131 12.1665C15.2804 11.8771 15.1673 11.5215 14.8779 11.3721L10.1422 8.92371V3.76649C10.1421 3.44101 9.87842 3.17676 9.55286 3.17676Z" fill="#3453F3"/>
</svg>
