<svg width="37" height="37" viewBox="0 0 37 37" fill="none" xmlns="http://www.w3.org/2000/svg">
<g clip-path="url(#clip0_1043_6990)">
<path d="M14.2141 0L6.72157 0.0308333C5.75032 0.0308333 4.84074 0.570417 4.37824 1.41833L0.462402 8.51L13.4587 8.47917L14.2141 0Z" fill="#002638"/>
<path d="M30.3402 8.44792L26.3781 1.35625C25.9002 0.508333 25.006 -0.03125 24.0194 -0.03125L16.5269 -0.000416666L17.3131 8.47875L30.3402 8.44792Z" fill="#002638"/>
<path d="M30.8331 14.5694L28.6594 14.0761C28.1198 13.9373 27.5494 13.8757 26.979 13.8757C26.424 13.8757 25.869 13.9373 25.391 14.0607L21.1823 15.0165C18.4535 15.664 16.3877 17.7607 15.7865 20.4894L15.3394 22.5244C13.6744 23.9582 13.3815 26.4865 14.7381 28.2748C14.7381 28.2903 14.7535 28.3057 14.769 28.3057C14.8769 29.169 15.0619 30.0323 15.2931 30.8494L2.48187 30.8803C2.46646 30.8803 2.46646 30.8803 2.46646 30.8803C1.14062 30.8803 0.0460417 29.7857 0.0460417 28.4444L-0.015625 10.8232L14.2448 10.7923H16.5573L30.8177 10.7461L30.8331 14.5694Z" fill="#002638"/>
<path d="M23.1252 29.2923C22.2742 29.2923 21.5835 28.6001 21.5835 27.7507C21.5835 26.9012 22.2742 26.209 23.1252 26.209C23.9762 26.209 24.6668 26.9012 24.6668 27.7507C24.6668 28.6001 23.9762 29.2923 23.1252 29.2923Z" fill="#002638"/>
<path d="M30.8332 29.308C29.9822 29.308 29.2915 28.6157 29.2915 27.7663C29.2915 26.9168 29.9822 26.2246 30.8332 26.2246C31.6842 26.2246 32.3748 26.9168 32.3748 27.7663C32.3748 28.6157 31.6842 29.308 30.8332 29.308Z" fill="#002638"/>
<path d="M26.9885 33.9121C25.9987 33.9121 25.0121 33.5483 24.2582 32.8222C23.7972 32.3782 23.7849 31.6474 24.2274 31.1864C24.6714 30.7286 25.4037 30.7147 25.8631 31.1572C26.4828 31.7553 27.4926 31.7553 28.1124 31.1572C28.5718 30.7147 29.3025 30.7286 29.7481 31.1864C30.1905 31.6459 30.1782 32.3782 29.7172 32.8222C28.9649 33.5483 27.9767 33.9121 26.9885 33.9121Z" fill="#002638"/>
<path d="M26.9944 36.9998C24.4692 36.9998 22.3525 36.1333 20.7044 34.4267C18.822 32.4673 17.6997 29.4132 17.6997 26.2543C17.6997 26.1696 17.709 26.0848 17.729 26.0015L17.9741 24.9069C18.0497 24.5693 18.2717 24.2841 18.5815 24.1284C19.8935 23.4655 22.7286 22.3555 26.996 22.3555C31.2371 22.3555 34.0691 23.467 35.3795 24.1284C35.6879 24.2841 35.9114 24.5708 35.987 24.9069L36.2321 26.0015C36.2521 26.0848 36.2614 26.1696 36.2614 26.2543V26.4856C36.2614 28.8197 35.4751 32.1312 33.2736 34.4236C31.6641 36.1087 29.4935 36.9998 26.9944 36.9998ZM20.0122 26.3792C20.0369 28.3572 20.6674 31.0505 22.3694 32.8234C23.5627 34.0598 25.1197 34.6873 26.9929 34.6873C28.8706 34.6873 30.42 34.0613 31.5978 32.8249C33.3291 31.0227 33.9442 28.3695 33.9442 26.4856V26.3823L33.8502 25.963C32.5768 25.3987 30.2859 24.6664 26.9944 24.6664C23.6798 24.6664 21.3827 25.3987 20.1047 25.963L20.0122 26.3792Z" fill="#002638"/>
<path d="M36.5454 24.8122C36.5146 24.7876 36.2879 24.6195 35.8701 24.3867L35.1533 21.1523C34.811 19.5921 33.5946 18.3634 32.0622 18.0227L27.9198 17.0715C27.3108 16.9204 26.6649 16.9189 26.0729 17.0669L21.8872 18.0243C20.3255 18.3927 19.1446 19.5921 18.8024 21.1508L18.0855 24.3883C17.6692 24.6211 17.4426 24.7891 17.4102 24.8138C16.9061 25.1992 16.809 25.9161 17.1898 26.4233C17.4164 26.7254 17.7633 26.8842 18.1163 26.8842C18.3553 26.8842 18.5973 26.8102 18.8054 26.6576C18.8471 26.6268 19.1122 26.4418 19.6056 26.2013C19.6071 26.1997 19.6086 26.1982 19.6102 26.1966C19.6133 26.1951 19.6164 26.1951 19.6179 26.1936C20.7495 25.6231 23.2069 24.6673 26.9948 24.6673C30.7549 24.6673 33.2092 25.6231 34.3377 26.192C34.3393 26.1936 34.3424 26.192 34.3439 26.1936C34.347 26.1951 34.3485 26.1982 34.3501 26.1982C34.8388 26.4371 35.1039 26.6206 35.1486 26.6545C35.3583 26.8102 35.6019 26.8858 35.8424 26.8858C36.1924 26.8858 36.5346 26.7285 36.7643 26.431C37.1497 25.9238 37.0526 25.1992 36.5454 24.8122Z" fill="#002638"/>
</g>
<defs>
<clipPath id="clip0_1043_6990">
<rect width="37" height="37" fill="white"/>
</clipPath>
</defs>
</svg>
