<svg width="38" height="37" viewBox="0 0 38 37" fill="none" xmlns="http://www.w3.org/2000/svg">
<g clip-path="url(#clip0_1043_7006)">
<path fill-rule="evenodd" clip-rule="evenodd" d="M30.462 10.9541C30.5769 10.9185 30.7282 10.9898 30.8795 11.186C30.8795 11.186 30.8795 11.186 37.7167 17.7598C38.1161 18.1521 38.1161 18.7464 37.7167 19.0377C37.7167 19.0377 37.7167 19.0377 30.8795 25.7125C30.7282 25.9087 30.5769 25.9562 30.462 25.8968C30.347 25.8374 30.2744 25.665 30.2744 25.4154V11.3821C30.2744 11.1384 30.347 10.9898 30.462 10.9541Z" fill="#ED1C24"/>
<path fill-rule="evenodd" clip-rule="evenodd" d="M18.7657 0H19.2498L19.7157 0.190202C19.7157 0.190202 19.7157 0.190201 26.7526 7.0612C27.0551 7.45349 26.9522 7.75068 26.45 7.75068C26.45 7.75068 26.45 7.75068 23.5336 7.75068C23.0314 7.75068 22.6321 8.14297 22.6321 8.6363C22.6321 8.6363 22.6321 8.6363 22.6321 13.7361C22.6321 14.2294 22.2267 14.6217 21.6216 14.6217C21.6216 14.6217 21.6216 14.6217 16.4967 14.6217C15.9945 14.6217 15.5891 14.2294 15.5891 13.7361C15.5891 13.7361 15.5891 13.7361 15.5891 8.6363C15.5891 8.14297 15.1898 7.75068 14.6815 7.75068H11.5654C11.0632 7.75068 10.9604 7.45349 11.2629 7.0612C11.2629 7.0612 11.2629 7.0612 18.3059 0.190202L18.7657 0V0Z" fill="#ED1C24"/>
<path fill-rule="evenodd" clip-rule="evenodd" d="M7.74181 10.8052C7.86887 10.8646 7.94753 11.037 7.94753 11.2866V25.6111C7.94753 25.8608 7.86887 26.0094 7.74181 26.0569C7.6208 26.1045 7.44533 26.0569 7.23961 25.9083C7.23961 25.9083 7.23961 25.9083 0.299507 19.0373C-0.0998358 18.7461 -0.0998358 18.1517 0.299507 17.7594C0.299507 17.7594 0.299508 17.7594 7.23961 10.9894C7.44533 10.7933 7.6208 10.7458 7.74181 10.8052Z" fill="#ED1C24"/>
<path fill-rule="evenodd" clip-rule="evenodd" d="M16.4969 22.0801C16.4969 22.0801 16.4969 22.0801 21.6218 22.0801C22.2268 22.0801 22.6322 22.4724 22.6322 22.9657C22.6322 22.9657 22.6322 22.9657 22.6322 28.3626C22.6322 28.9511 23.0316 29.3434 23.5338 29.3434H26.2505C26.7527 29.3434 26.9524 29.6346 26.553 29.9318C26.553 29.9318 26.553 29.9318 19.7158 36.7018C19.5101 36.8979 19.262 36.999 19.0079 36.999C18.7598 36.999 18.5057 36.8979 18.306 36.7018C18.306 36.7018 18.306 36.7018 11.4688 29.9318C11.0634 29.6346 11.263 29.3434 11.7652 29.3434C11.7652 29.3434 11.7652 29.3434 14.6817 29.3434C15.1899 29.3434 15.5893 28.9511 15.5893 28.3626C15.5893 28.3626 15.5893 28.3626 15.5893 22.9657C15.5893 22.4724 15.9947 22.0801 16.4969 22.0801V22.0801Z" fill="#ED1C24"/>
</g>
<defs>
<clipPath id="clip0_1043_7006">
<rect width="38" height="37" fill="white"/>
</clipPath>
</defs>
</svg>
