<svg width="20" height="9" viewBox="0 0 20 9" fill="none" xmlns="http://www.w3.org/2000/svg">
<path d="M13.1061 0.0674227C12.9306 0.162101 12.8212 0.342135 12.8212 0.537947V3.58703L0.550721 3.58703C0.246723 3.58703 0 3.82803 0 4.12498C0 4.42193 0.246723 4.66293 0.550721 4.66293L12.8212 4.66293L12.8212 7.71201C12.8212 7.90854 12.9306 8.08858 13.1061 8.18254C13.2816 8.27794 13.496 8.27148 13.6656 8.16748L19.493 4.58044C19.653 4.48146 19.75 4.31003 19.75 4.12498C19.75 3.93993 19.653 3.7685 19.493 3.66952L13.6656 0.0824853C13.576 0.0279733 13.4739 0 13.3719 0C13.2808 0 13.189 0.0229524 13.1061 0.0674227Z" fill="#3453F3"/>
</svg>
